<svg xmlns="http://www.w3.org/2000/svg" width="176.39mm" height="156.77mm" viewBox="0 0 500 444.39"><defs><style>.a,.b{fill-rule:evenodd;}.b,.e{fill:#e23317;}.c{fill:#ebf43d;}.c,.d,.h{stroke:#1d1d1b;}.c,.d,.e,.f,.g,.h{stroke-miterlimit:10;stroke-width:3px;}.d{fill:#2ca5b5;}.e,.f,.g{stroke:#020202;}.f{fill:#511577;}.g{fill:#19267f;}.h{fill:#269b2b;}</style></defs><title>LOGOPENE</title><path class="a" d="M0,129.46c1.73-9,2.92-18.08,5.29-26.87C28.45,16.7,127.07-25.75,205,16.54c17.86,9.69,31.69,23.59,41.89,41.14.89,1.54,1.81,3.06,3,5.07,2.69-4.33,5-8.32,7.55-12.1,18.69-27.26,45.21-42.21,77.15-48C414.16-11.87,488,41.83,498.63,122c4.43,33.28-2.23,65-15.2,95.53-17.91,42.22-45.52,77.7-77.49,110-45.05,45.54-96.77,82.39-151.29,115.57-3.44,2.1-6.82,1.45-9.81-.36C180.11,403.29,119.27,359,69.61,301,43,269.86,20.85,235.92,8.9,196.33c-3.73-12.36-5.4-25.33-8-38C.61,157,.29,155.74,0,154.45ZM250.3,70c-1.17-.91-1.68-1.14-1.92-1.53-.76-1.28-1.45-2.61-2.13-4-8.68-17-20.72-31-37-41.06C181.15,6.15,150.52,1,118.07,5.54,61.91,13.4,14.38,60.88,5.88,116.89c-5.18,34.17.5,66.65,13.6,98.14,16.57,39.82,42.1,73.56,71.76,104.37,45.76,47.52,98.91,85.52,154.94,119.78,2.83,1.73,5.13,1.54,7.82-.18,9.4-6,19-11.75,28.32-17.84,47.43-31,92.24-65.17,131.05-106.7,29.45-31.51,54.55-66,69.95-106.68,11.53-30.47,16.6-61.83,10-94.12C477.94,38.74,410.12-7.1,334.84,6.53c-36.73,6.66-65,25.53-82,59.61A39.17,39.17,0,0,1,250.3,70Z"/><path class="b" d="M250.3,70a39.2,39.2,0,0,0,2.53-3.88c17-34.08,45.28-52.95,82-59.6,75.28-13.64,143.1,32.2,158.46,107.13,6.62,32.28,1.55,63.64-10,94.12-15.4,40.72-40.5,75.16-69.95,106.67-38.81,41.53-83.62,75.74-131,106.7C273,427.27,263.4,433,254,439c-2.69,1.73-5,1.91-7.82.18-56-34.26-109.18-72.25-154.94-119.77C61.58,288.61,36.05,254.86,19.48,215,6.38,183.56.7,151.07,5.88,116.9c8.5-56,56-103.49,112.19-111.34,32.45-4.54,63.08.6,91.18,17.92,16.28,10,28.32,24.09,37,41.07.68,1.33,1.37,2.66,2.13,3.94C248.62,68.89,249.13,69.11,250.3,70Z"/><polygon class="c" points="37.07 134.96 58.65 134.96 58.65 158.41 64.28 158.41 64.28 134.96 84.93 134.96 84.93 197.36 65.22 197.36 64.75 174.84 58.65 174.84 58.65 197.36 37.07 197.36 37.07 134.96"/><polygon class="d" points="109.48 141.13 109.48 189.7 115.55 196.7 149.17 196.7 155.24 191.1 155.24 141.13 149.64 134.59 114.61 134.59 109.48 141.13"/><polygon class="e" points="129.09 149.42 129.09 176.97 135.63 173.24 135.63 149.42 129.09 149.42"/><polygon class="f" points="179.41 133.53 179.41 190.09 185.99 196.04 227.35 196.04 227.35 184.76 218.89 178.18 200.4 178.18 199.78 139.33 193.82 133.53 179.41 133.53"/><polygon class="g" points="250 133.01 250 196.27 291.22 196.27 296.93 190.25 296.93 138.88 291.54 133.01 250 133.01"/><polygon class="e" points="270.19 149.42 270.19 176.97 276.73 173.24 276.73 149.42 270.19 149.42"/><polygon class="h" points="345.89 140.13 345.89 188.69 351.95 195.7 385.58 195.7 391.65 190.09 391.65 140.13 386.05 133.59 351.02 133.59 345.89 140.13"/><polygon class="e" points="365.5 148.42 365.5 175.97 372.04 172.23 372.04 148.42 365.5 148.42"/><polygon class="c" points="414.65 195.7 414.65 133.01 435.01 133.01 435.01 142.24 441.37 157.83 441.37 133.01 463.65 133.01 463.65 195.7 441.69 195.7 442.01 184.88 435.33 170.88 435.65 195.7 414.65 195.7"/><path d="M89.48,297.65a2.86,2.86,0,0,1,1,.29,3.06,3.06,0,0,1,.88.64,3.56,3.56,0,0,1,1.08,2.66,3.86,3.86,0,0,1-1.26,2.66,3.43,3.43,0,0,1-2.57,1,3.64,3.64,0,0,1-2.59-1.2,3.16,3.16,0,0,1-.73-1.13,2.21,2.21,0,0,1-.06-1.2l-.38.36a.31.31,0,0,1-.26.09.6.6,0,0,1-.3-.18l-.83-.87a1.08,1.08,0,0,1-.38-.68.84.84,0,0,1,.32-.62.85.85,0,0,1,.6-.29.9.9,0,0,1,.6.31l.09.09,4.87-4.71-.08-.09a.78.78,0,0,1,0-1.23.88.88,0,0,1,.63-.3,1.18,1.18,0,0,1,.68.41l1,1.05a.46.46,0,0,1,.17.35.56.56,0,0,1-.2.35Zm.51,1.91a1.67,1.67,0,0,0-1.3-.51,2.12,2.12,0,0,0-1.4.65,2.16,2.16,0,0,0-.71,1.39,1.58,1.58,0,0,0,.47,1.31,1.61,1.61,0,0,0,1.3.52,2.25,2.25,0,0,0,1.42-.66,2.18,2.18,0,0,0,.69-1.38A1.66,1.66,0,0,0,90,299.56Z"/><path d="M95.41,305.17,94,308.51l3.4-1.29-.09-.09a.88.88,0,0,1-.3-.61,1.07,1.07,0,0,1,.92-.92,1.18,1.18,0,0,1,.68.41l1.3,1.3a1.2,1.2,0,0,1,.4.69.82.82,0,0,1-.31.62.77.77,0,0,1-1.21,0l-.1-.09-7.15,2.58.24.25a1.21,1.21,0,0,1,.4.68.86.86,0,0,1-.31.64.83.83,0,0,1-.63.29,1.1,1.1,0,0,1-.68-.39l-2.41-2.43a1.13,1.13,0,0,1-.4-.68.84.84,0,0,1,.31-.63.86.86,0,0,1,.63-.31,1.15,1.15,0,0,1,.68.4l.85.86,1.64-.58L94,303.76l-.09-.09a.77.77,0,0,1,0-1.22.88.88,0,0,1,.63-.3,1.19,1.19,0,0,1,.67.41l1.4,1.41a1.1,1.1,0,0,1,.4.68.84.84,0,0,1-.3.62.83.83,0,0,1-.61.29.89.89,0,0,1-.61-.29Z"/><path d="M107.66,320.33l-1.11,1.16.58.55a1.16,1.16,0,0,1,.39.64.86.86,0,0,1-.3.62.89.89,0,0,1-.62.33,1.08,1.08,0,0,1-.65-.35l-2-1.87a1.14,1.14,0,0,1-.4-.66.9.9,0,0,1,.3-.64.83.83,0,0,1,.59-.3.78.78,0,0,1,.59.27l.1.09,4-4.2-.1-.1a.81.81,0,0,1-.29-.58.89.89,0,0,1,.29-.61.87.87,0,0,1,.62-.32,1.12,1.12,0,0,1,.67.36l2.33,2.24a4.74,4.74,0,0,1,1.58,2.53,2.54,2.54,0,0,1-.79,2.24,2.73,2.73,0,0,1-2.29,1,4.59,4.59,0,0,1-2.62-1.45Zm2.93-3.05-1.71,1.78.8.77a2.53,2.53,0,0,0,1.21.74,1.08,1.08,0,0,0,1-.36,1,1,0,0,0,.28-1,2.57,2.57,0,0,0-.77-1.18Z"/><path d="M119.92,326l-2.65-2.49L115.9,325l1,.94.07-.07a1,1,0,0,1,.59-.35.77.77,0,0,1,.59.25.84.84,0,0,1,.28.54.65.65,0,0,1-.18.51l-.07.08a.69.69,0,0,1-.11.13L117,328.21a1.12,1.12,0,0,1-.65.42.75.75,0,0,1-.6-.25.79.79,0,0,1-.29-.57.87.87,0,0,1,.28-.59l.09-.1-1-.94-1.6,1.7,2.65,2.49.64-.68a1.11,1.11,0,0,1,.66-.41,1,1,0,0,1,.94.88,1.21,1.21,0,0,1-.38.68l-1.29,1.38a.72.72,0,0,1-.51.29,1,1,0,0,1-.57-.34l-4.66-4.38a1.09,1.09,0,0,1-.4-.65.9.9,0,0,1,.29-.64.88.88,0,0,1,.59-.31.84.84,0,0,1,.6.26l.09.09,4-4.24-.09-.09a.81.81,0,0,1-.3-.59.9.9,0,0,1,.28-.61.82.82,0,0,1,.62-.32,1.09,1.09,0,0,1,.68.35l4.66,4.38a1.07,1.07,0,0,1,.37.55.8.8,0,0,1-.27.53l-1.2,1.28a1.25,1.25,0,0,1-.66.42.8.8,0,0,1-.62-.27.82.82,0,0,1-.32-.62,1.2,1.2,0,0,1,.38-.69Z"/><path d="M123.6,335.41l2.91-3.17-.31-.29a1.14,1.14,0,0,1-.41-.65.92.92,0,0,1,.28-.64.87.87,0,0,1,.62-.33,1,1,0,0,1,.68.35l1.63,1.5a1.06,1.06,0,0,1,.4.65.83.83,0,0,1-.28.64.88.88,0,0,1-.59.32.82.82,0,0,1-.6-.25l-.1-.09-4.8,5.22c-.17.18-.29.28-.37.29s-.19,0-.32-.17l-.58-.53a1.27,1.27,0,0,1-.33-.42.65.65,0,0,1,0-.37l1.48-6.41L120,334.19l.34.3a1.12,1.12,0,0,1,.4.64.84.84,0,0,1-.28.62.85.85,0,0,1-.61.34,1,1,0,0,1-.67-.34l-1.65-1.52a1.1,1.1,0,0,1-.41-.64,1.08,1.08,0,0,1,.87-1,.82.82,0,0,1,.6.27l.1.08,3.94-4.29-.09-.08a.77.77,0,0,1-.3-.58,1.05,1.05,0,0,1,.88-.95,1.07,1.07,0,0,1,.68.34l.94.87a1.09,1.09,0,0,1,.38.51,1.42,1.42,0,0,1-.06.61Z"/><path d="M133.93,338.86l-2.7-2.43-1.34,1.48,1,.92.07-.07a1,1,0,0,1,.59-.36.76.76,0,0,1,.58.23.83.83,0,0,1,.3.54.67.67,0,0,1-.17.52l-.07.08a.69.69,0,0,1-.11.13L131,341.1a1.21,1.21,0,0,1-.64.44.76.76,0,0,1-.6-.24.72.72,0,0,1,0-1.16l.09-.11-1-.92-1.56,1.74,2.69,2.43.63-.69a1.16,1.16,0,0,1,.65-.43,1.05,1.05,0,0,1,1,.87,1.22,1.22,0,0,1-.36.68l-1.27,1.41a.74.74,0,0,1-.5.31,1.11,1.11,0,0,1-.57-.33l-4.76-4.29a1.1,1.1,0,0,1-.41-.64,1.06,1.06,0,0,1,.86-1,.83.83,0,0,1,.6.25l.1.09,3.9-4.33-.1-.09a.76.76,0,0,1-.3-.57.89.89,0,0,1,.26-.62.87.87,0,0,1,.61-.34,1.08,1.08,0,0,1,.69.34l4.75,4.28a1.13,1.13,0,0,1,.38.54.74.74,0,0,1-.26.54l-1.17,1.3a1.26,1.26,0,0,1-.65.44.81.81,0,0,1-.63-.26.84.84,0,0,1-.33-.61,1.21,1.21,0,0,1,.36-.69Z"/><path d="M138.67,343.18l-3.86,4.37,2.66,2.35.92-1a1.23,1.23,0,0,1,.65-.45.77.77,0,0,1,.63.25.84.84,0,0,1,.33.6,1.17,1.17,0,0,1-.35.71l-1.59,1.8a.72.72,0,0,1-.49.31,1,1,0,0,1-.59-.33l-5.31-4.69a1.1,1.1,0,0,1-.41-.64.86.86,0,0,1,.28-.64.84.84,0,0,1,.59-.34,1.07,1.07,0,0,1,.67.34l.52.45,3.86-4.37-.52-.45a1.11,1.11,0,0,1-.41-.63.85.85,0,0,1,.27-.64.84.84,0,0,1,.61-.34,1,1,0,0,1,.69.32l2.49,2.21a1,1,0,0,1,.41.64.8.8,0,0,1-.26.64.87.87,0,0,1-.61.35,1.06,1.06,0,0,1-.68-.34Z"/><path d="M147.76,348.5a4.09,4.09,0,0,1,1.49,3.11,5.61,5.61,0,0,1-4.59,5.32,4.35,4.35,0,0,1-4.78-4.16,5.56,5.56,0,0,1,4.58-5.31A4.12,4.12,0,0,1,147.76,348.5Zm-1.19,1.37a1.81,1.81,0,0,0-1.72-.42,4.69,4.69,0,0,0-3,3.42,1.81,1.81,0,0,0,.65,1.65,1.88,1.88,0,0,0,1.74.43,3.91,3.91,0,0,0,1.92-1.34,3.82,3.82,0,0,0,1-2.08A1.81,1.81,0,0,0,146.57,349.87Z"/><path d="M150.14,358.73l-1,1.22.61.52a1.08,1.08,0,0,1,.43.62.81.81,0,0,1-.26.63.87.87,0,0,1-.59.36,1,1,0,0,1-.68-.31L146.55,360a1,1,0,0,1-.43-.64.85.85,0,0,1,.26-.65.75.75,0,0,1,1.17-.11l.1.09,3.78-4.44-.11-.09a.8.8,0,0,1-.32-.57.89.89,0,0,1,.25-.62.87.87,0,0,1,.6-.36,1.09,1.09,0,0,1,.69.32l2.46,2.09a4.73,4.73,0,0,1,1.73,2.43,2.51,2.51,0,0,1-.65,2.29,2.74,2.74,0,0,1-2.22,1.1,4.6,4.6,0,0,1-2.71-1.28Zm2.73-3.22-1.59,1.88.84.72a2.53,2.53,0,0,0,1.26.65,1.13,1.13,0,0,0,1.18-1.41,2.55,2.55,0,0,0-.84-1.13Z"/><path d="M162.73,363.68l-2.79-2.32-1.28,1.53,1.06.88.06-.07a1,1,0,0,1,.57-.39.78.78,0,0,1,.6.22.79.79,0,0,1,.31.52.65.65,0,0,1-.15.53s0,0-.06.08l-.1.14-1,1.24a1.19,1.19,0,0,1-.62.46,1,1,0,0,1-.94-.77.88.88,0,0,1,.24-.61l.09-.1-1.06-.88-1.49,1.79,2.79,2.32.6-.71a1.1,1.1,0,0,1,.63-.45,1,1,0,0,1,1,.82,1.15,1.15,0,0,1-.34.7l-1.21,1.46a.8.8,0,0,1-.48.33,1,1,0,0,1-.59-.31L153.61,366a1.07,1.07,0,0,1-.44-.63,1.06,1.06,0,0,1,.82-1,.8.8,0,0,1,.61.23l.1.08,3.73-4.48-.1-.08a.78.78,0,0,1-.33-.57,1.08,1.08,0,0,1,.83-1,1.1,1.1,0,0,1,.7.31l4.92,4.09a1,1,0,0,1,.4.53.73.73,0,0,1-.23.55l-1.12,1.34a1.12,1.12,0,0,1-.64.46.77.77,0,0,1-.63-.22.8.8,0,0,1-.35-.6,1.08,1.08,0,0,1,.33-.71Z"/><path d="M178.16,374.29a.85.85,0,0,1,.42-.11.94.94,0,0,1,.41.21c.24.19.36.36.36.5a1.37,1.37,0,0,1-.31.61l-.91,1.19,0,.07a.91.91,0,0,1-.55.39.86.86,0,0,1-.6-.24.89.89,0,0,1-.28-1l0-.15a1.62,1.62,0,0,0-.06-1A1.86,1.86,0,0,0,176,374a1.83,1.83,0,0,0-1.09-.45,1,1,0,0,0-.85.38c-.3.38,0,1.08.84,2.12l.35.42a4.31,4.31,0,0,1,1.08,2.14,2.5,2.5,0,0,1-.62,1.85,2.67,2.67,0,0,1-2.15,1.12,4.37,4.37,0,0,1-2.67-1.13,7.21,7.21,0,0,1-.93-.86,5.26,5.26,0,0,1-.67-.9.87.87,0,0,1-.41.05,1.11,1.11,0,0,1-.41-.22,1,1,0,0,1-.42-.57.93.93,0,0,1,.26-.65l1.12-1.45.05-.07a1,1,0,0,1,.6-.44.91.91,0,0,1,.65.25c.26.21.33.58.2,1.11,0,.13,0,.22-.07.29a2,2,0,0,0,.1,1.23,2.71,2.71,0,0,0,.86,1.06,1.86,1.86,0,0,0,1.06.47,1,1,0,0,0,.83-.41c.35-.43.14-1.14-.62-2.11-.23-.29-.41-.52-.54-.7a4.69,4.69,0,0,1-1-2.09,2.22,2.22,0,0,1,.56-1.64,2.75,2.75,0,0,1,2.15-1.09,3.94,3.94,0,0,1,2.56,1,5.25,5.25,0,0,1,.75.74A4.74,4.74,0,0,1,178.16,374.29Z"/><path d="M185.23,381.77l-1.29-1-3.57,4.6,1,.8a1.13,1.13,0,0,1,.47.62.89.89,0,0,1-.22.66.91.91,0,0,1-.59.39,1.18,1.18,0,0,1-.72-.3l-3.66-2.85a1.08,1.08,0,0,1-.46-.62.83.83,0,0,1,.23-.66A.85.85,0,0,1,177,383a1.16,1.16,0,0,1,.71.3l1,.81,3.57-4.6-1.29-1-1,1.22-.12.15a.79.79,0,0,1-.52.34.74.74,0,0,1-.58-.19.82.82,0,0,1-.37-.57,1,1,0,0,1,.27-.68l0-.05,1.51-1.79c.29-.36.51-.54.66-.55a1.19,1.19,0,0,1,.63.31l5.3,4.13c.27.21.42.38.45.53s-.09.4-.35.78l-1.37,1.89,0,.05a1.06,1.06,0,0,1-.59.44.79.79,0,0,1-.64-.21.75.75,0,0,1-.34-.55,1.22,1.22,0,0,1,.32-.73Z"/><path d="M190.22,389.72a1.24,1.24,0,0,1,.05.6s0,.07,0,.1l-.2,2.38.07.05.12.09a1,1,0,0,1,.42.58.82.82,0,0,1-.2.65.87.87,0,0,1-.58.39,1.19,1.19,0,0,1-.73-.3l-.77-.58a.94.94,0,0,1-.38-.87v0l.26-3.5a.85.85,0,0,0,0-.36.45.45,0,0,0-.18-.25l-.58-.44-1.25,1.64.1.08a.75.75,0,0,1,.17,1.18.87.87,0,0,1-.58.4,1.07,1.07,0,0,1-.72-.3L183.56,390a1.13,1.13,0,0,1-.47-.62,1.05,1.05,0,0,1,.77-1,.92.92,0,0,1,.63.21l.11.08,3.52-4.64-.11-.08a.81.81,0,0,1-.36-.56.85.85,0,0,1,.21-.64.8.8,0,0,1,.58-.38,1.07,1.07,0,0,1,.72.28l2.87,2.18a4.05,4.05,0,0,1,1.61,2,2.27,2.27,0,0,1-.47,2,2.53,2.53,0,0,1-1.29.92A2.72,2.72,0,0,1,190.22,389.72Zm-.54-4.59-1.34,1.76.84.64a2.65,2.65,0,0,0,1.24.62.92.92,0,0,0,.83-.44,1,1,0,0,0,.23-.89,2,2,0,0,0-.76-.9Z"/><path d="M199,392.19l-3.46,4.69,1.06.78a1.14,1.14,0,0,1,.49.61.81.81,0,0,1-.19.66.86.86,0,0,1-.59.39,1.16,1.16,0,0,1-.73-.28l-3.73-2.76a1.17,1.17,0,0,1-.5-.61.86.86,0,0,1,.21-.67.79.79,0,0,1,.57-.39,1.17,1.17,0,0,1,.73.3l1.06.78,3.45-4.7-1-.78a1.09,1.09,0,0,1-.49-.61.82.82,0,0,1,.2-.67.85.85,0,0,1,.57-.39,1.17,1.17,0,0,1,.73.3l3.74,2.75a1.18,1.18,0,0,1,.51.62.8.8,0,0,1-.22.65.84.84,0,0,1-.57.4,1.17,1.17,0,0,1-.74-.29Z"/><path d="M204.85,401.7l2.5-3.51-.35-.25a1,1,0,0,1-.48-.59,1.09,1.09,0,0,1,.76-1.07,1,1,0,0,1,.72.26l1.81,1.29a1.11,1.11,0,0,1,.48.59.89.89,0,0,1-.2.67.87.87,0,0,1-.55.4.88.88,0,0,1-.63-.18l-.1-.08L204.69,405c-.15.2-.26.31-.34.33s-.19,0-.34-.13l-.63-.45a1.39,1.39,0,0,1-.39-.37.67.67,0,0,1-.05-.38l.67-6.54-2.46,3.46.37.26a1.09,1.09,0,0,1,.47.58.83.83,0,0,1-.19.66.89.89,0,0,1-.57.41,1.06,1.06,0,0,1-.71-.26l-1.82-1.3a1,1,0,0,1-.48-.59,1.06,1.06,0,0,1,.74-1.06.78.78,0,0,1,.63.19l.1.07,3.39-4.75-.11-.07a.81.81,0,0,1-.37-.54.87.87,0,0,1,.19-.64.89.89,0,0,1,.57-.41,1.07,1.07,0,0,1,.72.26l1,.74a1.19,1.19,0,0,1,.44.46,1.68,1.68,0,0,1,0,.62Z"/><path d="M215.78,404l-1.35-.92-3.3,4.8,1.08.74a1.07,1.07,0,0,1,.5.6.81.81,0,0,1-.18.66.83.83,0,0,1-.56.42,1.13,1.13,0,0,1-.74-.25l-3.82-2.63a1.15,1.15,0,0,1-.5-.59.87.87,0,0,1,.19-.68.84.84,0,0,1,.56-.41,1.12,1.12,0,0,1,.73.25l1.08.75,3.3-4.81-1.35-.92-.93,1.28-.11.16a.8.8,0,0,1-.51.37.84.84,0,0,1-.59-.15.85.85,0,0,1-.4-.55,1,1,0,0,1,.23-.7l0-.05,1.4-1.88c.27-.37.48-.57.63-.58a1.13,1.13,0,0,1,.64.27l5.54,3.81a1.13,1.13,0,0,1,.48.5c0,.14-.06.41-.31.8l-1.26,2,0,0a1.11,1.11,0,0,1-.57.48.85.85,0,0,1-.64-.18.76.76,0,0,1-.38-.52,1.27,1.27,0,0,1,.28-.76Z"/><path d="M217.36,412.1l2.19,1.44.7-1.05a1.16,1.16,0,0,1,.59-.52.9.9,0,0,1,.7.18.77.77,0,0,1,.4.53.93.93,0,0,1-.2.68l-.05.07-1.17,1.64c-.27.38-.48.58-.63.59a1.28,1.28,0,0,1-.68-.28l-4.32-2.84a.93.93,0,0,1-.42-.51.7.7,0,0,1,.11-.59,1.16,1.16,0,0,1,.24-.26,1.8,1.8,0,0,1,.31-.2l6.88-2.8-2-1.33-.65.9a1.19,1.19,0,0,1-.62.52.87.87,0,0,1-.68-.18.79.79,0,0,1-.39-.53,1,1,0,0,1,.19-.68l0-.07L219,405.3c.27-.38.47-.57.61-.59a1.31,1.31,0,0,1,.7.29l4.16,2.74a.91.91,0,0,1,.41.51.68.68,0,0,1-.11.58,1,1,0,0,1-.25.28,1.21,1.21,0,0,1-.31.21Z"/></svg>