<svg xmlns="http://www.w3.org/2000/svg" width="48" height="48" viewBox="0 0 48 48"><defs><style>.cls-1{fill:none;}.cls-2{fill:#edeafd;}.cls-3{fill:#553bf2;}</style></defs><g id="Layer_2" data-name="Layer 2"><g id="Layer_1-2" data-name="Layer 1"><rect class="cls-1" width="48" height="48"/><path class="cls-2" d="M24,8a16,16,0,1,1-11.31372,4.68634A15.89548,15.89548,0,0,1,24,8m0-2a18,18,0,1,0,12.728,5.27209A17.94344,17.94344,0,0,0,24,6Z"/><path class="cls-3" d="M25.15234,27.3479h-3.3125v-4.272h2.04a2.73588,2.73588,0,0,0,2.11231-.75586,2.644,2.644,0,0,0,.69531-1.85986,2.74749,2.74749,0,0,0-.32324-1.36817,2.29421,2.29421,0,0,0-.91211-.8999,2.8146,2.8146,0,0,0-1.37988-.32422,2.867,2.867,0,0,0-1.47657.35986,2.5091,2.5091,0,0,0-.94726.97217,2.81427,2.81427,0,0,0-.33692,1.37988h-3.1914a5.83656,5.83656,0,0,1,.68359-2.8081,5.02977,5.02977,0,0,1,2.04-2.02783,6.68766,6.68766,0,0,1,3.2998-.75586,6.425,6.425,0,0,1,3.06055.68408A4.94478,4.94478,0,0,1,29.18359,17.532a5.179,5.179,0,0,1,.69629,2.688v.28809a4.95781,4.95781,0,0,1-.69629,2.61572,4.74344,4.74344,0,0,1-2.05175,1.812,6.68146,6.68146,0,0,1-1.95.58071ZM21.57617,33.012V29.46021H25.416V33.012Z"/></g></g></svg>