<svg xmlns="http://www.w3.org/2000/svg" xmlns:xlink="http://www.w3.org/1999/xlink" width="180.5" height="141" viewBox="0 0 180.5 141"><defs><style>.cls-1{fill:none;}.cls-2{clip-path:url(#clip-path);}.cls-13,.cls-3{fill:#ddd;}.cls-10,.cls-4{fill:#fff;}.cls-5{opacity:0.5;}.cls-6{clip-path:url(#clip-path-3);}.cls-7{fill:#aaa;}.cls-8{fill:gray;}.cls-9{clip-path:url(#clip-path-6);}.cls-10,.cls-13,.cls-14,.cls-15,.cls-16,.cls-18{fill-rule:evenodd;}.cls-11,.cls-16{fill:#053437;}.cls-12{fill:#33d67b;}.cls-14{fill:#f7ce05;}.cls-15{fill:#caecf9;}.cls-17{fill:#553bf2;}.cls-18{fill:#f0403d;}</style><clipPath id="clip-path"><rect class="cls-1" width="180.5" height="140"/></clipPath><clipPath id="clip-path-3"><rect class="cls-1" x="12.7497" y="34.755" width="121.5003" height="77.495"/></clipPath><clipPath id="clip-path-6"><rect class="cls-1" x="8.5" y="29" width="160" height="80"/></clipPath></defs><g id="Layer_2" data-name="Layer 2"><g id="Layer_2-2" data-name="Layer 2"><g class="cls-2"><path class="cls-3" d="M45.10636,105.50027l-.11328-.00049q-.34168-.00512-.6814-.0415a.49989.49989,0,1,1,.106-.99414c.1958.02051.39209.0332.58911.03564l.09961.00049a6.17623,6.17623,0,0,0,1.14013-.105.49985.49985,0,1,1,.18506.98242A7.15531,7.15531,0,0,1,45.10636,105.50027Zm-4.44312-1.38916a.49594.49594,0,0,1-.26123-.07422,14.94156,14.94156,0,0,1-1.67212-1.2041.50015.50015,0,0,1,.63672-.77148,13.87675,13.87675,0,0,0,1.55884,1.124.49986.49986,0,0,1-.26221.92578Zm9.17334-.48242a.5.5,0,0,1-.325-.88037,11.73882,11.73882,0,0,0,1.33911-1.36133.5.5,0,0,1,.76465.64453,12.79173,12.79173,0,0,1-1.45434,1.47754A.5.5,0,0,1,49.83658,103.62869Zm-13.60937-3.51025a.49973.49973,0,0,1-.38135-.17627c-.419-.49366-.84522-1.02735-1.2666-1.58741a.5.5,0,0,1,.79883-.60156c.40966.54444.82348,1.063,1.23,1.54151a.49984.49984,0,0,1-.38086.82373Zm17.23584-1.2212a.49472.49472,0,0,1-.24219-.063.49984.49984,0,0,1-.19458-.67969c.30225-.544.60644-1.13428.90454-1.75391a.50012.50012,0,0,1,.90137.4336c-.30664.6372-.61988,1.24463-.9314,1.80566A.50021.50021,0,0,1,53.46305,98.89724ZM32.71769,95.24685a.50012.50012,0,0,1-.42383-.23388q-.52772-.84082-1.04444-1.72852a.5.5,0,1,1,.86377-.5039q.50866.87231,1.02759,1.70019a.5003.5003,0,0,1-.42309.76611Zm-2.96167-5.23a.49984.49984,0,0,1-.44458-.2705q-.45813-.88551-.90577-1.79883a.50007.50007,0,0,1,.89795-.44043q.44276.90234.896,1.78027a.49957.49957,0,0,1-.4436.72949Zm28.1958-2.25244a.50017.50017,0,0,1-.47632-.65283q.30249-.94263.59912-1.90625a.5.5,0,1,1,.95557.29492q-.29847.96753-.60254,1.917A.50024.50024,0,0,1,57.95182,87.76443ZM27.153,84.59744a.50009.50009,0,0,1-.45654-.29541q-.40942-.91407-.80909-1.84131a.5.5,0,0,1,.91846-.39551q.3966.91992.80322,1.82764a.50053.50053,0,0,1-.45605.70459Zm77.58594-.09912-.01612-.00049a6.25256,6.25256,0,0,1-2.09472-.44678.50006.50006,0,1,1,.36621-.93066,5.27119,5.27119,0,0,0,1.76.37842.49988.49988,0,0,1-.01538.99951Zm3.76733-1.00342a.50006.50006,0,0,1-.25464-.93066,8.70476,8.70476,0,0,0,1.49365-1.12842.49983.49983,0,1,1,.6814.73144,9.68383,9.68383,0,0,1-1.66675,1.2583A.49951.49951,0,0,1,108.50626,83.4949ZM59.7067,82.01346a.49187.49187,0,0,1-.1416-.02051.5.5,0,0,1-.33838-.62061l.56274-1.91943a.5.5,0,1,1,.96.28027l-.56323,1.92139A.50035.50035,0,0,1,59.7067,82.01346Zm39.82617-.15625a.49927.49927,0,0,1-.34473-.1377c-.46093-.439-.9353-.939-1.40991-1.48584a.5.5,0,0,1,.75537-.65527c.45386.52295.906.99951,1.344,1.4165a.50013.50013,0,0,1-.34473.86231Zm13.03076-2.66846a.49978.49978,0,0,1-.42456-.76319c.32447-.52392.64795-1.09912.96118-1.709a.50009.50009,0,1,1,.88965.457c-.32568.6333-.66235,1.23194-1.00073,1.77832A.49926.49926,0,0,1,112.56363,79.18875Zm-87.75512-.12891a.49984.49984,0,0,1-.46436-.314q-.37427-.93458-.7373-1.8711a.49985.49985,0,1,1,.93212-.36132q.36145.9309.7334,1.86035a.4995.4995,0,0,1-.46386.686Zm70.91552-1.834a.49928.49928,0,0,1-.41186-.21582q-.56214-.81372-1.11963-1.68067a.5.5,0,1,1,.84033-.542q.549.8518,1.102,1.6543a.50023.50023,0,0,1-.41089.78418Zm-34.3269-.98242a.49988.49988,0,0,1-.47974-.64161q.28529-.96533.57422-1.92285a.5.5,0,0,1,.95728.28907q-.28821.95361-.57251,1.917A.49983.49983,0,0,1,61.39713,76.24344Zm53.77368-2.457a.49336.49336,0,0,1-.18115-.03417.49976.49976,0,0,1-.28443-.64747c.228-.58545.459-1.2124.68677-1.86279a.5.5,0,1,1,.94385.33008c-.23145.66162-.46655,1.29932-.699,1.896A.50039.50039,0,0,1,115.17081,73.7864Zm-92.50928-.34619a.50027.50027,0,0,1-.46972-.32861q-.3457-.94848-.6792-1.88965a.49991.49991,0,1,1,.94238-.334q.33179.936.67627,1.88086a.50016.50016,0,0,1-.46973.67138Zm69.85376-1.29492a.49924.49924,0,0,1-.43066-.24512q-.50793-.85839-1.01465-1.73339a.50015.50015,0,0,1,.86524-.502q.50427.87012,1.00976,1.72559a.50015.50015,0,0,1-.42969.75488ZM63.16373,70.49685a.5.5,0,0,1-.47559-.65429q.31349-.96608.635-1.90772a.5.5,0,1,1,.94629.32324q-.31934.9331-.63012,1.89307A.50011.50011,0,0,1,63.16373,70.49685Zm53.92505-2.40673a.4998.4998,0,0,1-.47974-.64209q.28016-.94483.55078-1.918a.50006.50006,0,0,1,.96338.26855q-.2732.98-.55517,1.9336A.50041.50041,0,0,1,117.08878,68.09012Zm-96.41235-.32764a.50041.50041,0,0,1-.47413-.34082q-.32335-.96461-.6311-1.90625a.50006.50006,0,0,1,.95069-.31055q.30615.93677.62866,1.89844a.49978.49978,0,0,1-.47412.65918Zm68.82837-.81934a.49981.49981,0,0,1-.43384-.25049q-.50172-.87158-1.00293-1.73144a.5.5,0,0,1,.86328-.50488q.50353.86133,1.00635,1.7373a.49968.49968,0,0,1-.43286.74951Zm-24.332-2.11084a.49967.49967,0,0,1-.46484-.68359q.37721-.95655.77026-1.86621a.49994.49994,0,1,1,.91748.39746q-.38672.89355-.75756,1.83594A.50025.50025,0,0,1,65.17276,64.8323Zm99.82715-1.33252a.52806.52806,0,0,1-.46362-.312c-.04932-.10888-.3291-.72949-.80371-1.73828a.5.5,0,1,1,.90478-.42578c.47876,1.01709.761,1.64307.81055,1.75342h-.00024a.50011.50011,0,0,1-.44776.72265Zm-46.33008-1.21093a.49114.49114,0,0,1-.12353-.01563.49952.49952,0,0,1-.36133-.60742q.245-.96387.48584-1.94043a.49988.49988,0,1,1,.9707.23926q-.2417.98-.4873,1.94726A.50008.50008,0,0,1,118.66983,62.28885Zm-99.84155-.25147a.50005.50005,0,0,1-.47729-.35156q-.30505-.98364-.58887-1.92041a.5.5,0,1,1,.957-.29q.28272.9331.58691,1.91357a.50047.50047,0,0,1-.32934.626A.50586.50586,0,0,1,18.82828,62.03738Zm67.60645-.26221a.49934.49934,0,0,1-.42432-.23486q-.538-.85839-1.07764-1.67285a.49992.49992,0,1,1,.83252-.55371q.54749.82251,1.09278,1.69629a.49987.49987,0,0,1-.42334.76513ZM67.69059,59.38162a.495.495,0,0,1-.24244-.063.5.5,0,0,1-.19409-.68017c.34522-.62061.69947-1.20752,1.05274-1.74366a.49986.49986,0,1,1,.835.54981c-.3396.51562-.68067,1.08105-1.01367,1.68017A.50007.50007,0,0,1,67.69059,59.38162Zm94.74682-1.26123a.50024.50024,0,0,1-.44873-.27832q-.41931-.84741-.897-1.79a.50007.50007,0,0,1,.89209-.45215q.479.94482.90137,1.79883a.5.5,0,0,1-.44776.72168ZM82.99283,56.85281a.49847.49847,0,0,1-.38794-.18457c-.43945-.53955-.87573-1.03369-1.29614-1.46875a.5.5,0,1,1,.71875-.69531c.44043.45556.89551.97119,1.35278,1.5332a.49989.49989,0,0,1-.38745.81543Zm37.10816-.4043a.50617.50617,0,0,1-.117-.01367.50052.50052,0,0,1-.36987-.603l.46753-1.95117a.5.5,0,1,1,.97241.2334l-.46728,1.95117A.50063.50063,0,0,1,120.101,56.44851ZM17.10392,56.27127a.5.5,0,0,1-.48023-.36182q-.2937-1.02173-.54907-1.93457a.5.5,0,1,1,.96289-.26953q.25452.9082.54712,1.92773a.50012.50012,0,0,1-.48071.63819ZM71.266,54.60086a.5.5,0,0,1-.33838-.86817,10.55241,10.55241,0,0,1,1.65844-1.25634.50005.50005,0,0,1,.51807.85546A9.56765,9.56765,0,0,0,71.60392,54.469.49728.49728,0,0,1,71.266,54.60086Zm7.248-1.66651a.496.496,0,0,1-.21631-.04931,5.17906,5.17906,0,0,0-1.72607-.50537.5.5,0,1,1,.09814-.99512,6.16617,6.16617,0,0,1,2.061.59912.5.5,0,0,1-.2168.95068Zm81.17823-.16894a.49971.49971,0,0,1-.44214-.26563q-.45851-.86279-.94629-1.76172a.49991.49991,0,1,1,.87842-.47753q.49035.90161.95117,1.7705a.49974.49974,0,0,1-.207.67578A.49389.49389,0,0,1,159.6923,52.76541ZM15.50235,50.46219a.50012.50012,0,0,1-.48339-.373c-.33082-1.26074-.50464-1.97022-.50464-1.97022a.5.5,0,1,1,.97119-.23828c.00073.00244.17309.70606.50073,1.95459a.50076.50076,0,0,1-.48389.627Zm141.28907-2.96485a.49948.49948,0,0,1-.43457-.252q-.49182-.85986-1.00269-1.728a.50015.50015,0,0,1,.86182-.50781q.5138.873,1.009,1.73975a.49986.49986,0,0,1-.43359.748Zm-33.76953-2.71679a.507.507,0,0,1-.13379-.01807.50042.50042,0,0,1-.34839-.61572q.27136-.97852.55151-1.9336a.50006.50006,0,0,1,.95947.28223q-.27831.947-.54712,1.91894A.50054.50054,0,0,1,123.02189,44.78055Zm30.68383-2.44385a.49934.49934,0,0,1-.42431-.23487q-.53064-.84741-1.07422-1.68359a.5.5,0,1,1,.83838-.54492q.54784.843,1.08349,1.69824a.49987.49987,0,0,1-.42334.76514ZM124.78165,39.033a.50067.50067,0,0,1-.4729-.6626q.334-.97192.68481-1.89893a.5.5,0,0,1,.93506.3545q-.3457.91113-.67407,1.86962A.5006.5006,0,0,1,124.78165,39.033Zm25.59741-1.70606a.4995.4995,0,0,1-.40869-.21142q-.58082-.82106-1.16968-1.61182a.5.5,0,1,1,.80176-.59766q.59583.79981,1.18433,1.63233a.49987.49987,0,0,1-.40772.78857Zm-23.34277-3.85937a.50012.50012,0,0,1-.449-.71924c.30958-.63477.6294-1.23975.95044-1.79785a.49991.49991,0,1,1,.86695.498c-.30982.53907-.6189,1.124-.91895,1.73829A.49941.49941,0,0,1,127.03629,33.46756Zm19.67578-.90235a.49973.49973,0,0,1-.38135-.17627c-.44311-.522-.8855-1.021-1.31445-1.48291a.50011.50011,0,1,1,.73291-.68066c.439.47314.89111.9834,1.34375,1.51611a.50015.50015,0,0,1-.38086.82373ZM130.28189,28.45a.49988.49988,0,0,1-.36987-.83594,12.27968,12.27968,0,0,1,1.50977-1.415.5002.5002,0,0,1,.61621.78809,11.244,11.244,0,0,0-1.38574,1.29883A.49792.49792,0,0,1,130.28189,28.45Zm12.2107-.15332a.49737.49737,0,0,1-.31909-.11524,18.72785,18.72785,0,0,0-1.5586-1.16943.50012.50012,0,0,1,.55518-.832,19.82665,19.82665,0,0,1,1.64209,1.23193.5.5,0,0,1-.31958.88477Zm-5.22046-2.81006a.52422.52422,0,0,1-.09473-.00879,5.14985,5.14985,0,0,0-1.80444-.041.50015.50015,0,0,1-.16065-.98731,6.20584,6.20584,0,0,1,2.15357.0459.5001.5001,0,0,1-.09375.99121Z"/></g><rect class="cls-4" x="10" y="42" width="5" height="74"/><rect class="cls-4" x="12" y="110" width="168.5" height="10"/><g class="cls-2"><g class="cls-5"><g class="cls-6"><g class="cls-6"><path class="cls-3" d="M15.0004,60.25076h-2.001a.25.25,0,0,1,0-.5h2.001a.25.25,0,0,1,0,.5Z"/><path class="cls-3" d="M15.0004,35.25467h-2.001a.25.25,0,0,1,0-.5h2.001a.25.25,0,0,1,0,.5Z"/><path class="cls-3" d="M15.0004,85.25076h-2.001a.25.25,0,0,1,0-.5h2.001a.25.25,0,0,1,0,.5Z"/><path class="cls-3" d="M74.99991,112.24978a.24985.24985,0,0,1-.25-.25v-2a.25.25,0,1,1,.5,0v2A.24985.24985,0,0,1,74.99991,112.24978Z"/><path class="cls-3" d="M44.99991,112.24978a.24985.24985,0,0,1-.25-.25v-2a.25.25,0,1,1,.5,0v2A.24985.24985,0,0,1,44.99991,112.24978Z"/><path class="cls-3" d="M133.99991,112.24978a.24985.24985,0,0,1-.25-.25v-2a.25.25,0,1,1,.5,0v2A.24985.24985,0,0,1,133.99991,112.24978Z"/><path class="cls-3" d="M104.99991,112.24978a.24985.24985,0,0,1-.25-.25v-2a.25.25,0,1,1,.5,0v2A.24985.24985,0,0,1,104.99991,112.24978Z"/></g></g></g></g><rect class="cls-4" x="12" y="46" width="3" height="6"/><path class="cls-3" d="M164.99991,110.24978h-150a.24985.24985,0,0,1-.25-.25v-100a.25.25,0,0,1,.5,0v99.75h149.75a.25.25,0,0,1,0,.5Z"/><g class="cls-2"><path class="cls-7" d="M6.0698,9.00371a.93345.93345,0,0,1-.557.888v.006a1.04414,1.04414,0,0,1,.737,1.013c0,.69-.569,1.127-1.439,1.127-.864,0-1.439-.437-1.439-1.127a1.04429,1.04429,0,0,1,.743-1.013v-.006a.92922.92922,0,0,1-.563-.888c0-.641.497-1.037,1.259-1.037.761,0,1.259.396,1.259,1.037m-.318,1.86c0-.457-.371-.732-.941-.732-.564,0-.942.275-.942.732,0,.45.367.725.942.725.582,0,.941-.275.941-.725m-1.703-1.811c0,.39.307.629.762.629.456,0,.761-.239.761-.629,0-.402-.294-.636-.761-.636-.468,0-.762.234-.762.636"/><path class="cls-7" d="M7.0499,10c0-1.325.516-2.039,1.475-2.039s1.475.714,1.475,2.039-.516,2.038-1.475,2.038S7.0499,11.325,7.0499,10m2.453,0c0-1.044-.342-1.607-.978-1.607-.635,0-.977.563-.977,1.607,0,1.043.342,1.607.977,1.607.636,0,.978-.564.978-1.607"/><path class="cls-7" d="M6.6641,33.0205v.318a5.229,5.229,0,0,0-1.481,3.64h-.354a5.4928,5.4928,0,0,1,1.463-3.64H3.8041v-.318Z"/><path class="cls-7" d="M7.0975,35c0-1.319.51-2.039,1.451-2.039.942,0,1.452.72,1.452,2.039s-.51,2.038-1.452,2.038c-.941,0-1.451-.719-1.451-2.038m2.549,0c0-1.121-.384-1.733-1.098-1.733-.708,0-1.097.612-1.097,1.733s.389,1.732,1.097,1.732c.714,0,1.098-.611,1.098-1.732"/><path class="cls-7" d="M6.2751,58.7524l-.312.15a.84987.84987,0,0,0-.889-.624c-.779,0-1.18.84-1.18,1.806,0,.101.006.21.018.335h.023a1.08918,1.08918,0,0,1,1.133-.899,1.26,1.26,0,1,1-.023,2.518c-.965,0-1.475-.803-1.475-2.038,0-1.344.66-2.04,1.53-2.04a1.13769,1.13769,0,0,1,1.175.792m-2.195,2.021a.90725.90725,0,0,0,.959.941.933.933,0,1,0,.006-1.865.92262.92262,0,0,0-.965.924"/><path class="cls-7" d="M7.0975,60c0-1.319.51-2.039,1.451-2.039.942,0,1.452.72,1.452,2.039s-.51,2.038-1.452,2.038c-.941,0-1.451-.719-1.451-2.038m2.549,0c0-1.121-.383-1.733-1.098-1.733-.707,0-1.097.612-1.097,1.733s.39,1.732,1.097,1.732c.715,0,1.098-.611,1.098-1.732"/><path class="cls-7" d="M6.3701,85.749a1.21981,1.21981,0,0,1-1.319,1.289,1.285,1.285,0,0,1-1.373-.923l.33-.168a.93525.93525,0,0,0,1.031.774.90018.90018,0,0,0,.977-.953.87909.87909,0,0,0-.947-.96,1.1249,1.1249,0,0,0-.983.431h-.3l.216-2.219h2.2v.319H4.2891l-.155,1.463-.006.078h.006a1.24232,1.24232,0,0,1,.995-.39,1.18472,1.18472,0,0,1,1.241,1.259"/><path class="cls-7" d="M7.0975,85c0-1.319.51-2.039,1.451-2.039.942,0,1.452.72,1.452,2.039s-.51,2.038-1.452,2.038c-.941,0-1.451-.719-1.451-2.038m2.549,0c0-1.121-.384-1.733-1.098-1.733-.708,0-1.097.612-1.097,1.733s.389,1.732,1.097,1.732c.714,0,1.098-.611,1.098-1.732"/><path class="cls-7" d="M6.3716,110.9403h-.702v1.038h-.48v-1.038H3.2576v-.353l1.807-2.567h.605v2.507h.702Zm-2.604-.413h1.422v-1.481l.023-.636h-.011a5.6039,5.6039,0,0,1-.397.66Z"/><path class="cls-7" d="M7.0509,109.999c0-1.325.516-2.038,1.474-2.038.959,0,1.475.713,1.475,2.038s-.516,2.039-1.475,2.039c-.958,0-1.474-.714-1.474-2.039m2.453,0c0-1.043-.342-1.606-.979-1.606-.634,0-.976.563-.976,1.606,0,1.044.342,1.607.976,1.607.637,0,.979-.563.979-1.607"/><polygon class="cls-8" points="157.861 131.499 157.861 131.949 155.115 131.949 155.115 127.991 155.593 127.991 155.593 131.499 157.861 131.499"/><path class="cls-8" d="M161.31029,131.5714l-.029.378a1.08556,1.08556,0,0,1-.359.059.46945.46945,0,0,1-.539-.443,1.18687,1.18687,0,0,1-.967.443c-.563,0-1.02-.263-1.02-.803,0-.45.397-.804,1.17-.936l.797-.132v-.168a.62929.62929,0,0,0-.701-.659.87971.87971,0,0,0-.858.569l-.353-.257a1.21969,1.21969,0,0,1,1.211-.732c.683,0,1.181.324,1.181,1.02v1.475c0,.144.061.216.229.216a1.07654,1.07654,0,0,0,.238-.03m-.947-.63v-.414l-.672.126c-.527.097-.797.27-.797.552,0,.252.203.383.545.383.481,0,.924-.251.924-.647"/><path class="cls-8" d="M163.72459,131.7393a1.11753,1.11753,0,0,1-.773.27.75254.75254,0,0,1-.834-.804v-1.841h-.6v-.414h.6v-.719l.48-.133v.852h1.109v.414h-1.109v1.757a.40659.40659,0,0,0,.449.438.68659.68659,0,0,0,.51-.222Z"/><path class="cls-8" d="M166.95129,130.6301h-2.26a.94936.94936,0,0,0,.977.959.81086.81086,0,0,0,.845-.444l.403.21a1.28536,1.28536,0,0,1-1.248.654,1.3894,1.3894,0,0,1-1.451-1.559,1.36327,1.36327,0,0,1,1.416-1.559,1.29748,1.29748,0,0,1,1.341,1.403,2.38368,2.38368,0,0,1-.023.336m-2.254-.426h1.816c-.066-.552-.371-.894-.88-.894a.9034.9034,0,0,0-.936.894"/><path class="cls-8" d="M167.61909,131.3311l.391-.27a.93335.93335,0,0,0,.947.528c.492,0,.725-.197.725-.444,0-.221-.186-.353-.786-.461-.851-.157-1.164-.39-1.164-.894,0-.485.451-.899,1.182-.899a1.0834,1.0834,0,0,1,1.187.719l-.408.241a.7288.7288,0,0,0-.779-.541c-.4,0-.701.216-.701.438,0,.258.197.39.81.492.838.138,1.139.39,1.139.881,0,.522-.486.888-1.254.888a1.36874,1.36874,0,0,1-1.289-.678"/><path class="cls-8" d="M172.8848,131.7393a1.11757,1.11757,0,0,1-.773.27.75341.75341,0,0,1-.834-.804v-1.841h-.6v-.414h.6v-.719l.48-.133v.852h1.109v.414h-1.109v1.757a.40659.40659,0,0,0,.449.438.68014.68014,0,0,0,.51-.222Z"/><path class="cls-7" d="M34.9531,118.0205v3.958h-.342v-2.975c0-.162.006-.341.012-.527a2.05856,2.05856,0,0,1-1.037.623l-.09-.306a2.30094,2.30094,0,0,0,1.158-.773Z"/><path class="cls-7" d="M37.209,118.0205v3.958h-.342v-2.975c0-.162.006-.341.012-.527a2.05856,2.05856,0,0,1-1.037.623l-.09-.306a2.301,2.301,0,0,0,1.158-.773Z"/><path class="cls-7" d="M38.877,119.2374a.297.297,0,1,1-.594,0,.297.297,0,0,1,.594,0m0,2.495a.297.297,0,1,1-.299-.3.2811.2811,0,0,1,.299.3"/><path class="cls-7" d="M39.73619,119.999c0-1.319.51-2.038,1.451-2.038.942,0,1.452.719,1.452,2.038s-.51,2.039-1.452,2.039c-.941,0-1.451-.72-1.451-2.039m2.549,0c0-1.121-.385-1.732-1.098-1.732-.709,0-1.097.611-1.097,1.732,0,1.122.388,1.733,1.097,1.733.713,0,1.098-.611,1.098-1.733"/><path class="cls-7" d="M43.40219,119.999c0-1.319.51-2.038,1.451-2.038.942,0,1.452.719,1.452,2.038s-.51,2.039-1.452,2.039c-.941,0-1.451-.72-1.451-2.039m2.549,0c0-1.121-.385-1.732-1.098-1.732-.709,0-1.097.611-1.097,1.732,0,1.122.388,1.733,1.097,1.733.713,0,1.098-.611,1.098-1.733"/><path class="cls-7" d="M51.9028,119.1895c0,.726-.522,1.17-1.338,1.17h-.989v1.619h-.341v-3.958h1.33c.816,0,1.338.443,1.338,1.169m-.354,0c0-.545-.348-.852-1.025-.852h-.948v1.704h.948c.677,0,1.025-.306,1.025-.852"/><polygon class="cls-7" points="56.504 121.979 56.174 121.979 56.174 119.136 56.209 118.345 54.795 121.979 54.488 121.979 53.08 118.345 53.074 118.345 53.109 119.136 53.109 121.979 52.785 121.979 52.785 118.021 53.301 118.021 54.422 120.881 54.639 121.577 54.645 121.577 54.867 120.887 55.983 118.021 56.504 118.021 56.504 121.979"/><path class="cls-7" d="M64.1797,121.6963c1.523-1.169,2.178-1.769,2.178-2.519a.85892.85892,0,0,0-.942-.899,1.01464,1.01464,0,0,0-1.031,1.056l-.301-.174a1.2618,1.2618,0,0,1,1.344-1.199,1.17011,1.17011,0,0,1,1.283,1.216c0,.787-.617,1.457-2.033,2.489v.007c.102-.007.342-.013.438-.013h1.716v.318h-2.652Z"/><path class="cls-7" d="M68.2422,119.2374a.28448.28448,0,0,1-.301.301.28141.28141,0,0,1-.293-.301.27557.27557,0,0,1,.293-.293.27879.27879,0,0,1,.301.293m0,2.495a.28271.28271,0,0,1-.301.294.297.297,0,0,1,0-.594.28422.28422,0,0,1,.301.3"/><path class="cls-7" d="M69.0994,119.999c0-1.319.51-2.038,1.451-2.038.942,0,1.452.719,1.452,2.038s-.51,2.039-1.452,2.039c-.941,0-1.451-.72-1.451-2.039m2.549,0c0-1.121-.383-1.732-1.098-1.732-.707,0-1.097.611-1.097,1.732,0,1.122.39,1.733,1.097,1.733.715,0,1.098-.611,1.098-1.733"/><path class="cls-7" d="M72.7655,119.999c0-1.319.51-2.038,1.451-2.038.942,0,1.452.719,1.452,2.038s-.51,2.039-1.452,2.039c-.941,0-1.451-.72-1.451-2.039m2.549,0c0-1.121-.383-1.732-1.098-1.732-.707,0-1.097.611-1.097,1.732,0,1.122.39,1.733,1.097,1.733.715,0,1.098-.611,1.098-1.733"/><path class="cls-7" d="M80.6016,120.7721h-1.871l-.475,1.206h-.359l1.572-3.958h.406l1.567,3.958h-.36Zm-.127-.317-.646-1.649-.157-.455h-.011l-.145.437-.66,1.667Z"/><polygon class="cls-7" points="85.916 121.979 85.586 121.979 85.586 119.136 85.623 118.345 84.207 121.979 83.902 121.979 82.492 118.345 82.486 118.345 82.521 119.136 82.521 121.979 82.199 121.979 82.199 118.021 82.715 118.021 83.836 120.881 84.051 121.577 84.057 121.577 84.279 120.887 85.395 118.021 85.916 118.021 85.916 121.979"/><path class="cls-7" d="M96.7974,120.749a1.21981,1.21981,0,0,1-1.319,1.289,1.285,1.285,0,0,1-1.373-.923l.33-.168a.93526.93526,0,0,0,1.031.774.90019.90019,0,0,0,.977-.953.87909.87909,0,0,0-.947-.96,1.12489,1.12489,0,0,0-.983.431h-.3l.216-2.219h2.2v.319h-1.913l-.155,1.463-.006.078h.006a1.24232,1.24232,0,0,1,.995-.39,1.18472,1.18472,0,0,1,1.241,1.259"/><path class="cls-7" d="M98.2202,119.2384a.297.297,0,1,1-.594,0,.297.297,0,0,1,.594,0m0,2.494a.297.297,0,1,1-.3-.3.28137.28137,0,0,1,.3.3"/><path class="cls-7" d="M99.0784,120c0-1.319.51-2.039,1.451-2.039.942,0,1.452.72,1.452,2.039s-.51,2.038-1.452,2.038c-.941,0-1.451-.719-1.451-2.038m2.549,0c0-1.121-.384-1.733-1.098-1.733-.708,0-1.097.612-1.097,1.733s.389,1.732,1.097,1.732c.714,0,1.098-.611,1.098-1.732"/><path class="cls-7" d="M102.7445,120c0-1.319.51-2.039,1.451-2.039.942,0,1.452.72,1.452,2.039s-.51,2.038-1.452,2.038c-.941,0-1.451-.719-1.451-2.038m2.549,0c0-1.121-.384-1.733-1.098-1.733-.708,0-1.097.612-1.097,1.733s.389,1.732,1.097,1.732c.714,0,1.098-.611,1.098-1.732"/><path class="cls-7" d="M110.5796,120.7731h-1.871l-.474,1.205h-.359l1.571-3.958h.407l1.566,3.958h-.36Zm-.126-.317-.647-1.649-.156-.456h-.012l-.144.437-.66,1.668Z"/><polygon class="cls-7" points="115.895 121.979 115.565 121.979 115.565 119.137 115.601 118.345 114.186 121.979 113.88 121.979 112.471 118.345 112.465 118.345 112.5 119.137 112.5 121.979 112.177 121.979 112.177 118.021 112.693 118.021 113.814 120.882 114.03 121.578 114.036 121.578 114.258 120.888 115.374 118.021 115.895 118.021 115.895 121.979"/><path class="cls-7" d="M125.6686,118.9807a.927.927,0,0,1-.666.911v.006a1.05909,1.05909,0,0,1,.84,1.032c0,.671-.563,1.108-1.409,1.108-.84,0-1.409-.437-1.409-1.108a1.05855,1.05855,0,0,1,.845-1.032v-.006a.91694.91694,0,0,1-.666-.911c0-.624.48-1.014,1.23-1.014.749,0,1.235.39,1.235,1.014m-.179,1.919c0-.504-.42-.834-1.056-.834-.624,0-1.056.33-1.056.834,0,.498.42.821,1.056.821.642,0,1.056-.323,1.056-.821m-1.932-1.889c0,.443.349.731.876.731.533,0,.882-.288.882-.731,0-.45-.342-.726-.882-.726-.534,0-.876.276-.876.726"/><path class="cls-7" d="M127.3018,119.2384a.297.297,0,1,1-.594,0,.297.297,0,0,1,.594,0m0,2.494a.297.297,0,1,1-.3-.3.28137.28137,0,0,1,.3.3"/><path class="cls-7" d="M128.16,120c0-1.319.51-2.039,1.451-2.039.942,0,1.452.72,1.452,2.039s-.51,2.038-1.452,2.038c-.941,0-1.451-.719-1.451-2.038m2.549,0c0-1.121-.384-1.733-1.098-1.733-.708,0-1.097.612-1.097,1.733s.389,1.732,1.097,1.732c.714,0,1.098-.611,1.098-1.732"/><path class="cls-7" d="M131.826,120c0-1.319.51-2.039,1.451-2.039.942,0,1.452.72,1.452,2.039s-.51,2.038-1.452,2.038c-.941,0-1.451-.719-1.451-2.038m2.549,0c0-1.121-.384-1.733-1.098-1.733-.708,0-1.097.612-1.097,1.733s.389,1.732,1.097,1.732c.714,0,1.098-.611,1.098-1.732"/><path class="cls-7" d="M139.66019,120.7731h-1.871l-.474,1.205h-.359l1.571-3.958h.407l1.566,3.958h-.36Zm-.126-.317-.647-1.649-.156-.456h-.012l-.144.437-.66,1.668Z"/><polygon class="cls-7" points="144.976 121.979 144.646 121.979 144.646 119.137 144.682 118.345 143.267 121.979 142.961 121.979 141.552 118.345 141.546 118.345 141.581 119.137 141.581 121.979 141.258 121.979 141.258 118.021 141.774 118.021 142.895 120.882 143.111 121.578 143.117 121.578 143.339 120.888 144.455 118.021 144.976 118.021 144.976 121.979"/><path class="cls-3" d="M14.99942,60.24881h-2a.25.25,0,0,1,0-.5h2a.25.25,0,1,1,0,.5Z"/><path class="cls-3" d="M14.99942,35.25369h-2a.25.25,0,0,1,0-.5h2a.25.25,0,0,1,0,.5Z"/><path class="cls-3" d="M14.99942,85.24978h-2a.25.25,0,0,1,0-.5h2a.25.25,0,0,1,0,.5Z"/><path class="cls-3" d="M74.99991,112.24978a.24985.24985,0,0,1-.25-.25v-2a.25.25,0,1,1,.5,0v2A.24985.24985,0,0,1,74.99991,112.24978Z"/><path class="cls-3" d="M44.99991,112.24978a.24985.24985,0,0,1-.25-.25v-2a.25.25,0,1,1,.5,0v2A.24985.24985,0,0,1,44.99991,112.24978Z"/><path class="cls-3" d="M133.99991,112.24978a.24985.24985,0,0,1-.25-.25v-2a.25.25,0,1,1,.5,0v2A.24985.24985,0,0,1,133.99991,112.24978Z"/><path class="cls-3" d="M104.99991,112.24978a.24985.24985,0,0,1-.25-.25v-2a.25.25,0,1,1,.5,0v2A.24985.24985,0,0,1,104.99991,112.24978Z"/><path class="cls-7" d="M153.9287,118.0215v3.957h-.342v-2.975c0-.16.006-.341.012-.527a2.069,2.069,0,0,1-1.037.625l-.09-.307a2.301,2.301,0,0,0,1.158-.773Z"/><path class="cls-7" d="M156.1846,118.0215v3.957h-.342v-2.975c0-.16.006-.341.012-.527a2.06912,2.06912,0,0,1-1.037.625l-.09-.307a2.301,2.301,0,0,0,1.158-.773Z"/><path class="cls-7" d="M157.85249,119.2384a.297.297,0,1,1-.594,0,.297.297,0,0,1,.594,0m0,2.494a.297.297,0,1,1-.299-.299.28083.28083,0,0,1,.299.299"/><path class="cls-7" d="M158.71169,120c0-1.318.51-2.039,1.451-2.039.942,0,1.452.721,1.452,2.039,0,1.32-.51,2.039-1.452,2.039-.941,0-1.451-.719-1.451-2.039m2.549,0c0-1.121-.385-1.732-1.098-1.732-.709,0-1.097.611-1.097,1.732s.388,1.732,1.097,1.732c.713,0,1.098-.611,1.098-1.732"/><path class="cls-7" d="M162.37779,120c0-1.318.51-2.039,1.451-2.039.942,0,1.452.721,1.452,2.039,0,1.32-.51,2.039-1.452,2.039-.941,0-1.451-.719-1.451-2.039m2.549,0c0-1.121-.385-1.732-1.098-1.732-.709,0-1.097.611-1.097,1.732s.388,1.732,1.097,1.732c.713,0,1.098-.611,1.098-1.732"/><path class="cls-7" d="M170.212,120.773h-1.871l-.475,1.205h-.359l1.572-3.957h.406l1.567,3.957h-.36Zm-.127-.316-.646-1.65-.157-.455h-.011l-.145.437-.66,1.668Z"/><polygon class="cls-7" points="175.528 121.979 175.198 121.979 175.198 119.137 175.233 118.346 173.819 121.979 173.512 121.979 172.104 118.346 172.098 118.346 172.133 119.137 172.133 121.979 171.809 121.979 171.809 118.022 172.325 118.022 173.446 120.883 173.663 121.579 173.669 121.579 173.891 120.889 175.007 118.022 175.528 118.022 175.528 121.979"/></g><g class="cls-9"><path class="cls-10" d="M129,89H48a2.00073,2.00073,0,0,1-2-2V53a2.00073,2.00073,0,0,1,2-2h81a2.00074,2.00074,0,0,1,2,2V87a2.00074,2.00074,0,0,1-2,2"/><path class="cls-11" d="M128.99991,89.24978h-81a2.25246,2.25246,0,0,1-2.25-2.25v-34a2.25246,2.25246,0,0,1,2.25-2.25h81a2.25246,2.25246,0,0,1,2.25,2.25v34A2.25245,2.25245,0,0,1,128.99991,89.24978Zm-81-38a1.75213,1.75213,0,0,0-1.75,1.75v34a1.75212,1.75212,0,0,0,1.75,1.75h81a1.75211,1.75211,0,0,0,1.75-1.75v-34a1.75212,1.75212,0,0,0-1.75-1.75Z"/><path class="cls-12" d="M50.99991,74.24978h-1a.25.25,0,0,1,0-.5h1a.25.25,0,0,1,0,.5Z"/><path class="cls-12" d="M50.99991,69.24978h-1a.25.25,0,0,1,0-.5h1a.25.25,0,0,1,0,.5Z"/><path class="cls-12" d="M50.99991,79.24978h-1a.25.25,0,1,1,0-.5h1a.25.25,0,0,1,0,.5Z"/><path class="cls-12" d="M55.99991,85.24978a.24985.24985,0,0,1-.25-.25v-1a.25.25,0,1,1,.5,0v1A.24985.24985,0,0,1,55.99991,85.24978Z"/><path class="cls-12" d="M70.99991,85.24978a.24985.24985,0,0,1-.25-.25v-1a.25.25,0,1,1,.5,0v1A.24985.24985,0,0,1,70.99991,85.24978Z"/><path class="cls-12" d="M60.99991,85.24978a.24985.24985,0,0,1-.25-.25v-1a.25.25,0,1,1,.5,0v1A.24985.24985,0,0,1,60.99991,85.24978Z"/><path class="cls-13" d="M127,69a1,1,0,1,1-1-1,.99973.99973,0,0,1,1,1"/><path class="cls-11" d="M130.99991,55.24978h-85a.25.25,0,0,1,0-.5h85a.25.25,0,0,1,0,.5Z"/><path class="cls-11" d="M49.24991,53.99978a1,1,0,1,1,1-1A1.00115,1.00115,0,0,1,49.24991,53.99978Zm0-1.5a.5.5,0,1,0,.5.5A.5005.5005,0,0,0,49.24991,52.49978Z"/><path class="cls-11" d="M52.24991,53.99978a1,1,0,1,1,1-1A1.00115,1.00115,0,0,1,52.24991,53.99978Zm0-1.5a.5.5,0,1,0,.5.5A.5005.5005,0,0,0,52.24991,52.49978Z"/><path class="cls-11" d="M55.24991,53.99978a1,1,0,1,1,1-1A1.00115,1.00115,0,0,1,55.24991,53.99978Zm0-1.5a.5.5,0,1,0,.5.5A.5005.5005,0,0,0,55.24991,52.49978Z"/><path class="cls-3" d="M101.80777,78.263c-2.23266.00049-3.27807-3.57178-4.12353-6.45948a20.01612,20.01612,0,0,0-.90918-2.69433l-.08423-.17334c-.751-1.54736-3.03247-6.25342-4.60718-5.69727-1.55713.55371-1.90014,3.8833-2.23193,7.103-.37476,3.63623-.72925,7.05615-2.87085,6.90772-1.36157-.104-1.71729-2.49952-2.06152-4.81592-.19947-1.34375-.4729-3.1836-.91944-3.1836-.59717,0-1.01855,1.24024-1.39013,2.33448-.40479,1.19189-.78711,2.31738-1.5066,2.64306a1.01984,1.01984,0,0,1-.93286.00147c-.96557-.50489-1.36059-2.6543-1.81787-5.14356-.49536-2.69482-1.0564-5.749-2.36914-5.83593-.0249-.00147-.05-.00245-.07519-.00245-1.9231,0-3.61475,4.82471-4.43311,7.15918-.08813.25147-.16821.48-.24.67871-.79956,2.21534-2.9187,7.354-5.25464,7.16407-1.57983-.124-2.13867-2.58106-2.73022-5.18213C62.7255,70.76,62.183,68.37478,60.974,68.24832c-.93945-.09961-1.67651,1.63428-2.38672,3.30908-.73339,1.72949-1.426,3.36279-2.51709,3.68213-1.36132.4043-4.81591-1.7793-5.20532-2.0293a.25.25,0,0,1,.27-.4209c1.00464.64454,3.825,2.251,4.79444,1.97071.86425-.25293,1.542-1.85156,2.19751-3.39746.81738-1.92725,1.5957-3.74756,2.89892-3.61133,1.56519.16308,2.12207,2.61181,2.71192,5.20459.52539,2.31055,1.06884,4.69971,2.28173,4.79492,1.63745.10791,3.57837-3.603,4.74536-6.83594.07129-.19726.15088-.42431.23829-.67431.93652-2.67139,2.69848-7.64844,5.01318-7.49024,1.70117.11231,2.27393,3.23,2.82788,6.24463.39746,2.1626.80835,4.39893,1.55786,4.791a.52246.52246,0,0,0,.49463-.01368c.52222-.23681.90332-1.35888,1.23975-2.34863.46679-1.375.908-2.67383,1.86352-2.67383.87769,0,1.1145,1.59327,1.41406,3.60987.28589,1.92334.64136,4.31738,1.605,4.39062,1.66333.12793,2.0017-3.22168,2.33544-6.46.34766-3.374.707-6.86328,2.56177-7.52246,1.75806-.627,3.62647,2.65723,5.22461,5.94971l.084.17285a19.90137,19.90137,0,0,1,.93945,2.77246c.82031,2.80225,1.84668,6.28809,3.81079,6.0918,1.21509-.12159,1.7605-2.49854,2.28784-4.79737.59107-2.5747,1.14917-5.00683,2.70606-5.20215.95019-.12451,1.85083.95069,2.80029,2.084.77539.92627,1.57739,1.88379,2.241,1.91064a4.96892,4.96892,0,0,0,2.13794-.97851c1.05908-.65967,2.15429-1.34131,2.95044-1.00147.999.42969,1.67456,1.97266,2.38964,3.60645.74268,1.69678,1.50293,3.44873,2.49219,3.37451,1.67725-.13184,3.29419-5.67969,3.77564-7.80615a.25006.25006,0,0,1,.48779.11035c-.18555.81934-1.8794,8.01025-4.22437,8.19385-1.33715.105-2.13867-1.7295-2.98925-3.67237-.64478-1.47265-1.31153-2.9956-2.12891-3.34716-.5564-.2378-1.583.40185-2.48877.9663a5.28653,5.28653,0,0,1-2.4231,1.0542c-.884-.03613-1.71923-1.03369-2.60351-2.08935-.82153-.981-1.67261-1.99219-2.355-1.90918-1.21.15185-1.75415,2.52392-2.28052,4.81787-.59326,2.58447-1.15332,5.02539-2.72559,5.18262A2.05287,2.05287,0,0,1,101.80777,78.263Z"/><path class="cls-12" d="M65.99991,85.24978a.24985.24985,0,0,1-.25-.25v-1a.25.25,0,1,1,.5,0v1A.24985.24985,0,0,1,65.99991,85.24978Z"/><path class="cls-12" d="M75.99991,85.24978a.24985.24985,0,0,1-.25-.25v-1a.25.25,0,1,1,.5,0v1A.24985.24985,0,0,1,75.99991,85.24978Z"/><path class="cls-12" d="M80.99991,85.24978a.24985.24985,0,0,1-.25-.25v-1a.25.25,0,1,1,.5,0v1A.24985.24985,0,0,1,80.99991,85.24978Z"/><path class="cls-3" d="M88.31022,49.93338a.24922.24922,0,0,1-.17676-.07324l-1-1a.25.25,0,0,1,.35351-.35352l1,1a.25.25,0,0,1-.17675.42676Z"/><path class="cls-3" d="M90.31022,49.93338a.24922.24922,0,0,1-.17676-.07324l-2-2a.25.25,0,0,1,.35351-.35352l2,2a.25.25,0,0,1-.17675.42676Z"/><path class="cls-14" d="M86.6323,52.0713l-4.95,4.95c-.078.078-.3-.017-.495-.213-.195-.195-.29-.417-.212-.494l4.95-4.95"/><path class="cls-11" d="M81.60489,57.29861h-.00024a1.13371,1.13371,0,0,1-.9065-.90869.35459.35459,0,0,1,.10108-.25342l4.94922-4.94873a.25.25,0,0,1,.35351.35352l-4.88842,4.88818a.77531.77531,0,0,0,.15087.20215.76328.76328,0,0,0,.2024.15137l4.88867-4.88868a.25.25,0,1,1,.35351.35352l-4.95,4.9502A.35361.35361,0,0,1,81.60489,57.29861ZM81.153,56.49l-.001.001Z"/><path class="cls-14" d="M86.2788,51.71761a4.0001,4.0001,0,1,0,0-5.657,3.99856,3.99856,0,0,0,0,5.657m.707-4.95a3.00025,3.00025,0,1,1,0,4.243,3.00147,3.00147,0,0,1,0-4.243"/><path class="cls-11" d="M89.10733,53.13992A4.22036,4.22036,0,0,1,86.102,51.89431h0a4.24815,4.24815,0,1,1,3.00537,1.24561Zm-.00024-7.999a3.74829,3.74829,0,0,0-2.65161,6.3999h0a3.75,3.75,0,1,0,2.65161-6.3999Zm.00024,6.99658a3.24866,3.24866,0,0,1-2.29858-5.54688H86.809a3.25034,3.25034,0,1,1,2.29834,5.54688Zm-1.94458-5.19336a2.75031,2.75031,0,1,0,3.88916,0,2.75519,2.75519,0,0,0-3.8894,0Z"/><path class="cls-15" d="M81.0527,42.7969c-.765,2.311-4.204,4.171-8.776,3.26a11.463,11.463,0,0,1-6.085-4.026s-7.993.918-8.214-.436c-.243-1.491,9.683-2.766,15.31-2.093,2.735.327,4.358,1.339,5.656.566a10.4786,10.4786,0,0,1,4.121-1.294c1.633-.059,3.064,1.775,2.537,2.478-.612.816-1.709.095-2.537.233a2.72051,2.72051,0,0,0-2.012,1.312"/><path class="cls-11" d="M74.63492,46.54812a12.31276,12.31276,0,0,1-2.407-.24609,11.74219,11.74219,0,0,1-6.15454-4.00586c-7.49829.84619-8.282-.29-8.34253-.66113a.67524.67524,0,0,1,.21606-.58789c1.34253-1.40039,10.10547-2.42237,15.37061-1.79346A20.69587,20.69587,0,0,1,75.904,39.763c1.259.30908,2.16894.53222,2.91186.09033a10.83061,10.83061,0,0,1,4.24-1.32959,3.15379,3.15379,0,0,1,2.70508,1.64111,1.15435,1.15435,0,0,1,.04077,1.23682c-.48535.648-1.196.5166-1.82227.40185a2.72253,2.72253,0,0,0-.87353-.07177A2.49663,2.49663,0,0,0,81.29,42.87527C80.64054,44.83767,78.185,46.54812,74.63492,46.54812ZM66.19181,41.781a.25.25,0,0,1,.20654.10938A11.286,11.286,0,0,0,72.3256,45.8118c4.384.87158,7.759-.88721,8.48974-3.09375h0a2.96193,2.96193,0,0,1,2.20825-1.4795,3.09239,3.09239,0,0,1,1.04615.07325c.64038.11718,1.04638.16992,1.332-.21.105-.14013.07348-.4038-.084-.70556a2.64484,2.64484,0,0,0-2.24414-1.37256A10.24219,10.24219,0,0,0,79.07145,40.283c-.91846.54785-1.96338.29052-3.28687-.03467a20.41,20.41,0,0,0-2.52661-.49854c-5.29517-.63232-13.8291.47364-14.94995,1.64356-.043.04443-.092.10889-.0835.16162.10913.66846,4.19263.65771,7.93872.22754Z"/><path class="cls-16" d="M85.5513,41.4297c.132.24.47,1.252.205,1.403-.266.151-.786-1.039-.786-1.039"/><path class="cls-11" d="M74.23575,44.2615a5.31645,5.31645,0,0,1-.90039-.07861,5.07913,5.07913,0,0,1-3.57373-2.2793.25008.25008,0,0,1,.44287-.23242,4.63257,4.63257,0,0,0,3.21509,2.019,3.761,3.761,0,0,0,3.28027-.84326.25.25,0,1,1,.34034.36621A4.03843,4.03843,0,0,1,74.23575,44.2615Z"/><path class="cls-11" d="M71.31388,50.60037a.2499.2499,0,0,1-.24976-.2583L71.214,45.928a.2499.2499,0,1,1,.49952.0166l-.14014,4.12646,1.11792-.12011a.25.25,0,1,1,.05322.49707l-1.404.15087Z"/><path class="cls-11" d="M74.19913,50.45144a.24943.24943,0,0,1-.24975-.24072l-.14283-3.92236a.25035.25035,0,0,1,.24073-.25928.26591.26591,0,0,1,.25878.24072l.13282,3.64356.96362-.14258a.25025.25025,0,0,1,.07324.49512l-1.24.1831A.30625.30625,0,0,1,74.19913,50.45144Z"/><path class="cls-12" d="M95.99991,85.24978a.24985.24985,0,0,1-.25-.25v-1a.25.25,0,1,1,.5,0v1A.24985.24985,0,0,1,95.99991,85.24978Z"/><path class="cls-12" d="M85.99991,85.24978a.24985.24985,0,0,1-.25-.25v-1a.25.25,0,1,1,.5,0v1A.24985.24985,0,0,1,85.99991,85.24978Z"/><path class="cls-12" d="M90.99991,85.24978a.24985.24985,0,0,1-.25-.25v-1a.25.25,0,1,1,.5,0v1A.24985.24985,0,0,1,90.99991,85.24978Z"/><path class="cls-12" d="M125.99991,84.24978h-75a.24985.24985,0,0,1-.25-.25v-25a.25.25,0,0,1,.5,0v24.75h74.75a.25.25,0,0,1,0,.5Z"/><path class="cls-12" d="M100.99991,85.24978a.24985.24985,0,0,1-.25-.25v-1a.25.25,0,1,1,.5,0v1A.24985.24985,0,0,1,100.99991,85.24978Z"/><path class="cls-12" d="M105.99991,85.24978a.24985.24985,0,0,1-.25-.25v-1a.25.25,0,1,1,.5,0v1A.24985.24985,0,0,1,105.99991,85.24978Z"/><path class="cls-12" d="M115.99991,85.24978a.24985.24985,0,0,1-.25-.25v-1a.25.25,0,1,1,.5,0v1A.24985.24985,0,0,1,115.99991,85.24978Z"/><path class="cls-12" d="M110.99991,85.24978a.24985.24985,0,0,1-.25-.25v-1a.25.25,0,1,1,.5,0v1A.24985.24985,0,0,1,110.99991,85.24978Z"/><path class="cls-12" d="M120.99991,85.24978a.24985.24985,0,0,1-.25-.25v-1a.25.25,0,1,1,.5,0v1A.24985.24985,0,0,1,120.99991,85.24978Z"/><path class="cls-12" d="M50.99991,64.24978h-1a.25.25,0,0,1,0-.5h1a.25.25,0,0,1,0,.5Z"/><path class="cls-17" d="M103.34149,67.71951c0-.489-.429-.799-1.079-.799a1.6935,1.6935,0,0,0-1.45.74l-1.209-.71a3.18421,3.18421,0,0,1,2.829-1.339c1.499,0,2.538.67,2.538,1.849,0,1.599-1.679,1.779-1.679,2.838h-1.509c0-1.399,1.559-1.709,1.559-2.579m-1.759,4.178a.96221.96221,0,0,1,1.919,0,.96085.96085,0,0,1-1.919,0"/><path class="cls-8" d="M107.23453,78.7a.23742.23742,0,0,1-.04126-.00342c-1.644-.27392-3.53052-2.4585-3.9685-3.50928a.25.25,0,1,1,.46142-.19238c.40039.96045,2.19141,2.97559,3.58911,3.2085a.25.25,0,0,1-.04077.49658Z"/><path class="cls-18" d="M119.748,86.0977c-2.752-.113-4.499.456-5.554-.625-.813-.833-2.272-5.901-3.878-5.124-1.502.728,1.275,6.489,1.452,7.561.394,2.402,3.013,4.802,7.675,4.814a17.91382,17.91382,0,0,0,6.407-1.562s6.994-3.634,6.277-4.805c-.777-1.268-7.03,1.728-7.03,1.728a9.90151,9.90151,0,0,0-5.349-1.987"/><path class="cls-11" d="M119.46622,92.9739h-.02368c-4.87842-.01269-7.52588-2.61279-7.92114-5.02343a13.68794,13.68794,0,0,0-.5376-1.584c-1.10156-2.9541-1.99-5.65478-.77686-6.24267a1.0053,1.0053,0,0,1,.801-.043c.96509.34277,1.76,2.0415,2.46142,3.54053a8.55225,8.55225,0,0,0,.90357,1.67675c.65259.668,1.62524.63086,3.09912.57129.66943-.02685,1.42847-.05615,2.28613-.02148a10.09355,10.09355,0,0,1,5.37085,1.94482c1.34009-.63379,6.39209-2.90234,7.21118-1.56689a.64256.64256,0,0,1,.05909.52344c-.40772,1.46679-5.81836,4.31445-6.43409,4.63427-.12915.04981-.26171.103-.42285.16748A16.8246,16.8246,0,0,1,119.46622,92.9739ZM110.6547,80.51785a.51691.51691,0,0,0-.22974.05615c-.9043.438.40039,3.93653,1.02734,5.61768a12.98,12.98,0,0,1,.56226,1.67773c.36255,2.20948,2.842,4.59229,7.4292,4.60449h.02246a16.37831,16.37831,0,0,0,5.89038-1.3872c.16626-.06641.30347-.1211.407-.15918,2.22193-1.15723,5.89087-3.36572,6.15406-4.312.02343-.084.00366-.11621-.00367-.12842-.40722-.66406-3.79907.4292-6.709,1.82324a.25313.25313,0,0,1-.2666-.03223,9.72869,9.72869,0,0,0-5.20068-1.93017h0c-.8379-.03516-1.58643-.00537-2.24585.021-1.55.0625-2.66919.10547-3.47681-.72119a8.08832,8.08832,0,0,1-.99854-1.81445c-.594-1.26953-1.40771-3.0083-2.17578-3.28125A.55893.55893,0,0,0,110.6547,80.51785Z"/><path class="cls-16" d="M110.106,80.5576c-.283-.103-1.487-.174-1.607.14-.12.313,1.308.552,1.308.552"/><path class="cls-11" d="M119.97818,90.67556q-.28308,0-.572-.02587a4.63777,4.63777,0,0,1-3.53271-1.84717.25.25,0,1,1,.41992-.27149,4.1433,4.1433,0,0,0,3.15723,1.62061,4.33324,4.33324,0,0,0,3.49633-1.03272.25011.25011,0,0,1,.36524.3418A4.59171,4.59171,0,0,1,119.97818,90.67556Z"/><path class="cls-11" d="M115.9047,97.46853a.24936.24936,0,0,1-.04248-.00341l-1.3982-.24073a.25021.25021,0,0,1,.085-.49316l1.1482.19775.69946-4.4541a.25006.25006,0,1,1,.49414.07715l-.739,4.70508a.25009.25009,0,0,1-.24707.21142Z"/><path class="cls-11" d="M120.038,97.66092h-.00049l-1.2998-.00293a.25.25,0,0,1,.00048-.5h.00049l1.0603.00244.19727-4.418a.24188.24188,0,0,1,.261-.23828.24949.24949,0,0,1,.23852.26074l-.208,4.65723A.24969.24969,0,0,1,120.038,97.66092Z"/></g><rect class="cls-1" width="180.5" height="141"/></g></g></svg>