<svg xmlns="http://www.w3.org/2000/svg" xmlns:xlink="http://www.w3.org/1999/xlink" width="1080" height="280" viewBox="0 0 1080 280"><defs><style>.cls-1{fill:none;}.cls-10,.cls-2{fill:#ddd;}.cls-3{clip-path:url(#clip-path);}.cls-4,.cls-7{fill:#fff;}.cls-5{fill:#aaa;}.cls-6{fill:gray;}.cls-10,.cls-11,.cls-12,.cls-13,.cls-15,.cls-7{fill-rule:evenodd;}.cls-13,.cls-8{fill:#053437;}.cls-9{fill:#33d67b;}.cls-11{fill:#f7ce05;}.cls-12{fill:#caecf9;}.cls-14{fill:#553bf2;}.cls-15{fill:#f0403d;}</style><clipPath id="clip-path"><rect class="cls-1" width="1080" height="280"/></clipPath></defs><g id="Layer_2" data-name="Layer 2"><g id="Layer_2-2" data-name="Layer 2"><path class="cls-2" d="M79.9992,220.0006v0Z"/><path class="cls-2" d="M79.99982,220.99964a.99974.99974,0,0,1-1-1v-80a1,1,0,0,1,2,0v80A.99973.99973,0,0,1,79.99982,220.99964Z"/><g class="cls-3"><path class="cls-2" d="M80.0008,140.87074a1.00009,1.00009,0,0,1-.58838-1.80957s.57324-.416,1.62939-1.16406a.99957.99957,0,1,1,1.15625,1.63085c-1.041.73829-1.60791,1.1504-1.61084,1.15235A.99343.99343,0,0,1,80.0008,140.87074Z"/><path class="cls-2" d="M243.18,200.42054a1.00021,1.00021,0,0,1-.30664-1.95215,14.29237,14.29237,0,0,0,3.30713-1.59082.99961.99961,0,1,1,1.07812,1.6836,16.33835,16.33835,0,0,1-3.772,1.81152A1.01639,1.01639,0,0,1,243.18,200.42054Zm-7.69092-.24609a.99425.99425,0,0,1-.36719-.07031,19.04715,19.04715,0,0,1-3.668-1.98243,1.00029,1.00029,0,1,1,1.125-1.65429,17.02878,17.02878,0,0,0,3.27832,1.77734.99985.99985,0,0,1-.36816,1.92969Zm17.08838-6.77344a1.00023,1.00023,0,0,1-.76123-1.64844c.7915-.92968,1.59814-1.96679,2.39648-3.08105a1.00042,1.00042,0,0,1,1.626,1.166c-.83106,1.15821-1.67188,2.23926-2.499,3.21192A.99746.99746,0,0,1,252.57746,193.401Zm-26.5083-.38281a.99681.99681,0,0,1-.73242-.31934c-.86133-.92675-1.75635-1.95508-2.65967-3.05664a.99957.99957,0,1,1,1.5459-1.26758c.87744,1.06934,1.74511,2.06641,2.57861,2.96289a1,1,0,0,1-.73242,1.68067Zm-7.41162-9.39258a.99985.99985,0,0,1-.82129-.42773q-1.125-1.6128-2.25342-3.32911a.99972.99972,0,1,1,1.66992-1.0996q1.114,1.69043,2.22412,3.28418a1.00024,1.00024,0,0,1-.81933,1.57226Zm40.62646-.11816a1.00055,1.00055,0,0,1-.86963-1.49219c.61914-1.09473,1.25293-2.2666,1.8833-3.48047a1,1,0,1,1,1.77491.92188c-.64112,1.23535-1.28614,2.42675-1.917,3.543A1.00027,1.00027,0,0,1,259.284,183.50746Zm-47.12939-9.94336a.99862.99862,0,0,1-.855-.48047q-1.02906-1.689-2.05957-3.43555a1,1,0,1,1,1.72168-1.01758q1.02392,1.73292,2.04589,3.41407a.99933.99933,0,0,1-.853,1.51953Zm52.51464-.75489a1,1,0,0,1-.90966-1.415q.81078-1.77832,1.61328-3.63086a.99987.99987,0,1,1,1.835.79492q-.81006,1.86913-1.62793,3.666A1.00022,1.00022,0,0,1,264.66925,172.80921Zm-58.5664-9.585a1,1,0,0,1-.87061-.50586q-.98217-1.72851-1.96484-3.48242a.99994.99994,0,0,1,1.74414-.97851q.98,1.749,1.95947,3.47265a1.00013,1.00013,0,0,1-.86816,1.49414Zm63.25146-1.4414a.99987.99987,0,0,1-.92822-1.3711q.73242-1.83105,1.45947-3.70507a.99971.99971,0,1,1,1.86426.72265q-.73023,1.88379-1.46631,3.72461A1.00026,1.00026,0,0,1,269.35431,161.78285Zm613.083-.90137a1.00016,1.00016,0,0,1-.12549-1.99219,15.43993,15.43993,0,0,0,3.58008-.916,1.00019,1.00019,0,0,1,.71777,1.86718,17.52727,17.52727,0,0,1-4.04394,1.03321A1.14058,1.14058,0,0,1,882.43732,160.88148Zm-7.7876-.89648a1,1,0,0,1-.32568-.05469,25.08287,25.08287,0,0,1-3.77295-1.67481.99956.99956,0,1,1,.95215-1.75781,23.23168,23.23168,0,0,0,3.47168,1.542.99988.99988,0,0,1-.3252,1.94532Zm18.32959-4.21387a1.00021,1.00021,0,0,1-.64648-1.76367,37.4173,37.4173,0,0,0,2.81885-2.66211,1.00011,1.00011,0,1,1,1.44336,1.38476,39.68875,39.68875,0,0,1-2.97022,2.80469A1.00049,1.00049,0,0,1,892.97931,155.77113Zm-28.45068-1.97168a.99373.99373,0,0,1-.65039-.24121c-.96973-.83106-1.97266-1.75586-2.98145-2.74707a.99993.99993,0,1,1,1.40235-1.42578c.97607.959,1.94531,1.85254,2.88086,2.65527a.99957.99957,0,0,1-.65137,1.75879ZM200.25422,152.7682a.99987.99987,0,0,1-.87549-.51465l-1.93946-3.50195a1.00012,1.00012,0,1,1,1.75-.96875l1.93848,3.5a.99962.99962,0,0,1-.87353,1.48535Zm73.3916-2.1709a.9865.9865,0,0,1-.34717-.0625,1.0001,1.0001,0,0,1-.59082-1.28516q.68847-1.85888,1.373-3.74218a1.00016,1.00016,0,0,1,1.87988.68359q-.687,1.88818-1.37695,3.75293A.99975.99975,0,0,1,273.64582,150.5973Zm627.30371-3.70117a1.00044,1.00044,0,0,1-.80713-1.58887c.73486-1.00879,1.49219-2.09961,2.251-3.24219a.99971.99971,0,1,1,1.666,1.10547c-.77441,1.168-1.54883,2.28223-2.30078,3.31446A.9986.9986,0,0,1,900.94953,146.89613Zm-44.75342-1.66406a.9984.9984,0,0,1-.76367-.35352q-1.27734-1.50879-2.54932-3.11133a.99981.99981,0,1,1,1.56543-1.24414q1.25244,1.57472,2.51026,3.0625a1.0003,1.0003,0,0,1-.7627,1.64649ZM194.432,142.28675a.99985.99985,0,0,1-.87353-.51074q-.97926-1.749-1.95752-3.47461a1.00016,1.00016,0,0,1,1.74023-.98633q.98,1.72853,1.9624,3.4834a1.00034,1.00034,0,0,1-.87158,1.48828Zm203.84766-1.42187a1.07672,1.07672,0,0,1-.13672-.00879,17.87137,17.87137,0,0,1-4.03858-1.06641.99979.99979,0,1,1,.72559-1.86328,15.83641,15.83641,0,0,0,3.5835.94727,1.00021,1.00021,0,0,1-.13379,1.99121Zm7.75146-.89746a.99986.99986,0,0,1-.34717-1.9375,18.59153,18.59153,0,0,0,3.35352-1.66211.99991.99991,0,0,1,1.05762,1.69726,20.543,20.543,0,0,1-3.7168,1.83985A.98264.98264,0,0,1,406.03107,139.96742Zm149.86035-.43067a.99561.99561,0,0,1-.43945-.10156,24.1458,24.1458,0,0,1-3.5249-2.13769,1.00022,1.00022,0,0,1,1.1748-1.61914,22.00772,22.00772,0,0,0,3.23,1.96,1.00031,1.00031,0,0,1-.44043,1.89843Zm-278.16894-.20507a.9994.9994,0,0,1-.9419-1.335l1.33106-3.75488a.99995.99995,0,0,1,1.88574.666l-1.33252,3.75879A1.00013,1.00013,0,0,1,277.72248,139.33168Zm296.791-2.16016a1,1,0,0,1-.57715-1.81738c.99463-.70118,2.022-1.50879,3.05372-2.40137a.99971.99971,0,1,1,1.30859,1.51172c-1.08154.93652-2.16162,1.78613-3.21,2.52441A.9991.9991,0,0,1,574.51349,137.17152Zm332.89844-.35059a.99991.99991,0,0,1-.86523-1.5q.97924-1.69629,1.94775-3.46093a1,1,0,0,1,1.75244.96386q-.97851,1.78125-1.96777,3.49707A1.00113,1.00113,0,0,1,907.41193,136.82093Zm-519.74658-1.02148a.99322.99322,0,0,1-.6211-.2168c-1.00048-.79394-2.03271-1.69531-3.06738-2.67969a1.0002,1.0002,0,1,1,1.37891-1.44921c.99121.94336,1.97754,1.80566,2.93164,2.5625a1.00015,1.00015,0,0,1-.62207,1.7832Zm461.18017-.01465a.99949.99949,0,0,1-.80957-.41113q-1.16748-1.604-2.33349-3.25586a.99981.99981,0,1,1,1.63281-1.1543q1.158,1.6377,2.31787,3.23242a.99992.99992,0,0,1-.80762,1.58887Zm-760.67773-.61133a1.00024,1.00024,0,0,1-.56348-1.82715c1.02832-.69921,2.13672-1.44726,3.31543-2.2373a1.00025,1.00025,0,1,1,1.11328,1.66211c-1.1748.78613-2.27929,1.53223-3.30371,2.22949A.9943.9943,0,0,1,88.16779,135.17347Zm327.40771-2.11035a1.00028,1.00028,0,0,1-.73925-1.67285c.82861-.91113,1.666-1.91992,2.48828-2.999a.99963.99963,0,1,1,1.59082,1.21093c-.85742,1.126-1.73193,2.18067-2.59961,3.13379A.99805.99805,0,0,1,415.5755,133.06312Zm131.16016-1.01074a.99708.99708,0,0,1-.75781-.34668c-.8418-.97656-1.69141-2.0459-2.52539-3.17871a.99984.99984,0,1,1,1.61035-1.18555c.80371,1.09082,1.62109,2.12012,2.42969,3.05762a.99994.99994,0,0,1-.75684,1.65332Zm-358.25635-.16211a.99812.99812,0,0,1-.8623-.49219q-1.02246-1.73583-2.042-3.418a1.00015,1.00015,0,0,1,1.71045-1.03711q1.02612,1.69337,2.05468,3.43946a1.00039,1.00039,0,0,1-.86084,1.50781Zm394.81885-2.79883a.99994.99994,0,0,1-.74316-1.66894c.83789-.93164,1.70508-1.93848,2.57715-2.99219a1,1,0,1,1,1.54052,1.27539c-.88965,1.07519-1.77441,2.10254-2.63037,3.05469A1.00014,1.00014,0,0,1,583.29816,129.09144Zm-485.15088-.53418a.99989.99989,0,0,1-.54345-1.83984q1.63695-1.05762,3.36865-2.15625a1.00008,1.00008,0,0,1,1.07226,1.68847q-1.72265,1.09425-3.356,2.14747A.99594.99594,0,0,1,98.14728,128.55726Zm183.56836-.52051a1.01544,1.01544,0,0,1-.333-.05664,1.00047,1.00047,0,0,1-.60986-1.27636l1.332-3.76368a.99982.99982,0,0,1,1.88477.668l-1.33106,3.76172A.99935.99935,0,0,1,281.71564,128.03675Zm97.53076-.70605a.99668.99668,0,0,1-.76806-.35938c-.82178-.98339-1.67041-2.04-2.522-3.14062a.99993.99993,0,1,1,1.58106-1.22461c.8374,1.08105,1.66992,2.11816,2.47607,3.084a.99975.99975,0,0,1-.76709,1.64063Zm533.855-1.05078a.99988.99988,0,0,1-.88964-1.45508q.90087-1.76074,1.79541-3.55566a1.00011,1.00011,0,0,1,1.78906.89453q-.89941,1.80029-1.80322,3.57129A1.00129,1.00129,0,0,1,913.10138,126.27992Zm-71.1289-.30176a.99745.99745,0,0,1-.82715-.43652q-1.12207-1.64649-2.24463-3.30469a.9998.9998,0,1,1,1.65576-1.12109q1.11987,1.6538,2.24121,3.29882a1,1,0,0,1-.82519,1.56348ZM422.5384,123.361a1.00025,1.00025,0,0,1-.85987-1.50879c.6416-1.085,1.29444-2.24316,1.94043-3.44238a.99969.99969,0,1,1,1.76074.94727c-.65869,1.22363-1.3247,2.40527-1.97949,3.51269A1.00085,1.00085,0,0,1,422.5384,123.361Zm117.36328-1.10449a.99971.99971,0,0,1-.86377-.49414c-.646-1.10352-1.30811-2.28516-1.96778-3.51465a.99966.99966,0,1,1,1.76172-.94531c.64795,1.207,1.29785,2.36719,1.93164,3.44824a.99968.99968,0,0,1-.86181,1.50586Zm-431.61231-.05762a.99985.99985,0,0,1-.52-1.85449q1.69263-1.02832,3.42969-2.05957a.99969.99969,0,1,1,1.02148,1.71875q-1.727,1.02685-3.41308,2.04981A.994.994,0,0,1,108.28937,122.19886Zm73.89112-.499a.99766.99766,0,0,1-.83692-.45117q-1.11181-1.69484-2.21728-3.292a.99973.99973,0,1,1,1.64355-1.13868q1.11987,1.61573,2.24561,3.333a1,1,0,0,1-.835,1.54883Zm408.623-1.93066a1,1,0,0,1-.8042-1.59375q1.166-1.57911,2.32959-3.21973a1.00014,1.00014,0,0,1,1.63086,1.1582q-1.1748,1.65381-2.35107,3.249A.99935.99935,0,0,1,590.80353,119.76918ZM372.036,117.775a.99849.99849,0,0,1-.82177-.42871q-1.1316-1.6245-2.26172-3.30957a1,1,0,0,1,1.66015-1.11523q1.12061,1.667,2.24317,3.28223a.99929.99929,0,0,1-.24951,1.3916A.98812.98812,0,0,1,372.036,117.775Zm-86.29834-1.02343a.99969.99969,0,0,1-.94043-1.33985q.68262-1.88819,1.36817-3.75488a1,1,0,0,1,1.87744.68945q-.68336,1.86036-1.36475,3.74512A1.00042,1.00042,0,0,1,285.73761,116.7516ZM118.61847,116.153a1,1,0,0,1-.49023-1.87207q1.74682-.98,3.50684-1.9375a1.00026,1.00026,0,0,1,.95507,1.75782q-1.74682.94922-3.4834,1.92382A.99435.99435,0,0,1,118.61847,116.153Zm716.63282-.084a.99928.99928,0,0,1-.82764-.4375q-1.12573-1.65381-2.25244-3.28906a.99982.99982,0,1,1,1.64648-1.13477q1.13013,1.6377,2.25928,3.29883a.99959.99959,0,0,1-.82568,1.5625Zm83.17138-.52246a1.00022,1.00022,0,0,1-.89843-1.43652l1.73876-3.5918a.99978.99978,0,1,1,1.80079.86914l-1.74024,3.5957A1.00071,1.00071,0,0,1,918.42267,115.54652ZM428.0672,112.74086a1,1,0,0,1-.90576-1.42286q.82837-1.77538,1.6416-3.61718a.99993.99993,0,1,1,1.82911.80859q-.82106,1.85889-1.65821,3.6543A1.00075,1.00075,0,0,1,428.0672,112.74086Zm-252.89355-.75a.99618.99618,0,0,1-.77588-.36915c-.8667-1.06445-1.731-2.06543-2.56982-2.9746a1,1,0,1,1,1.4707-1.35547c.86621.93945,1.75781,1.97168,2.6499,3.06836a.99979.99979,0,0,1-.7749,1.63086Zm359.206-.35743a1.00023,1.00023,0,0,1-.90576-.57519q-.84081-1.793-1.6665-3.64746a1.00023,1.00023,0,0,1,1.82715-.81446q.81738,1.83546,1.6499,3.61231a1.00036,1.00036,0,0,1-.90479,1.4248Zm461.9502-.06738a1.00017,1.00017,0,0,1-.92578-.62109c-.47119-1.15235-.98242-2.38282-1.53028-3.67578a.99994.99994,0,1,1,1.8418-.7793c.55078,1.30078,1.06494,2.53906,1.53906,3.69726a.99961.99961,0,0,1-.9248,1.37891Zm-867.14453-1.03516a.9999.9999,0,0,1-.44776-1.89453q1.81275-.90526,3.60694-1.75586a.99968.99968,0,1,1,.85644,1.80664q-1.77391.84083-3.56982,1.73829A.99917.99917,0,0,1,129.18537,110.53089Zm468.49512-.56347a.9999.9999,0,0,1-.82813-1.55957q1.10963-1.64356,2.21777-3.31055a.99984.99984,0,0,1,1.665,1.10742q-1.11255,1.67139-2.22461,3.32227A.99962.99962,0,0,1,597.68049,109.96742Zm-232.272-2.169a.99821.99821,0,0,1-.84228-.46q-1.07593-1.67431-2.15039-3.36914a1.00008,1.00008,0,1,1,1.68847-1.07226q1.07154,1.689,2.14453,3.36132a.9993.9993,0,0,1-.84033,1.54Zm462.98975-1.5498a.99845.99845,0,0,1-.811-.41406q-1.177-1.626-2.35644-3.2002a1.0002,1.0002,0,0,1,1.59961-1.20117q1.19018,1.58643,2.377,3.22949a.99936.99936,0,0,1-.80908,1.58594Zm-688.32764-.6875a1.00015,1.00015,0,0,1-.37695-1.92676c1.27637-.51758,2.541-1.00488,3.75976-1.44629a1.00029,1.00029,0,0,1,.68165,1.88086c-1.19532.43262-2.436.91016-3.68848,1.419A1.00385,1.00385,0,0,1,140.07062,105.56117Zm149.83545-.041a1,1,0,0,1-.9331-1.35742q.72216-1.88671,1.4497-3.73047a1,1,0,0,1,1.86035.73438q-.72436,1.834-1.44287,3.71093A.9997.9997,0,0,1,289.90607,105.52015Zm633.74463-.76074a.99987.99987,0,0,1-.898-1.43848q.87965-1.80322,1.76367-3.58886a1.00012,1.00012,0,1,1,1.792.88867q-.88112,1.77831-1.75879,3.57715A.99881.99881,0,0,1,923.6507,104.75941Zm-757.01611-1.08984a.99551.99551,0,0,1-.564-.17481,16.81421,16.81421,0,0,0-3.27832-1.78613.99975.99975,0,1,1,.73535-1.85938,18.8088,18.8088,0,0,1,3.67285,1.99512.99989.99989,0,0,1-.56591,1.8252Zm-15.208-1.8418a1,1,0,0,1-.22266-1.97461,39.77246,39.77246,0,0,1,4.02588-.7207.98811.98811,0,0,1,1.11426.87109.99942.99942,0,0,1-.87109,1.11328,37.9936,37.9936,0,0,0-3.82178.68555A.98431.98431,0,0,1,151.42658,101.82777Zm281.40283-.0791a.98681.98681,0,0,1-.37646-.07422.9994.9994,0,0,1-.54932-1.30274q.74413-1.82958,1.48047-3.69628a1,1,0,1,1,1.86035.73437q-.74047,1.875-1.48828,3.71582A1.00133,1.00133,0,0,1,432.82941,101.74867Zm289.76611-.375c-.02685,0-.05419-.001-.08154-.00293a21.17732,21.17732,0,0,1-2.72314-.39356q-.68043-.14648-1.37744-.33691a1.00022,1.00022,0,1,1,.52734-1.92969q.64306.17579,1.27051.31153a19.07522,19.07522,0,0,0,2.46386.35449,1.00018,1.00018,0,0,1-.07959,1.99707Zm7.93457-.46a.99995.99995,0,0,1-.16308-1.98633c1.21-.20117,2.50146-.46485,3.83838-.78418a1,1,0,1,1,.46484,1.94531c-1.38232.33008-2.71973.60352-3.9751.81152A.95239.95239,0,0,1,730.53009,100.91371Zm-200.94384-.25489a1.00017,1.00017,0,0,1-.9253-.61914q-.75585-1.83837-1.50146-3.71093a.99975.99975,0,1,1,1.85742-.74024q.74268,1.86036,1.49365,3.68945a1.00018,1.00018,0,0,1-.92431,1.38086Zm461.99951-.08984a1.00012,1.00012,0,0,1-.91065-.58594c-.53906-1.18359-1.09765-2.38965-1.67431-3.6084a.99991.99991,0,1,1,1.80762-.85546q.87231,1.84277,1.687,3.63574a.99971.99971,0,0,1-.90967,1.41406Zm-387.28467-.5791a.9998.9998,0,0,1-.834-1.54981l2.20019-3.334a1,1,0,1,1,1.668,1.10352L605.137,99.53968A.998.998,0,0,1,604.30109,99.98988ZM742.098,97.901a.99989.99989,0,0,1-.314-1.94922q1.85157-.6123,3.74512-1.29687a.99962.99962,0,1,1,.67773,1.88086q-1.91674.68994-3.79492,1.31445A.97775.97775,0,0,1,742.098,97.901Zm-30.81788-.166a.98776.98776,0,0,1-.4458-.10547c-1.13525-.56641-2.33447-1.207-3.56494-1.9043a1.00016,1.00016,0,1,1,.98633-1.74023c1.19971.67968,2.36816,1.30468,3.47217,1.85546a1,1,0,0,1-.44776,1.89454Zm-352.29-.05079a.99822.99822,0,0,1-.84571-.46484q-1.06713-1.686-2.13525-3.35644a1,1,0,1,1,1.68457-1.07813q1.0708,1.67431,2.14014,3.36426a1,1,0,0,1-.84375,1.53515Zm462.09912-.916a.99864.99864,0,0,1-.76758-.3584c-.8833-1.05566-1.75488-2.05957-2.59082-2.98437a1.00011,1.00011,0,1,1,1.4834-1.3418c.853.94336,1.7417,1.96777,2.6416,3.043a1.00032,1.00032,0,0,1-.7666,1.6416ZM294.37384,94.40492a.99927.99927,0,0,1-.91992-1.39063q.79469-1.87206,1.59717-3.67773a.99983.99983,0,1,1,1.82715.8125q-.79541,1.79-1.5835,3.64648A1.0001,1.0001,0,0,1,294.37384,94.40492Zm634.647-.35156a1.00085,1.00085,0,0,1-.88623-1.46192q.93384-1.793,1.876-3.541a.99972.99972,0,1,1,1.75977.94921Q930.835,91.734,929.909,93.51527A1.00077,1.00077,0,0,1,929.02082,94.05336Zm-175.69483-.29a.99974.99974,0,0,1-.36767-1.92969q1.84131-.728,3.69482-1.47559a1.00011,1.00011,0,1,1,.74707,1.85547q-1.85816.74853-3.70752,1.47949A.99153.99153,0,0,1,753.326,93.76332Zm-52.36132-2.085a.99372.99372,0,0,1-.5459-.16309q-1.65089-1.07812-3.33448-2.22559a1.00029,1.00029,0,0,1,1.125-1.65429q1.667,1.13524,3.30323,2.20605a.99995.99995,0,0,1-.54785,1.83692ZM437.19172,90.59144a.999.999,0,0,1-.93506-1.35449q.70239-1.853,1.40283-3.72168a.99988.99988,0,1,1,1.87207.70312q-.70093,1.8706-1.40479,3.72754A1.00037,1.00037,0,0,1,437.19172,90.59144ZM610.94611,90.027a1.0003,1.0003,0,0,1-.82519-1.56348q1.136-1.667,2.2749-3.29492a.99976.99976,0,1,1,1.63818,1.14648q-1.13158,1.61572-2.26074,3.27539A.99992.99992,0,0,1,610.94611,90.027Zm375.42627-.23828a1.00047,1.00047,0,0,1-.88965-.541q-.90966-1.76367-1.85791-3.51074a1,1,0,1,1,1.75733-.95508q.958,1.76222,1.87793,3.54785a1.00021,1.00021,0,0,1-.8877,1.459Zm-461.187-.27051a.9997.9997,0,0,1-.93408-.64258q-.71265-1.86181-1.4209-3.73437a1,1,0,1,1,1.87011-.709q.70752,1.86915,1.41895,3.72852a1.00084,1.00084,0,0,1-.93408,1.35742Zm239.24414-.22168a1.00028,1.00028,0,0,1-.37207-1.92871q1.86548-.74708,3.7168-1.47363a1.00032,1.00032,0,0,1,.72851,1.86328q-1.84276.72071-3.70117,1.46777A.99882.99882,0,0,1,764.42951,89.29652Zm48.39551-1.167a.99854.99854,0,0,1-.65918-.24805c-1.019-.89453-2.04-1.71777-3.03369-2.44629a.99987.99987,0,1,1,1.18164-1.61328c1.0415.7627,2.10839,1.623,3.17138,2.55566a1.00006,1.00006,0,0,1-.66015,1.752Zm-460.32959-.49707a.99906.99906,0,0,1-.833-.44532q-1.114-1.67137-2.23-3.293a.99982.99982,0,1,1,1.64648-1.13477q1.125,1.63183,2.24756,3.31836a1,1,0,0,1-.83105,1.55469ZM775.6092,85.028a1.00012,1.00012,0,0,1-.33252-1.94335q1.92627-.67822,3.80761-1.28321a.99986.99986,0,0,1,.61036,1.9043q-1.853.59327-3.75293,1.26562A1.01475,1.01475,0,0,1,775.6092,85.028Zm-84.50782-.12988a.992.992,0,0,1-.57714-.18457q-1.62012-1.147-3.25391-2.31543a1.00048,1.00048,0,0,1,1.16211-1.6289q1.63036,1.16454,3.248,2.31347a.99973.99973,0,0,1-.57911,1.81543Zm243.72071-1.32226a1.00009,1.00009,0,0,1-.85742-1.5127q1.04881-1.75635,2.11376-3.42187a.99961.99961,0,1,1,1.6836,1.07812q-1.04809,1.6377-2.08057,3.36914A.9991.9991,0,0,1,934.82209,83.57582Zm-635.45459-.0586a.99989.99989,0,0,1-.89258-1.44824q.92284-1.83984,1.85937-3.56836a1.00022,1.00022,0,0,1,1.75879.95313q-.92211,1.70067-1.83105,3.51171A1,1,0,0,1,299.3675,83.51722Zm503.41992-1.72558a1.00574,1.00574,0,0,1-.34326-.06055,18.23788,18.23788,0,0,0-2.64112-.751q-.49218-.10107-.99853-.17187a1.00017,1.00017,0,1,1,.28125-1.98047q.56616.08056,1.11426.19141a20.28438,20.28438,0,0,1,2.93066.833,1.00012,1.00012,0,0,1-.34326,1.93946ZM787.078,81.64808a.99978.99978,0,0,1-.21241-1.97656c1.39454-.30469,2.74073-.54688,4.00049-.71973a.99956.99956,0,1,1,.27246,1.98047c-1.20849.167-2.50244.39942-3.84619.69238A.94773.94773,0,0,1,787.078,81.64808ZM617.89972,80.27992a.99961.99961,0,0,1-.79638-1.60352q1.23193-1.62891,2.46679-3.17187a.99992.99992,0,0,1,1.561,1.25q-1.21728,1.5205-2.43311,3.1289A.9988.9988,0,0,1,617.89972,80.27992ZM441.389,79.38636a1.00087,1.00087,0,0,1-.937-1.34961l1.3999-3.74121a.99988.99988,0,1,1,1.87207.70313l-1.398,3.7373A1.00041,1.00041,0,0,1,441.389,79.38636Zm539.13037-.03613a.9976.9976,0,0,1-.85254-.47656c-.7124-1.15723-1.4292-2.27832-2.13086-3.33106A1,1,0,0,1,979.2,74.43324c.71533,1.07324,1.44531,2.21484,2.16992,3.39355a.99989.99989,0,0,1-.85059,1.52344Zm-459.5708-1.043a1.00111,1.00111,0,0,1-.936-.64746l-1.40577-3.73144a1.00012,1.00012,0,0,1,1.8711-.707l1.40674,3.7334a1.00071,1.00071,0,0,1-.936,1.35254Zm160.39893-.34668a.99052.99052,0,0,1-.57471-.18262q-1.63036-1.147-3.26074-2.27441a1.00038,1.00038,0,0,1,1.13672-1.64648q1.637,1.13085,3.27539,2.28613a.9999.9999,0,0,1-.57666,1.81738Zm-335.7627-.10742a.999.999,0,0,1-.7959-.39355c-.83642-1.09473-1.66162-2.13965-2.45263-3.10352a1.00019,1.00019,0,1,1,1.5459-1.26953c.80615.98242,1.646,2.0459,2.49658,3.16015a.99975.99975,0,0,1-.79395,1.60645ZM941.491,73.64125a1.00023,1.00023,0,0,1-.79053-1.61231c.86329-1.11523,1.731-2.167,2.57911-3.126a1.00036,1.00036,0,0,1,1.498,1.32618c-.81933.92578-1.65869,1.94238-2.49511,3.02441A1.00039,1.00039,0,0,1,941.491,73.64125Zm-636.1748-.50684a1,1,0,0,1-.8291-1.55762c.78955-1.1748,1.58837-2.28222,2.374-3.28906a1.00018,1.00018,0,0,1,1.57715,1.23047c-.75684.96973-1.52783,2.03808-2.291,3.17383A.99953.99953,0,0,1,305.31623,73.13441Zm366.13086-1.8877a.99813.99813,0,0,1-.54-.15918q-1.68824-1.08545-3.36035-2.10253a.99953.99953,0,1,1,1.03711-1.709q1.69409,1.02685,3.40527,2.12988a.99979.99979,0,0,1-.542,1.84082ZM973.6258,69.57386a.99792.99792,0,0,1-.76758-.3584c-.88672-1.06054-1.769-2.03222-2.62207-2.88867a1.00024,1.00024,0,0,1,1.417-1.41211c.894.89746,1.81543,1.91309,2.73926,3.01758a.99966.99966,0,0,1-.7666,1.6416Zm-635.876-.75586a1.00024,1.00024,0,0,1-.69775-.2832c-.98389-.959-1.96045-1.835-2.90235-2.60449a.99978.99978,0,1,1,1.26465-1.54883c.98731.80566,2.00781,1.7207,3.03321,2.7207a.99952.99952,0,0,1-.69776,1.71582Zm107.87744-.63672a1.00024,1.00024,0,0,1-.93261-1.36035q.72508-1.87646,1.45752-3.72558a.99993.99993,0,1,1,1.85937.73633q-.72949,1.84129-1.45166,3.71A1.00031,1.00031,0,0,1,445.62726,68.18128ZM661.10578,65.235a.99574.99574,0,0,1-.45069-.10743c-1.21728-.61523-2.41406-1.17871-3.55566-1.6748a.99972.99972,0,1,1,.79639-1.834c1.17724.51075,2.40918,1.09083,3.66162,1.72364a1,1,0,0,1-.45166,1.89258ZM949.825,65.12562a1,1,0,0,1-.59864-1.80176,25.84273,25.84273,0,0,1,3.48291-2.20215.99982.99982,0,1,1,.92383,1.77344,23.90826,23.90826,0,0,0-3.21142,2.03223A.99591.99591,0,0,1,949.825,65.12562Zm-636.64746-.91309a.99959.99959,0,0,1-.61426-1.78906,19.25669,19.25669,0,0,1,3.51513-2.20215.99964.99964,0,1,1,.86036,1.80469,17.319,17.319,0,0,0-3.14795,1.97559A.99079.99079,0,0,1,313.17756,64.21253Zm321.502-.80664a.99976.99976,0,0,1-.52149-1.85351,24.84575,24.84575,0,0,1,3.688-1.86621,1.00011,1.00011,0,1,1,.74219,1.85742,22.90418,22.90418,0,0,0-3.38916,1.71582A.99115.99115,0,0,1,634.67951,63.40589ZM328.03742,61.99964a1.0076,1.0076,0,0,1-.37354-.07226,15.42864,15.42864,0,0,0-3.57129-.9834,1.00031,1.00031,0,0,1,.28321-1.98047,17.481,17.481,0,0,1,4.03613,1.1084,1.00021,1.00021,0,0,1-.37451,1.92773Zm636.53467-.08886a.99713.99713,0,0,1-.40869-.08789,8.94726,8.94726,0,0,0-3.44-.8418,1.00091,1.00091,0,0,1-.97753-1.02246,1.01315,1.01315,0,0,1,1.02246-.97754,10.9359,10.9359,0,0,1,4.21337,1.01758.99977.99977,0,0,1-.40966,1.91211Zm-314.6167-.91309a1.04789,1.04789,0,0,1-.21875-.02344,24.861,24.861,0,0,0-3.78174-.56054.99963.99963,0,0,1-.93164-1.06348,1.01738,1.01738,0,0,1,1.063-.93262,27.11625,27.11625,0,0,1,4.08593.6045.99976.99976,0,0,1-.21679,1.97558ZM450.10578,57.07a1,1,0,0,1-.92041-1.39063q.791-1.86474,1.59521-3.67773a1.00028,1.00028,0,1,1,1.82813.8125q-.79834,1.79589-1.582,3.64648A.99911.99911,0,0,1,450.10578,57.07Zm4.98291-10.88868a.99989.99989,0,0,1-.89356-1.44726q.91554-1.83105,1.854-3.57129a1.00018,1.00018,0,0,1,1.75976.95117q-.92431,1.71095-1.8247,3.51465A.99956.99956,0,0,1,455.08869,46.18128Zm5.9126-10.40136a.99958.99958,0,0,1-.8335-1.55078c.7749-1.17383,1.55957-2.28711,2.33252-3.30957a.99981.99981,0,1,1,1.5957,1.20507c-.74756.98926-1.50781,2.06836-2.25927,3.20606A.99987.99987,0,0,1,461.00129,35.77992Zm40.3081-1.06739a.99723.99723,0,0,1-.83349-.44628c-.75489-1.13477-1.51954-2.21-2.27393-3.19434a1.00025,1.00025,0,0,1,1.58789-1.2168c.78125,1.02051,1.57227,2.13184,2.35107,3.30371a.99958.99958,0,0,1-.83154,1.55371Zm-32.68945-8.09472a.99978.99978,0,0,1-.66944-1.74317,28.50564,28.50564,0,0,1,3.23438-2.52832,1,1,0,1,1,1.10937,1.66407A26.62512,26.62512,0,0,0,469.2884,26.361.99727.99727,0,0,1,468.61994,26.61781Zm24.96728-.97266a.994.994,0,0,1-.647-.23828,23.0193,23.0193,0,0,0-3.07715-2.22266.9996.9996,0,1,1,1.02442-1.71679,24.843,24.843,0,0,1,3.34765,2.416,1,1,0,0,1-.64795,1.76172ZM478.98029,21.153a.99976.99976,0,0,1-.17822-1.98339q.5376-.09814,1.08252-.16309a17.14592,17.14592,0,0,1,3.12744-.08691,1.00017,1.00017,0,0,1,.93164,1.06445,1.01467,1.01467,0,0,1-1.06348.93164,14.8013,14.8013,0,0,0-2.75976.07715c-.32471.03808-.64307.08594-.96.14355A.94449.94449,0,0,1,478.98029,21.153Z"/><path class="cls-2" d="M999.99933,121.00062a1.0002,1.0002,0,0,1-.9414-.66309c-.002-.00488-.23926-.668-.68653-1.85449a1.00022,1.00022,0,0,1,1.87207-.70508c.45557,1.21.69727,1.88575.69727,1.88575a1.00017,1.00017,0,0,1-.94141,1.33691Z"/></g><rect class="cls-4" x="66" y="136" width="14" height="88"/><rect class="cls-4" x="76" y="220" width="924" height="8"/><path class="cls-2" d="M999.99982,220.49964h-920a.5.5,0,0,1-.5-.5v-200a.5.5,0,0,1,1,0v199.5h919.5a.5.5,0,0,1,0,1Z"/><path class="cls-2" d="M319.99982,224.49964a.49971.49971,0,0,1-.5-.5v-4a.5.5,0,0,1,1,0v4A.49971.49971,0,0,1,319.99982,224.49964Z"/><path class="cls-2" d="M559.99982,224.49964a.49971.49971,0,0,1-.5-.5v-4a.5.5,0,0,1,1,0v4A.49971.49971,0,0,1,559.99982,224.49964Z"/><path class="cls-2" d="M799.99982,224.49964a.49971.49971,0,0,1-.5-.5v-4a.5.5,0,0,1,1,0v4A.49971.49971,0,0,1,799.99982,224.49964Z"/><path class="cls-2" d="M919.99982,224.49964a.49971.49971,0,0,1-.5-.5v-4a.5.5,0,0,1,1,0v4A.49971.49971,0,0,1,919.99982,224.49964Z"/><path class="cls-2" d="M199.99982,224.49964a.49971.49971,0,0,1-.5-.5v-4a.5.5,0,0,1,1,0v4A.49971.49971,0,0,1,199.99982,224.49964Z"/><path class="cls-2" d="M439.99982,224.49964a.49971.49971,0,0,1-.5-.5v-4a.5.5,0,0,1,1,0v4A.49971.49971,0,0,1,439.99982,224.49964Z"/><path class="cls-2" d="M679.99982,224.49964a.49971.49971,0,0,1-.5-.5v-4a.5.5,0,0,1,1,0v4A.49971.49971,0,0,1,679.99982,224.49964Z"/><path class="cls-2" d="M79.99982,120.49964h-4a.5.5,0,0,1,0-1h4a.5.5,0,0,1,0,1Z"/><path class="cls-5" d="M52.1396,18.00742a1.8669,1.8669,0,0,1-1.114,1.776v.012a2.08831,2.08831,0,0,1,1.474,2.026c0,1.38-1.138,2.254-2.878,2.254-1.728,0-2.878-.874-2.878-2.254a2.08861,2.08861,0,0,1,1.486-2.026v-.012a1.85844,1.85844,0,0,1-1.126-1.776c0-1.282.994-2.074,2.518-2.074,1.522,0,2.518.792,2.518,2.074m-.636,3.72c0-.914-.742-1.464-1.882-1.464-1.128,0-1.884.55-1.884,1.464,0,.9.734,1.45,1.884,1.45,1.164,0,1.882-.55,1.882-1.45m-3.406-3.622c0,.78.614,1.258,1.524,1.258.912,0,1.522-.478,1.522-1.258,0-.804-.588-1.272-1.522-1.272-.936,0-1.524.468-1.524,1.272"/><path class="cls-5" d="M54.0998,20c0-2.65,1.032-4.078,2.95-4.078s2.95,1.428,2.95,4.078-1.032,4.076-2.95,4.076-2.95-1.426-2.95-4.076m4.906,0c0-2.088-.684-3.214-1.956-3.214-1.27,0-1.954,1.126-1.954,3.214,0,2.086.684,3.214,1.954,3.214,1.272,0,1.956-1.128,1.956-3.214"/><path class="cls-5" d="M53.3282,66.041v.636a10.458,10.458,0,0,0-2.962,7.28h-.708a10.9856,10.9856,0,0,1,2.926-7.28h-4.976v-.636Z"/><path class="cls-5" d="M54.195,70c0-2.638,1.02-4.078,2.902-4.078,1.884,0,2.904,1.44,2.904,4.078s-1.02,4.076-2.904,4.076c-1.882,0-2.902-1.438-2.902-4.076m5.098,0c0-2.242-.768-3.466-2.196-3.466-1.416,0-2.194,1.224-2.194,3.466s.778,3.464,2.194,3.464c1.428,0,2.196-1.222,2.196-3.464"/><path class="cls-5" d="M52.5502,117.50481l-.624.3a1.69974,1.69974,0,0,0-1.778-1.248c-1.558,0-2.36,1.68-2.36,3.612,0,.202.012.42.036.67h.046a2.17836,2.17836,0,0,1,2.266-1.798,2.52,2.52,0,1,1-.046,5.036c-1.93,0-2.95-1.606-2.95-4.076,0-2.688,1.32-4.08,3.06-4.08a2.27537,2.27537,0,0,1,2.35,1.584m-4.39,4.042a1.81449,1.81449,0,0,0,1.918,1.882,1.86591,1.86591,0,1,0,.012-3.73,1.84522,1.84522,0,0,0-1.93,1.848"/><path class="cls-5" d="M54.195,120c0-2.638,1.02-4.078,2.902-4.078,1.884,0,2.904,1.44,2.904,4.078s-1.02,4.076-2.904,4.076c-1.882,0-2.902-1.438-2.902-4.076m5.098,0c0-2.242-.766-3.466-2.196-3.466-1.414,0-2.194,1.224-2.194,3.466s.78,3.464,2.194,3.464c1.43,0,2.196-1.222,2.196-3.464"/><path class="cls-5" d="M52.7402,171.498a2.43961,2.43961,0,0,1-2.638,2.578,2.57,2.57,0,0,1-2.746-1.846l.66-.336a1.87049,1.87049,0,0,0,2.062,1.548,1.80036,1.80036,0,0,0,1.954-1.906,1.75817,1.75817,0,0,0-1.894-1.92,2.2498,2.2498,0,0,0-1.966.862h-.6l.432-4.438h4.4v.638h-3.826l-.31,2.926-.012.156h.012a2.48464,2.48464,0,0,1,1.99-.78,2.36944,2.36944,0,0,1,2.482,2.518"/><path class="cls-5" d="M54.195,170c0-2.638,1.02-4.078,2.902-4.078,1.884,0,2.904,1.44,2.904,4.078s-1.02,4.076-2.904,4.076c-1.882,0-2.902-1.438-2.902-4.076m5.098,0c0-2.242-.768-3.466-2.196-3.466-1.416,0-2.194,1.224-2.194,3.466s.778,3.464,2.194,3.464c1.428,0,2.196-1.222,2.196-3.464"/><path class="cls-5" d="M52.7432,221.8806h-1.404v2.076h-.96v-2.076h-3.864v-.706l3.614-5.134h1.21v5.014h1.404Zm-5.208-.826h2.844v-2.962l.046-1.272h-.022a11.20781,11.20781,0,0,1-.794,1.32Z"/><path class="cls-5" d="M54.1018,219.998c0-2.65,1.032-4.076,2.948-4.076,1.918,0,2.95,1.426,2.95,4.076s-1.032,4.078-2.95,4.078c-1.916,0-2.948-1.428-2.948-4.078m4.906,0c0-2.086-.684-3.212-1.958-3.212-1.268,0-1.952,1.126-1.952,3.212,0,2.088.684,3.214,1.952,3.214,1.274,0,1.958-1.126,1.958-3.214"/><path class="cls-2" d="M79.99982,70.49964h-4a.5.5,0,0,1,0-1h4a.5.5,0,0,1,0,1Z"/><path class="cls-2" d="M79.99982,170.49964h-4a.5.5,0,0,1,0-1h4a.5.5,0,0,1,0,1Z"/><path class="cls-5" d="M906.08,241.498a2.43964,2.43964,0,0,1-2.638,2.578,2.57,2.57,0,0,1-2.746-1.846l.66-.336a1.87055,1.87055,0,0,0,2.062,1.548,1.80043,1.80043,0,0,0,1.954-1.906,1.75819,1.75819,0,0,0-1.894-1.92,2.24981,2.24981,0,0,0-1.966.862h-.6l.432-4.438h4.4v.638h-3.826l-.31,2.926-.012.156h.012a2.48466,2.48466,0,0,1,1.99-.78,2.36946,2.36946,0,0,1,2.48206,2.518"/><path class="cls-5" d="M908.92578,238.4768a.59406.59406,0,1,1-1.188,0,.59406.59406,0,0,1,1.188,0m0,4.988a.59406.59406,0,1,1-.6-.6.56279.56279,0,0,1,.6.6"/><path class="cls-5" d="M910.64215,240c0-2.638,1.02-4.078,2.902-4.078,1.884,0,2.904,1.44,2.904,4.078s-1.02,4.076-2.904,4.076c-1.882,0-2.902-1.438-2.902-4.076m5.098,0c0-2.242-.768-3.466-2.196-3.466-1.416,0-2.194,1.224-2.194,3.466s.778,3.464,2.194,3.464c1.428,0,2.196-1.222,2.196-3.464"/><path class="cls-5" d="M917.97418,240c0-2.638,1.02-4.078,2.902-4.078,1.884,0,2.904,1.44,2.904,4.078s-1.02,4.076-2.904,4.076c-1.882,0-2.902-1.438-2.902-4.076m5.098,0c0-2.242-.768-3.466-2.196-3.466-1.416,0-2.194,1.224-2.194,3.466s.778,3.464,2.194,3.464c1.428,0,2.196-1.222,2.196-3.464"/><path class="cls-5" d="M934.97552,238.3808c0,1.452-1.044,2.338-2.67395,2.338h-1.98v3.238h-.682v-7.916h2.662c1.63,0,2.67395.888,2.67395,2.34m-.70794,0c0-1.092-.696-1.704-2.05-1.704h-1.896v3.408h1.896c1.354,0,2.05-.612,2.05-1.704"/><polygon class="cls-5" points="944.178 243.957 943.518 243.957 943.518 238.273 943.59 236.689 940.76 243.957 940.148 243.957 937.33 236.689 937.318 236.689 937.388 238.273 937.388 243.957 936.742 243.957 936.742 236.041 937.774 236.041 940.016 241.763 940.448 243.155 940.46 243.155 940.904 241.775 943.136 236.041 944.178 236.041 944.178 243.957"/><polygon class="cls-6" points="988.789 262.998 988.789 263.898 983.297 263.898 983.297 255.982 984.253 255.982 984.253 262.998 988.789 262.998"/><path class="cls-6" d="M995.687,263.1428l-.058.756a2.17141,2.17141,0,0,1-.718.118.93888.93888,0,0,1-1.078-.886,2.37373,2.37373,0,0,1-1.934.886c-1.126,0-2.04-.526-2.04-1.606,0-.9.794-1.608,2.34-1.872l1.59406-.264v-.336a1.25857,1.25857,0,0,0-1.402-1.318,1.75939,1.75939,0,0,0-1.716,1.138l-.706-.514a2.43942,2.43942,0,0,1,2.422-1.464c1.366,0,2.362.648,2.362,2.04v2.95c0,.288.122.432.458.432a2.15328,2.15328,0,0,0,.476-.06m-1.894-1.26v-.828l-1.34406.252c-1.05395.194-1.594.54-1.594,1.104,0,.504.406.766,1.09.766.962,0,1.848-.502,1.848-1.294"/><path class="cls-6" d="M1000.51562,263.4786a2.23513,2.23513,0,0,1-1.546.54,1.50509,1.50509,0,0,1-1.668-1.608v-3.682h-1.19995v-.828h1.19995v-1.438l.96-.266v1.704h2.218v.828h-2.218v3.514a.81318.81318,0,0,0,.898.876,1.37308,1.37308,0,0,0,1.02-.444Z"/><path class="cls-6" d="M1006.969,261.2602h-4.52a1.89867,1.89867,0,0,0,1.954,1.918,1.62173,1.62173,0,0,0,1.69-.888l.806.42a2.57075,2.57075,0,0,1-2.496,1.308c-1.81,0-2.902-1.176-2.902-3.118,0-1.944,1.018-3.118,2.832-3.118a2.59493,2.59493,0,0,1,2.682,2.806,4.76978,4.76978,0,0,1-.046.672m-4.508-.852h3.632c-.132-1.104-.742-1.788-1.76-1.788a1.8068,1.8068,0,0,0-1.87195,1.788"/><path class="cls-6" d="M1008.30463,262.6622l.782-.54a1.86669,1.86669,0,0,0,1.894,1.056c.984,0,1.45-.394,1.45-.888,0-.442-.372-.706-1.572-.922-1.702-.314-2.328-.78-2.328-1.788,0-.97.902-1.798,2.364-1.798a2.16684,2.16684,0,0,1,2.374,1.438l-.816.482a1.45761,1.45761,0,0,0-1.558-1.082c-.8,0-1.402.432-1.402.876,0,.516.394.78,1.62.984,1.676.276,2.278.78,2.278,1.762,0,1.044-.972,1.776-2.50805,1.776a2.73736,2.73736,0,0,1-2.57794-1.356"/><path class="cls-6" d="M1018.836,263.4786a2.23517,2.23517,0,0,1-1.546.54,1.50686,1.50686,0,0,1-1.668-1.608v-3.682H1014.422v-.828h1.19995v-1.438l.96-.266v1.704h2.218v.828h-2.218v3.514a.81318.81318,0,0,0,.898.876,1.36028,1.36028,0,0,0,1.02-.444Z"/><path class="cls-5" d="M183.3204,236.041v7.916h-.684v-5.95c0-.324.012-.682.024-1.054a4.11711,4.11711,0,0,1-2.074,1.246l-.18-.612a4.6021,4.6021,0,0,0,2.316-1.546Z"/><path class="cls-5" d="M187.832,236.041v7.916h-.684v-5.95c0-.324.012-.682.024-1.054a4.1171,4.1171,0,0,1-2.074,1.246l-.18-.612a4.602,4.602,0,0,0,2.316-1.546Z"/><path class="cls-5" d="M191.168,238.4748a.59405.59405,0,1,1-1.188,0,.59405.59405,0,0,1,1.188,0m0,4.99a.594.594,0,1,1-.598-.6.5622.5622,0,0,1,.598.6"/><path class="cls-5" d="M192.8864,239.998c0-2.638,1.02-4.076,2.902-4.076,1.884,0,2.904,1.438,2.904,4.076s-1.02,4.078-2.904,4.078c-1.882,0-2.902-1.44-2.902-4.078m5.098,0c0-2.242-.77-3.464-2.196-3.464-1.418,0-2.194,1.222-2.194,3.464,0,2.244.776,3.466,2.194,3.466,1.426,0,2.196-1.222,2.196-3.466"/><path class="cls-5" d="M200.2184,239.998c0-2.638,1.02-4.076,2.902-4.076,1.884,0,2.904,1.438,2.904,4.076s-1.02,4.078-2.904,4.078c-1.882,0-2.902-1.44-2.902-4.078m5.098,0c0-2.242-.77-3.464-2.196-3.464-1.418,0-2.194,1.222-2.194,3.464,0,2.244.776,3.466,2.194,3.466,1.426,0,2.196-1.222,2.196-3.466"/><path class="cls-5" d="M217.21979,238.379c0,1.452-1.044,2.34-2.676,2.34h-1.978v3.238h-.682v-7.916h2.66c1.632,0,2.676.886,2.676,2.338m-.708,0c0-1.09-.696-1.704-2.05-1.704h-1.896v3.408h1.896c1.354,0,2.05-.612,2.05-1.704"/><polygon class="cls-5" points="226.422 243.957 225.762 243.957 225.762 238.271 225.832 236.689 223.004 243.957 222.39 243.957 219.574 236.689 219.562 236.689 219.632 238.271 219.632 243.957 218.984 243.957 218.984 236.041 220.016 236.041 222.258 241.761 222.692 243.153 222.704 243.153 223.148 241.773 225.38 236.041 226.422 236.041 226.422 243.957"/><path class="cls-5" d="M302.80081,243.3926c3.046-2.338,4.356-3.538,4.356-5.038a1.71784,1.71784,0,0,0-1.884-1.798,2.02931,2.02931,0,0,0-2.062,2.112l-.602-.348a2.52358,2.52358,0,0,1,2.688-2.398,2.34024,2.34024,0,0,1,2.566,2.432c0,1.574-1.234,2.914-4.066,4.978v.014c.204-.014.684-.026.876-.026h3.432v.636h-5.304Z"/><path class="cls-5" d="M310.92581,238.4748a.569.569,0,0,1-.602.602.56283.56283,0,0,1-.586-.602.55114.55114,0,0,1,.586-.586.55759.55759,0,0,1,.602.586m0,4.99a.56542.56542,0,0,1-.602.588.59405.59405,0,0,1,0-1.188.56844.56844,0,0,1,.602.6"/><path class="cls-5" d="M312.64017,239.998c0-2.638,1.02-4.076,2.902-4.076,1.884,0,2.904,1.438,2.904,4.076s-1.02,4.078-2.904,4.078c-1.882,0-2.902-1.44-2.902-4.078m5.098,0c0-2.242-.766-3.464-2.196-3.464-1.414,0-2.194,1.222-2.194,3.464,0,2.244.78,3.466,2.194,3.466,1.43,0,2.196-1.222,2.196-3.466"/><path class="cls-5" d="M319.97238,239.998c0-2.638,1.02-4.076,2.902-4.076,1.884,0,2.904,1.438,2.904,4.076s-1.02,4.078-2.904,4.078c-1.882,0-2.902-1.44-2.902-4.078m5.098,0c0-2.242-.766-3.464-2.196-3.464-1.414,0-2.194,1.222-2.194,3.464,0,2.244.78,3.466,2.194,3.466,1.43,0,2.196-1.222,2.196-3.466"/><path class="cls-5" d="M335.64459,241.5442h-3.742l-.95,2.412h-.718l3.144-7.916h.812l3.134,7.916h-.72Zm-.254-.634-1.292-3.298-.314-.91h-.022l-.29.874-1.32,3.334Z"/><polygon class="cls-5" points="346.273 243.957 345.613 243.957 345.613 238.271 345.687 236.689 342.855 243.957 342.245 243.957 339.425 236.689 339.413 236.689 339.483 238.271 339.483 243.957 338.839 243.957 338.839 236.041 339.871 236.041 342.113 241.761 342.543 243.153 342.555 243.153 342.999 241.773 345.231 236.041 346.273 236.041 346.273 243.957"/><path class="cls-5" d="M422.08,241.498a2.43962,2.43962,0,0,1-2.638,2.578,2.57,2.57,0,0,1-2.746-1.846l.66-.336a1.87051,1.87051,0,0,0,2.062,1.548,1.80039,1.80039,0,0,0,1.954-1.906,1.75818,1.75818,0,0,0-1.894-1.92,2.24981,2.24981,0,0,0-1.966.862h-.6l.432-4.438h4.4v.638h-3.826l-.31,2.926-.012.156h.012a2.48462,2.48462,0,0,1,1.99-.78,2.36946,2.36946,0,0,1,2.482,2.518"/><path class="cls-5" d="M424.92581,238.4768a.594.594,0,1,1-1.188,0,.594.594,0,0,1,1.188,0m0,4.988a.594.594,0,1,1-.6-.6.56276.56276,0,0,1,.6.6"/><path class="cls-5" d="M426.64218,240c0-2.638,1.02-4.078,2.902-4.078,1.884,0,2.904,1.44,2.904,4.078s-1.02,4.076-2.904,4.076c-1.882,0-2.902-1.438-2.902-4.076m5.098,0c0-2.242-.768-3.466-2.196-3.466-1.416,0-2.194,1.224-2.194,3.466s.778,3.464,2.194,3.464c1.428,0,2.196-1.222,2.196-3.464"/><path class="cls-5" d="M433.97418,240c0-2.638,1.02-4.078,2.902-4.078,1.884,0,2.904,1.44,2.904,4.078s-1.02,4.076-2.904,4.076c-1.882,0-2.902-1.438-2.902-4.076m5.098,0c0-2.242-.768-3.466-2.196-3.466-1.416,0-2.194,1.224-2.194,3.466s.778,3.464,2.194,3.464c1.428,0,2.196-1.222,2.196-3.464"/><path class="cls-5" d="M449.64459,241.5462h-3.742l-.948,2.41h-.718l3.142-7.916h.814l3.132,7.916h-.72Zm-.252-.634-1.294-3.298-.312-.912h-.024l-.288.874-1.32,3.336Z"/><polygon class="cls-5" points="460.275 243.957 459.615 243.957 459.615 238.273 459.687 236.689 456.857 243.957 456.245 243.957 453.427 236.689 453.415 236.689 453.485 238.273 453.485 243.957 452.839 243.957 452.839 236.041 453.871 236.041 456.113 241.763 456.545 243.155 456.557 243.155 457.001 241.775 459.233 236.041 460.275 236.041 460.275 243.957"/><path class="cls-5" d="M543.33716,237.9614a1.854,1.854,0,0,1-1.332,1.822v.012a2.11816,2.11816,0,0,1,1.68,2.064c0,1.342-1.126,2.216-2.818,2.216-1.68,0-2.818-.874-2.818-2.216a2.11714,2.11714,0,0,1,1.69-2.064v-.012a1.83383,1.83383,0,0,1-1.332-1.822c0-1.248.96-2.028,2.46-2.028,1.498,0,2.47.78,2.47,2.028m-.358,3.838c0-1.008-.84-1.668-2.112-1.668-1.248,0-2.112.66-2.112,1.668,0,.996.84,1.642,2.112,1.642,1.284,0,2.112-.646,2.112-1.642m-3.864-3.778c0,.886.698,1.462,1.752,1.462,1.066,0,1.764-.576,1.764-1.462,0-.9-.684-1.452-1.764-1.452-1.068,0-1.752.552-1.752,1.452"/><path class="cls-5" d="M546.60358,238.4768a.59406.59406,0,1,1-1.188,0,.59406.59406,0,0,1,1.188,0m0,4.988a.59406.59406,0,1,1-.6-.6.56279.56279,0,0,1,.6.6"/><path class="cls-5" d="M548.32,240c0-2.638,1.02-4.078,2.902-4.078,1.884,0,2.904,1.44,2.904,4.078s-1.02,4.076-2.904,4.076c-1.882,0-2.902-1.438-2.902-4.076m5.098,0c0-2.242-.768-3.466-2.19605-3.466-1.416,0-2.194,1.224-2.194,3.466s.778,3.464,2.194,3.464c1.428,0,2.19605-1.222,2.19605-3.464"/><path class="cls-5" d="M555.652,240c0-2.638,1.02-4.078,2.902-4.078,1.884,0,2.904,1.44,2.904,4.078s-1.02,4.076-2.904,4.076c-1.882,0-2.902-1.438-2.902-4.076m5.098,0c0-2.242-.768-3.466-2.196-3.466-1.416,0-2.194,1.224-2.194,3.466s.77795,3.464,2.194,3.464c1.428,0,2.196-1.222,2.196-3.464"/><path class="cls-5" d="M571.32037,241.5462h-3.742l-.948,2.41h-.718l3.142-7.916h.814l3.132,7.916h-.72Zm-.252-.634-1.294-3.298-.312-.912h-.024l-.288.874-1.32,3.336Z"/><polygon class="cls-5" points="581.951 243.957 581.291 243.957 581.291 238.273 581.363 236.689 578.533 243.957 577.921 243.957 575.103 236.689 575.091 236.689 575.161 238.273 575.161 243.957 574.515 243.957 574.515 236.041 575.547 236.041 577.789 241.763 578.221 243.155 578.233 243.155 578.677 241.775 580.909 236.041 581.951 236.041 581.951 243.957"/><path class="cls-5" d="M659.85742,236.041v7.916h-.684v-5.95c0-.322.012-.682.024-1.054a4.13477,4.13477,0,0,1-2.074,1.248l-.18-.612a4.5935,4.5935,0,0,0,2.316-1.548Z"/><path class="cls-5" d="M664.3692,236.041v7.916h-.684v-5.95c0-.322.012-.682.024-1.054a4.13477,4.13477,0,0,1-2.074,1.248l-.18-.612a4.5935,4.5935,0,0,0,2.316-1.548Z"/><path class="cls-5" d="M667.705,238.4768a.59405.59405,0,1,1-1.188,0,.59406.59406,0,0,1,1.188,0m0,4.988a.59405.59405,0,1,1-.598-.6.56118.56118,0,0,1,.598.6"/><path class="cls-5" d="M669.4234,240c0-2.638,1.02-4.078,2.902-4.078,1.884,0,2.904,1.44,2.904,4.078s-1.02,4.076-2.904,4.076c-1.882,0-2.902-1.438-2.902-4.076m5.098,0c0-2.242-.77-3.466-2.196-3.466-1.418,0-2.194,1.224-2.194,3.466s.776,3.464,2.194,3.464c1.426,0,2.196-1.222,2.196-3.464"/><path class="cls-5" d="M676.75555,240c0-2.638,1.02-4.078,2.902-4.078,1.884,0,2.904,1.44,2.904,4.078s-1.02,4.076-2.904,4.076c-1.882,0-2.902-1.438-2.902-4.076m5.098,0c0-2.242-.77-3.466-2.19605-3.466-1.418,0-2.194,1.224-2.194,3.466s.776,3.464,2.194,3.464c1.426,0,2.19605-1.222,2.19605-3.464"/><path class="cls-5" d="M692.424,241.5462h-3.742l-.95,2.41h-.718l3.144-7.916h.812l3.134,7.916h-.72Zm-.254-.634-1.29205-3.298-.314-.912h-.022l-.29.874-1.32,3.336Z"/><polygon class="cls-5" points="703.057 243.957 702.397 243.957 702.397 238.273 702.467 236.689 699.639 243.957 699.025 243.957 696.209 236.689 696.197 236.689 696.267 238.273 696.267 243.957 695.619 243.957 695.619 236.041 696.651 236.041 698.893 241.763 699.327 243.155 699.339 243.155 699.783 241.775 702.015 236.041 703.057 236.041 703.057 243.957"/><path class="cls-5" d="M778.4082,243.3946c3.046-2.34,4.356-3.54,4.356-5.038a1.7193,1.7193,0,0,0-1.884-1.8,2.02926,2.02926,0,0,0-2.062,2.112l-.602-.348a2.52356,2.52356,0,0,1,2.688-2.398,2.34069,2.34069,0,0,1,2.566,2.434c0,1.572-1.234,2.914-4.066,4.978v.012c.204-.012.684-.024.876-.024h3.432v.634h-5.304Z"/><path class="cls-5" d="M786.5332,238.4768a.56846.56846,0,0,1-.602.6.56229.56229,0,0,1-.586-.6.55273.55273,0,0,1,.586-.588.55914.55914,0,0,1,.602.588m0,4.988a.56437.56437,0,0,1-.602.588.59405.59405,0,0,1,0-1.188.56845.56845,0,0,1,.602.6"/><path class="cls-5" d="M788.2478,240c0-2.638,1.02-4.078,2.902-4.078,1.884,0,2.904,1.44,2.904,4.078s-1.02,4.076-2.904,4.076c-1.882,0-2.902-1.438-2.902-4.076m5.098,0c0-2.242-.76606-3.466-2.19605-3.466-1.414,0-2.194,1.224-2.194,3.466s.78,3.464,2.194,3.464c1.43,0,2.19605-1.222,2.19605-3.464"/><path class="cls-5" d="M795.57977,240c0-2.638,1.02-4.078,2.902-4.078,1.884,0,2.904,1.44,2.904,4.078s-1.02,4.076-2.904,4.076c-1.882,0-2.902-1.438-2.902-4.076m5.098,0c0-2.242-.76606-3.466-2.19605-3.466-1.414,0-2.194,1.224-2.194,3.466s.78,3.464,2.194,3.464c1.43,0,2.19605-1.222,2.19605-3.464"/><path class="cls-5" d="M812.58093,238.3808c0,1.452-1.044,2.338-2.672,2.338h-1.982v3.238h-.682v-7.916h2.664c1.628,0,2.672.888,2.672,2.34m-.70794,0c0-1.092-.69605-1.704-2.05-1.704h-1.896v3.408h1.896c1.354,0,2.05-.612,2.05-1.704"/><polygon class="cls-5" points="821.783 243.957 821.123 243.957 821.123 238.273 821.197 236.689 818.365 243.957 817.755 243.957 814.935 236.689 814.923 236.689 814.993 238.273 814.993 243.957 814.349 243.957 814.349 236.041 815.381 236.041 817.623 241.763 818.053 243.155 818.065 243.155 818.509 241.775 820.741 236.041 821.783 236.041 821.783 243.957"/><path class="cls-5" d="M986.212,238.0074a1.86694,1.86694,0,0,1-1.114,1.776v.012a2.08829,2.08829,0,0,1,1.474,2.026c0,1.38-1.138,2.254-2.878,2.254-1.728,0-2.878-.874-2.878-2.254a2.08856,2.08856,0,0,1,1.486-2.026v-.012a1.85847,1.85847,0,0,1-1.126-1.776c0-1.282.994-2.074,2.518-2.074,1.522,0,2.518.792,2.518,2.074m-.63605,3.72c0-.914-.742-1.464-1.882-1.464-1.128,0-1.884.55-1.884,1.464,0,.9.734,1.45,1.884,1.45,1.164,0,1.882-.55,1.882-1.45m-3.40595-3.622c0,.78.614,1.258,1.524,1.258.912,0,1.522-.478,1.522-1.258,0-.804-.588-1.272-1.522-1.272-.936,0-1.524.468-1.524,1.272"/><path class="cls-5" d="M989.9472,238.6208a.779.779,0,1,1-.78-.78.73693.73693,0,0,1,.78.78m0,4.678a.779.779,0,1,1-.78-.782.73642.73642,0,0,1,.78.782"/><path class="cls-5" d="M991.723,240c0-2.65,1.032-4.078,2.94995-4.078s2.95,1.428,2.95,4.078-1.032,4.076-2.95,4.076S991.723,242.65,991.723,240m4.906,0c0-2.088-.684-3.214-1.95606-3.214-1.26995,0-1.954,1.126-1.954,3.214,0,2.086.684,3.214,1.954,3.214,1.272,0,1.95606-1.128,1.95606-3.214"/><path class="cls-5" d="M999.18781,240c0-2.65,1.032-4.078,2.94995-4.078s2.95,1.428,2.95,4.078-1.032,4.076-2.95,4.076-2.94995-1.426-2.94995-4.076m4.906,0c0-2.088-.684-3.214-1.95605-3.214-1.27,0-1.954,1.126-1.954,3.214,0,2.086.684,3.214,1.954,3.214,1.272,0,1.95605-1.128,1.95605-3.214"/><path class="cls-5" d="M1016.715,238.4532a2.38365,2.38365,0,0,1-2.66205,2.41h-1.836v3.094h-.96v-7.916h2.796a2.384,2.384,0,0,1,2.66205,2.412m-1.008,0c0-.984-.55-1.512-1.798-1.512h-1.692v3.022h1.692c1.248,0,1.798-.528,1.798-1.51"/><polygon class="cls-5" points="1026.23 243.957 1025.318 243.957 1025.318 238.981 1025.426 236.893 1025.414 236.893 1022.812 243.957 1021.996 243.957 1019.394 236.893 1019.382 236.893 1019.49 238.981 1019.49 243.957 1018.578 243.957 1018.578 236.041 1020.052 236.041 1021.792 240.851 1022.392 242.831 1022.416 242.831 1023.026 240.863 1024.756 236.041 1026.23 236.041 1026.23 243.957"/><path class="cls-7" d="M621,140H459a4.00145,4.00145,0,0,1-4-4V68a4.00146,4.00146,0,0,1,4-4H621a4.0015,4.0015,0,0,1,4,4v68a4.00148,4.00148,0,0,1-4,4"/><path class="cls-8" d="M620.99982,140.49964h-162a4.50492,4.50492,0,0,1-4.5-4.5v-68a4.50493,4.50493,0,0,1,4.5-4.5h162a4.50492,4.50492,0,0,1,4.5,4.5v68A4.50491,4.50491,0,0,1,620.99982,140.49964Zm-162-76a3.50425,3.50425,0,0,0-3.5,3.5v68a3.50424,3.50424,0,0,0,3.5,3.5h162a3.50424,3.50424,0,0,0,3.5-3.5v-68a3.50425,3.50425,0,0,0-3.5-3.5Z"/><path class="cls-9" d="M464.99982,110.49964h-2a.5.5,0,0,1,0-1h2a.5.5,0,0,1,0,1Z"/><path class="cls-9" d="M464.99982,100.49964h-2a.5.5,0,0,1,0-1h2a.5.5,0,0,1,0,1Z"/><path class="cls-9" d="M464.99982,120.49964h-2a.5.5,0,0,1,0-1h2a.5.5,0,0,1,0,1Z"/><path class="cls-9" d="M474.99982,132.49964a.49971.49971,0,0,1-.5-.5v-2a.5.5,0,0,1,1,0v2A.49971.49971,0,0,1,474.99982,132.49964Z"/><path class="cls-9" d="M504.99982,132.49964a.49971.49971,0,0,1-.5-.5v-2a.5.5,0,0,1,1,0v2A.49971.49971,0,0,1,504.99982,132.49964Z"/><path class="cls-9" d="M484.99982,132.49964a.49971.49971,0,0,1-.5-.5v-2a.5.5,0,0,1,1,0v2A.49971.49971,0,0,1,484.99982,132.49964Z"/><path class="cls-10" d="M617,100a2,2,0,1,1-2-2,1.99949,1.99949,0,0,1,2,2"/><path class="cls-8" d="M624.99982,72.49964h-170a.5.5,0,0,1,0-1h170a.5.5,0,0,1,0,1Z"/><path class="cls-8" d="M461.49982,69.99964a2,2,0,1,1,2-2A2.00229,2.00229,0,0,1,461.49982,69.99964Zm0-3a1,1,0,1,0,1,1A1.001,1.001,0,0,0,461.49982,66.99964Z"/><path class="cls-8" d="M467.49982,69.99964a2,2,0,1,1,2-2A2.00229,2.00229,0,0,1,467.49982,69.99964Zm0-3a1,1,0,1,0,1,1A1.001,1.001,0,0,0,467.49982,66.99964Z"/><path class="cls-8" d="M473.49982,69.99964a2,2,0,1,1,2-2A2.00229,2.00229,0,0,1,473.49982,69.99964Zm0-3a1,1,0,1,0,1,1A1.001,1.001,0,0,0,473.49982,66.99964Z"/><path class="cls-2" d="M566.61554,118.526c-4.46533.001-6.55664-7.14453-8.24755-12.91992a40.03986,40.03986,0,0,0-1.81788-5.3877l-.16845-.34668c-1.50147-3.09472-6.06787-12.50683-9.21436-11.39453-3.11426,1.10743-3.80029,7.7666-4.46387,14.20606-.74951,7.27246-1.46044,14.10058-5.74169,13.81543-2.72315-.208-3.43457-4.999-4.123-9.63184-.39893-2.6875-.9458-6.36719-1.83887-6.36719-1.19482,0-2.03711,2.48047-2.78027,4.66895-.80957,2.38281-1.57422,4.63379-3.01319,5.28613a2.03964,2.03964,0,0,1-1.86572.00293c-1.93115-1.00976-2.72119-5.30859-3.63574-10.28711-.99072-5.38965-2.11279-11.498-4.73828-11.67187-.04981-.00293-.1001-.00489-.15039-.00489-3.84619,0-7.22949,9.64942-8.86621,14.31836-.17627.50293-.33643.96-.48,1.35743-1.59961,4.43066-5.82422,14.72558-10.50928,14.32812-3.15967-.24805-4.27734-5.16211-5.46045-10.36426-1.04932-4.61328-2.13428-9.38379-4.55225-9.63672-1.8872-.19043-3.353,3.26758-4.77343,6.61817-1.4668,3.459-2.852,6.72558-5.03418,7.36426-2.7251.80468-9.63233-3.5586-10.41065-4.0586a.50006.50006,0,0,1,.54-.84179c2.00928,1.28906,7.64941,4.50293,9.58887,3.9414,1.72851-.50586,3.084-3.70312,4.395-6.79492,1.63476-3.85449,3.18164-7.49023,5.79785-7.22266,3.13037.32618,4.24414,5.22364,5.42383,10.40918,1.05078,4.6211,2.13769,9.39942,4.56347,9.58985,3.25245.22851,7.15577-7.20508,9.49073-13.67188.14257-.39453.30175-.84863.47656-1.34863,1.873-5.34375,5.38232-15.28711,10.02637-14.98047,3.40234.22461,4.54785,6.46,5.65576,12.48926.79492,4.32519,1.6167,8.79785,3.11572,9.582a1.045,1.045,0,0,0,.98926-.02734c1.04443-.47364,1.80664-2.71778,2.479-4.69727.93408-2.75,1.81641-5.34766,3.72754-5.34766,1.75537,0,2.229,3.18653,2.82813,7.21973.57177,3.84668,1.28271,8.63477,3.21,8.78125,3.31494.23731,4.0039-6.44434,4.6709-12.91992.69531-6.748,1.41406-13.72656,5.12353-15.04492,3.5127-1.25293,7.25244,5.31445,10.44922,11.89941l.168.3457a39.85423,39.85423,0,0,1,1.87842,5.54395c1.64062,5.60547,3.69677,12.58594,7.62207,12.18457,2.43017-.24316,3.521-4.99707,4.57568-9.59473,1.18213-5.14941,2.29834-10.01367,5.41211-10.40429,1.89453-.24024,3.70215,1.90234,5.60059,4.168,1.55078,1.85253,3.15478,3.76757,4.48193,3.82128,1.06738.0625,2.69726-.97168,4.27588-1.957,2.11816-1.31933,4.30713-2.68261,5.90088-2.00293,1.998.85938,3.34912,3.94532,4.77929,7.21192,1.48536,3.39453,3.02442,6.88769,4.98438,6.75,3.35449-.26367,6.58838-11.35938,7.55127-15.61231a.50012.50012,0,0,1,.97558.22071c-.37109,1.63867-3.75878,16.0205-8.44873,16.38769-2.667.20215-4.27783-3.459-5.97851-7.34473-1.28955-2.94531-2.62305-5.99121-4.25781-6.69433-1.11231-.47461-3.166.80371-4.97754,1.93262-1.78614,1.11328-3.47657,2.14843-4.84619,2.10839-1.76807-.07226-3.43848-2.06738-5.207-4.17871-1.64306-1.96191-3.34716-3.98535-4.71-3.81836-2.41992.30371-3.5083,5.04786-4.561,9.63575-1.18653,5.16894-2.30664,10.05078-5.45117,10.36523A4.10366,4.10366,0,0,1,566.61554,118.526Z"/><path class="cls-9" d="M494.99982,132.49964a.49971.49971,0,0,1-.5-.5v-2a.5.5,0,0,1,1,0v2A.49971.49971,0,0,1,494.99982,132.49964Z"/><path class="cls-9" d="M514.99982,132.49964a.49971.49971,0,0,1-.5-.5v-2a.5.5,0,0,1,1,0v2A.49971.49971,0,0,1,514.99982,132.49964Z"/><path class="cls-9" d="M524.99982,132.49964a.49971.49971,0,0,1-.5-.5v-2a.5.5,0,0,1,1,0v2A.49971.49971,0,0,1,524.99982,132.49964Z"/><path class="cls-2" d="M539.61994,61.86683a.49842.49842,0,0,1-.35352-.14648l-2-2a.49995.49995,0,1,1,.707-.707l2,2a.5.5,0,0,1-.35351.85351Z"/><path class="cls-2" d="M543.61994,61.86683a.49842.49842,0,0,1-.35352-.14648l-4-4a.49995.49995,0,1,1,.707-.707l4,4a.5.5,0,0,1-.35351.85351Z"/><path class="cls-11" d="M536.26459,66.14259l-9.9,9.9c-.156.156-.6-.034-.99-.426-.39-.39-.58-.834-.424-.988l9.9-9.9"/><path class="cls-8" d="M526.20929,76.5973h-.00048a2.26766,2.26766,0,0,1-1.8125-1.81738.70739.70739,0,0,1,.20214-.50684l9.89844-9.89844a.49995.49995,0,0,1,.707.707L525.42707,74.859a1.76506,1.76506,0,0,0,.70654.708l9.77734-9.77832a.49995.49995,0,0,1,.707.707l-9.89991,9.90039A.70922.70922,0,0,1,526.20929,76.5973Zm-.90283-1.61719-.00244.002Z"/><path class="cls-11" d="M535.55762,65.43521a8.00019,8.00019,0,1,0,0-11.314,7.99705,7.99705,0,0,0,0,11.314m1.414-9.9a6.0005,6.0005,0,1,1,0,8.486,6.00291,6.00291,0,0,1,0-8.486"/><path class="cls-8" d="M541.21418,68.27992a8.44049,8.44049,0,0,1-6.01026-2.49121h0a8.49632,8.49632,0,1,1,6.01026,2.49121Zm.00049-15.99805A7.4961,7.4961,0,0,0,535.911,65.08168h0a7.50041,7.50041,0,1,0,5.30372-12.79981Zm0,13.99316a6.49732,6.49732,0,0,1-4.59717-11.09375h.00049A6.50052,6.50052,0,1,1,541.21467,66.275ZM537.3255,55.88832a5.50045,5.50045,0,1,0,7.77833,0,5.5104,5.5104,0,0,0-7.77881,0Z"/><path class="cls-12" d="M525.10541,47.5938c-1.53,4.622-8.408,8.342-17.552,6.52-5.59-1.114-10.752-5.972-12.17-8.052,0,0-15.986,1.836-16.428-.872-.486-2.982,19.366-5.532,30.62-4.186,5.47.654,8.716,2.678,11.312,1.132a20.95734,20.95734,0,0,1,8.242-2.588c3.266-.118,6.128,3.55,5.074,4.956-1.224,1.632-3.418.19-5.074.466-2.1.35-3.728,1.732-4.024,2.624"/><path class="cls-8" d="M512.26984,55.09632a24.62622,24.62622,0,0,1-4.814-.49218c-5.4126-1.07911-10.5337-5.6045-12.30909-8.01172-14.99609,1.6914-16.564-.58106-16.685-1.32227a1.35047,1.35047,0,0,1,.43212-1.17578c2.68506-2.80078,20.21-4.84473,30.74122-3.58691A41.37445,41.37445,0,0,1,514.807,41.526c2.51807.61817,4.33789,1.06738,5.82471.17969a21.6942,21.6942,0,0,1,8.48-2.6582,6.31542,6.31542,0,0,1,5.40967,3.28125,2.30947,2.30947,0,0,1,.082,2.47461c-.97071,1.29492-2.39112,1.0332-3.64551.80273a5.49143,5.49143,0,0,0-1.74658-.14356,4.99569,4.99569,0,0,0-3.63135,2.28809h0C524.28107,51.67543,519.36994,55.09632,512.26984,55.09632Zm-16.88623-9.53418a.50012.50012,0,0,1,.41309.21875c1.46045,2.14161,6.59765,6.79493,11.85449,7.84278,8.769,1.74414,15.51855-1.77442,16.97949-6.1875h0c.37695-1.13672,2.2417-2.59668,4.416-2.96a6.16089,6.16089,0,0,1,2.09228.14648c1.28027.23438,2.09424.34082,2.66455-.41894.21-.28028.147-.8086-.16845-1.41211a5.23586,5.23586,0,0,0-4.4878-2.74414,20.51748,20.51748,0,0,0-8.00439,2.51757c-1.83789,1.09473-3.92774.582-6.57471-.06836a40.80561,40.80561,0,0,0-5.05225-.99707c-10.59228-1.26562-27.65771.94727-29.8999,3.28711-.08594.08887-.18408.21778-.167.32325.21777,1.33691,8.38574,1.3164,15.87744.45507A.56049.56049,0,0,1,495.38361,45.56214Z"/><path class="cls-13" d="M534.1026,44.85941c.264.48.93994,2.504.41,2.806-.532.302-1.572-2.078-1.572-2.078"/><path class="cls-8" d="M511.4715,50.52308a10.63273,10.63273,0,0,1-1.80078-.15722c-3.12647-.53516-5.99854-2.36719-7.14746-4.5586a.50015.50015,0,0,1,.88574-.46484c.99561,1.89941,3.64014,3.55957,6.43018,4.03808a7.52038,7.52038,0,0,0,6.56054-1.68652.49994.49994,0,1,1,.68067.73242A8.07681,8.07681,0,0,1,511.4715,50.52308Z"/><path class="cls-8" d="M505.62775,63.20082a.49982.49982,0,0,1-.49951-.51661l.2998-8.82812a.51487.51487,0,0,1,.51661-.4834.50009.50009,0,0,1,.48242.5166l-.28028,8.25293,2.23584-.24023a.49991.49991,0,1,1,.10645.99414l-2.80811.30176A.4866.4866,0,0,1,505.62775,63.20082Z"/><path class="cls-8" d="M511.39826,62.903a.49888.49888,0,0,1-.49951-.48144l-.28565-7.84473a.50069.50069,0,0,1,.48145-.51855.5126.5126,0,0,1,.51758.48144l.26562,7.28711,1.92725-.28515a.50644.50644,0,0,1,.56787.42187.50077.50077,0,0,1-.42139.56836l-2.48.36621A.61486.61486,0,0,1,511.39826,62.903Z"/><path class="cls-9" d="M554.99982,132.49964a.49971.49971,0,0,1-.5-.5v-2a.5.5,0,0,1,1,0v2A.49971.49971,0,0,1,554.99982,132.49964Z"/><path class="cls-9" d="M534.99982,132.49964a.49971.49971,0,0,1-.5-.5v-2a.5.5,0,0,1,1,0v2A.49971.49971,0,0,1,534.99982,132.49964Z"/><path class="cls-9" d="M544.99982,132.49964a.49971.49971,0,0,1-.5-.5v-2a.5.5,0,0,1,1,0v2A.49971.49971,0,0,1,544.99982,132.49964Z"/><path class="cls-9" d="M614.99982,130.49964h-150a.49971.49971,0,0,1-.5-.5v-50a.5.5,0,0,1,1,0v49.5h149.5a.5.5,0,0,1,0,1Z"/><path class="cls-9" d="M564.99982,132.49964a.49971.49971,0,0,1-.5-.5v-2a.5.5,0,0,1,1,0v2A.49971.49971,0,0,1,564.99982,132.49964Z"/><path class="cls-9" d="M574.99982,132.49964a.49971.49971,0,0,1-.5-.5v-2a.5.5,0,0,1,1,0v2A.49971.49971,0,0,1,574.99982,132.49964Z"/><path class="cls-9" d="M594.99982,132.49964a.49971.49971,0,0,1-.5-.5v-2a.5.5,0,0,1,1,0v2A.49971.49971,0,0,1,594.99982,132.49964Z"/><path class="cls-9" d="M584.99982,132.49964a.49971.49971,0,0,1-.5-.5v-2a.5.5,0,0,1,1,0v2A.49971.49971,0,0,1,584.99982,132.49964Z"/><path class="cls-9" d="M604.99982,132.49964a.49971.49971,0,0,1-.5-.5v-2a.5.5,0,0,1,1,0v2A.49971.49971,0,0,1,604.99982,132.49964Z"/><path class="cls-9" d="M464.99982,90.49964h-2a.5.5,0,0,1,0-1h2a.5.5,0,0,1,0,1Z"/><path class="cls-14" d="M569.68292,97.439c0-.978-.858-1.598-2.158-1.598a3.387,3.387,0,0,0-2.9,1.48l-2.418-1.42a6.36832,6.36832,0,0,1,5.658-2.678c2.99805,0,5.076,1.34,5.076,3.698,0,3.198-3.358,3.558-3.358,5.676h-3.018c0-2.798,3.118-3.418,3.118-5.158m-3.51794,8.356a1.9244,1.9244,0,0,1,3.83795,0,1.92167,1.92167,0,0,1-3.83795,0"/><path class="cls-6" d="M577.46906,119.4a.47473.47473,0,0,1-.08252-.00683c-3.2876-.54785-7.06055-4.917-7.937-7.01856a.49992.49992,0,1,1,.92285-.38476c.80127,1.9209,4.3833,5.95117,7.17822,6.417a.5.5,0,0,1-.08154.99316Z"/><path class="cls-15" d="M602.496,134.1954c-5.504-.226-8.99805.912-11.108-1.25-1.626-1.666-4.544-11.802-7.756-10.248-3.004,1.456,2.55,12.978,2.904,15.122.788,4.804,6.026,9.604,15.35,9.628,5.698.014,11.234-2.542,12.814-3.124,0,0,13.988-7.268,12.554-9.61-1.554-2.536-14.06,3.456-14.06,3.456a19.80335,19.80335,0,0,0-10.698-3.974"/><path class="cls-8" d="M601.93244,147.94789h-.04736c-9.75684-.02539-15.05176-5.22657-15.84229-10.04786a27.34577,27.34577,0,0,0-1.07471-3.167c-2.20361-5.9082-3.981-11.30957-1.55371-12.48535a2.01464,2.01464,0,0,1,1.60205-.08594c1.92969.68555,3.51953,4.083,4.92237,7.08008a17.10383,17.10383,0,0,0,1.80713,3.35352c1.30517,1.33789,3.252,1.25879,6.20019,1.14355,1.33789-.05469,2.85547-.11328,4.57031-.04394h0a20.18732,20.18732,0,0,1,10.7417,3.89062c2.67969-1.2666,12.78321-5.80957,14.42188-3.13281a1.282,1.282,0,0,1,.11816,1.0459c-.81494,2.93359-11.63623,8.6289-12.86767,9.26855-.25831.09961-.52344.20606-.84571.335C611.77424,146.027,606.97443,147.94789,601.93244,147.94789Zm-17.62305-24.91211a1.03391,1.03391,0,0,0-.45947.1123c-1.80859.876.80078,7.87305,2.05517,11.23535a26.01693,26.01693,0,0,1,1.124,3.3545c.7251,4.41894,5.68359,9.18554,14.8584,9.21h.04492c4.84961,0,9.52832-1.87305,11.78076-2.77442.33252-.13281.60693-.24219.814-.31836,4.44384-2.31445,11.78173-6.73144,12.30761-8.624.04688-.168.00733-.23242-.00732-.25684-.813-1.32714-7.59766.8584-13.41748,3.64649a.50631.50631,0,0,1-.53321-.06446,19.46514,19.46514,0,0,0-10.40136-3.86132h0c-1.67432-.07032-3.17041-.01075-4.48926.043-3.09961.12109-5.33984.21191-6.95606-1.44336a16.1576,16.1576,0,0,1-1.99658-3.62891c-1.18847-2.53906-2.81592-6.01563-4.352-6.56152A1.11761,1.11761,0,0,0,584.30939,123.03578Z"/><path class="cls-13" d="M583.212,123.1152c-.566-.206-2.97406-.348-3.21406.28-.24.626,2.616,1.104,2.616,1.104"/><path class="cls-8" d="M602.95685,143.35023c-.377,0-.75879-.0166-1.14306-.05078a9.27768,9.27768,0,0,1-7.0669-3.69434.5.5,0,0,1,.83985-.543,8.28807,8.28807,0,0,0,6.31591,3.24122c2.88135.25976,5.56006-.53516,6.99121-2.06543a.50022.50022,0,0,1,.73047.68359A9.18253,9.18253,0,0,1,602.95685,143.35023Z"/><path class="cls-8" d="M594.8089,156.93714a.49874.49874,0,0,1-.085-.00683l-2.7959-.48145a.50043.50043,0,0,1,.16993-.98633l2.29589.39551,1.39893-8.9082a.50013.50013,0,1,1,.98828.1543l-1.478,9.41015a.50018.50018,0,0,1-.49414.42285Z"/><path class="cls-8" d="M603.076,157.32191h-.001l-2.6001-.00586a.5.5,0,0,1,.001-1h.001l2.1211.00488.39453-8.83593a.5048.5048,0,0,1,.522-.47657.499.499,0,0,1,.47705.52149l-.416,9.31445A.49938.49938,0,0,1,603.076,157.32191Z"/><rect class="cls-1" x="380" y="20" width="320" height="160"/><rect class="cls-1" width="1080" height="280"/></g></g></svg>