<svg xmlns="http://www.w3.org/2000/svg" xmlns:xlink="http://www.w3.org/1999/xlink" width="194" height="161.5" viewBox="0 0 194 161.5"><defs><style>.cls-1{fill:none;}.cls-2{fill:#ddd;}.cls-3{clip-path:url(#clip-path);}.cls-4{fill:#fff;}.cls-5{opacity:0.5;}.cls-6{clip-path:url(#clip-path-2);}.cls-7{fill:#aaa;}.cls-8{fill:gray;}</style><clipPath id="clip-path"><rect class="cls-1" y="20.5" width="180.5" height="140"/></clipPath><clipPath id="clip-path-2"><rect class="cls-1" x="12.7495" y="30.25" width="152.5005" height="102.5"/></clipPath></defs><g id="Layer_2" data-name="Layer 2"><g id="Layer_2-2" data-name="Layer 2"><rect class="cls-2" x="107.5" width="34" height="7"/><rect class="cls-2" x="5" width="97" height="7"/><rect class="cls-2" x="5" y="14.5" width="74.5" height="4"/><g class="cls-3"><path class="cls-2" d="M15,68.5s13.899,56.754,30,57c15.224.232,15.215-49.363,30-53,10.648-2.619,19.036,32.216,30,32,16.544-.325,13.857-55.366,30-59,11.808-2.658,30,38,30,38v47H15Z"/><path class="cls-2" d="M165,131.49993H15a.99974.99974,0,0,1-1-1v-62a.99995.99995,0,0,1,1.97119-.23828c3.81592,15.57715,16.47168,56.0459,29.044,56.23828.02881.001.05859.001.0874.001,7.001,0,10.76465-12.89649,14.40625-25.37207,3.6875-12.63086,7.5-25.69336,15.25244-27.59961,6.17432-1.52735,11.10254,7.06152,16.31739,16.1455,4.4663,7.78125,9.08447,15.82618,13.81982,15.82618.02734,0,.0542,0,.082-.001,7.6543-.15039,11.07861-14.459,14.38965-28.2959,3.38379-14.13965,6.88232-28.75977,15.41016-30.67969,12.2666-2.74511,29.23681,34.3291,31.13232,38.56739a.99558.99558,0,0,1,.0874.4082v47A.99974.99974,0,0,1,165,131.49993Zm-149-2H164V83.7138c-5.05273-11.2334-19.80029-39.26368-28.78027-37.23829-7.312,1.64551-10.66358,15.6504-13.9043,29.19336-3.64892,15.24805-7.09521,29.65039-16.2959,29.83106-.0415.001-.08349.001-.12548.001-5.88965,0-10.583-8.17676-15.5503-16.83008-4.61621-8.04395-9.38818-16.36524-14.105-15.2002C68.606,75.10247,64.957,87.60149,61.42872,99.68938c-4.02392,13.78613-7.82715,26.81055-16.3164,26.81153-.043,0-.08448,0-.12744-.001C31.773,126.29778,20.43214,91.65813,16,76.0888Z"/><rect class="cls-4" x="10" y="62.5" width="5" height="74"/><rect class="cls-4" x="12" y="130.5" width="182" height="10"/><g class="cls-5"><g class="cls-6"><g class="cls-6"><path class="cls-2" d="M165,81.00091H13a.5.5,0,0,1,0-1H165a.5.5,0,0,1,0,1Z"/><path class="cls-2" d="M164.99952,56.00579l-152-.001a.5.5,0,1,1,0-1l152,.001a.5.5,0,0,1,0,1Z"/><path class="cls-2" d="M165,106.00091H13a.5.5,0,0,1,0-1H165a.5.5,0,0,1,0,1Z"/><path class="cls-2" d="M75,132.999a.49972.49972,0,0,1-.5-.5V30.49993a.5.5,0,0,1,1,0V132.499A.49971.49971,0,0,1,75,132.999Z"/><path class="cls-2" d="M45,132.999a.49972.49972,0,0,1-.5-.5V30.49993a.5.5,0,0,1,1,0V132.499A.49971.49971,0,0,1,45,132.999Z"/><path class="cls-2" d="M134,132.999a.49972.49972,0,0,1-.5-.5V30.49993a.5.5,0,0,1,1,0V132.499A.49971.49971,0,0,1,134,132.999Z"/><path class="cls-2" d="M105,132.99993a.49972.49972,0,0,1-.5-.5V30.50091a.5.5,0,0,1,1,0v101.999A.49971.49971,0,0,1,105,132.99993Z"/></g></g></g><rect class="cls-4" x="12" y="66.5" width="3" height="6"/><path class="cls-2" d="M165,130.99993H15a.49972.49972,0,0,1-.5-.5v-100a.5.5,0,0,1,1,0v99.5H165a.5.5,0,1,1,0,1Z"/><path class="cls-7" d="M6.0698,29.50371a.93345.93345,0,0,1-.557.888v.006a1.04414,1.04414,0,0,1,.737,1.013c0,.69-.569,1.127-1.439,1.127-.864,0-1.439-.437-1.439-1.127a1.04429,1.04429,0,0,1,.743-1.013v-.006a.92922.92922,0,0,1-.563-.888c0-.641.497-1.037,1.259-1.037.761,0,1.259.396,1.259,1.037m-.318,1.86c0-.457-.371-.732-.941-.732-.564,0-.942.275-.942.732,0,.45.367.725.942.725.582,0,.941-.275.941-.725m-1.703-1.811c0,.39.307.629.762.629.456,0,.761-.239.761-.629,0-.402-.294-.636-.761-.636-.468,0-.762.234-.762.636"/><path class="cls-7" d="M7.0499,30.5c0-1.325.516-2.039,1.475-2.039s1.475.714,1.475,2.039-.516,2.038-1.475,2.038-1.475-.713-1.475-2.038m2.453,0c0-1.044-.342-1.607-.978-1.607-.635,0-.977.563-.977,1.607,0,1.043.342,1.607.977,1.607.636,0,.978-.564.978-1.607"/><path class="cls-7" d="M6.6641,53.5205v.318a5.229,5.229,0,0,0-1.481,3.64h-.354a5.4928,5.4928,0,0,1,1.463-3.64H3.8041v-.318Z"/><path class="cls-7" d="M7.0975,55.5c0-1.319.51-2.039,1.451-2.039.942,0,1.452.72,1.452,2.039s-.51,2.038-1.452,2.038c-.941,0-1.451-.719-1.451-2.038m2.549,0c0-1.121-.384-1.733-1.098-1.733-.708,0-1.097.612-1.097,1.733s.389,1.732,1.097,1.732c.714,0,1.098-.611,1.098-1.732"/><path class="cls-7" d="M6.2751,79.2524l-.312.15a.84987.84987,0,0,0-.889-.624c-.779,0-1.18.84-1.18,1.806,0,.101.006.21.018.335h.023a1.08918,1.08918,0,0,1,1.133-.899,1.26,1.26,0,1,1-.023,2.518c-.965,0-1.475-.803-1.475-2.038,0-1.344.66-2.04,1.53-2.04a1.13769,1.13769,0,0,1,1.175.792m-2.195,2.021a.90725.90725,0,0,0,.959.941.933.933,0,1,0,.006-1.865.92262.92262,0,0,0-.965.924"/><path class="cls-7" d="M7.0975,80.5c0-1.319.51-2.039,1.451-2.039.942,0,1.452.72,1.452,2.039s-.51,2.038-1.452,2.038c-.941,0-1.451-.719-1.451-2.038m2.549,0c0-1.121-.383-1.733-1.098-1.733-.707,0-1.097.612-1.097,1.733s.39,1.732,1.097,1.732c.715,0,1.098-.611,1.098-1.732"/><path class="cls-7" d="M6.3701,106.249a1.21981,1.21981,0,0,1-1.319,1.289,1.285,1.285,0,0,1-1.373-.923l.33-.168a.93525.93525,0,0,0,1.031.774.90018.90018,0,0,0,.977-.953.87909.87909,0,0,0-.947-.96,1.1249,1.1249,0,0,0-.983.431h-.3l.216-2.219h2.2v.319H4.2891l-.155,1.463-.006.078h.006a1.24232,1.24232,0,0,1,.995-.39,1.18472,1.18472,0,0,1,1.241,1.259"/><path class="cls-7" d="M7.0975,105.5c0-1.319.51-2.039,1.451-2.039.942,0,1.452.72,1.452,2.039s-.51,2.038-1.452,2.038c-.941,0-1.451-.719-1.451-2.038m2.549,0c0-1.121-.384-1.733-1.098-1.733-.708,0-1.097.612-1.097,1.733s.389,1.732,1.097,1.732c.714,0,1.098-.611,1.098-1.732"/><path class="cls-7" d="M6.3716,131.4403h-.702v1.038h-.48v-1.038H3.2576v-.353l1.807-2.567h.605v2.507h.702Zm-2.604-.413h1.422v-1.481l.023-.636h-.011a5.6039,5.6039,0,0,1-.397.66Z"/><path class="cls-7" d="M7.0509,130.499c0-1.325.516-2.038,1.474-2.038.959,0,1.475.713,1.475,2.038s-.516,2.039-1.475,2.039c-.958,0-1.474-.714-1.474-2.039m2.453,0c0-1.043-.342-1.606-.979-1.606-.634,0-.976.563-.976,1.606,0,1.044.342,1.607.976,1.607.637,0,.979-.563.979-1.607"/><polygon class="cls-8" points="157.861 151.999 157.861 152.449 155.115 152.449 155.115 148.491 155.593 148.491 155.593 151.999 157.861 151.999"/><path class="cls-8" d="M161.31029,152.0714l-.029.378a1.08556,1.08556,0,0,1-.359.059.46945.46945,0,0,1-.539-.443,1.18687,1.18687,0,0,1-.967.443c-.563,0-1.02-.263-1.02-.803,0-.45.397-.804,1.17-.936l.797-.132v-.168a.62929.62929,0,0,0-.701-.659.87971.87971,0,0,0-.858.569l-.353-.257a1.21969,1.21969,0,0,1,1.211-.732c.683,0,1.181.324,1.181,1.02v1.475c0,.144.061.216.229.216a1.07654,1.07654,0,0,0,.238-.03m-.947-.63v-.414l-.672.126c-.527.097-.797.27-.797.552,0,.252.203.383.545.383.481,0,.924-.251.924-.647"/><path class="cls-8" d="M163.72459,152.2393a1.11753,1.11753,0,0,1-.773.27.75254.75254,0,0,1-.834-.804v-1.841h-.6v-.414h.6v-.719l.48-.133v.852h1.109v.414h-1.109v1.757a.40659.40659,0,0,0,.449.438.68659.68659,0,0,0,.51-.222Z"/><path class="cls-8" d="M166.95129,151.1301h-2.26a.94936.94936,0,0,0,.977.959.81086.81086,0,0,0,.845-.444l.403.21a1.28536,1.28536,0,0,1-1.248.654,1.3894,1.3894,0,0,1-1.451-1.559,1.36327,1.36327,0,0,1,1.416-1.559,1.29748,1.29748,0,0,1,1.341,1.403,2.38368,2.38368,0,0,1-.023.336m-2.254-.426h1.816c-.066-.552-.371-.894-.88-.894a.9034.9034,0,0,0-.936.894"/><path class="cls-8" d="M167.61909,151.8311l.391-.27a.93335.93335,0,0,0,.947.528c.492,0,.725-.197.725-.444,0-.221-.186-.353-.786-.461-.851-.157-1.164-.39-1.164-.894,0-.485.451-.899,1.182-.899a1.0834,1.0834,0,0,1,1.187.719l-.408.241a.7288.7288,0,0,0-.779-.541c-.4,0-.701.216-.701.438,0,.258.197.39.81.492.838.138,1.139.39,1.139.881,0,.522-.486.888-1.254.888a1.36874,1.36874,0,0,1-1.289-.678"/><path class="cls-8" d="M172.8848,152.2393a1.11757,1.11757,0,0,1-.773.27.75341.75341,0,0,1-.834-.804v-1.841h-.6v-.414h.6v-.719l.48-.133v.852h1.109v.414h-1.109v1.757a.40659.40659,0,0,0,.449.438.68014.68014,0,0,0,.51-.222Z"/><path class="cls-7" d="M34.9531,138.5205v3.958h-.342v-2.975c0-.162.006-.341.012-.527a2.05856,2.05856,0,0,1-1.037.623l-.09-.306a2.30094,2.30094,0,0,0,1.158-.773Z"/><path class="cls-7" d="M37.209,138.5205v3.958h-.342v-2.975c0-.162.006-.341.012-.527a2.05856,2.05856,0,0,1-1.037.623l-.09-.306a2.301,2.301,0,0,0,1.158-.773Z"/><path class="cls-7" d="M38.877,139.7374a.297.297,0,1,1-.594,0,.297.297,0,0,1,.594,0m0,2.495a.297.297,0,1,1-.299-.3.2811.2811,0,0,1,.299.3"/><path class="cls-7" d="M39.73619,140.499c0-1.319.51-2.038,1.451-2.038.942,0,1.452.719,1.452,2.038s-.51,2.039-1.452,2.039c-.941,0-1.451-.72-1.451-2.039m2.549,0c0-1.121-.385-1.732-1.098-1.732-.709,0-1.097.611-1.097,1.732,0,1.122.388,1.733,1.097,1.733.713,0,1.098-.611,1.098-1.733"/><path class="cls-7" d="M43.40219,140.499c0-1.319.51-2.038,1.451-2.038.942,0,1.452.719,1.452,2.038s-.51,2.039-1.452,2.039c-.941,0-1.451-.72-1.451-2.039m2.549,0c0-1.121-.385-1.732-1.098-1.732-.709,0-1.097.611-1.097,1.732,0,1.122.388,1.733,1.097,1.733.713,0,1.098-.611,1.098-1.733"/><path class="cls-7" d="M51.9028,139.6895c0,.726-.522,1.17-1.338,1.17h-.989v1.619h-.341v-3.958h1.33c.816,0,1.338.443,1.338,1.169m-.354,0c0-.545-.348-.852-1.025-.852h-.948v1.704h.948c.677,0,1.025-.306,1.025-.852"/><polygon class="cls-7" points="56.504 142.479 56.174 142.479 56.174 139.636 56.209 138.845 54.795 142.479 54.488 142.479 53.08 138.845 53.074 138.845 53.109 139.636 53.109 142.479 52.785 142.479 52.785 138.521 53.301 138.521 54.422 141.381 54.639 142.077 54.645 142.077 54.867 141.387 55.983 138.521 56.504 138.521 56.504 142.479"/><path class="cls-7" d="M64.1797,142.1963c1.523-1.169,2.178-1.769,2.178-2.519a.85892.85892,0,0,0-.942-.899,1.01464,1.01464,0,0,0-1.031,1.056l-.301-.174a1.2618,1.2618,0,0,1,1.344-1.199,1.17011,1.17011,0,0,1,1.283,1.216c0,.787-.617,1.457-2.033,2.489v.007c.102-.007.342-.013.438-.013h1.716v.318h-2.652Z"/><path class="cls-7" d="M68.2422,139.7374a.28448.28448,0,0,1-.301.301.28141.28141,0,0,1-.293-.301.27557.27557,0,0,1,.293-.293.27879.27879,0,0,1,.301.293m0,2.495a.28271.28271,0,0,1-.301.294.297.297,0,0,1,0-.594.28422.28422,0,0,1,.301.3"/><path class="cls-7" d="M69.0994,140.499c0-1.319.51-2.038,1.451-2.038.942,0,1.452.719,1.452,2.038s-.51,2.039-1.452,2.039c-.941,0-1.451-.72-1.451-2.039m2.549,0c0-1.121-.383-1.732-1.098-1.732-.707,0-1.097.611-1.097,1.732,0,1.122.39,1.733,1.097,1.733.715,0,1.098-.611,1.098-1.733"/><path class="cls-7" d="M72.7655,140.499c0-1.319.51-2.038,1.451-2.038.942,0,1.452.719,1.452,2.038s-.51,2.039-1.452,2.039c-.941,0-1.451-.72-1.451-2.039m2.549,0c0-1.121-.383-1.732-1.098-1.732-.707,0-1.097.611-1.097,1.732,0,1.122.39,1.733,1.097,1.733.715,0,1.098-.611,1.098-1.733"/><path class="cls-7" d="M80.6016,141.2721h-1.871l-.475,1.206h-.359l1.572-3.958h.406l1.567,3.958h-.36Zm-.127-.317-.646-1.649-.157-.455h-.011l-.145.437-.66,1.667Z"/><polygon class="cls-7" points="85.916 142.479 85.586 142.479 85.586 139.636 85.623 138.845 84.207 142.479 83.902 142.479 82.492 138.845 82.486 138.845 82.521 139.636 82.521 142.479 82.199 142.479 82.199 138.521 82.715 138.521 83.836 141.381 84.051 142.077 84.057 142.077 84.279 141.387 85.395 138.521 85.916 138.521 85.916 142.479"/><path class="cls-7" d="M96.7974,141.249a1.21981,1.21981,0,0,1-1.319,1.289,1.285,1.285,0,0,1-1.373-.923l.33-.168a.93526.93526,0,0,0,1.031.774.90019.90019,0,0,0,.977-.953.87909.87909,0,0,0-.947-.96,1.12489,1.12489,0,0,0-.983.431h-.3l.216-2.219h2.2v.319h-1.913l-.155,1.463-.006.078h.006a1.24232,1.24232,0,0,1,.995-.39,1.18472,1.18472,0,0,1,1.241,1.259"/><path class="cls-7" d="M98.2202,139.7384a.297.297,0,1,1-.594,0,.297.297,0,0,1,.594,0m0,2.494a.297.297,0,1,1-.3-.3.28137.28137,0,0,1,.3.3"/><path class="cls-7" d="M99.0784,140.5c0-1.319.51-2.039,1.451-2.039.942,0,1.452.72,1.452,2.039s-.51,2.038-1.452,2.038c-.941,0-1.451-.719-1.451-2.038m2.549,0c0-1.121-.384-1.733-1.098-1.733-.708,0-1.097.612-1.097,1.733s.389,1.732,1.097,1.732c.714,0,1.098-.611,1.098-1.732"/><path class="cls-7" d="M102.7445,140.5c0-1.319.51-2.039,1.451-2.039.942,0,1.452.72,1.452,2.039s-.51,2.038-1.452,2.038c-.941,0-1.451-.719-1.451-2.038m2.549,0c0-1.121-.384-1.733-1.098-1.733-.708,0-1.097.612-1.097,1.733s.389,1.732,1.097,1.732c.714,0,1.098-.611,1.098-1.732"/><path class="cls-7" d="M110.5796,141.2731h-1.871l-.474,1.205h-.359l1.571-3.958h.407l1.566,3.958h-.36Zm-.126-.317-.647-1.649-.156-.456h-.012l-.144.437-.66,1.668Z"/><polygon class="cls-7" points="115.895 142.479 115.565 142.479 115.565 139.637 115.601 138.845 114.186 142.479 113.88 142.479 112.471 138.845 112.465 138.845 112.5 139.637 112.5 142.479 112.177 142.479 112.177 138.521 112.693 138.521 113.814 141.382 114.03 142.078 114.036 142.078 114.258 141.388 115.374 138.521 115.895 138.521 115.895 142.479"/><path class="cls-7" d="M125.6686,139.4807a.927.927,0,0,1-.666.911v.006a1.05909,1.05909,0,0,1,.84,1.032c0,.671-.563,1.108-1.409,1.108-.84,0-1.409-.437-1.409-1.108a1.05855,1.05855,0,0,1,.845-1.032v-.006a.91694.91694,0,0,1-.666-.911c0-.624.48-1.014,1.23-1.014.749,0,1.235.39,1.235,1.014m-.179,1.919c0-.504-.42-.834-1.056-.834-.624,0-1.056.33-1.056.834,0,.498.42.821,1.056.821.642,0,1.056-.323,1.056-.821m-1.932-1.889c0,.443.349.731.876.731.533,0,.882-.288.882-.731,0-.45-.342-.726-.882-.726-.534,0-.876.276-.876.726"/><path class="cls-7" d="M127.3018,139.7384a.297.297,0,1,1-.594,0,.297.297,0,0,1,.594,0m0,2.494a.297.297,0,1,1-.3-.3.28137.28137,0,0,1,.3.3"/><path class="cls-7" d="M128.16,140.5c0-1.319.51-2.039,1.451-2.039.942,0,1.452.72,1.452,2.039s-.51,2.038-1.452,2.038c-.941,0-1.451-.719-1.451-2.038m2.549,0c0-1.121-.384-1.733-1.098-1.733-.708,0-1.097.612-1.097,1.733s.389,1.732,1.097,1.732c.714,0,1.098-.611,1.098-1.732"/><path class="cls-7" d="M131.826,140.5c0-1.319.51-2.039,1.451-2.039.942,0,1.452.72,1.452,2.039s-.51,2.038-1.452,2.038c-.941,0-1.451-.719-1.451-2.038m2.549,0c0-1.121-.384-1.733-1.098-1.733-.708,0-1.097.612-1.097,1.733s.389,1.732,1.097,1.732c.714,0,1.098-.611,1.098-1.732"/><path class="cls-7" d="M139.66019,141.2731h-1.871l-.474,1.205h-.359l1.571-3.958h.407l1.566,3.958h-.36Zm-.126-.317-.647-1.649-.156-.456h-.012l-.144.437-.66,1.668Z"/><polygon class="cls-7" points="144.976 142.479 144.646 142.479 144.646 139.637 144.682 138.845 143.267 142.479 142.961 142.479 141.552 138.845 141.546 138.845 141.581 139.637 141.581 142.479 141.258 142.479 141.258 138.521 141.774 138.521 142.895 141.382 143.111 142.078 143.117 142.078 143.339 141.388 144.455 138.521 144.976 138.521 144.976 142.479"/><path class="cls-2" d="M15,80.99895H13a.5.5,0,0,1,0-1h2a.5.5,0,1,1,0,1Z"/><path class="cls-2" d="M15.0005,56.00384h-2.001a.5.5,0,0,1,0-1h2.001a.5.5,0,1,1,0,1Z"/><path class="cls-2" d="M15,105.99993H13a.5.5,0,0,1,0-1h2a.5.5,0,1,1,0,1Z"/><path class="cls-2" d="M75,132.99993a.49972.49972,0,0,1-.5-.5v-2a.5.5,0,0,1,1,0v2A.49971.49971,0,0,1,75,132.99993Z"/><path class="cls-2" d="M45,132.99993a.49972.49972,0,0,1-.5-.5v-2a.5.5,0,0,1,1,0v2A.49971.49971,0,0,1,45,132.99993Z"/><path class="cls-2" d="M134,132.99993a.49972.49972,0,0,1-.5-.5v-2a.5.5,0,0,1,1,0v2A.49971.49971,0,0,1,134,132.99993Z"/><path class="cls-2" d="M105,132.99993a.49972.49972,0,0,1-.5-.5v-2a.5.5,0,0,1,1,0v2A.49971.49971,0,0,1,105,132.99993Z"/><path class="cls-7" d="M153.9287,138.5215v3.957h-.342v-2.975c0-.16.006-.341.012-.527a2.069,2.069,0,0,1-1.037.625l-.09-.307a2.301,2.301,0,0,0,1.158-.773Z"/><path class="cls-7" d="M156.1846,138.5215v3.957h-.342v-2.975c0-.16.006-.341.012-.527a2.06912,2.06912,0,0,1-1.037.625l-.09-.307a2.301,2.301,0,0,0,1.158-.773Z"/><path class="cls-7" d="M157.85249,139.7384a.297.297,0,1,1-.594,0,.297.297,0,0,1,.594,0m0,2.494a.297.297,0,1,1-.299-.299.28083.28083,0,0,1,.299.299"/><path class="cls-7" d="M158.71169,140.5c0-1.318.51-2.039,1.451-2.039.942,0,1.452.721,1.452,2.039,0,1.32-.51,2.039-1.452,2.039-.941,0-1.451-.719-1.451-2.039m2.549,0c0-1.121-.385-1.732-1.098-1.732-.709,0-1.097.611-1.097,1.732s.388,1.732,1.097,1.732c.713,0,1.098-.611,1.098-1.732"/><path class="cls-7" d="M162.37779,140.5c0-1.318.51-2.039,1.451-2.039.942,0,1.452.721,1.452,2.039,0,1.32-.51,2.039-1.452,2.039-.941,0-1.451-.719-1.451-2.039m2.549,0c0-1.121-.385-1.732-1.098-1.732-.709,0-1.097.611-1.097,1.732s.388,1.732,1.097,1.732c.713,0,1.098-.611,1.098-1.732"/><path class="cls-7" d="M170.212,141.273h-1.871l-.475,1.205h-.359l1.572-3.957h.406l1.567,3.957h-.36Zm-.127-.316-.646-1.65-.157-.455h-.011l-.145.437-.66,1.668Z"/><polygon class="cls-7" points="175.528 142.479 175.198 142.479 175.198 139.637 175.233 138.846 173.819 142.479 173.512 142.479 172.104 138.846 172.098 138.846 172.133 139.637 172.133 142.479 171.809 142.479 171.809 138.522 172.325 138.522 173.446 141.383 173.663 142.079 173.669 142.079 173.891 141.389 175.007 138.522 175.528 138.522 175.528 142.479"/></g><rect class="cls-1" width="180.5" height="161.5"/></g></g></svg>