<svg xmlns="http://www.w3.org/2000/svg" xmlns:xlink="http://www.w3.org/1999/xlink" viewBox="0 0 1194.678 694.441"><defs><style>.cls-1,.cls-27,.cls-37,.cls-38,.cls-39,.cls-41,.cls-48,.cls-7{fill:none;}.cls-13,.cls-14,.cls-15,.cls-17,.cls-18,.cls-19,.cls-2,.cls-20,.cls-21,.cls-28,.cls-29,.cls-3,.cls-30,.cls-31,.cls-32,.cls-35,.cls-40,.cls-41,.cls-42,.cls-43,.cls-44,.cls-6,.cls-7,.cls-8,.cls-9{stroke:#003437;}.cls-13,.cls-14,.cls-15,.cls-17,.cls-18,.cls-19,.cls-2,.cls-20,.cls-21,.cls-22,.cls-23,.cls-24,.cls-25,.cls-26,.cls-27,.cls-28,.cls-29,.cls-3,.cls-30,.cls-31,.cls-32,.cls-33,.cls-34,.cls-35,.cls-37,.cls-38,.cls-39,.cls-40,.cls-41,.cls-42,.cls-43,.cls-44,.cls-48,.cls-6,.cls-7,.cls-8,.cls-9{stroke-linecap:round;stroke-linejoin:round;}.cls-13,.cls-14,.cls-15,.cls-17,.cls-18,.cls-19,.cls-2,.cls-20,.cls-21,.cls-22,.cls-23,.cls-24,.cls-25,.cls-26,.cls-27,.cls-28,.cls-29,.cls-3,.cls-30,.cls-31,.cls-32,.cls-33,.cls-34,.cls-35,.cls-37,.cls-38,.cls-39,.cls-40,.cls-41,.cls-42,.cls-43,.cls-44,.cls-48,.cls-5,.cls-6,.cls-7,.cls-8,.cls-9{stroke-width:0.5px;}.cls-10,.cls-2{fill:url(#New_Gradient_Swatch_1);}.cls-11,.cls-3{fill:url(#New_Gradient_Swatch_1-2);}.cls-3{clip-path:url(#clip-path);}.cls-4{clip-path:url(#clip-path-2);}.cls-18,.cls-5{fill:#caecf9;}.cls-22,.cls-23,.cls-24,.cls-25,.cls-26,.cls-27,.cls-33,.cls-34,.cls-5{stroke:#053437;}.cls-5{stroke-miterlimit:10;}.cls-15,.cls-16,.cls-25,.cls-6{fill:#fff;}.cls-40,.cls-8{fill:#33d67b;}.cls-33,.cls-9{fill:#053437;}.cls-12{clip-path:url(#clip-path-3);}.cls-13{fill:url(#New_Gradient_Swatch_1-5);}.cls-14{fill:#f6e55a;}.cls-15,.cls-17,.cls-18,.cls-22,.cls-23,.cls-27,.cls-28,.cls-31,.cls-32,.cls-33,.cls-34,.cls-40,.cls-41,.cls-45,.cls-46{fill-rule:evenodd;}.cls-17,.cls-42{fill:#f0403d;}.cls-19,.cls-32{fill:#f7ce05;}.cls-20,.cls-22{fill:#aaa;}.cls-21,.cls-23,.cls-24{fill:#ddd;}.cls-26,.cls-35{fill:#003437;}.cls-28,.cls-29,.cls-34{fill:#d6f7e5;}.cls-30,.cls-31,.cls-45{fill:#553bf2;}.cls-36{clip-path:url(#clip-path-4);}.cls-37,.cls-38,.cls-39{stroke:#95daf4;}.cls-37{stroke-dasharray:4 4;}.cls-39{stroke-dasharray:3.969 3.969;}.cls-43{fill:#2bb5e9;}.cls-44{fill:#95daf4;}.cls-46{fill:#edeafd;}.cls-47{fill:#bfcacf;}.cls-48{stroke:#fff;}</style><linearGradient id="New_Gradient_Swatch_1" x1="529.463" y1="191.615" x2="537.53" y2="191.615" gradientUnits="userSpaceOnUse"><stop offset="0" stop-color="#2bb5e9"/><stop offset="1" stop-color="#72e382"/></linearGradient><linearGradient id="New_Gradient_Swatch_1-2" x1="534.615" y1="188.982" x2="544.314" y2="188.982" xlink:href="#New_Gradient_Swatch_1"/><clipPath id="clip-path"><path id="SVGID" class="cls-2" d="M537.53,199.49c-2.363.663-6.308-4.312-5.28-8.216a.09.09,0,0,0-.064-.1c-4.771-.622-2.293-6.777.052-7.435,1.02-.288,2.016.469,2.377,3.177"/></clipPath><clipPath id="clip-path-2" transform="translate(191.439 252.801)"><rect class="cls-1" width="960" height="290"/></clipPath><clipPath id="clip-path-3" transform="translate(191.439 252.801)"><path id="SVGID-2" data-name="SVGID" class="cls-3" d="M534.615,186.915c.007.059.119,0,.178,0,3.045.055,9.048-4.255,9.521,5.075"/></clipPath><linearGradient id="New_Gradient_Swatch_1-5" x1="715.282" y1="443.846" x2="741.415" y2="443.846" xlink:href="#New_Gradient_Swatch_1"/><clipPath id="clip-path-4" transform="translate(191.439 252.801)"><path id="SVGID-3" data-name="SVGID" class="cls-1" d="M697.891,50.675c11.546.722,23.81,27.262,22.775,39s-6.589,31.309,1.693,44.768c6.655,10.814,11.012,29.425-.03,33.221-7.128,2.45-15.023-2.527-18.818,4.375s-6.909,9.843-27.269,7.082-16.658-14.809-20.539-30.809c-6.881-28.367,11.091-32.435,10.746-44.168s-24.807-22.751-21.011-34.484S681.327,49.64,697.891,50.675Z"/></clipPath></defs><g id="Layer_2" data-name="Layer 2"><g id="Layer_2-2" data-name="Layer 2"><g class="cls-4"><path class="cls-5" d="M1002.989,227v62.637h-30c-49.19,0-109.747-4.762-173.859-9.8-100.673-7.916-214.778-16.887-305.557-8.5-152.854,14.127-277.154,8.107-397.362,2.283-86.394-4.185-168-8.138-254.719-4.238l-29.969,1.348-2.7-43.729Z" transform="translate(191.439 252.801)"/><path class="cls-6" d="M675.644,216.556s-6.317,9.272-37.213,25.714c-29.332,15.609-75.214,17.922-101.145,16.221-30.968-2.031-52.242-5.632-74.428-15.267-13.355-5.8-26.646-10.9-37.214-19.668,0,0,19.722.376,41.985.584,17.775.167,34.116-1.139,62.023-1.908,15.067-.415,51.947.587,89.695-1.909C643.928,218.7,675.644,216.556,675.644,216.556Z" transform="translate(191.439 252.801)"/><path class="cls-7" d="M425.644,223.556s37.195,9.688,52.481,12.034a501.72,501.72,0,0,0,66.794,5.726c16.606.517,53.676-2.373,78.245-8.588,23.223-5.875,52.48-16.172,52.48-16.172" transform="translate(191.439 252.801)"/><path class="cls-8" d="M549.336,213.479c.667,3.565,5.906,11.051,13.362,10.006,10.142-1.422,12.553-11.079,12.9-13.581.127-.915-.249-1.211-.7-1.286-.521-.087-1.106.345-1.415,1.109-.34.839-4.1,10.308-11.349,9.778s-9.3-12.535-13.111-14.748a12.165,12.165,0,0,0-3.239-1.141,14.176,14.176,0,0,0-2.58-.036c-4.348.2-9.862,1.561-10.01,3.5a38.5,38.5,0,0,0,.778,10.381c.345,1.716.781,3.417,1.283,5.069,1.438,4.732,1.189,9.977,1.26,13.85.053,2.831,15.666,2.453,15.822.35.4-5.389.514-14.787.511-17.725" transform="translate(191.439 252.801)"/><path class="cls-9" d="M574.026,208.971c-.62-.5-1.693-1.23-1.119-1.971.108-.139.588.074.888-.271.561-.645,1.082-1.921,1.5-1.817.95.237.451,4.36.265,4.4A2.388,2.388,0,0,1,574.026,208.971Z" transform="translate(191.439 252.801)"/><path class="cls-6" d="M566.565,214.638c.135-.777.258-2.065,1.187-1.92.176.027.222.548.671.645.839.179,2.213.02,2.325.435.254.942-3.611,2.485-3.734,2.341a2.379,2.379,0,0,1-.449-1.5" transform="translate(191.439 252.801)"/><path class="cls-8" d="M532.708,207.155c3.35-4.393,4.988,11.032,12.134,12.554,3.4.723,17.369-2.9,20.767-4.853.481-.276.986-.492,1.446-.184l.023.016c.455.305.8,1.056.352,1.371-4.625,3.263-15.982,8.369-23.783,7.543a13.485,13.485,0,0,1-11.414-9.156C531.353,211.811,531.184,209.153,532.708,207.155Z" transform="translate(191.439 252.801)"/><path id="SVGID-4" data-name="SVGID" class="cls-10" d="M537.53,199.49c-2.363.663-6.308-4.312-5.28-8.216a.09.09,0,0,0-.064-.1c-4.771-.622-2.293-6.777.052-7.435,1.02-.288,2.016.469,2.377,3.177" transform="translate(191.439 252.801)"/><path id="SVGID-5" data-name="SVGID" class="cls-11" d="M534.615,186.915c.007.059.119,0,.178,0,3.045.055,9.048-4.255,9.521,5.075" transform="translate(191.439 252.801)"/><g class="cls-12"><polygon class="cls-13" points="715.282 452.191 718.954 428.465 741.415 435.501 737.743 459.227 715.282 452.191"/></g><path id="SVGID-6" data-name="SVGID" class="cls-7" d="M537.53,199.49c-2.363.663-6.308-4.312-5.28-8.216a.09.09,0,0,0-.064-.1c-4.771-.622-2.293-6.777.052-7.435,1.02-.288,2.016.469,2.377,3.177" transform="translate(191.439 252.801)"/><path id="SVGID-7" data-name="SVGID" class="cls-7" d="M534.615,186.915c.007.059.119,0,.178,0,3.045.055,9.048-4.255,9.521,5.075" transform="translate(191.439 252.801)"/><path class="cls-14" d="M537.529,199.491c-2.362.663-6.306-4.313-5.279-8.218a.091.091,0,0,0-.064-.1c-6.849-.892,1.239-13.186,2.429-4.259.007.059.119,0,.179,0,3.045.054,9.046-4.255,9.52,5.075" transform="translate(191.439 252.801)"/><path class="cls-9" d="M544.984,194.656c1.843,5.729-.034,7.009-2.32,7.65-.287.081.3,1.807.3,1.807a9.144,9.144,0,0,1-1.95.925,14.034,14.034,0,0,1-2.789.079,48.988,48.988,0,0,0-.862-6.427c-.129-.458-.47-.029-.927-.651a4.1,4.1,0,0,1-.738-2.213c.028-.49.513-.94.889-.854.8.181,1.307,1.03,1.272.608-.164-2.012-.7-2.233-.057-3.19.978-1.446,3.051-.721,5.062-2.25,1.458-1.108.981.974,2.122,4.516" transform="translate(191.439 252.801)"/><path class="cls-7" d="M534.615,186.915a4.68,4.68,0,0,1-2.429,4.258" transform="translate(191.439 252.801)"/><path class="cls-15" d="M595.94,229.456c-1.524,2.511-2.986,3.352-3.94,3.356s2.155-6.688,1.2-6.684-5.972,6.7-6.926,6.707,2.155-6.688,1.2-6.684-5.972,6.7-6.926,6.708-.893-1.666.123-3.34,2.986-3.352,3.94-3.356-2.155,6.688-1.2,6.684,5.972-6.7,6.926-6.708-2.155,6.689-1.2,6.685,5.972-6.7,6.926-6.708S596.956,227.782,595.94,229.456Z" transform="translate(191.439 252.801)"/><polygon class="cls-16" points="751.097 493.026 743.828 487.257 735.067 487.438 727.097 487.026 727.097 493.333 751.097 493.026"/><path class="cls-7" d="M552.779,225.3c9.808.593,16.949,2.414,16.949,4.568,0,2.635-10.68,4.771-23.854,4.771s-23.855-2.136-23.855-4.771c0-1.927,5.711-3.587,13.932-4.34" transform="translate(191.439 252.801)"/><path class="cls-6" d="M606.988,169.291a1.017,1.017,0,0,0-1.567-1.251" transform="translate(191.439 252.801)"/><path class="cls-6" d="M533.647,257.915l71.774-89.875s4.227-14.29,6.625-18.516c1.287-2.27,4.477-5.869,10.372-1.162s3.09,8.615,1.162,10.373c-3.591,3.273-16.592,10.556-16.592,10.556l-71.774,89.875" transform="translate(191.439 252.801)"/><path class="cls-6" d="M533.647,257.915a1.017,1.017,0,0,0,1.567,1.251" transform="translate(191.439 252.801)"/><path class="cls-6" d="M535.214,259.166s-4.227,14.29-6.625,18.516c-1.287,2.27-4.478,5.869-10.372,1.162s-3.09-8.615-1.162-10.373c3.591-3.273,16.592-10.556,16.592-10.556" transform="translate(191.439 252.801)"/><path class="cls-9" d="M566.565,214.638c.135-.777.258-2.065,1.187-1.92.176.027.222.548.671.645.839.179,2.213.02,2.325.435.254.942-3.611,2.485-3.734,2.341a2.379,2.379,0,0,1-.449-1.5" transform="translate(191.439 252.801)"/><path class="cls-17" d="M185.337,209.561c1.434,4.19,4.816,19.783,7.056,21.469,2.59,1.948,14.584,4.977,16.3,5.466,1.094.311.785,1.277.575,1.838a1.3,1.3,0,0,1-1.478.983c-.842-.141-15.845-2.866-19.144-5.112-3.254-2.216-7.651-19.373-7.932-22.322" transform="translate(191.439 252.801)"/><g id="Stroke-63"><path class="cls-18" d="M209.345,237.2c.816-.372,2.108-1.08,2.563-.12.086.182-.373.557-.178,1.037.366.9,1.393,2.079,1.075,2.448-.724.84-4.642-1.78-4.584-1.987A2.691,2.691,0,0,1,209.345,237.2Z" transform="translate(191.439 252.801)"/></g><path class="cls-17" d="M187.887,212.257c.106,4.673-.725,30.577-.725,30.577-2.021,2.615-4.832,3-7.8,3.353s-8.8,1.444-9.157-3.787a42.476,42.476,0,0,1,.225-12.435c1.725-8.766,4.36-19.017,5.921-21.53,1.643-2.646,4.095-3.23,7.931-3.131C187.13,205.377,187.817,209.191,187.887,212.257Z" transform="translate(191.439 252.801)"/><path class="cls-19" d="M177.521,223.612C178.343,223.437,176,207.6,176,207.6a5.568,5.568,0,0,1,2.128-1.905,2.349,2.349,0,0,1,3.058.837c2.356,4.267-.572,17.164-.572,17.164.635.071,4.562-.188,5.267-.752,0,0,1.184-12.894.1-16.148l-1.707-1.491c2.852.073,3.539,3.887,3.609,6.953.106,4.673-.91,22.933-.725,30.577.131,5.413,1.522,18.887,2.023,21.562a13.821,13.821,0,0,1-4.182,1,23.142,23.142,0,0,1-4.425-.358s-.766-3.512-1.3-5.582c-.373-1.444-1.436-5.882-1.436-5.882s-.747,3.907-1.029,6.081c-.178,1.379-.656,5.394-.656,5.394a16.253,16.253,0,0,1-4.592.682,15.931,15.931,0,0,1-4.031-.8s.149-4.836.474-10.3c.261-4.406.409-9.27.739-12.154.618-5.4.895-11.4,2.7-19.245C171.445,223.232,175.582,224.022,177.521,223.612Z" transform="translate(191.439 252.801)"/><path class="cls-20" d="M183.888,194.5a15.2,15.2,0,0,0-2.145,1.151c-.9.464.49,2.506.189,3.134-.486,1.015,1.081,2.387.924,3.29s5.3-.828,5.3-.828" transform="translate(191.439 252.801)"/><path class="cls-15" d="M183.227,197.679a1.9,1.9,0,0,0,.471,2.193s-.981,2.664-2.065,5.224c-.542,1.281.78,2.633,2.187,3.215a1.848,1.848,0,0,0,1.96-.2c.272-.359.5-1.644,1.156-2.787,0,0,2.529.761,3.974-1.135,1.079-1.416,1.408-3.549,1.68-5.137.211-1.235.641-3.272-.051-4.192s-4.276-1.3-5.212-.8-.861,1.819-1.747,2.308c-.943.521-.94.128-1.249.175A1.426,1.426,0,0,0,183.227,197.679Z" transform="translate(191.439 252.801)"/><path class="cls-21" d="M190.956,195.285s-1.395,1.948-2.823,1.474-2.405,1.244-3.294.712-.724-1.484-1.734-.451-1.355-.462-2.174-.528-.518-2.459.757-2.842,1.917-2.26,2.557-2.9,2.222.036,2.986-.889,2.863,1.255,3.624.783,1.524,2.1,2.6,2.436.8,3.234,1.458,3.348.629,1.166.183,2-1.523.944-2.014,1.161S190.956,195.285,190.956,195.285Z" transform="translate(191.439 252.801)"/><path class="cls-22" d="M204.537,239.057l-2.348.338c-.389.056-.591.89-.451,1.862s.569,1.716.958,1.66l2.348-.338" transform="translate(191.439 252.801)"/><path class="cls-23" d="M204.016,237.934l.676,4.7c.149,1.037,2.372,1.575,4.965,1.2s4.575-1.516,4.426-2.553l-.676-4.7" transform="translate(191.439 252.801)"/><ellipse class="cls-24" cx="208.712" cy="237.259" rx="4.744" ry="1.898" transform="translate(159.778 284.942) rotate(-8.187)"/><ellipse class="cls-25" cx="208.712" cy="237.259" rx="2.372" ry="0.949" transform="translate(159.778 284.942) rotate(-8.187)"/><path class="cls-22" d="M215.924,237.419l-2.348.338c-.389.056-.591.89-.451,1.862s.569,1.716.958,1.66l2.347-.338" transform="translate(191.439 252.801)"/><ellipse class="cls-26" cx="216.177" cy="239.18" rx="0.712" ry="1.779" transform="translate(159.581 286.025) rotate(-8.187)"/><g id="Stroke-63-2" data-name="Stroke-63"><path id="path-5" class="cls-18" d="M202.7,241.3c.8-.492,2.04-1.395,2.638-.46.113.176-.314.625-.048,1.1.5.882,1.714,1.969,1.434,2.394-.638.964-5.038-1.234-5.006-1.456A2.817,2.817,0,0,1,202.7,241.3Z" transform="translate(191.439 252.801)"/><path class="cls-15" d="M202.7,241.3c.8-.492,2.04-1.395,2.638-.46.113.176-.314.625-.048,1.1.5.882,1.714,1.969,1.434,2.394-.638.964-5.038-1.234-5.006-1.456A2.817,2.817,0,0,1,202.7,241.3Z" transform="translate(191.439 252.801)"/></g><path class="cls-27" d="M208.892,241.294c2.811,2.031,1.2,20.154,4.467,23.417" transform="translate(191.439 252.801)"/><path class="cls-17" d="M177.878,207.125c-2.479-.131-3.375,2.34-3.666,5.42-.21,2.237.564,20.59,3.562,23.2,3.563,3.1,21.929,7.315,23.323,7.556a1.779,1.779,0,0,0,1.6-1.139,1.293,1.293,0,0,0-.726-1.675c-.9-.321-18.946-6.2-20.21-8.2s-.922-17.356-1.069-19.736C180.476,208.968,179.877,207.23,177.878,207.125Z" transform="translate(191.439 252.801)"/><path class="cls-15" d="M739.446,284.479c-.045,2.355,4.613,1.348,6.068.923,1.432-.419,4.482-.635,4.508-2.435.041-2.73-4.01-1-5.784-.6S739.476,282.916,739.446,284.479Z" transform="translate(191.439 252.801)"/><path class="cls-15" d="M715.884,283.352c.285-2.16,4.6.267,5.984,1.016,1.237.668,4.955.808,4.792,2.668-.247,2.824-4.473.921-6.263.313S715.677,284.919,715.884,283.352Z" transform="translate(191.439 252.801)"/><g id="Stroke-49"><path class="cls-28" d="M743.861,275.806a47.821,47.821,0,0,0,2.311,6.21,1.735,1.735,0,0,0,2.111.717,1.309,1.309,0,0,0,.884-1.621c-.147-.737-1.572-4.913-1.572-4.913" transform="translate(191.439 252.801)"/><path class="cls-29" d="M723.962,279.523c-.192.912-.447,4.863-.5,5.617-.033.442-.224,1.566,1.022,1.67a1.481,1.481,0,0,0,1.66-1c.26-.844.969-7.647.969-7.647" transform="translate(191.439 252.801)"/></g><g id="dogwalker"><path id="Stroke-267" class="cls-30" d="M732.408,236.97c.5.8-.486,9.286.93,17.939.769,4.7,10.051,22.044,12.322,26.555a5.532,5.532,0,0,0,1.72-.292,15.453,15.453,0,0,0,1.968-1c-4.132-15.028-5.111-17.342-7.312-24.426-1.262-4.064-.569-9.164.821-18.861,1-6.959.725-8.349.725-8.349" transform="translate(191.439 252.801)"/><path class="cls-31" d="M744.678,228.876c.022,8.743-10.366,24-11.9,29.444-1.261,4.485-1.941,8-2.548,10.677s-2.963,14.468-3.357,15.511a6.86,6.86,0,0,1-2.366-.083,3.544,3.544,0,0,1-1.461-.832c.111-1.977,1.089-23.639,2.15-27.976s4.5-21.6,4.492-24.41" transform="translate(191.439 252.801)"/></g><path class="cls-32" d="M728.7,199.641c-1.435,4.191-4.816,19.783-7.056,21.469-2.59,1.948-14.584,4.977-16.3,5.466-1.1.312-.786,1.277-.575,1.838a1.3,1.3,0,0,0,1.477.983c.843-.14,15.846-2.866,19.145-5.112,3.254-2.216,7.651-19.373,7.932-22.321" transform="translate(191.439 252.801)"/><g id="Stroke-63-3" data-name="Stroke-63"><path class="cls-28" d="M704.7,227.28c-.816-.372-2.108-1.08-2.564-.12-.085.182.374.557.179,1.037-.366.9-1.393,2.079-1.075,2.449.723.839,4.641-1.781,4.584-1.988A2.7,2.7,0,0,0,704.7,227.28Z" transform="translate(191.439 252.801)"/></g><path class="cls-32" d="M726.154,202.337c-.106,4.673.725,30.577.725,30.577,2.021,2.615,4.831,3,7.8,3.353s10.968,1.5,11.324-3.734-6.248-29.622-8.795-33.722c-1.643-2.647-3.184-3.536-7.02-3.438C727.339,195.447,726.224,199.272,726.154,202.337Z" transform="translate(191.439 252.801)"/><path class="cls-6" d="M698.135,201.078c2.826.9,4.57-1.985,5.1-3.638l9.3-29.168-1.429-.455-9.3,29.168c-.043.131-1.082,3.256-3.187,2.585-1.536-.49-1.438-2.3-1.257-3.295a.756.756,0,0,0-.5-.868l0,0a.784.784,0,0,0-.985.647C695.557,197.812,695.754,200.319,698.135,201.078Z" transform="translate(191.439 252.801)"/><path class="cls-17" d="M739.6,179.626c-3.038-10.592-8.756-22.842-23.315-27.484s-26.313,2.034-34.922,8.913c0,0,4.8-2.479,8.44-1.319s6.119,5.962,6.119,5.962,4.8-2.479,8.44-1.319,6.119,5.962,6.119,5.962,4.8-2.48,8.441-1.319,6.118,5.961,6.118,5.961,4.8-2.479,8.441-1.318S739.6,179.626,739.6,179.626Z" transform="translate(191.439 252.801)"/><line class="cls-7" x1="908.835" y1="401.449" x2="907.721" y2="404.943"/><path class="cls-32" d="M735.224,202.36c-1.739,5.943-12.753,14.492-18.326,13.992-5.5-.494-12.372-14.521-13.244-17.211-.546-1.684-.146-1.862.468-2.092a1.815,1.815,0,0,1,2.192.959c.691,1.074,7.74,12.57,10.814,13.432,2.515.705,11.308-9.25,12.547-11.144,1.17-1.788,2.844-2.622,4.378-1.931S735.625,200.99,735.224,202.36Z" transform="translate(191.439 252.801)"/><g id="Stroke-63-4" data-name="Stroke-63"><path class="cls-28" d="M704.878,196.447c.093-.893.352-2.343-.7-2.469-.2-.023-.408.532-.926.5-.968-.06-2.414-.656-2.663-.237-.565.953,3.168,3.831,3.346,3.71A2.693,2.693,0,0,0,704.878,196.447Z" transform="translate(191.439 252.801)"/></g><path class="cls-33" d="M724.908,191.872c-1.134.49-3.364-1.014-3.364-1.014.36-.726-1.6-3.209-1.46-4.991.119-1.512-.256-3.1.173-3.666.878-1.149,2.092-1.114,3-1.958,1.017-.944,2.391-.41,3.607-.577a5.222,5.222,0,0,1,4.772,2.494,4.263,4.263,0,0,1,.719,2.536c-.188,1.369-.221,2.56-.234,2.8-.082,1.419-1.47,1.538-2.125,5.209C729.659,194.587,725.686,191.536,724.908,191.872Z" transform="translate(191.439 252.801)"/><path class="cls-34" d="M730.588,187.908a1.9,1.9,0,0,1-.627,2.153s.785,2.727,1.682,5.359c.448,1.316-.968,2.569-2.413,3.049a1.847,1.847,0,0,1-1.94-.336c-.246-.379-.38-1.676-.952-2.863,0,0-2.849.638-4.154-1.357-.974-1.49-.877-3.7-1.034-5.307-.122-1.247-.4-3.31.354-4.177.356-.409,1.118.268,2.156.185,1.167-.094,2.624-.905,3.1-.605.9.566.728,1.876,1.576,2.428.9.588.928.2,1.234.265A1.426,1.426,0,0,1,730.588,187.908Z" transform="translate(191.439 252.801)"/><path class="cls-35" d="M724.079,190.888c1.126-.221,2.99.3,2.818.869-.264.878-2.024.034-2.47.086s-1.343,1.4-1.753,1.037C722.179,192.448,723.1,191.079,724.079,190.888Z" transform="translate(191.439 252.801)"/><path class="cls-9" d="M728.905,188.266c.208.974.829,4.423-.5,6.014a4.2,4.2,0,0,1-3.09,1.829,3.414,3.414,0,0,1-3.527-2.967,3.965,3.965,0,0,0,3.179,1.293,3.253,3.253,0,0,0,3.059-2.377c.165-1.128.186-3.013.351-3.585S728.8,187.776,728.905,188.266Z" transform="translate(191.439 252.801)"/><g class="cls-36"><path class="cls-1" d="M702.309,24.293c16.255,1.016,33.521,38.379,32.063,54.9s11.086,48.582,22.745,67.528c9.369,15.225-4.858,36.922-20.4,42.266-10.034,3.449-23.094-6.561-28.438,3.155s-1.576,20.433-30.239,16.546-44.175-18.555-49.64-41.08c-9.687-39.935,15.615-45.663,15.129-62.181s-20.4-37.893-15.06-54.411S678.99,22.836,702.309,24.293Z" transform="translate(191.439 252.801)"/><line class="cls-37" x1="878.267" y1="0.25" x2="1132.267" y2="440.191"/><line class="cls-38" x1="874.803" y1="2.25" x2="875.803" y2="3.982"/><line class="cls-39" x1="877.787" y1="7.419" x2="1126.811" y2="438.74"/><line class="cls-38" x1="1127.803" y1="440.459" x2="1128.803" y2="442.191"/><line class="cls-37" x1="871.339" y1="4.25" x2="1125.339" y2="444.191"/><line class="cls-38" x1="867.875" y1="6.25" x2="868.875" y2="7.982"/><line class="cls-39" x1="870.859" y1="11.419" x2="1119.882" y2="442.74"/><line class="cls-38" x1="1120.875" y1="444.459" x2="1121.875" y2="446.191"/><line class="cls-37" x1="864.411" y1="8.25" x2="1118.411" y2="448.191"/><line class="cls-38" x1="860.946" y1="10.25" x2="861.946" y2="11.982"/><line class="cls-39" x1="863.931" y1="15.419" x2="1112.954" y2="446.74"/><line class="cls-38" x1="1113.946" y1="448.459" x2="1114.946" y2="450.191"/><line class="cls-37" x1="857.482" y1="12.25" x2="1111.482" y2="452.191"/><line class="cls-38" x1="854.018" y1="14.25" x2="855.018" y2="15.982"/><line class="cls-39" x1="857.002" y1="19.419" x2="1106.026" y2="450.74"/><line class="cls-38" x1="1107.018" y1="452.459" x2="1108.018" y2="454.191"/><line class="cls-37" x1="850.554" y1="16.25" x2="1104.554" y2="456.191"/><line class="cls-38" x1="847.09" y1="18.25" x2="848.09" y2="19.982"/><line class="cls-39" x1="850.074" y1="23.419" x2="1099.098" y2="454.74"/><line class="cls-38" x1="1100.09" y1="456.459" x2="1101.09" y2="458.191"/><line class="cls-37" x1="843.626" y1="20.25" x2="1097.626" y2="460.191"/><line class="cls-38" x1="840.162" y1="22.25" x2="841.162" y2="23.982"/><line class="cls-39" x1="843.146" y1="27.419" x2="1092.17" y2="458.74"/><line class="cls-38" x1="1093.162" y1="460.459" x2="1094.162" y2="462.191"/><line class="cls-37" x1="836.698" y1="24.25" x2="1090.698" y2="464.191"/><line class="cls-38" x1="833.234" y1="26.25" x2="834.234" y2="27.982"/><line class="cls-39" x1="836.218" y1="31.419" x2="1085.241" y2="462.74"/><line class="cls-38" x1="1086.234" y1="464.459" x2="1087.234" y2="466.191"/><line class="cls-37" x1="829.769" y1="28.25" x2="1083.769" y2="468.191"/><line class="cls-38" x1="826.305" y1="30.25" x2="827.305" y2="31.982"/><line class="cls-39" x1="829.29" y1="35.419" x2="1078.313" y2="466.74"/><line class="cls-38" x1="1079.305" y1="468.459" x2="1080.305" y2="470.191"/><line class="cls-37" x1="822.841" y1="32.25" x2="1076.841" y2="472.191"/><line class="cls-38" x1="819.377" y1="34.25" x2="820.377" y2="35.982"/><line class="cls-39" x1="822.361" y1="39.419" x2="1071.385" y2="470.74"/><line class="cls-38" x1="1072.377" y1="472.459" x2="1073.377" y2="474.191"/><line class="cls-37" x1="815.913" y1="36.25" x2="1069.913" y2="476.191"/><line class="cls-38" x1="812.449" y1="38.25" x2="813.449" y2="39.982"/><line class="cls-39" x1="815.433" y1="43.419" x2="1064.457" y2="474.74"/><line class="cls-38" x1="1065.449" y1="476.459" x2="1066.449" y2="478.191"/><line class="cls-37" x1="808.985" y1="40.25" x2="1062.985" y2="480.191"/><line class="cls-38" x1="805.521" y1="42.25" x2="806.521" y2="43.982"/><line class="cls-39" x1="808.505" y1="47.419" x2="1057.529" y2="478.74"/><line class="cls-38" x1="1058.521" y1="480.459" x2="1059.521" y2="482.191"/><line class="cls-37" x1="802.057" y1="44.25" x2="1056.057" y2="484.191"/><line class="cls-38" x1="798.593" y1="46.25" x2="799.593" y2="47.982"/><line class="cls-39" x1="801.577" y1="51.419" x2="1050.6" y2="482.74"/><line class="cls-38" x1="1051.593" y1="484.459" x2="1052.593" y2="486.191"/><line class="cls-37" x1="795.128" y1="48.25" x2="1049.128" y2="488.191"/><line class="cls-38" x1="791.664" y1="50.25" x2="792.664" y2="51.982"/><line class="cls-39" x1="794.649" y1="55.419" x2="1043.672" y2="486.74"/><line class="cls-38" x1="1044.664" y1="488.459" x2="1045.664" y2="490.191"/><line class="cls-37" x1="788.2" y1="52.25" x2="1042.2" y2="492.191"/><line class="cls-38" x1="784.736" y1="54.25" x2="785.736" y2="55.982"/><line class="cls-39" x1="787.72" y1="59.419" x2="1036.744" y2="490.74"/><line class="cls-38" x1="1037.736" y1="492.459" x2="1038.736" y2="494.191"/><line class="cls-37" x1="781.272" y1="56.25" x2="1035.272" y2="496.191"/><line class="cls-38" x1="777.808" y1="58.25" x2="778.808" y2="59.982"/><line class="cls-39" x1="780.792" y1="63.419" x2="1029.816" y2="494.74"/><line class="cls-38" x1="1030.808" y1="496.459" x2="1031.808" y2="498.191"/><line class="cls-37" x1="774.344" y1="60.25" x2="1028.344" y2="500.191"/><line class="cls-38" x1="770.88" y1="62.25" x2="771.88" y2="63.982"/><line class="cls-39" x1="773.864" y1="67.419" x2="1022.888" y2="498.74"/><line class="cls-38" x1="1023.88" y1="500.459" x2="1024.88" y2="502.191"/><line class="cls-37" x1="767.416" y1="64.25" x2="1021.416" y2="504.191"/><line class="cls-38" x1="763.952" y1="66.25" x2="764.952" y2="67.982"/><line class="cls-39" x1="766.936" y1="71.419" x2="1015.959" y2="502.74"/><line class="cls-38" x1="1016.952" y1="504.459" x2="1017.952" y2="506.191"/><line class="cls-37" x1="760.487" y1="68.25" x2="1014.487" y2="508.191"/><line class="cls-38" x1="757.023" y1="70.25" x2="758.023" y2="71.982"/><line class="cls-39" x1="760.008" y1="75.419" x2="1009.031" y2="506.74"/><line class="cls-38" x1="1010.023" y1="508.459" x2="1011.023" y2="510.191"/><line class="cls-37" x1="753.559" y1="72.25" x2="1007.559" y2="512.191"/><line class="cls-38" x1="750.095" y1="74.25" x2="751.095" y2="75.982"/><line class="cls-39" x1="753.079" y1="79.419" x2="1002.103" y2="510.74"/><line class="cls-38" x1="1003.095" y1="512.459" x2="1004.095" y2="514.191"/><line class="cls-37" x1="746.631" y1="76.25" x2="1000.631" y2="516.191"/><line class="cls-38" x1="743.167" y1="78.25" x2="744.167" y2="79.982"/><line class="cls-39" x1="746.151" y1="83.419" x2="995.175" y2="514.74"/><line class="cls-38" x1="996.167" y1="516.459" x2="997.167" y2="518.191"/><line class="cls-37" x1="739.703" y1="80.25" x2="993.703" y2="520.191"/><line class="cls-38" x1="736.239" y1="82.25" x2="737.239" y2="83.982"/><line class="cls-39" x1="739.223" y1="87.419" x2="988.247" y2="518.74"/><line class="cls-38" x1="989.239" y1="520.459" x2="990.239" y2="522.191"/><line class="cls-37" x1="732.775" y1="84.25" x2="986.775" y2="524.191"/><line class="cls-38" x1="729.311" y1="86.25" x2="730.311" y2="87.982"/><line class="cls-39" x1="732.295" y1="91.419" x2="981.318" y2="522.74"/><line class="cls-38" x1="982.311" y1="524.459" x2="983.311" y2="526.191"/><line class="cls-37" x1="725.846" y1="88.25" x2="979.846" y2="528.191"/><line class="cls-38" x1="722.382" y1="90.25" x2="723.382" y2="91.982"/><line class="cls-39" x1="725.367" y1="95.419" x2="974.39" y2="526.74"/><line class="cls-38" x1="975.382" y1="528.459" x2="976.382" y2="530.191"/><line class="cls-37" x1="718.918" y1="92.25" x2="972.918" y2="532.191"/><line class="cls-38" x1="715.454" y1="94.25" x2="716.454" y2="95.982"/><line class="cls-39" x1="718.438" y1="99.419" x2="967.462" y2="530.74"/><line class="cls-38" x1="968.454" y1="532.459" x2="969.454" y2="534.191"/><line class="cls-37" x1="711.99" y1="96.25" x2="965.99" y2="536.191"/><line class="cls-38" x1="708.526" y1="98.25" x2="709.526" y2="99.982"/><line class="cls-39" x1="711.51" y1="103.419" x2="960.534" y2="534.74"/><line class="cls-38" x1="961.526" y1="536.459" x2="962.526" y2="538.191"/><line class="cls-37" x1="705.062" y1="100.25" x2="959.062" y2="540.191"/><line class="cls-38" x1="701.598" y1="102.25" x2="702.598" y2="103.982"/><line class="cls-39" x1="704.582" y1="107.419" x2="953.606" y2="538.74"/><line class="cls-38" x1="954.598" y1="540.459" x2="955.598" y2="542.191"/><line class="cls-37" x1="698.134" y1="104.25" x2="952.134" y2="544.191"/><line class="cls-38" x1="694.67" y1="106.25" x2="695.67" y2="107.982"/><line class="cls-39" x1="697.654" y1="111.419" x2="946.677" y2="542.74"/><line class="cls-38" x1="947.67" y1="544.459" x2="948.67" y2="546.191"/><line class="cls-37" x1="691.205" y1="108.25" x2="945.205" y2="548.191"/><line class="cls-38" x1="687.741" y1="110.25" x2="688.741" y2="111.982"/><line class="cls-39" x1="690.726" y1="115.419" x2="939.749" y2="546.74"/><line class="cls-38" x1="940.741" y1="548.459" x2="941.741" y2="550.191"/><line class="cls-37" x1="684.277" y1="112.25" x2="938.277" y2="552.191"/><line class="cls-38" x1="680.813" y1="114.25" x2="681.813" y2="115.982"/><line class="cls-39" x1="683.797" y1="119.419" x2="932.821" y2="550.74"/><line class="cls-38" x1="933.813" y1="552.459" x2="934.813" y2="554.191"/><line class="cls-37" x1="677.349" y1="116.25" x2="931.349" y2="556.191"/><line class="cls-38" x1="673.885" y1="118.25" x2="674.885" y2="119.982"/><line class="cls-39" x1="676.869" y1="123.419" x2="925.893" y2="554.74"/><line class="cls-38" x1="926.885" y1="556.459" x2="927.885" y2="558.191"/><line class="cls-37" x1="670.421" y1="120.25" x2="924.421" y2="560.191"/><line class="cls-38" x1="666.957" y1="122.25" x2="667.957" y2="123.982"/><line class="cls-39" x1="669.941" y1="127.419" x2="918.965" y2="558.74"/><line class="cls-38" x1="919.957" y1="560.459" x2="920.957" y2="562.191"/><line class="cls-37" x1="663.493" y1="124.25" x2="917.493" y2="564.191"/><line class="cls-38" x1="660.029" y1="126.25" x2="661.029" y2="127.982"/><line class="cls-39" x1="663.013" y1="131.419" x2="912.036" y2="562.74"/><line class="cls-38" x1="913.029" y1="564.459" x2="914.029" y2="566.191"/><line class="cls-37" x1="656.564" y1="128.25" x2="910.564" y2="568.191"/><line class="cls-38" x1="653.1" y1="130.25" x2="654.1" y2="131.982"/><line class="cls-39" x1="656.085" y1="135.419" x2="905.108" y2="566.74"/><line class="cls-38" x1="906.1" y1="568.459" x2="907.1" y2="570.191"/><line class="cls-37" x1="649.636" y1="132.25" x2="903.636" y2="572.191"/><line class="cls-38" x1="646.172" y1="134.25" x2="647.172" y2="135.982"/><line class="cls-39" x1="649.156" y1="139.419" x2="898.18" y2="570.74"/><line class="cls-38" x1="899.172" y1="572.459" x2="900.172" y2="574.191"/><line class="cls-37" x1="642.708" y1="136.25" x2="896.708" y2="576.191"/><line class="cls-38" x1="639.244" y1="138.25" x2="640.244" y2="139.982"/><line class="cls-39" x1="642.228" y1="143.419" x2="891.252" y2="574.74"/><line class="cls-38" x1="892.244" y1="576.459" x2="893.244" y2="578.191"/><line class="cls-37" x1="635.78" y1="140.25" x2="889.78" y2="580.191"/><line class="cls-38" x1="632.316" y1="142.25" x2="633.316" y2="143.982"/><line class="cls-39" x1="635.3" y1="147.419" x2="884.324" y2="578.74"/><line class="cls-38" x1="885.316" y1="580.459" x2="886.316" y2="582.191"/><line class="cls-37" x1="628.852" y1="144.25" x2="882.852" y2="584.191"/><line class="cls-38" x1="625.388" y1="146.25" x2="626.388" y2="147.982"/><line class="cls-39" x1="628.372" y1="151.419" x2="877.395" y2="582.74"/><line class="cls-38" x1="878.387" y1="584.459" x2="879.387" y2="586.191"/><line class="cls-37" x1="621.923" y1="148.25" x2="875.923" y2="588.191"/><line class="cls-38" x1="618.459" y1="150.25" x2="619.459" y2="151.982"/><line class="cls-39" x1="621.444" y1="155.419" x2="870.467" y2="586.74"/><line class="cls-38" x1="871.459" y1="588.459" x2="872.459" y2="590.191"/><line class="cls-37" x1="614.995" y1="152.25" x2="868.995" y2="592.191"/><line class="cls-38" x1="611.531" y1="154.25" x2="612.531" y2="155.982"/><line class="cls-39" x1="614.515" y1="159.419" x2="863.539" y2="590.74"/><line class="cls-38" x1="864.531" y1="592.459" x2="865.531" y2="594.191"/><line class="cls-37" x1="608.067" y1="156.25" x2="862.067" y2="596.191"/><line class="cls-38" x1="604.603" y1="158.25" x2="605.603" y2="159.982"/><line class="cls-39" x1="607.587" y1="163.419" x2="856.611" y2="594.74"/><line class="cls-38" x1="857.603" y1="596.459" x2="858.603" y2="598.191"/><line class="cls-37" x1="601.139" y1="160.25" x2="855.139" y2="600.191"/><line class="cls-38" x1="597.675" y1="162.25" x2="598.675" y2="163.982"/><line class="cls-39" x1="600.659" y1="167.419" x2="849.683" y2="598.74"/><line class="cls-38" x1="850.675" y1="600.459" x2="851.675" y2="602.191"/><line class="cls-37" x1="594.211" y1="164.25" x2="848.211" y2="604.191"/><line class="cls-38" x1="590.746" y1="166.25" x2="591.746" y2="167.982"/><line class="cls-39" x1="593.731" y1="171.419" x2="842.754" y2="602.74"/><line class="cls-38" x1="843.746" y1="604.459" x2="844.746" y2="606.191"/><line class="cls-37" x1="587.282" y1="168.25" x2="841.282" y2="608.191"/><line class="cls-38" x1="583.818" y1="170.25" x2="584.818" y2="171.982"/><line class="cls-39" x1="586.803" y1="175.419" x2="835.826" y2="606.74"/><line class="cls-38" x1="836.818" y1="608.459" x2="837.818" y2="610.191"/><line class="cls-37" x1="580.354" y1="172.25" x2="834.354" y2="612.191"/><line class="cls-38" x1="576.89" y1="174.25" x2="577.89" y2="175.982"/><line class="cls-39" x1="579.874" y1="179.419" x2="828.898" y2="610.74"/><line class="cls-38" x1="829.89" y1="612.459" x2="830.89" y2="614.191"/><line class="cls-37" x1="573.426" y1="176.25" x2="827.426" y2="616.191"/><line class="cls-38" x1="569.962" y1="178.25" x2="570.962" y2="179.982"/><line class="cls-39" x1="572.946" y1="183.419" x2="821.97" y2="614.74"/><line class="cls-38" x1="822.962" y1="616.459" x2="823.962" y2="618.191"/><line class="cls-37" x1="566.498" y1="180.25" x2="820.498" y2="620.191"/><line class="cls-38" x1="563.034" y1="182.25" x2="564.034" y2="183.982"/><line class="cls-39" x1="566.018" y1="187.419" x2="815.042" y2="618.74"/><line class="cls-38" x1="816.034" y1="620.459" x2="817.034" y2="622.191"/><line class="cls-37" x1="559.57" y1="184.25" x2="813.57" y2="624.191"/><line class="cls-38" x1="556.105" y1="186.25" x2="557.105" y2="187.982"/><line class="cls-39" x1="559.09" y1="191.419" x2="808.113" y2="622.74"/><line class="cls-38" x1="809.105" y1="624.459" x2="810.105" y2="626.191"/><line class="cls-37" x1="552.641" y1="188.25" x2="806.641" y2="628.191"/><line class="cls-38" x1="549.177" y1="190.25" x2="550.177" y2="191.982"/><line class="cls-39" x1="552.162" y1="195.419" x2="801.185" y2="626.74"/><line class="cls-38" x1="802.177" y1="628.459" x2="803.177" y2="630.191"/><line class="cls-37" x1="545.713" y1="192.25" x2="799.713" y2="632.191"/><line class="cls-38" x1="542.249" y1="194.25" x2="543.249" y2="195.982"/><line class="cls-39" x1="545.233" y1="199.419" x2="794.257" y2="630.74"/><line class="cls-38" x1="795.249" y1="632.459" x2="796.249" y2="634.191"/><line class="cls-37" x1="538.785" y1="196.25" x2="792.785" y2="636.191"/><line class="cls-38" x1="535.321" y1="198.25" x2="536.321" y2="199.982"/><line class="cls-39" x1="538.305" y1="203.419" x2="787.329" y2="634.74"/><line class="cls-38" x1="788.321" y1="636.459" x2="789.321" y2="638.191"/><line class="cls-37" x1="531.857" y1="200.25" x2="785.857" y2="640.191"/><line class="cls-38" x1="528.393" y1="202.25" x2="529.393" y2="203.982"/><line class="cls-39" x1="531.377" y1="207.419" x2="780.401" y2="638.74"/><line class="cls-38" x1="781.393" y1="640.459" x2="782.393" y2="642.191"/><line class="cls-37" x1="524.929" y1="204.25" x2="778.929" y2="644.191"/><line class="cls-38" x1="521.464" y1="206.25" x2="522.464" y2="207.982"/><line class="cls-39" x1="524.449" y1="211.419" x2="773.472" y2="642.74"/><line class="cls-38" x1="774.464" y1="644.459" x2="775.464" y2="646.191"/><line class="cls-37" x1="518" y1="208.25" x2="772" y2="648.191"/><line class="cls-38" x1="514.536" y1="210.25" x2="515.536" y2="211.982"/><line class="cls-39" x1="517.52" y1="215.419" x2="766.544" y2="646.74"/><line class="cls-38" x1="767.536" y1="648.459" x2="768.536" y2="650.191"/><line class="cls-37" x1="511.072" y1="212.25" x2="765.072" y2="652.191"/><line class="cls-38" x1="507.608" y1="214.25" x2="508.608" y2="215.982"/><line class="cls-39" x1="510.592" y1="219.419" x2="759.616" y2="650.74"/><line class="cls-38" x1="760.608" y1="652.459" x2="761.608" y2="654.191"/><line class="cls-37" x1="504.144" y1="216.25" x2="758.144" y2="656.191"/><line class="cls-38" x1="500.68" y1="218.25" x2="501.68" y2="219.982"/><line class="cls-39" x1="503.664" y1="223.419" x2="752.688" y2="654.74"/><line class="cls-38" x1="753.68" y1="656.459" x2="754.68" y2="658.191"/><line class="cls-37" x1="497.216" y1="220.25" x2="751.216" y2="660.191"/><line class="cls-38" x1="493.752" y1="222.25" x2="494.752" y2="223.982"/><line class="cls-39" x1="496.736" y1="227.419" x2="745.76" y2="658.74"/><line class="cls-38" x1="746.752" y1="660.459" x2="747.752" y2="662.191"/><line class="cls-37" x1="490.288" y1="224.25" x2="744.288" y2="664.191"/><line class="cls-38" x1="486.823" y1="226.25" x2="487.823" y2="227.982"/><line class="cls-39" x1="489.808" y1="231.419" x2="738.831" y2="662.74"/><line class="cls-38" x1="739.823" y1="664.459" x2="740.823" y2="666.191"/><line class="cls-37" x1="483.359" y1="228.25" x2="737.359" y2="668.191"/><line class="cls-38" x1="479.895" y1="230.25" x2="480.895" y2="231.982"/><line class="cls-39" x1="482.879" y1="235.419" x2="731.903" y2="666.74"/><line class="cls-38" x1="732.895" y1="668.459" x2="733.895" y2="670.191"/><line class="cls-37" x1="476.431" y1="232.25" x2="730.431" y2="672.191"/><line class="cls-38" x1="472.967" y1="234.25" x2="473.967" y2="235.982"/><line class="cls-39" x1="475.951" y1="239.419" x2="724.975" y2="670.74"/><line class="cls-38" x1="725.967" y1="672.459" x2="726.967" y2="674.191"/><line class="cls-37" x1="469.503" y1="236.25" x2="723.503" y2="676.191"/><line class="cls-38" x1="466.039" y1="238.25" x2="467.039" y2="239.982"/><line class="cls-39" x1="469.023" y1="243.419" x2="718.047" y2="674.74"/><line class="cls-38" x1="719.039" y1="676.459" x2="720.039" y2="678.191"/><line class="cls-37" x1="462.575" y1="240.25" x2="716.575" y2="680.191"/><line class="cls-38" x1="459.111" y1="242.25" x2="460.111" y2="243.982"/><line class="cls-39" x1="462.095" y1="247.419" x2="711.118" y2="678.74"/><line class="cls-38" x1="712.111" y1="680.459" x2="713.111" y2="682.191"/><line class="cls-37" x1="455.647" y1="244.25" x2="709.647" y2="684.191"/><line class="cls-38" x1="452.182" y1="246.25" x2="453.182" y2="247.982"/><line class="cls-39" x1="455.167" y1="251.419" x2="704.19" y2="682.74"/><line class="cls-38" x1="705.182" y1="684.459" x2="706.182" y2="686.191"/><line class="cls-37" x1="448.718" y1="248.25" x2="702.718" y2="688.191"/><line class="cls-38" x1="445.254" y1="250.25" x2="446.254" y2="251.982"/><line class="cls-39" x1="448.238" y1="255.419" x2="697.262" y2="686.74"/><line class="cls-38" x1="698.254" y1="688.459" x2="699.254" y2="690.191"/><line class="cls-37" x1="441.79" y1="252.25" x2="695.79" y2="692.191"/><line class="cls-38" x1="438.326" y1="254.25" x2="439.326" y2="255.982"/><line class="cls-39" x1="441.31" y1="259.419" x2="690.334" y2="690.74"/><line class="cls-38" x1="691.326" y1="692.459" x2="692.326" y2="694.191"/></g><path class="cls-40" d="M378.034,271.058c-1.222.406-2.222,2.249-2.222,2.249a7,7,0,0,0,3.033.036,3.688,3.688,0,0,0,2-2.014A5.17,5.17,0,0,0,378.034,271.058Z" transform="translate(191.439 252.801)"/><path class="cls-41" d="M374.15,265.071c1.948,4,1.97,15.3,1.839,17.007" transform="translate(191.439 252.801)"/><path class="cls-14" d="M375.114,260.752c-1.4-.374-1.846,1.626-1.846,1.626s-1.626-1.494-2.285-.571.439,2.461.439,2.461-2.11.308-1.846,1.539,2.593.659,2.593.659-.744,2.35,1.1,2.462c1.451.088,1.715-2.066,1.715-2.066s1.292,1.928,2.329,1.275c1.187-.748-.351-2.682-.351-2.682s1.8.176,1.626-1.45-2.593-.835-2.593-.835S376.433,261.1,375.114,260.752Z" transform="translate(191.439 252.801)"/><path class="cls-40" d="M238.976,272.3c1.223.406,2.222,2.249,2.222,2.249a6.982,6.982,0,0,1-3.033.036,3.685,3.685,0,0,1-2-2.014A5.166,5.166,0,0,1,238.976,272.3Z" transform="translate(191.439 252.801)"/><path class="cls-41" d="M242.86,266.313c-1.947,4.006-1.97,15.3-1.839,17.007" transform="translate(191.439 252.801)"/><path class="cls-42" d="M240.409,262.709c1.148-.885,2.33.789,2.33.789s.925-2.006,1.889-1.409.543,2.441.543,2.441,2.066-.529,2.3.708-2.139,1.608-2.139,1.608,1.592,1.882-.066,2.695c-1.3.64-2.378-1.245-2.378-1.245s-.449,2.277-1.658,2.074c-1.383-.232-.709-2.61-.709-2.61s-1.595.857-2.06-.712,2.071-1.77,2.071-1.77S239.328,263.541,240.409,262.709Z" transform="translate(191.439 252.801)"/><path class="cls-40" d="M688.51,266.487c1.222.406,2.222,2.25,2.222,2.25a6.993,6.993,0,0,1-3.034.035,3.681,3.681,0,0,1-2-2.013A5.167,5.167,0,0,1,688.51,266.487Z" transform="translate(191.439 252.801)"/><path class="cls-41" d="M692.394,260.5c-1.948,4.006-1.97,15.3-1.839,17.007" transform="translate(191.439 252.801)"/><path class="cls-43" d="M689.942,256.9c1.149-.885,2.331.789,2.331.789s.924-2.006,1.888-1.408.544,2.44.544,2.44,2.065-.529,2.3.708-2.139,1.608-2.139,1.608,1.593,1.882-.065,2.695c-1.305.641-2.378-1.245-2.378-1.245s-.449,2.277-1.658,2.074c-1.384-.232-.709-2.61-.709-2.61s-1.6.857-2.06-.711,2.071-1.771,2.071-1.771S688.861,257.729,689.942,256.9Z" transform="translate(191.439 252.801)"/><path class="cls-40" d="M794.391,273.334c-1.223.407-2.223,2.25-2.223,2.25a7,7,0,0,0,3.034.036,3.685,3.685,0,0,0,2-2.014A5.174,5.174,0,0,0,794.391,273.334Z" transform="translate(191.439 252.801)"/><path class="cls-41" d="M790.507,267.348c1.947,4,1.97,15.3,1.838,17.006" transform="translate(191.439 252.801)"/><path class="cls-44" d="M791.471,263.029c-1.4-.374-1.846,1.626-1.846,1.626s-1.627-1.494-2.286-.571.44,2.461.44,2.461-2.11.308-1.846,1.539,2.593.659,2.593.659-.744,2.35,1.1,2.461c1.45.088,1.714-2.065,1.714-2.065s1.292,1.928,2.33,1.274c1.187-.747-.352-2.681-.352-2.681s1.8.176,1.626-1.451-2.593-.835-2.593-.835S792.79,263.38,791.471,263.029Z" transform="translate(191.439 252.801)"/><path class="cls-45" d="M165.954,116.159c0-4.638-4.638-11.927-4.638-16.565s4.638-9.277,9.277-9.277,9.276,4.638,9.276,9.277-4.638,11.927-4.638,16.565a16.558,16.558,0,0,1-9.277,0" transform="translate(191.439 252.801)"/><path class="cls-7" d="M165.954,116.159c0-4.638-4.638-11.927-4.638-16.565s4.638-9.277,9.277-9.277,9.276,4.638,9.276,9.277-4.638,11.927-4.638,16.565a16.558,16.558,0,0,1-9.277,0Z" transform="translate(191.439 252.801)"/><polygon class="cls-46" points="366.67 382.213 363.357 382.876 357.393 382.213 357.393 376.25 363.357 376.912 366.67 376.25 366.67 382.213"/><polygon class="cls-7" points="366.67 382.213 363.357 382.876 357.393 382.213 357.393 376.25 363.357 376.912 366.67 376.25 366.67 382.213"/><polygon class="cls-46" points="366.67 376.249 360.707 375.586 357.393 376.249 363.357 376.912 366.67 376.249"/><polygon class="cls-7" points="366.67 376.249 360.707 375.586 357.393 376.249 363.357 376.912 366.67 376.249"/><line class="cls-47" x1="363.357" y1="376.912" x2="363.357" y2="382.876"/><line class="cls-7" x1="363.357" y1="376.912" x2="363.357" y2="382.876"/><line class="cls-47" x1="357.394" y1="368.96" x2="357.394" y2="376.249"/><line class="cls-7" x1="357.394" y1="368.96" x2="357.394" y2="376.249"/><line class="cls-47" x1="366.67" y1="368.96" x2="366.67" y2="376.249"/><line class="cls-7" x1="366.67" y1="368.96" x2="366.67" y2="376.249"/><line class="cls-47" x1="360.707" y1="375.587" x2="360.707" y2="369.623"/><line class="cls-7" x1="360.707" y1="375.587" x2="360.707" y2="369.623"/><line class="cls-47" x1="363.357" y1="376.912" x2="363.357" y2="369.623"/><line class="cls-7" x1="363.357" y1="376.912" x2="363.357" y2="369.623"/><path class="cls-7" d="M175.461,114.156a17.811,17.811,0,0,1-9.735,0" transform="translate(191.439 252.801)"/><path class="cls-7" d="M168.207,114.672c-.38-4.6-2.253-10.911-2.253-15.079,0-4.638,2.319-9.277,4.639-9.277s4.638,4.639,4.638,9.277c0,4.168-1.873,10.477-2.253,15.079" transform="translate(191.439 252.801)"/><polygon class="cls-31" points="975.184 382.173 962.413 382.885 963.125 395.655 982.636 400.973 975.184 382.173"/><line class="cls-30" x1="962.413" y1="382.885" x2="982.636" y2="400.973"/><line class="cls-30" x1="975.184" y1="382.173" x2="963.125" y2="395.655"/><path class="cls-41" d="M833.355,197.728c-23.506-10.784-52.43-56.907-55.64-61.615" transform="translate(191.439 252.801)"/><path class="cls-41" d="M811.326,159.035a10.466,10.466,0,0,1-4.975-1.206c-2.559-1.593-1.566-4.263-4.56-6.08-2.243-1.362-5.456-1.045-6.218-1.244-1.717-.447-3.584-2.077-4.377-2.333" transform="translate(191.439 252.801)"/><path class="cls-48" d="M646.383,256.834s2,0,2,1.5-2,1.5-2,1.5" transform="translate(191.439 252.801)"/><path class="cls-48" d="M648.383,255.834c1,0,3,.833,3,2.5s-2,2.5-3,2.5" transform="translate(191.439 252.801)"/><path class="cls-48" d="M642.383,259.834s-2,0-2-1.5,2-1.5,2-1.5" transform="translate(191.439 252.801)"/><path class="cls-48" d="M640.383,260.834c-1,0-3-.833-3-2.5s2-2.5,3-2.5" transform="translate(191.439 252.801)"/><path class="cls-48" d="M393.5,259.956s2,0,2,1.5-2,1.5-2,1.5" transform="translate(191.439 252.801)"/><path class="cls-48" d="M389.5,262.956s-2,0-2-1.5,2-1.5,2-1.5" transform="translate(191.439 252.801)"/><path class="cls-48" d="M214.4,263.815s1.5,0,1.5,1.125-1.5,1.125-1.5,1.125" transform="translate(191.439 252.801)"/><path class="cls-48" d="M215.9,263.065c.75,0,2.25.625,2.25,1.875s-1.5,1.875-2.25,1.875" transform="translate(191.439 252.801)"/><path class="cls-48" d="M211.4,266.065s-1.5,0-1.5-1.125,1.5-1.125,1.5-1.125" transform="translate(191.439 252.801)"/><path class="cls-48" d="M209.9,266.815c-.75,0-2.25-.625-2.25-1.875s1.5-1.875,2.25-1.875" transform="translate(191.439 252.801)"/><path class="cls-48" d="M22.613,254.961s1.5,0,1.5,1.125-1.5,1.125-1.5,1.125" transform="translate(191.439 252.801)"/><path class="cls-48" d="M19.613,257.211s-1.5,0-1.5-1.125,1.5-1.125,1.5-1.125" transform="translate(191.439 252.801)"/><path class="cls-48" d="M93.794,255.208s1.5,0,1.5,1.125-1.5,1.125-1.5,1.125" transform="translate(191.439 252.801)"/><path class="cls-48" d="M90.794,257.458s-1.5,0-1.5-1.125,1.5-1.125,1.5-1.125" transform="translate(191.439 252.801)"/><path class="cls-48" d="M260.445,270.624c10.318,1.349,32.155,1.739,40.753.911" transform="translate(191.439 252.801)"/><path class="cls-48" d="M263.744,273.443c6.758,1.17,22.948,1.319,27.047.864" transform="translate(191.439 252.801)"/><path class="cls-48" d="M125.08,238.192c-10.254-1.769-32.057-3.049-40.682-2.572" transform="translate(191.439 252.801)"/><path class="cls-48" d="M121.9,235.241c-6.706-1.445-22.876-2.254-26.989-1.966" transform="translate(191.439 252.801)"/><path class="cls-8" d="M416.042,264.234c-.384,2.268,1.815,3.734,4.65,3.818a7.093,7.093,0,0,0,5.567-2.143,20.545,20.545,0,0,0-3.253-.58,28.493,28.493,0,0,1,3.3-1.009,6.527,6.527,0,0,0-4.809-2.66C419.13,261.571,416.279,262.836,416.042,264.234Z" transform="translate(191.439 252.801)"/><path class="cls-8" d="M157.347,229.841c3.207-.129,5.353.742,5.433,3,.073,2.035-2.606,3.5-5.689,3.5a8.336,8.336,0,0,1-5.255-2.133,19.1,19.1,0,0,1,3.16-.865,15.832,15.832,0,0,0-3.114-1A8.339,8.339,0,0,1,157.347,229.841Z" transform="translate(191.439 252.801)"/><path class="cls-8" d="M668.616,240.5c-1.291-.064-1.7,8.363-.68,8.227S669.976,240.57,668.616,240.5Z" transform="translate(191.439 252.801)"/><path class="cls-8" d="M675.007,240.434c-1.282-.16-1.768,7.479-.408,7.615S676.1,240.57,675.007,240.434Z" transform="translate(191.439 252.801)"/><path class="cls-7" d="M674.735,244.31c-.272,1.428-.2,21.282-.136,22.914" transform="translate(191.439 252.801)"/><path class="cls-7" d="M668.208,244.514c-.34,1.428-1.1,19.076-1.03,20.98" transform="translate(191.439 252.801)"/><path class="cls-40" d="M625.62,276.083a15.2,15.2,0,0,0,3.974.544,39.247,39.247,0,0,0,4.586-.373,25.279,25.279,0,0,1,1.059-5.456c1.439-4.266,4.84-11.7,8.867-13.668,0,0-5.282.129-10.161,10.748,0,0,2.148-9.725,4.617-13.054,0,0-4.163,2.043-7.19,12.638,0,0,1.514-8.892,2.975-13.03,0,0-4.247,7.076-5.51,13.333,0,0,.038-9.384-2.7-13.275,0,0,.792,8.883.39,12.442,0,0-2.456-9.342-5.9-11.409a64.4,64.4,0,0,1,4.009,12.052s-4.3-6.2-7.854-7.115c0,0,5.856,7.137,7.685,11A24.839,24.839,0,0,1,625.62,276.083Z" transform="translate(191.439 252.801)"/><path class="cls-40" d="M144.2,281.365a23.459,23.459,0,0,0,6.132.841,60.689,60.689,0,0,0,7.077-.576,39.074,39.074,0,0,1,1.634-8.42c2.222-6.584,7.469-18.055,13.683-21.092,0,0-8.15.2-15.679,16.586,0,0,3.315-15.008,7.124-20.146,0,0-6.424,3.153-11.095,19.5,0,0,2.336-13.723,4.591-20.108,0,0-6.555,10.919-8.5,20.575,0,0,.059-14.482-4.163-20.486,0,0,1.221,13.709.6,19.2,0,0-3.79-14.418-9.105-17.607,0,0,4.768,10.627,6.186,18.6,0,0-6.629-9.564-12.121-10.981,0,0,9.038,11.013,11.86,16.978A38.319,38.319,0,0,1,144.2,281.365Z" transform="translate(191.439 252.801)"/><path class="cls-48" d="M472.882,255.032c10.04,2.732,31.624,6.072,40.255,6.415" transform="translate(191.439 252.801)"/><path class="cls-48" d="M475.769,258.271c6.539,2.074,22.56,4.411,26.682,4.515" transform="translate(191.439 252.801)"/><path class="cls-48" d="M719.415,240.179c-10.254-1.768-32.057-3.048-40.682-2.571" transform="translate(191.439 252.801)"/><path class="cls-48" d="M716.234,237.228c-6.706-1.444-22.876-2.253-26.989-1.966" transform="translate(191.439 252.801)"/></g></g></g></svg>