<svg xmlns="http://www.w3.org/2000/svg" width="180" height="140" viewBox="0 0 180 140"><defs><style>.cls-1{opacity:0.5;}.cls-2{fill:#ddd;}.cls-3{fill:#33d67b;}.cls-4{fill:#fff;}.cls-5{fill:#aaa;}.cls-6{fill:gray;}.cls-7{fill:none;}</style></defs><g id="Layer_2" data-name="Layer 2"><g id="Layer_1-2" data-name="Layer 1"><g class="cls-1"><path class="cls-2" d="M165,60.2513,12.99976,60.25081a.25.25,0,1,1,0-.5L165,59.7513a.25.25,0,0,1,0,.5Z"/><path class="cls-2" d="M164.99951,35.2552h-152a.25.25,0,0,1,0-.5h152a.25.25,0,0,1,0,.5Z"/><path class="cls-2" d="M164.99976,85.2513h-152a.25.25,0,1,1,0-.5h152a.25.25,0,0,1,0,.5Z"/><path class="cls-2" d="M75,112.24886a.24986.24986,0,0,1-.25-.25V9.99983a.25.25,0,0,1,.5,0v101.999A.24986.24986,0,0,1,75,112.24886Z"/><path class="cls-2" d="M45,112.24886a.24986.24986,0,0,1-.25-.25V9.99983a.25.25,0,0,1,.5,0v101.999A.24986.24986,0,0,1,45,112.24886Z"/><path class="cls-2" d="M134,112.24886a.24986.24986,0,0,1-.25-.25V9.99983a.25.25,0,0,1,.5,0v101.999A.24986.24986,0,0,1,134,112.24886Z"/><path class="cls-2" d="M105,112.24983a.24985.24985,0,0,1-.25-.25V10.0013a.25.25,0,0,1,.5,0V111.99983A.24985.24985,0,0,1,105,112.24983Z"/></g><path class="cls-3" d="M45.1106,105.50081c-.0398,0-.07813-.00049-.11817-.001-6.90137-.10547-14.134-9.833-21.49682-28.91211A267.32137,267.32137,0,0,1,14.5144,48.119a.5.5,0,1,1,.9712-.23828c.13818.564,13.988,56.38184,29.522,56.61914,7.404.11133,11.27222-13.02441,14.9812-25.73047,3.6477-12.49609,7.41968-25.417,14.89185-27.25488,5.81274-1.42578,10.64624,6.99268,15.76464,15.90967,4.53687,7.9043,9.22828,16.07666,14.25391,16.07666.03052,0,.0603-.00049.09106-.001,8.041-.1582,11.51075-14.65771,14.86622-28.67969,3.3479-13.99023,6.80981-28.45654,15.03369-30.3081,12.07544-2.71045,29.81665,36.6084,30.56616,38.28369a.49987.49987,0,1,1-.9126.4082c-.18017-.40234-18.16089-40.251-29.43384-37.71631-7.616,1.71436-11.00415,15.87305-14.28076,29.56543-3.60254,15.0542-7.00513,29.27344-15.81933,29.44678-.03663.00049-.07349.001-.10987.001-5.606.00049-10.44287-8.42725-15.12207-16.5791-4.70874-8.20264-9.57471-16.68262-14.65845-15.43653-6.91259,1.70069-10.60229,14.34034-14.17065,26.56446C56.97876,92.64973,53.22632,105.50081,45.1106,105.50081Z"/><rect class="cls-4" x="11.99999" y="46" width="3" height="6"/><path class="cls-2" d="M165,110.24983H15a.24985.24985,0,0,1-.25-.25v-100a.25.25,0,0,1,.5,0v99.75H165a.25.25,0,0,1,0,.5Z"/><circle class="cls-3" cx="164.99999" cy="62.99997" r="3"/><path class="cls-5" d="M6.07027,9.00437a.9346.9346,0,0,1-.55762.88769v.00586A1.04446,1.04446,0,0,1,6.25,10.9116c0,.68945-.56934,1.127-1.43945,1.127-.86329,0-1.43848-.4375-1.43848-1.127a1.04461,1.04461,0,0,1,.74316-1.01368V9.89206a.92807.92807,0,0,1-.56347-.88769c0-.6416.49707-1.03711,1.25879-1.03711S6.07027,8.36277,6.07027,9.00437Zm-.31836,1.85937c0-.456-.37109-.73193-.9414-.73193-.56348,0-.94141.27588-.94141.73193,0,.44971.36621.72559.94141.72559C5.39254,11.58933,5.75191,11.31345,5.75191,10.86374Zm-1.70312-1.811c0,.38965.30664.62939.76172.62939.45605,0,.76171-.23974.76171-.62939,0-.40186-.29394-.63574-.76171-.63574S4.04879,8.65085,4.04879,9.05271Z"/><path class="cls-5" d="M7.04976,10c0-1.32519.51563-2.03857,1.47559-2.03857C9.48433,7.9614,10,8.67478,10,10s-.51563,2.03858-1.47461,2.03858C7.56539,12.03855,7.04976,11.32517,7.04976,10Zm2.45313,0c0-1.04345-.3418-1.60693-.97754-1.60693S7.54781,8.95652,7.54781,10s.3418,1.60743.97754,1.60743S9.50289,11.04343,9.50289,10Z"/><path class="cls-5" d="M6.664,33.021v.31787A5.22893,5.22893,0,0,0,5.18256,36.979H4.829a5.49094,5.49094,0,0,1,1.46289-3.64014H3.80365V33.021Z"/><path class="cls-5" d="M7.09759,35c0-1.31933.50977-2.03857,1.45118-2.03857S9.99994,33.68064,9.99994,35s-.50977,2.03858-1.45117,2.03858S7.09759,36.31931,7.09759,35Zm2.54883,0c0-1.12109-.38379-1.73291-1.09765-1.73291-.708,0-1.09766.61182-1.09766,1.73291,0,1.12159.38965,1.73291,1.09766,1.73291C9.26263,36.73288,9.64642,36.12156,9.64642,35Z"/><path class="cls-5" d="M6.27533,58.7529l-.3125.14991a.84948.84948,0,0,0-.88867-.624c-.7793,0-1.17969.83985-1.17969,1.80518,0,.10205.00586.21.01758.33594h.02343a1.08825,1.08825,0,0,1,1.13282-.89942,1.26,1.26,0,1,1-.02344,2.51807c-.96484,0-1.47461-.80322-1.47461-2.03858,0-1.34326.66016-2.03857,1.5293-2.03857A1.13809,1.13809,0,0,1,6.27533,58.7529ZM4.08,60.77341a.9079.9079,0,0,0,.959.9419.93307.93307,0,1,0,.00586-1.86524A.9222.9222,0,0,0,4.08,60.77341Z"/><path class="cls-5" d="M7.09759,60c0-1.31933.50977-2.03857,1.45118-2.03857S9.99994,58.68064,9.99994,60s-.50977,2.03858-1.45117,2.03858S7.09759,61.31931,7.09759,60Zm2.54883,0c0-1.12109-.38281-1.73291-1.09765-1.73291-.707,0-1.09766.61182-1.09766,1.73291,0,1.12159.39062,1.73291,1.09766,1.73291C9.26361,61.73288,9.64642,61.12156,9.64642,60Z"/><path class="cls-5" d="M6.37,85.74949a1.21969,1.21969,0,0,1-1.31933,1.28906,1.28512,1.28512,0,0,1-1.373-.92285l.33008-.168a.93537.93537,0,0,0,1.03125.77344.90087.90087,0,0,0,.97754-.95313.87949.87949,0,0,0-.94727-.96,1.12442,1.12442,0,0,0-.9834.43164h-.2998L4.00188,83.021H6.20207v.31836H4.289l-.15527,1.46289-.00586.07813h.00586a1.2438,1.2438,0,0,1,.99511-.38965A1.18463,1.18463,0,0,1,6.37,85.74949Z"/><path class="cls-5" d="M7.09758,85.00046c0-1.31933.50977-2.03906,1.45117-2.03906s1.45118.71973,1.45118,2.03906-.50977,2.03809-1.45118,2.03809S7.09758,86.3198,7.09758,85.00046Zm2.54883,0c0-1.12109-.38379-1.7334-1.09766-1.7334-.708,0-1.09765.61231-1.09765,1.7334s.38965,1.73242,1.09765,1.73242C9.26262,86.73288,9.64641,86.12156,9.64641,85.00046Z"/><path class="cls-5" d="M6.37108,110.94089H5.66991V111.979H5.18944v-1.03809H3.2578v-.35351L5.06444,108.021h.60547v2.50684h.70117Zm-2.60351-.41308H5.18944v-1.48145l.02344-.63574H5.20116a5.52143,5.52143,0,0,1-.39649.66016Z"/><path class="cls-5" d="M7.05077,109.99949c0-1.3252.51562-2.03809,1.47461-2.03809S10,108.67429,10,109.99949s-.51563,2.03906-1.47461,2.03906S7.05077,111.32468,7.05077,109.99949Zm2.45312,0c0-1.043-.34179-1.60645-.97851-1.60645-.63477,0-.97656.56348-.97656,1.60645,0,1.04394.34179,1.60742.97656,1.60742C9.1621,111.60691,9.50389,111.04343,9.50389,109.99949Z"/><path class="cls-6" d="M157.86132,131.499v.45019h-2.7461v-3.958h.47852V131.499Z"/><path class="cls-6" d="M161.31053,131.57126l-.02929.37793a1.077,1.077,0,0,1-.35938.05957.47018.47018,0,0,1-.53906-.44336,1.18546,1.18546,0,0,1-.9668.44336c-.5625,0-1.01953-.26367-1.01953-.80371,0-.44922.39649-.80371,1.16992-.93554l.79688-.13184v-.168a.62919.62919,0,0,0-.70117-.65918.87769.87769,0,0,0-.85743.56934l-.35351-.25782a1.22032,1.22032,0,0,1,1.21094-.73144c.68359,0,1.18164.32422,1.18164,1.01953v1.47559c0,.14355.06054.21582.22851.21582A1.04688,1.04688,0,0,0,161.31053,131.57126Zm-.94726-.62988v-.41406l-.67188.126c-.52734.09668-.79687.27051-.79687.55176,0,.252.20312.38379.54492.38379C159.91991,131.58884,160.36327,131.33689,160.36327,130.94138Z"/><path class="cls-6" d="M163.7246,131.73923a1.11768,1.11768,0,0,1-.77344.26953.753.753,0,0,1-.834-.80371v-1.84082h-.5996v-.41406h.5996v-.71875l.48047-.13281v.85156H163.707v.41406h-1.10938v1.75684a.40683.40683,0,0,0,.44922.43847.68393.68393,0,0,0,.50977-.22265Z"/><path class="cls-6" d="M166.95116,130.62986h-2.25977a.94858.94858,0,0,0,.97657.959.81138.81138,0,0,0,.8457-.44336l.40234.21a1.28538,1.28538,0,0,1-1.248.65332,1.38968,1.38968,0,0,1-1.45118-1.55859,1.36424,1.36424,0,0,1,1.416-1.55957,1.29856,1.29856,0,0,1,1.3418,1.40332A2.41914,2.41914,0,0,1,166.95116,130.62986Zm-2.25391-.42578h1.81641c-.06641-.55176-.37109-.89356-.88086-.89356A.903.903,0,0,0,164.69725,130.20408Z"/><path class="cls-6" d="M167.61913,131.331l.39062-.26953a.93521.93521,0,0,0,.94727.52734c.49219,0,.72461-.19726.72461-.44336,0-.22168-.18555-.35351-.78516-.46191-.85156-.15625-1.16406-.38965-1.16406-.89356,0-.48535.45117-.89941,1.18164-.89941a1.08386,1.08386,0,0,1,1.1875.71973l-.4082.24023a.72887.72887,0,0,0-.7793-.54c-.40039,0-.70117.21582-.70117.4375,0,.25781.19726.38965.81054.49219.8379.13769,1.13868.38965,1.13868.88086,0,.52246-.48633.88769-1.25391.88769A1.36854,1.36854,0,0,1,167.61913,131.331Z"/><path class="cls-6" d="M172.88475,131.73923a1.11765,1.11765,0,0,1-.77343.26953.75381.75381,0,0,1-.834-.80371v-1.84082h-.59961v-.41406h.59961v-.71875l.48047-.13281v.85156h1.10937v.41406H171.7578v1.75684a.40683.40683,0,0,0,.44922.43847.67764.67764,0,0,0,.50976-.22265Z"/><path class="cls-5" d="M34.95311,118.021v3.958h-.34179v-2.97461c0-.16211.00585-.3418.01171-.52734a2.0588,2.0588,0,0,1-1.03711.623l-.08984-.30566a2.3042,2.3042,0,0,0,1.1582-.77344Z"/><path class="cls-5" d="M37.209,118.021v3.958h-.3418v-2.97461c0-.16211.00586-.3418.01172-.52734a2.0588,2.0588,0,0,1-1.03711.623l-.08984-.30566a2.3042,2.3042,0,0,0,1.1582-.77344Z"/><path class="cls-5" d="M38.87694,119.23777a.2969.2969,0,1,1-.59375,0,.2969.2969,0,0,1,.59375,0Zm0,2.49511a.29689.29689,0,1,1-.29883-.2998A.28118.28118,0,0,1,38.87694,121.73288Z"/><path class="cls-5" d="M39.73632,119.99949c0-1.31934.50976-2.03809,1.45117-2.03809s1.45117.71875,1.45117,2.03809-.50977,2.03906-1.45117,2.03906S39.73632,121.31882,39.73632,119.99949Zm2.54882,0c0-1.1211-.38476-1.73243-1.09765-1.73243-.709,0-1.09766.61133-1.09766,1.73243,0,1.12207.38867,1.73339,1.09766,1.73339C41.90038,121.73288,42.28514,121.12156,42.28514,119.99949Z"/><path class="cls-5" d="M43.40233,119.99949c0-1.31934.50977-2.03809,1.45117-2.03809s1.45117.71875,1.45117,2.03809-.50976,2.03906-1.45117,2.03906S43.40233,121.31882,43.40233,119.99949Zm2.54883,0c0-1.1211-.38477-1.73243-1.09766-1.73243-.709,0-1.09765.61133-1.09765,1.73243,0,1.12207.38867,1.73339,1.09765,1.73339C45.56639,121.73288,45.95116,121.12156,45.95116,119.99949Z"/><path class="cls-5" d="M51.90233,119.18992c0,.72558-.52148,1.16992-1.33789,1.16992h-.98828V121.979h-.3418v-3.958h1.33008C51.38085,118.021,51.90233,118.46433,51.90233,119.18992Zm-.35351,0c0-.54493-.34766-.85157-1.0254-.85157h-.94726v1.70313h.94726C51.20116,120.04148,51.54882,119.73581,51.54882,119.18992Z"/><path class="cls-5" d="M56.50389,121.979h-.33007V119.1362l.03515-.791L54.79491,121.979h-.30664l-1.4082-3.63379h-.00586l.03515.791V121.979h-.32422v-3.958h.51563l1.12109,2.86035.2168.69531h.00586l.22265-.68945,1.11524-2.86621h.52148Z"/><path class="cls-5" d="M64.17967,121.69675c1.52344-1.16894,2.17774-1.76855,2.17774-2.51855a.8583.8583,0,0,0-.94141-.89942,1.01445,1.01445,0,0,0-1.03125,1.05567l-.30078-.17383a1.2619,1.2619,0,0,1,1.34375-1.19922,1.17063,1.17063,0,0,1,1.2832,1.2168c0,.78613-.61718,1.457-2.0332,2.48828v.00683c.10156-.00683.3418-.01269.4375-.01269H66.832v.31836H64.17967Z"/><path class="cls-5" d="M68.24217,119.23777a.28448.28448,0,0,1-.30078.30078.28148.28148,0,0,1-.293-.30078.27577.27577,0,0,1,.293-.293A.27891.27891,0,0,1,68.24217,119.23777Zm0,2.49511a.28275.28275,0,0,1-.30078.294.2969.2969,0,0,1,0-.59375A.28422.28422,0,0,1,68.24217,121.73288Z"/><path class="cls-5" d="M69.0996,119.99949c0-1.31934.50976-2.03809,1.45117-2.03809s1.45117.71875,1.45117,2.03809-.50977,2.03906-1.45117,2.03906S69.0996,121.31882,69.0996,119.99949Zm2.54882,0c0-1.1211-.38281-1.73243-1.09765-1.73243-.707,0-1.09766.61133-1.09766,1.73243,0,1.12207.39063,1.73339,1.09766,1.73339C71.26561,121.73288,71.64842,121.12156,71.64842,119.99949Z"/><path class="cls-5" d="M72.76561,119.99949c0-1.31934.50977-2.03809,1.45117-2.03809s1.45118.71875,1.45118,2.03809-.50977,2.03906-1.45118,2.03906S72.76561,121.31882,72.76561,119.99949Zm2.54883,0c0-1.1211-.38281-1.73243-1.09766-1.73243-.707,0-1.09765.61133-1.09765,1.73243,0,1.12207.39062,1.73339,1.09765,1.73339C74.93163,121.73288,75.31444,121.12156,75.31444,119.99949Z"/><path class="cls-5" d="M80.60155,120.77292H78.73046l-.47461,1.20606h-.35938l1.57227-3.958H79.875l1.5664,3.958H81.082Zm-.127-.31738-.64649-1.64941-.15625-.45508h-.01172l-.14453.4375-.66015,1.667Z"/><path class="cls-5" d="M85.916,121.979h-.33008V119.1362l.03711-.791L84.207,121.979h-.30469l-1.41016-3.63379h-.00585l.03515.791V121.979h-.32226v-3.958h.51562l1.12109,2.86035.21485.69531h.00586l.22265-.68945,1.11524-2.86621H85.916Z"/><path class="cls-5" d="M96.79735,120.74949a1.21969,1.21969,0,0,1-1.31934,1.28906,1.28511,1.28511,0,0,1-1.373-.92285l.33008-.168a.93536.93536,0,0,0,1.03125.77344.90088.90088,0,0,0,.97754-.95313.87949.87949,0,0,0-.94727-.96,1.12442,1.12442,0,0,0-.9834.43164h-.2998l.21582-2.21875h2.20019v.31836H94.7163l-.15528,1.46289-.00586.07813H94.561a1.24384,1.24384,0,0,1,.99512-.38965A1.18463,1.18463,0,0,1,96.79735,120.74949Z"/><path class="cls-5" d="M98.2202,119.23874a.29689.29689,0,1,1-.59375,0,.29689.29689,0,0,1,.59375,0Zm0,2.49414a.29689.29689,0,1,1-.2998-.2998A.28144.28144,0,0,1,98.2202,121.73288Z"/><path class="cls-5" d="M99.0786,120.00046c0-1.31933.50977-2.03906,1.45117-2.03906s1.45117.71973,1.45117,2.03906-.50976,2.03809-1.45117,2.03809S99.0786,121.3198,99.0786,120.00046Zm2.54883,0c0-1.12109-.38379-1.7334-1.09766-1.7334-.708,0-1.09765.61231-1.09765,1.7334s.38964,1.73242,1.09765,1.73242C101.24364,121.73288,101.62743,121.12156,101.62743,120.00046Z"/><path class="cls-5" d="M102.74462,120.00046c0-1.31933.50976-2.03906,1.45117-2.03906s1.45117.71973,1.45117,2.03906-.50977,2.03809-1.45117,2.03809S102.74462,121.3198,102.74462,120.00046Zm2.54882,0c0-1.12109-.38378-1.7334-1.09765-1.7334-.708,0-1.09766.61231-1.09766,1.7334s.38965,1.73242,1.09766,1.73242C104.90966,121.73288,105.29344,121.12156,105.29344,120.00046Z"/><path class="cls-5" d="M110.57958,120.7739h-1.8711l-.47363,1.20508h-.35937l1.57128-3.958h.40723l1.56543,3.958h-.35937Zm-.126-.31738-.64746-1.64942-.15527-.45605h-.0127l-.14355.4375-.66016,1.668Z"/><path class="cls-5" d="M115.895,121.979h-.33008v-2.8418l.03613-.792-1.415,3.63379h-.30566l-1.40918-3.63379h-.00586l.03516.792v2.8418h-.32325v-3.958h.51563l1.12109,2.86133.21582.69531h.00586l.22266-.68945,1.11523-2.86719h.52149Z"/><path class="cls-5" d="M125.66893,118.98093a.92639.92639,0,0,1-.666.91113v.00586a1.06007,1.06007,0,0,1,.83984,1.03223c0,.6709-.56348,1.1084-1.40918,1.1084-.83984,0-1.40918-.4375-1.40918-1.1084a1.05942,1.05942,0,0,1,.8457-1.03223v-.00586a.91659.91659,0,0,1-.666-.91113c0-.624.47949-1.01367,1.22949-1.01367C125.1826,117.96726,125.66893,118.35691,125.66893,118.98093Zm-.17968,1.91895c0-.50391-.41993-.834-1.05567-.834-.624,0-1.05566.33008-1.05566.834,0,.498.41992.82129,1.05566.82129C125.07518,121.72117,125.48925,121.39792,125.48925,120.89988Zm-1.93165-1.88868c0,.44336.34864.73145.876.73145.5332,0,.88184-.28809.88184-.73145,0-.45019-.3418-.72558-.88184-.72558C123.8994,118.28562,123.5576,118.561,123.5576,119.0112Z"/><path class="cls-5" d="M127.30175,119.23874a.29689.29689,0,1,1-.59375,0,.29689.29689,0,0,1,.59375,0Zm0,2.49414a.29689.29689,0,1,1-.29981-.2998A.28145.28145,0,0,1,127.30175,121.73288Z"/><path class="cls-5" d="M128.16014,120.00046c0-1.31933.50977-2.03906,1.45118-2.03906s1.45117.71973,1.45117,2.03906-.50977,2.03809-1.45117,2.03809S128.16014,121.3198,128.16014,120.00046Zm2.54883,0c0-1.12109-.38379-1.7334-1.09765-1.7334-.708,0-1.09766.61231-1.09766,1.7334s.38965,1.73242,1.09766,1.73242C130.32518,121.73288,130.709,121.12156,130.709,120.00046Z"/><path class="cls-5" d="M131.82616,120.00046c0-1.31933.50976-2.03906,1.45117-2.03906s1.45117.71973,1.45117,2.03906-.50976,2.03809-1.45117,2.03809S131.82616,121.3198,131.82616,120.00046Zm2.54883,0c0-1.12109-.38379-1.7334-1.09766-1.7334-.708,0-1.09766.61231-1.09766,1.7334s.38965,1.73242,1.09766,1.73242C133.9912,121.73288,134.375,121.12156,134.375,120.00046Z"/><path class="cls-5" d="M139.66014,120.7739h-1.87109l-.47363,1.20508H136.956l1.57129-3.958h.40723L140.5,121.979h-.35938Zm-.126-.31738-.64746-1.64942-.15528-.45605h-.01269l-.14356.4375-.66015,1.668Z"/><path class="cls-5" d="M144.97557,121.979h-.33007v-2.8418l.03613-.792-1.415,3.63379h-.30567l-1.40917-3.63379h-.00586l.03515.792v2.8418h-.32324v-3.958h.51562l1.1211,2.86133.21582.69531h.00586l.22265-.68945,1.11524-2.86719h.52148Z"/><path class="cls-2" d="M15.00024,60.24934H12.99976a.25.25,0,0,1,0-.5h2.00048a.25.25,0,0,1,0,.5Z"/><path class="cls-2" d="M15.00024,35.25374H12.99951a.25.25,0,0,1,0-.5h2.00073a.25.25,0,0,1,0,.5Z"/><path class="cls-2" d="M15.00024,85.24983h0l-2.00048-.00049a.25.25,0,1,1,0-.5h0l2.00048.00049a.25.25,0,1,1,0,.5Z"/><path class="cls-2" d="M75,112.24983a.24985.24985,0,0,1-.25-.25v-2a.25.25,0,0,1,.5,0v2A.24985.24985,0,0,1,75,112.24983Z"/><path class="cls-2" d="M45,112.24983a.24985.24985,0,0,1-.25-.25v-2a.25.25,0,0,1,.5,0v2A.24985.24985,0,0,1,45,112.24983Z"/><path class="cls-2" d="M134,112.24983a.24985.24985,0,0,1-.25-.25v-2a.25.25,0,0,1,.5,0v2A.24985.24985,0,0,1,134,112.24983Z"/><path class="cls-2" d="M105,112.24983a.24985.24985,0,0,1-.25-.25v-2a.25.25,0,0,1,.5,0v2A.24985.24985,0,0,1,105,112.24983Z"/><path class="cls-5" d="M153.9287,118.021v3.958h-.3418v-2.97461c0-.16113.00586-.34179.01172-.52734a2.06735,2.06735,0,0,1-1.03711.624l-.08984-.30566a2.3,2.3,0,0,0,1.1582-.77441Z"/><path class="cls-5" d="M156.18456,118.021v3.958h-.3418v-2.97461c0-.16113.00586-.34179.01172-.52734a2.06735,2.06735,0,0,1-1.03711.624l-.08984-.30566a2.3,2.3,0,0,0,1.1582-.77441Z"/><path class="cls-5" d="M157.85253,119.23877a.29689.29689,0,1,1-.59375,0,.29689.29689,0,0,1,.59375,0Zm0,2.49414a.29689.29689,0,1,1-.29883-.2998A.28067.28067,0,0,1,157.85253,121.73291Z"/><path class="cls-5" d="M158.7119,120.00049c0-1.31934.50977-2.03906,1.45117-2.03906s1.45118.71972,1.45118,2.03906-.50977,2.03808-1.45118,2.03808S158.7119,121.31982,158.7119,120.00049Zm2.54883,0c0-1.1211-.38477-1.7334-1.09766-1.7334-.709,0-1.09765.6123-1.09765,1.7334s.38867,1.73242,1.09765,1.73242C160.876,121.73291,161.26073,121.12158,161.26073,120.00049Z"/><path class="cls-5" d="M162.37792,120.00049c0-1.31934.50976-2.03906,1.45117-2.03906s1.45117.71972,1.45117,2.03906-.50976,2.03808-1.45117,2.03808S162.37792,121.31982,162.37792,120.00049Zm2.54883,0c0-1.1211-.38477-1.7334-1.09766-1.7334-.709,0-1.09766.6123-1.09766,1.7334s.38867,1.73242,1.09766,1.73242C164.542,121.73291,164.92675,121.12158,164.92675,120.00049Z"/><path class="cls-5" d="M170.2119,120.77393h-1.87109l-.47461,1.20507h-.35938l1.57227-3.958h.40625l1.56641,3.958h-.35938Zm-.127-.31739-.64649-1.64941-.15625-.45606h-.01171l-.14454.4375-.66015,1.668Z"/><path class="cls-5" d="M175.52831,121.979h-.33008v-2.84179l.03516-.792-1.41407,3.63379h-.30664l-1.4082-3.63379h-.00586l.03516.792V121.979h-.32422v-3.958h.51562l1.1211,2.86132.21679.69532h.00586l.22266-.68946,1.11523-2.86718h.52149Z"/><rect class="cls-7" width="180" height="140"/></g></g></svg>