<svg xmlns="http://www.w3.org/2000/svg" viewBox="0 0 48 48"><defs><style>.cls-1{fill:none;}.cls-2{fill:#fff;}.cls-3{fill:#33d67b;}.cls-4{fill:#2bb5e9;}</style></defs><g id="Layer_2" data-name="Layer 2"><g id="Layer_1-2" data-name="Layer 1"><rect id="bounding_box" data-name="bounding box" class="cls-1" width="48" height="48"/><path id="outline" class="cls-2" d="M42.782,37.324c-.424-2.1-2.57-6.463-3.218-7.752a2.985,2.985,0,0,0-1.135-1.22A4.431,4.431,0,0,0,38.3,27L36.837,21.54A4.51,4.51,0,0,0,33.3,18.276c.735-1.522.322-3.195-1.226-4.991a7.6,7.6,0,0,0-3.941-8.038,7.594,7.594,0,0,0-8.931.607c-2.466-.469-4.176.095-5.1,1.687l-8.5,14.723c-1.14,1.975-.847,5.284,7.026,9.83s10.886,3.145,12.027,1.17l.6-1.035,5.09-1.364A4.318,4.318,0,0,0,32.8,32.5a27.605,27.605,0,0,0-1.815,4.824,5.407,5.407,0,0,0,2.786,5.75,6.182,6.182,0,0,0,7.9-1.412A5.214,5.214,0,0,0,42.782,37.324ZM30.634,16.81a2.842,2.842,0,0,0-.986-1.749A2.842,2.842,0,0,1,30.634,16.81ZM22.072,9.986h0a3.475,3.475,0,0,1,.27-.251,2.732,2.732,0,0,1,1.114-.576,2.732,2.732,0,0,0-1.114.576A3.475,3.475,0,0,0,22.072,9.986Zm2.563,1.323c.882.509,1.7,1.036,2.429,1.559-.732-.523-1.547-1.05-2.429-1.559-.66-.381-1.3-.713-1.934-1.018C23.331,10.6,23.975,10.928,24.635,11.309Zm4.082,2.857c.177.155.344.307.5.457-.155-.15-.322-.3-.5-.457ZM20.121,9.2h0c-.223-.076-.439-.144-.646-.2C19.682,9.059,19.9,9.127,20.121,9.2ZM18.88,8.844a2.843,2.843,0,0,0-2.008.021A2.843,2.843,0,0,1,18.88,8.844ZM34.339,36.581c.129-.35.279-.726.44-1.112-.161.386-.311.762-.44,1.112a9.494,9.494,0,0,0-.413,1.338,2.048,2.048,0,0,0-.031.532,2.089,2.089,0,0,1,.03-.532A9.653,9.653,0,0,1,34.339,36.581Zm-.434,1.993a2.106,2.106,0,0,0,.113.492A2.106,2.106,0,0,1,33.905,38.574Zm1.181,1.779a3.114,3.114,0,0,1-.378-.3A3.216,3.216,0,0,0,35.086,40.353Zm-.427-.336a2.757,2.757,0,0,1-.335-.392A2.757,2.757,0,0,0,34.659,40.017Zm-.4-.493a2.383,2.383,0,0,1-.224-.427A2.383,2.383,0,0,0,34.256,39.524Zm.934.9c.064.04.134.069.2.1-.038-.02-.082-.029-.12-.05S35.218,40.439,35.19,40.422Zm.739.33c.068.022.136.045.2.062C36.064,40.8,36,40.774,35.929,40.752Zm2.364-.183a2.882,2.882,0,0,0,1.444-1.476A2.882,2.882,0,0,1,38.293,40.569Z"/><path class="cls-3" d="M35.4,27.78l-1.464-5.464a1.5,1.5,0,0,0-2.9.777l.344,1.283-5.981,1.6,5.16-8.938c.317-.55-.43-1.634-1.847-2.875a4.742,4.742,0,0,0-2.082-6.321A4.741,4.741,0,0,0,20.121,9.2c-1.784-.607-3.1-.712-3.414-.162l-8.5,14.723c-.552.956,2.1,3.523,5.928,5.732s7.376,3.224,7.929,2.268l1.218-2.111,8.88-2.38.343,1.284a1.5,1.5,0,0,0,2.9-.777Zm-9.768-18.2a2.7,2.7,0,0,1,1.429,3.291c-.732-.523-1.547-1.05-2.429-1.559s-1.745-.951-2.563-1.323A2.693,2.693,0,0,1,25.635,9.577Z"/><path class="cls-4" d="M39.841,37.919c.329,1.623-1.324,3-2.958,3s-3.286-1.377-2.957-3c.377-1.865,2.957-7,2.957-7S39.464,36.054,39.841,37.919Z"/></g></g></svg>