<svg xmlns="http://www.w3.org/2000/svg" width="48" height="48" viewBox="0 0 48 48"><defs><style>.cls-1{fill:none;}.cls-2{fill:#fff;}</style></defs><g id="Layer_2" data-name="Layer 2"><g id="Layer_1-2" data-name="Layer 1"><rect class="cls-1" width="48" height="48"/><path class="cls-2" d="M34.00012,23.0002H16.41418l5.293-5.293a.99989.99989,0,0,0-1.41406-1.41406l-6.99952,6.99945a1.01161,1.01161,0,0,0-.21679.32581,1.00088,1.00088,0,0,0-.07324.36468c0,.006-.00342.01105-.00342.01709s.00342.01105.00342.01709a1.001,1.001,0,0,0,.07324.36469,1.01145,1.01145,0,0,0,.21679.3258l6.99952,6.99945a.99989.99989,0,0,0,1.41406-1.41406l-5.293-5.293H34.00012a1,1,0,0,0,0-2Z"/></g></g></svg>