<svg xmlns="http://www.w3.org/2000/svg" viewBox="0 0 960.5 290"><defs><style>.cls-1,.cls-14,.cls-16{fill:none;}.cls-1,.cls-10,.cls-11,.cls-2,.cls-3,.cls-5,.cls-9{stroke:#003437;}.cls-1,.cls-11,.cls-12,.cls-14,.cls-15,.cls-2,.cls-3,.cls-4,.cls-9{stroke-linecap:round;stroke-linejoin:round;}.cls-1,.cls-10,.cls-11,.cls-12,.cls-14,.cls-15,.cls-2,.cls-3,.cls-4,.cls-5,.cls-9{stroke-width:0.5px;}.cls-2{fill:#f6fdf8;}.cls-10,.cls-3,.cls-4,.cls-5{fill:#33d67b;}.cls-14,.cls-15,.cls-4{stroke:#053437;}.cls-6{fill:#f6e55a;}.cls-7{fill:#f7ce05;}.cls-8,.cls-9{fill:#fff;}.cls-10{stroke-miterlimit:10;}.cls-11,.cls-12{fill:#f47925;}.cls-12{stroke:#19322f;}.cls-13{fill:#053437;}.cls-13,.cls-14,.cls-15{fill-rule:evenodd;}.cls-15{fill:#ddd;}</style></defs><g id="Layer_2" data-name="Layer 2"><g id="Layer_1-2" data-name="Layer 1"><path class="cls-1" d="M818.941,257.946V264.8h10v-6.858C828.941,251.089,818.941,251.089,818.941,257.946Z"/><path class="cls-1" d="M828.941,257.946V264.8h10v-6.858C838.941,251.089,828.941,251.089,828.941,257.946Z"/><path class="cls-1" d="M813.941,257.946V264.8h10v-6.858C823.941,251.089,813.941,251.089,813.941,257.946Z"/><path class="cls-1" d="M823.941,257.946V264.8h10v-6.858C833.941,251.089,823.941,251.089,823.941,257.946Z"/><path class="cls-1" d="M838.941,257.946V264.8h10v-6.858C848.941,251.089,838.941,251.089,838.941,257.946Z"/><path class="cls-1" d="M848.941,257.946V264.8h10v-6.858C858.941,251.089,848.941,251.089,848.941,257.946Z"/><path class="cls-1" d="M833.941,257.946V264.8h10v-6.858C843.941,251.089,833.941,251.089,833.941,257.946Z"/><path class="cls-1" d="M843.941,257.946V264.8h10v-6.858C853.941,251.089,843.941,251.089,843.941,257.946Z"/><path class="cls-1" d="M858.941,257.946V264.8h10v-6.858C868.941,251.089,858.941,251.089,858.941,257.946Z"/><path class="cls-1" d="M868.941,257.946V264.8h10v-6.858C878.941,251.089,868.941,251.089,868.941,257.946Z"/><path class="cls-1" d="M853.941,257.946V264.8h10v-6.858C863.941,251.089,853.941,251.089,853.941,257.946Z"/><path class="cls-1" d="M863.941,257.946V264.8h10v-6.858C873.941,251.089,863.941,251.089,863.941,257.946Z"/><path class="cls-2" d="M850.945,107.5s-.555,82.145-.555,106.193c0,13.627.555,54.509.555,54.509a3.6,3.6,0,0,0,3.125,1.6,3.81,3.81,0,0,0,3.2-1.6s.133-57.114.133-76.153c0-19.238-.133-86.954-.133-86.954"/><path class="cls-3" d="M850.1,79.3c-1.682-2.244,3.991-1.33,3.991-4.434s-2.66-.887-3.1-3.547,2.661-4.434,0-5.321-2.217,3.991-4.434,2.66c-1.938-1.163-4.877,1.331-3.547,3.1s5.321,3.1,1.774,4.434-4.878,3.1-6.651,1.33-.444,0-3.1,1.33-2.66,2.217.887,3.1,4.434,4.434.887,3.547-5.764-5.764-8.425-4.877,0,4.434-1.33,4.877-.887-2.66-2.66-2.66,1.33,4.877-.444,4.877-2.217-2.66-3.99-2.217.443,2.661-1.33,3.547-6.208-.443-6.208,1.331,6.208,3.547,3.547,4.434-4.434,2.217-6.651.443-2.217-5.321-4.434-4.877-3.99,1.33-2.66,3.547,3.1,0,3.1,1.773-1.33,1.774-1.33,3.991,7.981-.444,4.877,1.33-7.094,3.991-9.311,1.33-3.991-2.66-5.321-1.33,1.33,2.66-.443,3.1-6.208,2.66-4.434,3.547,3.1-1.33,5.32-1.33,3.548,1.773,5.764,1.773,6.208-3.1,5.765,0,2.217,5.764-.444,5.321-7.094-.887-6.651.443,6.208,3.1,2.661,3.548-4.878-2.217-6.208-.887,3.547,4.877.887,4.877-4.877,2.217-1.774,3.991,10.2-1.331,8.425.443-6.208,3.1-4.434,4.877,6.365,1.774,4.291,3.991-1.187,4.877,1.473,4.877,11.085-3.547,10.641-.887.444,3.548,2.661,3.548,5.32-5.321,7.094-3.548,8.868,2.217,5.764,3.991-2.217,4.877.887,3.99,8.868-3.99,8.424-1.33-1.33,3.991,2.217,3.991,3.991-3.991,6.208-3.547.887,3.1,1.773,3.547,3.1-3.547,4.434-1.774,5.764,3.991,5.764,1.774,5.321-4.434,3.548-6.208-1.774-5.764,2.217-4.434,9.311.444,10.641,3.548,2.217,3.99,6.207,3.99,11.085-3.1,13.746-2.217,5.764.443,6.207-1.33,2.217-4.877-.443-4.877-8.868,3.1-12.415.886,2.173-3.99,6.221-3.99,8.9-5.321,10.184-2.661,6.282,4.434,6.208.887,3.1-5.32-.887-7.094-6.208,1.33-9.311-.443-3.1-2.217,1.773-5.764,11.528-4.878,9.311-6.651-3.99-1.774-4.433-5.321-1.331-5.764-3.991-5.321,1.774,6.208-1.774,6.208.386,5.455-6.207,3.99c-7.981-1.773-9.755-6.207-4.877-6.207s8.867,2.217,7.981-1.774-1.33-5.321,1.773-5.321,5.764-4.433,2.217-5.764-6.651,3.991-8.424,1.331,2.217-3.991,0-6.208-.887-4.434,3.1-4.877,4.877-2.217,4.433-3.1-5.32-3.1-6.207-1.33-5.321,4.877-7.981,2.217-1.33-7.538,3.1-7.095,5.32-.886,4.434-2.216-2.661-4.434-5.321-3.548-4.434,7.095-7.094,6.651-3.1-1.773-3.548-6.207-.443-6.208-4.433-6.651-2.217-3.547-3.991-3.991-5.764.444-4.877,2.661,7.537,2.66,4.434,4.877-.887,8.868-4.434,7.981-6.208-1.33-7.538-3.547-4.434-4.877-4.877-3.991-1.33,3.1,0,4.434,3.547,3.991,2.217,4.878-4.434,1.773-3.547,3.1S851.427,81.069,850.1,79.3Z"/><path class="cls-3" d="M881.17,85.219c-2.7,2.7,3.705,5.558.926,5.558s0,2.778-.926,3.7-5.558-.927-4.631,1.852,4.631,4.631,9.262,3.7,3.7,2.779,5.557,2.779,4.631,0,3.705,1.852-1.852,3.7-3.705,2.779-5.557-5.558-5.557-2.779,0,4.631,2.778,6.483,5.558,4.632,2.779,4.632-7.41,0-5.557.926,8.336.926,5.557,2.778-1.852,2.779-4.631,2.779-7.41.926-4.631,1.853,4.631,0,7.41,0,5.557,1.852,4.631,3.7-3.7,4.631,0,4.631,8.336-.926,7.409,1.853-1.852,4.631-3.7,3.705-5.558-4.631-5.558-2.779,2.779,3.7.927,4.631-4.632-5.557-8.336-4.631-1.853,2.779-3.705,3.7-3.7,2.779-5.558.926-5.557-.926-4.631,1.853,3.705,10.188-.926,9.262-.926-10.189-5.557-9.262-3.705,6.483-5.557,5.557-4.632-1.852-3.705,0,.926,2.779,3.705,2.779,5.557-1.853,5.557.926,0,3.705-3.705,3.705-11.115,0-11.115-3.705,7.41-9.262,1.853-10.189-.926-4.631-4.631-4.631,1.852-4.631-.926-4.631-5.558,1.853-4.632,2.779,3.705,3.705.927,4.631-.927-2.779-3.705-2.779-5.558,0-4.631,2.779,3.705,0,2.778,2.779-5.557.926-5.557,2.778,1.852,0,2.779.927.926,1.852-.927,2.778-3.7.926-6.483-.926-3.705-3.705-4.631-3.705a1.775,1.775,0,0,1-.926-2.779c.926-.926,2.778,1.853,4.631.927s6.483-5.558,3.705-6.484-3.705,0-4.631-2.779-5.558-.926-5.558-3.7,2.779-4.631,4.631-3.705,6.484,5.557,7.41,2.778.926-9.262-1.852-9.262-6.484,2.779-8.336.926-1.853,0-2.779,0-2.779,0-2.779-1.852,4.631-.926,5.558-1.852,2.778-2.779.926-2.779-1.853,1.852-3.705,1.852-4.631-.926-3.705-2.778,1.853-1.853,6.484-2.779,7.409-2.779,7.409-4.631a3.985,3.985,0,0,1,3.705-3.7c1.853,0,3.7-3.7.926-3.7s-1.852-1.852-3.7-1.852-3.705,1.852-2.779,2.778.926,2.779-.926,2.779,0-2.779-2.779-3.7-3.7-.926-2.779-3.7,1.853-2.778,3.705-2.778,6.484-2.779,7.41-.926,4.631,3.7,6.484,1.852-.927-5.557,1.852-5.557,6.484,1.852,6.484,0,1.852-5.558,3.7-4.631,5.558-1.853,3.705-2.779-2.778,0-4.631-.926-1.852-3.7-4.631-3.7a7.824,7.824,0,0,1-5.557-1.853c-.926-.926-.926-1.852,0-1.852s2.778,1.852,3.705.926,0-2.778.926-2.778,2.779,0,2.779,1.852.926,3.7,2.778,3.7.926-1.853,4.631-2.779,8.336-3.7,8.336-.926-1.852,6.483.926,5.557,0-3.7,2.779-2.778,9.262-2.779,9.262.926-3.705,5.557-1.852,6.483,3.705-4.631,6.483-3.7,3.705,1.853,2.779,3.7,0,.927.926,1.853S882.1,84.293,881.17,85.219Z"/><path class="cls-3" d="M865.288,98.5c-1.813,1-2.131.656-3.509-.722s-2.691-4.1-4.07-2.722,1.379,2.755,0,3.444-3.51-.722-4.888.656.623-.031,1.378,2.756,3.445,1.379,3.445,4.135-.689,5.513-3.445,4.135-.689-5.513-4.135-5.513-6.2.689-4.135,2.756,6.892,4.135,3.446,4.824-3.516-2.785-6.2-2.067,0,3.445-2.067,3.445-2.068-2.067-4.824-2.067-.761.664-2.068,4.135-.069,8.245,3.446,6.891,6.891-7.58,8.269-3.446,3.446,6.2,5.513,5.513,6.2-1.378,4.135,1.379-6.487,1.211-5.513,4.134c.689,2.068,6.739,4.518,2.067,4.824s-4.086,2.708-6.891,0c-1.446-1.4-2.067-3.445,0-4.135s3.446-2.756,1.378-3.445-2.067-2.757-6.891-1.378-5.441,1.4-6.819.022-2.828-1.4-3.517.667-.762,5.492,1.378,4.824,4.134-3.446,4.824-2.068c.993,1.987-1.307,3.465-.618,5.532.6,1.789,6.131-2.086,4.133,2.066-1.188,2.471-.759,6.185,2,4.806s4.7-3.113,7.58-.689,4.237,4.073,7.58,2.068c3.446-2.068.689-8.959,5.513-5.513s6.891.689,8.959-1.379,2.067-7.58,5.513-6.2,4.823-3.445,5.513-1.378,1.378,2.067,2.756.689a32.458,32.458,0,0,1,4.323-3.278c1.19-.857,4.636-.167,3.946-2.924s-3.445-.689-3.445-2.067,6.2-2.068,4.135-3.446-4.824.689-6.2-2.067.632-6.231-2.067-6.2-6.2-1.378-4.824-3.446,7.524-.722,6.2-4.135,4.135-6.2,1.379-6.891-5.571-2.79-5.513,0,2.067,5.513-1.379,5.513-4.357,3.091-4.134,0,3.385-4.17.689-5.513-2.818-2.792-4.824-2.756-2.128,2.033-1.378,3.445,1.316,3.412-.689,2.757-2.13-3.48-3.446-3.446S866.6,97.781,865.288,98.5Z"/><path class="cls-1" d="M819.941,261.8v7l6,4v-6.858C825.941,259.089,819.941,254.946,819.941,261.8Z"/><path class="cls-1" d="M813.941,257.8v7l6,4v-6.858C819.941,255.089,813.941,250.946,813.941,257.8Z"/><path class="cls-1" d="M816.941,259.8v7l6,4v-6.858C822.941,257.089,816.941,252.946,816.941,259.8Z"/><path class="cls-1" d="M884.941,261.8v7l6,4v-6.858C890.941,259.089,884.941,254.946,884.941,261.8Z"/><path class="cls-1" d="M878.941,257.8v7l6,4v-6.858C884.941,255.089,878.941,250.946,878.941,257.8Z"/><path class="cls-1" d="M881.941,259.8v7l6,4v-6.858C887.941,257.089,881.941,252.946,881.941,259.8Z"/><path class="cls-1" d="M830.941,265.946V272.8h10v-6.858C840.941,259.089,830.941,259.089,830.941,265.946Z"/><path class="cls-1" d="M840.941,265.946V272.8h10v-6.858C850.941,259.089,840.941,259.089,840.941,265.946Z"/><path class="cls-1" d="M825.941,265.946V272.8h10v-6.858C835.941,259.089,825.941,259.089,825.941,265.946Z"/><path class="cls-1" d="M835.941,265.946V272.8h10v-6.858C845.941,259.089,835.941,259.089,835.941,265.946Z"/><path class="cls-1" d="M850.941,265.946V272.8h10v-6.858C860.941,259.089,850.941,259.089,850.941,265.946Z"/><path class="cls-1" d="M860.941,265.946V272.8h10v-6.858C870.941,259.089,860.941,259.089,860.941,265.946Z"/><path class="cls-1" d="M845.941,265.946V272.8h10v-6.858C855.941,259.089,845.941,259.089,845.941,265.946Z"/><path class="cls-1" d="M855.941,265.946V272.8h10v-6.858C865.941,259.089,855.941,259.089,855.941,265.946Z"/><path class="cls-1" d="M870.941,265.946V272.8h10v-6.858C880.941,259.089,870.941,259.089,870.941,265.946Z"/><path class="cls-1" d="M880.941,265.946V272.8h10v-6.858C890.941,259.089,880.941,259.089,880.941,265.946Z"/><path class="cls-1" d="M865.941,265.946V272.8h10v-6.858C875.941,259.089,865.941,259.089,865.941,265.946Z"/><path class="cls-1" d="M875.941,265.946V272.8h10v-6.858C885.941,259.089,875.941,259.089,875.941,265.946Z"/><path class="cls-4" d="M43.4,115.38c-2.615-6.1-4.358-3.2-8.715-4.067s-.872,4.648-3.777,4.648.61,3.22-2.25,3.37-11.139-1.806-9.333,2.108,6.925.451,8.129,2.408,3.311,4.366,6.322,3.764-2.107-3.613-.3-4.667,5.419,2.71,6.623,1.957-.752-4.215,0-4.817,2.258,1.054,3.613.753,5.57-.9,4.666-3.161,3.613-4.817,1.355-5.419S43.4,115.38,43.4,115.38Z"/><path class="cls-5" d="M106.573,86.661c-2.42,2.421,3.321,4.982.831,4.982s0,2.491-.831,3.321-4.981-.83-4.151,1.66,4.151,4.152,8.3,3.321,3.321,2.491,4.981,2.491,4.152,0,3.321,1.661-1.66,3.321-3.321,2.491-4.981-4.982-4.981-2.491,0,4.151,2.49,5.812,4.982,4.151,2.491,4.151-6.642,0-4.981.83,7.472.831,4.981,2.491-1.66,2.491-4.151,2.491-6.642.83-4.151,1.66,4.151,0,6.642,0,4.981,1.661,4.151,3.322-3.321,4.151,0,4.151,7.472-.83,6.642,1.66-1.66,4.152-3.321,3.321-4.981-4.151-4.981-2.49,2.49,3.321.83,4.151-4.152-4.982-7.473-4.151-1.66,2.49-3.321,3.321-3.321,2.491-4.981.83-4.982-.83-4.152,1.661,3.321,9.132-.83,8.3-.83-9.133-4.981-8.3-3.322,5.811-4.982,4.981-4.151-1.66-3.321,0,.83,2.491,3.321,2.491,4.982-1.661,4.982.83,0,3.321-3.322,3.321-9.963,0-9.963-3.321,6.642-8.3,1.661-9.133-.831-4.151-4.152-4.151,1.661-4.151-.83-4.151-4.981,1.66-4.151,2.49,3.321,3.321.83,4.152-.83-2.491-3.321-2.491-4.982,0-4.151,2.491,3.321,0,2.49,2.491-4.981.83-4.981,2.49,1.66,0,2.491.831.83,1.66-.831,2.49-3.321.831-5.811-.83-3.322-3.321-4.152-3.321a1.591,1.591,0,0,1-.83-2.491c.83-.83,2.491,1.661,4.151.831s5.812-4.982,3.321-5.812-3.321,0-4.151-2.491-4.982-.83-4.982-3.321,2.491-4.152,4.152-3.321,5.812,4.981,6.642,2.491.83-8.3-1.661-8.3-5.812,2.491-7.472.83-1.661,0-2.491,0-2.491,0-2.491-1.66,4.152-.831,4.982-1.661,2.491-2.491.83-2.491-1.66,1.661-3.321,1.661-4.151-.83-3.321-2.491,1.661-1.661,5.812-2.491,6.642-2.491,6.642-4.151a3.571,3.571,0,0,1,3.321-3.321c1.661,0,3.321-3.321.83-3.321s-1.66-1.661-3.321-1.661-3.321,1.661-2.49,2.491.83,2.491-.831,2.491,0-2.491-2.491-3.321-3.321-.831-2.49-3.321,1.66-2.491,3.321-2.491,5.812-2.491,6.642-.83,4.151,3.321,5.812,1.66-.831-4.982,1.66-4.982,5.812,1.661,5.812,0,1.661-4.981,3.321-4.151,4.982-1.66,3.321-2.491-2.491,0-4.151-.83S75.853,76.7,73.363,76.7a7.016,7.016,0,0,1-4.982-1.661c-.83-.83-.83-1.66,0-1.66s2.491,1.66,3.321.83,0-2.491.83-2.491,2.491,0,2.491,1.661.83,3.321,2.491,3.321.83-1.661,4.151-2.491,7.473-3.321,7.473-.83-1.661,5.812.83,4.982,0-3.322,2.491-2.491,8.3-2.491,8.3.83S97.44,81.68,99.1,82.51s3.321-4.151,5.812-3.321,3.321,1.66,2.491,3.321,0,.83.83,1.66S107.4,85.831,106.573,86.661Z"/><path class="cls-5" d="M78.452,96.592c-2.349,0-3.321-.83-4.152,0s2.491,1.66.831,3.321-1.661,0-3.321.83.83,3.321-1.661,3.321-.83-3.321-3.321-4.151-3.321-2.491-4.982-2.491-.83.83,0,2.491,2.491,1.661,1.661,3.321,1.66,4.982,3.321,4.151,6.642-1.66,4.982,0-.831,4.152-2.491,3.322a3.993,3.993,0,0,0-4.982,1.66c-.743,1.485.83,2.491,3.321,1.661s3.321-1.661,4.152,0,.83,1.66,2.49,0,2.491-3.321,3.321-.831.831,4.982-1.66,4.982-2.491-1.661-4.982-1.661-2.491,0-3.321,2.491-1.66,4.152-4.151,1.661-4.982-2.491-4.982-1.661,1.661.83,2.491,3.321-1.661,4.982,1.661,4.982.83,4.151-1.661,3.321-3.321.83-.83,2.491,3.321.83,4.981,0,4.152-4.982,4.982-1.661,4.151.83,3.321,3.321.83,4.982-1.66,4.152-4.152-1.661-4.152,0,2.371,1.011,1.541,1.842-3.321.83-2.491,1.66,3.321-.83,2.491,2.491,4.271,4.8,5.932,2.309,4.981,0,6.642-3.321,7.472-3.321,4.981-5.812-2.49-7.472.831-6.642,5.811,4.152,7.472.83,2.491-4.151,1.661-6.642.83-3.321,2.49-2.49,1.661,1.66,4.152,0,.83-4.982,3.321-4.152,4.151,2.491,4.981-.83,2.108-3.921.831-4.982c-1.781-1.479-3.441-.648-3.321,1.661.06,1.172-.12,3.5-1.781,1.842s-4.031-1.842-4.862-.182-4.151-1.66-3.321-3.321,1.661-5.812,0-5.812-4.981-1.66-1.66-3.321,4.981-6.642,2.491-5.812-2.491-.83-4.152-1.66-2.491-1.661-3.321.83,0,4.982-2.491,4.152-3.321,0-4.151-3.322-.83-2.49-3.321-3.321-1.661-1.66-3.321-.83S79.282,96.592,78.452,96.592Z"/><path class="cls-2" d="M79.782,182.638c9.414-4.256,14.688-9.91,19.945-13.4,4.039-2.686,14.873-10.989,19.635-11.947,5.058-1.019,11.51-3.911,12.582-4.736s.546-1.354-.577-.99a56.419,56.419,0,0,1-12.165,2.148s5.279-5.825,7.134-9.773c1.511-3.216,2.582-9.65,3.571-13.139,1.345-4.741,1.919-3.822,2.414-5.636s-.412-2.063-.412-2.063c-2.464,2.5-5.856,9.428-7.479,14.754-1.244,4.081-4.505,8.332-7.042,11.43a64.569,64.569,0,0,1-15.8,13.852,11.149,11.149,0,0,1,1.568-6.351c1.9-3.052,4.619-8.331,3.546-8.5s-6.516,7.011-8.33,9.816-2.6,7.072-5.408,10.041-14.11,8.777-14.11,8.777c-.247-1.98-.7-9.324-.7-9.324,6.186-7.982,10.085-12.107,16.561-19.2,3.6-3.942,4.89-12.407,6.656-13.433s3.032-1.228,4.661-3.372c1.484-1.953,4.446-5.187,3.291-5.434s-6.989,6.17-7.649,6.179c-1.06.015-.639-2.1-.4-3.67.287-1.892,1.605-5.218.874-5.314-.757-.1-2.164,3.166-2.824,5.888-.917,3.784-3.206,11.186-5.4,14.748-1.846,3-5.489,5.367-8.535,8.327-3.732,3.627-8.27,8.306-8.27,8.306.464-4.548-.159-9.328.394-12.494.441-2.523,6.757-5.921,8.765-8.616,1.311-1.759,1.994-4.095,1.7-4.258-.444-.243-2.732,2.791-4.456,4.223a54.046,54.046,0,0,1-5.36,3.613c.578-1.567,2.029-6.284,3.684-10.584,1.2-3.116,2.008-7.139,2.833-9.283s-1.568-2.651-1.568-2.651a63.016,63.016,0,0,0-.655-7.083c-.842,1.142-.252,7.789-2,14.377-1.017,3.83-3.846,9.181-5.767,13.574-1.463,3.347-1.423,10.6-1.423,10.6a34.444,34.444,0,0,1-7.9-6.561c-1.386-1.7-1.732-7.918-2.392-9.568s-5.444-8.908-5.774-8.5,1.485,4.042,2.474,6.022.544,7.245.544,7.245c-3.876-1.485-9.481-8.415-11.048-9.323a31.334,31.334,0,0,0-7.259-2.309c-2.309-.5-8.713-4.6-8.713-4.6,3.794,7.011,8.618,6.714,11.877,8.248,3.376,1.59,8.961,8.269,13.28,11.548,2.953,2.242,2.752,4.633,6.839,8.068,3.245,2.727,6.874,5.1,7.2,6.334s-.082,6.351.248,8.331c0,0-6.911-.168-10.546-7.86-.985-2.083-4.022-7.621-4.681-7.021-.962.874,2.552,9.45,4.031,12.482C64.1,170,71.83,173.647,71.83,173.647s1.862,25.326.939,40.57S68.6,263.264,68.6,263.264s.483,1.512,3.293,1.793a5.742,5.742,0,0,0,4.375-1.207s4.068-50.582,3.722-61.288C79.6,190.258,79.782,182.638,79.782,182.638Z"/><path class="cls-4" d="M62.186,125.77c-4.365-.431-4.994,3.33-8.324,3.052s-5.468,1.568-7.885,1.085-2.143,2.794-3.223,3.222c-2.035.807-.322,3.062,1.45,3.384s1.29,4.835-1.933,5-5.318,5.479-7.091,3.545-6.284-1.934-4.834.644,3.868.967,5.318,3.062,5.318-.322,7.251-.806.645-3.545,2.417-3.706,1.934,3.062,4.029,2.417,2.417-4.834,4.028-4.512,4.19-6.445.162-5.478-1.259-3.087.133-2.739,3.568,1.566,3.742.174-.783-3.829.783-3.829,6.265,3.481,8.353,2.263,0-4.873,1.305-6.265-1.218-2.089-2.7-2.959S63.205,125.871,62.186,125.77Z"/><path class="cls-4" d="M122.426,132.545c-2.983-5.036-7,1.274-11.143.955s-4.457-5.73-7.958-4.775-1.725,2.989-3.671,3.52,1.769,3.714.708,4.775-4.953-1.415-6.545,1.062,4.422,2.476,3.184,5.306-7.782.354-6.9,4.245,5.483,1.238,6.191,4.422-3.538,4.776-2.477,6.191,2.123-.354,4.068.176.531,3.538,2.654,3.538,1.061-3.891,3.006-4.245,2.654-3.538.531-5.13,2.83-2.476,5.483-1.061.354,3.715,2.653,5.307,5.307-4.246,7.96-2.831-.531-3.183,1.768-4.068,4.953,3.715,6.722,1.769,2.476-9.374.177-9.374-3.184,3.537-5.13,1.768,5.307-4.245,3.538-6.544-6.191-.531-7.075-2.122S123.441,134.26,122.426,132.545Z"/><path class="cls-3" d="M115.278,126.071c0,2.427-1.618,3.237-2.428,4.046s-1.618,4.046.81,4.046,3.237.809,2.427,1.619-2.427-.81-4.855,0-4.046.809-4.046,3.237,4.855,1.618,3.237,3.237-3.237,2.427-1.619,4.046,4.046-2.428,6.474-1.619,1.619,4.047,4.046,4.047,4.047-2.428,3.237-3.237-1.618.809-2.427,0-.81-4.047.809-4.047,2.428.81,4.855,1.619.81,4.046,4.047,4.855,1.618-2.427,3.236-2.427.81,2.427,3.237,3.237,4.047-1.619,1.619-4.047-4.856-.809-6.474-3.237-1.618-4.046.809-3.237,5.665-.809,7.283,1.619,1.619,5.665,3.237,5.665,3.237-4.047,4.856-3.237,5.665.809,4.046-.81-1.618-2.427,0-2.427,5.665,1.618,4.046-.81-1.618-6.474-4.046-4.855-1.618,3.237-3.237,1.618-2.428-2.427,0-4.046,2.428-3.237,1.619-4.046-2.428,0-4.856-1.619-5.665-1.618-5.665,0-.809,4.856-2.427,3.237.809-4.046-.81-4.855-4.046-.809-2.427-2.428.809-2.428-.81-3.237-4.046,0-3.236.809,3.236.81,1.618,1.619-2.428,1.618-1.618,2.428.809,1.618-.81,1.618-1.757-1.283-4.046-2.428c-1.618-.809-3.237-.809-3.237.81s.809,3.237-1.618,2.427S115.278,124.926,115.278,126.071Z"/><path class="cls-3" d="M143.349,119.974c2.517,0,0,3.56-1.781,3.56s-3.56,0-3.56,1.781,1.78,0,3.56,1.78,3.561,3.561,0,3.561-5.341-3.561-5.341-1.781,3.561,1.781,1.781,3.561-3.561-1.78-5.341,0,1.78,3.561,0,3.561-5.341-3.561-7.122-3.561-3.56-3.561,0-5.341,8.9-3.561,8.9-5.341,0-3.561,3.561-3.561S141.568,119.974,143.349,119.974Z"/><path class="cls-3" d="M37.4,123.984c5.308,0,0-4.417,5.889-4.417s7.361,1.472,5.889,2.944-2.945,0-2.945,1.473,1.473,1.472,1.473,2.944-1.473,0-2.945,1.472,1.472,0,2.945,2.945,1.472,7.361-1.473,5.889-1.472-4.417-4.416-4.417-4.417-1.472-4.417,1.472,0,4.417-2.944,4.417-1.473-4.417-4.417-4.417a5.408,5.408,0,0,0-4.417,1.473c-1.472,1.472-5.733,1.161-4.416-1.473,1.472-2.944,1.472-5.889,4.416-5.889,1.473,0,5.889-1.472,2.945-2.944s-2.945-4.417-1.472-5.889,4.416,0,5.888,1.472S35.927,123.984,37.4,123.984Z"/><path class="cls-3" d="M85.942,108.6c3.008,0,5.382,4.037,4.036,4.037s-2.691-1.346-2.691,0,4.037,1.346,2.691,4.037-4.036,0-5.382,2.691-4.037,2.691-1.346,5.382c2.128,2.127,4.463,1.8,8.074,0,2.691-1.346,2.691,2.691,4.036,4.037s2.692,0,4.037,1.345,1.346,4.037,0,4.037-1.345-1.346-2.691-1.346-1.346,1.346-2.691,0-1.346-2.691-2.691-2.691c-2.691,0-1.346,2.691-4.037,2.691-1.345,0-2.691-2.691-4.037-2.691s0,2.691-2.691,2.691,0-1.345-2.691-2.691-1.345,1.346-4.036,0c-3.4-1.7,3.473-3.255,1.345-5.382-2.691-2.691-2.691-5.382,0-6.728s4.037,2.691,5.382,0c1.2-2.407,1.346-4.036,0-5.382a2.524,2.524,0,0,1,0-4.037c1.346-1.345,1.346,0,2.691-1.345S84.6,108.6,85.942,108.6Z"/><path class="cls-3" d="M67.06,147.607c3.337,0,4.855,4.046,3.237,4.046s-3.237-2.427-4.046-1.618,2.427,4.046,1.618,4.855-2.428-3.237-4.046-1.618,3.237,4.855,0,6.474-3.237,0-5.665-.809-1.618,3.237-3.237,3.237.81-8.9-3.237-8.093-2.427,4.046-5.664,4.046-5.665.81-5.665,3.237,0,4.047-3.237,3.237-1.148-2.766-2.428-4.046c-1.618-1.618,2.428-3.237,4.856-4.855s6.474-3.237,4.046-4.856-4.046,2.428-5.665-.809.809-4.046,3.237-5.665,6.474-1.618,3.237-3.237-5.665,0-5.665-2.428,4.047-4.046,7.284-3.237,2.427,6.474,5.664,5.665,7.283-3.237,9.711-2.428,8.093,3.237,6.474,4.047S65.441,147.607,67.06,147.607Z"/><path class="cls-3" d="M40.767,128.58c-2.386,1.193-1.406-2.53-3.374-2.812s-.281,2.812-1.687,2.812-2.25-.562-2.25-2.53-.843-2.812-2.531-2.25-5.905-.562-5.905.844.844.843,1.969,2.249,3.093-.281,3.936.563-.843,3.093.563,3.655,3.655-.562,2.812,1.125-3.656,2.531-2.25,3.655a2.262,2.262,0,0,0,3.656-.843c.562-1.406,2.812-3.937,2.812-1.969s1.968,3.094,2.812,2.25,3.093-.844,1.968-1.968-3.093-1.688-2.25-2.531.844.281,2.531-.281,2.531-1.687,1.687-2.25S41.892,128.018,40.767,128.58Z"/><path class="cls-3" d="M58.9,115.879c-.753,0-.715.714-1.667.476s0-1.191-.952-1.429-.715.953-1.9.238S51.523,113.5,52,115.64s3.095,1.667,1.666,2.858,2.858,1.666,2.143,2.857-2.381.238-2.619,1.667-.714,1.19-2.381.714-1.905-1.191-3.095,0-.714,1.905.476,2.381,3.334-.952,3.334.238-.239,1.9,1.9,1.429,2.381-.953,3.81-.715,3.095,1.429,3.333-.238,1.667-2.619.239-3.095-1.9,1.19-3.1.476-1.905-1.428.238-2.143,3.81-1.19,3.81-2.381-.714.238-1.191-1.19S59.618,115.879,58.9,115.879Z"/><path class="cls-3" d="M116.913,118.668c-.969.969-1.3,1.07-1.852.676-.625-.451-.225-1.8-1.126-1.8s-.675,1.351-1.576,1.351a14.069,14.069,0,0,1-2.7-.225c-1.577-.225-2.253,0-2.253,1.126s2.253,1.8,1.352,2.7-1.577.9-1.577,1.8,1.351,1.126.451,1.577-3.6-.226-3.153.9,1.351.226,1.351,1.352.9,1.576,2.252,1.126,1.351-2.027,2.7-1.577,2.026-.9,3.378-1.576,2.927-2.027,3.378-1.126,2.252,1.351,2.477.225.951-1.8.275-2.477-2.3-3.6-.951-3.378,4.054,1.351,3.6-.226-.451-3.378-2.027-3.378-1.527.9-2.653.9S117.364,118.218,116.913,118.668Z"/><path class="cls-6" d="M259.021,32.1s-13.367,2.975-14.752,6.316c-1.436,3.463,4.787,13.718,4.787,13.718s-10.256-6.223-13.719-4.787C232,48.737,229.021,62.1,229.021,62.1s-2.975-13.368-6.316-14.753c-3.463-1.436-13.719,4.787-13.719,4.787s6.224-10.256,4.788-13.719c-1.386-3.34-14.753-6.315-14.753-6.315s13.367-2.975,14.753-6.316c1.436-3.463-4.788-13.719-4.788-13.719s10.256,6.223,13.719,4.787c3.341-1.385,6.316-14.752,6.316-14.752S232,15.471,235.337,16.856c3.463,1.436,13.719-4.787,13.719-4.787s-6.223,10.256-4.787,13.719C245.654,29.129,259.021,32.1,259.021,32.1Z"/><circle class="cls-7" cx="229.021" cy="32.104" r="11"/><path class="cls-8" d="M229.021,21.6a10.5,10.5,0,1,1-10.5,10.5,10.5,10.5,0,0,1,10.5-10.5m0-1a11.5,11.5,0,1,0,11.5,11.5,11.513,11.513,0,0,0-11.5-11.5Z"/><path class="cls-9" d="M201.546,37.863a5.818,5.818,0,0,1,5.6-4.114,6.168,6.168,0,0,1,.719.045.028.028,0,0,0,.03-.015,7.876,7.876,0,0,1,14.6,2.1,4.81,4.81,0,0,1,3.994,5.064,4.941,4.941,0,0,1-5,4.474H206.933a5.837,5.837,0,0,1-5.673-5.94,5.755,5.755,0,0,1,.286-1.615"/><path class="cls-9" d="M217.9,42.131a5.82,5.82,0,0,1,5.6-4.115,6.185,6.185,0,0,1,.72.045.026.026,0,0,0,.03-.015,7.876,7.876,0,0,1,14.6,2.1,4.809,4.809,0,0,1,3.994,5.064,4.94,4.94,0,0,1-5,4.474H223.29a5.836,5.836,0,0,1-5.672-5.941,5.753,5.753,0,0,1,.285-1.614"/><path class="cls-9" d="M168.131,37.863a5.819,5.819,0,0,1,5.6-4.114,6.185,6.185,0,0,1,.72.045.029.029,0,0,0,.03-.015,7.876,7.876,0,0,1,14.6,2.1,4.81,4.81,0,0,1,3.994,5.064,4.941,4.941,0,0,1-5,4.474H173.518a5.755,5.755,0,0,1-5.387-7.555"/><path class="cls-9" d="M184.489,42.131a5.819,5.819,0,0,1,5.6-4.115,6.182,6.182,0,0,1,.719.045.026.026,0,0,0,.03-.015,7.876,7.876,0,0,1,14.6,2.1,4.808,4.808,0,0,1,3.994,5.064,4.94,4.94,0,0,1-5,4.474H189.876a5.836,5.836,0,0,1-5.673-5.941,5.754,5.754,0,0,1,.286-1.614"/><path class="cls-9" d="M340.008,22.861a8.728,8.728,0,0,1,8.4-6.172,9.274,9.274,0,0,1,1.079.067.04.04,0,0,0,.045-.022,11.814,11.814,0,0,1,21.906,3.152,7.213,7.213,0,0,1,5.991,7.6,7.41,7.41,0,0,1-7.5,6.711H348.089a8.755,8.755,0,0,1-8.509-8.91,8.661,8.661,0,0,1,.428-2.422"/><path class="cls-9" d="M364.545,29.262a8.728,8.728,0,0,1,8.4-6.172,9.06,9.06,0,0,1,1.079.068.042.042,0,0,0,.045-.023,11.814,11.814,0,0,1,21.906,3.152,7.214,7.214,0,0,1,5.991,7.6,7.409,7.409,0,0,1-7.5,6.711H372.625a8.755,8.755,0,0,1-8.509-8.91,8.661,8.661,0,0,1,.429-2.422"/><path class="cls-9" d="M726.412,51.965a5.817,5.817,0,0,1,5.6-4.114,6.182,6.182,0,0,1,.719.045.028.028,0,0,0,.03-.015,7.876,7.876,0,0,1,14.6,2.1,4.808,4.808,0,0,1,3.994,5.064,4.94,4.94,0,0,1-5,4.474H731.8a5.836,5.836,0,0,1-5.673-5.94,5.755,5.755,0,0,1,.286-1.615"/><path class="cls-9" d="M693,51.965a5.817,5.817,0,0,1,5.6-4.114,6.168,6.168,0,0,1,.719.045.027.027,0,0,0,.03-.015,7.876,7.876,0,0,1,14.605,2.1,4.81,4.81,0,0,1,3.994,5.064,4.941,4.941,0,0,1-5,4.474H698.384a5.838,5.838,0,0,1-5.673-5.94A5.755,5.755,0,0,1,693,51.965"/><path class="cls-9" d="M709.354,56.233a5.82,5.82,0,0,1,5.6-4.115,6.185,6.185,0,0,1,.72.045.026.026,0,0,0,.03-.015,7.876,7.876,0,0,1,14.6,2.1,4.809,4.809,0,0,1,3.994,5.064,4.94,4.94,0,0,1-5,4.474H714.741a5.758,5.758,0,0,1-5.387-7.555"/><path class="cls-9" d="M764.981,60.618a5.818,5.818,0,0,1,5.6-4.114,6.185,6.185,0,0,1,.72.045.029.029,0,0,0,.03-.015,7.876,7.876,0,0,1,14.6,2.1,4.81,4.81,0,0,1,3.994,5.064,4.941,4.941,0,0,1-5,4.474H770.368a5.755,5.755,0,0,1-5.387-7.555"/><path class="cls-10" d="M160.978,179.5c-2.446,1.631.312,4.052,1.247,4.052s3.74-2.493,4.364-.935-2.182,2.494-1.559,3.429,2.805-1.559,3.429,0,.935,3.116-.935,3.428a2.492,2.492,0,0,0-2.182,3.429c.632,1.58,4.045-.647,6.233,0s.934,2.4,1.247,3.116,2.182.935.935,2.182c-.907.907-4.994-2.2-4.052-.312s1.24,3.1,2.806,3.117,2.493-2.493,3.74-2.8c1.215-.3,1.241.6,1.246,1.247s-.629.6-1.246,1.558-1.247,1.247,0,1.559,3.734-.33,3.428,1.246-1.825.488-2.182,1.559c-.311.935,1.494.565.624,1.87-.624.935-1.559,1.558-3.429,0-2.13-1.776-3.749-3.447-5.922-3.429s-3.749-.329-2.805,1.559,4.668,1.23,4.675,2.805,1.238,3.724-.935,3.117a6.166,6.166,0,0,0-4.156.735c-2.438,1.6,0,2.04-1.71,3.383-1.3,1.027-2.62-.982-3.893.8-1.027,1.437-1.165,2.4-2.4,2.249-2.661-.328-2.182-2.182-2.182-4.363s-2.805-1.87-4.052.311c-.874,1.531.624,3.429-1.246,4.052a2.887,2.887,0,0,1-3.741-1.246c-.935-1.247-2.181-4.052-3.116-3.117s0,2.181-1.247,2.181-.623-3.116-1.247-2.181-.311,2.181-2.181,2.181c-.986,0,.935-2.805-.936-3.428s-2.493-.623-3.74.935-4.675,0-5.3-.623-2.494-1.559-2.494,0-.623,1.87-1.246,1.87-.646-4.068-2.182-4.052,0,2.805-1.87,2.805.289-1.263-.624-2.182-1.269,1.543-2.493,0,2.8-4.052,2.8-5.61c0-.853-2.182-.935-1.247-3.74.493-1.476,5.278-.644,5.922-1.87s4.655-.957,3.117-2.182-.644-2.827-2.493-2.805-1.559-2.182-1.247-2.805,2.182-1.559,2.182-.312.311,2.8,1.87,1.87,2.805-1.87.935-3.117-.935-2.805.623-3.116,5.3-1.247,2.8-2.494-3.428-2.181-4.363-.935-1.247,1.247-2.8.935-1.559-.935-1.559-2.805.935-3.428,1.87-2.493,2.494,2.181,3.429.311,1.558-2.181,2.493-1.87-.311,1.559.935,2.182.935-1.558,2.805-1.247,2.806-.935,1.247-2.181-3.117-2.805-1.247-3.741c1.764-.881,4.676.312,4.676-.623s-1.87-1.558-.935-2.182c.778-.518,2.181-1.87,3.116.312s0,3.429,2.182,3.429,5.922-.312,4.675-.936-1.246-1.558-.935-1.87,1.559-1.246,2.494-.623c1.739,1.16,0-1.558,1.246-1.558s.935,1.558,1.87,1.558,1.871-2.805,2.494-.935-.935,3.74.312,4.052,2.805-1.87,4.051-.935a1.866,1.866,0,0,1,.312,2.8c-.623.623-.312,1.247,0,1.247S161.913,178.88,160.978,179.5Z"/><path class="cls-5" d="M162.814,184.533c-1.35,1.35,1.853,2.779.463,2.779s0,1.389-.463,1.852-2.779-.463-2.315.927,2.315,2.315,4.631,1.852,1.852,1.389,2.778,1.389,2.316,0,1.853.927-.926,1.852-1.853,1.389-2.778-2.779-2.778-1.389,0,2.315,1.389,3.241,2.779,2.316,1.389,2.316-3.7,0-2.778.463,4.168.463,2.778,1.389-.926,1.39-2.315,1.39-3.7.463-2.316.926,2.316,0,3.705,0,2.779.926,2.316,1.852-1.853,2.316,0,2.316,4.168-.463,3.7.926-.927,2.316-1.853,1.852-2.779-2.315-2.779-1.389,1.39,1.853.464,2.316-2.316-2.779-4.168-2.316-.927,1.389-1.853,1.853-1.852,1.389-2.779.463-2.778-.463-2.315.926,1.852,5.094-.463,4.631-.463-5.094-2.779-4.631-1.852,3.242-2.778,2.779-2.316-.927-1.853,0,.463,1.389,1.853,1.389,2.778-.926,2.778.463,0,1.852-1.852,1.852-5.558,0-5.558-1.852,3.7-4.631.927-5.094S147.532,210,145.679,210s.926-2.315-.463-2.315-2.779.926-2.316,1.389,1.853,1.852.464,2.316S142.9,210,141.511,210s-2.779,0-2.315,1.39,1.852,0,1.389,1.389-2.779.463-2.779,1.389.926,0,1.39.463.463.927-.464,1.39-1.852.463-3.241-.463-1.853-1.853-2.316-1.853a.887.887,0,0,1-.463-1.389c.463-.463,1.389.926,2.316.463s3.241-2.779,1.852-3.242-1.852,0-2.315-1.389-2.779-.463-2.779-1.853,1.389-2.315,2.315-1.852,3.242,2.779,3.705,1.389.463-4.631-.926-4.631-3.242,1.389-4.168.463-.926,0-1.389,0-1.39,0-1.39-.926,2.316-.463,2.779-.926,1.389-1.389.463-1.389-.926.926-1.852.926-2.316-.463-1.853-1.39.927-.926,3.242-1.389,3.705-1.389,3.705-2.315a1.992,1.992,0,0,1,1.852-1.853c.927,0,1.853-1.852.463-1.852s-.926-.927-1.852-.927-1.852.927-1.389,1.39.463,1.389-.463,1.389,0-1.389-1.39-1.852-1.852-.463-1.389-1.853.926-1.389,1.852-1.389,3.242-1.389,3.705-.463,2.316,1.852,3.242.926-.463-2.779.926-2.779,3.242.927,3.242,0,.926-2.778,1.852-2.315,2.779-.926,1.853-1.389-1.389,0-2.316-.464-.926-1.852-2.315-1.852a3.915,3.915,0,0,1-2.779-.926c-.463-.463-.463-.926,0-.926s1.389.926,1.853.463,0-1.39.463-1.39,1.389,0,1.389.927.463,1.852,1.389,1.852.463-.926,2.316-1.389,4.168-1.853,4.168-.463-.926,3.241.463,2.778,0-1.852,1.389-1.389,4.631-1.389,4.631.463-1.852,2.779-.926,3.242,1.853-2.316,3.242-1.853,1.852.927,1.389,1.853,0,.463.463.926S163.277,184.07,162.814,184.533Z"/><path class="cls-5" d="M147.128,190.072c-1.31,0-1.852-.463-2.315,0s1.389.927.463,1.853-.926,0-1.853.463.464,1.852-.926,1.852-.463-1.852-1.852-2.315-1.853-1.389-2.779-1.389-.463.463,0,1.389,1.39.926.926,1.852.927,2.779,1.853,2.316,3.7-.926,2.778,0-.463,2.315-1.389,1.852a2.226,2.226,0,0,0-2.778.927c-.415.828.463,1.389,1.852.926s1.852-.926,2.315,0,.464.926,1.39,0,1.389-1.853,1.852-.463.463,2.778-.926,2.778-1.389-.926-2.779-.926-1.389,0-1.852,1.389-.926,2.316-2.316.927-2.778-1.39-2.778-.927.926.463,1.389,1.853-.926,2.778.926,2.778.463,2.316-.926,1.853-1.852.463-.463,1.389,1.852.463,2.779,0,2.315-2.778,2.778-.926,2.316.463,1.853,1.852.463,2.779-.927,2.316-2.315-.926-2.315,0,1.322.564.859,1.027-1.852.464-1.389.927,1.852-.463,1.389,1.389,2.383,2.677,3.309,1.288,2.779,0,3.7-1.852,4.168-1.853,2.778-3.242-1.389-4.168.464-3.705,3.241,2.316,4.168.463,1.389-2.315.926-3.7.463-1.852,1.389-1.389.926.926,2.316,0,.463-2.779,1.852-2.316,2.316,1.39,2.779-.463,1.175-2.187.463-2.778c-.993-.825-1.919-.362-1.853.926.034.654-.066,1.954-.993,1.027s-2.248-1.027-2.712-.1-2.315-.926-1.852-1.852.926-3.242,0-3.242-2.779-.926-.926-1.853,2.778-3.7,1.389-3.241-1.389-.463-2.315-.927-1.39-.926-1.853.464,0,2.778-1.389,2.315-1.853,0-2.316-1.852-.463-1.39-1.852-1.853-.926-.926-1.853-.463S147.591,190.072,147.128,190.072Z"/><rect class="cls-11" x="0.25" y="197.658" width="960" height="63.664"/><rect class="cls-11" x="0.25" y="203.658" width="960" height="63.664"/><rect class="cls-12" x="321.092" y="207.614" width="16" height="6"/><rect class="cls-12" x="444.568" y="214.083" width="16" height="6"/><rect class="cls-12" x="464.557" y="208.261" width="16" height="6"/><rect class="cls-12" x="616.176" y="213.369" width="16" height="6"/><rect class="cls-12" x="375.008" y="213.043" width="16" height="6"/><rect class="cls-12" x="120.358" y="214.083" width="16" height="6"/><rect class="cls-12" x="140.346" y="208.261" width="16" height="6"/><rect class="cls-12" x="291.965" y="213.369" width="16" height="6"/><rect class="cls-12" x="50.797" y="213.043" width="16" height="6"/><rect class="cls-12" x="715.97" y="207.614" width="16" height="6"/><rect class="cls-12" x="839.447" y="214.083" width="16" height="6"/><rect class="cls-12" x="859.435" y="208.261" width="16" height="6"/><rect class="cls-12" x="769.886" y="213.043" width="16" height="6"/><path class="cls-3" d="M361.516,199.559c-1.4.7-1.286-.643-2.572-.643s-.857-2.357-2.143-1.929.428,2.787-.429,3.858-.214,2.136-2.143,2.354-.643,1.5-1.072,3.433.857-1.072-1.5-.429-.214,2.143-.643,4.072,1.5,3.215-.214,3.215-2.144-5.358-3.215-3.643.428,2.572,0,4.072-2.786,1.5-1.929,2.786-1.5,2.572-2.143.857-4.072-1.929-3,0,6,3.215,5.144,3.858-4.929-.429-4.5,1.286.857,3,2.143,2.572,1.072-1.5,1.929-1.286-.214,1.5.643,1.5.643-1.929,1.5-1.5,2.358.857,1.286,2.143-1.071,1.715-3.214,1.715-2.787,1.929-1.5,3,1.715.429,4.072.429,7.073-1.884,6.216-.085-1.929,1.585-3.644,2.657-2.143,1.5-1.286,2.143,4.93.873,4.93-.53,2.143-2.47,2.786-1.828,2.143,1.072,2.786.215,2.572-1.715,3.215-1.072a2.173,2.173,0,0,0,3,.429c1.5-.857,4.93-.214,5.787.643s2.572,2.143,3.858,1.071,1.286-3.429,2.786-3,3.429,2.143,3.429.429-.857-.643-1.286-1.715a1.741,1.741,0,0,1,2.572-1.929c1.715.857,4.5,1.5,4.5.429s.643-1.286,1.5-1.929,1.715-2.143.643-2.572-4.5.643-4.5-1.5,2.358-1.715,2.144-3-.215-.643-1.072-1.714,1.715-.429,1.072-1.072-.858-1.5-2.786-1.5-3,2.572-4.5.428.214-5.143-1.5-6.215-2.143-1.929-2.357-3-.857-1.929-1.715-1.286-1.929,1.286-2.571,0,3.429-2.358,1.928-3.43-2.143,0-3-.857,1.5-.857.643-1.929-.214-2.572-1.5-2.143-1.715.857-1.286,1.286,1.286,1.715.214,1.715-.857-.858-2.786-1.715-1.072-3.429-2.143-3.215-1.715,1.286-2.358,1.929S362.373,199.131,361.516,199.559Z"/><path class="cls-3" d="M366.021,214.2c-2.662,1.331-1.569-2.823-3.764-3.137s-.314,3.137-1.883,3.137-2.509-.628-2.509-2.823-.941-3.137-2.823-2.51-6.588-.627-6.588.941.941.941,2.2,2.51,3.451-.314,4.392.627-.941,3.451.627,4.078,4.078-.627,3.137,1.255-4.078,2.823-2.51,4.078a2.524,2.524,0,0,0,4.078-.941c.628-1.569,3.137-4.392,3.137-2.2s2.2,3.45,3.137,2.509,3.451-.941,2.2-2.2-3.451-1.882-2.51-2.823.942.314,2.824-.313,2.823-1.883,1.882-2.51S367.276,213.574,366.021,214.2Z"/><path class="cls-3" d="M354.909,220.434c-.84,0-.8.8-1.86.532s0-1.329-1.062-1.594-.8,1.062-2.125.265-3.188-1.859-2.657.532,3.454,1.859,1.86,3.187,3.187,1.86,2.39,3.188-2.656.265-2.921,1.859-.8,1.328-2.657.8-2.125-1.328-3.453,0-.8,2.125.532,2.656,3.718-1.062,3.718.266-.265,2.125,2.125,1.593,2.656-1.062,4.25-.8,3.453,1.593,3.719-.266,1.859-2.922.265-3.453-2.124,1.328-3.453.531-2.125-1.594.266-2.39,4.25-1.329,4.25-2.657-.8.266-1.328-1.328S355.705,220.434,354.909,220.434Z"/><path class="cls-3" d="M379.426,223.833c-1.08,1.08-1.454,1.194-2.066.753-.7-.5-.251-2.009-1.256-2.009s-.753,1.507-1.758,1.507a15.707,15.707,0,0,1-3.015-.251c-1.759-.251-2.512,0-2.512,1.256s2.512,2.01,1.507,3.015-1.759,1-1.759,2.01,1.508,1.256.5,1.758-4.02-.251-3.517,1,1.507.251,1.507,1.507,1,1.759,2.512,1.257,1.508-2.261,3.015-1.759,2.261-1,3.769-1.759,3.266-2.261,3.768-1.256,2.512,1.508,2.764.251,1.06-2.009.307-2.763-2.569-4.02-1.061-3.769,4.522,1.508,4.02-.251-.5-3.768-2.262-3.768-1.7,1-2.958,1S379.929,223.33,379.426,223.833Z"/><path class="cls-13" d="M779.086,183.69c-.3-.119-1.4-.345-1.5-.046s.893.585,1.288.7"/><polyline class="cls-14" points="787.247 199.169 782.768 201.645 782.446 200.424"/><polyline class="cls-14" points="784.473 198.192 780.64 199.981 780.291 198.82"/><path class="cls-15" d="M788.706,191.822a9.561,9.561,0,0,1,4.67,4.5s5.436-1.349,6.291-1.351,1.243.064,1.355.6c.082.4-.492.91-1.024,1.2-.421.231-7.434,4.66-14.834,1.665-5.514-2.232-5.277-4.9-5.059-6.8a45.153,45.153,0,0,1-1.2-6.061c-.011-.8-.225-1.969.792-2.077.743-.078,1.068.737,1.44,1.824.361,1.055,1.56,4.491,2.392,4.833C784.864,190.709,786.307,190.781,788.706,191.822Z"/><path class="cls-14" d="M783.417,193.527c1.15,2.964,5.145,3.519,7.062,2.542"/><rect class="cls-12" x="593.577" y="207.061" width="16" height="6"/><rect class="cls-16" x="0.25" width="960" height="290"/></g></g></svg>