<svg xmlns="http://www.w3.org/2000/svg" width="6.94in" height="1.53in" viewBox="0 0 500 110"><defs><style>.a{fill:#d7282f;}</style></defs><title>Brettflix-logo</title><path class="a" d="M51.64,23.45v3.64c0,10.49-3.48,17.2-11.17,21.13v.29c9.25,2.77,12.86,10.05,12.84,20.8v8.28c0,15.7-9,25.27-26.2,28C16.25,107.22,10.83,108.11,0,110V0H26.07C44,0,51.66,7.72,51.64,23.45ZM17.27,15.3c0,11.32,0,17,0,28.31L24,43.17c6.43-.41,10.36-3.33,10.36-11.69V25.66c0-7.46-2.66-10.68-8.78-10.55Zm0,43.61c0,13.15,0,19.73,0,32.89,3.95-.55,5.93-.81,9.88-1.34,5.8-.77,8.94-3.7,8.94-11.43V70c0-9.68-3.28-12.39-11.13-11.72Z"/><path class="a" d="M99.41,96.15c-.93-2.37-1.56-3.83-1.55-11.67,0-6,0-9.08,0-15.13,0-8.95-3.44-12-11.29-11.52l-6,.41,0,40c-6.91.81-10.36,1.24-17.26,2.14L63.44,0H89.51c17.9,0,25.58,7.16,25.56,21.76,0,3,0,4.46,0,7.43,0,9.73-3.64,16.08-11.33,19.62v.28c8.64,2.69,11.45,9.56,11.44,19.42,0,5.84,0,8.76,0,14.6,0,4.59.15,8,1.87,11.31C110,95.07,106.45,95.41,99.41,96.15ZM80.7,14l0,30.18,6.75-.35c6.44-.33,10.37-3,10.38-10.69,0-3.8,0-5.7,0-9.5,0-6.88-2.66-9.87-8.78-9.77Z"/><path class="a" d="M143.79,38.86c9.49-.3,14.23-.43,23.72-.66,0,5.18,0,7.77,0,12.95-9.49.31-14.23.48-23.72.88,0,10.8,0,16.2,0,27,11.94-.76,17.92-1.08,29.86-1.62,0,5.16,0,7.74,0,12.9-18.87,1-28.3,1.65-47.15,3.27q.07-46.8.14-93.58h47.11c0,5.16,0,7.74,0,12.9-11.94.09-17.91.15-29.84.27C143.81,23.45,143.8,28.58,143.79,38.86Z"/><path class="a" d="M181.69,0h53.39V12.62c-7.22,0-10.84,0-18.06.05q0,38,0,76c-6.92.16-10.38.26-17.3.5l.06-76.42c-7.22,0-10.84,0-18.06.1C181.68,7.71,181.69,5.14,181.69,0Z"/><path class="a" d="M240,0h53.39c0,5.08,0,7.62,0,12.71-7.22,0-10.83-.05-18.06-.07l0,75.87c-6.92-.13-10.38-.17-17.3-.2q0-37.85,0-75.69H240Z"/><path class="a" d="M319,40c8.92.19,13.38.3,22.3.55l0,13c-8.92-.34-13.39-.48-22.31-.73,0,14.85,0,22.27,0,37.12-6.92-.33-10.38-.47-17.29-.72q0-44.61-.08-89.21h45.7V13.08C336,13,330.33,12.93,319,12.85,319,23.69,319,29.11,319,40Z"/><path class="a" d="M356.47,0h17.28l.12,80.23c11.37.84,17.06,1.31,28.42,2.34,0,5.5,0,8.25,0,13.76-18.27-1.93-27.41-2.76-45.7-4.11Q356.54,46.11,356.47,0Z"/><path class="a" d="M410.49,0h17.28q.06,49.64.13,99.26c-6.91-.85-10.36-1.26-17.26-2Z"/><path class="a" d="M498.74,0c-7.22,21.33-10.82,31.68-18,51.86C488.44,74.43,492.3,86,500,110c-7.26-1.27-10.9-1.88-18.17-3-5.58-17.83-8.38-26.55-14-43.64l-.32,0c-5.63,16.06-8.44,23.92-14.07,39.37-6.46-.91-9.69-1.35-16.16-2.19,7.7-19.66,11.54-29.71,19.24-50.38C449.31,29.54,445.69,19.55,438.44,0h17.91c5.16,15.2,7.74,22.93,12.9,38.69l.31,0c5.27-15.19,7.9-22.92,13.17-38.71Z"/></svg>