<svg xmlns="http://www.w3.org/2000/svg" width="48" height="48" viewBox="0 0 48 48"><defs><style>.cls-1{fill:#fff;}.cls-2{fill:none;}</style></defs><g id="Layer_2" data-name="Layer 2"><g id="Layer_1-2" data-name="Layer 1"><polygon class="cls-1" points="21 22 16 22 24 32 32 22 27 22 27 10 21 10 21 22"/><path class="cls-1" d="M11,29h2a1,1,0,0,1,1,1v5a1,1,0,0,0,1,1H33a1,1,0,0,0,1-1V30a1,1,0,0,1,1-1h2a1,1,0,0,1,1,1v8a2,2,0,0,1-2,2H12a2,2,0,0,1-2-2V30A1,1,0,0,1,11,29Z"/><rect class="cls-2" width="48" height="48"/></g></g></svg>