<svg xmlns="http://www.w3.org/2000/svg" xmlns:xlink="http://www.w3.org/1999/xlink" width="160" height="80" viewBox="0 0 160 80"><defs><style>.cls-1,.cls-13{fill:#053437;}.cls-2{fill:none;}.cls-20,.cls-3,.cls-9{fill:#ddd;}.cls-3,.cls-5{opacity:0.8;}.cls-4{fill:#003437;}.cls-18,.cls-5{fill:#aaa;}.cls-11,.cls-6{fill:#fff;}.cls-12,.cls-13,.cls-14,.cls-16,.cls-17,.cls-20,.cls-22,.cls-6,.cls-7{fill-rule:evenodd;}.cls-7{fill:#2bb5e9;}.cls-8{clip-path:url(#clip-path);}.cls-10{clip-path:url(#clip-path-2);}.cls-12{fill:#f0403d;}.cls-14{fill:#f47925;}.cls-15{fill:#f7ce05;}.cls-16{fill:#f6e55a;}.cls-17{fill:#33d67b;}.cls-19{fill:#caecf9;}.cls-21{clip-path:url(#clip-path-3);}.cls-22{fill:gray;}</style><clipPath id="clip-path"><path class="cls-1" d="M85.38131,58.03408a2.214,2.214,0,0,1-.54053-.0664l-1.188-.29688a1.25005,1.25005,0,0,1-.58057-2.09668l1.9502-1.95019a2.26034,2.26034,0,0,1,2.13671-.5918l1.188.29687a1.24985,1.24985,0,0,1,.58057,2.09668l-1.9502,1.9502A2.26125,2.26125,0,0,1,85.38131,58.03408Zm-.41943-.55078a1.7649,1.7649,0,0,0,1.66211-.46094l1.95019-1.95019a.7504.7504,0,0,0-.34863-1.25879l-1.1875-.29688a1.76117,1.76117,0,0,0-1.66211.46094l-1.95019,1.9502a.75071.75071,0,0,0,.34814,1.25879Z"/></clipPath><clipPath id="clip-path-2"><path class="cls-1" d="M78,55.2499a.25939.25939,0,0,1-.06689-.00879l-18-5a.25035.25035,0,0,1-.021-.47558l8-3a.25408.25408,0,0,1,.15479-.00684l18,5a.25036.25036,0,0,1,.021.47559l-8,3A.24735.24735,0,0,1,78,55.2499ZM60.80661,49.96475l17.18164,4.77246,7.20507-2.70215L68.01168,47.2626Z"/></clipPath><clipPath id="clip-path-3"><path class="cls-1" d="M100.84127,71.63174a.24836.24836,0,0,1-.125-.03321l-7-4.042a.2505.2505,0,0,1,0-.43359l5.19629-3a.24874.24874,0,0,1,.25,0l7,4.042a.2505.2505,0,0,1,0,.43359l-5.19629,3A.24833.24833,0,0,1,100.84127,71.63174Zm-6.5-4.292,6.5,3.75293,4.69629-2.71094-6.5-3.75293Z"/></clipPath></defs><g id="Layer_2" data-name="Layer 2"><g id="Layer_2-2" data-name="Layer 2"><rect class="cls-2" width="160" height="80"/><path class="cls-3" d="M80.56117,43.95288c-.59991-2.51015,9.08334-2.24472,8.99081-3.82155-.08075-1.37592,2.3531,1.07511,2.31217.09634-.04575-1.094,9.58337-2.03564,14.26925-3.23641,3.92168-1.00495,5.84213-3.16373,5.84213-3.94724,0-1.71969-3.00946-1.43307-3.00946-2.14961s1.93465-.35827,1.863-1.71969-5.23072-.07166-5.01576-1.79135,10.59278.34464,7.15641-2.42683a6.32955,6.32955,0,0,0-3.106-.70994c-5.32844-.33131-19.88807.11726-19.85474,2.34971.02135,1.42979,1.89952.83079,1.91056,1.81.01314,1.16447-.91378.93247-.91378,1.94141,0,2.3435,12.01961-2.11688,11.97493-.13141-.02686,1.19347-1.35091.86407-1.30723,2.01112.04209,1.10531,2.03017.29763,2.01112,1.50833-.03,1.9089-17.12137-1.04567-20.01062,2.5139-.73148.9012,1.5191.50282,1.50834,1.81Z"/><path class="cls-4" d="M80.561,44.203a.24722.24722,0,0,1-.05322-.00586.2503.2503,0,0,1-.18994-.18653,1.09413,1.09413,0,0,1,.15136-.88281,2.40064,2.40064,0,0,1,1.03614-.78418l3.42382-4.36621c-.03662-.40234-.38379-.5625-.89746-.75488-.33838-.127-.6582-.24707-.73779-.53906a.69371.69371,0,0,1,.18555-.59082c1.75049-2.15625,8.23047-2.03516,13.437-1.93262,2.94336.05859,5.98389.11523,6.48437-.36914.03321-.03223.03369-.04981.03369-.0586.00586-.37207-.21826-.44629-.81347-.55078-.49317-.08593-1.16895-.2041-1.19776-.94433a1.25786,1.25786,0,0,1,.74268-1.208c.32178-.20606.55469-.35449.56494-.81836a.12538.12538,0,0,0-.04931-.11231c-.49952-.42089-3.1294.084-5.24317.49024-2.85693.54785-5.55566,1.06738-6.39551.37207a.77.77,0,0,1-.28711-.61328,1.30955,1.30955,0,0,1,.51514-1.07129.97031.97031,0,0,0,.39844-.86719c-.00244-.22754-.147-.30566-.6416-.458-.5293-.16406-1.2544-.38671-1.26856-1.35058a.89476.89476,0,0,1,.31543-.666c2.02637-1.93359,14.96143-2.23828,19.80469-1.9375a6.28655,6.28655,0,0,1,3.24756.76563c.40478.32617.92383.8164.7583,1.29492-.23731.6875-1.65381.74023-3.94531.76953-1.51758.02051-3.811.04981-3.87842.58789a.3644.3644,0,0,0,.07617.30274c.30566.3623,1.375.41308,2.31836.457,1.32519.0625,2.57715.12109,2.62256.9873.05176.98242-.76563,1.252-1.30664,1.42969-.27295.09082-.55567.18359-.55567.30273.04785.10352.54493.23926.84229.32032.91455.251,2.167.59277,2.167,1.8291,0,.94922-2.01514,3.16113-6.03027,4.18945-1.79151.459-4.28955.87891-6.70508,1.28418-3.01514.50684-7.14453,1.2002-7.37891,1.7207a.42791.42791,0,0,1-.19092.41407c-.28271.17089-.6875-.04493-1.1997-.32227a2.65715,2.65715,0,0,0-.91114-.377.72192.72192,0,0,0-.00781.16406c.05323.91113-1.65722,1.22559-4.0249,1.66016a21.18793,21.18793,0,0,0-3.95508.97265l-1.064,1.35742A.24909.24909,0,0,1,80.561,44.203Zm12.89014-9.58692c-4.09717,0-8.34619.26758-9.583,1.791-.0874.10742-.09033.15234-.09033.15332a1.83507,1.83507,0,0,0,.42968.19336c.49024.18457,1.23194.46191,1.22461,1.30762a.25.25,0,0,1-.05322.15234l-2.9751,3.79394a30.32305,30.32305,0,0,1,3.28272-.72265c1.5376-.28223,3.64355-.669,3.61621-1.13867a.6274.6274,0,0,1,.23975-.61621c.34521-.21973.86621.06054,1.417.36035a4.30635,4.30635,0,0,0,.65576.31347c.09277-.8125,2.27441-1.25293,7.79248-2.17968,2.40527-.40332,4.89258-.82129,6.66357-1.27539,3.95313-1.0127,5.6543-3.16114,5.6543-3.70508,0-.791-.77978-1.06739-1.79932-1.34668-.64892-.17774-1.21-.33106-1.21-.80274,0-.48047.47754-.63867.89893-.77734.61963-.2041.99365-.36914.96435-.92969-.022-.41308-1.20019-.46875-2.147-.51269-1.14746-.05469-2.23144-.10547-2.67724-.63575a.85645.85645,0,0,1-.19-.68652c.1211-.96973,2.08936-.99512,4.36768-1.02539,1.332-.0166,3.34473-.043,3.47949-.43262.02637-.07519-.0708-.3164-.59961-.74316a6.05763,6.05763,0,0,0-2.96435-.6543c-4.88819-.30761-17.6167.07031-19.42871,1.79883a.41784.41784,0,0,0-.16065.29688c.0083.57128.35352.707.91553.87988.43994.13574.98779.30469.99463.93066a1.45445,1.45445,0,0,1-.5586,1.24024.82162.82162,0,0,0-.355.7041.274.274,0,0,0,.10547.22851c.65821.542,3.61084-.02343,5.98291-.47851,3.09961-.5957,5.02539-.91992,5.66016-.38086a.623.623,0,0,1,.22656.50586,1.375,1.375,0,0,1-.7959,1.22754c-.31787.20312-.52832.33691-.51172.76758.01075.291.19581.36914.78418.47168.52344.09179,1.24024.21679,1.227,1.05078a.57674.57674,0,0,1-.186.41015c-.62061.59864-2.88867.584-6.84131.50977C95.81979,34.63857,94.64205,34.61611,93.45114,34.61611Z"/><path class="cls-1" d="M88,54.2499a.24977.24977,0,0,1-.10058-.47851c2.17969-.959,2.20849-2.44141,2.23877-4.01075a5.5405,5.5405,0,0,1,.56885-2.85253c.77685-1.294,2.51709-1.39356,4.19921-1.49024,1.40772-.08008,2.8628-.16309,3.69971-.93555.24561-.22656.22217-.3955.17481-.5166-.54541-1.39453-6.67774-2.97656-8.45215-2.97656a.25.25,0,0,1,0-.5c1.76025,0,8.23877,1.55762,8.918,3.294a.916.916,0,0,1-.30176,1.0664c-.96826.89453-2.51465.98242-4.00977,1.06738-1.62451.09375-3.1582.18067-3.79931,1.249a5.09139,5.09139,0,0,0-.49756,2.60449c-.03076,1.58008-.06543,3.37109-2.5376,4.458A.24532.24532,0,0,1,88,54.2499Z"/><path class="cls-1" d="M76.43258,50.081a.25006.25006,0,0,1-.082-.48633c1.37744-.47656,2.63477-1.708,2.56787-2.2793-.03076-.26172-.416-.35547-.7334-.38672-.47021-.04687-1.0205-.07324-1.60351-.10058-1.83155-.085-3.72559-.17383-4.25489-.94532a.88911.88911,0,0,1-.09033-.81738c.36914-1.10742,3.71338-2.65918,6.457-3.30664,1.40235-.33105,3.92237-.72168,5.02588.38184a.25.25,0,0,1-.35351.35351c-.68116-.68164-2.34131-.77343-4.55762-.248-2.98389.7041-5.84668,2.22558-6.09717,2.97753a.38956.38956,0,0,0,.02783.376c.38916.56738,2.3169.65723,3.86573.72949.58984.02735,1.147.05371,1.63037.10157.90576.09082,1.1416.5,1.18017.82617.1128.96191-1.49463,2.32324-2.90039,2.81054A.24094.24094,0,0,1,76.43258,50.081Z"/><path class="cls-3" d="M77.93788,37.26948v.05311c0,.82843,2.01472,1.5,4.5,1.5s4.5-.67157,4.5-1.5"/><path class="cls-3" d="M86.93788,37.26948c-.78851-7.26234-11.423-3.63964-11.90763-5.66734C74.43034,29.092,91.56151,29.79377,91.469,28.21693c-.08074-1.37592-2.252-.23935-2.29292-1.21812-.04575-1.094,6.74055-1.15751,11.42643-2.35829,3.92168-1.00494,5.84213-3.16373,5.84213-3.94724,0-1.71969-3.00946-1.43307-3.00946-2.14961s1.93465-.35827,1.863-1.71969-5.23072-.07165-5.01576-1.79134,6.52049,1.71969,7.52364-2.57954A6.10316,6.10316,0,0,0,105.59481,6c1.30722,2.11167,0,5.32945-1.30723,5.63112s-19.84283.382-19.8095,2.61445c.02135,1.42979,1.89952.83079,1.91056,1.81.01313,1.16447-.91378.93247-.91378,1.94142,0,2.34349,12.01961-2.11689,11.97492-.13142-.02686,1.19347-1.3509.86407-1.30722,2.01112.04209,1.10531,2.03017.29763,2.01112,1.50834-.03,1.90889-20.016.79266-20.01062,2.51389.00365,1.1607,1.5191.50283,1.50834,1.81"/><path class="cls-4" d="M82.438,39.07217c-2.30273,0-4.75-.61328-4.75-1.75a.27406.27406,0,0,1,.25-.27637.229.229,0,0,1,.25.22363v.05274c0,.52148,1.6167,1.25,4.25,1.25s4.25-.72852,4.25-1.25a.25.25,0,0,1,.5,0C87.188,38.45889,84.74069,39.07217,82.438,39.07217Z"/><path class="cls-4" d="M86.93746,37.51943a.24947.24947,0,0,1-.248-.22265c-.49268-4.53516-5.03565-4.62207-8.35254-4.68457-1.9375-.03711-3.3374-.06348-3.54981-.95118a.77534.77534,0,0,1,.13721-.65332c.773-1.06054,4.4707-1.42089,9.61035-1.81347,2.72852-.209,6.46533-.49414,6.687-.97754-.02929-.4502-.34521-.502-1.05859-.50977-.50977-.00586-1.208-.01269-1.23682-.69726-.03418-.82227,1.67286-1.0791,5.22657-1.53711a55.58319,55.58319,0,0,0,6.38769-1.07422c3.95313-1.0127,5.6543-3.16113,5.6543-3.70508,0-.791-.77979-1.06738-1.79932-1.34668-.64941-.17773-1.21045-.33105-1.21045-.80273,0-.48047.47754-.63867.89893-.77735.62012-.2041.99414-.36914.96484-.92968-.022-.41309-1.20068-.46875-2.14746-.51368-1.14746-.05371-2.23144-.10449-2.67724-.63476a.85925.85925,0,0,1-.19-.68652c.11329-.90625,1.26075-.78516,2.5918-.64454,1.94824.207,4.37109.46387,4.93652-1.96093a5.85189,5.85189,0,0,0-1.30957-5.46875,5.21638,5.21638,0,0,1-.28515,3.18261,2.765,2.765,0,0,1-1.624,1.76368c-.33154.07714-1.48291.13085-3.65966.22656-4.36963.19336-15.97754.707-15.95606,2.1416.00879.57129.35352.707.916.87988.43994.13574.9873.30469.99463.93067a1.45585,1.45585,0,0,1-.5586,1.24023.82163.82163,0,0,0-.355.7041.274.274,0,0,0,.10547.22852c.65772.542,3.61133-.02344,5.98438-.47852,3.09619-.5957,5.02343-.91894,5.6582-.38183a.623.623,0,0,1,.22656.50586,1.37539,1.37539,0,0,1-.7959,1.22851c-.31787.20313-.52783.33789-.51123.76758.01074.291.1958.36914.78418.47168.52344.09082,1.24024.21582,1.227,1.0498-.01757,1.10157-3.25732,1.32911-10.645,1.58692-3.83984.13379-9.09912.31738-9.36718.93262.00293.36425.1748.44628.56445.59375a1.17048,1.17048,0,0,1,.94531,1.209.24976.24976,0,0,1-.25.248h-.002a.25019.25019,0,0,1-.248-.252c.00391-.5-.24512-.59472-.62256-.7373a1.08286,1.08286,0,0,1-.88574-1.06934c-.00293-.9834,2.84766-1.18066,9.84815-1.4248,3.54785-.123,10.15087-.35352,10.16259-1.09473.00586-.37109-.21826-.44531-.813-.5498-.49365-.08594-1.16992-.20313-1.19824-.94434a1.25754,1.25754,0,0,1,.74219-1.208c.32178-.206.55469-.35449.56494-.81933a.12538.12538,0,0,0-.04931-.11231c-.4961-.4209-3.12793.085-5.24122.49024-2.85742.54882-5.5581,1.06836-6.397.373a.7699.7699,0,0,1-.28711-.61328,1.30691,1.30691,0,0,1,.51563-1.07129.97246.97246,0,0,0,.39795-.86718c-.00244-.22754-.147-.30567-.64209-.458-.5293-.16406-1.25391-.38672-1.26856-1.35059-.02392-1.60644,6.00781-2.1875,16.43408-2.64844,1.8252-.081,3.26709-.14453,3.56934-.21386a2.3853,2.3853,0,0,0,1.2749-1.46973,4.28383,4.28383,0,0,0-.124-3.78613.25025.25025,0,0,1,.35156-.33985,6.4075,6.4075,0,0,1,2.31592,6.71778c-.666,2.85449-3.44775,2.56152-5.47656,2.34472-1.02344-.10937-1.98975-.21191-2.043.21a.36192.36192,0,0,0,.07617.30175c.30518.36328,1.375.41309,2.31836.458,1.32568.0625,2.57764.12109,2.62305.98731.05175.98242-.76612,1.25195-1.30713,1.42968-.27295.09082-.55567.1836-.55567.30274.04785.10351.54493.23926.84229.32031.91455.251,2.16748.59277,2.16748,1.8291,0,.94922-2.01514,3.16113-6.03027,4.18945a55.92727,55.92727,0,0,1-6.44776,1.08594c-1.91455.24707-4.80762.61914-4.79053,1.01953.00684.17188.14551.21289.74219.21875.59424.00586,1.49268.01563,1.55029.99512.0503.8584-1.91992,1.09082-7.146,1.49023-3.80811.292-8.54785.6543-9.24414,1.60938a.27431.27431,0,0,0-.05518.24219c.12256.51269,1.55567.54,3.07276.56836,3.30517.0625,8.30029.15722,8.84033,5.12988a.24946.24946,0,0,1-.22168.27539A.12694.12694,0,0,1,86.93746,37.51943Z"/><path class="cls-5" d="M76.96983,39.353c-.00421-2.24927-3.41642-.90435-3.43745-2.59218-.03131-2.5119,25.01393-1.8262,24.86544-5.29346-.0719-1.679-2.92666-.934-2.90637-2.38668.02931-2.09785,10.50339.29382,10.50855-4.05648C106.00515,20.67759,100.83624,20,100.83624,20c1.81429.6978,2.5227,3.39028,0,3.62858-1.67308.158-13.90394.3044-13.93387,2.3976-.02438,1.705,2.93452.67269,2.97563,2.34379"/><path class="cls-4" d="M76.96969,39.60342a.24986.24986,0,0,1-.25-.25c-.00146-.92969-.64014-1.10938-1.69092-1.294-.813-.14355-1.73437-.30566-1.74658-1.2959-.0166-1.32031,4.03223-1.75293,11.18994-2.40234,5.80127-.52637,13.7461-1.24707,13.67578-2.88281-.02734-.64063-.53808-.83106-1.376-1.06836-.72315-.20606-1.543-.43848-1.53028-1.333.01514-1.0918,1.815-1.19922,4.09375-1.33594,2.85645-.17187,6.41211-.38476,6.41455-2.71679.00342-2.80079-2.24023-3.99512-3.70849-4.47754a2.414,2.414,0,0,1,.66553,1.87011,1.80367,1.80367,0,0,1-1.84717,1.46094c-.27832.02637-.84619.05274-1.60059.08692-8.01953.36621-12.09277,1.06152-12.10693,2.06543-.00879.623.48193.76269,1.2832.94043.74268.16406,1.667.36816,1.69238,1.39355a.25007.25007,0,1,1-.5.01172c-.01464-.60254-.5039-.74121-1.30029-.917-.75293-.167-1.69043-.374-1.67529-1.43653.02344-1.6455,5.04736-2.21289,12.584-2.55761.74317-.03321,1.30274-.0586,1.57666-.085.82129-.07714,1.31787-.44335,1.39893-1.03125a2.21643,2.21643,0,0,0-1.46533-2.11523.25018.25018,0,0,1,.12256-.48144c.05371.00683,5.38623.75878,5.38085,5.27246-.00293,2.80371-3.81884,3.03222-6.88476,3.21582-1.77734.10644-3.61475.21679-3.62354.84472-.00683.48633.439.63672,1.167.84375.75488.21387,1.69433.48047,1.73925,1.52832.084,1.96485-5.54052,2.623-14.13086,3.40235-4.53515.41211-10.74658.97558-10.73486,1.89843.00635.52149.41113.64649,1.333.80957.93652.165,2.10205.37012,2.10449,1.78614a.24976.24976,0,0,1-.24951.25Z"/><polygon class="cls-6" points="78 36.5 80 35 89 37.5 88 45.5 86 47 78 36.5"/><path class="cls-1" d="M86,47.2499a.24921.24921,0,0,1-.19873-.09863l-8-10.5a.25008.25008,0,0,1,.04883-.35156l2-1.5a.25966.25966,0,0,1,.2168-.041l9,2.5a.2502.2502,0,0,1,.18115.27246l-1,8a.25034.25034,0,0,1-.09814.169l-2,1.5A.25223.25223,0,0,1,86,47.2499ZM78.35153,36.54873,86.0483,46.65127l1.7168-1.28809.96-7.67968-8.67334-2.41016Z"/><polygon class="cls-6" points="87 39 86 47 77 44.5 78 36.5 87 39"/><path class="cls-1" d="M86,47.2499a.25939.25939,0,0,1-.06689-.00879l-9-2.5a.25019.25019,0,0,1-.18115-.27246l1-8a.24768.24768,0,0,1,.10937-.17676.25512.25512,0,0,1,.20557-.0332l9,2.5a.2502.2502,0,0,1,.18115.27246l-1,8a.24766.24766,0,0,1-.10937.17676A.2527.2527,0,0,1,86,47.2499Zm-8.72509-2.93359,8.51318,2.36523.937-7.498-8.51318-2.36524Z"/><polygon class="cls-6" points="73 25 77 22 95 27 93 43 89 46 73 25"/><path class="cls-1" d="M89,46.2499a.24921.24921,0,0,1-.19873-.09863l-16-21a.25008.25008,0,0,1,.04883-.35156l4-3a.26035.26035,0,0,1,.2168-.041l18,5a.2502.2502,0,0,1,.18115.27246l-2,16a.25034.25034,0,0,1-.09814.169l-4,3A.25223.25223,0,0,1,89,46.2499ZM73.35153,25.04873,89.0483,45.65127l3.7168-2.78809,1.96-15.67968L77.05172,22.27334Z"/><polygon class="cls-6" points="91 30 89 46 71 41 73 25 91 30"/><path class="cls-1" d="M89,46.2499a.25939.25939,0,0,1-.06689-.00879l-18-5a.25019.25019,0,0,1-.18115-.27246l2-16a.24768.24768,0,0,1,.10937-.17676.25138.25138,0,0,1,.20557-.0332l18,5a.2502.2502,0,0,1,.18115.27246l-2,16a.24766.24766,0,0,1-.10937.17676A.2527.2527,0,0,1,89,46.2499ZM71.27487,40.81631l17.51318,4.86523,1.937-15.498L73.21188,25.31826Z"/><polygon class="cls-7" points="88.5 31.375 87 43.375 73.5 39.625 75 27.625 88.5 31.375"/><path class="cls-1" d="M87,43.6249a.25939.25939,0,0,1-.06689-.00879l-13.5-3.75a.25019.25019,0,0,1-.18115-.27246l1.5-12a.24768.24768,0,0,1,.10937-.17676.25864.25864,0,0,1,.20557-.0332l13.5,3.75a.2502.2502,0,0,1,.18115.27246l-1.5,12a.24766.24766,0,0,1-.10937.17676A.2527.2527,0,0,1,87,43.6249ZM73.77487,39.44131l13.01318,3.61523,1.437-11.498L75.21188,27.94326Z"/><path class="cls-1" d="M91,30.2499a.24987.24987,0,0,1-.1499-.45019l4-3a.2501.2501,0,1,1,.29981.40039l-4,3A.25223.25223,0,0,1,91,30.2499Z"/><rect class="cls-2" x="60" y="47" width="29" height="13"/><path class="cls-6" d="M89.0447,54.5704l0,1.49522-.00019-.03922a.98567.98567,0,0,1-.29338.72253l-1.9504,1.9504a2,2,0,0,1-1.89928.52607l-1.188-.297a.99716.99716,0,0,1-.75795-.95473l-.00019-.00447,0-1.50231"/><path class="cls-1" d="M85.38131,59.53408a2.214,2.214,0,0,1-.54053-.0664l-1.188-.29688a1.23946,1.23946,0,0,1-.94727-1.19238V56.4667a.25.25,0,0,1,.5,0v1.50293a.74718.74718,0,0,0,.56885.7168l1.1875.29687a1.76009,1.76009,0,0,0,1.66211-.46094l1.95019-1.95019a.73844.73844,0,0,0,.22022-.541h.00049V54.57021a.25.25,0,1,1,.5,0v1.49512l-.001.02246a1.236,1.236,0,0,1-.36621.83789l-1.9502,1.9502A2.26125,2.26125,0,0,1,85.38131,59.53408Z"/><polygon class="cls-6" points="86 54 78 57 60 52 60 50 86 52 86 54"/><path class="cls-1" d="M78,57.2499a.25939.25939,0,0,1-.06689-.00879l-18-5A.25036.25036,0,0,1,59.75,51.9999v-2a.251.251,0,0,1,.08008-.18359.23326.23326,0,0,1,.189-.06543l26,2a.24945.24945,0,0,1,.231.249v2a.25041.25041,0,0,1-.1621.23438l-8,3A.24735.24735,0,0,1,78,57.2499ZM60.25,51.80947l17.73829,4.92774L85.75,53.82705v-1.5957l-25.5-1.96192ZM86,53.9999h0Z"/><path class="cls-1" d="M85.38131,58.03408a2.214,2.214,0,0,1-.54053-.0664l-1.188-.29688a1.25005,1.25005,0,0,1-.58057-2.09668l1.9502-1.95019a2.26034,2.26034,0,0,1,2.13671-.5918l1.188.29687a1.24985,1.24985,0,0,1,.58057,2.09668l-1.9502,1.9502A2.26125,2.26125,0,0,1,85.38131,58.03408Zm-.41943-.55078a1.7649,1.7649,0,0,0,1.66211-.46094l1.95019-1.95019a.7504.7504,0,0,0-.34863-1.25879l-1.1875-.29688a1.76117,1.76117,0,0,0-1.66211.46094l-1.95019,1.9502a.75071.75071,0,0,0,.34814,1.25879Z"/><g class="cls-8"><path class="cls-6" d="M84.90143,57.72536l-1.188-.297a1,1,0,0,1-.46457-1.67725l1.9504-1.9504a2,2,0,0,1,1.89928-.52607l1.188.297a1,1,0,0,1,.46457,1.67725l-1.9504,1.9504A2,2,0,0,1,84.90143,57.72536Z"/><path class="cls-9" d="M86.41793,55.33193a.25.25,0,0,1-.17675-.42675l1.582-1.582a.25.25,0,1,1,.35351.35352l-1.582,1.582A.24918.24918,0,0,1,86.41793,55.33193Z"/><path class="cls-9" d="M90,56.22744a.21711.21711,0,0,1-.06054-.00781l-7.91065-1.97754a.24961.24961,0,0,1-.18213-.30273.24352.24352,0,0,1,.30323-.18165l7.91064,1.97754A.24978.24978,0,0,1,90,56.22744Z"/></g><path class="cls-1" d="M78,55.2499a.25939.25939,0,0,1-.06689-.00879l-18-5a.25035.25035,0,0,1-.021-.47558l8-3a.25408.25408,0,0,1,.15479-.00684l18,5a.25036.25036,0,0,1,.021.47559l-8,3A.24735.24735,0,0,1,78,55.2499ZM60.80661,49.96475l17.18164,4.77246,7.20507-2.70215L68.01168,47.2626Z"/><g class="cls-10"><polygon class="cls-6" points="86 52 78 55 60 50 68 47 86 52"/><path class="cls-9" d="M91.75,59.85049a.26506.26506,0,0,1-.06689-.00879l-36-10a.25031.25031,0,0,1,.13379-.48242l36,10a.25018.25018,0,0,1-.0669.49121Z"/><path class="cls-9" d="M57.75,60.85049a.25022.25022,0,0,1-.08789-.48438l32-12a.25031.25031,0,0,1,.17579.46875l-32,12A.251.251,0,0,1,57.75,60.85049Z"/><path class="cls-9" d="M91.75,61.85049a.26506.26506,0,0,1-.06689-.00879l-36-10a.25031.25031,0,0,1,.13379-.48242l36,10a.25018.25018,0,0,1-.0669.49121Z"/><path class="cls-9" d="M57.75,62.85049a.25022.25022,0,0,1-.08789-.48438l32-12a.25031.25031,0,0,1,.17579.46875l-32,12A.251.251,0,0,1,57.75,62.85049Z"/><path class="cls-9" d="M91.75,63.85049a.26506.26506,0,0,1-.06689-.00879l-36-10a.25031.25031,0,0,1,.13379-.48242l36,10a.25018.25018,0,0,1-.0669.49121Z"/><path class="cls-9" d="M65.75,61.85049a.25022.25022,0,0,1-.08789-.48438l16-6a.25031.25031,0,0,1,.17579.46875l-16,6A.251.251,0,0,1,65.75,61.85049Z"/><path class="cls-9" d="M91.75,65.85049a.26506.26506,0,0,1-.06689-.00879l-36-10a.25031.25031,0,0,1,.13379-.48242l36,10a.25018.25018,0,0,1-.0669.49121Z"/><path class="cls-9" d="M65.75,63.85049a.25022.25022,0,0,1-.08789-.48438l16-6a.25031.25031,0,0,1,.17579.46875l-16,6A.251.251,0,0,1,65.75,63.85049Z"/><path class="cls-9" d="M91.75,51.85049a.26506.26506,0,0,1-.06689-.00879l-36-10a.25031.25031,0,0,1,.13379-.48242l36,10a.25018.25018,0,0,1-.0669.49121Z"/><path class="cls-9" d="M57.75,52.85049a.25022.25022,0,0,1-.08789-.48438l32-12a.25031.25031,0,0,1,.17579.46875l-32,12A.251.251,0,0,1,57.75,52.85049Z"/><path class="cls-9" d="M91.75,53.85049a.26506.26506,0,0,1-.06689-.00879l-36-10a.25031.25031,0,0,1,.13379-.48242l36,10a.25018.25018,0,0,1-.0669.49121Z"/><path class="cls-9" d="M65.75,51.85049a.25022.25022,0,0,1-.08789-.48438l16-6a.25031.25031,0,0,1,.17579.46875l-16,6A.251.251,0,0,1,65.75,51.85049Z"/><path class="cls-9" d="M91.75,55.85049a.26506.26506,0,0,1-.06689-.00879l-36-10a.25031.25031,0,0,1,.13379-.48242l36,10a.25018.25018,0,0,1-.0669.49121Z"/><path class="cls-9" d="M65.75,53.85049a.25022.25022,0,0,1-.08789-.48438l16-6a.25031.25031,0,0,1,.17579.46875l-16,6A.251.251,0,0,1,65.75,53.85049Z"/><path class="cls-9" d="M91.75,57.85049a.26506.26506,0,0,1-.06689-.00879l-36-10a.25031.25031,0,0,1,.13379-.48242l36,10a.25018.25018,0,0,1-.0669.49121Z"/><path class="cls-9" d="M65.75,55.85049a.25022.25022,0,0,1-.08789-.48438l16-6a.25031.25031,0,0,1,.17579.46875l-16,6A.251.251,0,0,1,65.75,55.85049Z"/><path class="cls-9" d="M91.75,43.85049a.26506.26506,0,0,1-.06689-.00879l-36-10a.25031.25031,0,0,1,.13379-.48242l36,10a.25018.25018,0,0,1-.0669.49121Z"/><path class="cls-9" d="M65.75,41.85049a.25022.25022,0,0,1-.08789-.48438l16-6a.25031.25031,0,0,1,.17579.46875l-16,6A.251.251,0,0,1,65.75,41.85049Z"/><path class="cls-9" d="M91.75,45.85049a.26506.26506,0,0,1-.06689-.00879l-36-10a.25031.25031,0,0,1,.13379-.48242l36,10a.25018.25018,0,0,1-.0669.49121Z"/><path class="cls-9" d="M65.75,43.85049a.25022.25022,0,0,1-.08789-.48438l16-6a.25031.25031,0,0,1,.17579.46875l-16,6A.251.251,0,0,1,65.75,43.85049Z"/><path class="cls-9" d="M91.75,47.85049a.26506.26506,0,0,1-.06689-.00879l-36-10a.25031.25031,0,0,1,.13379-.48242l36,10a.25018.25018,0,0,1-.0669.49121Z"/><path class="cls-9" d="M65.75,45.85049a.25022.25022,0,0,1-.08789-.48438l16-6a.25031.25031,0,0,1,.17579.46875l-16,6A.251.251,0,0,1,65.75,45.85049Z"/><path class="cls-9" d="M91.75,49.85049a.26506.26506,0,0,1-.06689-.00879l-36-10a.25031.25031,0,0,1,.13379-.48242l36,10a.25018.25018,0,0,1-.0669.49121Z"/><path class="cls-9" d="M65.75,47.85049a.25022.25022,0,0,1-.08789-.48438l16-6a.25031.25031,0,0,1,.17579.46875l-16,6A.251.251,0,0,1,65.75,47.85049Z"/><path class="cls-9" d="M91.75,35.85049a.26506.26506,0,0,1-.06689-.00879l-36-10a.25031.25031,0,0,1,.13379-.48242l36,10a.25018.25018,0,0,1-.0669.49121Z"/><path class="cls-9" d="M65.75,33.85049a.25022.25022,0,0,1-.08789-.48438l16-6a.25031.25031,0,0,1,.17579.46875l-16,6A.251.251,0,0,1,65.75,33.85049Z"/><path class="cls-9" d="M91.75,37.85049a.26506.26506,0,0,1-.06689-.00879l-36-10a.25031.25031,0,0,1,.13379-.48242l36,10a.25018.25018,0,0,1-.0669.49121Z"/><path class="cls-9" d="M65.75,35.85049a.25022.25022,0,0,1-.08789-.48438l16-6a.25031.25031,0,0,1,.17579.46875l-16,6A.251.251,0,0,1,65.75,35.85049Z"/><path class="cls-9" d="M91.75,39.85049a.26506.26506,0,0,1-.06689-.00879l-36-10a.25031.25031,0,0,1,.13379-.48242l36,10a.25018.25018,0,0,1-.0669.49121Z"/><path class="cls-9" d="M65.75,37.85049a.25022.25022,0,0,1-.08789-.48438l16-6a.25031.25031,0,0,1,.17579.46875l-16,6A.251.251,0,0,1,65.75,37.85049Z"/><path class="cls-9" d="M91.75,41.85049a.26506.26506,0,0,1-.06689-.00879l-36-10a.25031.25031,0,0,1,.13379-.48242l36,10a.25018.25018,0,0,1-.0669.49121Z"/><path class="cls-9" d="M65.75,39.85049a.25022.25022,0,0,1-.08789-.48438l16-6a.25031.25031,0,0,1,.17579.46875l-16,6A.251.251,0,0,1,65.75,39.85049Z"/></g><line class="cls-11" x1="78" y1="55" x2="78" y2="57"/><path class="cls-1" d="M78,57.2499a.25017.25017,0,0,1-.25-.25v-2a.25.25,0,0,1,.5,0v2A.25016.25016,0,0,1,78,57.2499Z"/><path class="cls-12" d="M74.60255,17.86631c.76484,2.31082,4.20418,4.17067,8.7761,3.25991a11.46462,11.46462,0,0,0,6.08556-4.02549s7.99223.91825,8.21313-.43625c.24331-1.49187-9.68245-2.7663-15.30945-2.09311-2.735.32722-4.35809,1.33838-5.65606.56655a10.487,10.487,0,0,0-4.12111-1.29527c-1.63279-.05831-3.0638,1.77548-2.53665,2.47834.61229.81639,1.70862.09525,2.53665.23326A2.72,2.72,0,0,1,74.60255,17.86631Z"/><path class="cls-1" d="M81.02,21.61709c-3.55029,0-6.00537-1.71-6.65478-3.67285h0a2.492,2.492,0,0,0-1.81543-1.14258,2.64992,2.64992,0,0,0-.874.07129c-.626.11523-1.33594.24609-1.82178-.40137a1.15693,1.15693,0,0,1,.041-1.23828,3.21067,3.21067,0,0,1,2.70459-1.64062,10.85112,10.85112,0,0,1,4.24024,1.33007c.74219.44043,1.65185.21973,2.91162-.09082a20.71282,20.71282,0,0,1,2.58691-.50879c5.26661-.63281,14.02686.39258,15.36963,1.794a.6727.6727,0,0,1,.21582.58789c-.23388,1.44043-6.25634.89453-8.34131.66016A11.74265,11.74265,0,0,1,83.4277,21.371,12.32068,12.32068,0,0,1,81.02,21.61709ZM74.83981,17.788c.731,2.206,4.105,3.96484,8.49023,3.09277a11.29489,11.29489,0,0,0,5.92774-3.9209.2574.2574,0,0,1,.23486-.10742c3.74561.42969,7.8291.44238,7.938-.22754.0083-.05273-.041-.11719-.0835-.16211-1.12109-1.16992-9.65332-2.27929-14.94922-1.64355a20.31878,20.31878,0,0,0-2.52734.499c-1.32227.32422-2.36768.58106-3.28662.03418a10.23778,10.23778,0,0,0-4.002-1.25976,2.64146,2.64146,0,0,0-2.24414,1.373c-.15772.30176-.189.56543-.0835.70508.28516.38184.69141.32715,1.331.21a3.10218,3.10218,0,0,1,1.04688-.07226A2.95575,2.95575,0,0,1,74.83981,17.788Z"/><path class="cls-13" d="M70.10431,16.499c-.13179.24-.4704,1.25209-.205,1.403s.78554-1.0382.78554-1.0382"/><path class="cls-1" d="M81.42037,19.331a4.03908,4.03908,0,0,1-2.80468-1.04785.25016.25016,0,0,1,.33984-.36719,3.7602,3.7602,0,0,0,3.28272.84375,4.62513,4.62513,0,0,0,3.21191-2.01953.25029.25029,0,0,1,.44336.23242,5.074,5.074,0,0,1-3.5708,2.2793A5.3405,5.3405,0,0,1,81.42037,19.331Z"/><path class="cls-1" d="M84.34176,25.66982l-.02685-.001-1.4043-.15039a.25047.25047,0,0,1,.05371-.49805l1.11768.12012-.14063-4.126a.25044.25044,0,0,1,.2417-.25879.25636.25636,0,0,1,.2583.24121l.15039,4.41406a.25075.25075,0,0,1-.25.25879Z"/><path class="cls-1" d="M81.45651,25.52041a.23171.23171,0,0,1-.03662-.00293l-1.24024-.18262a.24977.24977,0,1,1,.07324-.49414l.96387.1416.13233-3.64257a.24713.24713,0,0,1,.25927-.24122.25025.25025,0,0,1,.24073.25879l-.14258,3.92188a.24944.24944,0,0,1-.25.24121Z"/><path class="cls-13" d="M55.91967,44.74657c.31586.03158,1.42132.37063,1.35815.62331s-1.08262.15316-1.475.07292"/><path class="cls-1" d="M46.91159,60.38467a.2492.2492,0,0,1-.24952-.23731l-.23681-4.71582a.25008.25008,0,0,1,.23681-.26269.24585.24585,0,0,1,.26221.2373l.22412,4.458.97217-.082a.24991.24991,0,0,1,.042.498l-1.23.10351Z"/><path class="cls-1" d="M43.39987,60.6542a.25058.25058,0,0,1-.24951-.2334l-.33155-4.85742a.24907.24907,0,0,1,.23242-.26563.24265.24265,0,0,1,.26661.23243l.31494,4.61425.958-.04a.255.255,0,0,1,.26026.23926.25051.25051,0,0,1-.23975.26074l-1.20117.04981Z"/><path class="cls-14" d="M44.19348,48.73845c-2.70444.16347-5.90957,1.76891-6.50957,2.59391,0,0-4.68693-2.28344-5.48975-2.578-.8011-.29387-1.19064-.3647-1.4799.10325-.21243.34365.15069,1.02352.55066,1.4799a17.21241,17.21241,0,0,0,13.24843,5.36836c6.50529-.12426,7.71683-2.854,7.82354-4.19251a46.4531,46.4531,0,0,0,3.21568-5.33516c.2828-.74512.696-1.91286-.07449-2.20785-.69749-.267-1.233.36162-1.95432,1.25606-.69964.86755-3.00272,3.68648-3.90112,3.72274C48.18468,49.00724,46.804,48.58066,44.19348,48.73845Z"/><path class="cls-1" d="M44.12252,55.95986a17.45626,17.45626,0,0,1-13.03808-5.44824c-.46-.52539-.88233-1.30078-.583-1.78613.4331-.69824,1.11719-.44922,1.77881-.20508.72656.26562,4.47168,2.08105,5.33984,2.502a12.54127,12.54127,0,0,1,6.55811-2.53418h0a21.22095,21.22095,0,0,1,3.63965.11328,12.77194,12.77194,0,0,0,1.79443.09766c.19141-.00781,1.02393-.292,3.71728-3.62988.69385-.86133,1.354-1.67188,2.2378-1.332,1.02978.39355.48193,1.83691.21924,2.53027a44.25536,44.25536,0,0,1-3.20655,5.333c-.11181,1.07519-1.0459,4.22168-8.062,4.35547C44.38571,55.95889,44.25289,55.95986,44.12252,55.95986ZM31.28121,48.77139a.3735.3735,0,0,0-.354.21777c-.1001.16113.09131.6875.52588,1.18359A16.94583,16.94583,0,0,0,44.50827,55.456c6.749-.12891,7.50781-3.06543,7.57959-3.96192a.24572.24572,0,0,1,.04248-.12109,46.6799,46.6799,0,0,0,3.18847-5.2832c.31348-.8252.5669-1.69532.06983-1.88575-.49414-.18554-.90772.2334-1.66993,1.17969-3.04492,3.77344-3.82861,3.80469-4.08593,3.81543a13.485,13.485,0,0,1-1.86426-.10059,20.20406,20.20406,0,0,0-3.56006-.11035h0c-2.67773.16211-5.78662,1.75586-6.32226,2.49121a.24808.24808,0,0,1-.31153.07715c-.04687-.02246-4.68457-2.28125-5.46631-2.56738A2.78978,2.78978,0,0,0,31.28121,48.77139Z"/><path class="cls-1" d="M44.59127,53.36221a5.527,5.527,0,0,1-3.812-1.28223.25033.25033,0,0,1,.35645-.35156,5.01926,5.01926,0,0,0,3.45556,1.13379h.01953a5.14413,5.14413,0,0,0,3.67188-1.31543.25016.25016,0,0,1,.35791.34961,5.64023,5.64023,0,0,1-4.02832,1.46582Z"/><path class="cls-15" d="M58.7109,41.42275a.25.25,0,0,1-.13086-.46289,5.26894,5.26894,0,0,0,1.90772-3.94238.25.25,0,0,1,.5,0,5.74464,5.74464,0,0,1-2.146,4.36816A.24543.24543,0,0,1,58.7109,41.42275Z"/><path class="cls-15" d="M59.623,42.94326a.25006.25006,0,0,1-.00781-.5,4.56574,4.56574,0,0,0,3.812-4.01367.24974.24974,0,0,1,.25-.24316h.00635a.25036.25036,0,0,1,.24365.25683,5.05448,5.05448,0,0,1-4.29639,4.5Z"/><path class="cls-15" d="M61.64059,44.26943c-.07568,0-.14844-.00293-.21826-.00976a.25027.25027,0,0,1,.0498-.498,3.43777,3.43777,0,0,0,3.294-2.23144.24559.24559,0,0,1,.30322-.18165.24961.24961,0,0,1,.18213.30274A3.95441,3.95441,0,0,1,61.64059,44.26943Z"/><path class="cls-16" d="M121.0315,53.13948c-2.74573-.22015-4.60173.51758-5.65639-.56322-.81275-.83289-2.96366-5.95086-4.62049-5.41535-1.50787.48736,2.12,6.71823,2.29617,7.79021.39482,2.40187,3.01345,4.80224,7.67518,4.81363,2.84992.007,5.789-.9462,6.69039-1.82559,0,0,7.07383,2.75394,7.55825,1.46989C135.50815,57.99475,126.6805,53.5924,121.0315,53.13948Z"/><path class="cls-1" d="M120.7568,60.01455h-.03125c-4.87695-.01172-7.5249-2.61133-7.92139-5.02246a14.41649,14.41649,0,0,0-.8413-2.00391c-1.18213-2.55468-2.12842-4.74414-1.7295-5.65527a.71637.71637,0,0,1,.44483-.41016c1.36816-.43847,2.77636,1.998,3.90918,3.958a10.608,10.608,0,0,0,.96679,1.52051c.59375.60937,1.53272.55957,2.8335.49414a19.10015,19.10015,0,0,1,2.66406-.00488h0c4.92676.39453,12.79834,3.9414,14.021,5.87011a.81737.81737,0,0,1,.13574.73633.681.681,0,0,1-.38086.38086c-1.334.59082-6.29639-1.24316-7.35791-1.65039C126.41452,59.11221,123.56686,60.01455,120.7568,60.01455Zm-9.75-12.64258a.56412.56412,0,0,0-.17529.02735.21732.21732,0,0,0-.14014.13379c-.34082.77929.95264,3.57519,1.72559,5.24511a12.897,12.897,0,0,1,.88037,2.13184c.36328,2.21094,2.84326,4.59375,7.4292,4.60449h.02978c2.76367,0,5.63233-.92187,6.48584-1.75391a.25071.25071,0,0,1,.26514-.05468c2.35351.916,6.19433,2.13086,7.1167,1.71484.09472-.042.11133-.08594.1167-.09961a.3939.3939,0,0,0-.09033-.293c-1.05518-1.665-8.65235-5.23926-13.63868-5.63965h0a18.91443,18.91443,0,0,0-2.59814.00586c-1.376.07129-2.46436.12793-3.21729-.64355a10.31288,10.31288,0,0,1-1.0415-1.62012C113.33,49.704,111.9819,47.372,111.0068,47.372Z"/><path class="cls-13" d="M110.44215,47.77875c-.29.0528-1.36573.45695-1.31169.78118s1.40093-.04838,1.40093-.04838"/><path class="cls-1" d="M120.604,57.54873c-.10449,0-.20947-.00293-.31494-.00781a4.48568,4.48568,0,0,1-3.58594-1.71582.24986.24986,0,0,1,.417-.27539,3.99781,3.99781,0,0,0,3.19287,1.49218,4.14134,4.14134,0,0,0,3.333-1.09472.25.25,0,0,1,.38867.31445A4.48841,4.48841,0,0,1,120.604,57.54873Z"/><path class="cls-1" d="M118.49166,64.32412h-1.15722a.25.25,0,0,1,0-.5h.92529l.314-4.22754a.24265.24265,0,0,1,.26806-.23047.24961.24961,0,0,1,.231.26758l-.33154,4.459A.25.25,0,0,1,118.49166,64.32412Z"/><path class="cls-1" d="M121.31588,64.32412H120.125a.25.25,0,1,1,0-.5h.94092V59.75283a.25.25,0,0,1,.5,0v4.32129A.25016.25016,0,0,1,121.31588,64.32412Z"/><path class="cls-17" d="M150.7022,52.81772c-1.07848.59288-3.00334-.01411-3.00334-.01411a4.92179,4.92179,0,0,1,1.87155-2.15653,3.57735,3.57735,0,0,1,2.83445-.43838A4.44333,4.44333,0,0,1,150.7022,52.81772Z"/><path class="cls-4" d="M149.45895,53.32705a6.82073,6.82073,0,0,1-1.83545-.28516.24994.24994,0,0,1-.15869-.32617A5.13361,5.13361,0,0,1,149.435,50.4374a3.80972,3.80972,0,0,1,3.04688-.46679.24963.24963,0,0,1,.1665.293,4.637,4.637,0,0,1-1.82568,2.77246h0A2.854,2.854,0,0,1,149.45895,53.32705Zm-1.40674-.68652a4.02626,4.02626,0,0,0,2.5293-.042h.00049a3.89694,3.89694,0,0,0,1.51171-2.20507,3.37913,3.37913,0,0,0-2.38818.46386A4.89475,4.89475,0,0,0,148.05221,52.64053Z"/><path class="cls-4" d="M148.11373,61.32412H148.102a.25.25,0,0,1-.2378-.26172c.0542-1.14453-.14844-11.71387-2.59619-13.46875a1.09856,1.09856,0,0,0-1.11084-.124.24972.24972,0,1,1-.18262-.46485,1.58231,1.58231,0,0,1,1.585.18262c2.64209,1.89453,2.86866,12.53321,2.80372,13.89844A.25.25,0,0,1,148.11373,61.32412Z"/><path class="cls-9" d="M141.71947,43.33665c1.13062-.05965,1.01178,1.855,1.01178,1.855s1.316-1.15,2.16881-.3656c1.06861.98287-.85567,2.2294-.85567,2.2294s1.80191,1.09642,1.0152,2.2765c-.77259,1.15887-2.29229-.66037-2.29229-.66037s.59545,1.885-.72254,2.04472c-1.27476.15452-1.7994-1.98068-1.7994-1.98068s-2.26094,1.01446-2.62059-.609c-.27476-1.24029,1.45152-1.56236,1.45152-1.56236s-1.61616-1.21288-.77259-2.1246,2.25689.67388,2.25689.67388S140.46171,43.403,141.71947,43.33665Z"/><path class="cls-4" d="M141.90963,50.97451c-1.07861.001-1.63379-1.32129-1.82666-1.9082a2.80015,2.80015,0,0,1-2.00537.06543,1.3207,1.3207,0,0,1-.69678-.95117,1.2527,1.2527,0,0,1,.17041-.99707,2.10186,2.10186,0,0,1,1.01954-.73145,2.353,2.353,0,0,1-.75635-1.31641,1.08949,1.08949,0,0,1,.30566-.86621,1.07257,1.07257,0,0,1,.81153-.3623h.01171a2.43618,2.43618,0,0,1,1.40039.6543,2.03376,2.03376,0,0,1,.44092-1.04688,1.28526,1.28526,0,0,1,.92188-.42773h0a1.00972,1.00972,0,0,1,.78515.29492,2.168,2.168,0,0,1,.48243,1.32617,1.702,1.702,0,0,1,2.09521-.06543,1.125,1.125,0,0,1,.3999.93848,2.43458,2.43458,0,0,1-.99609,1.47168,2.64963,2.64963,0,0,1,1.00244,1.36718,1.3184,1.3184,0,0,1-.208,1.05079,1.02084,1.02084,0,0,1-.81006.49609,2.06074,2.06074,0,0,1-1.31152-.57129,1.80573,1.80573,0,0,1-.21973,1.06641,1.11722,1.11722,0,0,1-.85107.50293A1.38,1.38,0,0,1,141.90963,50.97451Zm-1.66406-2.48926a.25283.25283,0,0,1,.10938.02539.24812.24812,0,0,1,.1333.165c.00537.01953.4956,1.91016,1.52636,1.793a.63216.63216,0,0,0,.49121-.27734,2.07307,2.07307,0,0,0,.02344-1.44434.25.25,0,0,1,.43018-.23535c.23047.27539.9497.958,1.47168.95606a.52949.52949,0,0,0,.42041-.27442.82741.82741,0,0,0,.13623-.665c-.15186-.68847-1.06446-1.2539-1.07373-1.25879a.25133.25133,0,0,1-.00586-.42382c.28076-.18262,1.01806-.77247,1.063-1.30762a.63041.63041,0,0,0-.24024-.52832c-.67822-.62012-1.82373.36035-1.83545.37011a.25029.25029,0,0,1-.41357-.2041,2.27317,2.27317,0,0,0-.3457-1.44238.471.471,0,0,0-.40333-.14648h0a.788.788,0,0,0-.5747.26074,2.02885,2.02885,0,0,0-.34815,1.252.2505.2505,0,0,1-.436.18067,2.59475,2.59475,0,0,0-1.436-.873.55186.55186,0,0,0-.45068.20215.59938.59938,0,0,0-.17481.48047,2.379,2.379,0,0,0,.91407,1.27441.25091.25091,0,0,1-.104.44629,2.04628,2.04628,0,0,0-1.15527.65039.76075.76075,0,0,0-.09814.6123.8322.8322,0,0,0,.43261.61231,2.63322,2.63322,0,0,0,1.84131-.17871A.24934.24934,0,0,1,140.24557,48.48525Z"/><path class="cls-17" d="M11.17711,47.70117c1.22253.40618,2.22218,2.24961,2.22218,2.24961a6.99275,6.99275,0,0,1-3.03328.03559,3.68452,3.68452,0,0,1-1.9964-2.01371A5.1691,5.1691,0,0,1,11.17711,47.70117Z"/><path class="cls-4" d="M11.67282,50.39736a5.05945,5.05945,0,0,1-1.375-.1709,3.89674,3.89674,0,0,1-2.16016-2.16015.25078.25078,0,0,1,.14258-.32715,5.35883,5.35883,0,0,1,2.97607-.27539c1.30127.43262,2.32031,2.28906,2.3628,2.36816a.2503.2503,0,0,1-.16016.36231A8.31214,8.31214,0,0,1,11.67282,50.39736ZM8.71627,48.119a3.19326,3.19326,0,0,0,1.71826,1.627,6.25467,6.25467,0,0,0,2.56836.02929,4.54306,4.54306,0,0,0-1.90429-1.83691h-.00049A4.44608,4.44608,0,0,0,8.71627,48.119Z"/><path class="cls-4" d="M13.42819,61.41787a.2497.2497,0,0,1-.24854-.22656c-.00683-.07227-.168-1.7832-.20654-2.45508l-.01465-.23828c-.39648-6.25684.26172-9.87793,1.95606-10.7627.88574-.46289,2.00976-.16015,3.3413.90039a.24982.24982,0,1,1-.31152.39063c-1.1626-.92383-2.104-1.21-2.79834-.84766-.84619.44141-2.19043,2.36524-1.68848,10.28809l.01465.24023c.03858.66407.20362,2.41993.20557,2.4375a.24994.24994,0,0,1-.22559.27246Z"/><path class="cls-18" d="M19.10189,45.55617c1.40091-.37357,1.84613,1.62636,1.84613,1.62636s1.62635-1.49449,2.28568-.57142-.43956,2.4615-.43956,2.4615,2.10987.30769,1.84613,1.53844-2.59337.65933-2.59337.65933.74439,2.3498-1.09888,2.46151c-1.45053.08791-1.71427-2.06591-1.71427-2.06591s-1.29213,1.928-2.32964,1.27471c-1.18679-.74724.35165-2.68128.35165-2.68128s-1.80218.17582-1.62635-1.45053,2.59337-.83516,2.59337-.83516S17.78322,45.90782,19.10189,45.55617Z"/><path class="cls-4" d="M20.85739,53.98525c-1.09424,0-1.56592-1.06152-1.75586-1.73925-.49658.5791-1.45362,1.457-2.33057.90625a1.14953,1.14953,0,0,1-.54687-.80567,2.95182,2.95182,0,0,1,.5625-1.85058,1.75449,1.75449,0,0,1-1.03809-.457,1.47418,1.47418,0,0,1-.36768-1.25683,1.27392,1.27392,0,0,1,.57227-.98731,2.7882,2.7882,0,0,1,1.96826-.1582c-.06543-.6748-.0415-2.01269,1.11621-2.32129a1.3789,1.3789,0,0,1,1.106.14258,2.52559,2.52559,0,0,1,.93408,1.292,2.73864,2.73864,0,0,1,1.67871-.68359.93829.93829,0,0,1,.68115.39941c.56348.78906.06641,1.89649-.24121,2.43555a2.70164,2.70164,0,0,1,1.5127.8623,1.11294,1.11294,0,0,1,.17578.90039,1.08465,1.08465,0,0,1-.50439.71387,3.20551,3.20551,0,0,1-2.001.21,2.49473,2.49473,0,0,1-.227,1.78809,1.46275,1.46275,0,0,1-1.189.60644C20.9277,53.98428,20.89205,53.98525,20.85739,53.98525Zm-1.62354-2.56933a.23247.23247,0,0,1,.05762.00683.25091.25091,0,0,1,.19043.21289c.00244.01856.26806,1.92872,1.45117,1.84668a.9764.9764,0,0,0,.80664-.38867,2.37951,2.37951,0,0,0,.06885-1.748.2501.2501,0,0,1,.29785-.31836A3.27415,3.27415,0,0,0,24.1152,50.954a.59226.59226,0,0,0,.28027-.3955.61909.61909,0,0,0-.09668-.50879,2.65874,2.65874,0,0,0-1.5415-.73047.25019.25019,0,0,1-.167-.39258c.27636-.3877.894-1.53418.43994-2.16992a.43282.43282,0,0,0-.32569-.19336,2.87119,2.87119,0,0,0-1.5874.80371.25492.25492,0,0,1-.24365.05371.251.251,0,0,1-.16943-.18359,2.44171,2.44171,0,0,0-.82129-1.35254.88323.88323,0,0,0-.71631-.08692h0c-1.07324.28614-.70313,2.10547-.69922,2.124a.24956.24956,0,0,1-.07764.2373.24438.24438,0,0,1-.24463.05176,2.7571,2.7571,0,0,0-1.92138.00391.78893.78893,0,0,0-.34571.62109,1.00538,1.00538,0,0,0,.22461.85059,1.61009,1.61009,0,0,0,1.1294.32421.25009.25009,0,0,1,.21972.4043,3.06552,3.06552,0,0,0-.73437,1.84863.65833.65833,0,0,0,.32031.46485c.80469.50781,1.97656-1.18457,1.98877-1.20215A.25148.25148,0,0,1,19.23385,51.41592ZM19.102,45.55654h0Z"/><path class="cls-19" d="M26.40925,66.99279c-5.92425.02651-10.098,1.10957-10.033,3.59243.06529,2.49476,4.48279,2.98116,10.342,2.86968,5.52033-.105,10.5989-.72513,10.5461-3.15114C37.19973,67.3349,31.50737,66.97,26.40925,66.99279Z"/><path class="cls-4" d="M25.18942,73.72061c-4.66114,0-8.99463-.49708-9.063-3.12891a2.29671,2.29671,0,0,1,.69385-1.70313c1.69336-1.74511,6.14843-2.12988,9.58789-2.1455h0c5.44629-.03711,11.03662.37695,11.106,3.55468a1.86819,1.86819,0,0,1-.55712,1.36914c-1.229,1.28028-4.481,1.92774-10.23389,2.03809C26.21139,73.71475,25.69821,73.72061,25.18942,73.72061Zm1.2207-6.47754c-4.72607.02148-8.00439.72949-9.231,1.99414a1.78851,1.78851,0,0,0-.55273,1.34082c.06543,2.49707,5.42969,2.71875,10.08691,2.627,5.53467-.10547,8.76758-.72266,9.8833-1.88477a1.366,1.366,0,0,0,.41748-1.01074c-.05957-2.76074-5.68652-3.09179-10.604-3.0664Zm-.001-.25h0Z"/><path class="cls-11" d="M30.74752,70.89932a.25.25,0,0,1-.001-.5c.03076,0,.751-.01075.751-.5s-.72021-.5-.751-.5a.25.25,0,0,1,.001-.5c.43213,0,1.25.209,1.25,1S31.17965,70.89932,30.74752,70.89932Z"/><path class="cls-11" d="M31.74752,71.39932a.25.25,0,1,1,0-.5c.34424,0,1.25-.30762,1.25-1s-.90576-1-1.25-1a.25.25,0,1,1,0-.5c.62793,0,1.75.501,1.75,1.5S32.37545,71.39932,31.74752,71.39932Z"/><path class="cls-11" d="M28.74752,70.89932c-.43213,0-1.25-.209-1.25-1s.81787-1,1.25-1a.25.25,0,0,1,.001.5c-.03076,0-.751.01074-.751.5s.72022.5.751.5a.25.25,0,0,1-.001.5Z"/><path class="cls-11" d="M27.74752,71.39932c-.62793,0-1.75-.501-1.75-1.5s1.12207-1.5,1.75-1.5a.25.25,0,0,1,0,.5c-.34424,0-1.25.30761-1.25,1s.90576,1,1.25,1a.25.25,0,0,1,0,.5Z"/><path class="cls-11" d="M37.46353,63.57683a1.20563,1.20563,0,0,1-.88389,1.53093.25.25,0,0,1-.12941-.483.75.75,0,1,0-.38964-1.44851l-.96451.25844a.75.75,0,1,0,.38964,1.44851.25093.25093,0,0,1,.30383.17741l.00025.00094a.24912.24912,0,0,1-.17608.305,1.25,1.25,0,1,1-.64705-2.41481l.96593-.25882A1.20563,1.20563,0,0,1,37.46353,63.57683Z"/><path class="cls-1" d="M36.281,62.64932a1.162,1.162,0,0,1,1.18262.92752,1.20569,1.20569,0,0,1-.88391,1.53091.25.25,0,1,1-.1294-.48294.71247.71247,0,0,0,.53028-.91858.6733.6733,0,0,0-.68934-.55835.95.95,0,0,0-.23059.02841l-.9646.25843a.71246.71246,0,0,0-.53027.91858.67334.67334,0,0,0,.68933.55838.94891.94891,0,0,0,.23059-.02845.251.251,0,0,1,.30384.17743l.00024.00092a.24913.24913,0,0,1-.176.305,1.36963,1.36963,0,0,1-.34851.04364,1.16189,1.16189,0,0,1-1.18249-.92752,1.20568,1.20568,0,0,1,.88391-1.53091l.96594-.25882a1.36943,1.36943,0,0,1,.34839-.04364m.00012-.5a1.87461,1.87461,0,0,0-.4779.06067l-.96595.25881a1.70087,1.70087,0,0,0-1.23742,2.14328,1.65528,1.65528,0,0,0,1.6654,1.29813,1.874,1.874,0,0,0,.47791-.06067.74584.74584,0,0,0,.43274-.31448.74818.74818,0,0,0,.5332.05566,1.70088,1.70088,0,0,0,1.23743-2.14328,1.6553,1.6553,0,0,0-1.66541-1.29812Zm-1.026,2.26236c-.09424,0-.15954-.0131-.20642-.18778-.0271-.1011-.06409-.23959.18066-.30728l.9607-.25736a.45811.45811,0,0,1,.10119-.01138c.09424,0,.15955.01306.20643.18775.02709.1011.06408.23959-.18067.30728a.7406.7406,0,0,0-.43042.31393.74883.74883,0,0,0-.52319-.05838.4557.4557,0,0,1-.10828.01322Z"/><path class="cls-6" d="M32.76332,65.35389,38.55888,63.801c.53346-.14294,1.25562.82233,1.613,2.156s.21459,2.5307-.31888,2.67364l-5.79555,1.55291"/><path class="cls-1" d="M34.05758,70.4335a.24987.24987,0,0,1-.06494-.49122l5.79541-1.55273c.29541-.08008.49756-1.042.14209-2.36816-.35547-1.32715-1.01025-2.06739-1.30664-1.9795l-5.7959,1.55274a.24974.24974,0,1,1-.12939-.48242l5.79638-1.55274c.77881-.21191,1.57373,1.04492,1.91895,2.333.34473,1.28711.28808,2.76855-.49561,2.97949l-5.79541,1.55274A.2503.2503,0,0,1,34.05758,70.4335Z"/><ellipse class="cls-11" cx="33.41037" cy="67.76871" rx="1" ry="2.5" transform="translate(-16.4014 10.9564) rotate(-15)"/><path class="cls-1" d="M33.94772,70.44814c-.7251,0-1.42578-1.16406-1.74512-2.35644-.34473-1.28711-.28857-2.76856.49561-2.97949h.00049c.77978-.21192,1.57421,1.04492,1.91943,2.333a5.17674,5.17674,0,0,1,.18115,1.87793c-.07324.61329-.31348,1.00489-.67725,1.10157A.6689.6689,0,0,1,33.94772,70.44814ZM32.8276,65.59463c-.29541.08105-.49707,1.042-.1416,2.36816.355,1.3252,1.00684,2.05371,1.30713,1.97949.14355-.03906.26514-.30468.30957-.67871a4.66422,4.66422,0,0,0-.168-1.68945c-.35547-1.32617-1.00879-2.06445-1.30713-1.97949Z"/><polygon class="cls-20" points="108.037 70.536 102.841 73.536 92.841 67.763 92.841 66.763 108.037 69.536 108.037 70.536"/><path class="cls-1" d="M102.84127,73.786a.24845.24845,0,0,1-.125-.0332l-10-5.77344a.25176.25176,0,0,1-.125-.21679v-1a.24966.24966,0,0,1,.29493-.2461l15.19628,2.77344a.24985.24985,0,0,1,.20508.24609v1a.25176.25176,0,0,1-.125.2168l-5.19629,3A.24842.24842,0,0,1,102.84127,73.786Zm-9.75-6.168,9.75,5.6289,4.94629-2.85547V69.745L93.09127,67.0624Zm14.94629,2.918h0Z"/><polygon class="cls-6" points="108.037 69.536 102.841 72.536 92.841 66.763 98.037 63.763 108.037 69.536"/><path class="cls-1" d="M102.84127,72.786a.24845.24845,0,0,1-.125-.0332l-10-5.77344a.2505.2505,0,0,1,0-.43359l5.19629-3a.24874.24874,0,0,1,.25,0l10,5.77344a.2505.2505,0,0,1,0,.43359l-5.19629,3A.24842.24842,0,0,1,102.84127,72.786Zm-9.5-6.02343,9.5,5.48437,4.69629-2.71094-9.5-5.48437Z"/><path class="cls-1" d="M100.84127,71.63174a.24836.24836,0,0,1-.125-.03321l-7-4.042a.2505.2505,0,0,1,0-.43359l5.19629-3a.24874.24874,0,0,1,.25,0l7,4.042a.2505.2505,0,0,1,0,.43359l-5.19629,3A.24833.24833,0,0,1,100.84127,71.63174Zm-6.5-4.292,6.5,3.75293,4.69629-2.71094-6.5-3.75293Z"/><g class="cls-21"><polygon class="cls-22" points="106.037 68.381 100.841 71.381 93.841 67.34 99.037 64.34 106.037 68.381"/><path class="cls-18" d="M100.84127,71.63174a.251.251,0,0,1-.24365-.19336l-.33887-1.45313-.59423-.541a.24759.24759,0,0,1-.08057-.21192l.20752-1.89648a.25008.25008,0,0,1,.1914-.21582.24379.24379,0,0,1,.26758.1084l1.47412,2.30078,1.63233-1.68848a.25.25,0,1,1,.35937.34766l-1.852,1.916a.23987.23987,0,0,1-.20459.0752.24991.24991,0,0,1-.18554-.11426l-1.2627-1.9707-.1167,1.06543.55762.50781a.24931.24931,0,0,1,.07568.12793l.35694,1.5293a.24987.24987,0,0,1-.187.2998A.22749.22749,0,0,1,100.84127,71.63174Z"/><path class="cls-18" d="M97.84762,68.29482a.2426.2426,0,0,1-.10107-.02148l-2.28174-1.00781a.24987.24987,0,0,1,.20215-.457l2.1958.96972,1.53564-.47754-.88428-.47754-1.81347.28321a.24724.24724,0,0,1-.26856-.14942l-.68115-1.59961a.24986.24986,0,1,1,.46-.19531l.605,1.41992,1.7041-.26562a.23932.23932,0,0,1,.15723.02734l1.48145.79981a.24928.24928,0,0,1-.04444.458l-2.19238.68165A.243.243,0,0,1,97.84762,68.29482Z"/><path class="cls-18" d="M101.88668,67.61318a.24551.24551,0,0,1-.15332-.05273l-.66455-.51465v.31738a.25016.25016,0,0,1-.25.25H100.04a.25.25,0,0,1,0-.5h.52881V66.536a.24952.24952,0,0,1,.14014-.2246.25225.25225,0,0,1,.26318.02734l1.06787.82715a.24977.24977,0,0,1-.15332.44726Z"/></g><ellipse class="cls-11" cx="104.43925" cy="70.4587" rx="0.37608" ry="0.66475" transform="translate(21.86254 165.60634) rotate(-83.05106)"/><path class="cls-9" d="M104.5317,71.0917a1.33387,1.33387,0,0,1-.65039-.166.62535.62535,0,0,1-.35351-.5205.52448.52448,0,0,1,.28613-.45118,1.27474,1.27474,0,0,1,1.1831.03809h0a.62355.62355,0,0,1,.35352.52148.5242.5242,0,0,1-.28613.4502A1.083,1.083,0,0,1,104.5317,71.0917Zm-.18652-.76465a.589.589,0,0,0-.28076.05957c-.03418.02246-.00928.06152.06689.10547a.8047.8047,0,0,0,.68262.03906c.03418-.02246.00928-.06152-.0669-.10547h0A.82051.82051,0,0,0,104.34518,70.32705Z"/></g></g></svg>