<svg xmlns="http://www.w3.org/2000/svg" xmlns:xlink="http://www.w3.org/1999/xlink" width="160" height="80" viewBox="0 0 160 80"><defs><style>.cls-1,.cls-13{fill:#053437;}.cls-2{fill:none;}.cls-3,.cls-9{fill:#ddd;}.cls-3,.cls-5{opacity:0.8;}.cls-4{fill:#003437;}.cls-5{fill:#aaa;}.cls-11,.cls-6{fill:#fff;}.cls-12,.cls-13,.cls-14,.cls-16,.cls-6,.cls-7{fill-rule:evenodd;}.cls-7{fill:#2bb5e9;}.cls-8{clip-path:url(#clip-path);}.cls-10{clip-path:url(#clip-path-2);}.cls-12{fill:#f0403d;}.cls-14{fill:#f47925;}.cls-15{fill:#f7ce05;}.cls-16{fill:#f6e55a;}</style><clipPath id="clip-path"><path class="cls-1" d="M85.38209,58.03485a2.21908,2.21908,0,0,1-.541-.06738l-1.188-.29688a1.25013,1.25013,0,0,1-.58105-2.09668l1.95068-1.95019a2.2541,2.2541,0,0,1,2.13672-.59082l1.1875.29687a1.249,1.249,0,0,1,.581,2.0957l-1.95068,1.9502A2.2608,2.2608,0,0,1,85.38209,58.03485Zm1.23438-4.56934a1.7584,1.7584,0,0,0-1.24024.51172l-1.95068,1.9502a.7506.7506,0,0,0,.34863,1.25879l1.18848.29687a1.76376,1.76376,0,0,0,1.66113-.46094L88.57448,55.072a.74991.74991,0,0,0-.34864-1.25781l-1.188-.29688A1.76816,1.76816,0,0,0,86.61647,53.46551Z"/></clipPath><clipPath id="clip-path-2"><path class="cls-1" d="M77.99977,55.24969a.25939.25939,0,0,1-.06689-.00879l-18-5a.25035.25035,0,0,1-.021-.47558l8-3a.25389.25389,0,0,1,.15478-.00684l18,5a.25035.25035,0,0,1,.021.47559l-8,3A.24726.24726,0,0,1,77.99977,55.24969ZM60.80641,49.96454,77.98805,54.737l7.20508-2.70215L68.01149,47.26239Z"/></clipPath></defs><g id="Layer_2" data-name="Layer 2"><g id="Layer_2-2" data-name="Layer 2"><rect class="cls-2" width="160" height="80"/><path class="cls-3" d="M80.56116,43.95288c-.59991-2.51015,9.08335-2.24472,8.99081-3.82155-.08075-1.37592,2.35311,1.07511,2.31217.09634-.04575-1.094,9.58337-2.03564,14.26925-3.23641,3.92168-1.00495,5.84214-3.16373,5.84214-3.94724,0-1.71969-3.00946-1.43307-3.00946-2.14961s1.93465-.35827,1.863-1.71969-5.23073-.07166-5.01577-1.79135,10.59278.34464,7.15642-2.42683a6.32961,6.32961,0,0,0-3.106-.70994c-5.32844-.33131-19.88808.11726-19.85474,2.34971.02135,1.42979,1.89951.83079,1.91056,1.81.01313,1.16447-.91379.93247-.91379,1.94141,0,2.3435,12.01962-2.11688,11.97493-.13141-.02686,1.19347-1.3509.86407-1.30723,2.01112.04209,1.10531,2.03017.29763,2.01112,1.50833-.03,1.9089-17.12137-1.04567-20.01061,2.5139-.73149.9012,1.5191.50282,1.50834,1.81Z"/><path class="cls-4" d="M80.56129,44.20282a.24666.24666,0,0,1-.05322-.00586.25055.25055,0,0,1-.18994-.18555,1.09644,1.09644,0,0,1,.15137-.88379,2.40335,2.40335,0,0,1,1.03564-.78418L84.929,37.97723c-.03662-.40234-.3833-.5625-.897-.75488-.33838-.127-.65821-.24707-.7378-.53906a.69374.69374,0,0,1,.18555-.59082c1.75-2.15723,8.22949-2.03614,13.437-1.93262,2.94239.05859,5.98438.11426,6.48438-.37012.0332-.03125.03369-.04883.03369-.05761.00586-.37207-.21826-.44629-.81348-.55079-.49365-.08593-1.16943-.2041-1.19775-.94433a1.25679,1.25679,0,0,1,.74219-1.208c.32177-.20605.55468-.35449.56494-.81836a.12537.12537,0,0,0-.04932-.1123c-.49609-.4209-3.12842.084-5.2417.49023-2.85889.54785-5.55615,1.06836-6.397.37207a.76993.76993,0,0,1-.28711-.61328,1.30822,1.30822,0,0,1,.51562-1.07129.97031.97031,0,0,0,.39844-.86719c-.00244-.22656-.147-.30566-.6416-.458-.5293-.16309-1.25439-.38672-1.269-1.35059a.89476.89476,0,0,1,.31543-.666c2.0249-1.93164,14.96338-2.23242,19.80468-1.9375a6.30285,6.30285,0,0,1,3.24707.76563c.40528.32617.92432.81641.75879,1.29492-.2373.6875-1.6538.74024-3.94531.76953-1.51758.02051-3.811.04981-3.87842.58789a.36438.36438,0,0,0,.07618.30274c.30566.3623,1.375.41308,2.31884.457,1.3252.0625,2.57666.12109,2.62207.9873.05176.98242-.76562,1.252-1.30664,1.42969-.27295.09082-.55566.18359-.55566.30273.04785.10352.54492.23926.84228.32032.91455.251,2.167.59277,2.167,1.8291,0,.94922-2.01514,3.16016-6.02979,4.18945-1.7915.459-4.28955.87891-6.70508,1.28418-3.01513.50684-7.145,1.2002-7.37939,1.7207a.42687.42687,0,0,1-.19092.41407c-.28467.1748-.6875-.04492-1.19971-.32227-.252-.13672-.77343-.4209-.91113-.377a.72114.72114,0,0,0-.00781.16406c.05322.91113-1.65772,1.22559-4.02539,1.66016a21.24637,21.24637,0,0,0-3.95459.97363l-1.06348,1.35645A.2491.2491,0,0,1,80.56129,44.20282ZM93.45143,34.6159c-4.09717,0-8.34619.26758-9.583,1.791-.0874.10742-.09082.15234-.09082.15332a1.85474,1.85474,0,0,0,.42969.19336c.49072.18457,1.23193.46191,1.2251,1.30762a.25.25,0,0,1-.05323.15234l-2.97558,3.79492a30.05321,30.05321,0,0,1,3.28223-.72265c1.53759-.28321,3.644-.66993,3.61669-1.13965a.62837.62837,0,0,1,.23975-.61621c.34717-.21973.86621.06054,1.417.36035a4.41459,4.41459,0,0,0,.65576.31445c.09278-.81347,2.27442-1.2539,7.793-2.18066,2.40528-.40332,4.89209-.82129,6.66358-1.27539,3.95263-1.0127,5.65381-3.16114,5.65381-3.70508,0-.791-.77979-1.06738-1.79932-1.34668-.64893-.17774-1.21-.33106-1.21-.80274,0-.48046.47754-.63867.89892-.77734.61963-.2041.99366-.36914.96436-.92969-.022-.41308-1.2002-.46875-2.14648-.51269-1.14747-.05469-2.23145-.10547-2.67774-.63574a.85826.85826,0,0,1-.18994-.68653c.12109-.96972,2.08936-.99511,4.36768-1.02539,1.332-.0166,3.34472-.043,3.47949-.43262.02636-.07519-.0708-.3164-.59961-.74316a6.07814,6.07814,0,0,0-2.96485-.6543c-4.88818-.30859-17.61767.07227-19.42822,1.79883a.41955.41955,0,0,0-.16064.29688c.00879.57129.354.707.9165.88086.43945.13574.98682.30468.99414.92968a1.45334,1.45334,0,0,1-.55908,1.24024.82162.82162,0,0,0-.355.7041.274.274,0,0,0,.10547.22852c.6582.54394,3.6123-.02344,5.98388-.47852,3.09864-.59473,5.02637-.917,5.65918-.38086a.623.623,0,0,1,.22657.50586,1.375,1.375,0,0,1-.7959,1.22754c-.31787.20312-.52783.33789-.51123.76758.01074.291.1958.36914.78369.47168.52344.09179,1.24072.21679,1.22754,1.05078a.57675.57675,0,0,1-.186.41015c-.6206.59864-2.88818.585-6.84179.50977C95.81959,34.63837,94.64186,34.6159,93.45143,34.6159Z"/><path class="cls-1" d="M87.99977,54.24969a.24977.24977,0,0,1-.10059-.47851c2.17969-.959,2.2085-2.44141,2.23926-4.01074a5.53772,5.53772,0,0,1,.56885-2.85254c.77686-1.29493,2.51709-1.39356,4.19971-1.49024,1.40722-.08008,2.8623-.16308,3.69873-.93457.2456-.22656.22265-.39551.1748-.51758C98.23561,42.571,92.10329,40.989,90.32887,40.989a.25.25,0,0,1,0-.5c1.76026,0,8.23828,1.55762,8.91748,3.29492a.91521.91521,0,0,1-.30176,1.06641c-.96826.89355-2.51416.98144-4.00927,1.06738-1.62451.0918-3.15869.17969-3.79932,1.248a5.08351,5.08351,0,0,0-.49756,2.60449c-.03076,1.58008-.06543,3.3711-2.53808,4.458A.24539.24539,0,0,1,87.99977,54.24969Z"/><path class="cls-1" d="M76.43239,50.08075a.25006.25006,0,0,1-.082-.48633c1.37793-.47656,2.63476-1.708,2.56787-2.2793-.03076-.26172-.41553-.35547-.7334-.38672-.47022-.04687-1.021-.07324-1.60449-.10058-1.83106-.085-3.7251-.17383-4.25391-.94531a.88757.88757,0,0,1-.09033-.81641c.36914-1.10742,3.71338-2.65918,6.457-3.30762,1.40381-.33008,3.92285-.72168,5.02588.38184a.25.25,0,1,1-.35352.35351c-.68066-.68164-2.34131-.7705-4.55761-.248-2.98389.7041-5.84668,2.22656-6.09717,2.97851a.38953.38953,0,0,0,.02783.376c.38867.56641,2.31641.65625,3.86523.72852.58985.02734,1.14746.05371,1.63086.10156.90625.09082,1.14209.5,1.18018.82617.11279.96191-1.49463,2.32324-2.90039,2.81055A.24125.24125,0,0,1,76.43239,50.08075Z"/><path class="cls-3" d="M77.93787,37.26948v.05311c0,.82843,2.01472,1.5,4.5,1.5s4.5-.67157,4.5-1.5"/><path class="cls-3" d="M86.93787,37.26948c-.7885-7.26234-11.423-3.63964-11.90763-5.66734C74.43033,29.092,91.56151,29.79377,91.469,28.21693c-.08075-1.37592-2.252-.23935-2.29292-1.21812-.04575-1.094,6.74054-1.15751,11.42642-2.35829,3.92168-1.00494,5.84213-3.16373,5.84213-3.94724,0-1.71969-3.00945-1.43307-3.00945-2.14961s1.93465-.35827,1.863-1.71969-5.23072-.07165-5.01576-1.79134,6.52049,1.71969,7.52365-2.57954A6.10316,6.10316,0,0,0,105.5948,6c1.30723,2.11167,0,5.32945-1.30722,5.63112s-19.84284.382-19.8095,2.61445c.02135,1.42979,1.89951.83079,1.91056,1.81.01313,1.16447-.91379.93247-.91379,1.94142,0,2.34349,12.01961-2.11689,11.97493-.13142-.02686,1.19347-1.35091.86407-1.30723,2.01112.04209,1.10531,2.03017.29763,2.01112,1.50834-.03,1.90889-20.016.79266-20.01061,2.51389.00364,1.1607,1.5191.50283,1.50834,1.81"/><path class="cls-4" d="M82.43776,39.07294c-2.30274,0-4.75-.61329-4.75-1.75a.27405.27405,0,0,1,.25-.27637.22827.22827,0,0,1,.25.22265v.05372c0,.52148,1.6167,1.25,4.25,1.25s4.25-.72852,4.25-1.25a.25.25,0,0,1,.5,0C87.18776,38.45965,84.74049,39.07294,82.43776,39.07294Z"/><path class="cls-4" d="M86.93727,37.51922a.24948.24948,0,0,1-.248-.22265c-.49218-4.53516-5.03515-4.6211-8.35254-4.68457-1.9375-.03613-3.3374-.06348-3.5498-.95117a.77529.77529,0,0,1,.13721-.65332c.77246-1.05957,4.47021-1.41993,9.60937-1.81348,2.729-.209,6.46631-.49414,6.688-.97754-.0293-.45019-.34473-.502-1.05811-.50977-.50976-.00488-1.20849-.01269-1.2373-.69726-.03418-.82227,1.67285-1.0791,5.22656-1.53711a55.58336,55.58336,0,0,0,6.3877-1.07422c3.95312-1.01269,5.65429-3.16113,5.65429-3.70508,0-.791-.77978-1.06738-1.79931-1.34668-.64942-.17773-1.21-.33105-1.21-.80273,0-.48047.47754-.63867.89892-.77734.61963-.20411.99366-.36915.96436-.92969-.022-.41309-1.2002-.46875-2.147-.5127-1.14747-.05469-2.231-.10547-2.67725-.63574a.8582.8582,0,0,1-.18994-.68652c.11426-.90723,1.26123-.78516,2.59131-.64453,1.94726.206,4.37207.46386,4.93652-1.96094a5.8507,5.8507,0,0,0-1.30908-5.46875A5.22344,5.22344,0,0,1,105.968,10.112a2.76714,2.76714,0,0,1-1.62451,1.76269c-.33105.07618-1.48.12989-3.65186.22559-4.37158.19336-15.98486.70605-15.96337,2.1416.0083.57129.35351.707.916.88086.43994.13574.98731.30469.99414.92969a1.45445,1.45445,0,0,1-.55859,1.24023.8216.8216,0,0,0-.355.7041.274.274,0,0,0,.10547.22852c.65869.543,3.6123-.02344,5.98388-.47852,3.09864-.5957,5.02637-.917,5.65918-.38086a.623.623,0,0,1,.22657.50586,1.375,1.375,0,0,1-.7959,1.22754c-.31787.20313-.52832.33692-.51172.76758.01074.291.1958.36914.78418.47168.52344.0918,1.24023.2168,1.22705,1.05078-.01709,1.10156-3.25635,1.3291-10.64307,1.58594-3.84082.13379-9.10107.31738-9.36914.93262.00293.36523.17529.44629.56494.59375a1.17048,1.17048,0,0,1,.94532,1.209.24976.24976,0,0,1-.25.24805h-.002a.25017.25017,0,0,1-.248-.252c.0039-.5-.24512-.59375-.62256-.7373a1.0828,1.0828,0,0,1-.88623-1.06934c-.00293-.98339,2.84863-1.18066,9.85058-1.4248,3.54688-.12305,10.14844-.35254,10.16016-1.09375.00586-.37207-.21826-.44629-.81348-.55078-.49316-.08594-1.16894-.2041-1.19775-.94434a1.25784,1.25784,0,0,1,.74267-1.208c.32178-.20605.55469-.35449.56495-.81835a.12538.12538,0,0,0-.04932-.11231c-.49756-.42187-3.12842.084-5.2417.49023-2.85889.54786-5.55811,1.06836-6.397.37208a.76994.76994,0,0,1-.28711-.61329A1.30956,1.30956,0,0,1,85.74,16.92547a.96917.96917,0,0,0,.39844-.86718c-.00244-.22657-.14648-.30567-.6416-.458-.5293-.16309-1.25439-.38672-1.26855-1.35059-.02442-1.60742,6.01025-2.18847,16.4414-2.64843,1.82129-.08008,3.25977-.14356,3.56153-.21289a2.38487,2.38487,0,0,0,1.27539-1.46875,4.288,4.288,0,0,0-.124-3.78809.25025.25025,0,0,1,.35157-.33984,6.40669,6.40669,0,0,1,2.31542,6.71777c-.6665,2.85547-3.44677,2.5625-5.47656,2.34473-1.02344-.10743-1.98974-.21094-2.04248.21a.36436.36436,0,0,0,.07617.30273c.30567.36231,1.375.41309,2.31836.457,1.3252.0625,2.57715.1211,2.62256.98731.05176.98242-.76562,1.252-1.30664,1.42968-.27344.09082-.55566.1836-.55566.30274.04785.10351.54492.23926.84228.32031.91455.251,2.167.59277,2.167,1.8291,0,.94922-2.01513,3.16114-6.03027,4.18946a55.92961,55.92961,0,0,1-6.44775,1.08593c-1.91455.24707-4.80762.61914-4.79053,1.01953.00684.17188.146.2129.74268.21875.59423.00684,1.49267.01661,1.5498.99512.05029.85938-1.91992,1.09082-7.147,1.49121-3.80811.291-8.54688.6543-9.24317,1.60938a.27452.27452,0,0,0-.05517.24219c.12256.51171,1.55566.53906,3.07324.56738,3.30518.06347,8.2998.1582,8.83984,5.12988a.24945.24945,0,0,1-.22168.27539A.12684.12684,0,0,1,86.93727,37.51922Z"/><path class="cls-5" d="M76.96983,39.353c-.00422-2.24927-3.41642-.90435-3.43746-2.59218-.03131-2.5119,25.01394-1.8262,24.86545-5.29346-.07191-1.679-2.92666-.934-2.90637-2.38668.0293-2.09785,10.50339.29382,10.50854-4.05648C106.00514,20.67759,100.83624,20,100.83624,20c1.81429.6978,2.5227,3.39028,0,3.62858-1.67309.158-13.904.3044-13.93388,2.3976-.02438,1.705,2.93453.67269,2.97563,2.34379"/><path class="cls-4" d="M76.97,39.60321a.25.25,0,0,1-.25-.249c-.002-.92969-.64013-1.10938-1.69042-1.294-.813-.14355-1.73487-.30566-1.74708-1.29687-.0166-1.32032,4.03223-1.75293,11.18946-2.40235,5.80127-.52637,13.74609-1.24707,13.67578-2.88281-.02734-.63965-.5376-.83008-1.37549-1.06836-.72363-.20508-1.54346-.43848-1.53076-1.333.01514-1.09082,1.81445-1.19922,4.09277-1.33594,2.85694-.17089,6.41309-.38378,6.41553-2.71679.00342-2.80078-2.23975-3.99512-3.708-4.47754a2.41585,2.41585,0,0,1,.66553,1.87012,1.80384,1.80384,0,0,1-1.84766,1.46093c-.27783.02637-.8457.05274-1.60009.08692-8.01905.36718-12.09278,1.06152-12.10694,2.06543-.00879.623.48194.76269,1.28321.94043.74267.16406,1.667.36816,1.69238,1.39355a.25044.25044,0,0,1-.24365.25586h-.00635a.24991.24991,0,0,1-.25-.24414c-.01514-.60254-.50391-.74121-1.30029-.917-.75342-.167-1.69043-.374-1.6753-1.43653.02344-1.6455,5.04785-2.21191,12.584-2.55761.74316-.03321,1.30224-.0586,1.57617-.085.82129-.07715,1.31836-.44336,1.39892-1.03125a2.21573,2.21573,0,0,0-1.46533-2.11524.25.25,0,0,1-.15234-.29492.24544.24544,0,0,1,.2749-.18652c.05371.00683,5.38623.75879,5.38086,5.27246-.00293,2.80371-3.81934,3.03222-6.88574,3.21582-1.77686.10644-3.61377.21679-3.62256.84472-.00684.48633.439.6377,1.16748.84473.75439.21387,1.69385.48047,1.73877,1.52734.084,1.96485-5.54053,2.62305-14.13037,3.40235-4.53516.41211-10.74658.97558-10.73487,1.89844.00635.52148.41114.64746,1.3335.80957.936.165,2.10108.37109,2.104,1.78613a.24944.24944,0,0,1-.24951.25Z"/><polygon class="cls-6" points="78 36.5 80 35 89 37.5 88 45.5 86 47 78 36.5"/><path class="cls-1" d="M85.99977,47.24969a.24919.24919,0,0,1-.19873-.09863l-8-10.5a.24836.24836,0,0,1-.04883-.18555.25094.25094,0,0,1,.09766-.166l2-1.5a.25935.25935,0,0,1,.21679-.041l9,2.5a.25022.25022,0,0,1,.18116.27246l-1,8a.25033.25033,0,0,1-.09815.169l-2,1.5A.2522.2522,0,0,1,85.99977,47.24969ZM78.35133,36.54852l7.69678,10.10254,1.7168-1.28809.96-7.67968-8.67334-2.41016Z"/><polygon class="cls-6" points="87 39 86 47 77 44.5 78 36.5 87 39"/><path class="cls-1" d="M85.99977,47.24969a.25939.25939,0,0,1-.06689-.00879l-9-2.5a.25021.25021,0,0,1-.18116-.27246l1-8a.24762.24762,0,0,1,.10938-.17675.2589.2589,0,0,1,.20556-.03321l9,2.5a.25022.25022,0,0,1,.18116.27246l-1,8a.24764.24764,0,0,1-.10938.17676A.25256.25256,0,0,1,85.99977,47.24969Zm-8.7251-2.93359,8.51319,2.36523.937-7.498-8.51319-2.36524Z"/><polygon class="cls-6" points="73 25 77 22 95 27 93 43 89 46 73 25"/><path class="cls-1" d="M88.99977,46.24969a.24919.24919,0,0,1-.19873-.09863l-16-21a.24836.24836,0,0,1-.04883-.18555.25094.25094,0,0,1,.09766-.166l4-3a.26352.26352,0,0,1,.21679-.041l18,5a.25022.25022,0,0,1,.18116.27246l-2,16a.25033.25033,0,0,1-.09815.169l-4,3A.2522.2522,0,0,1,88.99977,46.24969ZM73.35133,25.04852,89.04811,45.65106l3.7168-2.78809,1.96-15.67968L77.05153,22.27313Z"/><polygon class="cls-6" points="91 30 89 46 71 41 73 25 91 30"/><path class="cls-1" d="M88.99977,46.24969a.25939.25939,0,0,1-.06689-.00879l-18-5a.25021.25021,0,0,1-.18116-.27246l2-16a.24762.24762,0,0,1,.10938-.17675.25507.25507,0,0,1,.20556-.03321l18,5a.25022.25022,0,0,1,.18116.27246l-2,16a.24764.24764,0,0,1-.10938.17676A.25256.25256,0,0,1,88.99977,46.24969ZM71.27467,40.8161l17.51319,4.86523,1.937-15.498L73.21168,25.31805Z"/><polygon class="cls-7" points="88.5 31.375 87 43.375 73.5 39.625 75 27.625 88.5 31.375"/><path class="cls-1" d="M86.99977,43.62469a.25939.25939,0,0,1-.06689-.00879l-13.5-3.75a.25021.25021,0,0,1-.18116-.27246l1.5-12a.24762.24762,0,0,1,.10938-.17675.25827.25827,0,0,1,.20556-.03321l13.5,3.75a.25022.25022,0,0,1,.18116.27246l-1.5,12a.24764.24764,0,0,1-.10938.17676A.25256.25256,0,0,1,86.99977,43.62469ZM73.77467,39.4411l13.01319,3.61523,1.437-11.498L75.21168,27.94305Z"/><path class="cls-1" d="M90.99977,30.24969a.24987.24987,0,0,1-.1499-.45019l4-3a.2501.2501,0,1,1,.2998.40039l-4,3A.2522.2522,0,0,1,90.99977,30.24969Z"/><rect class="cls-2" x="59.99999" y="47" width="29" height="13"/><path class="cls-6" d="M89.04469,54.5704l0,1.49522-.00019-.03922a.9857.9857,0,0,1-.29337.72253l-1.9504,1.9504a2,2,0,0,1-1.89929.52607l-1.188-.297a.99717.99717,0,0,1-.75795-.95473l-.00019-.00447,0-1.50231"/><path class="cls-1" d="M85.38209,59.53485a2.223,2.223,0,0,1-.5415-.06738l-1.1875-.29688a1.23991,1.23991,0,0,1-.94775-1.19238V56.46649a.25.25,0,1,1,.5,0v1.50293a.74718.74718,0,0,0,.56884.7168l1.188.29687a1.76057,1.76057,0,0,0,1.66162-.46094L88.57448,56.572a.73988.73988,0,0,0,.22021-.50977V54.57a.25.25,0,1,1,.5,0v1.45312c.00049.01563.00049.03027,0,.04492v.00684a1.2364,1.2364,0,0,1-.3667.85058l-1.95068,1.9502A2.2608,2.2608,0,0,1,85.38209,59.53485Z"/><polygon class="cls-6" points="86 54 78 57 60 52 60 50 86 52 86 54"/><path class="cls-1" d="M77.99977,57.24969a.25939.25939,0,0,1-.06689-.00879l-18-5a.25036.25036,0,0,1-.18311-.24121v-2a.251.251,0,0,1,.08008-.18359.23269.23269,0,0,1,.189-.06543l26,2a.24946.24946,0,0,1,.231.249v2a.2504.2504,0,0,1-.16211.23438l-8,3A.24726.24726,0,0,1,77.99977,57.24969Zm-17.75-5.44043L77.98805,56.737l7.76172-2.91016v-1.5957l-25.5-1.96192Zm25.75,2.19043h0Z"/><path class="cls-1" d="M85.38209,58.03485a2.21908,2.21908,0,0,1-.541-.06738l-1.188-.29688a1.25013,1.25013,0,0,1-.58105-2.09668l1.95068-1.95019a2.2541,2.2541,0,0,1,2.13672-.59082l1.1875.29687a1.249,1.249,0,0,1,.581,2.0957l-1.95068,1.9502A2.2608,2.2608,0,0,1,85.38209,58.03485Zm1.23438-4.56934a1.7584,1.7584,0,0,0-1.24024.51172l-1.95068,1.9502a.7506.7506,0,0,0,.34863,1.25879l1.18848.29687a1.76376,1.76376,0,0,0,1.66113-.46094L88.57448,55.072a.74991.74991,0,0,0-.34864-1.25781l-1.188-.29688A1.76816,1.76816,0,0,0,86.61647,53.46551Z"/><g class="cls-8"><path class="cls-6" d="M84.90142,57.72536l-1.188-.297a1,1,0,0,1-.46457-1.67725l1.9504-1.9504a2,2,0,0,1,1.89929-.52607l1.188.297a1,1,0,0,1,.46457,1.67725l-1.9504,1.9504A2,2,0,0,1,84.90142,57.72536Z"/><path class="cls-9" d="M86.41774,55.33172A.25.25,0,0,1,86.241,54.905l1.582-1.582a.25.25,0,0,1,.35352.35351l-1.582,1.582A.2492.2492,0,0,1,86.41774,55.33172Z"/><path class="cls-9" d="M89.99977,56.22723a.21714.21714,0,0,1-.06055-.00781l-7.91064-1.97754a.24959.24959,0,0,1-.18213-.30273.24336.24336,0,0,1,.30322-.18164l7.91065,1.97754a.24978.24978,0,0,1-.06055.49218Z"/></g><path class="cls-1" d="M77.99977,55.24969a.25939.25939,0,0,1-.06689-.00879l-18-5a.25035.25035,0,0,1-.021-.47558l8-3a.25389.25389,0,0,1,.15478-.00684l18,5a.25035.25035,0,0,1,.021.47559l-8,3A.24726.24726,0,0,1,77.99977,55.24969ZM60.80641,49.96454,77.98805,54.737l7.20508-2.70215L68.01149,47.26239Z"/><g class="cls-10"><polygon class="cls-6" points="86 52 78 55 60 50 68 47 86 52"/><path class="cls-9" d="M91.74977,59.85028a.26506.26506,0,0,1-.06689-.00879l-36-10a.25031.25031,0,0,1,.13378-.48242l36,10a.25018.25018,0,0,1-.06689.49121Z"/><path class="cls-9" d="M57.74977,60.85028a.25022.25022,0,0,1-.08789-.48438l32-12a.25031.25031,0,0,1,.17578.46875l-32,12A.25092.25092,0,0,1,57.74977,60.85028Z"/><path class="cls-9" d="M91.74977,61.85028a.26506.26506,0,0,1-.06689-.00879l-36-10a.25031.25031,0,0,1,.13378-.48242l36,10a.25018.25018,0,0,1-.06689.49121Z"/><path class="cls-9" d="M57.74977,62.85028a.25022.25022,0,0,1-.08789-.48438l32-12a.25031.25031,0,0,1,.17578.46875l-32,12A.25092.25092,0,0,1,57.74977,62.85028Z"/><path class="cls-9" d="M91.74977,63.85028a.26506.26506,0,0,1-.06689-.00879l-36-10a.25031.25031,0,0,1,.13378-.48242l36,10a.25018.25018,0,0,1-.06689.49121Z"/><path class="cls-9" d="M65.74977,61.85028a.25022.25022,0,0,1-.08789-.48438l16-6a.25031.25031,0,0,1,.17578.46875l-16,6A.25092.25092,0,0,1,65.74977,61.85028Z"/><path class="cls-9" d="M91.74977,65.85028a.26506.26506,0,0,1-.06689-.00879l-36-10a.25031.25031,0,0,1,.13378-.48242l36,10a.25018.25018,0,0,1-.06689.49121Z"/><path class="cls-9" d="M65.74977,63.85028a.25022.25022,0,0,1-.08789-.48438l16-6a.25031.25031,0,0,1,.17578.46875l-16,6A.25092.25092,0,0,1,65.74977,63.85028Z"/><path class="cls-9" d="M91.74977,51.85028a.26506.26506,0,0,1-.06689-.00879l-36-10a.25031.25031,0,0,1,.13378-.48242l36,10a.25018.25018,0,0,1-.06689.49121Z"/><path class="cls-9" d="M57.74977,52.85028a.25022.25022,0,0,1-.08789-.48438l32-12a.25031.25031,0,0,1,.17578.46875l-32,12A.25092.25092,0,0,1,57.74977,52.85028Z"/><path class="cls-9" d="M91.74977,53.85028a.26506.26506,0,0,1-.06689-.00879l-36-10a.25031.25031,0,0,1,.13378-.48242l36,10a.25018.25018,0,0,1-.06689.49121Z"/><path class="cls-9" d="M65.74977,51.85028a.25022.25022,0,0,1-.08789-.48438l16-6a.25031.25031,0,0,1,.17578.46875l-16,6A.25092.25092,0,0,1,65.74977,51.85028Z"/><path class="cls-9" d="M91.74977,55.85028a.26506.26506,0,0,1-.06689-.00879l-36-10a.25031.25031,0,0,1,.13378-.48242l36,10a.25018.25018,0,0,1-.06689.49121Z"/><path class="cls-9" d="M65.74977,53.85028a.25022.25022,0,0,1-.08789-.48438l16-6a.25031.25031,0,0,1,.17578.46875l-16,6A.25092.25092,0,0,1,65.74977,53.85028Z"/><path class="cls-9" d="M91.74977,57.85028a.26506.26506,0,0,1-.06689-.00879l-36-10a.25031.25031,0,0,1,.13378-.48242l36,10a.25018.25018,0,0,1-.06689.49121Z"/><path class="cls-9" d="M65.74977,55.85028a.25022.25022,0,0,1-.08789-.48438l16-6a.25031.25031,0,0,1,.17578.46875l-16,6A.25092.25092,0,0,1,65.74977,55.85028Z"/><path class="cls-9" d="M91.74977,43.85028a.26506.26506,0,0,1-.06689-.00879l-36-10a.25031.25031,0,0,1,.13378-.48242l36,10a.25018.25018,0,0,1-.06689.49121Z"/><path class="cls-9" d="M65.74977,41.85028a.25022.25022,0,0,1-.08789-.48438l16-6a.25031.25031,0,0,1,.17578.46875l-16,6A.25092.25092,0,0,1,65.74977,41.85028Z"/><path class="cls-9" d="M91.74977,45.85028a.26506.26506,0,0,1-.06689-.00879l-36-10a.25031.25031,0,0,1,.13378-.48242l36,10a.25018.25018,0,0,1-.06689.49121Z"/><path class="cls-9" d="M65.74977,43.85028a.25022.25022,0,0,1-.08789-.48438l16-6a.25031.25031,0,0,1,.17578.46875l-16,6A.25092.25092,0,0,1,65.74977,43.85028Z"/><path class="cls-9" d="M91.74977,47.85028a.26506.26506,0,0,1-.06689-.00879l-36-10a.25031.25031,0,0,1,.13378-.48242l36,10a.25018.25018,0,0,1-.06689.49121Z"/><path class="cls-9" d="M65.74977,45.85028a.25022.25022,0,0,1-.08789-.48438l16-6a.25031.25031,0,0,1,.17578.46875l-16,6A.25092.25092,0,0,1,65.74977,45.85028Z"/><path class="cls-9" d="M91.74977,49.85028a.26506.26506,0,0,1-.06689-.00879l-36-10a.25031.25031,0,0,1,.13378-.48242l36,10a.25018.25018,0,0,1-.06689.49121Z"/><path class="cls-9" d="M65.74977,47.85028a.25022.25022,0,0,1-.08789-.48438l16-6a.25031.25031,0,0,1,.17578.46875l-16,6A.25092.25092,0,0,1,65.74977,47.85028Z"/><path class="cls-9" d="M91.74977,35.85028a.26506.26506,0,0,1-.06689-.00879l-36-10a.25031.25031,0,0,1,.13378-.48242l36,10a.25018.25018,0,0,1-.06689.49121Z"/><path class="cls-9" d="M65.74977,33.85028a.25022.25022,0,0,1-.08789-.48438l16-6a.25031.25031,0,0,1,.17578.46875l-16,6A.25092.25092,0,0,1,65.74977,33.85028Z"/><path class="cls-9" d="M91.74977,37.85028a.26506.26506,0,0,1-.06689-.00879l-36-10a.25031.25031,0,0,1,.13378-.48242l36,10a.25018.25018,0,0,1-.06689.49121Z"/><path class="cls-9" d="M65.74977,35.85028a.25022.25022,0,0,1-.08789-.48438l16-6a.25031.25031,0,0,1,.17578.46875l-16,6A.25092.25092,0,0,1,65.74977,35.85028Z"/><path class="cls-9" d="M91.74977,39.85028a.26506.26506,0,0,1-.06689-.00879l-36-10a.25031.25031,0,0,1,.13378-.48242l36,10a.25018.25018,0,0,1-.06689.49121Z"/><path class="cls-9" d="M65.74977,37.85028a.25022.25022,0,0,1-.08789-.48438l16-6a.25031.25031,0,0,1,.17578.46875l-16,6A.25092.25092,0,0,1,65.74977,37.85028Z"/><path class="cls-9" d="M91.74977,41.85028a.26506.26506,0,0,1-.06689-.00879l-36-10a.25031.25031,0,0,1,.13378-.48242l36,10a.25018.25018,0,0,1-.06689.49121Z"/><path class="cls-9" d="M65.74977,39.85028a.25022.25022,0,0,1-.08789-.48438l16-6a.25031.25031,0,0,1,.17578.46875l-16,6A.25092.25092,0,0,1,65.74977,39.85028Z"/></g><line class="cls-11" x1="77.99999" y1="55" x2="77.99999" y2="57"/><path class="cls-1" d="M77.99977,57.24969a.25017.25017,0,0,1-.25-.25v-2a.25.25,0,0,1,.5,0v2A.25017.25017,0,0,1,77.99977,57.24969Z"/><path class="cls-12" d="M74.60254,17.86631c.76485,2.31082,4.20419,4.17067,8.7761,3.25991a11.46458,11.46458,0,0,0,6.08556-4.02549s7.99223.91825,8.21314-.43625c.24331-1.49187-9.68245-2.7663-15.30946-2.09311-2.735.32722-4.35808,1.33838-5.656.56655a10.48707,10.48707,0,0,0-4.12111-1.29527c-1.63279-.05831-3.06381,1.77548-2.53666,2.47834.6123.81639,1.70862.09525,2.53666.23326A2.72,2.72,0,0,1,74.60254,17.86631Z"/><path class="cls-1" d="M81.02174,21.61786c-3.55127,0-6.00732-1.71094-6.65674-3.67383a2.49416,2.49416,0,0,0-1.81543-1.14258,2.623,2.623,0,0,0-.873.07129c-.62793.11328-1.33789.24414-1.82276-.40137a1.15615,1.15615,0,0,1,.04151-1.23828,3.198,3.198,0,0,1,2.7041-1.64062,10.81513,10.81513,0,0,1,4.24023,1.331c.7417.44043,1.65137.21778,2.91114-.09082a20.53257,20.53257,0,0,1,2.5874-.50976c5.26514-.63184,14.02734.39257,15.37012,1.79394a.67276.67276,0,0,1,.21582.58789c-.23536,1.43945-6.25733.89453-8.3418.66016a11.73673,11.73673,0,0,1-6.15479,4.00683A12.30083,12.30083,0,0,1,81.02174,21.61786Zm-8.666-5.332a1.73234,1.73234,0,0,1,.27588.02148,2.9609,2.9609,0,0,1,2.208,1.48047h0c.73047,2.206,4.10547,3.96777,8.49024,3.09375a11.2828,11.2828,0,0,0,5.92773-3.92188.25726.25726,0,0,1,.23487-.10742c3.74609.42871,7.8291.44239,7.93847-.22754.0083-.05273-.041-.11718-.084-.16211-1.1211-1.16992-9.65528-2.27539-14.94922-1.64355a20.31987,20.31987,0,0,0-2.52734.499c-1.32178.32422-2.36573.583-3.28663.03516a10.22154,10.22154,0,0,0-4.00195-1.26074,2.59756,2.59756,0,0,0-2.24365,1.37207c-.15772.30176-.18945.5664-.084.70605.28516.38086.69141.33008,1.332.21A4.39541,4.39541,0,0,1,72.35573,16.28583Z"/><path class="cls-13" d="M70.1043,16.499c-.13179.24-.4704,1.25209-.205,1.403s.78554-1.0382.78554-1.0382"/><path class="cls-1" d="M81.41969,19.33075a4.04156,4.04156,0,0,1-2.8042-1.04688.25016.25016,0,0,1,.33985-.36718,3.76229,3.76229,0,0,0,3.28271.84277A4.6283,4.6283,0,0,0,85.45,16.73993a.25029.25029,0,0,1,.44335.23242,5.073,5.073,0,0,1-3.57031,2.2793A5.25623,5.25623,0,0,1,81.41969,19.33075Z"/><path class="cls-1" d="M84.34206,25.66962l-.02686-.001-1.4043-.15039a.25092.25092,0,0,1-.22168-.27539.25445.25445,0,0,1,.27539-.22266l1.11768.12012-.14063-4.125a.25044.25044,0,0,1,.2417-.25879h.0083a.25034.25034,0,0,1,.25.24121l.1504,4.41309a.25077.25077,0,0,1-.25.25879Z"/><path class="cls-1" d="M81.45631,25.5202a.2319.2319,0,0,1-.03662-.00293l-1.24023-.18262a.24944.24944,0,0,1-.21094-.2832.24609.24609,0,0,1,.28418-.21094l.96387.14161.13232-3.64258a.23967.23967,0,0,1,.25928-.24121.25023.25023,0,0,1,.24072.25879L81.70631,25.279a.24942.24942,0,0,1-.25.24121Z"/><path class="cls-13" d="M55.91967,44.74657c.31585.03158,1.42131.37063,1.35814.62331s-1.08262.15316-1.475.07292"/><path class="cls-1" d="M46.91139,60.38446a.24918.24918,0,0,1-.24951-.23731l-.23682-4.71582a.25009.25009,0,0,1,.23682-.26269.25831.25831,0,0,1,.26221.2373l.22412,4.458.97265-.082a.24328.24328,0,0,1,.27.22852.24981.24981,0,0,1-.228.26953l-1.23047.10351Z"/><path class="cls-1" d="M43.40016,60.654a.25059.25059,0,0,1-.24951-.2334l-.332-4.85644a.24906.24906,0,0,1,.23242-.26563.24238.24238,0,0,1,.2666.23242l.31543,4.61328.958-.04a.2607.2607,0,0,1,.26025.23925.25052.25052,0,0,1-.23974.26075l-1.20118.0498Z"/><path class="cls-14" d="M44.19348,48.73845c-2.70444.16347-5.90958,1.76891-6.50958,2.59391,0,0-4.68693-2.28344-5.48975-2.578-.8011-.29387-1.19064-.3647-1.4799.10325-.21243.34365.15069,1.02352.55066,1.4799a17.21246,17.21246,0,0,0,13.24843,5.36836c6.50529-.12426,7.71683-2.854,7.82354-4.19251a46.4531,46.4531,0,0,0,3.21568-5.33516c.28281-.74512.696-1.91286-.07448-2.20785-.69749-.267-1.233.36162-1.95433,1.25606-.69963.86755-3.00271,3.68648-3.90112,3.72274C48.18467,49.00724,46.804,48.58066,44.19348,48.73845Z"/><path class="cls-1" d="M44.12282,55.95965a17.4567,17.4567,0,0,1-13.03858-5.44824c-.46045-.52539-.88281-1.30078-.58252-1.78515.43262-.69922,1.11719-.4502,1.77832-.20606.72657.26563,4.47168,2.08106,5.33985,2.50293A12.53936,12.53936,0,0,1,44.17848,48.488h0a21.03051,21.03051,0,0,1,3.63965.11329,12.64061,12.64061,0,0,0,1.79443.09765c.1919-.00781,1.02637-.292,3.71631-3.62988.69385-.86035,1.34619-1.67578,2.23877-1.332,1.0293.39355.48193,1.83691.21875,2.53027a44.20633,44.20633,0,0,1-3.20654,5.333c-.11182,1.07519-1.04492,4.22168-8.06153,4.35547C44.386,55.95868,44.25319,55.95965,44.12282,55.95965ZM31.27956,48.76922a.37225.37225,0,0,0-.35254.22071c-.10059.16113.09082.68652.52588,1.18262a16.94136,16.94136,0,0,0,12.66992,5.2871c.12744,0,.25634-.001.38574-.0039,6.75049-.12891,7.50781-3.06543,7.5791-3.96192a.24592.24592,0,0,1,.04248-.12109,46.60636,46.60636,0,0,0,3.18848-5.2832c.31347-.82617.56689-1.69532.07031-1.88574-.49561-.1875-.90869.23535-1.67041,1.17968-3.0415,3.77344-3.82764,3.80469-4.08545,3.81543a13.48257,13.48257,0,0,1-1.86426-.10058,20.02476,20.02476,0,0,0-3.56006-.11036c-2.67871.16211-5.78759,1.75586-6.32275,2.49219a.24835.24835,0,0,1-.31152.07715c-.04688-.02246-4.68457-2.28223-5.46631-2.56836A2.78775,2.78775,0,0,0,31.27956,48.76922Z"/><path class="cls-1" d="M44.59254,53.362a5.52414,5.52414,0,0,1-3.813-1.28223.25032.25032,0,0,1,.35644-.35156,5.05967,5.05967,0,0,0,3.477,1.13379A5.13581,5.13581,0,0,0,48.282,51.54657a.25034.25034,0,0,1,.3584.34961A5.63482,5.63482,0,0,1,44.61452,53.362Z"/><path class="cls-15" d="M58.71071,41.42255a.25.25,0,0,1-.13086-.4629,5.269,5.269,0,0,0,1.90771-3.94238.25.25,0,1,1,.5,0,5.74465,5.74465,0,0,1-2.146,4.36817A.24543.24543,0,0,1,58.71071,41.42255Z"/><path class="cls-15" d="M59.62282,42.94305a.25006.25006,0,0,1-.00782-.5,4.56574,4.56574,0,0,0,3.812-4.01367.26456.26456,0,0,1,.25634-.24316.25037.25037,0,0,1,.24366.25683,5.05448,5.05448,0,0,1-4.29639,4.5Z"/><path class="cls-15" d="M61.6404,44.26922c-.07569,0-.14844-.00292-.21827-.00976a.25027.25027,0,0,1,.04981-.498A3.43364,3.43364,0,0,0,64.76588,41.53a.2433.2433,0,0,1,.30323-.18164.25.25,0,0,1,.18212.30273A3.95244,3.95244,0,0,1,61.6404,44.26922Z"/><path class="cls-16" d="M121.03149,53.13948c-2.74573-.22015-4.60172.51758-5.65638-.56322-.81275-.83289-2.96367-5.95086-4.62049-5.41535-1.50787.48736,2.12,6.71823,2.29616,7.79021.39483,2.40187,3.01345,4.80224,7.67519,4.81363,2.84991.007,5.789-.9462,6.69038-1.82559,0,0,7.07384,2.75394,7.55825,1.46989C135.50815,57.99475,126.6805,53.5924,121.03149,53.13948Z"/><path class="cls-1" d="M120.761,60.01434h-.03564c-4.877-.01172-7.52491-2.61133-7.92139-5.02246a14.458,14.458,0,0,0-.84082-2.00391c-1.18262-2.55468-2.12842-4.74414-1.73-5.65527a.71636.71636,0,0,1,.44482-.41015c1.36035-.44141,2.77539,1.99609,3.90821,3.956a10.62619,10.62619,0,0,0,.96777,1.52246c.5957.61133,1.53613.56445,2.83594.49414a19.53024,19.53024,0,0,1,2.66162-.00488h0c4.92676.39453,12.79834,3.9414,14.021,5.87012a.81733.81733,0,0,1,.13575.73632.681.681,0,0,1-.38086.38086c-1.335.58887-6.29541-1.24218-7.35791-1.65039C126.41481,59.113,123.57008,60.01434,120.761,60.01434Zm-9.75439-12.64258a.56419.56419,0,0,0-.1753.02735.21731.21731,0,0,0-.14013.13379c-.34082.77929.95263,3.57519,1.72558,5.24511a12.76928,12.76928,0,0,1,.88037,2.13282c.36328,2.21,2.84327,4.59277,7.4292,4.60351,2.79248-.00683,5.65918-.91894,6.51514-1.7539a.25385.25385,0,0,1,.26562-.05469c2.35352.917,6.19385,2.13183,7.1167,1.71484.09473-.042.11133-.08594.1167-.09961a.39387.39387,0,0,0-.09033-.293c-1.05518-1.665-8.65234-5.23925-13.63867-5.63964a19.19463,19.19463,0,0,0-2.5957.00585c-1.37989.07325-2.4668.12793-3.21924-.64355a10.269,10.269,0,0,1-1.04346-1.62207C113.32887,49.70282,111.98122,47.37176,111.00661,47.37176Z"/><path class="cls-13" d="M110.44214,47.77875c-.29.0528-1.36573.45695-1.31169.78118s1.40094-.04838,1.40094-.04838"/><path class="cls-1" d="M120.60377,57.54852c-.10449,0-.20947-.00293-.31494-.00781a4.48567,4.48567,0,0,1-3.58593-1.71582.24986.24986,0,0,1,.417-.27539,3.99856,3.99856,0,0,0,3.19287,1.49219,4.16752,4.16752,0,0,0,3.33349-1.09473.25.25,0,0,1,.38868.31445A4.49034,4.49034,0,0,1,120.60377,57.54852Z"/><path class="cls-1" d="M118.49147,64.32489h-1.15674a.25.25,0,0,1,0-.5h.92481l.314-4.22852a.24291.24291,0,0,1,.26807-.23047.2496.2496,0,0,1,.23095.26758l-.33154,4.46A.25.25,0,0,1,118.49147,64.32489Z"/><path class="cls-1" d="M121.31618,64.32489h-1.19092a.25.25,0,0,1,0-.5h.94092V59.75262a.25.25,0,0,1,.5,0v4.32227A.25017.25017,0,0,1,121.31618,64.32489Z"/></g></g></svg>