<svg xmlns="http://www.w3.org/2000/svg" width="160" height="80" viewBox="0 0 160 80"><defs><style>.cls-1{fill:none;}.cls-2,.cls-8{fill:#ddd;}.cls-2,.cls-5{opacity:0.8;}.cls-3{fill:#003437;}.cls-10,.cls-4{fill:#053437;}.cls-5{fill:#aaa;}.cls-6{fill:#fff;}.cls-10,.cls-11,.cls-13,.cls-6,.cls-7,.cls-9{fill-rule:evenodd;}.cls-7{fill:#2bb5e9;}.cls-9{fill:#f0403d;}.cls-11{fill:#f47925;}.cls-12{fill:#f7ce05;}.cls-13{fill:#f6e55a;}</style></defs><g id="Layer_2" data-name="Layer 2"><g id="Layer_2-2" data-name="Layer 2"><rect class="cls-1" width="160" height="80"/><path class="cls-2" d="M80.56116,43.95288c-.59991-2.51015,9.08335-2.24472,8.99081-3.82155-.08075-1.37592,2.35311,1.07511,2.31217.09634-.04575-1.094,9.58337-2.03564,14.26925-3.23641,3.92168-1.00495,5.84214-3.16373,5.84214-3.94724,0-1.71969-3.00946-1.43307-3.00946-2.14961s1.93465-.35827,1.863-1.71969-5.23073-.07166-5.01577-1.79135,10.59278.34464,7.15642-2.42683a6.32961,6.32961,0,0,0-3.106-.70994c-5.32844-.33131-19.88808.11726-19.85474,2.34971.02135,1.42979,1.89951.83079,1.91056,1.81.01313,1.16447-.91379.93247-.91379,1.94141,0,2.3435,12.01962-2.11688,11.97493-.13141-.02686,1.19347-1.3509.86407-1.30723,2.01112.04209,1.10531,2.03017.29763,2.01112,1.50833-.03,1.9089-17.12137-1.04567-20.01061,2.5139-.73149.9012,1.5191.50282,1.50834,1.81Z"/><path class="cls-3" d="M80.56132,44.20278a.24659.24659,0,0,1-.05322-.00586.25055.25055,0,0,1-.18994-.18554,1.09638,1.09638,0,0,1,.15136-.88379,2.39457,2.39457,0,0,1,1.03565-.78321L84.929,37.9772c-.03663-.40235-.3833-.5625-.897-.75489-.33838-.127-.6582-.24707-.73779-.53906a.69372.69372,0,0,1,.18555-.59082c1.75049-2.15625,8.23144-2.03418,13.43652-1.93262,2.94238.05762,5.9834.11426,6.48438-.36914.0332-.03222.03369-.0498.03369-.05859.00586-.37207-.21826-.44629-.813-.55078-.49365-.08594-1.16943-.2041-1.19776-.94434a1.25682,1.25682,0,0,1,.74219-1.208c.32178-.206.55469-.35449.56494-.81836a.12534.12534,0,0,0-.04931-.1123c-.49707-.4209-3.12891.084-5.2417.49023-2.85889.54883-5.55713,1.06739-6.397.37207a.7699.7699,0,0,1-.28711-.61328,1.30824,1.30824,0,0,1,.51562-1.07129.97028.97028,0,0,0,.39844-.86718c-.00244-.22657-.147-.30567-.6416-.458-.5293-.16309-1.2544-.38672-1.26905-1.35059a.89476.89476,0,0,1,.31543-.666c2.02491-1.93164,14.96143-2.23243,19.80469-1.9375a6.30291,6.30291,0,0,1,3.24707.76562c.40527.32617.92432.81641.75879,1.29492-.2373.6875-1.65381.74024-3.94531.76953-1.51758.02051-3.811.04981-3.87842.5879a.36437.36437,0,0,0,.07617.30273c.30567.3623,1.375.41309,2.31885.457,1.32519.0625,2.57666.12109,2.62207.98731.05176.98242-.76563,1.252-1.30664,1.42968-.273.09082-.55566.1836-.55566.30274.04785.10351.54492.23926.84228.32031.91455.251,2.167.59277,2.167,1.8291,0,.94922-2.01513,3.16016-6.02978,4.18945-1.79151.459-4.28955.87891-6.70508,1.28418-3.01514.50684-7.145,1.2002-7.3794,1.72071a.42683.42683,0,0,1-.19091.41406c-.28321.17676-.688-.044-1.2002-.32227a2.6839,2.6839,0,0,0-.91064-.377.72148.72148,0,0,0-.00782.16406c.05323.91211-1.6582,1.22559-4.02636,1.66114a21.171,21.171,0,0,0-3.95362.97265L80.7581,44.10708A.24911.24911,0,0,1,80.56132,44.20278Zm12.89014-9.58691c-4.09717,0-8.34619.26758-9.583,1.791-.0874.10742-.09082.15235-.09082.15332a1.85411,1.85411,0,0,0,.42969.19336c.49072.18457,1.23193.46192,1.22509,1.30762a.25.25,0,0,1-.05322.15234l-2.97558,3.79493a30.29018,30.29018,0,0,1,3.28125-.72266c1.53808-.28223,3.645-.66895,3.61767-1.13965a.62741.62741,0,0,1,.23975-.61621c.34863-.2207.86718.06152,1.4165.36035a4.44133,4.44133,0,0,0,.65625.31445c.09229-.81347,2.27393-1.2539,7.793-2.18066,2.40527-.40332,4.89258-.82129,6.66357-1.27539,3.95264-1.0127,5.65381-3.16113,5.65381-3.70508,0-.791-.77978-1.06738-1.79931-1.34668-.64893-.17773-1.21-.331-1.21-.80273,0-.48047.47753-.63867.89892-.77735.61963-.2041.99365-.36914.96436-.92968-.022-.41309-1.2002-.46875-2.14649-.5127-1.14746-.05469-2.23144-.10547-2.67773-.63574a.8582.8582,0,0,1-.18994-.68652c.12109-.96973,2.08935-.99512,4.36767-1.0254,1.332-.0166,3.34473-.043,3.47949-.43261.02637-.0752-.0708-.31641-.59961-.74317a6.078,6.078,0,0,0-2.96484-.65429c-4.88818-.3086-17.61767.07226-19.42822,1.79882a.41958.41958,0,0,0-.16065.29688c.00879.57129.354.707.91651.88086.43945.13574.98681.30469.99414.92969a1.45332,1.45332,0,0,1-.55908,1.24023.8216.8216,0,0,0-.355.7041.274.274,0,0,0,.10546.22852c.65821.543,3.61231-.02442,5.98389-.47852,3.09863-.5957,5.02539-.916,5.65918-.38086a.623.623,0,0,1,.22656.50586,1.375,1.375,0,0,1-.79589,1.22754c-.31788.20313-.52784.33789-.51124.76758.01075.291.19581.36914.7837.47168.52343.0918,1.24023.2168,1.22705,1.05078a.57679.57679,0,0,1-.186.41016c-.62012.59961-2.88916.584-6.84131.50976C95.81962,34.63833,94.64189,34.61587,93.45146,34.61587Z"/><path class="cls-4" d="M87.9998,54.24966a.24977.24977,0,0,1-.10059-.47852c2.18018-.959,2.2085-2.44141,2.23877-4.01074a5.5426,5.5426,0,0,1,.56885-2.85254c.77685-1.294,2.5166-1.39356,4.19922-1.48926,1.40771-.08008,2.86279-.16308,3.6997-.93555.24561-.22656.22217-.3955.17481-.5166-.54541-1.3955-6.67725-2.97754-8.45166-2.97754a.25.25,0,0,1,0-.5c1.76025,0,8.23779,1.55762,8.91748,3.29493a.91594.91594,0,0,1-.30176,1.0664c-.96826.89453-2.51465.98242-4.00976,1.06739-1.62452.09277-3.15821.17968-3.79932,1.248a5.09339,5.09339,0,0,0-.49756,2.60449c-.03027,1.58008-.06494,3.3711-2.5376,4.458A.24532.24532,0,0,1,87.9998,54.24966Z"/><path class="cls-4" d="M76.43241,50.08071a.25006.25006,0,0,1-.082-.48633c1.37793-.47656,2.63526-1.708,2.56787-2.27929-.03076-.26172-.41552-.3545-.73339-.38575-.4712-.04785-1.02295-.07324-1.60694-.10058-1.83056-.08594-3.72265-.17481-4.252-.94629a.88921.88921,0,0,1-.08985-.81641c.36915-1.10742,3.71338-2.65918,6.457-3.30761,1.4038-.33106,3.92285-.72168,5.02587.38183a.25.25,0,0,1-.35351.35352c-.68018-.68067-2.34131-.77051-4.55762-.248-2.98388.7041-5.84668,2.22656-6.09717,2.97852a.38951.38951,0,0,0,.02784.376c.38818.56543,2.31445.65625,3.86279.72852.59082.02832,1.14892.05469,1.6333.10254.90576.09082,1.14209.499,1.18018.82617.11328.96094-1.49463,2.32226-2.90039,2.80957A.24126.24126,0,0,1,76.43241,50.08071Z"/><path class="cls-2" d="M77.93787,37.26948v.05311c0,.82843,2.01472,1.5,4.5,1.5s4.5-.67157,4.5-1.5"/><path class="cls-2" d="M86.93787,37.26948c-.7885-7.26234-11.423-3.63964-11.90763-5.66734C74.43033,29.092,91.56151,29.79377,91.469,28.21693c-.08075-1.37592-2.252-.23935-2.29292-1.21812-.04575-1.094,6.74054-1.15751,11.42642-2.35829,3.92168-1.00494,5.84213-3.16373,5.84213-3.94724,0-1.71969-3.00945-1.43307-3.00945-2.14961s1.93465-.35827,1.863-1.71969-5.23072-.07165-5.01576-1.79134,6.52049,1.71969,7.52365-2.57954A6.10316,6.10316,0,0,0,105.5948,6c1.30723,2.11167,0,5.32945-1.30722,5.63112s-19.84284.382-19.8095,2.61445c.02135,1.42979,1.89951.83079,1.91056,1.81.01313,1.16447-.91379.93247-.91379,1.94142,0,2.34349,12.01961-2.11689,11.97493-.13142-.02686,1.19347-1.35091.86407-1.30723,2.01112.04209,1.10531,2.03017.29763,2.01112,1.50834-.03,1.90889-20.016.79266-20.01061,2.51389.00364,1.1607,1.5191.50283,1.50834,1.81"/><path class="cls-3" d="M82.43778,39.0729c-2.30273,0-4.75-.61328-4.75-1.75a.275.275,0,0,1,.25-.27735.229.229,0,0,1,.25.22364v.05371c0,.52148,1.6167,1.25,4.25,1.25s4.25-.72852,4.25-1.25a.25.25,0,0,1,.5,0C87.18778,38.45962,84.74052,39.0729,82.43778,39.0729Z"/><path class="cls-3" d="M86.9373,37.51919a.24948.24948,0,0,1-.248-.22266c-.49219-4.53515-5.03516-4.62109-8.35254-4.68457-1.9375-.03613-3.3374-.06348-3.5498-.95117a.7753.7753,0,0,1,.1372-.65332c.77246-1.05957,4.47022-1.41992,9.60938-1.81348,2.729-.209,6.46631-.49414,6.688-.97754-.0293-.45019-.34473-.50195-1.05811-.50976-.50976-.00489-1.2085-.0127-1.2373-.69727-.03418-.82226,1.67285-1.0791,5.22656-1.53711a55.58319,55.58319,0,0,0,6.38769-1.07422c3.95313-1.01269,5.6543-3.16113,5.6543-3.70507,0-.791-.77978-1.06739-1.79932-1.34668-.64941-.17774-1.21-.33106-1.21-.80274,0-.48047.47754-.63867.89893-.77734.61963-.2041.99365-.36914.96435-.92969-.022-.41309-1.20019-.46875-2.147-.51269-1.14746-.05469-2.23144-.10547-2.67724-.63575a.85645.85645,0,0,1-.19-.68652c.11377-.90625,1.26221-.78418,2.59131-.64453,1.94776.207,4.37159.46387,4.93653-1.96094a5.85071,5.85071,0,0,0-1.30909-5.46875,5.22343,5.22343,0,0,1-.28515,3.18457,2.76716,2.76716,0,0,1-1.62451,1.7627c-.33155.07714-1.48291.13086-3.66016.22656-4.36963.19336-15.97656.70605-15.95508,2.14062.0083.57129.35352.707.916.88086.43994.13575.9873.30469.99414.92969a1.45445,1.45445,0,0,1-.5586,1.24024.8216.8216,0,0,0-.355.7041.274.274,0,0,0,.10547.22851c.65869.543,3.6128-.02441,5.98389-.47851,3.09863-.59571,5.02539-.917,5.65918-.38086a.623.623,0,0,1,.22656.50586,1.375,1.375,0,0,1-.7959,1.22754c-.31787.2041-.52832.33789-.51172.76757.01075.291.19581.36914.78418.47168.52344.0918,1.24024.2168,1.22706,1.05078-.01709,1.10157-3.25635,1.32911-10.64307,1.58594-3.84082.13379-9.10108.31739-9.36914.93262.00293.36523.17529.44629.56494.59375a1.16971,1.16971,0,0,1,.94482,1.209.24975.24975,0,0,1-.25.248h-.002a.25019.25019,0,0,1-.248-.252c.0044-.5-.24511-.59375-.62207-.73731a1.0828,1.0828,0,0,1-.88623-1.06933c-.00293-.9834,2.84864-1.18067,9.85059-1.42481,3.54687-.123,10.14844-.35254,10.16016-1.09375.00585-.37207-.21827-.44629-.81348-.55078-.49317-.08594-1.16895-.2041-1.19776-.94433a1.25754,1.25754,0,0,1,.74219-1.208c.32227-.20606.55518-.35449.56543-.81836a.12538.12538,0,0,0-.04931-.11231c-.49659-.42187-3.12891.084-5.2417.49024-2.8584.54883-5.55713,1.06836-6.397.37207a.77.77,0,0,1-.28711-.61328A1.30955,1.30955,0,0,1,85.74,16.92544a.9692.9692,0,0,0,.39844-.86719c-.00244-.22656-.14649-.30566-.6416-.458-.5293-.16308-1.2544-.38672-1.26856-1.35058-.02441-1.60645,6.00733-2.1875,16.43311-2.64746,1.82568-.08106,3.26758-.14454,3.56982-.21387a2.38484,2.38484,0,0,0,1.27539-1.46875,4.288,4.288,0,0,0-.124-3.78809.25025.25025,0,0,1,.35156-.33984,6.40672,6.40672,0,0,1,2.31543,6.71777c-.66553,2.85547-3.44678,2.56153-5.47656,2.34473-1.02393-.10742-1.98975-.21192-2.04248.21a.36436.36436,0,0,0,.07617.30273c.30566.36231,1.375.41309,2.31836.457,1.32519.0625,2.57715.12109,2.62256.9873.05176.98242-.76563,1.252-1.30664,1.42969-.27344.09082-.55567.18359-.55567.30273.04786.10352.54493.23926.84229.32031.91455.251,2.167.59278,2.167,1.82911,0,.94921-2.01514,3.16113-6.03027,4.18945a55.93159,55.93159,0,0,1-6.44776,1.08594c-1.91455.24707-4.80761.61914-4.79052,1.01953.00683.17187.146.21289.74267.21875.59424.00683,1.49219.0166,1.54981.99511.05029.85938-1.91993,1.09083-7.147,1.49122-3.8081.291-8.54687.65429-9.24316,1.60937a.27455.27455,0,0,0-.05518.24219c.12256.51172,1.55567.53906,3.07325.56738,3.30517.06348,8.2998.1582,8.83984,5.12988a.24945.24945,0,0,1-.22168.27539A.12625.12625,0,0,1,86.9373,37.51919Z"/><path class="cls-5" d="M76.96983,39.353c-.00422-2.24927-3.41642-.90435-3.43746-2.59218-.03131-2.5119,25.01394-1.8262,24.86545-5.29346-.07191-1.679-2.92666-.934-2.90637-2.38668.0293-2.09785,10.50339.29382,10.50854-4.05648C106.00514,20.67759,100.83624,20,100.83624,20c1.81429.6978,2.5227,3.39028,0,3.62858-1.67309.158-13.904.3044-13.93388,2.3976-.02438,1.705,2.93453.67269,2.97563,2.34379"/><path class="cls-3" d="M76.97,39.60317a.25.25,0,0,1-.25-.249c-.002-.92969-.64014-1.10938-1.69043-1.29395-.813-.14355-1.73486-.30566-1.74707-1.29687C73.26591,35.443,77.31474,35.0104,84.472,34.361c5.80127-.52636,13.7461-1.24707,13.67579-2.88281-.02735-.63965-.5376-.83008-1.37549-1.06836-.72364-.20508-1.54346-.43847-1.53076-1.333.01513-1.09082,1.81445-1.19921,4.09277-1.33593,2.85693-.1709,6.41309-.38379,6.41553-2.7168.00341-2.80078-2.23975-3.99512-3.708-4.47754a2.41586,2.41586,0,0,1,.66553,1.87012,1.80385,1.80385,0,0,1-1.84766,1.46094c-.27783.02636-.8457.05273-1.6001.08691C91.24,24.33169,87.16679,25.026,87.15214,26.02993c-.00879.623.48193.7627,1.28369.94043.74268.16406,1.667.36816,1.69238,1.39355a.25043.25043,0,0,1-.24365.25586.23125.23125,0,0,1-.25635-.24414c-.01513-.60254-.5039-.74121-1.30029-.917-.75342-.167-1.69043-.374-1.67578-1.43652.02393-1.64551,5.04834-2.21192,12.58447-2.55762.74317-.0332,1.30225-.05859,1.57617-.085.82129-.07715,1.31836-.44336,1.39893-1.03125a2.21574,2.21574,0,0,0-1.46533-2.11524.25018.25018,0,0,1,.12256-.48144c.05371.00684,5.38623.75879,5.38086,5.27246-.00293,2.80371-3.81934,3.03223-6.88575,3.21582-1.77685.10645-3.61377.2168-3.62255.84473-.00684.48633.439.63769,1.16748.84472.75439.21387,1.69384.48047,1.73877,1.52735.084,1.96484-5.54053,2.623-14.13038,3.40234-4.53515.41211-10.74658.97559-10.73486,1.89844.00635.52148.41113.64746,1.3335.80957.936.165,2.10107.37109,2.104,1.78613a.24944.24944,0,0,1-.24951.25Z"/><polygon class="cls-6" points="78 36.5 80 35 89 37.5 88 45.5 86 47 78 36.5"/><path class="cls-4" d="M85.9998,47.24966a.24916.24916,0,0,1-.19873-.09864l-8-10.5a.24834.24834,0,0,1-.04883-.18554.25093.25093,0,0,1,.09765-.166l2-1.5a.26317.26317,0,0,1,.2168-.041l9,2.5a.25019.25019,0,0,1,.18115.27246l-1,8a.2503.2503,0,0,1-.09814.16894l-2,1.5A.25224.25224,0,0,1,85.9998,47.24966ZM78.35136,36.54848,86.04814,46.651l1.71679-1.28808.96-7.67969-8.67334-2.41016Z"/><polygon class="cls-6" points="87 39 86 47 77 44.5 78 36.5 87 39"/><path class="cls-4" d="M85.9998,47.24966a.25947.25947,0,0,1-.0669-.00879l-9-2.5a.25021.25021,0,0,1-.18115-.27246l1-8a.24766.24766,0,0,1,.10937-.17676.25444.25444,0,0,1,.20557-.0332l9,2.5a.25019.25019,0,0,1,.18115.27246l-1,8a.24761.24761,0,0,1-.10937.17675A.25262.25262,0,0,1,85.9998,47.24966Zm-8.7251-2.9336,8.51318,2.36524.937-7.498L78.21171,36.818Z"/><polygon class="cls-6" points="73 25 77 22 95 27 93 43 89 46 73 25"/><path class="cls-4" d="M88.9998,46.24966a.24916.24916,0,0,1-.19873-.09864l-16-21a.24834.24834,0,0,1-.04883-.18554.25093.25093,0,0,1,.09765-.166l4-3a.2569.2569,0,0,1,.2168-.041l18,5a.25019.25019,0,0,1,.18115.27246l-2,16a.2503.2503,0,0,1-.09814.16894l-4,3A.25224.25224,0,0,1,88.9998,46.24966ZM73.35136,25.04848,89.04814,45.651l3.71679-2.78808,1.96-15.67969L77.05155,22.27309Z"/><polygon class="cls-6" points="91 30 89 46 71 41 73 25 91 30"/><path class="cls-4" d="M88.9998,46.24966a.25947.25947,0,0,1-.0669-.00879l-18-5a.25021.25021,0,0,1-.18115-.27246l2-16a.24766.24766,0,0,1,.10937-.17676.25131.25131,0,0,1,.20557-.0332l18,5a.25019.25019,0,0,1,.18115.27246l-2,16a.24761.24761,0,0,1-.10937.17675A.25262.25262,0,0,1,88.9998,46.24966Zm-17.7251-5.4336L88.78788,45.6813l1.937-15.498L73.21171,25.318Z"/><polygon class="cls-7" points="88.5 31.375 87 43.375 73.5 39.625 75 27.625 88.5 31.375"/><path class="cls-4" d="M86.9998,43.62466a.25947.25947,0,0,1-.0669-.00879l-13.5-3.75a.25021.25021,0,0,1-.18115-.27246l1.5-12a.24766.24766,0,0,1,.10937-.17676.25444.25444,0,0,1,.20557-.0332l13.5,3.75a.25019.25019,0,0,1,.18115.27246l-1.5,12a.24761.24761,0,0,1-.10937.17675A.25262.25262,0,0,1,86.9998,43.62466Zm-13.2251-4.1836L86.78788,43.0563l1.437-11.498L75.21171,27.943Z"/><path class="cls-4" d="M90.9998,30.24966a.24987.24987,0,0,1-.14991-.4502l4-3a.2501.2501,0,1,1,.29981.40039l-4,3A.25224.25224,0,0,1,90.9998,30.24966Z"/><rect class="cls-1" x="59.99999" y="47" width="29" height="13"/><path class="cls-6" d="M89.04469,54.5704l0,1.49522-.00019-.03922a.9857.9857,0,0,1-.29337.72253l-1.9504,1.9504a2,2,0,0,1-1.89929.52607l-1.188-.297a.99717.99717,0,0,1-.75795-.95473l-.00019-.00447,0-1.50231"/><path class="cls-4" d="M85.38212,59.53481a2.223,2.223,0,0,1-.5415-.06738l-1.1875-.29688a1.23991,1.23991,0,0,1-.94776-1.19238V56.46645a.25.25,0,1,1,.5,0v1.50293a.74718.74718,0,0,0,.56885.7168l1.188.29687a1.7616,1.7616,0,0,0,1.66162-.46093l1.95068-1.9502a.73989.73989,0,0,0,.22022-.50976V54.57a.25.25,0,0,1,.5,0v1.45312c.00049.01563.00049.03028,0,.04493v.00683a1.23648,1.23648,0,0,1-.3667.85059l-1.95068,1.95019A2.26083,2.26083,0,0,1,85.38212,59.53481Z"/><polygon class="cls-6" points="86 54 78 57 60 52 60 50 86 52 86 54"/><path class="cls-4" d="M77.9998,57.24966a.25947.25947,0,0,1-.0669-.00879l-18-5a.25037.25037,0,0,1-.1831-.24121v-2a.251.251,0,0,1,.08007-.1836.21822.21822,0,0,1,.189-.06543l26,2a.24947.24947,0,0,1,.231.249v2a.25041.25041,0,0,1-.16211.23437l-8,3A.24731.24731,0,0,1,77.9998,57.24966Zm-17.75-5.44043L77.98808,56.737,85.7498,53.8268V52.2311l-25.5-1.96191Zm25.75,2.19043h0Z"/><path class="cls-6" d="M84.90142,57.72536l-1.188-.297a1,1,0,0,1-.46457-1.67725l1.9504-1.9504a2,2,0,0,1,1.89929-.52607l1.188.297a1,1,0,0,1,.46457,1.67725l-1.9504,1.9504A2,2,0,0,1,84.90142,57.72536Z"/><path class="cls-8" d="M84.21227,54.78773l4.00005.99995.41173-.41173-1.71764-.42939,1.27014-1.27015a.24881.24881,0,0,0,.06574-.11583l-.52554-.13139-1.376,1.376L84.624,54.376Z"/><path class="cls-4" d="M85.38212,58.03481a2.21908,2.21908,0,0,1-.541-.06738l-1.188-.29688a1.24993,1.24993,0,0,1-.58106-2.09667l1.95069-1.9502a2.25651,2.25651,0,0,1,2.13671-.59082l1.1875.29687a1.249,1.249,0,0,1,.58106,2.09571l-1.95068,1.95019A2.26083,2.26083,0,0,1,85.38212,58.03481ZM86.617,53.46548a1.75864,1.75864,0,0,0-1.24072.51172l-1.95068,1.95019a.75085.75085,0,0,0,.34863,1.25879l1.18848.29687a1.76345,1.76345,0,0,0,1.66113-.46093l1.95068-1.9502a.74991.74991,0,0,0-.34863-1.25781l-1.188-.29688A1.76407,1.76407,0,0,0,86.617,53.46548Z"/><polygon class="cls-6" points="86 52 78 55 60 50 68 47 86 52"/><path class="cls-8" d="M64.53346,48.3l2.28116.63366-2.26795.8504-2.28106-.63363-.796.2985,2.28114.63365-1.46962.55111.8191.22753,1.46961-.5511,2.24476.62354-1.15271.43225a.24991.24991,0,0,0-.13983.1311l.642.21526,1.46967-.55114,2.24475.6236-1.46962.5511.819.22751,1.46968-.55113,2.24475.62353-1.46969.55114.819.22751,1.46961-.55111,2.24487.62354-1.46968.55113.81912.22753,1.46966-.55112,2.64441.73456.796-.2985-2.64451-.73459,2.26783-.8504L82.53343,53.3l.796-.29851L80.685,52.26687l2.67054-1.00145-.819-.22751-2.67059,1.00148-2.24476-.6236,2.67055-1.00143-.819-.22752L76.802,51.18832l-2.24475-.62354,2.67059-1.00148-.819-.22751-2.67052,1.00145-2.24487-.62353L74.164,48.71224l-.814-.22943-2.67563,1.00336-2.24463-.62354,2.67052-1.00145-.81911-.22753-2.6705,1.00144-2.28117-.63365m.03629,2.01012,2.26795-.85047,2.24475.6236-2.26782.8504Zm3.064.85107,2.26782-.85046,2.24475.62353-2.26794.85047Zm3.06372.85108,2.26782-.85047,2.24487.62354-2.26782.85046Zm3.06384.85107,2.26795-.85046,2.24462.62353-2.26782.85047Z"/><path class="cls-4" d="M77.9998,55.24966a.25947.25947,0,0,1-.0669-.00879l-18-5a.25035.25035,0,0,1-.021-.47559l8-3a.254.254,0,0,1,.15478-.00683l18,5a.25035.25035,0,0,1,.021.47558l-8,3A.24731.24731,0,0,1,77.9998,55.24966ZM60.80644,49.9645,77.98808,54.737l7.20508-2.70215L68.01152,47.26235Z"/><path class="cls-4" d="M77.9998,57.24966a.25017.25017,0,0,1-.25-.25v-2a.25.25,0,0,1,.5,0v2A.25017.25017,0,0,1,77.9998,57.24966Z"/><path class="cls-9" d="M74.60254,17.86631c.76485,2.31082,4.20419,4.17067,8.7761,3.25991a11.46458,11.46458,0,0,0,6.08556-4.02549s7.99223.91825,8.21314-.43625c.24331-1.49187-9.68245-2.7663-15.30946-2.09311-2.735.32722-4.35808,1.33838-5.656.56655a10.48707,10.48707,0,0,0-4.12111-1.29527c-1.63279-.05831-3.06381,1.77548-2.53666,2.47834.6123.81639,1.70862.09525,2.53666.23326A2.72,2.72,0,0,1,74.60254,17.86631Z"/><path class="cls-4" d="M81.02177,21.61782c-3.55127,0-6.00732-1.71094-6.65674-3.67383a2.49421,2.49421,0,0,0-1.81543-1.14258,2.64734,2.64734,0,0,0-.873.07129c-.62744.11426-1.33789.24512-1.82275-.40136a1.15531,1.15531,0,0,1,.041-1.23731,3.17742,3.17742,0,0,1,2.70459-1.6416,10.81559,10.81559,0,0,1,4.24023,1.331c.74414.44239,1.65381.21875,2.91309-.09082a20.67226,20.67226,0,0,1,2.58545-.50976c5.26416-.63281,14.02783.39258,15.37011,1.79394a.67271.67271,0,0,1,.21582.58789c-.23486,1.44043-6.25732.89454-8.34179.66016a11.73674,11.73674,0,0,1-6.15479,4.00684A12.30163,12.30163,0,0,1,81.02177,21.61782Zm-8.666-5.332a1.73342,1.73342,0,0,1,.27588.02148,2.96094,2.96094,0,0,1,2.208,1.48047h0c.73047,2.20508,4.10547,3.96778,8.49023,3.09375a11.28279,11.28279,0,0,0,5.92774-3.92187.25887.25887,0,0,1,.23486-.10742c3.74561.42968,7.8291.44238,7.93848-.22754.0083-.05274-.041-.11719-.084-.16211-1.12109-1.16992-9.65527-2.27539-14.94921-1.64356a20.30881,20.30881,0,0,0-2.52588.499c-1.32276.32421-2.36768.583-3.28809.03515a10.22177,10.22177,0,0,0-4.002-1.26074,2.64715,2.64715,0,0,0-2.24414,1.373c-.15723.30175-.18848.56543-.0835.70507.28467.38086.6919.33008,1.332.21A4.39567,4.39567,0,0,1,72.35575,16.28579Z"/><path class="cls-10" d="M70.1043,16.499c-.13179.24-.4704,1.25209-.205,1.403s.78554-1.0382.78554-1.0382"/><path class="cls-4" d="M81.41972,19.33071a4.04153,4.04153,0,0,1-2.8042-1.04687.25016.25016,0,0,1,.33984-.36719,3.76232,3.76232,0,0,0,3.28272.84277A4.62828,4.62828,0,0,0,85.45,16.73989a.25029.25029,0,0,1,.44336.23242,5.073,5.073,0,0,1-3.57031,2.2793A5.25632,5.25632,0,0,1,81.41972,19.33071Z"/><path class="cls-4" d="M84.34208,25.66958l-.02685-.001-1.4043-.15039a.25047.25047,0,0,1,.05371-.498l1.11768.12012-.14112-4.125a.25045.25045,0,0,1,.2417-.25879.25637.25637,0,0,1,.2583.24121l.15088,4.41309a.25075.25075,0,0,1-.25.25879Z"/><path class="cls-4" d="M81.45634,25.52016a.23062.23062,0,0,1-.03662-.00293l-1.24024-.18261a.24977.24977,0,1,1,.07325-.49414l.96386.1416.13233-3.64258a.25015.25015,0,1,1,.5.01758l-.14258,3.92187a.2494.2494,0,0,1-.25.24121Z"/><path class="cls-10" d="M55.91967,44.74657c.31585.03158,1.42131.37063,1.35814.62331s-1.08262.15316-1.475.07292"/><path class="cls-4" d="M46.91142,60.38442a.24918.24918,0,0,1-.24951-.2373l-.23682-4.71582a.24983.24983,0,1,1,.499-.02539l.22412,4.458.97266-.082a.24638.24638,0,0,1,.27.22852.2498.2498,0,0,1-.228.26953l-1.23047.10352Z"/><path class="cls-4" d="M43.3997,60.654a.25058.25058,0,0,1-.24951-.2334l-.33155-4.85644a.24908.24908,0,0,1,.23243-.26563.24456.24456,0,0,1,.2666.23243l.31494,4.61328.9585-.04a.24367.24367,0,0,1,.26025.23926.25051.25051,0,0,1-.23975.26074L43.41,60.654Z"/><path class="cls-11" d="M44.19348,48.73845c-2.70444.16347-5.90958,1.76891-6.50958,2.59391,0,0-4.68693-2.28344-5.48975-2.578-.8011-.29387-1.19064-.3647-1.4799.10325-.21243.34365.15069,1.02352.55066,1.4799a17.21246,17.21246,0,0,0,13.24843,5.36836c6.50529-.12426,7.71683-2.854,7.82354-4.19251a46.4531,46.4531,0,0,0,3.21568-5.33516c.28281-.74512.696-1.91286-.07448-2.20785-.69749-.267-1.233.36162-1.95433,1.25606-.69963.86755-3.00271,3.68648-3.90112,3.72274C48.18467,49.00724,46.804,48.58066,44.19348,48.73845Z"/><path class="cls-4" d="M44.12284,55.95962a17.45671,17.45671,0,0,1-13.03857-5.44824c-.46045-.5254-.88281-1.30079-.58252-1.78516.43213-.69922,1.11719-.4502,1.77832-.20606.72656.26563,4.47168,2.08106,5.33984,2.50293a12.53318,12.53318,0,0,1,6.5586-2.53418h0a21.06572,21.06572,0,0,1,3.64111.11231,12.47543,12.47543,0,0,0,1.793.09766c.19189-.00782,1.02637-.292,3.71631-3.62989.69385-.86035,1.3457-1.67578,2.23877-1.332,1.02929.39453.48144,1.83692.21875,2.53027a44.20414,44.20414,0,0,1-3.20655,5.333c-.11181,1.0752-1.04492,4.22168-8.06152,4.35547C44.386,55.95864,44.25321,55.95962,44.12284,55.95962ZM31.27958,48.76919a.37227.37227,0,0,0-.35254.2207c-.10058.16113.09082.68652.52588,1.18262a16.92547,16.92547,0,0,0,13.05567,5.2832c6.75048-.12891,7.50781-3.06543,7.5791-3.96191a.24582.24582,0,0,1,.04248-.1211,46.6057,46.6057,0,0,0,3.18847-5.2832c.31348-.8252.5669-1.69531.07032-1.88574-.49463-.1875-.90869.23535-1.67041,1.17969-3.04151,3.77343-3.82764,3.80468-4.08545,3.81543a13.61773,13.61773,0,0,1-1.8628-.09961,20.20561,20.20561,0,0,0-3.56152-.11036h0c-2.67822.16114-5.7876,1.75489-6.32275,2.49122a.24851.24851,0,0,1-.31153.07714c-.04687-.02246-4.68457-2.28222-5.4663-2.56836A2.7876,2.7876,0,0,0,31.27958,48.76919Zm12.91406-.03028h0Z"/><path class="cls-4" d="M44.59257,53.362a5.5241,5.5241,0,0,1-3.813-1.28223.25033.25033,0,0,1,.35645-.35156,5.08711,5.08711,0,0,0,3.477,1.13379A5.1358,5.1358,0,0,0,48.282,51.54653a.25034.25034,0,0,1,.3584.34961A5.63481,5.63481,0,0,1,44.61454,53.362Z"/><path class="cls-12" d="M58.71073,41.42251a.25.25,0,0,1-.13086-.46289,5.269,5.269,0,0,0,1.90772-3.94239.25.25,0,0,1,.5,0,5.74466,5.74466,0,0,1-2.146,4.36817A.24538.24538,0,0,1,58.71073,41.42251Z"/><path class="cls-12" d="M59.62284,42.943a.25006.25006,0,0,1-.00781-.5,4.56576,4.56576,0,0,0,3.812-4.01368.25522.25522,0,0,1,.25635-.24316.25037.25037,0,0,1,.24365.25684,5.05447,5.05447,0,0,1-4.29638,4.5Z"/><path class="cls-12" d="M61.64042,44.26919c-.07568,0-.14844-.00293-.21826-.00977a.25015.25015,0,0,1-.22363-.27441.247.247,0,0,1,.27343-.22363,3.443,3.443,0,0,0,3.294-2.23145.24539.24539,0,0,1,.30322-.18164.25.25,0,0,1,.18213.30273A3.95245,3.95245,0,0,1,61.64042,44.26919Z"/><path class="cls-13" d="M121.03149,53.13948c-2.74573-.22015-4.60172.51758-5.65638-.56322-.81275-.83289-2.96367-5.95086-4.62049-5.41535-1.50787.48736,2.12,6.71823,2.29616,7.79021.39483,2.40187,3.01345,4.80224,7.67519,4.81363,2.84991.007,5.789-.9462,6.69038-1.82559,0,0,7.07384,2.75394,7.55825,1.46989C135.50815,57.99475,126.6805,53.5924,121.03149,53.13948Z"/><path class="cls-4" d="M120.761,60.0143h-.03565c-4.877-.01171-7.5249-2.61132-7.92138-5.02246a14.4588,14.4588,0,0,0-.84082-2.0039c-1.18262-2.55469-2.12842-4.74414-1.73-5.65528a.71634.71634,0,0,1,.44482-.41015c1.35693-.4375,2.77588,1.99609,3.9082,3.956A10.6254,10.6254,0,0,0,115.554,52.401c.59619.61133,1.53662.56446,2.83593.49414a19.52989,19.52989,0,0,1,2.66162-.00488h0c4.92676.39453,12.79834,3.94141,14.021,5.87012a.81733.81733,0,0,1,.13574.73633.681.681,0,0,1-.38086.38086c-1.33447.59082-6.29541-1.24317-7.35791-1.65039C126.41484,59.11294,123.57011,60.0143,120.761,60.0143Zm-9.7544-12.64257a.56441.56441,0,0,0-.17529.02734.21732.21732,0,0,0-.14014.13379c-.34082.7793.95264,3.57519,1.72559,5.24512a12.77021,12.77021,0,0,1,.88037,2.13281c.36328,2.21,2.84326,4.59277,7.4292,4.60351h.03418c2.76221,0,5.62842-.92187,6.481-1.7539a.25171.25171,0,0,1,.26562-.05469c2.353.916,6.19141,2.13184,7.1167,1.71484.09473-.042.11133-.08593.1167-.0996a.39385.39385,0,0,0-.09033-.293c-1.05518-1.665-8.65235-5.23926-13.63867-5.63965h0a19.03466,19.03466,0,0,0-2.59571.00586c-1.38037.07324-2.46679.12793-3.21924-.64356a10.26837,10.26837,0,0,1-1.04345-1.62207C113.3289,49.70278,111.98124,47.37173,111.00663,47.37173Z"/><path class="cls-10" d="M110.44214,47.77875c-.29.0528-1.36573.45695-1.31169.78118s1.40094-.04838,1.40094-.04838"/><path class="cls-4" d="M120.60429,57.54848c-.10449,0-.21-.00293-.31592-.00781a4.48821,4.48821,0,0,1-3.58545-1.71582.24986.24986,0,0,1,.417-.27539,3.9975,3.9975,0,0,0,3.19239,1.49219,4.13077,4.13077,0,0,0,3.334-1.09375.25.25,0,1,1,.38867.31445A4.49236,4.49236,0,0,1,120.60429,57.54848Z"/><path class="cls-4" d="M118.4915,64.32485h-1.15723a.25.25,0,0,1,0-.5h.92529l.314-4.22851a.24414.24414,0,0,1,.26806-.23047.2496.2496,0,0,1,.231.26758l-.33154,4.46A.25.25,0,0,1,118.4915,64.32485Z"/><path class="cls-4" d="M121.3162,64.32485h-1.1914a.25.25,0,0,1,0-.5h.9414V59.75259a.25.25,0,1,1,.5,0v4.32226A.25016.25016,0,0,1,121.3162,64.32485Z"/></g></g></svg>