<svg xmlns="http://www.w3.org/2000/svg" width="160" height="80" viewBox="0 0 160 80"><defs><style>.cls-1{fill:none;}.cls-18,.cls-2,.cls-8{fill:#ddd;}.cls-2,.cls-5{opacity:0.8;}.cls-3{fill:#003437;}.cls-11,.cls-4{fill:#053437;}.cls-16,.cls-5{fill:#aaa;}.cls-6,.cls-9{fill:#fff;}.cls-10,.cls-11,.cls-12,.cls-14,.cls-15,.cls-18,.cls-19,.cls-6,.cls-7{fill-rule:evenodd;}.cls-7{fill:#2bb5e9;}.cls-10{fill:#f0403d;}.cls-12{fill:#f47925;}.cls-13{fill:#f7ce05;}.cls-14{fill:#f6e55a;}.cls-15{fill:#33d67b;}.cls-17{fill:#caecf9;}.cls-19{fill:gray;}</style></defs><g id="Layer_2" data-name="Layer 2"><g id="Layer_2-2" data-name="Layer 2"><rect class="cls-1" width="160" height="80"/><path class="cls-2" d="M80.56117,43.95288c-.59991-2.51015,9.08334-2.24472,8.99081-3.82155-.08075-1.37592,2.3531,1.07511,2.31217.09634-.04575-1.094,9.58337-2.03564,14.26925-3.23641,3.92168-1.00495,5.84213-3.16373,5.84213-3.94724,0-1.71969-3.00946-1.43307-3.00946-2.14961s1.93465-.35827,1.863-1.71969-5.23072-.07166-5.01576-1.79135,10.59278.34464,7.15641-2.42683a6.32955,6.32955,0,0,0-3.106-.70994c-5.32844-.33131-19.88807.11726-19.85474,2.34971.02135,1.42979,1.89952.83079,1.91056,1.81.01314,1.16447-.91378.93247-.91378,1.94141,0,2.3435,12.01961-2.11688,11.97493-.13141-.02686,1.19347-1.35091.86407-1.30723,2.01112.04209,1.10531,2.03017.29763,2.01112,1.50833-.03,1.9089-17.12137-1.04567-20.01062,2.5139-.73148.9012,1.5191.50282,1.50834,1.81Z"/><path class="cls-3" d="M80.561,44.20312a.24668.24668,0,0,1-.05323-.00586.25027.25027,0,0,1-.18994-.18652,1.09417,1.09417,0,0,1,.15137-.88281,2.40045,2.40045,0,0,1,1.03613-.78418l3.42383-4.36621c-.03662-.40235-.38379-.5625-.89746-.75586-.33838-.126-.65869-.2461-.73779-.53907a.69005.69005,0,0,1,.186-.58984c1.75-2.15625,8.228-2.03613,13.43506-1.93262,2.94141.05469,5.98438.11524,6.48584-.37011.0332-.03223.03369-.04981.03369-.0586.00586-.37109-.21826-.44531-.813-.5498-.49365-.08594-1.16943-.20313-1.19824-.94434a1.25785,1.25785,0,0,1,.74268-1.208c.32177-.20605.55468-.35449.56494-.81836a.12537.12537,0,0,0-.04932-.1123c-.49853-.42187-3.1289.084-5.24316.49023-2.85791.54883-5.55567,1.06739-6.39551.37207a.7699.7699,0,0,1-.28711-.61328,1.3069,1.3069,0,0,1,.51563-1.07129.97243.97243,0,0,0,.39794-.86718c-.00244-.22754-.147-.30567-.6416-.458-.52929-.16406-1.25439-.38672-1.26855-1.35059a.89474.89474,0,0,1,.31543-.666c2.02685-1.9336,14.96045-2.23926,19.80469-1.9375a6.27649,6.27649,0,0,1,3.24755.76562c.40479.32617.92383.81543.7583,1.29492-.2373.68653-1.6538.74024-3.94482.76954-1.51807.01953-3.81152.0498-3.87891.58789a.36439.36439,0,0,0,.07618.30273c.30566.36231,1.375.41309,2.31836.457,1.32519.0625,2.57714.1211,2.62255.98731.05176.98242-.76562,1.252-1.30664,1.42968-.27295.09082-.55566.1836-.55566.30274.04785.10351.54492.23926.84228.32031.91456.251,2.167.59277,2.167,1.8291,0,.94922-2.01514,3.16114-6.03028,4.18946-1.7915.459-4.28955.8789-6.70507,1.28418-3.01514.50683-7.14454,1.20019-7.37891,1.7207a.42791.42791,0,0,1-.19092.41406c-.28223.1709-.6875-.04394-1.19971-.32324-.25195-.13672-.769-.43067-.91113-.376a.69949.69949,0,0,0-.00781.16309c.05322.91211-1.65772,1.22558-4.02588,1.66113a21.18594,21.18594,0,0,0-3.9541.97266l-1.064,1.35742A.24909.24909,0,0,1,80.561,44.20312Zm12.89257-9.58691c-4.09765,0-8.34814.2666-9.58544,1.791-.08692.10743-.09034.15235-.09034.15332a1.8809,1.8809,0,0,0,.4292.19336c.49072.1836,1.23242.46192,1.22559,1.30762a.25.25,0,0,1-.05322.15234l-2.9751,3.794a30.26665,30.26665,0,0,1,3.28125-.72266c1.53808-.28222,3.64453-.66894,3.61719-1.13964a.62819.62819,0,0,1,.23925-.61622c.34717-.21875.8667.0625,1.417.36036a4.34563,4.34563,0,0,0,.65625.31445c.09277-.81348,2.27441-1.25293,7.79248-2.17969,2.40527-.40332,4.89257-.82129,6.66357-1.27539,3.95313-1.01269,5.6543-3.16113,5.6543-3.70508,0-.791-.77979-1.06738-1.79932-1.34668-.64893-.17773-1.21-.33105-1.21-.80273,0-.48047.47754-.63867.89893-.77735.61962-.2041.99365-.36914.96435-.92968-.022-.41309-1.20019-.46875-2.147-.5127-1.14746-.05469-2.231-.10547-2.67725-.63574a.85823.85823,0,0,1-.18994-.68652c.12109-.96973,2.08936-.9961,4.36816-1.02539,1.332-.01758,3.34473-.043,3.479-.43262.02637-.0752-.0708-.31641-.59961-.74317a6.05768,6.05768,0,0,0-2.96436-.65429c-4.88769-.30664-17.6167.07031-19.42871,1.79883a.41782.41782,0,0,0-.16064.29687c.0083.57129.35351.707.91553.87988.43994.13575.98779.30469.99462.93067a1.45582,1.45582,0,0,1-.55859,1.24023.82163.82163,0,0,0-.355.7041.274.274,0,0,0,.10547.22852c.65918.543,3.61035-.02344,5.98291-.47852,3.09912-.5957,5.02588-.91992,5.66016-.38086a.623.623,0,0,1,.22656.50586,1.375,1.375,0,0,1-.7959,1.22754c-.31787.20313-.52832.33692-.51172.76758.01074.291.1958.36914.78418.47168.52344.09082,1.24023.21582,1.227,1.04981a.57674.57674,0,0,1-.186.41015c-.62061.59961-2.88965.58789-6.84327.50977C95.81926,34.63867,94.6425,34.61621,93.45353,34.61621Z"/><path class="cls-4" d="M87.99992,54.25a.24977.24977,0,0,1-.10058-.47852c2.17968-.959,2.20849-2.4414,2.23876-4.01074A5.54076,5.54076,0,0,1,90.707,46.9082c.77686-1.29394,2.51709-1.39355,4.19922-1.49023,1.40772-.08008,2.86279-.16309,3.69971-.93555.2456-.22656.22217-.39551.1748-.5166-.54541-1.39453-6.67773-2.97656-8.45215-2.97656a.25.25,0,0,1,0-.5c1.76026,0,8.23877,1.55761,8.918,3.29394a.916.916,0,0,1-.30175,1.06641c-.96827.89453-2.51465.98242-4.00977,1.06738-1.62451.09375-3.1582.18066-3.79932,1.249a5.09163,5.09163,0,0,0-.49756,2.6045c-.03076,1.58007-.06543,3.37109-2.53759,4.458A.2454.2454,0,0,1,87.99992,54.25Z"/><path class="cls-4" d="M76.43254,50.08105a.25006.25006,0,0,1-.082-.48633c1.37744-.47656,2.63476-1.708,2.56787-2.27929-.03076-.26172-.416-.35547-.7334-.38672-.47022-.04688-1.02051-.07324-1.60352-.10059-1.83154-.085-3.72558-.17383-4.25488-.94531a.88909.88909,0,0,1-.09033-.81738c.36914-1.10742,3.71289-2.65821,6.45605-3.30664,1.40381-.33106,3.92286-.72364,5.02686.38086a.25.25,0,1,1-.35352.35351c-.68066-.67969-2.34082-.77148-4.55859-.24707-2.9834.7041-5.8457,2.22559-6.09619,2.97754a.38957.38957,0,0,0,.02783.376c.38916.56738,2.3169.65722,3.86572.72949.58985.02734,1.147.05371,1.63037.10156.90577.09082,1.14161.5,1.18018.82617.11279.96192-1.49463,2.32325-2.90039,2.81055A.241.241,0,0,1,76.43254,50.08105Z"/><path class="cls-2" d="M77.93788,37.26948v.05311c0,.82843,2.01472,1.5,4.5,1.5s4.5-.67157,4.5-1.5"/><path class="cls-2" d="M86.93788,37.26948c-.78851-7.26234-11.423-3.63964-11.90763-5.66734C74.43034,29.092,91.56151,29.79377,91.469,28.21693c-.08074-1.37592-2.252-.23935-2.29292-1.21812-.04575-1.094,6.74055-1.15751,11.42643-2.35829,3.92168-1.00494,5.84213-3.16373,5.84213-3.94724,0-1.71969-3.00946-1.43307-3.00946-2.14961s1.93465-.35827,1.863-1.71969-5.23072-.07165-5.01576-1.79134,6.52049,1.71969,7.52364-2.57954A6.10316,6.10316,0,0,0,105.59481,6c1.30722,2.11167,0,5.32945-1.30723,5.63112s-19.84283.382-19.8095,2.61445c.02135,1.42979,1.89952.83079,1.91056,1.81.01313,1.16447-.91378.93247-.91378,1.94142,0,2.34349,12.01961-2.11689,11.97492-.13142-.02686,1.19347-1.3509.86407-1.30722,2.01112.04209,1.10531,2.03017.29763,2.01112,1.50834-.03,1.90889-20.016.79266-20.01062,2.51389.00365,1.1607,1.5191.50283,1.50834,1.81"/><path class="cls-3" d="M82.43791,39.07226c-2.30274,0-4.75-.61328-4.75-1.75a.27406.27406,0,0,1,.25-.27636.229.229,0,0,1,.25.22363v.05273c0,.52149,1.6167,1.25,4.25,1.25s4.25-.72851,4.25-1.25a.25.25,0,0,1,.5,0C87.18791,38.459,84.74064,39.07226,82.43791,39.07226Z"/><path class="cls-3" d="M86.93742,37.51953a.24949.24949,0,0,1-.24805-.22266c-.49267-4.53515-5.03564-4.62207-8.35253-4.68457-1.9375-.03711-3.33741-.06347-3.54981-.95117a.7753.7753,0,0,1,.13721-.65332c.773-1.06055,4.4707-1.4209,9.61035-1.81348,2.72851-.209,6.46533-.49414,6.687-.97754-.0293-.45019-.34473-.502-1.05859-.50976-.50977-.00586-1.208-.0127-1.23682-.69727-.03418-.82324,1.67383-1.08008,5.231-1.53808a55.736,55.736,0,0,0,6.3833-1.07325c3.95312-1.01269,5.6543-3.16113,5.6543-3.70507,0-.792-.78028-1.06836-1.8003-1.34668-.64892-.17774-1.20947-.33106-1.20947-.80274,0-.48047.47754-.63867.89941-.77734.61963-.2041.99366-.36914.96436-.92969-.022-.41308-1.2002-.46875-2.147-.51367-1.14746-.05371-2.23145-.10547-2.67774-.63574a.85824.85824,0,0,1-.18994-.68653c.11377-.90722,1.26221-.78418,2.5918-.64453,1.94775.20606,4.3706.46387,4.93652-1.96a5.85286,5.85286,0,0,0-1.30908-5.46875,5.22147,5.22147,0,0,1-.28516,3.18262,2.768,2.768,0,0,1-1.62451,1.76367c-.33154.07715-1.48291.13086-3.66016.22656-4.36962.19336-15.977.70606-15.95556,2.14063.00879.57226.35351.708.916.88086.43995.13574.98731.30469.99463.93066A1.45588,1.45588,0,0,1,86.08,17.293a.82159.82159,0,0,0-.355.7041.274.274,0,0,0,.10547.22851c.65771.543,3.61181-.02343,5.98437-.47851,3.09619-.59571,5.023-.919,5.65821-.38184a.623.623,0,0,1,.22656.50586,1.37468,1.37468,0,0,1-.79541,1.22754c-.31787.2041-.52832.33789-.51172.76855.01074.291.1958.36915.78418.47168.52344.09082,1.24023.21582,1.227,1.04981-.01758,1.10156-3.25732,1.3291-10.645,1.58691-3.83984.13379-9.09912.31739-9.36719.93262.00293.36426.17481.44629.56446.59375a1.17049,1.17049,0,0,1,.94531,1.209.24976.24976,0,0,1-.25.248h-.002a.25017.25017,0,0,1-.248-.252c.0039-.5-.24512-.59473-.62256-.73731a1.08286,1.08286,0,0,1-.88574-1.06933c-.00293-.9834,2.84765-1.18067,9.84814-1.42481,3.54785-.123,10.15088-.35351,10.1626-1.09472.00586-.3711-.21826-.44532-.813-.54981-.49365-.08594-1.16992-.20312-1.19824-.94433a1.26,1.26,0,0,1,.74219-1.209c.32177-.20605.55468-.35449.56494-.81836a.12537.12537,0,0,0-.04932-.1123c-.49609-.41992-3.127.085-5.24121.49023-2.85742.54883-5.55859,1.06836-6.397.373a.76993.76993,0,0,1-.28711-.61328,1.30689,1.30689,0,0,1,.51562-1.07129.97246.97246,0,0,0,.39795-.86719c-.00244-.22754-.147-.30566-.6416-.458-.52978-.16406-1.25439-.38769-1.269-1.35156-.02393-1.60644,6.00732-2.1875,16.43359-2.64746,1.82569-.081,3.26758-.14453,3.56983-.21387A2.38711,2.38711,0,0,0,105.50676,9.918a4.284,4.284,0,0,0-.12451-3.78614.25025.25025,0,0,1,.35156-.33984,6.40748,6.40748,0,0,1,2.31592,6.71777c-.666,2.85352-3.44581,2.56055-5.47657,2.34375-1.02392-.10644-1.98974-.21191-2.043.21a.36441.36441,0,0,0,.07618.30274c.30566.3623,1.37548.41308,2.31884.458,1.3252.0625,2.57715.12109,2.62256.9873.05176.98242-.76562,1.25195-1.30713,1.42969-.27295.09082-.55566.18359-.55566.30273.04785.10352.54492.23926.84131.32032.915.25,2.16846.59277,2.16846,1.8291,0,.94922-2.01514,3.16113-6.03028,4.18945a56.08032,56.08032,0,0,1-6.44336,1.085c-1.9165.24609-4.812.61914-4.79492,1.02051.00684.17187.14551.21289.74219.21875.59424.00586,1.49267.01562,1.55029.99512.05029.85839-1.91992,1.09082-7.146,1.49023-3.8081.292-8.54785.6543-9.24414,1.60938a.27426.27426,0,0,0-.05517.24218c.12256.5127,1.55566.54,3.07275.56836,3.30518.0625,8.3003.15723,8.84033,5.12988a.24946.24946,0,0,1-.22168.2754A.1268.1268,0,0,1,86.93742,37.51953Z"/><path class="cls-5" d="M76.96983,39.353c-.00421-2.24927-3.41642-.90435-3.43745-2.59218-.03131-2.5119,25.01393-1.8262,24.86544-5.29346-.0719-1.679-2.92666-.934-2.90637-2.38668.02931-2.09785,10.50339.29382,10.50855-4.05648C106.00515,20.67759,100.83624,20,100.83624,20c1.81429.6978,2.5227,3.39028,0,3.62858-1.67308.158-13.90394.3044-13.93387,2.3976-.02438,1.705,2.93452.67269,2.97563,2.34379"/><path class="cls-3" d="M76.96965,39.60254a.24985.24985,0,0,1-.25-.25c-.00147-.92871-.63965-1.1084-1.69043-1.293-.813-.14356-1.73438-.30567-1.74707-1.2959-.0166-1.32031,4.03222-1.75293,11.18994-2.40234,5.80127-.52637,13.74609-1.24707,13.67578-2.88282-.02734-.64062-.53809-.83105-1.376-1.06836-.72314-.20605-1.543-.43847-1.53027-1.333.01514-1.0918,1.81494-1.2002,4.09375-1.33692,2.85693-.1709,6.41211-.38379,6.41455-2.71582.00342-2.80078-2.24023-3.99512-3.7085-4.47754A2.414,2.414,0,0,1,102.707,22.417a1.80368,1.80368,0,0,1-1.84717,1.46094c-.27832.02636-.84619.05273-1.60058.08691-8.019.36621-12.09229,1.06152-12.10694,2.06543-.00878.623.48194.7627,1.28321.94043.74267.16406,1.667.36816,1.69238,1.39356a.25044.25044,0,0,1-.24365.25585h-.00635a.25057.25057,0,0,1-.25-.24414c-.01465-.60254-.50391-.74121-1.30029-.917-.75293-.167-1.69043-.374-1.6753-1.43652.02393-1.64649,5.04786-2.21289,12.584-2.55762.74316-.0332,1.30273-.05859,1.57666-.085.82129-.07715,1.31787-.44336,1.39893-1.03125a2.21643,2.21643,0,0,0-1.46534-2.11523.25018.25018,0,0,1,.12256-.48145c.05371.00684,5.38623.75879,5.38086,5.27246-.00293,2.80274-3.81885,3.03125-6.88428,3.21582-1.77734.10645-3.61523.2168-3.624.84473-.00684.48633.439.63672,1.167.84375.75489.21387,1.69434.48047,1.73926,1.52832.084,1.96484-5.54053,2.62305-14.13086,3.40234-4.53516.41211-10.74658.97559-10.73486,1.89844.00683.52148.41162.64648,1.33349.80957.93653.16406,2.10157.36914,2.104,1.78516a.24976.24976,0,0,1-.24951.25Z"/><polygon class="cls-6" points="78 36.5 80 35 89 37.5 88 45.5 86 47 78 36.5"/><path class="cls-4" d="M85.99992,47.25a.24919.24919,0,0,1-.19873-.09864l-8-10.5a.24838.24838,0,0,1-.04883-.18554.25094.25094,0,0,1,.09766-.166l2-1.5a.25969.25969,0,0,1,.2168-.041l9,2.5a.25021.25021,0,0,1,.18115.27246l-1,8a.25031.25031,0,0,1-.09815.16894l-2,1.5A.25215.25215,0,0,1,85.99992,47.25ZM78.35148,36.54883l7.69678,10.10253,1.7168-1.28808.96-7.67969-8.67334-2.41016Z"/><polygon class="cls-6" points="87 39 86 47 77 44.5 78 36.5 87 39"/><path class="cls-4" d="M85.99992,47.25a.25939.25939,0,0,1-.06689-.00879l-9-2.5a.25022.25022,0,0,1-.18116-.27246l1-8a.24764.24764,0,0,1,.10938-.17676.25135.25135,0,0,1,.20557-.0332l9,2.5a.25021.25021,0,0,1,.18115.27246l-1,8a.24766.24766,0,0,1-.10938.17676A.25264.25264,0,0,1,85.99992,47.25Zm-8.7251-2.9336L85.788,46.68164l.937-7.498-8.51318-2.36523Z"/><polygon class="cls-6" points="73 25 77 22 95 27 93 43 89 46 73 25"/><path class="cls-4" d="M88.99992,46.25a.24919.24919,0,0,1-.19873-.09864l-16-21a.24838.24838,0,0,1-.04883-.18554.25094.25094,0,0,1,.09766-.166l4-3a.26316.26316,0,0,1,.2168-.041l18,5a.25021.25021,0,0,1,.18115.27246l-2,16a.25031.25031,0,0,1-.09815.16894l-4,3A.25215.25215,0,0,1,88.99992,46.25ZM73.35148,25.04883,89.04826,45.65136l3.7168-2.78808,1.96-15.67969L77.05168,22.27343Z"/><polygon class="cls-6" points="91 30 89 46 71 41 73 25 91 30"/><path class="cls-4" d="M88.99992,46.25a.25939.25939,0,0,1-.06689-.00879l-18-5a.25022.25022,0,0,1-.18116-.27246l2-16a.24764.24764,0,0,1,.10938-.17676.25535.25535,0,0,1,.20557-.0332l18,5a.25021.25021,0,0,1,.18115.27246l-2,16a.24766.24766,0,0,1-.10938.17676A.25264.25264,0,0,1,88.99992,46.25Zm-17.7251-5.4336L88.788,45.68164l1.937-15.49805L73.21184,25.31836Z"/><polygon class="cls-7" points="88.5 31.375 87 43.375 73.5 39.625 75 27.625 88.5 31.375"/><path class="cls-4" d="M86.99992,43.625a.25939.25939,0,0,1-.06689-.00879l-13.5-3.75a.25022.25022,0,0,1-.18116-.27246l1.5-12a.24764.24764,0,0,1,.10938-.17676.255.255,0,0,1,.20557-.0332l13.5,3.75a.25021.25021,0,0,1,.18115.27246l-1.5,12a.24766.24766,0,0,1-.10938.17676A.25264.25264,0,0,1,86.99992,43.625Zm-13.2251-4.1836L86.788,43.05664l1.437-11.49805L75.21184,27.94336Z"/><path class="cls-4" d="M90.99992,30.25a.24987.24987,0,0,1-.1499-.4502l4-3a.2501.2501,0,1,1,.2998.40039l-4,3A.25215.25215,0,0,1,90.99992,30.25Z"/><rect class="cls-1" x="60" y="47" width="29" height="13"/><path class="cls-6" d="M89.0447,54.5704l0,1.49522-.00019-.03922a.98567.98567,0,0,1-.29338.72253l-1.9504,1.9504a2,2,0,0,1-1.89928.52607l-1.188-.297a.99716.99716,0,0,1-.75795-.95473l-.00019-.00447,0-1.50231"/><path class="cls-4" d="M85.38127,59.53418a2.2139,2.2139,0,0,1-.54053-.06641l-1.188-.29687a1.23948,1.23948,0,0,1-.94726-1.19239V56.46679a.25.25,0,0,1,.5,0v1.502a.74741.74741,0,0,0,.56885.71777l1.1875.29688a1.76041,1.76041,0,0,0,1.6621-.46094l1.9502-1.9502a.73837.73837,0,0,0,.22021-.541h.00049V54.57031a.25.25,0,0,1,.5,0v1.49512l-.001.02246a1.23382,1.23382,0,0,1-.36621.83789L86.97746,58.876A2.26122,2.26122,0,0,1,85.38127,59.53418Z"/><polygon class="cls-6" points="86 54 78 57 60 52 60 50 86 52 86 54"/><path class="cls-4" d="M77.99992,57.25a.25939.25939,0,0,1-.06689-.00879l-18-5A.25038.25038,0,0,1,59.74992,52V50a.251.251,0,0,1,.08008-.1836.2301.2301,0,0,1,.189-.06543l26,2a.24947.24947,0,0,1,.231.249v2a.2504.2504,0,0,1-.16211.23437l-8,3A.24727.24727,0,0,1,77.99992,57.25Zm-17.75-5.44043L77.9882,56.7373l7.76172-2.91015V52.23144l-25.5-1.96191ZM85.99992,54h0Z"/><path class="cls-6" d="M84.90143,57.72536l-1.188-.297a1,1,0,0,1-.46457-1.67725l1.9504-1.9504a2,2,0,0,1,1.89928-.52607l1.188.297a1,1,0,0,1,.46457,1.67725l-1.9504,1.9504A2,2,0,0,1,84.90143,57.72536Z"/><path class="cls-8" d="M84.212,54.788l4,.99993.41174-.41174-1.71728-.42926,1.27014-1.27014a.2489.2489,0,0,0,.06581-.11614l-.52537-.13133L86.341,54.80548l-1.71722-.42925Z"/><path class="cls-4" d="M85.38127,58.03418a2.2139,2.2139,0,0,1-.54053-.06641l-1.188-.29687a1.25006,1.25006,0,0,1-.58056-2.09668l1.95019-1.9502a2.26313,2.26313,0,0,1,2.13672-.5918l1.14356.28614a1.253,1.253,0,0,1,.9458.88965,1.23545,1.23545,0,0,1-.3208,1.21777L86.97746,57.376A2.26122,2.26122,0,0,1,85.38127,58.03418Zm-.41943-.55078a1.76524,1.76524,0,0,0,1.6621-.46094l1.9502-1.9502a.75072.75072,0,0,0-.34814-1.25879l-1.18848-.29687a1.76533,1.76533,0,0,0-1.66162.46094l-1.9502,1.95019a.75072.75072,0,0,0,.34815,1.25879Z"/><polygon class="cls-6" points="86 52 78 55 60 50 68 47 86 52"/><path class="cls-8" d="M83.35466,51.26513l-.81909-.22747L79.866,52.03875l-2.24475-.62359,2.66955-1.001-.819-.22754-2.66967,1.0011-2.24475-.62353L77.227,49.563l-.81909-.22754-2.66943,1.0011-2.24488-.62354,2.66968-1.0011-.81921-.22754-2.66956,1.0011L68.42985,48.862l2.66944-1.0011-.8191-.22754-2.66943,1.0011L65.33049,48.001l-.796.29853,2.28027.63342-2.26794.8504L62.26664,49.15l-.796.29846,2.28028.63343-1.47071.55145.8191.22754,1.4707-.55145,2.24475.62353-1.15271.43225a.25011.25011,0,0,0-.15234.16516l.65344.18158,1.4707-.55151,2.24475.6236-1.4707.55145.81909.22754,1.4707-.55152,2.24476.62354-1.47071.55151.819.22748,1.47071-.55145,2.24487.62353-1.4707.55152.81909.22754,1.4707-.55152,2.64526.7348.79615-.29852-2.64551-.7348,2.26782-.8504,2.64539.7348.796-.29853-2.64539-.7348Zm-15.7439-.63067-2.24487-.62354,2.26794-.85046,2.24475.6236Zm3.06372.85107L68.42985,50.862l2.26782-.85047,2.24476.62354Zm3.064.85108-2.24488-.62354,2.26783-.85046,2.24487.62353Zm3.06372.85107-2.24475-.62353,2.26794-.85047,2.24463.62354Z"/><path class="cls-4" d="M77.99992,55.25a.25939.25939,0,0,1-.06689-.00879l-18-5a.25035.25035,0,0,1-.021-.47559l8-3a.25408.25408,0,0,1,.15479-.00683l18,5a.25035.25035,0,0,1,.021.47558l-8,3A.24727.24727,0,0,1,77.99992,55.25ZM60.80656,49.96484,77.9882,54.7373l7.20508-2.70215L68.01164,47.26269Z"/><line class="cls-9" x1="78" y1="55" x2="78" y2="57"/><path class="cls-4" d="M77.99992,57.25a.25017.25017,0,0,1-.25-.25V55a.25.25,0,0,1,.5,0v2A.25017.25017,0,0,1,77.99992,57.25Z"/><path class="cls-10" d="M74.60255,17.86631c.76484,2.31082,4.20418,4.17067,8.7761,3.25991a11.46462,11.46462,0,0,0,6.08556-4.02549s7.99223.91825,8.21313-.43625c.24331-1.49187-9.68245-2.7663-15.30945-2.09311-2.735.32722-4.35809,1.33838-5.65606.56655a10.487,10.487,0,0,0-4.12111-1.29527c-1.63279-.05831-3.0638,1.77548-2.53665,2.47834.61229.81639,1.70862.09525,2.53665.23326A2.72,2.72,0,0,1,74.60255,17.86631Z"/><path class="cls-4" d="M81.02043,21.61718c-3.55029,0-6.00537-1.71-6.65527-3.67285h0a2.492,2.492,0,0,0-1.81543-1.14257,2.65463,2.65463,0,0,0-.874.07128c-.626.11426-1.33594.2461-1.82178-.40136a1.15693,1.15693,0,0,1,.041-1.23828,3.18366,3.18366,0,0,1,2.70459-1.64063,10.85108,10.85108,0,0,1,4.24023,1.33008c.74219.44043,1.65186.2207,2.91163-.09082a20.711,20.711,0,0,1,2.58691-.50879c5.269-.63086,14.02832.39258,15.36963,1.793a.67423.67423,0,0,1,.21582.58789c-.23438,1.44043-6.25781.89551-8.34131.66113a11.74259,11.74259,0,0,1-6.15478,4.00586A12.3152,12.3152,0,0,1,81.02043,21.61718Zm-6.18067-3.8291c.731,2.20606,4.10547,3.96582,8.49024,3.09278A11.29486,11.29486,0,0,0,89.25773,16.96a.25888.25888,0,0,1,.23487-.10742c3.7456.42968,7.8291.4414,7.938-.22852.0083-.05273-.04053-.11719-.0835-.16211C96.227,15.293,87.69572,14.18652,82.39787,14.81933a20.31828,20.31828,0,0,0-2.52734.499c-1.32227.32422-2.36719.58007-3.28662.03418a10.23781,10.23781,0,0,0-4.002-1.25977,2.62143,2.62143,0,0,0-2.24414,1.37305c-.15771.30176-.189.56543-.08349.70508.28515.38086.6914.32714,1.331.21a3.0512,3.0512,0,0,1,1.04688-.07227,2.95576,2.95576,0,0,1,2.20751,1.47949Z"/><path class="cls-11" d="M70.10431,16.499c-.13179.24-.4704,1.25209-.205,1.403s.78554-1.0382.78554-1.0382"/><path class="cls-4" d="M81.41984,19.33105a4.03786,4.03786,0,0,1-2.8042-1.04785.25016.25016,0,0,1,.33985-.36719,3.77205,3.77205,0,0,0,3.28174.84375,4.62613,4.62613,0,0,0,3.21289-2.01953.25029.25029,0,1,1,.44336.23242A5.07606,5.07606,0,0,1,82.3217,19.252,5.33485,5.33485,0,0,1,81.41984,19.33105Z"/><path class="cls-4" d="M84.34172,25.66992l-.02686-.001-1.40429-.15039a.25046.25046,0,0,1,.05371-.498l1.11767.12011-.14062-4.126a.25015.25015,0,0,1,.5-.01758l.15039,4.41406a.25075.25075,0,0,1-.25.25879Z"/><path class="cls-4" d="M81.45646,25.52051a.2319.2319,0,0,1-.03662-.00293L80.17961,25.335a.24977.24977,0,1,1,.07324-.49414l.96387.1416.13232-3.64258a.25948.25948,0,0,1,.25928-.24121.25023.25023,0,0,1,.24072.25879l-.14258,3.92187a.24942.24942,0,0,1-.25.24122Z"/><path class="cls-11" d="M55.91967,44.74657c.31586.03158,1.42132.37063,1.35815.62331s-1.08262.15316-1.475.07292"/><path class="cls-4" d="M46.91154,60.38476a.24918.24918,0,0,1-.24951-.2373l-.23682-4.71582a.2501.2501,0,0,1,.23682-.2627.24348.24348,0,0,1,.26221.23731l.22412,4.458.97217-.082a.2413.2413,0,0,1,.27.22852.24982.24982,0,0,1-.228.26953l-1.23.10352Z"/><path class="cls-4" d="M43.39982,60.65429a.25059.25059,0,0,1-.24951-.23339l-.33154-4.85743a.24907.24907,0,0,1,.23242-.26562.24018.24018,0,0,1,.2666.23242l.31494,4.61426.9585-.04a.26583.26583,0,0,1,.26025.23926.25051.25051,0,0,1-.23974.26074l-1.20166.0498Z"/><path class="cls-12" d="M44.19348,48.73845c-2.70444.16347-5.90957,1.76891-6.50957,2.59391,0,0-4.68693-2.28344-5.48975-2.578-.8011-.29387-1.19064-.3647-1.4799.10325-.21243.34365.15069,1.02352.55066,1.4799a17.21241,17.21241,0,0,0,13.24843,5.36836c6.50529-.12426,7.71683-2.854,7.82354-4.19251a46.4531,46.4531,0,0,0,3.21568-5.33516c.2828-.74512.696-1.91286-.07449-2.20785-.69749-.267-1.233.36162-1.95432,1.25606-.69964.86755-3.00272,3.68648-3.90112,3.72274C48.18468,49.00724,46.804,48.58066,44.19348,48.73845Z"/><path class="cls-4" d="M44.12346,55.96a17.47588,17.47588,0,0,1-13.03711-5.44727c-.46192-.52734-.88379-1.30273-.585-1.78711.4331-.69824,1.11718-.44922,1.7788-.20507.72657.26562,4.47168,2.081,5.33985,2.502a12.54115,12.54115,0,0,1,6.5581-2.53418h0a21.06944,21.06944,0,0,1,3.64258.11328,12.45283,12.45283,0,0,0,1.792.09766c.19092-.00782,1.02344-.292,3.7168-3.62989.69385-.86132,1.353-1.6709,2.23779-1.332,1.02979.39356.48194,1.83692.21924,2.53028a44.25444,44.25444,0,0,1-3.20654,5.333c-.11182,1.0752-1.04492,4.22168-8.062,4.35547C44.38566,55.959,44.25383,55.96,44.12346,55.96ZM31.28117,48.77148a.37349.37349,0,0,0-.354.21778c-.1001.16113.09131.6875.52588,1.18359A16.965,16.965,0,0,0,44.123,55.46c.12793,0,.25586-.001.38525-.00391,6.75049-.1289,7.50781-3.06543,7.57959-3.96191a.24592.24592,0,0,1,.04248-.1211,46.67721,46.67721,0,0,0,3.18848-5.2832c.31348-.82519.56689-1.69531.06982-1.88574-.49365-.18652-.90771.23437-1.66992,1.17969-3.04492,3.77343-3.82861,3.80468-4.08594,3.81543a13.47289,13.47289,0,0,1-1.86132-.10059,20.23323,20.23323,0,0,0-3.563-.11035c-2.67774.16211-5.78662,1.75586-6.32227,2.49121a.24822.24822,0,0,1-.31152.07715c-.04688-.02246-4.68457-2.28125-5.46631-2.56738A2.79,2.79,0,0,0,31.28117,48.77148Z"/><path class="cls-4" d="M44.59172,53.3623a5.52148,5.52148,0,0,1-3.812-1.28222.25.25,0,1,1,.35546-.35157,5.02236,5.02236,0,0,0,3.45606,1.13379h.021a5.14252,5.14252,0,0,0,3.66992-1.31543.25034.25034,0,0,1,.3584.34961,5.63646,5.63646,0,0,1-4.02686,1.46582Z"/><path class="cls-13" d="M58.71086,41.42285a.25014.25014,0,0,1-.13135-.46289,5.27458,5.27458,0,0,0,1.9082-3.94336.25.25,0,0,1,.5,0,5.74911,5.74911,0,0,1-2.1455,4.36914A.2483.2483,0,0,1,58.71086,41.42285Z"/><path class="cls-13" d="M59.623,42.94336a.25006.25006,0,0,1-.00781-.5,4.56685,4.56685,0,0,0,3.812-4.01465.28305.28305,0,0,1,.25634-.24317.25037.25037,0,0,1,.24366.25684,5.05553,5.05553,0,0,1-4.29639,4.501Z"/><path class="cls-13" d="M61.64006,44.26953c-.0752,0-.148-.00293-.21778-.00977a.25015.25015,0,0,1-.22363-.27441.24762.24762,0,0,1,.27344-.22363A3.44281,3.44281,0,0,0,64.766,41.53027a.24517.24517,0,0,1,.30323-.18164.24961.24961,0,0,1,.18213.30273A3.95454,3.95454,0,0,1,61.64006,44.26953Z"/><path class="cls-14" d="M121.0315,53.13948c-2.74573-.22015-4.60173.51758-5.65639-.56322-.81275-.83289-2.96366-5.95086-4.62049-5.41535-1.50787.48736,2.12,6.71823,2.29617,7.79021.39482,2.40187,3.01345,4.80224,7.67518,4.81363,2.84992.007,5.789-.9462,6.69039-1.82559,0,0,7.07383,2.75394,7.55825,1.46989C135.50815,57.99475,126.6805,53.5924,121.0315,53.13948Z"/><path class="cls-4" d="M120.75676,60.01465h-.03125c-4.877-.0127-7.52491-2.61231-7.92139-5.02247a14.41647,14.41647,0,0,0-.84131-2.0039c-1.18213-2.55567-2.12793-4.74414-1.72949-5.65527a.71638.71638,0,0,1,.44482-.41016c1.36573-.44043,2.77637,1.99707,3.90918,3.958a10.65137,10.65137,0,0,0,.9668,1.5205c.59424.60938,1.5332.5586,2.8335.49415a18.80231,18.80231,0,0,1,2.66406-.00489c4.92676.39453,12.79834,3.94141,14.021,5.87012a.81734.81734,0,0,1,.13575.73633.681.681,0,0,1-.38086.38086c-1.334.59179-6.29541-1.24317-7.35791-1.65039C126.41447,59.1123,123.56682,60.01465,120.75676,60.01465Zm-9.74951-12.64258a.56.56,0,0,0-.1753.02734.217.217,0,0,0-.14062.13379c-.34082.7793.95263,3.57422,1.72558,5.24512a12.89607,12.89607,0,0,1,.88037,2.13183c.36377,2.21,2.84327,4.59278,7.4292,4.6045h.02979c2.76367,0,5.63232-.92188,6.48584-1.75391a.25521.25521,0,0,1,.26514-.05469c2.353.916,6.19238,2.13184,7.11669,1.71485.09473-.042.11133-.08594.1167-.09961a.39385.39385,0,0,0-.09033-.293c-1.05517-1.665-8.65234-5.23926-13.63867-5.63965h0a18.91283,18.91283,0,0,0-2.59814.00586c-1.37647.07129-2.46485.12793-3.21729-.64356a10.31266,10.31266,0,0,1-1.0415-1.62011C113.33,49.7041,111.98234,47.37207,111.00725,47.37207Z"/><path class="cls-11" d="M110.44215,47.77875c-.29.0528-1.36573.45695-1.31169.78118s1.40093-.04838,1.40093-.04838"/><path class="cls-4" d="M120.60344,57.54785c-.1045,0-.20948-.00195-.31543-.00684a4.48719,4.48719,0,0,1-3.585-1.71582.24986.24986,0,0,1,.417-.27539,3.99663,3.99663,0,0,0,3.19189,1.49121,4.16045,4.16045,0,0,0,3.334-1.09375.25.25,0,1,1,.38867.31446A4.49358,4.49358,0,0,1,120.60344,57.54785Z"/><path class="cls-4" d="M118.49162,64.32422h-1.15723a.25.25,0,0,1,0-.5h.9253l.314-4.22754a.24.24,0,0,1,.26807-.23047.24959.24959,0,0,1,.231.26758l-.33154,4.459A.25.25,0,0,1,118.49162,64.32422Z"/><path class="cls-4" d="M121.31633,64.32422h-1.19141a.25.25,0,0,1,0-.5h.94141V59.75293a.25.25,0,1,1,.5,0v4.32129A.25017.25017,0,0,1,121.31633,64.32422Z"/><path class="cls-15" d="M150.7022,52.81772c-1.07848.59288-3.00334-.01411-3.00334-.01411a4.92179,4.92179,0,0,1,1.87155-2.15653,3.57735,3.57735,0,0,1,2.83445-.43838A4.44333,4.44333,0,0,1,150.7022,52.81772Z"/><path class="cls-3" d="M149.45939,53.32715a6.82616,6.82616,0,0,1-1.83593-.28516.24994.24994,0,0,1-.1587-.32617A5.13362,5.13362,0,0,1,149.435,50.4375a3.79615,3.79615,0,0,1,3.04687-.4668.24965.24965,0,0,1,.16651.293,4.63358,4.63358,0,0,1-1.82617,2.77246h.00048A2.85074,2.85074,0,0,1,149.45939,53.32715Zm-1.40722-.68653a4.054,4.054,0,0,0,2.52929-.042h.00049a3.90058,3.90058,0,0,0,1.51221-2.20508,3.36471,3.36471,0,0,0-2.38867.46387A4.88689,4.88689,0,0,0,148.05217,52.64062Z"/><path class="cls-3" d="M148.11369,61.32422H148.102a.25.25,0,0,1-.23779-.26172c.05469-1.14356-.14551-11.71094-2.59619-13.46778a1.092,1.092,0,0,0-1.11084-.125.24971.24971,0,1,1-.18262-.46484,1.582,1.582,0,0,1,1.585.18262c2.64551,1.89746,2.86914,12.5332,2.80371,13.89843A.25005.25005,0,0,1,148.11369,61.32422Z"/><path class="cls-8" d="M141.71947,43.33665c1.13062-.05965,1.01178,1.855,1.01178,1.855s1.316-1.15,2.16881-.3656c1.06861.98287-.85567,2.2294-.85567,2.2294s1.80191,1.09642,1.0152,2.2765c-.77259,1.15887-2.29229-.66037-2.29229-.66037s.59545,1.885-.72254,2.04472c-1.27476.15452-1.7994-1.98068-1.7994-1.98068s-2.26094,1.01446-2.62059-.609c-.27476-1.24029,1.45152-1.56236,1.45152-1.56236s-1.61616-1.21288-.77259-2.1246,2.25689.67388,2.25689.67388S140.46171,43.403,141.71947,43.33665Z"/><path class="cls-3" d="M141.90861,50.97461c-1.07763,0-1.63281-1.32129-1.82568-1.90821a2.79492,2.79492,0,0,1-2.00537.06543,1.32064,1.32064,0,0,1-.69678-.95117,1.25266,1.25266,0,0,1,.17041-.99707,2.10089,2.10089,0,0,1,1.02-.73144,2.35032,2.35032,0,0,1-.75635-1.31641,1.08908,1.08908,0,0,1,.30518-.86621,1.1135,1.1135,0,0,1,.82324-.36231,2.43631,2.43631,0,0,1,1.40039.6543,2.03364,2.03364,0,0,1,.44092-1.04687,1.28527,1.28527,0,0,1,.92187-.42774h0a1.0052,1.0052,0,0,1,.78516.29492A2.168,2.168,0,0,1,142.974,44.708a1.702,1.702,0,0,1,2.09522-.06543,1.125,1.125,0,0,1,.3999.93847,2.43463,2.43463,0,0,1-.99609,1.47168,2.64976,2.64976,0,0,1,1.00244,1.36719,1.31838,1.31838,0,0,1-.208,1.05078,1.02078,1.02078,0,0,1-.81006.49609,2.10135,2.10135,0,0,1-1.31152-.57128,1.80116,1.80116,0,0,1-.21973,1.06542,1.11728,1.11728,0,0,1-.85156.50293A1.38464,1.38464,0,0,1,141.90861,50.97461Zm-1.66308-2.48926a.25282.25282,0,0,1,.10937.02539.24807.24807,0,0,1,.1333.165c.00489.01855.47754,1.90234,1.52637,1.792a.633.633,0,0,0,.49072-.27637,2.07912,2.07912,0,0,0,.02393-1.44433.24889.24889,0,0,1,.11865-.294.24521.24521,0,0,1,.31152.0586c.22608.26953.917.957,1.43995.957l.03173-.001a.52944.52944,0,0,0,.42041-.27441.82738.82738,0,0,0,.13623-.665c-.15185-.68848-1.06445-1.25391-1.07373-1.25879a.25078.25078,0,0,1-.00586-.42383c.28077-.18262,1.01807-.77246,1.063-1.30762a.63177.63177,0,0,0-.24023-.52832c-.67725-.62011-1.82324.36035-1.83545.37012a.2503.2503,0,0,1-.41358-.2041,2.27317,2.27317,0,0,0-.3457-1.44238.47372.47372,0,0,0-.40332-.14649h0a.78812.78812,0,0,0-.57471.26074,2.02891,2.02891,0,0,0-.34814,1.252.2505.2505,0,0,1-.436.18066,2.59486,2.59486,0,0,0-1.436-.873.64753.64753,0,0,0-.45068.20215.601.601,0,0,0-.17481.48047,2.38142,2.38142,0,0,0,.91406,1.27442.2509.2509,0,0,1-.104.44628,2.04635,2.04635,0,0,0-1.15527.65039.76077.76077,0,0,0-.09815.61231.83222.83222,0,0,0,.43262.6123,2.63356,2.63356,0,0,0,1.84131-.17871A.2493.2493,0,0,1,140.24553,48.48535Z"/><path class="cls-15" d="M11.17711,47.70117c1.22253.40618,2.22218,2.24961,2.22218,2.24961a6.99275,6.99275,0,0,1-3.03328.03559,3.68452,3.68452,0,0,1-1.9964-2.01371A5.1691,5.1691,0,0,1,11.17711,47.70117Z"/><path class="cls-3" d="M11.67277,50.39746a5.05955,5.05955,0,0,1-1.375-.1709A3.89671,3.89671,0,0,1,8.13762,48.0664a.25077.25077,0,0,1,.14257-.32714,5.35885,5.35885,0,0,1,2.97608-.2754c1.30127.43262,2.32031,2.28907,2.36279,2.36817a.25028.25028,0,0,1-.16015.3623A8.31194,8.31194,0,0,1,11.67277,50.39746ZM8.71623,48.11914a3.19317,3.19317,0,0,0,1.71826,1.627,6.255,6.255,0,0,0,2.56836.0293,4.5431,4.5431,0,0,0-1.9043-1.83692h-.00048A4.4368,4.4368,0,0,0,8.71623,48.11914Z"/><path class="cls-3" d="M13.42814,61.418a.24969.24969,0,0,1-.24853-.22657c-.00684-.07226-.168-1.7832-.20654-2.45507l-.01465-.23829c-.39649-6.25683.26172-9.87793,1.956-10.76269.88623-.46192,2.00928-.16016,3.34131.90039a.24981.24981,0,1,1-.31152.39062c-1.16309-.92382-2.104-1.21-2.79834-.84765-.84619.4414-2.19043,2.36523-1.68848,10.28808l.01465.24024c.03857.66406.20361,2.41992.20557,2.4375a.25.25,0,0,1-.22559.27246Z"/><path class="cls-16" d="M19.10189,45.55617c1.40091-.37357,1.84613,1.62636,1.84613,1.62636s1.62635-1.49449,2.28568-.57142-.43956,2.4615-.43956,2.4615,2.10987.30769,1.84613,1.53844-2.59337.65933-2.59337.65933.74439,2.3498-1.09888,2.46151c-1.45053.08791-1.71427-2.06591-1.71427-2.06591s-1.29213,1.928-2.32964,1.27471c-1.18679-.74724.35165-2.68128.35165-2.68128s-1.80218.17582-1.62635-1.45053,2.59337-.83516,2.59337-.83516S17.78322,45.90782,19.10189,45.55617Z"/><path class="cls-3" d="M20.85734,53.98437c-1.09424,0-1.56592-1.06054-1.75586-1.73828-.49707.5791-1.45459,1.45606-2.33056.90625a1.14956,1.14956,0,0,1-.54688-.80566,2.95193,2.95193,0,0,1,.5625-1.85059,1.75454,1.75454,0,0,1-1.03808-.457,1.47526,1.47526,0,0,1-.36768-1.25781,1.27357,1.27357,0,0,1,.57227-.98633,2.79379,2.79379,0,0,1,1.96826-.1582c-.06543-.67481-.04151-2.0127,1.11621-2.32129h0a1.37909,1.37909,0,0,1,1.106.14258,2.52564,2.52564,0,0,1,.93408,1.292,2.77573,2.77573,0,0,1,1.67871-.6836.9383.9383,0,0,1,.68115.39942c.56348.78906.0669,1.89648-.24072,2.43554a2.69869,2.69869,0,0,1,1.51221.86133,1.11444,1.11444,0,0,1,.17578.90137,1.08463,1.08463,0,0,1-.5044.71387,3.20555,3.20555,0,0,1-2.001.21,2.49472,2.49472,0,0,1-.22706,1.78808,1.46531,1.46531,0,0,1-1.189.60547C20.92717,53.9834,20.892,53.98437,20.85734,53.98437ZM19.23381,51.416a.23241.23241,0,0,1,.05761.00684.25087.25087,0,0,1,.19043.21289c.00245.01855.24415,1.84863,1.38477,1.84863.022,0,.04395-.001.06641-.00293a.97621.97621,0,0,0,.80615-.38769,2.46339,2.46339,0,0,0,.06933-1.748.25046.25046,0,0,1,.29786-.31836,3.27414,3.27414,0,0,0,2.00879-.07324.59226.59226,0,0,0,.28027-.39551.619.619,0,0,0-.09717-.50976,2.642,2.642,0,0,0-1.54-.7295.25011.25011,0,0,1-.16748-.39257c.27637-.3877.89356-1.53418.43945-2.16993a.43283.43283,0,0,0-.32568-.19336,2.89919,2.89919,0,0,0-1.5874.80274.25.25,0,0,1-.41309-.12891,2.44167,2.44167,0,0,0-.82129-1.35254.87921.87921,0,0,0-.71631-.08691h0c-1.07324.28613-.70312,2.10547-.69921,2.124a.24957.24957,0,0,1-.07764.23731.24439.24439,0,0,1-.24463.05175,2.75713,2.75713,0,0,0-1.92139.00391.78894.78894,0,0,0-.3457.62109,1.00532,1.00532,0,0,0,.22461.85059,1.61543,1.61543,0,0,0,1.12939.32422.25009.25009,0,0,1,.21973.4043,3.06547,3.06547,0,0,0-.73437,1.84863.65831.65831,0,0,0,.32031.46484c.80664.5127,1.97656-1.18457,1.98877-1.20215A.25149.25149,0,0,1,19.23381,51.416ZM19.102,45.55664h0Z"/><path class="cls-17" d="M26.40925,66.99279c-5.92425.02651-10.098,1.10957-10.033,3.59243.06529,2.49476,4.48279,2.98116,10.342,2.86968,5.52033-.105,10.5989-.72513,10.5461-3.15114C37.19973,67.3349,31.50737,66.97,26.40925,66.99279Z"/><path class="cls-3" d="M25.18937,73.7207c-4.66113,0-8.99462-.49707-9.063-3.12891a2.29666,2.29666,0,0,1,.69384-1.70312c1.69336-1.74512,6.14844-2.12988,9.58789-2.14551h0c5.45752-.03418,11.03663.37695,11.10645,3.55469a1.86824,1.86824,0,0,1-.55713,1.36914C35.728,72.94726,32.476,73.59472,26.72307,73.70508,26.21135,73.71484,25.69816,73.7207,25.18937,73.7207Zm1.22071-6.47754c-4.72608.02149-8.0044.72949-9.231,1.99414a1.78849,1.78849,0,0,0-.55273,1.34082c.06543,2.49805,5.42529,2.72071,10.08691,2.627,5.53467-.10547,8.76758-.72266,9.8833-1.88477a1.36473,1.36473,0,0,0,.418-1.01074c-.06006-2.75977-5.67481-3.0918-10.60449-3.06641Zm-.001-.25h0Z"/><path class="cls-9" d="M30.74748,70.89941a.25.25,0,0,1-.001-.5c.03076,0,.751-.01074.751-.5s-.72022-.5-.751-.5a.25.25,0,0,1,.001-.5c.43213,0,1.25.209,1.25,1S31.17961,70.89941,30.74748,70.89941Z"/><path class="cls-9" d="M31.74748,71.39941a.25.25,0,1,1,0-.5c.34424,0,1.25-.30762,1.25-1s-.90576-1-1.25-1a.25.25,0,1,1,0-.5c.62793,0,1.75.501,1.75,1.5S32.37541,71.39941,31.74748,71.39941Z"/><path class="cls-9" d="M28.74748,70.89941c-.43213,0-1.25-.209-1.25-1s.81787-1,1.25-1a.25.25,0,0,1,.001.5c-.03077,0-.751.01074-.751.5s.72021.5.751.5a.25.25,0,0,1-.001.5Z"/><path class="cls-9" d="M27.74748,71.39941c-.62793,0-1.75-.501-1.75-1.5s1.12207-1.5,1.75-1.5a.25.25,0,0,1,0,.5c-.34424,0-1.25.30762-1.25,1s.90576,1,1.25,1a.25.25,0,0,1,0,.5Z"/><path class="cls-9" d="M37.46353,63.57683a1.20563,1.20563,0,0,1-.88389,1.53093.25.25,0,0,1-.12941-.483.75.75,0,1,0-.38964-1.44851l-.96451.25844a.75.75,0,1,0,.38964,1.44851.25093.25093,0,0,1,.30383.17741l.00025.00094a.24912.24912,0,0,1-.17608.305,1.25,1.25,0,1,1-.64705-2.41481l.96593-.25882A1.20563,1.20563,0,0,1,37.46353,63.57683Z"/><path class="cls-4" d="M36.28105,62.64932a1.16185,1.16185,0,0,1,1.18249.92752,1.20568,1.20568,0,0,1-.88391,1.53091.25.25,0,0,1-.12939-.48294.71245.71245,0,0,0,.53027-.91857.67336.67336,0,0,0-.68933-.55838.949.949,0,0,0-.23059.02844l-.96448.25842a.71243.71243,0,0,0-.53039.91858.67341.67341,0,0,0,.68945.55835.95.95,0,0,0,.23059-.02841.251.251,0,0,1,.30383.1774l.00025.00094a.24913.24913,0,0,1-.17615.305,1.36937,1.36937,0,0,1-.34839.04364,1.1618,1.1618,0,0,1-1.18249-.92752,1.20552,1.20552,0,0,1,.88391-1.53091l.96582-.25882a1.36963,1.36963,0,0,1,.34851-.04364m0-.5a1.87455,1.87455,0,0,0-.47791.06067l-.96582.25882a1.89792,1.89792,0,0,0-.95459.61886,1.77043,1.77043,0,0,0,1.38257,2.82254,1.87494,1.87494,0,0,0,.47779-.06066.74508.74508,0,0,0,.43273-.31449.74833.74833,0,0,0,.53333.05564,1.70084,1.70084,0,0,0,1.2373-2.14325,1.65519,1.65519,0,0,0-1.6654-1.29813Zm-1.02588,2.26233c-.09436,0-.15967-.01306-.20654-.18775-.0271-.10113-.06421-.23962.18066-.30722l.96069-.25744a.459.459,0,0,1,.1012-.01138c.09424,0,.15955.01309.20642.18777.0271.1011.06409.23959-.18066.30728a.74121.74121,0,0,0-.4303.31391.74936.74936,0,0,0-.52344-.05832.455.455,0,0,1-.108.01315Z"/><path class="cls-6" d="M32.76332,65.35389,38.55888,63.801c.53346-.14294,1.25562.82233,1.613,2.156s.21459,2.5307-.31888,2.67364l-5.79555,1.55291"/><path class="cls-4" d="M34.05754,70.43359a.24986.24986,0,0,1-.06494-.49121L39.788,68.38965c.29541-.08008.49756-1.042.14209-2.36817-.35547-1.32715-1.01368-2.0625-1.30664-1.97949l-5.7959,1.55273a.24967.24967,0,1,1-.12891-.48242l5.79541-1.55273c.78906-.21,1.57373,1.04492,1.91944,2.333.34472,1.2871.28808,2.76855-.49561,2.97949L34.122,70.4248A.244.244,0,0,1,34.05754,70.43359Z"/><ellipse class="cls-9" cx="33.41037" cy="67.76871" rx="1" ry="2.5" transform="translate(-16.4014 10.9564) rotate(-15)"/><path class="cls-4" d="M33.94767,70.44824c-.72509,0-1.42578-1.16406-1.74511-2.35645-.34424-1.28711-.28809-2.76855.4956-2.97949h.00049c.78565-.21191,1.57471,1.04492,1.91944,2.333a5.17694,5.17694,0,0,1,.18115,1.87793c-.07324.61328-.31348,1.00488-.67725,1.10156A.66851.66851,0,0,1,33.94767,70.44824Zm-1.12011-4.85352c-.29492.08106-.49658,1.042-.1416,2.36817.35546,1.32519,1.00488,2.05957,1.30713,1.97949.14355-.03906.26513-.30469.30957-.67871a4.6642,4.6642,0,0,0-.168-1.68945c-.355-1.32618-1.01319-2.06641-1.30713-1.9795Z"/><polygon class="cls-18" points="108.037 70.536 102.841 73.536 92.841 67.763 92.841 66.763 108.037 69.536 108.037 70.536"/><path class="cls-4" d="M102.84123,73.78613a.24842.24842,0,0,1-.125-.0332l-10-5.77344a.25176.25176,0,0,1-.125-.2168v-1a.24964.24964,0,0,1,.29492-.24609L108.08244,69.29a.24985.24985,0,0,1,.20508.24609v1a.25176.25176,0,0,1-.125.2168l-5.19629,3A.24842.24842,0,0,1,102.84123,73.78613Zm-9.75-6.168,9.75,5.62891,4.94629-2.85547v-.64649L93.09123,67.0625Zm14.94629,2.918h0Z"/><polygon class="cls-6" points="108.037 69.536 102.841 72.536 92.841 66.763 98.037 63.763 108.037 69.536"/><path class="cls-4" d="M102.84123,72.78613a.24842.24842,0,0,1-.125-.0332l-10-5.77344a.2505.2505,0,0,1,0-.43359l5.19629-3a.24869.24869,0,0,1,.25,0l10,5.77343a.25051.25051,0,0,1,0,.4336l-5.19629,3A.24842.24842,0,0,1,102.84123,72.78613Zm-9.5-6.02344,9.5,5.48438,4.69629-2.71094-9.5-5.48437Z"/><polygon class="cls-19" points="106.037 68.381 100.841 71.381 93.841 67.34 99.037 64.34 106.037 68.381"/><path class="cls-16" d="M96.05164,66.06369l.38041.89334a.24723.24723,0,0,0,.26855.14941l1.81348-.2832.88428.47754-1.53565.47754-2.1958-.96973a.24987.24987,0,0,0-.20215.457l2.28174,1.00781a.24523.24523,0,0,0,.1753.00977l1.82812-.56842-.166,1.51764a.25051.25051,0,0,0,.08056.21289l.59424.53906.28562,1.2256.52317.04071-.33955-1.45576a.25207.25207,0,0,0-.07569-.12891l-.55761-.50586.1167-1.06543,1.26269,1.97071a.24993.24993,0,0,0,.18555.11425.24244.24244,0,0,0,.20459-.07519l1.852-1.916a.25.25,0,0,0-.35938-.34765l-1.63232,1.68847-1.22754-1.916h.32178a.25017.25017,0,0,0,.25-.25V67.0459l.66455.51464a.24546.24546,0,0,0,.15332.05274A.24978.24978,0,0,0,102.04,67.166l-1.06787-.82715a.25225.25225,0,0,0-.26318-.02734.24953.24953,0,0,0-.14014.22461v.57715h-.46631l-1.42529-.76953a.24541.24541,0,0,0-.15723-.02735l-1.7041.26563-.32814-.77015Z"/><path class="cls-4" d="M100.84123,71.63183a.24842.24842,0,0,1-.125-.0332l-7-4.042a.25051.25051,0,0,1,0-.4336l5.19629-3a.24874.24874,0,0,1,.25,0l7,4.042a.2505.2505,0,0,1,0,.43359l-5.19629,3A.24842.24842,0,0,1,100.84123,71.63183Zm-6.5-4.292,6.5,3.75293,4.69629-2.71094-6.5-3.75293Z"/><ellipse class="cls-9" cx="104.43925" cy="70.4587" rx="0.37608" ry="0.66475" transform="translate(21.86254 165.60634) rotate(-83.05106)"/><path class="cls-8" d="M104.53166,71.09179a1.33394,1.33394,0,0,1-.65039-.166.6254.6254,0,0,1-.35352-.52246.52391.52391,0,0,1,.28711-.4502,1.27674,1.27674,0,0,1,1.18262.03906h0a.6248.6248,0,0,1,.35352.52149.52391.52391,0,0,1-.28711.45019A1.07972,1.07972,0,0,1,104.53166,71.09179Zm-.18555-.76464a.59526.59526,0,0,0-.28222.05957c-.0337.02246-.0083.06152.06787.10644a.80314.80314,0,0,0,.68213.03809c.03466-.02246.00927-.0625-.06641-.10547l-.00049-.001A.8254.8254,0,0,0,104.34611,70.32715Z"/></g></g></svg>