<svg xmlns="http://www.w3.org/2000/svg" xmlns:xlink="http://www.w3.org/1999/xlink" viewBox="0 0 960.5 694.441"><defs><style>.cls-1,.cls-12,.cls-13,.cls-14,.cls-16,.cls-17,.cls-18,.cls-19,.cls-2,.cls-20,.cls-27,.cls-28,.cls-29,.cls-30,.cls-31,.cls-34,.cls-39,.cls-40,.cls-41,.cls-42,.cls-43,.cls-5,.cls-6,.cls-7,.cls-8{stroke:#003437;}.cls-1,.cls-12,.cls-13,.cls-14,.cls-16,.cls-17,.cls-18,.cls-19,.cls-2,.cls-20,.cls-21,.cls-22,.cls-23,.cls-24,.cls-25,.cls-26,.cls-27,.cls-28,.cls-29,.cls-30,.cls-31,.cls-32,.cls-33,.cls-34,.cls-36,.cls-37,.cls-38,.cls-39,.cls-40,.cls-41,.cls-42,.cls-43,.cls-47,.cls-48,.cls-5,.cls-6,.cls-7,.cls-8{stroke-linecap:round;stroke-linejoin:round;}.cls-1,.cls-12,.cls-13,.cls-14,.cls-16,.cls-17,.cls-18,.cls-19,.cls-2,.cls-20,.cls-21,.cls-22,.cls-23,.cls-24,.cls-25,.cls-26,.cls-27,.cls-28,.cls-29,.cls-30,.cls-31,.cls-32,.cls-33,.cls-34,.cls-36,.cls-37,.cls-38,.cls-39,.cls-4,.cls-40,.cls-41,.cls-42,.cls-43,.cls-47,.cls-48,.cls-5,.cls-6,.cls-7,.cls-8{stroke-width:0.5px;}.cls-1,.cls-9{fill:url(#New_Gradient_Swatch_1);}.cls-10,.cls-2{fill:url(#New_Gradient_Swatch_1-2);}.cls-2{clip-path:url(#clip-path);}.cls-26,.cls-3,.cls-36,.cls-37,.cls-38,.cls-40,.cls-47,.cls-48,.cls-6{fill:none;}.cls-17,.cls-4{fill:#caecf9;}.cls-21,.cls-22,.cls-23,.cls-24,.cls-25,.cls-26,.cls-32,.cls-33,.cls-4,.cls-48{stroke:#053437;}.cls-4{stroke-miterlimit:10;}.cls-14,.cls-15,.cls-24,.cls-5{fill:#fff;}.cls-39,.cls-7{fill:#33d67b;}.cls-32,.cls-8{fill:#053437;}.cls-11{clip-path:url(#clip-path-2);}.cls-12{fill:url(#New_Gradient_Swatch_1-5);}.cls-13{fill:#f6e55a;}.cls-14,.cls-16,.cls-17,.cls-21,.cls-22,.cls-26,.cls-27,.cls-30,.cls-31,.cls-32,.cls-33,.cls-39,.cls-40,.cls-44,.cls-45{fill-rule:evenodd;}.cls-16,.cls-41{fill:#f0403d;}.cls-18,.cls-31{fill:#f7ce05;}.cls-19,.cls-21{fill:#aaa;}.cls-20,.cls-22,.cls-23{fill:#ddd;}.cls-25,.cls-34{fill:#003437;}.cls-27,.cls-28,.cls-33{fill:#d6f7e5;}.cls-29,.cls-30,.cls-44{fill:#553bf2;}.cls-35{clip-path:url(#clip-path-3);}.cls-36,.cls-37,.cls-38{stroke:#95daf4;}.cls-36{stroke-dasharray:4 4;}.cls-38{stroke-dasharray:3.969 3.969;}.cls-42{fill:#2bb5e9;}.cls-43{fill:#95daf4;}.cls-45{fill:#edeafd;}.cls-46{fill:#bfcacf;}.cls-47{stroke:#fff;}</style><linearGradient id="New_Gradient_Swatch_1" x1="529.713" y1="191.615" x2="537.78" y2="191.615" gradientUnits="userSpaceOnUse"><stop offset="0" stop-color="#2bb5e9"/><stop offset="1" stop-color="#72e382"/></linearGradient><linearGradient id="New_Gradient_Swatch_1-2" x1="534.865" y1="188.982" x2="544.564" y2="188.982" xlink:href="#New_Gradient_Swatch_1"/><clipPath id="clip-path"><path id="SVGID" class="cls-1" d="M537.78,199.49c-2.363.663-6.308-4.312-5.28-8.216a.09.09,0,0,0-.064-.1c-4.771-.622-2.293-6.777.052-7.435,1.02-.288,2.016.469,2.377,3.177"/></clipPath><clipPath id="clip-path-2" transform="translate(0 252.801)"><path id="SVGID-2" data-name="SVGID" class="cls-2" d="M534.865,186.915c.007.059.119,0,.178,0,3.045.055,9.048-4.255,9.521,5.075"/></clipPath><linearGradient id="New_Gradient_Swatch_1-5" x1="524.093" y1="443.846" x2="550.225" y2="443.846" xlink:href="#New_Gradient_Swatch_1"/><clipPath id="clip-path-3" transform="translate(0 252.801)"><path id="SVGID-3" data-name="SVGID" class="cls-3" d="M698.141,50.675c11.546.722,23.81,27.262,22.775,39s-6.589,31.309,1.693,44.768c6.655,10.814,11.012,29.425-.03,33.221-7.128,2.45-15.023-2.527-18.818,4.375s-6.909,9.843-27.269,7.082-16.658-14.809-20.539-30.809c-6.881-28.367,11.091-32.435,10.746-44.168s-24.807-22.751-21.011-34.484S681.577,49.64,698.141,50.675Z"/></clipPath></defs><g id="Layer_2" data-name="Layer 2"><g id="Layer_2-2" data-name="Layer 2"><path class="cls-4" d="M.25,227h960v62.529c-46.629-.733-102.4-5.1-160.87-9.695-100.673-7.916-214.778-16.887-305.557-8.5-152.854,14.127-277.154,8.107-397.362,2.283C63.883,272.041,32,270.5.25,269.393Z" transform="translate(0 252.801)"/><path class="cls-5" d="M675.894,216.556s-6.317,9.272-37.213,25.714c-29.332,15.609-75.214,17.922-101.145,16.221-30.968-2.031-52.242-5.632-74.428-15.267-13.355-5.8-26.646-10.9-37.214-19.668,0,0,19.722.376,41.985.584,17.775.167,34.116-1.139,62.023-1.908,15.067-.415,51.947.587,89.695-1.909C644.178,218.7,675.894,216.556,675.894,216.556Z" transform="translate(0 252.801)"/><path class="cls-6" d="M425.894,223.556s37.195,9.688,52.481,12.034a501.72,501.72,0,0,0,66.794,5.726c16.606.517,53.676-2.373,78.245-8.588,23.223-5.875,52.48-16.172,52.48-16.172" transform="translate(0 252.801)"/><path class="cls-7" d="M549.586,213.479c.667,3.565,5.906,11.051,13.362,10.006,10.142-1.422,12.553-11.079,12.9-13.581.127-.915-.249-1.211-.7-1.286-.521-.087-1.106.345-1.415,1.109-.34.839-4.1,10.308-11.349,9.778s-9.3-12.535-13.111-14.748a12.165,12.165,0,0,0-3.239-1.141,14.176,14.176,0,0,0-2.58-.036c-4.348.2-9.862,1.561-10.01,3.5a38.5,38.5,0,0,0,.778,10.381c.345,1.716.781,3.417,1.283,5.069,1.438,4.732,1.189,9.977,1.26,13.85.053,2.831,15.666,2.453,15.822.35.4-5.389.514-14.787.511-17.725" transform="translate(0 252.801)"/><path class="cls-8" d="M574.276,208.971c-.62-.5-1.693-1.23-1.119-1.971.108-.139.588.074.888-.271.561-.645,1.082-1.921,1.5-1.817.95.237.451,4.36.265,4.4A2.388,2.388,0,0,1,574.276,208.971Z" transform="translate(0 252.801)"/><path class="cls-5" d="M566.815,214.638c.135-.777.258-2.065,1.187-1.92.176.027.222.548.671.645.839.179,2.213.02,2.325.435.254.942-3.611,2.485-3.734,2.341a2.379,2.379,0,0,1-.449-1.5" transform="translate(0 252.801)"/><path class="cls-7" d="M532.958,207.155c3.35-4.393,4.988,11.032,12.134,12.554,3.4.723,17.369-2.9,20.767-4.853.481-.276.986-.492,1.446-.184l.023.016c.455.305.8,1.056.352,1.371-4.625,3.263-15.982,8.369-23.783,7.543a13.485,13.485,0,0,1-11.414-9.156C531.6,211.811,531.434,209.153,532.958,207.155Z" transform="translate(0 252.801)"/><path id="SVGID-4" data-name="SVGID" class="cls-9" d="M537.78,199.49c-2.363.663-6.308-4.312-5.28-8.216a.09.09,0,0,0-.064-.1c-4.771-.622-2.293-6.777.052-7.435,1.02-.288,2.016.469,2.377,3.177" transform="translate(0 252.801)"/><path id="SVGID-5" data-name="SVGID" class="cls-10" d="M534.865,186.915c.007.059.119,0,.178,0,3.045.055,9.048-4.255,9.521,5.075" transform="translate(0 252.801)"/><g class="cls-11"><polygon class="cls-12" points="524.093 452.191 527.765 428.465 550.225 435.501 546.554 459.227 524.093 452.191"/></g><path id="SVGID-6" data-name="SVGID" class="cls-6" d="M537.78,199.49c-2.363.663-6.308-4.312-5.28-8.216a.09.09,0,0,0-.064-.1c-4.771-.622-2.293-6.777.052-7.435,1.02-.288,2.016.469,2.377,3.177" transform="translate(0 252.801)"/><path id="SVGID-7" data-name="SVGID" class="cls-6" d="M534.865,186.915c.007.059.119,0,.178,0,3.045.055,9.048-4.255,9.521,5.075" transform="translate(0 252.801)"/><path class="cls-13" d="M537.779,199.491c-2.362.663-6.306-4.313-5.279-8.218a.091.091,0,0,0-.064-.1c-6.849-.892,1.239-13.186,2.429-4.259.007.059.119,0,.179,0,3.045.054,9.046-4.255,9.52,5.075" transform="translate(0 252.801)"/><path class="cls-8" d="M545.234,194.656c1.843,5.729-.034,7.009-2.32,7.65-.287.081.3,1.807.3,1.807a9.144,9.144,0,0,1-1.95.925,14.034,14.034,0,0,1-2.789.079,48.988,48.988,0,0,0-.862-6.427c-.129-.458-.47-.029-.927-.651a4.1,4.1,0,0,1-.738-2.213c.028-.49.513-.94.889-.854.8.181,1.307,1.03,1.272.608-.164-2.012-.7-2.233-.057-3.19.978-1.446,3.051-.721,5.062-2.25,1.458-1.108.981.974,2.122,4.516" transform="translate(0 252.801)"/><path class="cls-6" d="M534.865,186.915a4.68,4.68,0,0,1-2.429,4.258" transform="translate(0 252.801)"/><path class="cls-14" d="M596.19,229.456c-1.524,2.511-2.986,3.352-3.94,3.356s2.155-6.688,1.2-6.684-5.972,6.7-6.926,6.707,2.155-6.688,1.2-6.684-5.972,6.7-6.926,6.708-.893-1.666.123-3.34,2.986-3.352,3.94-3.356-2.155,6.688-1.2,6.684,5.972-6.7,6.926-6.708-2.155,6.689-1.2,6.685,5.972-6.7,6.926-6.708S597.206,227.782,596.19,229.456Z" transform="translate(0 252.801)"/><polygon class="cls-15" points="559.908 493.026 552.639 487.257 543.878 487.438 535.908 487.026 535.908 493.333 559.908 493.026"/><path class="cls-6" d="M553.029,225.3c9.808.593,16.949,2.414,16.949,4.568,0,2.635-10.68,4.771-23.854,4.771s-23.855-2.136-23.855-4.771c0-1.927,5.711-3.587,13.932-4.34" transform="translate(0 252.801)"/><path class="cls-5" d="M607.238,169.291a1.017,1.017,0,0,0-1.567-1.251" transform="translate(0 252.801)"/><path class="cls-5" d="M533.9,257.915l71.774-89.875s4.227-14.29,6.625-18.516c1.287-2.27,4.477-5.869,10.372-1.162s3.09,8.615,1.162,10.373c-3.591,3.273-16.592,10.556-16.592,10.556l-71.774,89.875" transform="translate(0 252.801)"/><path class="cls-5" d="M533.9,257.915a1.017,1.017,0,0,0,1.567,1.251" transform="translate(0 252.801)"/><path class="cls-5" d="M535.464,259.166s-4.227,14.29-6.625,18.516c-1.287,2.27-4.478,5.869-10.372,1.162s-3.09-8.615-1.162-10.373C520.9,265.2,533.9,257.915,533.9,257.915" transform="translate(0 252.801)"/><path class="cls-8" d="M566.815,214.638c.135-.777.258-2.065,1.187-1.92.176.027.222.548.671.645.839.179,2.213.02,2.325.435.254.942-3.611,2.485-3.734,2.341a2.379,2.379,0,0,1-.449-1.5" transform="translate(0 252.801)"/><path class="cls-16" d="M185.587,209.561c1.434,4.19,4.816,19.783,7.056,21.469,2.59,1.948,14.584,4.977,16.3,5.466,1.094.311.785,1.277.575,1.838a1.3,1.3,0,0,1-1.478.983c-.842-.141-15.845-2.866-19.144-5.112-3.254-2.216-7.651-19.373-7.932-22.322" transform="translate(0 252.801)"/><g id="Stroke-63"><path class="cls-17" d="M209.6,237.2c.816-.372,2.108-1.08,2.563-.12.086.182-.373.557-.178,1.037.366.9,1.393,2.079,1.075,2.448-.724.84-4.642-1.78-4.584-1.987A2.691,2.691,0,0,1,209.6,237.2Z" transform="translate(0 252.801)"/></g><path class="cls-16" d="M188.137,212.257c.106,4.673-.725,30.577-.725,30.577-2.021,2.615-4.832,3-7.8,3.353s-8.8,1.444-9.157-3.787a42.476,42.476,0,0,1,.225-12.435c1.725-8.766,4.36-19.017,5.921-21.53,1.643-2.646,4.095-3.23,7.931-3.131C187.38,205.377,188.067,209.191,188.137,212.257Z" transform="translate(0 252.801)"/><path class="cls-18" d="M177.771,223.612c.822-.175-1.521-16.013-1.521-16.013a5.568,5.568,0,0,1,2.128-1.905,2.349,2.349,0,0,1,3.058.837c2.356,4.267-.572,17.164-.572,17.164.635.071,4.562-.188,5.267-.752,0,0,1.184-12.894.1-16.148l-1.707-1.491c2.852.073,3.539,3.887,3.609,6.953.106,4.673-.91,22.933-.725,30.577.131,5.413,1.522,18.887,2.023,21.562a13.821,13.821,0,0,1-4.182,1,23.142,23.142,0,0,1-4.425-.358s-.766-3.512-1.3-5.582c-.373-1.444-1.436-5.882-1.436-5.882s-.747,3.907-1.029,6.081c-.178,1.379-.656,5.394-.656,5.394a16.253,16.253,0,0,1-4.592.682,15.931,15.931,0,0,1-4.031-.8s.149-4.836.474-10.3c.261-4.406.409-9.27.739-12.154.618-5.4.895-11.4,2.7-19.245C171.7,223.232,175.832,224.022,177.771,223.612Z" transform="translate(0 252.801)"/><path class="cls-19" d="M184.138,194.5a15.2,15.2,0,0,0-2.145,1.151c-.9.464.49,2.506.189,3.134-.486,1.015,1.081,2.387.924,3.29s5.3-.828,5.3-.828" transform="translate(0 252.801)"/><path class="cls-14" d="M183.477,197.679a1.9,1.9,0,0,0,.471,2.193s-.981,2.664-2.065,5.224c-.542,1.281.78,2.633,2.187,3.215a1.848,1.848,0,0,0,1.96-.2c.272-.359.5-1.644,1.156-2.787,0,0,2.529.761,3.974-1.135,1.079-1.416,1.408-3.549,1.68-5.137.211-1.235.641-3.272-.051-4.192s-4.276-1.3-5.212-.8-.861,1.819-1.747,2.308c-.943.521-.94.128-1.249.175A1.426,1.426,0,0,0,183.477,197.679Z" transform="translate(0 252.801)"/><path class="cls-20" d="M191.206,195.285s-1.395,1.948-2.823,1.474-2.405,1.244-3.294.712-.724-1.484-1.734-.451-1.355-.462-2.174-.528-.518-2.459.757-2.842,1.917-2.26,2.557-2.9,2.222.036,2.986-.889,2.863,1.255,3.624.783,1.524,2.1,2.6,2.436.8,3.234,1.458,3.348.629,1.166.183,2-1.523.944-2.014,1.161S191.206,195.285,191.206,195.285Z" transform="translate(0 252.801)"/><path class="cls-21" d="M204.787,239.057l-2.348.338c-.389.056-.591.89-.451,1.862s.569,1.716.958,1.66l2.348-.338" transform="translate(0 252.801)"/><path class="cls-22" d="M204.266,237.934l.676,4.7c.149,1.037,2.372,1.575,4.965,1.2s4.575-1.516,4.426-2.553l-.676-4.7" transform="translate(0 252.801)"/><ellipse class="cls-23" cx="208.962" cy="237.259" rx="4.744" ry="1.898" transform="translate(-31.658 284.978) rotate(-8.187)"/><ellipse class="cls-24" cx="208.962" cy="237.259" rx="2.372" ry="0.949" transform="translate(-31.658 284.978) rotate(-8.187)"/><path class="cls-21" d="M216.174,237.419l-2.348.338c-.389.056-.591.89-.451,1.862s.569,1.716.958,1.66l2.347-.338" transform="translate(0 252.801)"/><ellipse class="cls-25" cx="216.427" cy="239.18" rx="0.712" ry="1.779" transform="translate(-31.856 286.061) rotate(-8.187)"/><g id="Stroke-63-2" data-name="Stroke-63"><path id="path-5" class="cls-17" d="M202.947,241.3c.8-.492,2.04-1.395,2.638-.46.113.176-.314.625-.048,1.1.5.882,1.714,1.969,1.434,2.394-.638.964-5.038-1.234-5.006-1.456A2.817,2.817,0,0,1,202.947,241.3Z" transform="translate(0 252.801)"/><path class="cls-14" d="M202.947,241.3c.8-.492,2.04-1.395,2.638-.46.113.176-.314.625-.048,1.1.5.882,1.714,1.969,1.434,2.394-.638.964-5.038-1.234-5.006-1.456A2.817,2.817,0,0,1,202.947,241.3Z" transform="translate(0 252.801)"/></g><path class="cls-26" d="M209.142,241.294c2.811,2.031,1.2,20.154,4.467,23.417" transform="translate(0 252.801)"/><path class="cls-16" d="M178.128,207.125c-2.479-.131-3.375,2.34-3.666,5.42-.21,2.237.564,20.59,3.562,23.2,3.563,3.1,21.929,7.315,23.323,7.556a1.779,1.779,0,0,0,1.6-1.139,1.293,1.293,0,0,0-.726-1.675c-.9-.321-18.946-6.2-20.21-8.2s-.922-17.356-1.069-19.736C180.726,208.968,180.127,207.23,178.128,207.125Z" transform="translate(0 252.801)"/><path class="cls-14" d="M739.7,284.479c-.045,2.355,4.613,1.348,6.068.923,1.432-.419,4.482-.635,4.508-2.435.041-2.73-4.01-1-5.784-.6S739.726,282.916,739.7,284.479Z" transform="translate(0 252.801)"/><path class="cls-14" d="M716.134,283.352c.285-2.16,4.6.267,5.984,1.016,1.237.668,4.955.808,4.792,2.668-.247,2.824-4.473.921-6.263.313S715.927,284.919,716.134,283.352Z" transform="translate(0 252.801)"/><g id="Stroke-49"><path class="cls-27" d="M744.111,275.806a47.821,47.821,0,0,0,2.311,6.21,1.735,1.735,0,0,0,2.111.717,1.309,1.309,0,0,0,.884-1.621c-.147-.737-1.572-4.913-1.572-4.913" transform="translate(0 252.801)"/><path class="cls-28" d="M724.212,279.523c-.192.912-.447,4.863-.5,5.617-.033.442-.224,1.566,1.022,1.67a1.481,1.481,0,0,0,1.66-1c.26-.844.969-7.647.969-7.647" transform="translate(0 252.801)"/></g><g id="dogwalker"><path id="Stroke-267" class="cls-29" d="M732.658,236.97c.5.8-.486,9.286.93,17.939.769,4.7,10.051,22.044,12.322,26.555a5.532,5.532,0,0,0,1.72-.292,15.453,15.453,0,0,0,1.968-1c-4.132-15.028-5.111-17.342-7.312-24.426-1.262-4.064-.569-9.164.821-18.861,1-6.959.725-8.349.725-8.349" transform="translate(0 252.801)"/><path class="cls-30" d="M744.928,228.876c.022,8.743-10.366,24-11.9,29.444-1.261,4.485-1.941,8-2.548,10.677s-2.963,14.468-3.357,15.511a6.86,6.86,0,0,1-2.366-.083,3.544,3.544,0,0,1-1.461-.832c.111-1.977,1.089-23.639,2.15-27.976s4.5-21.6,4.492-24.41" transform="translate(0 252.801)"/></g><path class="cls-31" d="M728.954,199.641c-1.435,4.191-4.816,19.783-7.056,21.469-2.59,1.948-14.584,4.977-16.3,5.466-1.1.312-.786,1.277-.575,1.838a1.3,1.3,0,0,0,1.477.983c.843-.14,15.846-2.866,19.145-5.112,3.254-2.216,7.651-19.373,7.932-22.321" transform="translate(0 252.801)"/><g id="Stroke-63-3" data-name="Stroke-63"><path class="cls-27" d="M704.946,227.28c-.816-.372-2.108-1.08-2.564-.12-.085.182.374.557.179,1.037-.366.9-1.393,2.079-1.075,2.449.723.839,4.641-1.781,4.584-1.988A2.7,2.7,0,0,0,704.946,227.28Z" transform="translate(0 252.801)"/></g><path class="cls-31" d="M726.4,202.337c-.106,4.673.725,30.577.725,30.577,2.021,2.615,4.831,3,7.8,3.353s10.968,1.5,11.324-3.734-6.248-29.622-8.795-33.722c-1.643-2.647-3.184-3.536-7.02-3.438C727.589,195.447,726.474,199.272,726.4,202.337Z" transform="translate(0 252.801)"/><path class="cls-5" d="M698.385,201.078c2.826.9,4.57-1.985,5.1-3.638l9.3-29.168-1.429-.455-9.3,29.168c-.043.131-1.082,3.256-3.187,2.585-1.536-.49-1.438-2.3-1.257-3.295a.756.756,0,0,0-.5-.868l0,0a.784.784,0,0,0-.985.647C695.807,197.812,696,200.319,698.385,201.078Z" transform="translate(0 252.801)"/><path class="cls-16" d="M739.847,179.626c-3.038-10.592-8.756-22.842-23.315-27.484s-26.313,2.034-34.922,8.913c0,0,4.8-2.479,8.44-1.319s6.119,5.962,6.119,5.962,4.8-2.479,8.44-1.319,6.119,5.962,6.119,5.962,4.8-2.48,8.441-1.319,6.118,5.961,6.118,5.961,4.8-2.479,8.441-1.318S739.847,179.626,739.847,179.626Z" transform="translate(0 252.801)"/><line class="cls-6" x1="717.646" y1="401.449" x2="716.532" y2="404.943"/><path class="cls-31" d="M735.474,202.36c-1.739,5.943-12.753,14.492-18.326,13.992-5.5-.494-12.372-14.521-13.244-17.211-.546-1.684-.146-1.862.468-2.092a1.815,1.815,0,0,1,2.192.959c.691,1.074,7.74,12.57,10.814,13.432,2.515.705,11.308-9.25,12.547-11.144,1.17-1.788,2.844-2.622,4.378-1.931S735.875,200.99,735.474,202.36Z" transform="translate(0 252.801)"/><g id="Stroke-63-4" data-name="Stroke-63"><path class="cls-27" d="M705.128,196.447c.093-.893.352-2.343-.7-2.469-.2-.023-.408.532-.926.5-.968-.06-2.414-.656-2.663-.237-.565.953,3.168,3.831,3.346,3.71A2.693,2.693,0,0,0,705.128,196.447Z" transform="translate(0 252.801)"/></g><path class="cls-32" d="M725.158,191.872c-1.134.49-3.364-1.014-3.364-1.014.36-.726-1.6-3.209-1.46-4.991.119-1.512-.256-3.1.173-3.666.878-1.149,2.092-1.114,3-1.958,1.017-.944,2.391-.41,3.607-.577a5.222,5.222,0,0,1,4.772,2.494,4.263,4.263,0,0,1,.719,2.536c-.188,1.369-.221,2.56-.234,2.8-.082,1.419-1.47,1.538-2.125,5.209C729.909,194.587,725.936,191.536,725.158,191.872Z" transform="translate(0 252.801)"/><path class="cls-33" d="M730.838,187.908a1.9,1.9,0,0,1-.627,2.153s.785,2.727,1.682,5.359c.448,1.316-.968,2.569-2.413,3.049a1.847,1.847,0,0,1-1.94-.336c-.246-.379-.38-1.676-.952-2.863,0,0-2.849.638-4.154-1.357-.974-1.49-.877-3.7-1.034-5.307-.122-1.247-.4-3.31.354-4.177.356-.409,1.118.268,2.156.185,1.167-.094,2.624-.905,3.1-.605.9.566.728,1.876,1.576,2.428.9.588.928.2,1.234.265A1.426,1.426,0,0,1,730.838,187.908Z" transform="translate(0 252.801)"/><path class="cls-34" d="M724.329,190.888c1.126-.221,2.99.3,2.818.869-.264.878-2.024.034-2.47.086s-1.343,1.4-1.753,1.037C722.429,192.448,723.35,191.079,724.329,190.888Z" transform="translate(0 252.801)"/><path class="cls-8" d="M729.155,188.266c.208.974.829,4.423-.5,6.014a4.2,4.2,0,0,1-3.09,1.829,3.414,3.414,0,0,1-3.527-2.967,3.965,3.965,0,0,0,3.179,1.293,3.253,3.253,0,0,0,3.059-2.377c.165-1.128.186-3.013.351-3.585S729.051,187.776,729.155,188.266Z" transform="translate(0 252.801)"/><g class="cls-35"><path class="cls-3" d="M702.559,24.293c16.255,1.016,33.521,38.379,32.063,54.9s11.086,48.582,22.745,67.528c9.369,15.225-4.858,36.922-20.4,42.266-10.034,3.449-23.094-6.561-28.438,3.155s-1.576,20.433-30.239,16.546-44.175-18.555-49.64-41.08c-9.687-39.935,15.615-45.663,15.129-62.181s-20.4-37.893-15.06-54.411S679.24,22.836,702.559,24.293Z" transform="translate(0 252.801)"/><line class="cls-36" x1="687.078" y1="0.25" x2="941.078" y2="440.191"/><line class="cls-37" x1="683.614" y1="2.25" x2="684.614" y2="3.982"/><line class="cls-38" x1="686.598" y1="7.419" x2="935.621" y2="438.74"/><line class="cls-37" x1="936.614" y1="440.459" x2="937.614" y2="442.191"/><line class="cls-36" x1="680.149" y1="4.25" x2="934.149" y2="444.191"/><line class="cls-37" x1="676.685" y1="6.25" x2="677.685" y2="7.982"/><line class="cls-38" x1="679.67" y1="11.419" x2="928.693" y2="442.74"/><line class="cls-37" x1="929.685" y1="444.459" x2="930.685" y2="446.191"/><line class="cls-36" x1="673.221" y1="8.25" x2="927.221" y2="448.191"/><line class="cls-37" x1="669.757" y1="10.25" x2="670.757" y2="11.982"/><line class="cls-38" x1="672.741" y1="15.419" x2="921.765" y2="446.74"/><line class="cls-37" x1="922.757" y1="448.459" x2="923.757" y2="450.191"/><line class="cls-36" x1="666.293" y1="12.25" x2="920.293" y2="452.191"/><line class="cls-37" x1="662.829" y1="14.25" x2="663.829" y2="15.982"/><line class="cls-38" x1="665.813" y1="19.419" x2="914.837" y2="450.74"/><line class="cls-37" x1="915.829" y1="452.459" x2="916.829" y2="454.191"/><line class="cls-36" x1="659.365" y1="16.25" x2="913.365" y2="456.191"/><line class="cls-37" x1="655.901" y1="18.25" x2="656.901" y2="19.982"/><line class="cls-38" x1="658.885" y1="23.419" x2="907.909" y2="454.74"/><line class="cls-37" x1="908.901" y1="456.459" x2="909.901" y2="458.191"/><line class="cls-36" x1="652.437" y1="20.25" x2="906.437" y2="460.191"/><line class="cls-37" x1="648.973" y1="22.25" x2="649.973" y2="23.982"/><line class="cls-38" x1="651.957" y1="27.419" x2="900.98" y2="458.74"/><line class="cls-37" x1="901.973" y1="460.459" x2="902.973" y2="462.191"/><line class="cls-36" x1="645.508" y1="24.25" x2="899.508" y2="464.191"/><line class="cls-37" x1="642.044" y1="26.25" x2="643.044" y2="27.982"/><line class="cls-38" x1="645.029" y1="31.419" x2="894.052" y2="462.74"/><line class="cls-37" x1="895.044" y1="464.459" x2="896.044" y2="466.191"/><line class="cls-36" x1="638.58" y1="28.25" x2="892.58" y2="468.191"/><line class="cls-37" x1="635.116" y1="30.25" x2="636.116" y2="31.982"/><line class="cls-38" x1="638.1" y1="35.419" x2="887.124" y2="466.74"/><line class="cls-37" x1="888.116" y1="468.459" x2="889.116" y2="470.191"/><line class="cls-36" x1="631.652" y1="32.25" x2="885.652" y2="472.191"/><line class="cls-37" x1="628.188" y1="34.25" x2="629.188" y2="35.982"/><line class="cls-38" x1="631.172" y1="39.419" x2="880.196" y2="470.74"/><line class="cls-37" x1="881.188" y1="472.459" x2="882.188" y2="474.191"/><line class="cls-36" x1="624.724" y1="36.25" x2="878.724" y2="476.191"/><line class="cls-37" x1="621.26" y1="38.25" x2="622.26" y2="39.982"/><line class="cls-38" x1="624.244" y1="43.419" x2="873.268" y2="474.74"/><line class="cls-37" x1="874.26" y1="476.459" x2="875.26" y2="478.191"/><line class="cls-36" x1="617.796" y1="40.25" x2="871.796" y2="480.191"/><line class="cls-37" x1="614.332" y1="42.25" x2="615.332" y2="43.982"/><line class="cls-38" x1="617.316" y1="47.419" x2="866.339" y2="478.74"/><line class="cls-37" x1="867.332" y1="480.459" x2="868.332" y2="482.191"/><line class="cls-36" x1="610.867" y1="44.25" x2="864.867" y2="484.191"/><line class="cls-37" x1="607.403" y1="46.25" x2="608.403" y2="47.982"/><line class="cls-38" x1="610.388" y1="51.419" x2="859.411" y2="482.74"/><line class="cls-37" x1="860.403" y1="484.459" x2="861.403" y2="486.191"/><line class="cls-36" x1="603.939" y1="48.25" x2="857.939" y2="488.191"/><line class="cls-37" x1="600.475" y1="50.25" x2="601.475" y2="51.982"/><line class="cls-38" x1="603.459" y1="55.419" x2="852.483" y2="486.74"/><line class="cls-37" x1="853.475" y1="488.459" x2="854.475" y2="490.191"/><line class="cls-36" x1="597.011" y1="52.25" x2="851.011" y2="492.191"/><line class="cls-37" x1="593.547" y1="54.25" x2="594.547" y2="55.982"/><line class="cls-38" x1="596.531" y1="59.419" x2="845.555" y2="490.74"/><line class="cls-37" x1="846.547" y1="492.459" x2="847.547" y2="494.191"/><line class="cls-36" x1="590.083" y1="56.25" x2="844.083" y2="496.191"/><line class="cls-37" x1="586.619" y1="58.25" x2="587.619" y2="59.982"/><line class="cls-38" x1="589.603" y1="63.419" x2="838.627" y2="494.74"/><line class="cls-37" x1="839.619" y1="496.459" x2="840.619" y2="498.191"/><line class="cls-36" x1="583.155" y1="60.25" x2="837.155" y2="500.191"/><line class="cls-37" x1="579.691" y1="62.25" x2="580.691" y2="63.982"/><line class="cls-38" x1="582.675" y1="67.419" x2="831.698" y2="498.74"/><line class="cls-37" x1="832.691" y1="500.459" x2="833.691" y2="502.191"/><line class="cls-36" x1="576.226" y1="64.25" x2="830.226" y2="504.191"/><line class="cls-37" x1="572.762" y1="66.25" x2="573.762" y2="67.982"/><line class="cls-38" x1="575.747" y1="71.419" x2="824.77" y2="502.74"/><line class="cls-37" x1="825.762" y1="504.459" x2="826.762" y2="506.191"/><line class="cls-36" x1="569.298" y1="68.25" x2="823.298" y2="508.191"/><line class="cls-37" x1="565.834" y1="70.25" x2="566.834" y2="71.982"/><line class="cls-38" x1="568.818" y1="75.419" x2="817.842" y2="506.74"/><line class="cls-37" x1="818.834" y1="508.459" x2="819.834" y2="510.191"/><line class="cls-36" x1="562.37" y1="72.25" x2="816.37" y2="512.191"/><line class="cls-37" x1="558.906" y1="74.25" x2="559.906" y2="75.982"/><line class="cls-38" x1="561.89" y1="79.419" x2="810.914" y2="510.74"/><line class="cls-37" x1="811.906" y1="512.459" x2="812.906" y2="514.191"/><line class="cls-36" x1="555.442" y1="76.25" x2="809.442" y2="516.191"/><line class="cls-37" x1="551.978" y1="78.25" x2="552.978" y2="79.982"/><line class="cls-38" x1="554.962" y1="83.419" x2="803.986" y2="514.74"/><line class="cls-37" x1="804.978" y1="516.459" x2="805.978" y2="518.191"/><line class="cls-36" x1="548.514" y1="80.25" x2="802.514" y2="520.191"/><line class="cls-37" x1="545.049" y1="82.25" x2="546.049" y2="83.982"/><line class="cls-38" x1="548.034" y1="87.419" x2="797.057" y2="518.74"/><line class="cls-37" x1="798.049" y1="520.459" x2="799.049" y2="522.191"/><line class="cls-36" x1="541.585" y1="84.25" x2="795.585" y2="524.191"/><line class="cls-37" x1="538.121" y1="86.25" x2="539.121" y2="87.982"/><line class="cls-38" x1="541.106" y1="91.419" x2="790.129" y2="522.74"/><line class="cls-37" x1="791.121" y1="524.459" x2="792.121" y2="526.191"/><line class="cls-36" x1="534.657" y1="88.25" x2="788.657" y2="528.191"/><line class="cls-37" x1="531.193" y1="90.25" x2="532.193" y2="91.982"/><line class="cls-38" x1="534.177" y1="95.419" x2="783.201" y2="526.74"/><line class="cls-37" x1="784.193" y1="528.459" x2="785.193" y2="530.191"/><line class="cls-36" x1="527.729" y1="92.25" x2="781.729" y2="532.191"/><line class="cls-37" x1="524.265" y1="94.25" x2="525.265" y2="95.982"/><line class="cls-38" x1="527.249" y1="99.419" x2="776.273" y2="530.74"/><line class="cls-37" x1="777.265" y1="532.459" x2="778.265" y2="534.191"/><line class="cls-36" x1="520.801" y1="96.25" x2="774.801" y2="536.191"/><line class="cls-37" x1="517.337" y1="98.25" x2="518.337" y2="99.982"/><line class="cls-38" x1="520.321" y1="103.419" x2="769.345" y2="534.74"/><line class="cls-37" x1="770.337" y1="536.459" x2="771.337" y2="538.191"/><line class="cls-36" x1="513.873" y1="100.25" x2="767.873" y2="540.191"/><line class="cls-37" x1="510.409" y1="102.25" x2="511.409" y2="103.982"/><line class="cls-38" x1="513.393" y1="107.419" x2="762.416" y2="538.74"/><line class="cls-37" x1="763.409" y1="540.459" x2="764.409" y2="542.191"/><line class="cls-36" x1="506.944" y1="104.25" x2="760.944" y2="544.191"/><line class="cls-37" x1="503.48" y1="106.25" x2="504.48" y2="107.982"/><line class="cls-38" x1="506.465" y1="111.419" x2="755.488" y2="542.74"/><line class="cls-37" x1="756.48" y1="544.459" x2="757.48" y2="546.191"/><line class="cls-36" x1="500.016" y1="108.25" x2="754.016" y2="548.191"/><line class="cls-37" x1="496.552" y1="110.25" x2="497.552" y2="111.982"/><line class="cls-38" x1="499.536" y1="115.419" x2="748.56" y2="546.74"/><line class="cls-37" x1="749.552" y1="548.459" x2="750.552" y2="550.191"/><line class="cls-36" x1="493.088" y1="112.25" x2="747.088" y2="552.191"/><line class="cls-37" x1="489.624" y1="114.25" x2="490.624" y2="115.982"/><line class="cls-38" x1="492.608" y1="119.419" x2="741.632" y2="550.74"/><line class="cls-37" x1="742.624" y1="552.459" x2="743.624" y2="554.191"/><line class="cls-36" x1="486.16" y1="116.25" x2="740.16" y2="556.191"/><line class="cls-37" x1="482.696" y1="118.25" x2="483.696" y2="119.982"/><line class="cls-38" x1="485.68" y1="123.419" x2="734.704" y2="554.74"/><line class="cls-37" x1="735.696" y1="556.459" x2="736.696" y2="558.191"/><line class="cls-36" x1="479.232" y1="120.25" x2="733.232" y2="560.191"/><line class="cls-37" x1="475.767" y1="122.25" x2="476.767" y2="123.982"/><line class="cls-38" x1="478.752" y1="127.419" x2="727.775" y2="558.74"/><line class="cls-37" x1="728.768" y1="560.459" x2="729.768" y2="562.191"/><line class="cls-36" x1="472.303" y1="124.25" x2="726.303" y2="564.191"/><line class="cls-37" x1="468.839" y1="126.25" x2="469.839" y2="127.982"/><line class="cls-38" x1="471.824" y1="131.419" x2="720.847" y2="562.74"/><line class="cls-37" x1="721.839" y1="564.459" x2="722.839" y2="566.191"/><line class="cls-36" x1="465.375" y1="128.25" x2="719.375" y2="568.191"/><line class="cls-37" x1="461.911" y1="130.25" x2="462.911" y2="131.982"/><line class="cls-38" x1="464.895" y1="135.419" x2="713.919" y2="566.74"/><line class="cls-37" x1="714.911" y1="568.459" x2="715.911" y2="570.191"/><line class="cls-36" x1="458.447" y1="132.25" x2="712.447" y2="572.191"/><line class="cls-37" x1="454.983" y1="134.25" x2="455.983" y2="135.982"/><line class="cls-38" x1="457.967" y1="139.419" x2="706.991" y2="570.74"/><line class="cls-37" x1="707.983" y1="572.459" x2="708.983" y2="574.191"/><line class="cls-36" x1="451.519" y1="136.25" x2="705.519" y2="576.191"/><line class="cls-37" x1="448.055" y1="138.25" x2="449.055" y2="139.982"/><line class="cls-38" x1="451.039" y1="143.419" x2="700.063" y2="574.74"/><line class="cls-37" x1="701.055" y1="576.459" x2="702.055" y2="578.191"/><line class="cls-36" x1="444.591" y1="140.25" x2="698.591" y2="580.191"/><line class="cls-37" x1="441.126" y1="142.25" x2="442.126" y2="143.982"/><line class="cls-38" x1="444.111" y1="147.419" x2="693.134" y2="578.74"/><line class="cls-37" x1="694.126" y1="580.459" x2="695.126" y2="582.191"/><line class="cls-36" x1="437.662" y1="144.25" x2="691.662" y2="584.191"/><line class="cls-37" x1="434.198" y1="146.25" x2="435.198" y2="147.982"/><line class="cls-38" x1="437.183" y1="151.419" x2="686.206" y2="582.74"/><line class="cls-37" x1="687.198" y1="584.459" x2="688.198" y2="586.191"/><line class="cls-36" x1="430.734" y1="148.25" x2="684.734" y2="588.191"/><line class="cls-37" x1="427.27" y1="150.25" x2="428.27" y2="151.982"/><line class="cls-38" x1="430.254" y1="155.419" x2="679.278" y2="586.74"/><line class="cls-37" x1="680.27" y1="588.459" x2="681.27" y2="590.191"/><line class="cls-36" x1="423.806" y1="152.25" x2="677.806" y2="592.191"/><line class="cls-37" x1="420.342" y1="154.25" x2="421.342" y2="155.982"/><line class="cls-38" x1="423.326" y1="159.419" x2="672.35" y2="590.74"/><line class="cls-37" x1="673.342" y1="592.459" x2="674.342" y2="594.191"/><line class="cls-36" x1="416.878" y1="156.25" x2="670.878" y2="596.191"/><line class="cls-37" x1="413.414" y1="158.25" x2="414.414" y2="159.982"/><line class="cls-38" x1="416.398" y1="163.419" x2="665.422" y2="594.74"/><line class="cls-37" x1="666.414" y1="596.459" x2="667.414" y2="598.191"/><line class="cls-36" x1="409.95" y1="160.25" x2="663.95" y2="600.191"/><line class="cls-37" x1="406.485" y1="162.25" x2="407.485" y2="163.982"/><line class="cls-38" x1="409.47" y1="167.419" x2="658.493" y2="598.74"/><line class="cls-37" x1="659.485" y1="600.459" x2="660.485" y2="602.191"/><line class="cls-36" x1="403.021" y1="164.25" x2="657.021" y2="604.191"/><line class="cls-37" x1="399.557" y1="166.25" x2="400.557" y2="167.982"/><line class="cls-38" x1="402.542" y1="171.419" x2="651.565" y2="602.74"/><line class="cls-37" x1="652.557" y1="604.459" x2="653.557" y2="606.191"/><line class="cls-36" x1="396.093" y1="168.25" x2="650.093" y2="608.191"/><line class="cls-37" x1="392.629" y1="170.25" x2="393.629" y2="171.982"/><line class="cls-38" x1="395.613" y1="175.419" x2="644.637" y2="606.74"/><line class="cls-37" x1="645.629" y1="608.459" x2="646.629" y2="610.191"/><line class="cls-36" x1="389.165" y1="172.25" x2="643.165" y2="612.191"/><line class="cls-37" x1="385.701" y1="174.25" x2="386.701" y2="175.982"/><line class="cls-38" x1="388.685" y1="179.419" x2="637.709" y2="610.74"/><line class="cls-37" x1="638.701" y1="612.459" x2="639.701" y2="614.191"/><line class="cls-36" x1="382.237" y1="176.25" x2="636.237" y2="616.191"/><line class="cls-37" x1="378.773" y1="178.25" x2="379.773" y2="179.982"/><line class="cls-38" x1="381.757" y1="183.419" x2="630.781" y2="614.74"/><line class="cls-37" x1="631.773" y1="616.459" x2="632.773" y2="618.191"/><line class="cls-36" x1="375.309" y1="180.25" x2="629.309" y2="620.191"/><line class="cls-37" x1="371.844" y1="182.25" x2="372.844" y2="183.982"/><line class="cls-38" x1="374.829" y1="187.419" x2="623.852" y2="618.74"/><line class="cls-37" x1="624.844" y1="620.459" x2="625.844" y2="622.191"/><line class="cls-36" x1="368.38" y1="184.25" x2="622.38" y2="624.191"/><line class="cls-37" x1="364.916" y1="186.25" x2="365.916" y2="187.982"/><line class="cls-38" x1="367.9" y1="191.419" x2="616.924" y2="622.74"/><line class="cls-37" x1="617.916" y1="624.459" x2="618.916" y2="626.191"/><line class="cls-36" x1="361.452" y1="188.25" x2="615.452" y2="628.191"/><line class="cls-37" x1="357.988" y1="190.25" x2="358.988" y2="191.982"/><line class="cls-38" x1="360.972" y1="195.419" x2="609.996" y2="626.74"/><line class="cls-37" x1="610.988" y1="628.459" x2="611.988" y2="630.191"/><line class="cls-36" x1="354.524" y1="192.25" x2="608.524" y2="632.191"/><line class="cls-37" x1="351.06" y1="194.25" x2="352.06" y2="195.982"/><line class="cls-38" x1="354.044" y1="199.419" x2="603.068" y2="630.74"/><line class="cls-37" x1="604.06" y1="632.459" x2="605.06" y2="634.191"/><line class="cls-36" x1="347.596" y1="196.25" x2="601.596" y2="636.191"/><line class="cls-37" x1="344.132" y1="198.25" x2="345.132" y2="199.982"/><line class="cls-38" x1="347.116" y1="203.419" x2="596.14" y2="634.74"/><line class="cls-37" x1="597.132" y1="636.459" x2="598.132" y2="638.191"/><line class="cls-36" x1="340.668" y1="200.25" x2="594.668" y2="640.191"/><line class="cls-37" x1="337.203" y1="202.25" x2="338.203" y2="203.982"/><line class="cls-38" x1="340.188" y1="207.419" x2="589.211" y2="638.74"/><line class="cls-37" x1="590.203" y1="640.459" x2="591.203" y2="642.191"/><line class="cls-36" x1="333.739" y1="204.25" x2="587.739" y2="644.191"/><line class="cls-37" x1="330.275" y1="206.25" x2="331.275" y2="207.982"/><line class="cls-38" x1="333.259" y1="211.419" x2="582.283" y2="642.74"/><line class="cls-37" x1="583.275" y1="644.459" x2="584.275" y2="646.191"/><line class="cls-36" x1="326.811" y1="208.25" x2="580.811" y2="648.191"/><line class="cls-37" x1="323.347" y1="210.25" x2="324.347" y2="211.982"/><line class="cls-38" x1="326.331" y1="215.419" x2="575.355" y2="646.74"/><line class="cls-37" x1="576.347" y1="648.459" x2="577.347" y2="650.191"/><line class="cls-36" x1="319.883" y1="212.25" x2="573.883" y2="652.191"/><line class="cls-37" x1="316.419" y1="214.25" x2="317.419" y2="215.982"/><line class="cls-38" x1="319.403" y1="219.419" x2="568.427" y2="650.74"/><line class="cls-37" x1="569.419" y1="652.459" x2="570.419" y2="654.191"/><line class="cls-36" x1="312.955" y1="216.25" x2="566.955" y2="656.191"/><line class="cls-37" x1="309.491" y1="218.25" x2="310.491" y2="219.982"/><line class="cls-38" x1="312.475" y1="223.419" x2="561.498" y2="654.74"/><line class="cls-37" x1="562.491" y1="656.459" x2="563.491" y2="658.191"/><line class="cls-36" x1="306.027" y1="220.25" x2="560.027" y2="660.191"/><line class="cls-37" x1="302.562" y1="222.25" x2="303.562" y2="223.982"/><line class="cls-38" x1="305.547" y1="227.419" x2="554.57" y2="658.74"/><line class="cls-37" x1="555.562" y1="660.459" x2="556.562" y2="662.191"/><line class="cls-36" x1="299.098" y1="224.25" x2="553.098" y2="664.191"/><line class="cls-37" x1="295.634" y1="226.25" x2="296.634" y2="227.982"/><line class="cls-38" x1="298.618" y1="231.419" x2="547.642" y2="662.74"/><line class="cls-37" x1="548.634" y1="664.459" x2="549.634" y2="666.191"/><line class="cls-36" x1="292.17" y1="228.25" x2="546.17" y2="668.191"/><line class="cls-37" x1="288.706" y1="230.25" x2="289.706" y2="231.982"/><line class="cls-38" x1="291.69" y1="235.419" x2="540.714" y2="666.74"/><line class="cls-37" x1="541.706" y1="668.459" x2="542.706" y2="670.191"/><line class="cls-36" x1="285.242" y1="232.25" x2="539.242" y2="672.191"/><line class="cls-37" x1="281.778" y1="234.25" x2="282.778" y2="235.982"/><line class="cls-38" x1="284.762" y1="239.419" x2="533.786" y2="670.74"/><line class="cls-37" x1="534.778" y1="672.459" x2="535.778" y2="674.191"/><line class="cls-36" x1="278.314" y1="236.25" x2="532.314" y2="676.191"/><line class="cls-37" x1="274.85" y1="238.25" x2="275.85" y2="239.982"/><line class="cls-38" x1="277.834" y1="243.419" x2="526.857" y2="674.74"/><line class="cls-37" x1="527.85" y1="676.459" x2="528.85" y2="678.191"/><line class="cls-36" x1="271.385" y1="240.25" x2="525.385" y2="680.191"/><line class="cls-37" x1="267.921" y1="242.25" x2="268.921" y2="243.982"/><line class="cls-38" x1="270.906" y1="247.419" x2="519.929" y2="678.74"/><line class="cls-37" x1="520.921" y1="680.459" x2="521.921" y2="682.191"/><line class="cls-36" x1="264.457" y1="244.25" x2="518.457" y2="684.191"/><line class="cls-37" x1="260.993" y1="246.25" x2="261.993" y2="247.982"/><line class="cls-38" x1="263.977" y1="251.419" x2="513.001" y2="682.74"/><line class="cls-37" x1="513.993" y1="684.459" x2="514.993" y2="686.191"/><line class="cls-36" x1="257.529" y1="248.25" x2="511.529" y2="688.191"/><line class="cls-37" x1="254.065" y1="250.25" x2="255.065" y2="251.982"/><line class="cls-38" x1="257.049" y1="255.419" x2="506.073" y2="686.74"/><line class="cls-37" x1="507.065" y1="688.459" x2="508.065" y2="690.191"/><line class="cls-36" x1="250.601" y1="252.25" x2="504.601" y2="692.191"/><line class="cls-37" x1="247.137" y1="254.25" x2="248.137" y2="255.982"/><line class="cls-38" x1="250.121" y1="259.419" x2="499.145" y2="690.74"/><line class="cls-37" x1="500.137" y1="692.459" x2="501.137" y2="694.191"/></g><path class="cls-39" d="M378.284,271.058c-1.222.406-2.222,2.249-2.222,2.249a7,7,0,0,0,3.033.036,3.688,3.688,0,0,0,2-2.014A5.17,5.17,0,0,0,378.284,271.058Z" transform="translate(0 252.801)"/><path class="cls-40" d="M374.4,265.071c1.948,4,1.97,15.3,1.839,17.007" transform="translate(0 252.801)"/><path class="cls-13" d="M375.364,260.752c-1.4-.374-1.846,1.626-1.846,1.626s-1.626-1.494-2.285-.571.439,2.461.439,2.461-2.11.308-1.846,1.539,2.593.659,2.593.659-.744,2.35,1.1,2.462c1.451.088,1.715-2.066,1.715-2.066s1.292,1.928,2.329,1.275c1.187-.748-.351-2.682-.351-2.682s1.8.176,1.626-1.45-2.593-.835-2.593-.835S376.683,261.1,375.364,260.752Z" transform="translate(0 252.801)"/><path class="cls-39" d="M239.226,272.3c1.223.406,2.222,2.249,2.222,2.249a6.982,6.982,0,0,1-3.033.036,3.685,3.685,0,0,1-2-2.014A5.166,5.166,0,0,1,239.226,272.3Z" transform="translate(0 252.801)"/><path class="cls-40" d="M243.11,266.313c-1.947,4.006-1.97,15.3-1.839,17.007" transform="translate(0 252.801)"/><path class="cls-41" d="M240.659,262.709c1.148-.885,2.33.789,2.33.789s.925-2.006,1.889-1.409.543,2.441.543,2.441,2.066-.529,2.3.708-2.139,1.608-2.139,1.608,1.592,1.882-.066,2.695c-1.3.64-2.378-1.245-2.378-1.245s-.449,2.277-1.658,2.074c-1.383-.232-.709-2.61-.709-2.61s-1.595.857-2.06-.712,2.071-1.77,2.071-1.77S239.578,263.541,240.659,262.709Z" transform="translate(0 252.801)"/><path class="cls-39" d="M688.76,266.487c1.222.406,2.222,2.25,2.222,2.25a6.993,6.993,0,0,1-3.034.035,3.681,3.681,0,0,1-2-2.013A5.167,5.167,0,0,1,688.76,266.487Z" transform="translate(0 252.801)"/><path class="cls-40" d="M692.644,260.5c-1.948,4.006-1.97,15.3-1.839,17.007" transform="translate(0 252.801)"/><path class="cls-42" d="M690.192,256.9c1.149-.885,2.331.789,2.331.789s.924-2.006,1.888-1.408.544,2.44.544,2.44,2.065-.529,2.3.708-2.139,1.608-2.139,1.608,1.593,1.882-.065,2.695c-1.305.641-2.378-1.245-2.378-1.245s-.449,2.277-1.658,2.074c-1.384-.232-.709-2.61-.709-2.61s-1.6.857-2.06-.711,2.071-1.771,2.071-1.771S689.111,257.729,690.192,256.9Z" transform="translate(0 252.801)"/><path class="cls-39" d="M794.641,273.334c-1.223.407-2.223,2.25-2.223,2.25a7,7,0,0,0,3.034.036,3.685,3.685,0,0,0,2-2.014A5.174,5.174,0,0,0,794.641,273.334Z" transform="translate(0 252.801)"/><path class="cls-40" d="M790.757,267.348c1.947,4,1.97,15.3,1.838,17.006" transform="translate(0 252.801)"/><path class="cls-43" d="M791.721,263.029c-1.4-.374-1.846,1.626-1.846,1.626s-1.627-1.494-2.286-.571.44,2.461.44,2.461-2.11.308-1.846,1.539,2.593.659,2.593.659-.744,2.35,1.1,2.461c1.45.088,1.714-2.065,1.714-2.065s1.292,1.928,2.33,1.274c1.187-.747-.352-2.681-.352-2.681s1.8.176,1.626-1.451-2.593-.835-2.593-.835S793.04,263.38,791.721,263.029Z" transform="translate(0 252.801)"/><path class="cls-44" d="M166.2,116.159c0-4.638-4.638-11.927-4.638-16.565s4.638-9.277,9.277-9.277,9.276,4.638,9.276,9.277-4.638,11.927-4.638,16.565a16.558,16.558,0,0,1-9.277,0" transform="translate(0 252.801)"/><path class="cls-6" d="M166.2,116.159c0-4.638-4.638-11.927-4.638-16.565s4.638-9.277,9.277-9.277,9.276,4.638,9.276,9.277-4.638,11.927-4.638,16.565a16.558,16.558,0,0,1-9.277,0Z" transform="translate(0 252.801)"/><polygon class="cls-45" points="175.481 382.213 172.168 382.876 166.204 382.213 166.204 376.25 172.168 376.912 175.481 376.25 175.481 382.213"/><polygon class="cls-6" points="175.481 382.213 172.168 382.876 166.204 382.213 166.204 376.25 172.168 376.912 175.481 376.25 175.481 382.213"/><polygon class="cls-45" points="175.481 376.249 169.518 375.586 166.204 376.249 172.168 376.912 175.481 376.249"/><polygon class="cls-6" points="175.481 376.249 169.518 375.586 166.204 376.249 172.168 376.912 175.481 376.249"/><line class="cls-46" x1="172.168" y1="376.912" x2="172.168" y2="382.876"/><line class="cls-6" x1="172.168" y1="376.912" x2="172.168" y2="382.876"/><line class="cls-46" x1="166.204" y1="368.96" x2="166.204" y2="376.249"/><line class="cls-6" x1="166.204" y1="368.96" x2="166.204" y2="376.249"/><line class="cls-46" x1="175.481" y1="368.96" x2="175.481" y2="376.249"/><line class="cls-6" x1="175.481" y1="368.96" x2="175.481" y2="376.249"/><line class="cls-46" x1="169.518" y1="375.587" x2="169.518" y2="369.623"/><line class="cls-6" x1="169.518" y1="375.587" x2="169.518" y2="369.623"/><line class="cls-46" x1="172.168" y1="376.912" x2="172.168" y2="369.623"/><line class="cls-6" x1="172.168" y1="376.912" x2="172.168" y2="369.623"/><path class="cls-6" d="M175.711,114.156a17.811,17.811,0,0,1-9.735,0" transform="translate(0 252.801)"/><path class="cls-6" d="M168.457,114.672c-.38-4.6-2.253-10.911-2.253-15.079,0-4.638,2.319-9.277,4.639-9.277s4.638,4.639,4.638,9.277c0,4.168-1.873,10.477-2.253,15.079" transform="translate(0 252.801)"/><polygon class="cls-30" points="783.994 382.173 771.224 382.885 771.935 395.655 791.446 400.973 783.994 382.173"/><line class="cls-29" x1="771.224" y1="382.885" x2="791.446" y2="400.973"/><line class="cls-29" x1="783.994" y1="382.173" x2="771.935" y2="395.655"/><path class="cls-40" d="M833.605,197.728c-23.506-10.784-52.43-56.907-55.64-61.615" transform="translate(0 252.801)"/><path class="cls-40" d="M811.576,159.035a10.466,10.466,0,0,1-4.975-1.206c-2.559-1.593-1.566-4.263-4.56-6.08-2.243-1.362-5.456-1.045-6.218-1.244-1.717-.447-3.584-2.077-4.377-2.333" transform="translate(0 252.801)"/><path class="cls-47" d="M646.633,256.834s2,0,2,1.5-2,1.5-2,1.5" transform="translate(0 252.801)"/><path class="cls-47" d="M648.633,255.834c1,0,3,.833,3,2.5s-2,2.5-3,2.5" transform="translate(0 252.801)"/><path class="cls-47" d="M642.633,259.834s-2,0-2-1.5,2-1.5,2-1.5" transform="translate(0 252.801)"/><path class="cls-47" d="M640.633,260.834c-1,0-3-.833-3-2.5s2-2.5,3-2.5" transform="translate(0 252.801)"/><path class="cls-47" d="M393.753,259.956s2,0,2,1.5-2,1.5-2,1.5" transform="translate(0 252.801)"/><path class="cls-47" d="M389.753,262.956s-2,0-2-1.5,2-1.5,2-1.5" transform="translate(0 252.801)"/><path class="cls-47" d="M214.647,263.815s1.5,0,1.5,1.125-1.5,1.125-1.5,1.125" transform="translate(0 252.801)"/><path class="cls-47" d="M216.147,263.065c.75,0,2.25.625,2.25,1.875s-1.5,1.875-2.25,1.875" transform="translate(0 252.801)"/><path class="cls-47" d="M211.647,266.065s-1.5,0-1.5-1.125,1.5-1.125,1.5-1.125" transform="translate(0 252.801)"/><path class="cls-47" d="M210.147,266.815c-.75,0-2.25-.625-2.25-1.875s1.5-1.875,2.25-1.875" transform="translate(0 252.801)"/><path class="cls-47" d="M22.863,254.961s1.5,0,1.5,1.125-1.5,1.125-1.5,1.125" transform="translate(0 252.801)"/><path class="cls-47" d="M19.863,257.211s-1.5,0-1.5-1.125,1.5-1.125,1.5-1.125" transform="translate(0 252.801)"/><path class="cls-47" d="M94.044,255.208s1.5,0,1.5,1.125-1.5,1.125-1.5,1.125" transform="translate(0 252.801)"/><path class="cls-47" d="M91.044,257.458s-1.5,0-1.5-1.125,1.5-1.125,1.5-1.125" transform="translate(0 252.801)"/><path class="cls-47" d="M260.7,270.624c10.318,1.349,32.155,1.739,40.753.911" transform="translate(0 252.801)"/><path class="cls-47" d="M263.994,273.443c6.758,1.17,22.948,1.319,27.047.864" transform="translate(0 252.801)"/><path class="cls-47" d="M125.33,238.192c-10.254-1.769-32.057-3.049-40.682-2.572" transform="translate(0 252.801)"/><path class="cls-47" d="M122.149,235.241c-6.706-1.445-22.876-2.254-26.989-1.966" transform="translate(0 252.801)"/><path class="cls-7" d="M416.292,264.234c-.384,2.268,1.815,3.734,4.65,3.818a7.093,7.093,0,0,0,5.567-2.143,20.545,20.545,0,0,0-3.253-.58,28.493,28.493,0,0,1,3.3-1.009,6.527,6.527,0,0,0-4.809-2.66C419.38,261.571,416.529,262.836,416.292,264.234Z" transform="translate(0 252.801)"/><path class="cls-7" d="M157.6,229.841c3.207-.129,5.353.742,5.433,3,.073,2.035-2.606,3.5-5.689,3.5a8.336,8.336,0,0,1-5.255-2.133,19.1,19.1,0,0,1,3.16-.865,15.832,15.832,0,0,0-3.114-1A8.339,8.339,0,0,1,157.6,229.841Z" transform="translate(0 252.801)"/><path class="cls-7" d="M668.866,240.5c-1.291-.064-1.7,8.363-.68,8.227S670.226,240.57,668.866,240.5Z" transform="translate(0 252.801)"/><path class="cls-7" d="M675.257,240.434c-1.282-.16-1.768,7.479-.408,7.615S676.345,240.57,675.257,240.434Z" transform="translate(0 252.801)"/><path class="cls-6" d="M674.985,244.31c-.272,1.428-.2,21.282-.136,22.914" transform="translate(0 252.801)"/><path class="cls-6" d="M668.458,244.514c-.34,1.428-1.1,19.076-1.03,20.98" transform="translate(0 252.801)"/><path class="cls-39" d="M625.87,276.083a15.2,15.2,0,0,0,3.974.544,39.247,39.247,0,0,0,4.586-.373,25.279,25.279,0,0,1,1.059-5.456c1.439-4.266,4.84-11.7,8.867-13.668,0,0-5.282.129-10.161,10.748,0,0,2.148-9.725,4.617-13.054,0,0-4.163,2.043-7.19,12.638,0,0,1.514-8.892,2.975-13.03,0,0-4.247,7.076-5.51,13.333,0,0,.038-9.384-2.7-13.275,0,0,.792,8.883.39,12.442,0,0-2.456-9.342-5.9-11.409a64.4,64.4,0,0,1,4.009,12.052s-4.3-6.2-7.854-7.115c0,0,5.856,7.137,7.685,11A24.839,24.839,0,0,1,625.87,276.083Z" transform="translate(0 252.801)"/><path class="cls-39" d="M144.453,281.365a23.459,23.459,0,0,0,6.132.841,60.689,60.689,0,0,0,7.077-.576,39.074,39.074,0,0,1,1.634-8.42c2.222-6.584,7.469-18.055,13.683-21.092,0,0-8.15.2-15.679,16.586,0,0,3.315-15.008,7.124-20.146,0,0-6.424,3.153-11.095,19.5,0,0,2.336-13.723,4.591-20.108,0,0-6.555,10.919-8.5,20.575,0,0,.059-14.482-4.163-20.486,0,0,1.221,13.709.6,19.2,0,0-3.79-14.418-9.105-17.607,0,0,4.768,10.627,6.186,18.6,0,0-6.629-9.564-12.121-10.981,0,0,9.038,11.013,11.86,16.978A38.319,38.319,0,0,1,144.453,281.365Z" transform="translate(0 252.801)"/><path class="cls-23" d="M487.541,283.565c1.453-4.158-.733-8.153-5.136-6.455-4.725,1.823-1.665,6.375,1.472,7.83l-.644,1.282a18.008,18.008,0,0,0,3-.777,16.666,16.666,0,0,0,2.962-1.524Z" transform="translate(0 252.801)"/><path class="cls-48" d="M483.389,279.367a12.45,12.45,0,0,1,1.846,3.891" transform="translate(0 252.801)"/><path class="cls-48" d="M482.04,280.5a11.371,11.371,0,0,1,2.31,3.14" transform="translate(0 252.801)"/><path class="cls-48" d="M485.037,278.96a6.223,6.223,0,0,1,1.076,3.885" transform="translate(0 252.801)"/><path class="cls-47" d="M473.132,255.032c10.04,2.732,31.624,6.072,40.255,6.415" transform="translate(0 252.801)"/><path class="cls-47" d="M476.019,258.271c6.539,2.074,22.56,4.411,26.682,4.515" transform="translate(0 252.801)"/><path class="cls-47" d="M719.665,240.179c-10.254-1.768-32.057-3.048-40.682-2.571" transform="translate(0 252.801)"/><path class="cls-47" d="M716.484,237.228c-6.706-1.444-22.876-2.253-26.989-1.966" transform="translate(0 252.801)"/><rect class="cls-3" x="0.25" y="252.801" width="960" height="290"/></g></g></svg>