<svg xmlns="http://www.w3.org/2000/svg" width="540" height="140" viewBox="0 0 540 140"><defs><style>.cls-1{fill:#33d67b;fill-rule:evenodd;}.cls-2{fill:#aaa;}.cls-3{fill:#ddd;}.cls-4{fill:gray;}.cls-5{fill:none;}</style></defs><g id="Layer_2" data-name="Layer 2"><g id="Layer_2-2" data-name="Layer 2"><path class="cls-1" d="M40.25034,70.368a.51224.51224,0,0,0,.04361-.02818c.28027-.20361,27.53417-19.876,38.87792-19.876.26954,0,.53125.01123.78321.03418,5.83789.53027,12.624,12.78662,19.1875,24.63965,7.21972,13.0415,14.04394,25.36718,20.64941,25.36669.07617,0,.15332-.00146.22949-.00488,8.4502-.36914,14.44434-17.36084,20.791-35.3501,5.792-16.42089,11.78223-33.40087,19.27051-34.65625,6.81445-1.14257,13.46875,9.38086,19.90234,19.55957,6.3125,9.98829,12.84082,20.3169,20.00586,20.44727.05566.001.11035.00146.166.00146,9.39746-.00048,14.84179-14.603,20.60351-30.05761,5.30176-14.22119,10.78516-28.92627,19.29883-29.94727,8.90039-1.07373,14.65137,14.24561,20.2168,29.0542,5.35254,14.2417,10.88769,28.96875,19.61328,30.937,7.86133,1.77246,15.251-9.4414,22.39551-20.28759C308.1123,41.355,314.1377,32.209,320.13867,30.48047c6.04492-1.74121,14.75293,4.47656,23.17481,10.48974,6.13769,4.38184,11.93457,8.52,16.581,9.51856,5.21192,1.12061,12.92481-2.001,20.38379-5.02051,7.24609-2.9331,14.72949-5.97021,19.623-4.978,6.47754,1.31055,12.77929,10.62305,18.87207,19.62891,6.70117,9.90381,13.63086,20.145,21.21093,20.38037.08887.00293.17579.0044.26368.0044,8.29-.00147,14.20019-12.22461,20.45215-25.15723,5.77441-11.94629,11.74609-24.29932,19.33593-24.84814.08692-.00635.17285-.00928.25977-.00928,6.91846,0,15.29,19.58838,18.18652,26.9364a2.92448,2.92448,0,1,0,.9375-.36719c-2.98828-7.62543-11.75976-28.13495-19.45605-27.557-8.166.59034-14.26563,13.208-20.16407,25.41016-5.90136,12.20654-12,24.8042-19.78418,24.58838-7.06933-.21973-13.85351-10.24561-20.41308-19.94092-6.207-9.17285-12.624-18.65771-19.50391-20.04931-5.17285-1.04248-12.80957,2.043-20.19531,5.03173-7.31934,2.96241-14.89062,6.02637-19.79785,4.96973-4.44434-.95508-10.16016-5.03516-16.21094-9.355C335.2793,34.00488,326.374,27.646,319.86133,29.51953,313.50586,31.35059,307.377,40.65332,301.4502,49.6499c-6.959,10.56153-14.1504,21.4878-21.33985,19.86231-8.20019-1.84961-13.63867-16.31934-18.89746-30.313-5.96387-15.86865-11.58984-30.852-21.27246-29.6958-9.11914,1.09375-14.71,16.08935-20.11621,30.59082-5.39063,14.45947-10.96289,29.40722-19.67578,29.40722-.0459,0-.09278-.00048-.13965-.00146-6.626-.12061-13.00684-10.21729-19.17871-19.98145C173.919,38.5835,167.39062,28.25244,159.917,29.50684c-8.06933,1.353-13.88769,17.84716-20.04785,35.31005-5.956,16.88428-12.11523,34.34375-19.89062,34.6836-.0625.00244-.124.0039-.18653.0039-6.01562,0-13.00976-12.63183-19.77539-24.85058C93.02051,62.0166,86.41113,50.08008,80.04492,49.502,69.58587,48.54253,44.39816,66.17684,40.25,69.13932Z"/><path class="cls-2" d="M26.07027,9.00437a.9346.9346,0,0,1-.55762.88769v.00586A1.04446,1.04446,0,0,1,26.25,10.9116c0,.68945-.56934,1.127-1.43945,1.127-.86329,0-1.43848-.4375-1.43848-1.127a1.04461,1.04461,0,0,1,.74316-1.01368V9.89206a.92807.92807,0,0,1-.56347-.88769c0-.6416.49707-1.03711,1.25879-1.03711S26.07027,8.36277,26.07027,9.00437Zm-.31836,1.85937c0-.456-.37109-.73193-.9414-.73193-.56348,0-.94141.27588-.94141.73193,0,.44971.36621.72559.94141.72559C25.39254,11.58933,25.75191,11.31345,25.75191,10.86374Zm-1.70312-1.811c0,.38965.30664.62939.76172.62939.456,0,.76171-.23974.76171-.62939,0-.40186-.29394-.63574-.76171-.63574S24.04879,8.65085,24.04879,9.05271Z"/><path class="cls-2" d="M27.04976,10c0-1.32519.51563-2.03857,1.47559-2.03857C29.48433,7.9614,30,8.67478,30,10s-.51563,2.03858-1.47461,2.03858C27.56539,12.03855,27.04976,11.32517,27.04976,10Zm2.45313,0c0-1.04345-.3418-1.60693-.97754-1.60693S27.54781,8.95652,27.54781,10s.3418,1.60743.97754,1.60743S29.50289,11.04343,29.50289,10Z"/><path class="cls-2" d="M26.664,33.021v.31787A5.22893,5.22893,0,0,0,25.18256,36.979H24.829a5.49094,5.49094,0,0,1,1.46289-3.64014H23.80365V33.021Z"/><path class="cls-2" d="M27.09759,35c0-1.31933.50977-2.03857,1.45118-2.03857S29.99994,33.68064,29.99994,35s-.50977,2.03858-1.45117,2.03858S27.09759,36.31931,27.09759,35Zm2.54883,0c0-1.12109-.38379-1.73291-1.09765-1.73291-.708,0-1.09766.61182-1.09766,1.73291,0,1.12159.38965,1.73291,1.09766,1.73291C29.26263,36.73288,29.64642,36.12156,29.64642,35Z"/><path class="cls-2" d="M26.27533,58.7529l-.3125.14991a.84948.84948,0,0,0-.88867-.624c-.7793,0-1.17969.83985-1.17969,1.80518,0,.10205.00586.21.01758.33594h.02343a1.08825,1.08825,0,0,1,1.13282-.89942,1.26,1.26,0,1,1-.02344,2.51807c-.96484,0-1.47461-.80322-1.47461-2.03858,0-1.34326.66016-2.03857,1.5293-2.03857A1.13809,1.13809,0,0,1,26.27533,58.7529ZM24.08,60.77341a.9079.9079,0,0,0,.959.9419.93307.93307,0,1,0,.00586-1.86524A.9222.9222,0,0,0,24.08,60.77341Z"/><path class="cls-2" d="M27.09759,60c0-1.31933.50977-2.03857,1.45118-2.03857S29.99994,58.68064,29.99994,60s-.50977,2.03858-1.45117,2.03858S27.09759,61.31931,27.09759,60Zm2.54883,0c0-1.12109-.38281-1.73291-1.09765-1.73291-.707,0-1.09766.61182-1.09766,1.73291,0,1.12159.39062,1.73291,1.09766,1.73291C29.26361,61.73288,29.64642,61.12156,29.64642,60Z"/><path class="cls-2" d="M26.37,85.74949a1.21969,1.21969,0,0,1-1.31933,1.28906,1.28512,1.28512,0,0,1-1.373-.92285l.33008-.168a.93537.93537,0,0,0,1.03125.77344.90087.90087,0,0,0,.97754-.95313.87949.87949,0,0,0-.94727-.96,1.12442,1.12442,0,0,0-.9834.43164h-.2998l.21582-2.21875h2.2002v.31836H24.289l-.15527,1.46289-.00586.07813h.00586a1.2438,1.2438,0,0,1,.99511-.38965A1.18463,1.18463,0,0,1,26.37,85.74949Z"/><path class="cls-2" d="M27.09758,85.00046c0-1.31933.50977-2.03906,1.45117-2.03906s1.45118.71973,1.45118,2.03906-.50977,2.03809-1.45118,2.03809S27.09758,86.3198,27.09758,85.00046Zm2.54883,0c0-1.12109-.38379-1.7334-1.09766-1.7334-.708,0-1.09765.61231-1.09765,1.7334s.38965,1.73242,1.09765,1.73242C29.26262,86.73288,29.64641,86.12156,29.64641,85.00046Z"/><path class="cls-2" d="M26.37108,110.94089h-.70117V111.979h-.48047v-1.03809H23.2578v-.35351l1.80664-2.56641h.60547v2.50684h.70117Zm-2.60351-.41308h1.42187v-1.48145l.02344-.63574h-.01172a5.52051,5.52051,0,0,1-.39649.66015Z"/><path class="cls-2" d="M27.05077,109.99949c0-1.3252.51562-2.03809,1.47461-2.03809S30,108.67429,30,109.99949s-.51563,2.03906-1.47461,2.03906S27.05077,111.32468,27.05077,109.99949Zm2.45312,0c0-1.043-.34179-1.60645-.97851-1.60645-.63477,0-.97656.56348-.97656,1.60645,0,1.04394.34179,1.60742.97656,1.60742C29.1621,111.60691,29.50389,111.04343,29.50389,109.99949Z"/><path class="cls-3" d="M500,109.75H40.25V10a.25.25,0,0,0-.5,0V34.75H38a.25.25,0,0,0,0,.5h1.75v24.5H38a.25.25,0,0,0,0,.5h1.75v24.5H38a.25.25,0,0,0,0,.5h1.75V110a.25017.25017,0,0,0,.25.25H99.75V112a.25.25,0,0,0,.5,0v-1.75h59.5V112a.25.25,0,0,0,.5,0v-1.75h59.5V112a.25.25,0,0,0,.5,0v-1.75h59.5V112a.25.25,0,0,0,.5,0v-1.75h59.5V112a.25.25,0,0,0,.5,0v-1.75h59.5V112a.25.25,0,0,0,.5,0v-1.75h59.5V112a.25.25,0,0,0,.5,0v-1.75H500a.25.25,0,0,0,0-.5Z"/><path class="cls-2" d="M453.04,120.74949a1.21969,1.21969,0,0,1-1.31933,1.28906,1.28512,1.28512,0,0,1-1.37305-.92285l.33008-.168a.93536.93536,0,0,0,1.03125.77344.90087.90087,0,0,0,.97754-.95313.87949.87949,0,0,0-.94727-.96,1.12442,1.12442,0,0,0-.9834.43164h-.2998l.21582-2.21875H452.872v.31836h-1.91308l-.15528,1.46289-.00586.07813h.00586a1.24384,1.24384,0,0,1,.99512-.38965A1.18463,1.18463,0,0,1,453.04,120.74949Z"/><path class="cls-2" d="M454.46284,119.23874a.29689.29689,0,1,1-.59375,0,.29689.29689,0,0,1,.59375,0Zm0,2.49414a.29689.29689,0,1,1-.2998-.2998A.28144.28144,0,0,1,454.46284,121.73288Z"/><path class="cls-2" d="M455.32124,120.00046c0-1.31933.50977-2.03906,1.45117-2.03906s1.45118.71973,1.45118,2.03906-.50977,2.03809-1.45118,2.03809S455.32124,121.3198,455.32124,120.00046Zm2.54883,0c0-1.12109-.38379-1.7334-1.09766-1.7334-.708,0-1.09765.61231-1.09765,1.7334s.38965,1.73242,1.09765,1.73242C457.48628,121.73288,457.87007,121.12156,457.87007,120.00046Z"/><path class="cls-2" d="M458.98726,120.00046c0-1.31933.50976-2.03906,1.45117-2.03906s1.45117.71973,1.45117,2.03906-.50976,2.03809-1.45117,2.03809S458.98726,121.3198,458.98726,120.00046Zm2.54883,0c0-1.12109-.38379-1.7334-1.09766-1.7334-.708,0-1.09766.61231-1.09766,1.7334s.38965,1.73242,1.09766,1.73242C461.1523,121.73288,461.53609,121.12156,461.53609,120.00046Z"/><path class="cls-2" d="M467.48726,119.19089c0,.72559-.52149,1.169-1.33692,1.169h-.98925V121.979h-.3418v-3.958h1.33105C466.96577,118.021,467.48726,118.46531,467.48726,119.19089Zm-.35352,0c0-.5459-.34765-.85156-1.02539-.85156h-.94726v1.70312h.94726C466.78609,120.04245,467.13374,119.73679,467.13374,119.19089Z"/><path class="cls-2" d="M472.08882,121.979h-.33008v-2.8418l.03613-.792-1.415,3.63379h-.30567l-1.40918-3.63379h-.00586l.03516.792v2.8418h-.32324v-3.958h.51562l1.1211,2.86133.21582.69531h.00586l.22265-.68945,1.11524-2.86719h.52148Z"/><path class="cls-4" d="M494.39455,131.499v.45019h-2.74609v-3.958h.47851V131.499Z"/><path class="cls-4" d="M497.84377,131.57126l-.0293.37793a1.0769,1.0769,0,0,1-.35937.05957.47019.47019,0,0,1-.53907-.44336,1.18544,1.18544,0,0,1-.96679.44336c-.5625,0-1.01953-.26367-1.01953-.80371,0-.44922.39648-.80371,1.16992-.93554l.79687-.13184v-.168a.62919.62919,0,0,0-.70117-.65918.87769.87769,0,0,0-.85742.56934l-.35352-.25782a1.22032,1.22032,0,0,1,1.21094-.73144c.6836,0,1.18164.32422,1.18164,1.01953v1.47559c0,.14355.06055.21582.22852.21582A1.047,1.047,0,0,0,497.84377,131.57126Zm-.94727-.62988v-.41406l-.67187.126c-.52735.09668-.79688.27051-.79688.55176,0,.252.20313.38379.54493.38379C496.45314,131.58884,496.8965,131.33689,496.8965,130.94138Z"/><path class="cls-4" d="M500.25783,131.73923a1.11768,1.11768,0,0,1-.77344.26953.75294.75294,0,0,1-.834-.80371v-1.84082h-.59961v-.41406h.59961v-.71875l.48047-.13281v.85156h1.10937v.41406h-1.10937v1.75684a.40683.40683,0,0,0,.44922.43847.68392.68392,0,0,0,.50976-.22265Z"/><path class="cls-4" d="M503.48439,130.62986h-2.25976a.94857.94857,0,0,0,.97656.959.81138.81138,0,0,0,.8457-.44336l.40235.21a1.28539,1.28539,0,0,1-1.248.65332,1.38968,1.38968,0,0,1-1.45117-1.55859,1.36423,1.36423,0,0,1,1.416-1.55957,1.29855,1.29855,0,0,1,1.3418,1.40332A2.41914,2.41914,0,0,1,503.48439,130.62986Zm-2.2539-.42578h1.8164c-.0664-.55176-.37109-.89356-.88086-.89356A.903.903,0,0,0,501.23049,130.20408Z"/><path class="cls-4" d="M504.15236,131.331l.39063-.26953a.93519.93519,0,0,0,.94726.52734c.49219,0,.72461-.19726.72461-.44336,0-.22168-.18554-.35351-.78515-.46191-.85157-.15625-1.16407-.38965-1.16407-.89356,0-.48535.45118-.89941,1.18164-.89941a1.08385,1.08385,0,0,1,1.1875.71973l-.4082.24023a.72887.72887,0,0,0-.7793-.54c-.40039,0-.70117.21582-.70117.4375,0,.25781.19727.38965.81055.49219.83789.13769,1.13867.38965,1.13867.88086,0,.52246-.48633.88769-1.2539.88769A1.36856,1.36856,0,0,1,504.15236,131.331Z"/><path class="cls-4" d="M509.418,131.73923a1.11768,1.11768,0,0,1-.77344.26953.7538.7538,0,0,1-.834-.80371v-1.84082H507.211v-.41406h.59961v-.71875l.48046-.13281v.85156h1.10938v.41406H508.291v1.75684a.40683.40683,0,0,0,.44922.43847.67768.67768,0,0,0,.50977-.22265Z"/><path class="cls-2" d="M91.66011,118.021v3.958h-.3418v-2.97461c0-.16211.00586-.3418.01172-.52735a2.05875,2.05875,0,0,1-1.03711.62305l-.08984-.30566a2.30424,2.30424,0,0,0,1.1582-.77344Z"/><path class="cls-2" d="M93.916,118.021v3.958h-.3418v-2.97461c0-.16211.00586-.3418.01172-.52735a2.05875,2.05875,0,0,1-1.03711.62305l-.08984-.30566a2.30424,2.30424,0,0,0,1.1582-.77344Z"/><path class="cls-2" d="M95.58394,119.23777a.2969.2969,0,1,1-.59375,0,.2969.2969,0,0,1,.59375,0Zm0,2.49511a.29689.29689,0,1,1-.29883-.2998A.28118.28118,0,0,1,95.58394,121.73288Z"/><path class="cls-2" d="M96.44331,119.99949c0-1.31934.50977-2.03809,1.45117-2.03809s1.45118.71875,1.45118,2.03809-.50977,2.03906-1.45118,2.03906S96.44331,121.31882,96.44331,119.99949Zm2.54883,0c0-1.1211-.38477-1.73243-1.09766-1.73243-.709,0-1.09765.61133-1.09765,1.73243,0,1.12207.38867,1.73339,1.09765,1.73339C98.60737,121.73288,98.99214,121.12156,98.99214,119.99949Z"/><path class="cls-2" d="M100.10933,119.99949c0-1.31934.50976-2.03809,1.45117-2.03809s1.45117.71875,1.45117,2.03809-.50976,2.03906-1.45117,2.03906S100.10933,121.31882,100.10933,119.99949Zm2.54883,0c0-1.1211-.38477-1.73243-1.09766-1.73243-.709,0-1.09766.61133-1.09766,1.73243,0,1.12207.38868,1.73339,1.09766,1.73339C102.27339,121.73288,102.65816,121.12156,102.65816,119.99949Z"/><path class="cls-2" d="M108.60933,119.18992c0,.72558-.52149,1.16992-1.33789,1.16992h-.98828V121.979h-.3418v-3.958h1.33008C108.08784,118.021,108.60933,118.46433,108.60933,119.18992Zm-.35352,0c0-.54493-.34765-.85157-1.02539-.85157h-.94726v1.70313h.94726C107.90816,120.04148,108.25581,119.73581,108.25581,119.18992Z"/><path class="cls-2" d="M113.21089,121.979h-.33008V119.1362l.03516-.791-1.41406,3.63379h-.30664l-1.40821-3.63379h-.00586l.03516.791V121.979h-.32422v-3.958h.51563l1.12109,2.86035.2168.69531h.00586l.22265-.68945,1.11524-2.86621h.52148Z"/><path class="cls-2" d="M151.40034,121.69675c1.52344-1.16894,2.17774-1.76855,2.17774-2.51855a.8583.8583,0,0,0-.94141-.89942,1.01445,1.01445,0,0,0-1.03125,1.05567l-.30078-.17383a1.26189,1.26189,0,0,1,1.34375-1.19922,1.17063,1.17063,0,0,1,1.2832,1.2168c0,.78613-.61718,1.457-2.0332,2.48828v.00683c.10156-.00683.3418-.01269.4375-.01269h1.7168v.31836h-2.65235Z"/><path class="cls-2" d="M155.46284,119.23777a.28448.28448,0,0,1-.30078.30078.28148.28148,0,0,1-.293-.30078.27577.27577,0,0,1,.293-.293A.27891.27891,0,0,1,155.46284,119.23777Zm0,2.49511a.28275.28275,0,0,1-.30078.294.2969.2969,0,0,1,0-.59375A.28422.28422,0,0,1,155.46284,121.73288Z"/><path class="cls-2" d="M156.32027,119.99949c0-1.31934.50976-2.03809,1.45117-2.03809s1.45117.71875,1.45117,2.03809-.50977,2.03906-1.45117,2.03906S156.32027,121.31882,156.32027,119.99949Zm2.54882,0c0-1.1211-.38281-1.73243-1.09765-1.73243-.707,0-1.09766.61133-1.09766,1.73243,0,1.12207.39063,1.73339,1.09766,1.73339C158.48628,121.73288,158.86909,121.12156,158.86909,119.99949Z"/><path class="cls-2" d="M159.98628,119.99949c0-1.31934.50977-2.03809,1.45117-2.03809s1.45117.71875,1.45117,2.03809-.50976,2.03906-1.45117,2.03906S159.98628,121.31882,159.98628,119.99949Zm2.54883,0c0-1.1211-.38281-1.73243-1.09766-1.73243-.707,0-1.09765.61133-1.09765,1.73243,0,1.12207.39062,1.73339,1.09765,1.73339C162.1523,121.73288,162.53511,121.12156,162.53511,119.99949Z"/><path class="cls-2" d="M167.82222,120.77292h-1.8711l-.4746,1.20606h-.35938l1.57227-3.958h.40625l1.5664,3.958h-.35937Zm-.12695-.31738-.64649-1.64941-.15625-.45508h-.01172l-.14453.4375-.66016,1.667Z"/><path class="cls-2" d="M173.13667,121.979h-.33008V119.1362l.03711-.791-1.416,3.63379H171.123l-1.41016-3.63379H169.707l.03516.791V121.979h-.32227v-3.958h.51563l1.12109,2.86035.21485.69531h.00586l.22265-.68945,1.11524-2.86621h.52148Z"/><path class="cls-2" d="M211.04,120.74949a1.21969,1.21969,0,0,1-1.31933,1.28906,1.28512,1.28512,0,0,1-1.37305-.92285l.33008-.168a.93536.93536,0,0,0,1.03125.77344.90087.90087,0,0,0,.97754-.95313.87949.87949,0,0,0-.94727-.96,1.12442,1.12442,0,0,0-.9834.43164h-.2998l.21582-2.21875H210.872v.31836h-1.91308l-.15528,1.46289-.00586.07813h.00586a1.24384,1.24384,0,0,1,.99512-.38965A1.18463,1.18463,0,0,1,211.04,120.74949Z"/><path class="cls-2" d="M212.46284,119.23874a.29689.29689,0,1,1-.59375,0,.29689.29689,0,0,1,.59375,0Zm0,2.49414a.29689.29689,0,1,1-.2998-.2998A.28144.28144,0,0,1,212.46284,121.73288Z"/><path class="cls-2" d="M213.32124,120.00046c0-1.31933.50977-2.03906,1.45117-2.03906s1.45118.71973,1.45118,2.03906-.50977,2.03809-1.45118,2.03809S213.32124,121.3198,213.32124,120.00046Zm2.54883,0c0-1.12109-.38379-1.7334-1.09766-1.7334-.708,0-1.09765.61231-1.09765,1.7334s.38965,1.73242,1.09765,1.73242C215.48628,121.73288,215.87007,121.12156,215.87007,120.00046Z"/><path class="cls-2" d="M216.98726,120.00046c0-1.31933.50976-2.03906,1.45117-2.03906s1.45117.71973,1.45117,2.03906-.50976,2.03809-1.45117,2.03809S216.98726,121.3198,216.98726,120.00046Zm2.54883,0c0-1.12109-.38379-1.7334-1.09766-1.7334-.708,0-1.09766.61231-1.09766,1.7334s.38965,1.73242,1.09766,1.73242C219.1523,121.73288,219.53609,121.12156,219.53609,120.00046Z"/><path class="cls-2" d="M224.82222,120.7739h-1.8711l-.47363,1.20508h-.35937l1.57129-3.958h.40722l1.56543,3.958h-.35937Zm-.126-.31738-.64746-1.64942-.15527-.45605h-.0127l-.14355.4375-.66016,1.668Z"/><path class="cls-2" d="M230.13765,121.979h-.33008v-2.8418l.03613-.792-1.415,3.63379H228.123l-1.40918-3.63379H226.708l.03516.792v2.8418h-.32325v-3.958h.51563l1.12109,2.86133.21582.69531h.00586l.22266-.68945,1.11523-2.86719h.52149Z"/><path class="cls-2" d="M271.669,118.98093a.9264.9264,0,0,1-.666.91113v.00586a1.06006,1.06006,0,0,1,.83984,1.03223c0,.6709-.56347,1.1084-1.40918,1.1084-.83984,0-1.40918-.4375-1.40918-1.1084a1.05942,1.05942,0,0,1,.84571-1.03223v-.00586a.91659.91659,0,0,1-.666-.91113c0-.624.47949-1.01367,1.22949-1.01367C271.18262,117.96726,271.669,118.35691,271.669,118.98093Zm-.17969,1.91895c0-.50391-.41992-.834-1.05567-.834-.624,0-1.05566.33008-1.05566.834,0,.498.41992.82129,1.05566.82129C271.0752,121.72117,271.48926,121.39792,271.48926,120.89988Zm-1.93164-1.88868c0,.44336.34863.73145.876.73145.53321,0,.88184-.28809.88184-.73145,0-.45019-.3418-.72558-.88184-.72558C269.89941,118.28562,269.55762,118.561,269.55762,119.0112Z"/><path class="cls-2" d="M273.30176,119.23874a.29689.29689,0,1,1-.59375,0,.29689.29689,0,0,1,.59375,0Zm0,2.49414a.29689.29689,0,1,1-.29981-.2998A.28145.28145,0,0,1,273.30176,121.73288Z"/><path class="cls-2" d="M274.16016,120.00046c0-1.31933.50976-2.03906,1.45117-2.03906s1.45117.71973,1.45117,2.03906-.50977,2.03809-1.45117,2.03809S274.16016,121.3198,274.16016,120.00046Zm2.54882,0c0-1.12109-.38378-1.7334-1.09765-1.7334-.708,0-1.09766.61231-1.09766,1.7334s.38965,1.73242,1.09766,1.73242C276.3252,121.73288,276.709,121.12156,276.709,120.00046Z"/><path class="cls-2" d="M277.82617,120.00046c0-1.31933.50977-2.03906,1.45117-2.03906s1.45118.71973,1.45118,2.03906-.50977,2.03809-1.45118,2.03809S277.82617,121.3198,277.82617,120.00046Zm2.54883,0c0-1.12109-.38379-1.7334-1.09766-1.7334-.708,0-1.09765.61231-1.09765,1.7334s.38965,1.73242,1.09765,1.73242C279.99121,121.73288,280.375,121.12156,280.375,120.00046Z"/><path class="cls-2" d="M285.66016,120.7739h-1.8711l-.47363,1.20508h-.35938l1.57129-3.958h.40723L286.5,121.979h-.35938Zm-.126-.31738-.64746-1.64942-.15527-.45605h-.0127l-.14355.4375-.66016,1.668Z"/><path class="cls-2" d="M290.97559,121.979h-.33008v-2.8418l.03613-.792-1.415,3.63379h-.30566l-1.40918-3.63379h-.00586l.03515.792v2.8418h-.32324v-3.958h.51563l1.12109,2.86133.21582.69531h.00586l.22266-.68945,1.11523-2.86719h.52149Z"/><path class="cls-2" d="M329.92871,118.021v3.958h-.3418v-2.97461c0-.16113.00586-.3418.01172-.52735a2.0673,2.0673,0,0,1-1.03711.624l-.08984-.30567a2.29992,2.29992,0,0,0,1.1582-.77441Z"/><path class="cls-2" d="M332.18457,118.021v3.958h-.3418v-2.97461c0-.16113.00586-.3418.01172-.52735a2.0673,2.0673,0,0,1-1.03711.624l-.08984-.30567a2.29992,2.29992,0,0,0,1.1582-.77441Z"/><path class="cls-2" d="M333.85254,119.23874a.29689.29689,0,1,1-.59375,0,.29689.29689,0,0,1,.59375,0Zm0,2.49414a.29689.29689,0,1,1-.29883-.2998A.28066.28066,0,0,1,333.85254,121.73288Z"/><path class="cls-2" d="M334.71191,120.00046c0-1.31933.50977-2.03906,1.45118-2.03906s1.45117.71973,1.45117,2.03906-.50977,2.03809-1.45117,2.03809S334.71191,121.3198,334.71191,120.00046Zm2.54883,0c0-1.12109-.38476-1.7334-1.09765-1.7334-.709,0-1.09766.61231-1.09766,1.7334s.38867,1.73242,1.09766,1.73242C336.876,121.73288,337.26074,121.12156,337.26074,120.00046Z"/><path class="cls-2" d="M338.37793,120.00046c0-1.31933.50977-2.03906,1.45117-2.03906s1.45117.71973,1.45117,2.03906-.50976,2.03809-1.45117,2.03809S338.37793,121.3198,338.37793,120.00046Zm2.54883,0c0-1.12109-.38477-1.7334-1.09766-1.7334-.709,0-1.09765.61231-1.09765,1.7334s.38867,1.73242,1.09765,1.73242C340.542,121.73288,340.92676,121.12156,340.92676,120.00046Z"/><path class="cls-2" d="M346.21191,120.7739h-1.87109l-.47461,1.20508h-.35937l1.57226-3.958h.40625l1.56641,3.958h-.35938Zm-.12695-.31738-.64648-1.64942-.15625-.45605h-.01172l-.14453.4375-.66016,1.668Z"/><path class="cls-2" d="M351.52832,121.979h-.33008v-2.8418l.03516-.792-1.41406,3.63379h-.30664l-1.40821-3.63379h-.00586l.03516.792v2.8418h-.32422v-3.958h.51563l1.12109,2.86133.2168.69531h.00586l.22265-.68945,1.11524-2.86719h.52148Z"/><path class="cls-2" d="M389.2041,121.69773c1.52344-1.16992,2.17774-1.76953,2.17774-2.51856a.859.859,0,0,0-.94141-.90039,1.01445,1.01445,0,0,0-1.03125,1.05567l-.30078-.17383a1.26189,1.26189,0,0,1,1.34375-1.19922,1.17086,1.17086,0,0,1,1.2832,1.21777c0,.78516-.61719,1.457-2.0332,2.48828v.00586c.10156-.00586.3418-.01171.4375-.01171h1.7168v.31738H389.2041Z"/><path class="cls-2" d="M393.2666,119.23874a.28422.28422,0,0,1-.30078.29981.28121.28121,0,0,1-.293-.29981.27654.27654,0,0,1,.293-.29394A.27966.27966,0,0,1,393.2666,119.23874Zm0,2.49414a.28223.28223,0,0,1-.30078.294.2969.2969,0,0,1,0-.59375A.28422.28422,0,0,1,393.2666,121.73288Z"/><path class="cls-2" d="M394.124,120.00046c0-1.31933.50977-2.03906,1.45118-2.03906s1.45117.71973,1.45117,2.03906-.50977,2.03809-1.45117,2.03809S394.124,121.3198,394.124,120.00046Zm2.54883,0c0-1.12109-.38281-1.7334-1.09765-1.7334-.707,0-1.09766.61231-1.09766,1.7334s.39062,1.73242,1.09766,1.73242C396.29,121.73288,396.67285,121.12156,396.67285,120.00046Z"/><path class="cls-2" d="M397.79,120.00046c0-1.31933.50976-2.03906,1.45117-2.03906s1.45117.71973,1.45117,2.03906-.50976,2.03809-1.45117,2.03809S397.79,121.3198,397.79,120.00046Zm2.54883,0c0-1.12109-.38282-1.7334-1.09766-1.7334-.707,0-1.09766.61231-1.09766,1.7334s.39063,1.73242,1.09766,1.73242C399.95605,121.73288,400.33887,121.12156,400.33887,120.00046Z"/><path class="cls-2" d="M406.29,119.19089c0,.72559-.52149,1.169-1.33594,1.169h-.99023V121.979h-.3418v-3.958h1.332C405.76855,118.021,406.29,118.46531,406.29,119.19089Zm-.35352,0c0-.5459-.34765-.85156-1.02539-.85156h-.94726v1.70312h.94726C405.58887,120.04245,405.93652,119.73679,405.93652,119.19089Z"/><path class="cls-2" d="M410.8916,121.979h-.33008v-2.8418l.03711-.792-1.416,3.63379h-.30469l-1.41016-3.63379h-.00586l.03516.792v2.8418h-.32227v-3.958h.51563l1.12109,2.86133.21485.69531h.00586l.22265-.68945,1.11524-2.86719h.52148Z"/><path class="cls-2" d="M493.1064,119.00437a.93412.93412,0,0,1-.55762.88769v.00586a1.04489,1.04489,0,0,1,.73731,1.01368c0,.68945-.56934,1.12695-1.43946,1.12695-.86328,0-1.43847-.4375-1.43847-1.12695a1.045,1.045,0,0,1,.74316-1.01368v-.00586a.92759.92759,0,0,1-.56348-.88769c0-.6416.49707-1.03711,1.25879-1.03711S493.1064,118.36277,493.1064,119.00437Zm-.31836,1.85937c0-.45605-.37109-.73144-.94141-.73144-.56347,0-.9414.27539-.9414.73144,0,.4502.36621.72559.9414.72559C492.42866,121.58933,492.788,121.31394,492.788,120.86374Zm-1.70313-1.81054c0,.38965.30664.6289.76172.6289.45606,0,.76172-.23925.76172-.6289,0-.40235-.29394-.63575-.76172-.63575S491.08491,118.65085,491.08491,119.0532Z"/><path class="cls-2" d="M494.97359,119.311a.38965.38965,0,1,1-.38965-.38965A.36854.36854,0,0,1,494.97359,119.311Zm0,2.33887a.38965.38965,0,1,1-.38965-.39063A.36777.36777,0,0,1,494.97359,121.64988Z"/><path class="cls-2" d="M495.86128,120.00046c0-1.32519.51563-2.03906,1.47559-2.03906.959,0,1.47461.71387,1.47461,2.03906s-.51563,2.03809-1.47461,2.03809C496.37691,122.03855,495.86128,121.32566,495.86128,120.00046Zm2.45313,0c0-1.04394-.3418-1.60742-.97754-1.60742s-.97754.56348-.97754,1.60742c0,1.043.34179,1.60742.97754,1.60742S498.31441,121.04343,498.31441,120.00046Z"/><path class="cls-2" d="M499.5937,120.00046c0-1.32519.51563-2.03906,1.47559-2.03906.959,0,1.47461.71387,1.47461,2.03906s-.51563,2.03809-1.47461,2.03809C500.10933,122.03855,499.5937,121.32566,499.5937,120.00046Zm2.45313,0c0-1.04394-.3418-1.60742-.97754-1.60742s-.97754.56348-.97754,1.60742c0,1.043.3418,1.60742.97754,1.60742S502.04683,121.04343,502.04683,120.00046Z"/><path class="cls-2" d="M508.35737,119.227a1.19189,1.19189,0,0,1-1.33105,1.20508h-.918V121.979h-.47949v-3.958h1.39746A1.19209,1.19209,0,0,1,508.35737,119.227Zm-.5039,0c0-.49218-.27539-.75585-.89942-.75585h-.8457v1.51074h.8457C507.57808,119.98191,507.85347,119.71824,507.85347,119.227Z"/><path class="cls-2" d="M513.11519,121.979h-.45606V119.4907l.05371-1.044H512.707L511.4062,121.979h-.4082l-1.30078-3.53223h-.00586l.05371,1.044V121.979H509.289v-3.958h.7373l.87012,2.40527.2998.98926h.01172l.30566-.9834.86426-2.41113h.73731Z"/><rect class="cls-5" width="540" height="140"/></g></g></svg>