<svg xmlns="http://www.w3.org/2000/svg" width="50" height="50" viewBox="0 0 50 50"><defs><style>.cls-1{fill:none;}.cls-2{fill:#33d67b;fill-rule:evenodd;}</style></defs><g id="Layer_2" data-name="Layer 2"><g id="Layer_1-2" data-name="Layer 1"><rect class="cls-1" width="50" height="50"/><path id="Shape" class="cls-2" d="M25,9.00567c-4.34538,0-4.89072.019-6.5974.09666a11.742,11.742,0,0,0-3.88338.74335,8.18464,8.18464,0,0,0-4.68105,4.679,11.68758,11.68758,0,0,0-.74334,3.88338c-.07633,1.70668-.09633,2.25236-.09633,6.59773s.01933,4.88905.09667,6.59574a11.75861,11.75861,0,0,0,.74334,3.88337,8.18777,8.18777,0,0,0,4.67871,4.681,11.75159,11.75159,0,0,0,3.88405.74334C20.108,40.987,20.653,41.006,24.998,41.006c4.34571,0,4.88938-.019,6.59607-.09667a11.75854,11.75854,0,0,0,3.88537-.74334,8.19794,8.19794,0,0,0,4.67905-4.68071,11.85952,11.85952,0,0,0,.74334-3.88338c.07667-1.70668.09667-2.25069.09667-6.59607s-.02-4.89071-.09667-6.5974a11.85391,11.85391,0,0,0-.74334-3.88337,8.186,8.186,0,0,0-4.68005-4.67938,11.77856,11.77856,0,0,0-3.88671-.74335c-1.70668-.07766-2.25-.09666-6.59673-.09666ZM23.56465,11.889c.426-.00067.90134,0,1.43535,0,4.272,0,4.77838.01533,6.4654.092a8.85826,8.85826,0,0,1,2.9707.551,5.30169,5.30169,0,0,1,3.036,3.0367,8.8406,8.8406,0,0,1,.551,2.97c.07666,1.68668.09333,2.19335.09333,6.4634s-.01667,4.77671-.09333,6.4634a8.84955,8.84955,0,0,1-.551,2.97,5.30591,5.30591,0,0,1-3.036,3.0347,8.82631,8.82631,0,0,1-2.9707.55134C29.77872,38.0983,29.272,38.115,25,38.115c-4.27238,0-4.77872-.01667-6.4654-.09333a8.87555,8.87555,0,0,1-2.971-.55167,5.301,5.301,0,0,1-3.03737-3.03571,8.84073,8.84073,0,0,1-.551-2.97c-.07667-1.68668-.092-2.19335-.092-6.46606s.01533-4.77672.092-6.4634a8.85833,8.85833,0,0,1,.551-2.9707,5.30253,5.30253,0,0,1,3.03737-3.03737,8.83893,8.83893,0,0,1,2.971-.55167c1.476-.06667,2.048-.08667,5.03-.09Zm9.97611,2.6567a1.91969,1.91969,0,1,0,0-.00067ZM25,16.78908a8.21559,8.21559,0,1,1-.00033,0Zm0,2.88337a5.33339,5.33339,0,1,1-5.33339,5.33338A5.33341,5.33341,0,0,1,25,19.67245Z"/></g></g></svg>