<svg xmlns="http://www.w3.org/2000/svg" width="480" height="140" viewBox="0 0 480 140"><defs><style>.cls-1{fill:#33d67b;}.cls-2{fill:#ddd;}.cls-3{fill:#aaa;}.cls-4{fill:gray;}.cls-5{fill:none;}</style></defs><g id="Layer_2" data-name="Layer 2"><g id="Layer_1-2" data-name="Layer 1"><path class="cls-1" d="M109.44627,100.50525c-5.80811.001-11.75293-12.33789-18.04346-25.39258-5.707-11.84278-11.6084-24.08985-16.6416-24.61524C65.3823,49.54236,40.5698,70.11071,40.32029,70.31872a.49989.49989,0,1,1-.64062-.76758c1.03271-.86132,25.39551-21.06738,35.18506-20.04785,5.58838.583,11.34472,12.52832,17.439,25.17578,5.88233,12.207,11.96338,24.82618,17.13867,24.82618.05323,0,.10547-.002.15821-.00391,6.71093-.33789,12.06836-17.78809,17.25-34.665,5.36279-17.46777,10.42822-33.96582,17.49316-35.32715,6.57617-1.25683,12.26807,9.08008,18.29443,20.03614,5.36426,9.752,10.91114,19.83593,16.62354,19.95507.03955.001.07959.001.11914.001,7.521,0,12.36719-14.9375,17.05566-29.38672,4.92432-15.17578,9.5752-29.50976,17.55909-30.60937,8.5039-1.16309,13.40283,13.83105,18.59863,29.71484,4.57617,13.98926,9.3081,28.45605,16.4082,30.2959,6.18213,1.61621,12.42822-9.29785,18.47266-19.83985,5.39941-9.416,10.49951-18.31054,16.05762-20.15039,5.72705-1.8955,13.499,4.4834,21.01757,10.65137,5.25879,4.31348,10.22608,8.38867,14.07227,9.33789,4.23633,1.04688,10.80273-2.00879,17.15478-4.96289,6.44288-2.99707,13.10206-6.09668,17.65137-5.03906,6.02149,1.39941,11.36279,10.46973,17.01807,20.07324,5.70215,9.68262,11.59863,19.69629,17.69971,19.91406.0625.00293.12548.00391.188.00391,6.62061,0,11.874-12.48731,16.95655-24.56836,5.374-12.77344,10.45019-24.83887,17.60888-25.43359,8.09424-.67676,17.52881,29.08105,17.92481,30.34863a.4999.4999,0,1,1-.9541.29883c-2.63282-8.419-10.79053-30.16211-16.8877-29.65137-6.55469.54492-11.748,12.88867-16.77,24.8252-5.50439,13.083-10.70312,25.46777-18.10254,25.17675-6.64844-.23828-12.41748-10.03515-18.52539-20.40722-5.29931-8.998-10.77881-18.30371-16.38281-19.60547-4.21-.98438-10.71289,2.04492-17.00342,4.9707-6.50976,3.02734-13.24121,6.15918-17.81543,5.02734-4.0664-1.0039-9.11865-5.14843-14.46728-9.53613-7.30957-5.99512-14.87061-12.20019-20.06885-10.47461-5.19531,1.71973-10.43652,10.86035-15.5044,19.69922-6.51757,11.36621-12.67041,22.10449-19.5913,20.31055-7.62989-1.97852-12.44776-16.709-17.10743-30.9541-4.83935-14.793-9.85742-30.07422-17.51172-29.03516C206.76951,11.51013,202,26.20837,197.38768,40.42321c-5.01758,15.46485-9.76026,30.07715-18.00049,30.07813-.04932,0-.09668,0-.146-.001-6.29-.13183-11.7251-10.01269-17.47949-20.47363-5.58789-10.15918-11.36523-20.67285-17.22852-19.53516-6.47509,1.24707-11.68652,18.22168-16.72656,34.63868-5.52588,17.99707-10.74512,34.99707-18.15625,35.36914C109.583,100.50329,109.51414,100.50525,109.44627,100.50525Z"/><path class="cls-2" d="M440.34764,110.25036H40a.25017.25017,0,0,1-.25-.25v-100a.25.25,0,0,1,.5,0v99.75H440.34764a.25.25,0,0,1,0,.5Z"/><path class="cls-2" d="M144.43846,112.25036a.25016.25016,0,0,1-.25-.25v-2a.25.25,0,0,1,.5,0v2A.25017.25017,0,0,1,144.43846,112.25036Z"/><path class="cls-2" d="M248.87693,112.25036a.25017.25017,0,0,1-.25-.25v-2a.25.25,0,0,1,.5,0v2A.25016.25016,0,0,1,248.87693,112.25036Z"/><path class="cls-2" d="M353.31541,112.25036a.25017.25017,0,0,1-.25-.25v-2a.25.25,0,0,1,.5,0v2A.25017.25017,0,0,1,353.31541,112.25036Z"/><path class="cls-2" d="M405.53465,112.25036a.25017.25017,0,0,1-.25-.25v-2a.25.25,0,0,1,.5,0v2A.25017.25017,0,0,1,405.53465,112.25036Z"/><path class="cls-2" d="M92.21922,112.25036a.25017.25017,0,0,1-.25-.25v-2a.25.25,0,0,1,.5,0v2A.25017.25017,0,0,1,92.21922,112.25036Z"/><path class="cls-2" d="M196.6577,112.25036a.25016.25016,0,0,1-.25-.25v-2a.25.25,0,1,1,.5,0v2A.25017.25017,0,0,1,196.6577,112.25036Z"/><path class="cls-2" d="M301.09617,112.25036a.25017.25017,0,0,1-.25-.25v-2a.25.25,0,0,1,.5,0v2A.25016.25016,0,0,1,301.09617,112.25036Z"/><path class="cls-2" d="M40,60.25036H38a.25.25,0,1,1,0-.5h2a.25.25,0,0,1,0,.5Z"/><circle class="cls-1" cx="440.3476" cy="59.99997" r="3"/><path class="cls-3" d="M26.07027,9.00437a.9346.9346,0,0,1-.55762.88769v.00586A1.04446,1.04446,0,0,1,26.25,10.9116c0,.68945-.56934,1.127-1.43945,1.127-.86329,0-1.43848-.4375-1.43848-1.127a1.04461,1.04461,0,0,1,.74316-1.01368V9.89206a.92807.92807,0,0,1-.56347-.88769c0-.6416.49707-1.03711,1.25879-1.03711S26.07027,8.36277,26.07027,9.00437Zm-.31836,1.85937c0-.456-.37109-.73193-.9414-.73193-.56348,0-.94141.27588-.94141.73193,0,.44971.36621.72559.94141.72559C25.39254,11.58933,25.75191,11.31345,25.75191,10.86374Zm-1.70312-1.811c0,.38965.30664.62939.76172.62939.456,0,.76171-.23974.76171-.62939,0-.40186-.29394-.63574-.76171-.63574S24.04879,8.65085,24.04879,9.05271Z"/><path class="cls-3" d="M27.04976,10c0-1.32519.51563-2.03857,1.47559-2.03857C29.48433,7.9614,30,8.67478,30,10s-.51563,2.03858-1.47461,2.03858C27.56539,12.03855,27.04976,11.32517,27.04976,10Zm2.45313,0c0-1.04345-.3418-1.60693-.97754-1.60693S27.54781,8.95652,27.54781,10s.3418,1.60743.97754,1.60743S29.50289,11.04343,29.50289,10Z"/><path class="cls-3" d="M26.664,33.021v.31787A5.22893,5.22893,0,0,0,25.18256,36.979H24.829a5.49094,5.49094,0,0,1,1.46289-3.64014H23.80365V33.021Z"/><path class="cls-3" d="M27.09759,35c0-1.31933.50977-2.03857,1.45118-2.03857S29.99994,33.68064,29.99994,35s-.50977,2.03858-1.45117,2.03858S27.09759,36.31931,27.09759,35Zm2.54883,0c0-1.12109-.38379-1.73291-1.09765-1.73291-.708,0-1.09766.61182-1.09766,1.73291,0,1.12159.38965,1.73291,1.09766,1.73291C29.26263,36.73288,29.64642,36.12156,29.64642,35Z"/><path class="cls-3" d="M26.27533,58.7529l-.3125.14991a.84948.84948,0,0,0-.88867-.624c-.7793,0-1.17969.83985-1.17969,1.80518,0,.10205.00586.21.01758.33594h.02343a1.08825,1.08825,0,0,1,1.13282-.89942,1.26,1.26,0,1,1-.02344,2.51807c-.96484,0-1.47461-.80322-1.47461-2.03858,0-1.34326.66016-2.03857,1.5293-2.03857A1.13809,1.13809,0,0,1,26.27533,58.7529ZM24.08,60.77341a.9079.9079,0,0,0,.959.9419.93307.93307,0,1,0,.00586-1.86524A.9222.9222,0,0,0,24.08,60.77341Z"/><path class="cls-3" d="M27.09759,60c0-1.31933.50977-2.03857,1.45118-2.03857S29.99994,58.68064,29.99994,60s-.50977,2.03858-1.45117,2.03858S27.09759,61.31931,27.09759,60Zm2.54883,0c0-1.12109-.38281-1.73291-1.09765-1.73291-.707,0-1.09766.61182-1.09766,1.73291,0,1.12159.39062,1.73291,1.09766,1.73291C29.26361,61.73288,29.64642,61.12156,29.64642,60Z"/><path class="cls-3" d="M26.37,85.74949a1.21969,1.21969,0,0,1-1.31933,1.28906,1.28512,1.28512,0,0,1-1.373-.92285l.33008-.168a.93537.93537,0,0,0,1.03125.77344.90087.90087,0,0,0,.97754-.95313.87949.87949,0,0,0-.94727-.96,1.12442,1.12442,0,0,0-.9834.43164h-.2998l.21582-2.21875h2.2002v.31836H24.289l-.15527,1.46289-.00586.07813h.00586a1.2438,1.2438,0,0,1,.99511-.38965A1.18463,1.18463,0,0,1,26.37,85.74949Z"/><path class="cls-3" d="M27.09758,85.00046c0-1.31933.50977-2.03906,1.45117-2.03906s1.45118.71973,1.45118,2.03906-.50977,2.03809-1.45118,2.03809S27.09758,86.3198,27.09758,85.00046Zm2.54883,0c0-1.12109-.38379-1.7334-1.09766-1.7334-.708,0-1.09765.61231-1.09765,1.7334s.38965,1.73242,1.09765,1.73242C29.26262,86.73288,29.64641,86.12156,29.64641,85.00046Z"/><path class="cls-3" d="M26.37108,110.94089h-.70117V111.979h-.48047v-1.03809H23.2578v-.35351l1.80664-2.56641h.60547v2.50684h.70117Zm-2.60351-.41308h1.42187v-1.48145l.02344-.63574h-.01172a5.52143,5.52143,0,0,1-.39649.66016Z"/><path class="cls-3" d="M27.05077,109.99949c0-1.3252.51562-2.03809,1.47461-2.03809S30,108.67429,30,109.99949s-.51563,2.03906-1.47461,2.03906S27.05077,111.32468,27.05077,109.99949Zm2.45312,0c0-1.043-.34179-1.60645-.97851-1.60645-.63477,0-.97656.56348-.97656,1.60645,0,1.04394.34179,1.60742.97656,1.60742C29.1621,111.60691,29.50389,111.04343,29.50389,109.99949Z"/><path class="cls-2" d="M40,35.25036H38a.25.25,0,1,1,0-.5h2a.25.25,0,0,1,0,.5Z"/><path class="cls-2" d="M40,85.25036H38a.25.25,0,1,1,0-.5h2a.25.25,0,0,1,0,.5Z"/><path class="cls-3" d="M397.35654,120.74949a1.21969,1.21969,0,0,1-1.31933,1.28906,1.28512,1.28512,0,0,1-1.37305-.92285l.33008-.168a.93537.93537,0,0,0,1.03125.77344.90087.90087,0,0,0,.97754-.95313.87949.87949,0,0,0-.94727-.96,1.12442,1.12442,0,0,0-.9834.43164h-.2998l.21582-2.21875h2.2002v.31836h-1.91309l-.15527,1.46289-.00586.07813h.00586a1.2438,1.2438,0,0,1,.99511-.38965A1.18463,1.18463,0,0,1,397.35654,120.74949Z"/><path class="cls-3" d="M398.7794,119.23874a.29689.29689,0,1,1-.59375,0,.29689.29689,0,0,1,.59375,0Zm0,2.49414a.29689.29689,0,1,1-.29981-.2998A.28145.28145,0,0,1,398.7794,121.73288Z"/><path class="cls-3" d="M399.63779,120.00046c0-1.31933.50977-2.03906,1.45118-2.03906s1.45117.71973,1.45117,2.03906-.50977,2.03809-1.45117,2.03809S399.63779,121.3198,399.63779,120.00046Zm2.54883,0c0-1.12109-.38379-1.7334-1.09765-1.7334-.708,0-1.09766.61231-1.09766,1.7334s.38965,1.73242,1.09766,1.73242C401.80283,121.73288,402.18662,121.12156,402.18662,120.00046Z"/><path class="cls-3" d="M403.30381,120.00046c0-1.31933.50977-2.03906,1.45117-2.03906s1.45117.71973,1.45117,2.03906-.50976,2.03809-1.45117,2.03809S403.30381,121.3198,403.30381,120.00046Zm2.54883,0c0-1.12109-.38379-1.7334-1.09766-1.7334-.708,0-1.09765.61231-1.09765,1.7334s.38964,1.73242,1.09765,1.73242C405.46885,121.73288,405.85264,121.12156,405.85264,120.00046Z"/><path class="cls-3" d="M411.80381,119.19089c0,.72559-.52148,1.169-1.33691,1.169h-.98926V121.979h-.3418v-3.958h1.33106C411.28233,118.021,411.80381,118.46531,411.80381,119.19089Zm-.35352,0c0-.5459-.34765-.85156-1.02539-.85156h-.94726v1.70312h.94726C411.10264,120.04245,411.45029,119.73679,411.45029,119.19089Z"/><path class="cls-3" d="M416.40537,121.979h-.33008v-2.8418l.03614-.792-1.415,3.63379h-.30567l-1.40918-3.63379h-.00586l.03516.792v2.8418h-.32324v-3.958h.51562l1.1211,2.86133.21582.69531h.00586l.22265-.68945,1.11524-2.86719h.52148Z"/><path class="cls-4" d="M432.98048,131.499v.45019h-2.74609v-3.958h.47851V131.499Z"/><path class="cls-4" d="M436.4297,131.57126l-.0293.37793a1.0769,1.0769,0,0,1-.35937.05957.47018.47018,0,0,1-.53906-.44336,1.18547,1.18547,0,0,1-.9668.44336c-.5625,0-1.01953-.26367-1.01953-.80371,0-.44922.39648-.80371,1.16992-.93554l.79687-.13184v-.168a.62919.62919,0,0,0-.70117-.65918.87769.87769,0,0,0-.85742.56934l-.35351-.25782a1.22031,1.22031,0,0,1,1.21093-.73144c.6836,0,1.18164.32422,1.18164,1.01953v1.47559c0,.14355.06055.21582.22852.21582A1.047,1.047,0,0,0,436.4297,131.57126Zm-.94727-.62988v-.41406l-.67187.126c-.52734.09668-.79688.27051-.79688.55176,0,.252.20313.38379.54493.38379C435.03908,131.58884,435.48243,131.33689,435.48243,130.94138Z"/><path class="cls-4" d="M438.84376,131.73923a1.11765,1.11765,0,0,1-.77343.26953.753.753,0,0,1-.834-.80371v-1.84082h-.59961v-.41406h.59961v-.71875l.48047-.13281v.85156h1.10937v.41406h-1.10937v1.75684a.40683.40683,0,0,0,.44922.43847.68392.68392,0,0,0,.50976-.22265Z"/><path class="cls-4" d="M442.07033,130.62986h-2.25977a.94857.94857,0,0,0,.97656.959.8114.8114,0,0,0,.84571-.44336l.40234.21a1.28539,1.28539,0,0,1-1.248.65332,1.38968,1.38968,0,0,1-1.45117-1.55859,1.36424,1.36424,0,0,1,1.416-1.55957,1.29855,1.29855,0,0,1,1.34179,1.40332A2.42093,2.42093,0,0,1,442.07033,130.62986Zm-2.25391-.42578h1.81641c-.06641-.55176-.3711-.89356-.88086-.89356A.903.903,0,0,0,439.81642,130.20408Z"/><path class="cls-4" d="M442.73829,131.331l.39063-.26953a.93519.93519,0,0,0,.94726.52734c.49219,0,.72461-.19726.72461-.44336,0-.22168-.18554-.35351-.78515-.46191-.85156-.15625-1.16406-.38965-1.16406-.89356,0-.48535.45117-.89941,1.18164-.89941a1.08386,1.08386,0,0,1,1.1875.71973l-.40821.24023a.72887.72887,0,0,0-.77929-.54c-.40039,0-.70118.21582-.70118.4375,0,.25781.19727.38965.81055.49219.83789.13769,1.13867.38965,1.13867.88086,0,.52246-.48633.88769-1.2539.88769A1.36857,1.36857,0,0,1,442.73829,131.331Z"/><path class="cls-4" d="M448.00392,131.73923a1.11768,1.11768,0,0,1-.77344.26953.7538.7538,0,0,1-.834-.80371v-1.84082h-.59961v-.41406h.59961v-.71875l.48047-.13281v.85156h1.10937v.41406H446.877v1.75684a.40682.40682,0,0,0,.44921.43847.67768.67768,0,0,0,.50977-.22265Z"/><path class="cls-3" d="M82.17237,118.021v3.958h-.3418v-2.97461c0-.16211.00586-.3418.01172-.52734a2.05884,2.05884,0,0,1-1.03711.623l-.08984-.30566a2.30428,2.30428,0,0,0,1.1582-.77344Z"/><path class="cls-3" d="M84.42823,118.021v3.958h-.3418v-2.97461c0-.16211.00586-.3418.01172-.52734a2.05884,2.05884,0,0,1-1.03711.623l-.08985-.30566a2.30427,2.30427,0,0,0,1.15821-.77344Z"/><path class="cls-3" d="M86.09619,119.23777a.2969.2969,0,1,1-.59375,0,.2969.2969,0,0,1,.59375,0Zm0,2.49511a.29689.29689,0,1,1-.29882-.2998A.28118.28118,0,0,1,86.09619,121.73288Z"/><path class="cls-3" d="M86.95557,119.99949c0-1.31934.50977-2.03809,1.45117-2.03809s1.45117.71875,1.45117,2.03809-.50976,2.03906-1.45117,2.03906S86.95557,121.31882,86.95557,119.99949Zm2.54883,0c0-1.1211-.38477-1.73243-1.09766-1.73243-.709,0-1.09765.61133-1.09765,1.73243,0,1.12207.38867,1.73339,1.09765,1.73339C89.11963,121.73288,89.5044,121.12156,89.5044,119.99949Z"/><path class="cls-3" d="M90.62159,119.99949c0-1.31934.50976-2.03809,1.45117-2.03809s1.45117.71875,1.45117,2.03809-.50977,2.03906-1.45117,2.03906S90.62159,121.31882,90.62159,119.99949Zm2.54882,0c0-1.1211-.38476-1.73243-1.09765-1.73243-.709,0-1.09766.61133-1.09766,1.73243,0,1.12207.38867,1.73339,1.09766,1.73339C92.78565,121.73288,93.17041,121.12156,93.17041,119.99949Z"/><path class="cls-3" d="M99.12159,119.18992c0,.72558-.52149,1.16992-1.3379,1.16992h-.98828V121.979h-.34179v-3.958h1.33007C98.6001,118.021,99.12159,118.46433,99.12159,119.18992Zm-.35352,0c0-.54493-.34766-.85157-1.02539-.85157h-.94727v1.70313h.94727C98.42041,120.04148,98.76807,119.73581,98.76807,119.18992Z"/><path class="cls-3" d="M103.72315,121.979h-.33008V119.1362l.03516-.791-1.41407,3.63379h-.30664l-1.4082-3.63379h-.00586l.03516.791V121.979h-.32422v-3.958H100.52l1.1211,2.86035.21679.69531h.00586l.22266-.68945,1.11523-2.86621h.52149Z"/><path class="cls-3" d="M133.61818,121.69675c1.52344-1.16894,2.17774-1.76855,2.17774-2.51855a.8583.8583,0,0,0-.94141-.89942,1.01445,1.01445,0,0,0-1.03125,1.05567l-.30078-.17383a1.26189,1.26189,0,0,1,1.34375-1.19922,1.17063,1.17063,0,0,1,1.2832,1.2168c0,.78613-.61718,1.457-2.0332,2.48828v.00683c.10156-.00683.3418-.01269.4375-.01269h1.7168v.31836h-2.65235Z"/><path class="cls-3" d="M137.68068,119.23777a.28448.28448,0,0,1-.30078.30078.28148.28148,0,0,1-.293-.30078.27577.27577,0,0,1,.293-.293A.27891.27891,0,0,1,137.68068,119.23777Zm0,2.49511a.28275.28275,0,0,1-.30078.294.2969.2969,0,0,1,0-.59375A.28422.28422,0,0,1,137.68068,121.73288Z"/><path class="cls-3" d="M138.53811,119.99949c0-1.31934.50976-2.03809,1.45117-2.03809s1.45117.71875,1.45117,2.03809-.50977,2.03906-1.45117,2.03906S138.53811,121.31882,138.53811,119.99949Zm2.54882,0c0-1.1211-.38281-1.73243-1.09765-1.73243-.707,0-1.09766.61133-1.09766,1.73243,0,1.12207.39063,1.73339,1.09766,1.73339C140.70412,121.73288,141.08693,121.12156,141.08693,119.99949Z"/><path class="cls-3" d="M142.20412,119.99949c0-1.31934.50977-2.03809,1.45117-2.03809s1.45117.71875,1.45117,2.03809-.50976,2.03906-1.45117,2.03906S142.20412,121.31882,142.20412,119.99949Zm2.54883,0c0-1.1211-.38281-1.73243-1.09766-1.73243-.707,0-1.09765.61133-1.09765,1.73243,0,1.12207.39062,1.73339,1.09765,1.73339C144.37014,121.73288,144.753,121.12156,144.753,119.99949Z"/><path class="cls-3" d="M150.04006,120.77292H148.169l-.4746,1.20606H147.335l1.57227-3.958h.40625l1.5664,3.958h-.35937Zm-.127-.31738-.64649-1.64941-.15625-.45508h-.01172l-.14453.4375-.66016,1.667Z"/><path class="cls-3" d="M155.35451,121.979h-.33008V119.1362l.03711-.791-1.416,3.63379h-.30469l-1.41016-3.63379h-.00586l.03516.791V121.979h-.32227v-3.958h.51563l1.12109,2.86035.21485.69531h.00586l.22265-.68945L154.833,118.021h.52148Z"/><path class="cls-3" d="M188.45511,120.74949a1.21969,1.21969,0,0,1-1.31933,1.28906,1.28512,1.28512,0,0,1-1.37305-.92285l.33008-.168a.93537.93537,0,0,0,1.03125.77344.90087.90087,0,0,0,.97754-.95313.87949.87949,0,0,0-.94727-.96,1.12442,1.12442,0,0,0-.9834.43164h-.2998l.21582-2.21875h2.20019v.31836h-1.91308l-.15527,1.46289-.00586.07813h.00586a1.2438,1.2438,0,0,1,.99511-.38965A1.18463,1.18463,0,0,1,188.45511,120.74949Z"/><path class="cls-3" d="M189.878,119.23874a.29689.29689,0,1,1-.59375,0,.29689.29689,0,0,1,.59375,0Zm0,2.49414a.29689.29689,0,1,1-.2998-.2998A.28144.28144,0,0,1,189.878,121.73288Z"/><path class="cls-3" d="M190.73636,120.00046c0-1.31933.50977-2.03906,1.45118-2.03906s1.45117.71973,1.45117,2.03906-.50977,2.03809-1.45117,2.03809S190.73636,121.3198,190.73636,120.00046Zm2.54883,0c0-1.12109-.38379-1.7334-1.09765-1.7334-.708,0-1.09766.61231-1.09766,1.7334s.38965,1.73242,1.09766,1.73242C192.9014,121.73288,193.28519,121.12156,193.28519,120.00046Z"/><path class="cls-3" d="M194.40238,120.00046c0-1.31933.50976-2.03906,1.45117-2.03906s1.45117.71973,1.45117,2.03906-.50976,2.03809-1.45117,2.03809S194.40238,121.3198,194.40238,120.00046Zm2.54883,0c0-1.12109-.38379-1.7334-1.09766-1.7334-.708,0-1.09766.61231-1.09766,1.7334s.38965,1.73242,1.09766,1.73242C196.56742,121.73288,196.95121,121.12156,196.95121,120.00046Z"/><path class="cls-3" d="M202.23734,120.7739h-1.87109l-.47364,1.20508h-.35937l1.57129-3.958h.40722l1.56543,3.958h-.35937Zm-.126-.31738-.64746-1.64942-.15527-.45605h-.0127l-.14355.4375-.66016,1.668Z"/><path class="cls-3" d="M207.55277,121.979h-.33008v-2.8418l.03613-.792-1.415,3.63379h-.30567l-1.40918-3.63379h-.00586l.03516.792v2.8418H203.835v-3.958h.51562l1.12109,2.86133.21583.69531h.00585l.22266-.68945,1.11524-2.86719h.52148Z"/><path class="cls-3" d="M241.08676,118.98093a.9264.9264,0,0,1-.666.91113v.00586a1.06006,1.06006,0,0,1,.83984,1.03223c0,.6709-.56347,1.1084-1.40918,1.1084-.83984,0-1.40918-.4375-1.40918-1.1084a1.05942,1.05942,0,0,1,.84571-1.03223v-.00586a.9166.9166,0,0,1-.666-.91113c0-.624.47949-1.01367,1.22949-1.01367C240.60043,117.96726,241.08676,118.35691,241.08676,118.98093Zm-.17969,1.91895c0-.50391-.41992-.834-1.05567-.834-.624,0-1.05566.33008-1.05566.834,0,.498.41992.82129,1.05566.82129C240.493,121.72117,240.90707,121.39792,240.90707,120.89988Zm-1.93164-1.88868c0,.44336.34863.73145.876.73145.53321,0,.88184-.28809.88184-.73145,0-.45019-.3418-.72558-.88184-.72558C239.31722,118.28562,238.97543,118.561,238.97543,119.0112Z"/><path class="cls-3" d="M242.71957,119.23874a.29689.29689,0,1,1-.59375,0,.29689.29689,0,0,1,.59375,0Zm0,2.49414a.29689.29689,0,1,1-.29981-.2998A.28145.28145,0,0,1,242.71957,121.73288Z"/><path class="cls-3" d="M243.578,120.00046c0-1.31933.50976-2.03906,1.45117-2.03906s1.45117.71973,1.45117,2.03906-.50976,2.03809-1.45117,2.03809S243.578,121.3198,243.578,120.00046Zm2.54883,0c0-1.12109-.38379-1.7334-1.09766-1.7334-.708,0-1.09766.61231-1.09766,1.7334s.38965,1.73242,1.09766,1.73242C245.743,121.73288,246.1268,121.12156,246.1268,120.00046Z"/><path class="cls-3" d="M247.244,120.00046c0-1.31933.50977-2.03906,1.45117-2.03906s1.45118.71973,1.45118,2.03906-.50977,2.03809-1.45118,2.03809S247.244,121.3198,247.244,120.00046Zm2.54883,0c0-1.12109-.38379-1.7334-1.09766-1.7334-.708,0-1.09765.61231-1.09765,1.7334s.38965,1.73242,1.09765,1.73242C249.409,121.73288,249.79281,121.12156,249.79281,120.00046Z"/><path class="cls-3" d="M255.078,120.7739h-1.8711l-.47363,1.20508h-.35937l1.57128-3.958h.40723l1.56543,3.958h-.35937Zm-.126-.31738-.64746-1.64942-.15527-.45605h-.0127l-.14355.4375-.66016,1.668Z"/><path class="cls-3" d="M260.3934,121.979h-.33008v-2.8418l.03613-.792-1.415,3.63379h-.30566l-1.40918-3.63379h-.00586l.03516.792v2.8418h-.32325v-3.958h.51563l1.12109,2.86133.21582.69531h.00586l.22266-.68945,1.11523-2.86719h.52149Z"/><path class="cls-3" d="M291.025,118.021v3.958h-.3418v-2.97461c0-.16113.00586-.3418.01172-.52734a2.06735,2.06735,0,0,1-1.03711.624l-.08984-.30567a2.3,2.3,0,0,0,1.1582-.77441Z"/><path class="cls-3" d="M293.28083,118.021v3.958h-.3418v-2.97461c0-.16113.00586-.3418.01172-.52734a2.06735,2.06735,0,0,1-1.03711.624l-.08984-.30567a2.3,2.3,0,0,0,1.1582-.77441Z"/><path class="cls-3" d="M294.9488,119.23874a.29689.29689,0,1,1-.59375,0,.29689.29689,0,0,1,.59375,0Zm0,2.49414a.29689.29689,0,1,1-.29883-.2998A.28066.28066,0,0,1,294.9488,121.73288Z"/><path class="cls-3" d="M295.80817,120.00046c0-1.31933.50977-2.03906,1.45117-2.03906s1.45118.71973,1.45118,2.03906-.50977,2.03809-1.45118,2.03809S295.80817,121.3198,295.80817,120.00046Zm2.54883,0c0-1.12109-.38476-1.7334-1.09766-1.7334-.709,0-1.09765.61231-1.09765,1.7334s.38867,1.73242,1.09765,1.73242C297.97224,121.73288,298.357,121.12156,298.357,120.00046Z"/><path class="cls-3" d="M299.47419,120.00046c0-1.31933.50976-2.03906,1.45117-2.03906s1.45117.71973,1.45117,2.03906-.50976,2.03809-1.45117,2.03809S299.47419,121.3198,299.47419,120.00046Zm2.54883,0c0-1.12109-.38477-1.7334-1.09766-1.7334-.709,0-1.09766.61231-1.09766,1.7334s.38868,1.73242,1.09766,1.73242C301.63825,121.73288,302.023,121.12156,302.023,120.00046Z"/><path class="cls-3" d="M307.30817,120.7739h-1.87109l-.47461,1.20508h-.35938l1.57227-3.958h.40625l1.56641,3.958h-.35938Zm-.127-.31738-.64648-1.64942-.15625-.45605h-.01172l-.14453.4375-.66016,1.668Z"/><path class="cls-3" d="M312.62458,121.979h-.33008v-2.8418l.03516-.792-1.41407,3.63379H310.609l-1.4082-3.63379h-.00586l.03516.792v2.8418h-.32422v-3.958h.51562l1.1211,2.86133.21679.69531h.00586l.22266-.68945,1.11523-2.86719h.52149Z"/><path class="cls-3" d="M342.51961,121.69773c1.52344-1.16992,2.17774-1.76953,2.17774-2.51856a.859.859,0,0,0-.94141-.90039,1.01445,1.01445,0,0,0-1.03125,1.05567l-.30078-.17383a1.2619,1.2619,0,0,1,1.34375-1.19922,1.17086,1.17086,0,0,1,1.2832,1.21777c0,.78516-.61718,1.457-2.0332,2.48828v.00586c.10156-.00586.3418-.01171.4375-.01171h1.7168v.31738h-2.65235Z"/><path class="cls-3" d="M346.58211,119.23874a.28422.28422,0,0,1-.30078.29981.28121.28121,0,0,1-.293-.29981.27654.27654,0,0,1,.293-.29394A.27966.27966,0,0,1,346.58211,119.23874Zm0,2.49414a.28223.28223,0,0,1-.30078.294.2969.2969,0,0,1,0-.59375A.28422.28422,0,0,1,346.58211,121.73288Z"/><path class="cls-3" d="M347.43954,120.00046c0-1.31933.50976-2.03906,1.45117-2.03906s1.45117.71973,1.45117,2.03906-.50977,2.03809-1.45117,2.03809S347.43954,121.3198,347.43954,120.00046Zm2.54882,0c0-1.12109-.38281-1.7334-1.09765-1.7334-.707,0-1.09766.61231-1.09766,1.7334s.39063,1.73242,1.09766,1.73242C349.60555,121.73288,349.98836,121.12156,349.98836,120.00046Z"/><path class="cls-3" d="M351.10555,120.00046c0-1.31933.50977-2.03906,1.45117-2.03906s1.45118.71973,1.45118,2.03906-.50977,2.03809-1.45118,2.03809S351.10555,121.3198,351.10555,120.00046Zm2.54883,0c0-1.12109-.38281-1.7334-1.09766-1.7334-.707,0-1.09765.61231-1.09765,1.7334s.39062,1.73242,1.09765,1.73242C353.27157,121.73288,353.65438,121.12156,353.65438,120.00046Z"/><path class="cls-3" d="M359.60555,119.19089c0,.72559-.52148,1.169-1.33594,1.169h-.99023V121.979h-.3418v-3.958h1.332C359.08407,118.021,359.60555,118.46531,359.60555,119.19089Zm-.35351,0c0-.5459-.34766-.85156-1.02539-.85156h-.94727v1.70312h.94727C358.90438,120.04245,359.252,119.73679,359.252,119.19089Z"/><path class="cls-3" d="M364.20711,121.979H363.877v-2.8418l.03711-.792-1.416,3.63379h-.30469l-1.41015-3.63379h-.00586l.03515.792v2.8418h-.32226v-3.958h.51562l1.1211,2.86133.21484.69531h.00586l.22266-.68945,1.11523-2.86719h.52148Z"/><path class="cls-3" d="M431.69233,119.00437a.93412.93412,0,0,1-.55762.88769v.00586a1.04489,1.04489,0,0,1,.73731,1.01368c0,.68945-.56934,1.12695-1.43946,1.12695-.86328,0-1.43847-.4375-1.43847-1.12695a1.045,1.045,0,0,1,.74316-1.01368v-.00586a.9276.9276,0,0,1-.56348-.88769c0-.6416.49708-1.03711,1.25879-1.03711S431.69233,118.36277,431.69233,119.00437Zm-.31836,1.85937c0-.45605-.37109-.73144-.94141-.73144-.56347,0-.9414.27539-.9414.73144,0,.4502.36621.72559.9414.72559C431.0146,121.58933,431.374,121.31394,431.374,120.86374Zm-1.70312-1.81054c0,.38965.30664.6289.76171.6289.45606,0,.76172-.23925.76172-.6289,0-.40235-.29394-.63575-.76172-.63575S429.67085,118.65085,429.67085,119.0532Z"/><path class="cls-3" d="M433.55952,119.311a.38965.38965,0,1,1-.38965-.38965A.36854.36854,0,0,1,433.55952,119.311Zm0,2.33887a.38965.38965,0,1,1-.38965-.39063A.36777.36777,0,0,1,433.55952,121.64988Z"/><path class="cls-3" d="M434.44721,120.00046c0-1.32519.51563-2.03906,1.47559-2.03906.959,0,1.47461.71387,1.47461,2.03906s-.51563,2.03809-1.47461,2.03809C434.96284,122.03855,434.44721,121.32566,434.44721,120.00046Zm2.45313,0c0-1.04394-.3418-1.60742-.97754-1.60742s-.97754.56348-.97754,1.60742c0,1.043.3418,1.60742.97754,1.60742S436.90034,121.04343,436.90034,120.00046Z"/><path class="cls-3" d="M438.17963,120.00046c0-1.32519.51563-2.03906,1.47559-2.03906.959,0,1.47461.71387,1.47461,2.03906s-.51563,2.03809-1.47461,2.03809C438.69526,122.03855,438.17963,121.32566,438.17963,120.00046Zm2.45313,0c0-1.04394-.3418-1.60742-.97754-1.60742s-.97754.56348-.97754,1.60742c0,1.043.3418,1.60742.97754,1.60742S440.63276,121.04343,440.63276,120.00046Z"/><path class="cls-3" d="M446.94331,119.227a1.1919,1.1919,0,0,1-1.33106,1.20507h-.918V121.979h-.47949v-3.958h1.39746A1.1921,1.1921,0,0,1,446.94331,119.227Zm-.50391,0c0-.49219-.27539-.75586-.89941-.75586h-.84571v1.51074H445.54C446.164,119.98191,446.4394,119.71824,446.4394,119.227Z"/><path class="cls-3" d="M451.70112,121.979h-.45606V119.4907l.05371-1.044h-.00585l-1.30079,3.53223h-.4082l-1.30078-3.53223h-.00586l.05371,1.044V121.979H447.875v-3.958h.7373l.87012,2.40527.2998.98926h.01172l.30567-.9834.86425-2.41113h.73731Z"/><rect class="cls-5" width="480" height="140"/></g></g></svg>