<svg xmlns="http://www.w3.org/2000/svg" width="50" height="50" viewBox="0 0 50 50"><defs><style>.cls-1{fill:none;}.cls-2{fill:#33d67b;}</style></defs><g id="Layer_2" data-name="Layer 2"><g id="Layer_1-2" data-name="Layer 1"><rect class="cls-1" width="50" height="50"/><path id="Shape" class="cls-2" d="M19.32319,34.674h-4.766V19.30927h4.766ZM16.97887,17.60812a2.38635,2.38635,0,1,1,.06271-4.766,2.388,2.388,0,1,1-.06271,4.766ZM36.99835,34.67563h-4.7666V26.46485c0-1.97528-.68978-3.32377-2.41451-3.32377a2.61659,2.61659,0,0,0-2.44531,1.78716A3.434,3.434,0,0,0,27.21516,26.12v8.5529H22.44884V24.52092c0-1.91257-.0627-3.83181-.12541-5.21165H27.0362l-.00472,2.45253h.16426a4.71018,4.71018,0,0,1,4.31516-2.47722c3.13537,0,5.48745,2.10069,5.48745,6.61618v8.77487Z"/></g></g></svg>