<svg xmlns="http://www.w3.org/2000/svg" width="270" height="177.5" viewBox="0 0 270 177.5"><defs><style>.cls-1{fill:#ddd;}.cls-2{fill:#fff;}.cls-3{fill:gray;}.cls-4{fill:#aaa;}.cls-5{fill:none;}</style></defs><g id="Layer_2" data-name="Layer 2"><g id="Layer_2-2" data-name="Layer 2"><path class="cls-1" d="M39.99382,85.49559s17.60559,56.75367,38.00123,57c19.28387.2329,19.27339-49.36323,38.00124-53,13.48845-2.61933,24.11338,32.21551,38.00124,32,20.95652-.3252,17.55242-55.36583,38.00123-59,14.95754-2.65826,38.00124,38,38.00124,38v47H39.99384Z"/><path class="cls-1" d="M230.00006,147.99585H39.9942a.49971.49971,0,0,1-.5-.5v-62a.5.5,0,0,1,.42481-.49414.49451.49451,0,0,1,.55273.34571c.17481.56445,17.72949,56.4082,37.5293,56.64843,9.5625.14063,14.19824-12.45507,19.12011-25.76464,4.61817-12.48926,9.39356-25.40332,18.7793-27.22657,7.22266-1.39648,13.3125,6.99024,19.76856,15.87012,5.76367,7.92676,11.72265,16.12207,18.20214,16.12207.03907,0,.07813,0,.11817-.001,10.31055-.16015,14.51465-14.02734,18.96484-28.708,4.23926-13.98633,8.62305-28.44825,18.957-30.28418,15.14258-2.70508,37.57618,36.57324,38.52344,38.24609a.49366.49366,0,0,1,.06543.24609v47A.49971.49971,0,0,1,230.00006,147.99585Zm-189.50586-1H229.50006V100.62867c-1.36621-2.375-23.36816-40.13574-37.41309-37.64063-9.73046,1.72949-14.02441,15.89258-18.17578,29.58985-4.35937,14.37793-8.86621,29.24707-19.90625,29.418-7.0625.09083-13.19531-8.35058-19.14453-16.5332-5.98828-8.23535-12.17676-16.75976-18.76855-15.47558-8.835,1.71484-13.51074,14.36132-18.03321,26.59179-4.80273,12.98828-9.76953,26.417-19.92968,26.418-.04688,0-.09278,0-.13965-.001-8.66309-.10449-17.77832-9.81933-27.0918-28.873A227.54224,227.54224,0,0,1,40.4942,88.614Z"/><rect class="cls-2" x="34.99383" y="79.49559" width="5" height="74"/><rect class="cls-2" x="130.72983" y="53.75959" width="10" height="197.472" transform="translate(288.22542 16.76576) rotate(90)"/><rect class="cls-2" x="36.99382" y="83.49559" width="3" height="6"/><path class="cls-1" d="M230.00006,147.74585H39.9942a.25048.25048,0,0,1-.25-.25v-100a.25.25,0,0,1,.5,0v99.75H230.00006a.25.25,0,0,1,0,.5Z"/><path class="cls-3" d="M223.86134,168.99459v.4502h-2.74609v-3.958h.47851v3.50781Z"/><path class="cls-3" d="M227.31056,169.06686l-.0293.37793a1.07716,1.07716,0,0,1-.35937.05957.47019.47019,0,0,1-.53906-.44336,1.18547,1.18547,0,0,1-.9668.44336c-.5625,0-1.01953-.26368-1.01953-.80372,0-.44921.39648-.80371,1.16992-.93554l.79687-.13184v-.168a.62919.62919,0,0,0-.70117-.65918.87769.87769,0,0,0-.85742.56934l-.35352-.25781a1.22032,1.22032,0,0,1,1.21094-.73145c.6836,0,1.18164.32422,1.18164,1.01953v1.47559c0,.14355.06055.21582.22852.21582A1.04751,1.04751,0,0,0,227.31056,169.06686Zm-.94727-.62989v-.41406l-.67187.126c-.52734.09668-.79688.2705-.79688.55175,0,.252.20313.38379.54493.38379C225.91993,169.08443,226.36329,168.83248,226.36329,168.437Z"/><path class="cls-3" d="M229.72462,169.23482a1.11766,1.11766,0,0,1-.77344.26954.753.753,0,0,1-.834-.80372v-1.84082h-.59961v-.41406h.59961V165.727l.48047-.13281v.85156H229.707v.41406h-1.10937v1.75684a.40683.40683,0,0,0,.44922.43848.68393.68393,0,0,0,.50976-.22266Z"/><path class="cls-3" d="M232.95118,168.12545h-2.25976a.94857.94857,0,0,0,.97656.959.81138.81138,0,0,0,.8457-.44336l.40235.21a1.28541,1.28541,0,0,1-1.24805.65332,1.38968,1.38968,0,0,1-1.45117-1.5586,1.36424,1.36424,0,0,1,1.416-1.55957,1.29855,1.29855,0,0,1,1.34179,1.40332A2.4189,2.4189,0,0,1,232.95118,168.12545Zm-2.2539-.42578h1.8164c-.0664-.55176-.37109-.89356-.88085-.89356A.903.903,0,0,0,230.69728,167.69967Z"/><path class="cls-3" d="M233.61915,168.82662l.39063-.26953a.93519.93519,0,0,0,.94726.52734c.49219,0,.72461-.19726.72461-.44336,0-.22168-.18554-.35351-.78515-.46191-.85157-.15625-1.16407-.38965-1.16407-.89355,0-.48536.45118-.89942,1.18165-.89942a1.08386,1.08386,0,0,1,1.1875.71973l-.40821.24023a.72887.72887,0,0,0-.77929-.54c-.4004,0-.70118.21582-.70118.4375,0,.25782.19727.38965.81055.49219.83789.1377,1.13867.38965,1.13867.88086,0,.52246-.48633.8877-1.2539.8877A1.36855,1.36855,0,0,1,233.61915,168.82662Z"/><path class="cls-3" d="M238.88478,169.23482a1.11768,1.11768,0,0,1-.77344.26954.7538.7538,0,0,1-.834-.80372v-1.84082h-.59961v-.41406h.59961V165.727l.48047-.13281v.85156h1.10937v.41406h-1.10937v1.75684a.40682.40682,0,0,0,.44921.43848.67769.67769,0,0,0,.50977-.22266Z"/><path class="cls-4" d="M67.94818,155.51656v3.958h-.3418V156.5c0-.16211.00586-.3418.01172-.52734a2.0588,2.0588,0,0,1-1.03711.623l-.08984-.30566a2.30418,2.30418,0,0,0,1.1582-.77344Z"/><path class="cls-4" d="M70.204,155.51656v3.958h-.3418V156.5c0-.16211.00586-.3418.01172-.52734a2.0588,2.0588,0,0,1-1.03711.623L68.747,156.29a2.30418,2.30418,0,0,0,1.1582-.77344Z"/><path class="cls-4" d="M71.872,156.73336a.2969.2969,0,1,1-.59375,0,.2969.2969,0,0,1,.59375,0Zm0,2.49512a.29689.29689,0,1,1-.29883-.29981A.28117.28117,0,0,1,71.872,159.22848Z"/><path class="cls-4" d="M72.73138,157.49508c0-1.31934.50977-2.03809,1.45117-2.03809s1.45118.71875,1.45118,2.03809-.50977,2.03906-1.45118,2.03906S72.73138,158.81441,72.73138,157.49508Zm2.54883,0c0-1.1211-.38476-1.73242-1.09766-1.73242-.709,0-1.09765.61132-1.09765,1.73242,0,1.12207.38867,1.7334,1.09765,1.7334C74.89545,159.22848,75.28021,158.61715,75.28021,157.49508Z"/><path class="cls-4" d="M76.3974,157.49508c0-1.31934.50976-2.03809,1.45117-2.03809s1.45117.71875,1.45117,2.03809-.50976,2.03906-1.45117,2.03906S76.3974,158.81441,76.3974,157.49508Zm2.54883,0c0-1.1211-.38477-1.73242-1.09766-1.73242-.709,0-1.09766.61132-1.09766,1.73242,0,1.12207.38868,1.7334,1.09766,1.7334C78.56146,159.22848,78.94623,158.61715,78.94623,157.49508Z"/><path class="cls-4" d="M84.8974,156.68551c0,.72558-.52149,1.16992-1.33789,1.16992h-.98828v1.61914h-.3418v-3.958h1.33008C84.37591,155.51656,84.8974,155.95992,84.8974,156.68551Zm-.35352,0c0-.54492-.34765-.85156-1.02539-.85156h-.94726v1.70312h.94726C84.19623,157.53707,84.54388,157.23141,84.54388,156.68551Z"/><path class="cls-4" d="M89.499,159.47457h-.33008V156.6318l.03516-.791L87.79,159.47457h-.30664l-1.40821-3.63379h-.00586l.03516.791v2.84277h-.32422v-3.958h.51563l1.12109,2.86035.2168.69532h.00586l.22265-.68946,1.11524-2.86621H89.499Z"/><path class="cls-4" d="M105.176,159.19234c1.52344-1.16894,2.17773-1.76855,2.17773-2.51855a.85828.85828,0,0,0-.9414-.89941,1.01444,1.01444,0,0,0-1.03125,1.05566l-.30079-.17383A1.2619,1.2619,0,0,1,106.424,155.457a1.17064,1.17064,0,0,1,1.28321,1.2168c0,.78613-.61719,1.457-2.03321,2.48828v.00684c.10157-.00684.3418-.0127.4375-.0127h1.7168v.31836H105.176Z"/><path class="cls-4" d="M109.23848,156.73336a.28448.28448,0,0,1-.30078.30078.28148.28148,0,0,1-.293-.30078.27577.27577,0,0,1,.293-.293A.27892.27892,0,0,1,109.23848,156.73336Zm0,2.49512a.28275.28275,0,0,1-.30078.29394.2969.2969,0,0,1,0-.59375A.28423.28423,0,0,1,109.23848,159.22848Z"/><path class="cls-4" d="M110.0959,157.49508c0-1.31934.50977-2.03809,1.45117-2.03809s1.45117.71875,1.45117,2.03809-.50976,2.03906-1.45117,2.03906S110.0959,158.81441,110.0959,157.49508Zm2.54883,0c0-1.1211-.38281-1.73242-1.09766-1.73242-.707,0-1.09765.61132-1.09765,1.73242,0,1.12207.39062,1.7334,1.09765,1.7334C112.26192,159.22848,112.64473,158.61715,112.64473,157.49508Z"/><path class="cls-4" d="M113.76192,157.49508c0-1.31934.50976-2.03809,1.45117-2.03809s1.45117.71875,1.45117,2.03809-.50977,2.03906-1.45117,2.03906S113.76192,158.81441,113.76192,157.49508Zm2.54882,0c0-1.1211-.38281-1.73242-1.09765-1.73242-.707,0-1.09766.61132-1.09766,1.73242,0,1.12207.39063,1.7334,1.09766,1.7334C115.92793,159.22848,116.31074,158.61715,116.31074,157.49508Z"/><path class="cls-4" d="M121.59785,158.26852h-1.87109l-.47461,1.20605h-.35938l1.57227-3.958h.40625l1.56641,3.958h-.35938Zm-.12695-.31739-.64648-1.64941-.15625-.45508h-.01172l-.14453.4375-.66016,1.667Z"/><path class="cls-4" d="M126.91231,159.47457h-.33008V156.6318l.03711-.791-1.416,3.63379h-.30469l-1.41015-3.63379h-.00586l.03515.791v2.84277h-.32226v-3.958h.51562l1.1211,2.86035.21484.69532h.00586l.22266-.68946,1.11523-2.86621h.52149Z"/><path class="cls-4" d="M145.79489,158.24508a1.2197,1.2197,0,0,1-1.31934,1.28906,1.2851,1.2851,0,0,1-1.373-.92285l.33007-.168a.93537.93537,0,0,0,1.03125.77344.90087.90087,0,0,0,.97754-.95313.87949.87949,0,0,0-.94726-.96,1.12442,1.12442,0,0,0-.9834.43164h-.29981l.21583-2.21875h2.20019v.31836h-1.91309l-.15527,1.46289-.00586.07813h.00586a1.24384,1.24384,0,0,1,.99512-.38965A1.18463,1.18463,0,0,1,145.79489,158.24508Z"/><path class="cls-4" d="M147.21774,156.73434a.29689.29689,0,1,1-.59375,0,.29689.29689,0,0,1,.59375,0Zm0,2.49414a.29689.29689,0,1,1-.2998-.29981A.28144.28144,0,0,1,147.21774,159.22848Z"/><path class="cls-4" d="M148.07614,157.49606c0-1.31934.50976-2.03907,1.45117-2.03907s1.45117.71973,1.45117,2.03907-.50976,2.03808-1.45117,2.03808S148.07614,158.81539,148.07614,157.49606Zm2.54883,0c0-1.1211-.38379-1.7334-1.09766-1.7334-.708,0-1.09766.6123-1.09766,1.7334s.38965,1.73242,1.09766,1.73242C150.24118,159.22848,150.625,158.61715,150.625,157.49606Z"/><path class="cls-4" d="M151.74215,157.49606c0-1.31934.50977-2.03907,1.45118-2.03907s1.45117.71973,1.45117,2.03907-.50977,2.03808-1.45117,2.03808S151.74215,158.81539,151.74215,157.49606Zm2.54883,0c0-1.1211-.38379-1.7334-1.09765-1.7334-.708,0-1.09766.6123-1.09766,1.7334s.38965,1.73242,1.09766,1.73242C153.90719,159.22848,154.291,158.61715,154.291,157.49606Z"/><path class="cls-4" d="M159.57712,158.26949H157.706l-.47363,1.20508H156.873l1.57129-3.958h.40723l1.56543,3.958h-.35938Zm-.126-.31738-.64746-1.64941-.15528-.45606h-.01269l-.14356.4375-.66015,1.668Z"/><path class="cls-4" d="M164.89255,159.47457h-.33008v-2.8418l.03613-.792-1.415,3.63379h-.30566l-1.40918-3.63379h-.00586l.03515.792v2.8418h-.32324v-3.958h.51563l1.12109,2.86133.21582.69531h.00586l.22266-.68945,1.11523-2.86719h.52149Z"/><path class="cls-4" d="M182.401,156.47652a.92641.92641,0,0,1-.666.91114v.00586a1.06006,1.06006,0,0,1,.83985,1.03222c0,.6709-.56348,1.1084-1.40918,1.1084-.83985,0-1.40918-.4375-1.40918-1.1084a1.05942,1.05942,0,0,1,.8457-1.03222v-.00586a.91662.91662,0,0,1-.666-.91114c0-.624.4795-1.01367,1.2295-1.01367C181.91467,155.46285,182.401,155.8525,182.401,156.47652Zm-.17969,1.91895c0-.50391-.41992-.834-1.05566-.834-.624,0-1.05567.33008-1.05567.834,0,.49805.41992.82129,1.05567.82129C181.80725,159.21676,182.22131,158.89352,182.22131,158.39547Zm-1.93164-1.88867c0,.44336.34863.73144.876.73144.5332,0,.88183-.28808.88183-.73144,0-.4502-.34179-.72559-.88183-.72559C180.63147,155.78121,180.28967,156.0566,180.28967,156.5068Z"/><path class="cls-4" d="M184.03381,156.73434a.29689.29689,0,1,1-.59375,0,.29689.29689,0,0,1,.59375,0Zm0,2.49414a.29689.29689,0,1,1-.2998-.29981A.28144.28144,0,0,1,184.03381,159.22848Z"/><path class="cls-4" d="M184.89221,157.49606c0-1.31934.50977-2.03907,1.45117-2.03907s1.45117.71973,1.45117,2.03907-.50976,2.03808-1.45117,2.03808S184.89221,158.81539,184.89221,157.49606Zm2.54883,0c0-1.1211-.38379-1.7334-1.09766-1.7334-.708,0-1.09765.6123-1.09765,1.7334s.38964,1.73242,1.09765,1.73242C187.05725,159.22848,187.441,158.61715,187.441,157.49606Z"/><path class="cls-4" d="M188.55823,157.49606c0-1.31934.50976-2.03907,1.45117-2.03907s1.45117.71973,1.45117,2.03907-.50977,2.03808-1.45117,2.03808S188.55823,158.81539,188.55823,157.49606Zm2.54882,0c0-1.1211-.38379-1.7334-1.09765-1.7334-.708,0-1.09766.6123-1.09766,1.7334s.38965,1.73242,1.09766,1.73242C190.72326,159.22848,191.107,158.61715,191.107,157.49606Z"/><path class="cls-4" d="M196.39221,158.26949h-1.87109l-.47364,1.20508h-.35937l1.57129-3.958h.40722l1.56543,3.958h-.35937Zm-.126-.31738-.64746-1.64941-.15527-.45606h-.0127l-.14355.4375-.66016,1.668Z"/><path class="cls-4" d="M201.70764,159.47457h-.33008v-2.8418l.03613-.792-1.415,3.63379H199.693l-1.40918-3.63379H198.278l.03516.792v2.8418h-.32324v-3.958h.51562l1.12109,2.86133.21582.69531h.00586l.22266-.68945,1.11523-2.86719h.52149Z"/><path class="cls-1" d="M39.9942,97.74488h-2.001a.25.25,0,0,1,0-.5h2.001a.25.25,0,1,1,0,.5Z"/><path class="cls-1" d="M39.9942,72.74976h0l-2.001-.001a.25.25,0,1,1,0-.5h0l2.001.001a.25.25,0,0,1,0,.5Z"/><path class="cls-1" d="M39.9942,122.74488h-2.001a.25.25,0,0,1,0-.5h2.001a.25.25,0,1,1,0,.5Z"/><path class="cls-1" d="M115.99615,149.74585a.25048.25048,0,0,1-.25-.25v-2a.25.25,0,1,1,.5,0v2A.25048.25048,0,0,1,115.99615,149.74585Z"/><path class="cls-1" d="M77.99518,149.74585a.25048.25048,0,0,1-.25-.25v-2a.25.25,0,0,1,.5,0v2A.25048.25048,0,0,1,77.99518,149.74585Z"/><path class="cls-1" d="M190.73248,149.74585a.25048.25048,0,0,1-.25-.25v-2a.25.25,0,0,1,.5,0v2A.25048.25048,0,0,1,190.73248,149.74585Z"/><path class="cls-1" d="M153.99713,149.74585a.25048.25048,0,0,1-.25-.25v-2a.25.25,0,0,1,.5,0v2A.25048.25048,0,0,1,153.99713,149.74585Z"/><path class="cls-4" d="M219.92872,155.51659v3.958h-.34179V156.5c0-.16114.00586-.3418.01172-.52735a2.06739,2.06739,0,0,1-1.03711.624l-.08985-.30567a2.3,2.3,0,0,0,1.15821-.77441Z"/><path class="cls-4" d="M222.18458,155.51659v3.958h-.34179V156.5c0-.16114.00586-.3418.01171-.52735a2.06732,2.06732,0,0,1-1.0371.624l-.08985-.30567a2.29992,2.29992,0,0,0,1.1582-.77441Z"/><path class="cls-4" d="M223.85255,156.73436a.29689.29689,0,1,1-.59375,0,.29689.29689,0,0,1,.59375,0Zm0,2.49414a.29689.29689,0,1,1-.29883-.2998A.28066.28066,0,0,1,223.85255,159.2285Z"/><path class="cls-4" d="M224.71193,157.49608c0-1.31934.50976-2.03906,1.45117-2.03906s1.45117.71972,1.45117,2.03906-.50977,2.03809-1.45117,2.03809S224.71193,158.81542,224.71193,157.49608Zm2.54882,0c0-1.12109-.38476-1.7334-1.09765-1.7334-.709,0-1.09766.61231-1.09766,1.7334s.38867,1.73242,1.09766,1.73242C226.876,159.2285,227.26075,158.61717,227.26075,157.49608Z"/><path class="cls-4" d="M228.37794,157.49608c0-1.31934.50977-2.03906,1.45117-2.03906s1.45118.71972,1.45118,2.03906-.50977,2.03809-1.45118,2.03809S228.37794,158.81542,228.37794,157.49608Zm2.54883,0c0-1.12109-.38477-1.7334-1.09766-1.7334-.709,0-1.09765.61231-1.09765,1.7334s.38867,1.73242,1.09765,1.73242C230.542,159.2285,230.92677,158.61717,230.92677,157.49608Z"/><path class="cls-4" d="M236.21193,158.26952h-1.8711l-.47461,1.20508h-.35937l1.57226-3.958h.40625l1.56641,3.958h-.35937Zm-.127-.31738-.64648-1.64942-.15625-.45605h-.01172l-.14453.4375-.66016,1.668Z"/><path class="cls-4" d="M241.52833,159.4746h-.33008v-2.8418l.03516-.792-1.41406,3.63379h-.30664l-1.40821-3.63379h-.00585l.03515.792v2.8418h-.32422v-3.958h.51563l1.12109,2.86133.2168.69531h.00586l.22265-.68945,1.11524-2.86719h.52148Z"/><path class="cls-1" d="M40.00006,97.74976h-2a.25.25,0,0,1,0-.5h2a.25.25,0,1,1,0,.5Z"/><path class="cls-4" d="M26.07027,46.50437a.9346.9346,0,0,1-.55762.88769v.00586A1.04446,1.04446,0,0,1,26.25,48.4116c0,.68945-.56934,1.127-1.43945,1.127-.86329,0-1.43848-.4375-1.43848-1.127a1.04461,1.04461,0,0,1,.74316-1.01368v-.00586a.92807.92807,0,0,1-.56347-.88769c0-.6416.49707-1.03711,1.25879-1.03711S26.07027,45.86277,26.07027,46.50437Zm-.31836,1.85937c0-.456-.37109-.73193-.9414-.73193-.56348,0-.94141.27588-.94141.73193,0,.44971.36621.72559.94141.72559C25.39254,49.08933,25.75191,48.81345,25.75191,48.36374Zm-1.70312-1.811c0,.38965.30664.62939.76172.62939.456,0,.76171-.23974.76171-.62939,0-.40186-.29394-.63574-.76171-.63574S24.04879,46.15085,24.04879,46.55271Z"/><path class="cls-4" d="M27.04976,47.5c0-1.32519.51563-2.03857,1.47559-2.03857C29.48433,45.4614,30,46.17478,30,47.5s-.51563,2.03858-1.47461,2.03858C27.56539,49.53855,27.04976,48.82517,27.04976,47.5Zm2.45313,0c0-1.04345-.3418-1.60693-.97754-1.60693s-.97754.56348-.97754,1.60693.3418,1.60743.97754,1.60743S29.50289,48.54343,29.50289,47.5Z"/><path class="cls-4" d="M26.664,70.521v.31787A5.22893,5.22893,0,0,0,25.18256,74.479H24.829a5.49094,5.49094,0,0,1,1.46289-3.64014H23.80365V70.521Z"/><path class="cls-4" d="M27.09759,72.5c0-1.31933.50977-2.03857,1.45118-2.03857s1.45117.71924,1.45117,2.03857-.50977,2.03858-1.45117,2.03858S27.09759,73.81931,27.09759,72.5Zm2.54883,0c0-1.12109-.38379-1.73291-1.09765-1.73291-.708,0-1.09766.61182-1.09766,1.73291,0,1.12159.38965,1.73291,1.09766,1.73291C29.26263,74.23288,29.64642,73.62156,29.64642,72.5Z"/><path class="cls-4" d="M26.27533,96.2529l-.3125.14991a.84948.84948,0,0,0-.88867-.624c-.7793,0-1.17969.83985-1.17969,1.80518,0,.102.00586.21.01758.33594h.02343a1.08825,1.08825,0,0,1,1.13282-.89942,1.26,1.26,0,1,1-.02344,2.51807c-.96484,0-1.47461-.80322-1.47461-2.03858,0-1.34326.66016-2.03857,1.5293-2.03857A1.13809,1.13809,0,0,1,26.27533,96.2529ZM24.08,98.27341a.9079.9079,0,0,0,.959.9419.93307.93307,0,1,0,.00586-1.86524A.9222.9222,0,0,0,24.08,98.27341Z"/><path class="cls-4" d="M27.09759,97.5c0-1.31933.50977-2.03857,1.45118-2.03857s1.45117.71924,1.45117,2.03857-.50977,2.03858-1.45117,2.03858S27.09759,98.81931,27.09759,97.5Zm2.54883,0c0-1.12109-.38281-1.73291-1.09765-1.73291-.707,0-1.09766.61182-1.09766,1.73291,0,1.12159.39062,1.73291,1.09766,1.73291C29.26361,99.23288,29.64642,98.62156,29.64642,97.5Z"/><path class="cls-4" d="M26.37,123.24949a1.21969,1.21969,0,0,1-1.31933,1.28906,1.28512,1.28512,0,0,1-1.373-.92285l.33008-.168a.93537.93537,0,0,0,1.03125.77344.90087.90087,0,0,0,.97754-.95313.87949.87949,0,0,0-.94727-.96,1.12442,1.12442,0,0,0-.9834.43164h-.2998l.21582-2.21875h2.20019v.31836H24.289l-.15527,1.46289-.00586.07813h.00586a1.2438,1.2438,0,0,1,.99511-.38965A1.18463,1.18463,0,0,1,26.37,123.24949Z"/><path class="cls-4" d="M27.09758,122.50046c0-1.31933.50977-2.03906,1.45117-2.03906s1.45118.71973,1.45118,2.03906-.50977,2.03809-1.45118,2.03809S27.09758,123.8198,27.09758,122.50046Zm2.54883,0c0-1.12109-.38379-1.7334-1.09766-1.7334-.708,0-1.09765.61231-1.09765,1.7334s.38965,1.73242,1.09765,1.73242C29.26262,124.23288,29.64641,123.62156,29.64641,122.50046Z"/><path class="cls-4" d="M26.37108,148.44089h-.70117V149.479h-.48047v-1.03809H23.2578v-.35351l1.80664-2.56641h.60547v2.50684h.70117Zm-2.60351-.41308h1.42187v-1.48145l.02344-.63574h-.01172a5.52143,5.52143,0,0,1-.39649.66016Z"/><path class="cls-4" d="M27.05077,147.49949c0-1.3252.51562-2.03809,1.47461-2.03809S30,146.17429,30,147.49949s-.51563,2.03906-1.47461,2.03906S27.05077,148.82468,27.05077,147.49949Zm2.45312,0c0-1.043-.34179-1.60645-.97851-1.60645-.63477,0-.97656.56348-.97656,1.60645,0,1.04394.34179,1.60742.97656,1.60742C29.1621,149.10691,29.50389,148.54343,29.50389,147.49949Z"/><path class="cls-1" d="M40.00006,72.74976h-2a.25.25,0,0,1,0-.5h2a.25.25,0,1,1,0,.5Z"/><path class="cls-1" d="M40.00006,122.74976h-2a.25.25,0,0,1,0-.5h2a.25.25,0,1,1,0,.5Z"/><rect class="cls-5" width="270" height="177.5"/><rect class="cls-1" x="134.5" width="34" height="7"/><rect class="cls-1" x="20" width="97" height="7"/><rect class="cls-1" x="20" y="14.5" width="74.5" height="4"/></g></g></svg>