<svg xmlns="http://www.w3.org/2000/svg" xmlns:xlink="http://www.w3.org/1999/xlink" width="180.5" height="161.5" viewBox="0 0 180.5 161.5"><defs><style>.cls-1{fill:none;}.cls-2{fill:#ddd;}.cls-3{fill:#fff;}.cls-4{opacity:0.5;}.cls-5{clip-path:url(#clip-path);}</style><clipPath id="clip-path"><rect class="cls-1" x="12.7495" y="30.25" width="152.5005" height="102.5"/></clipPath></defs><g id="Layer_2" data-name="Layer 2"><g id="Layer_2-2" data-name="Layer 2"><rect class="cls-2" x="107.5" width="34" height="7"/><rect class="cls-2" x="5" width="97" height="7"/><rect class="cls-2" x="5" y="14.5" width="74.5" height="4"/><path class="cls-2" d="M15,68.5s13.899,56.754,30,57c15.224.232,15.215-49.363,30-53,10.648-2.619,19.036,32.216,30,32,16.544-.325,13.857-55.366,30-59,11.808-2.658,30,38,30,38v47H15Z"/><path class="cls-2" d="M165,131.49993H15a.99974.99974,0,0,1-1-1v-62a.99995.99995,0,0,1,1.97119-.23828c3.81592,15.57715,16.47168,56.0459,29.044,56.23828.02881.001.05859.001.0874.001,7.001,0,10.76465-12.89649,14.40625-25.37207,3.6875-12.63086,7.5-25.69336,15.25244-27.59961,6.17432-1.52735,11.10254,7.06152,16.31739,16.1455,4.4663,7.78125,9.08447,15.82618,13.81982,15.82618.02734,0,.0542,0,.082-.001,7.6543-.15039,11.07861-14.459,14.38965-28.2959,3.38379-14.13965,6.88232-28.75977,15.41016-30.67969,12.2666-2.74511,29.23681,34.3291,31.13232,38.56739a.99558.99558,0,0,1,.0874.4082v47A.99974.99974,0,0,1,165,131.49993Zm-149-2H164V83.7138c-5.05273-11.2334-19.80029-39.26368-28.78027-37.23829-7.312,1.64551-10.66358,15.6504-13.9043,29.19336-3.64892,15.24805-7.09521,29.65039-16.2959,29.83106-.0415.001-.08349.001-.12548.001-5.88965,0-10.583-8.17676-15.5503-16.83008-4.61621-8.04395-9.38818-16.36524-14.105-15.2002C68.606,75.10247,64.957,87.60149,61.42872,99.68938c-4.02392,13.78613-7.82715,26.81055-16.3164,26.81153-.043,0-.08448,0-.12744-.001C31.773,126.29778,20.43214,91.65813,16,76.0888Z"/><rect class="cls-3" x="10" y="62.5" width="5" height="74"/><rect class="cls-3" x="12" y="130.5" width="164.95996" height="10"/><g class="cls-4"><g class="cls-5"><g class="cls-5"><path class="cls-2" d="M165,81.00091H13a.5.5,0,0,1,0-1H165a.5.5,0,0,1,0,1Z"/><path class="cls-2" d="M164.99952,56.00579l-152-.001a.5.5,0,1,1,0-1l152,.001a.5.5,0,0,1,0,1Z"/><path class="cls-2" d="M165,106.00091H13a.5.5,0,0,1,0-1H165a.5.5,0,0,1,0,1Z"/><path class="cls-2" d="M75,132.999a.49972.49972,0,0,1-.5-.5V30.49993a.5.5,0,0,1,1,0V132.499A.49971.49971,0,0,1,75,132.999Z"/><path class="cls-2" d="M45,132.999a.49972.49972,0,0,1-.5-.5V30.49993a.5.5,0,0,1,1,0V132.499A.49971.49971,0,0,1,45,132.999Z"/><path class="cls-2" d="M134,132.999a.49972.49972,0,0,1-.5-.5V30.49993a.5.5,0,0,1,1,0V132.499A.49971.49971,0,0,1,134,132.999Z"/><path class="cls-2" d="M105,132.99993a.49972.49972,0,0,1-.5-.5V30.50091a.5.5,0,0,1,1,0v101.999A.49971.49971,0,0,1,105,132.99993Z"/></g></g></g><rect class="cls-3" x="12" y="66.5" width="3" height="6"/><path class="cls-2" d="M165,130.99993H15a.49972.49972,0,0,1-.5-.5v-100a.5.5,0,0,1,1,0v99.5H165a.5.5,0,1,1,0,1Z"/><path class="cls-2" d="M15,80.99895H13a.5.5,0,0,1,0-1h2a.5.5,0,1,1,0,1Z"/><path class="cls-2" d="M15.0005,56.00384h-2.001a.5.5,0,0,1,0-1h2.001a.5.5,0,1,1,0,1Z"/><path class="cls-2" d="M15,105.99993H13a.5.5,0,0,1,0-1h2a.5.5,0,1,1,0,1Z"/><path class="cls-2" d="M75,132.99993a.49972.49972,0,0,1-.5-.5v-2a.5.5,0,0,1,1,0v2A.49971.49971,0,0,1,75,132.99993Z"/><path class="cls-2" d="M45,132.99993a.49972.49972,0,0,1-.5-.5v-2a.5.5,0,0,1,1,0v2A.49971.49971,0,0,1,45,132.99993Z"/><path class="cls-2" d="M134,132.99993a.49972.49972,0,0,1-.5-.5v-2a.5.5,0,0,1,1,0v2A.49971.49971,0,0,1,134,132.99993Z"/><path class="cls-2" d="M105,132.99993a.49972.49972,0,0,1-.5-.5v-2a.5.5,0,0,1,1,0v2A.49971.49971,0,0,1,105,132.99993Z"/><rect class="cls-1" y="20.5" width="180.5" height="140"/><rect class="cls-1" width="180.5" height="161.5"/></g></g></svg>