<svg xmlns="http://www.w3.org/2000/svg" width="48" height="48" viewBox="0 0 48 48"><defs><style>.cls-1{fill:#553bf2;}.cls-2{fill:none;}</style></defs><g id="Layer_2" data-name="Layer 2"><g id="Layer_1-2" data-name="Layer 1"><path class="cls-1" d="M31.57227,16.23828a9.6827,9.6827,0,0,0-13.67188.19434c-4.98828,5.13281-4.39746,17.06152-4.36914,17.5664l.02441.44922.4502.02246c.09863.00489.62109.0293,1.43848.0293,3.47656,0,12.27441-.43164,16.31836-4.5918a9.666,9.666,0,0,0-.19043-13.66992Zm-12.95508.8916a8.66642,8.66642,0,0,1,14.88183,5.917c.004.28259-.00634.56311-.02881.84118a18.04134,18.04134,0,0,1-3.08642.58386l-.495-.0039a5.21454,5.21454,0,0,0-5.05188-6.53638c-.02636,0-.05175,0-.07714.001a5.23516,5.23516,0,0,0-5.16309,5.31054,5.27808,5.27808,0,0,0,.12061,1.04621A8.60088,8.60088,0,0,1,18,24.5a11.13119,11.13119,0,0,1-2.63306-.4093A14.65824,14.65824,0,0,1,18.61719,17.12988Zm9.25586,8.99317a4.23824,4.23824,0,1,1-3.09961-7.19043c.02148-.001.042-.001.0625-.001a4.23653,4.23653,0,0,1,3.03711,7.19141Z"/><rect class="cls-2" width="48" height="48"/></g></g></svg>