<svg xmlns="http://www.w3.org/2000/svg" width="480" height="177.5" viewBox="0 0 480 177.5"><defs><style>.cls-1{fill:#ddd;}.cls-2{fill:none;}</style></defs><g id="Layer_2" data-name="Layer 2"><g id="Layer_2-2" data-name="Layer 2"><path class="cls-1" d="M405.21735,149.74976a.25048.25048,0,0,1-.25-.25v-2a.25.25,0,0,1,.5,0v2A.25048.25048,0,0,1,405.21735,149.74976Z"/><path class="cls-1" d="M40,107.4353S65.10667,86.48936,74.7826,87.5c10.825,1.13063,23.92339,50.54545,34.78261,50,13.90657-.69851,21.0544-67.353,34.7826-70,12.12822-2.33852,22.48714,39.74277,34.78261,40,15.67372.32792,19.2178-57.85368,34.78261-60s19.49054,56.03305,34.78261,60c11.99609,3.11194,22.96571-36.085,34.78261-40,9.34208-3.09509,25.27748,17.65151,34.78261,20,8.7633,2.16521,25.99733-12.044,34.78261-10,12.05329,2.8044,22.491,39.56039,34.78261,40,13.9131.49761,20.899-48.84575,34.7826-50C430.42644,66.85,440,97.5,440,97.5v50H40V107.4353"/><path class="cls-1" d="M439.99958,147.74976h-400a.25048.25048,0,0,1-.25-.25v-100a.25.25,0,0,1,.5,0v99.75h399.75a.25.25,0,0,1,0,.5Z"/><path class="cls-1" d="M144.34821,149.74976a.25048.25048,0,0,1-.25-.25v-2a.25.25,0,0,1,.5,0v2A.25048.25048,0,0,1,144.34821,149.74976Z"/><path class="cls-1" d="M248.69587,149.74976a.25048.25048,0,0,1-.25-.25v-2a.25.25,0,0,1,.5,0v2A.25048.25048,0,0,1,248.69587,149.74976Z"/><path class="cls-1" d="M353.04353,149.74976a.25048.25048,0,0,1-.25-.25v-2a.25.25,0,1,1,.5,0v2A.25048.25048,0,0,1,353.04353,149.74976Z"/><path class="cls-1" d="M92.17438,149.74976a.25048.25048,0,0,1-.25-.25v-2a.25.25,0,0,1,.5,0v2A.25048.25048,0,0,1,92.17438,149.74976Z"/><path class="cls-1" d="M196.522,149.74976a.25048.25048,0,0,1-.25-.25v-2a.25.25,0,1,1,.5,0v2A.25048.25048,0,0,1,196.522,149.74976Z"/><path class="cls-1" d="M300.8697,149.74976a.25048.25048,0,0,1-.25-.25v-2a.25.25,0,1,1,.5,0v2A.25048.25048,0,0,1,300.8697,149.74976Z"/><path class="cls-1" d="M39.99958,97.74976h-2a.25.25,0,1,1,0-.5h2a.25.25,0,0,1,0,.5Z"/><path class="cls-1" d="M39.99958,72.74976h-2a.25.25,0,1,1,0-.5h2a.25.25,0,0,1,0,.5Z"/><path class="cls-1" d="M39.99958,122.74976h-2a.25.25,0,1,1,0-.5h2a.25.25,0,0,1,0,.5Z"/><rect class="cls-2" width="480" height="177.5"/><rect class="cls-1" x="134.5" width="34" height="7"/><rect class="cls-1" x="20" width="97" height="7"/><rect class="cls-1" x="20" y="14.5" width="74.5" height="4"/><rect class="cls-1" x="185" y="2" width="59.5" height="5"/><rect class="cls-1" x="255.5" y="2" width="42" height="5"/><rect class="cls-1" x="308.5" y="2" width="45" height="5"/><rect class="cls-1" x="363.5" y="2" width="96.5" height="5"/></g></g></svg>