<svg xmlns="http://www.w3.org/2000/svg" width="360" height="177.5" viewBox="0 0 360 177.5"><defs><style>.cls-1{fill:#ddd;}.cls-2{fill:none;}</style></defs><g id="Layer_2" data-name="Layer 2"><g id="Layer_2-2" data-name="Layer 2"><path class="cls-1" d="M295.65238,149.74991a.25048.25048,0,0,1-.25-.25v-2a.25.25,0,0,1,.5,0v2A.25048.25048,0,0,1,295.65238,149.74991Z"/><path class="cls-1" d="M40,107.4353S57.57466,86.48936,64.34781,87.5c7.57751,1.13063,16.74638,50.54545,24.34783,50,9.7346-.69851,14.73808-67.353,24.34783-70,8.48975-2.33852,15.741,39.74277,24.34782,40,10.97161.32792,13.45246-57.85368,24.34783-60s13.64338,56.03305,24.34783,60c8.39726,3.11194,16.076-36.085,24.34782-40,6.53946-3.09509,17.69424,17.65151,24.34783,20,6.13431,2.16521,18.19814-12.044,24.34783-10,8.4373,2.8044,15.74373,39.56039,24.34782,40,9.73918.49761,14.62931-48.84575,24.34783-50C313.29851,66.85,320,97.5,320,97.5v50H40V107.4353"/><path class="cls-1" d="M320,147.74991H40a.25048.25048,0,0,1-.25-.25v-100a.25.25,0,0,1,.5,0v99.75H320a.25.25,0,0,1,0,.5Z"/><path class="cls-1" d="M113.043,149.74991a.25048.25048,0,0,1-.25-.25v-2a.25.25,0,0,1,.5,0v2A.25048.25048,0,0,1,113.043,149.74991Z"/><path class="cls-1" d="M186.087,149.74991a.25048.25048,0,0,1-.25-.25v-2a.25.25,0,0,1,.5,0v2A.25048.25048,0,0,1,186.087,149.74991Z"/><path class="cls-1" d="M259.13089,149.74991a.25048.25048,0,0,1-.25-.25v-2a.25.25,0,0,1,.5,0v2A.25048.25048,0,0,1,259.13089,149.74991Z"/><path class="cls-1" d="M76.52152,149.74991a.25048.25048,0,0,1-.25-.25v-2a.25.25,0,0,1,.5,0v2A.25048.25048,0,0,1,76.52152,149.74991Z"/><path class="cls-1" d="M149.56546,149.74991a.25048.25048,0,0,1-.25-.25v-2a.25.25,0,0,1,.5,0v2A.25048.25048,0,0,1,149.56546,149.74991Z"/><path class="cls-1" d="M222.60843,149.74991a.25048.25048,0,0,1-.25-.25v-2a.25.25,0,0,1,.5,0v2A.25048.25048,0,0,1,222.60843,149.74991Z"/><path class="cls-1" d="M40,97.74991H38a.25.25,0,0,1,0-.5h2a.25.25,0,1,1,0,.5Z"/><path class="cls-1" d="M40,72.74991H38a.25.25,0,0,1,0-.5h2a.25.25,0,1,1,0,.5Z"/><path class="cls-1" d="M40,122.74991H38a.25.25,0,0,1,0-.5h2a.25.25,0,1,1,0,.5Z"/><rect class="cls-2" width="360" height="177.5"/><rect class="cls-1" x="134.5" width="34" height="7"/><rect class="cls-1" x="20" width="97" height="7"/><rect class="cls-1" x="20" y="14.5" width="74.5" height="4"/></g></g></svg>