<svg xmlns="http://www.w3.org/2000/svg" xmlns:xlink="http://www.w3.org/1999/xlink" width="540" height="177.5" viewBox="0 0 540 177.5"><defs><style>.cls-1{fill:none;}.cls-2{clip-path:url(#clip-path);}.cls-3{fill:#ddd;}.cls-4{fill:#fff;}.cls-5{fill:#aaa;}.cls-6{fill:gray;}</style><clipPath id="clip-path"><rect class="cls-1" y="37.5" width="540" height="140"/></clipPath></defs><g id="Layer_2" data-name="Layer 2"><g id="Layer_2-2" data-name="Layer 2"><g class="cls-2"><path class="cls-3" d="M40,107.4355s28.873-20.946,40-19.936c12.449,1.131,27.512,50.546,40,50,15.993-.698,24.212-67.352,40-70,13.947-2.338,25.86,39.744,40,40,18.025.329,22.101-57.853,40-60,17.899-2.146,22.414,56.034,40,60,13.795,3.113,26.411-36.085,40-40,10.743-3.094,29.069,17.652,40,20,10.078,2.165,29.897-12.043,40-10,13.861,2.805,25.865,39.561,40,40,16,.499,24.034-48.845,40-50,8.99-.65,20,30,20,30v50H40v-40"/><path class="cls-3" d="M500,148.49971H40a1.00005,1.00005,0,0,1-1-1v-40l.00049-.03027a1.00058,1.00058,0,0,1,.41211-.84327c1.1914-.86425,29.32129-21.15039,40.67773-20.12256,6.63037.60254,13.30127,12.65137,20.36426,25.40772,6.44678,11.64355,13.7334,24.83887,19.502,24.58936,7.43848-.32471,13.54-17.62256,19.44141-34.35059,6.21045-17.60547,12.07617-34.23438,20.43652-35.63672,7.8086-1.31348,14.415,9.15772,21.41748,20.23731,6.10059,9.65234,12.40918,19.63378,18.76612,19.749.04345.001.08691.00146.12988.00146,8.36621,0,13.87744-14.7832,19.2085-29.082,5.71-15.31592,11.103-29.78222,20.52441-30.91211,10.06348-1.21191,15.76416,13.959,21.79932,30.01563,5.21289,13.86963,10.60351,28.21142,18.54,30.00146,6.84717,1.544,13.94776-9.23,20.813-19.6499,6.252-9.48975,12.15723-18.45312,18.68994-20.33545,6.74073-1.94385,15.74854,4.49024,24.46094,10.71,6.00781,4.28906,11.68262,8.34033,16.02588,9.27344,4.76172,1.02,12.25781-2.01074,19.50684-4.94482,7.7959-3.15479,15.15722-6.13477,20.48144-5.05762,7.0791,1.43213,13.26709,10.57715,19.81787,20.25879,6.49024,9.59179,13.20118,19.51025,20.01514,19.72168,7.43506.21533,13.48682-12.24219,19.31836-24.30616,6.23486-12.89794,12.124-25.08007,20.57812-25.69189,9.49512-.71484,19.85987,27.44922,21.01319,30.65967A.99648.99648,0,0,1,501,97.49971v50A1.00005,1.00005,0,0,1,500,148.49971Zm-459-2H499V97.67451c-3.05273-8.44043-12.23877-29.69873-18.92773-29.17724-7.30127.52783-13.209,12.74853-18.92188,24.56689-6.32178,13.07813-12.29834,25.438-20.8999,25.43945-.09424,0-.187-.00146-.28174-.00439-7.835-.24316-14.52539-10.13135-21.60889-20.59961-6.03759-8.92285-12.28076-18.14941-18.5581-19.41992-4.73584-.95313-12.15625,2.04639-19.33447,4.95166-7.87647,3.1875-15.31641,6.20019-20.67725,5.0459-4.74854-1.02-10.58692-5.188-16.76807-9.60108-8.32568-5.94336-16.93457-12.09228-22.74511-10.41552-5.82276,1.67773-11.79639,10.74511-17.57374,19.51416-7,10.62548-13.64306,20.706-21.08349,20.70752a8.33365,8.33365,0,0,1-1.83984-.207c-8.98877-2.02734-14.57227-16.88281-19.97168-31.249-5.49756-14.62842-11.19629-29.75928-19.689-28.73389-8.21143.98536-13.63965,15.54493-18.88867,29.62549-5.82422,15.62158-11.32861,30.38184-21.07178,30.3833-.05957,0-.11719-.00048-.17676-.00146-7.43505-.13477-13.74267-10.11475-20.42041-20.68067-6.34521-10.03955-12.90966-20.42382-19.396-19.333-7.19727,1.207-13.13721,18.04541-18.88184,34.32959-6.40381,18.15332-12.45215,35.29931-21.24023,35.6831-.083.00391-.166.00537-.24951.00537-6.90137,0-13.79541-12.45117-21.08887-25.624-6.5-11.73926-13.22119-23.87793-18.79541-24.38428C69.97559,87.58027,44.5542,105.41865,41,107.94942Z"/></g><rect class="cls-4" x="33" y="105.5" width="7" height="44"/><rect class="cls-4" x="38" y="147.5" width="462" height="4"/><path class="cls-3" d="M500,148.0002H40a.50034.50034,0,0,1-.5-.5v-100a.5.5,0,0,1,1,0v99.5H500a.5.5,0,0,1,0,1Z"/><path class="cls-3" d="M160,150.0002a.49972.49972,0,0,1-.5-.5v-2a.5.5,0,0,1,1,0v2A.49972.49972,0,0,1,160,150.0002Z"/><path class="cls-3" d="M280,150.0002a.49972.49972,0,0,1-.5-.5v-2a.5.5,0,0,1,1,0v2A.49972.49972,0,0,1,280,150.0002Z"/><path class="cls-3" d="M400,150.0002a.49972.49972,0,0,1-.5-.5v-2a.5.5,0,1,1,1,0v2A.49972.49972,0,0,1,400,150.0002Z"/><path class="cls-3" d="M460,150.0002a.49972.49972,0,0,1-.5-.5v-2a.5.5,0,1,1,1,0v2A.49972.49972,0,0,1,460,150.0002Z"/><path class="cls-3" d="M100,150.0002a.49972.49972,0,0,1-.5-.5v-2a.5.5,0,0,1,1,0v2A.49972.49972,0,0,1,100,150.0002Z"/><path class="cls-3" d="M220,150.0002a.49972.49972,0,0,1-.5-.5v-2a.5.5,0,0,1,1,0v2A.49972.49972,0,0,1,220,150.0002Z"/><path class="cls-3" d="M340,150.0002a.49972.49972,0,0,1-.5-.5v-2a.5.5,0,0,1,1,0v2A.49972.49972,0,0,1,340,150.0002Z"/><path class="cls-3" d="M40,98.0002H38a.5.5,0,0,1,0-1h2a.5.5,0,0,1,0,1Z"/><path class="cls-5" d="M26.0698,46.50371a.93345.93345,0,0,1-.557.888v.006a1.04414,1.04414,0,0,1,.737,1.013c0,.69-.569,1.127-1.439,1.127-.864,0-1.439-.437-1.439-1.127a1.04429,1.04429,0,0,1,.743-1.013v-.006a.92922.92922,0,0,1-.563-.888c0-.641.497-1.037,1.259-1.037.761,0,1.259.396,1.259,1.037m-.318,1.86c0-.457-.371-.732-.941-.732-.564,0-.942.275-.942.732,0,.45.367.725.942.725.582,0,.941-.275.941-.725m-1.703-1.811c0,.39.307.629.762.629.456,0,.761-.239.761-.629,0-.402-.294-.636-.761-.636-.468,0-.762.234-.762.636"/><path class="cls-5" d="M27.0499,47.5c0-1.325.516-2.039,1.475-2.039s1.475.714,1.475,2.039-.516,2.038-1.475,2.038-1.475-.713-1.475-2.038m2.453,0c0-1.044-.342-1.607-.978-1.607-.635,0-.977.563-.977,1.607,0,1.043.342,1.607.977,1.607.636,0,.978-.564.978-1.607"/><path class="cls-5" d="M26.6641,70.5205v.318a5.229,5.229,0,0,0-1.481,3.64h-.354a5.4928,5.4928,0,0,1,1.463-3.64h-2.488v-.318Z"/><path class="cls-5" d="M27.0975,72.5c0-1.319.51-2.039,1.451-2.039.942,0,1.452.72,1.452,2.039s-.51,2.038-1.452,2.038c-.941,0-1.451-.719-1.451-2.038m2.549,0c0-1.121-.384-1.733-1.098-1.733-.708,0-1.097.612-1.097,1.733s.389,1.732,1.097,1.732c.714,0,1.098-.611,1.098-1.732"/><path class="cls-5" d="M26.2751,96.2524l-.312.15a.84987.84987,0,0,0-.889-.624c-.779,0-1.18.84-1.18,1.806,0,.101.006.21.018.335h.023a1.08918,1.08918,0,0,1,1.133-.899,1.26,1.26,0,1,1-.023,2.518c-.965,0-1.475-.803-1.475-2.038,0-1.344.66-2.04,1.53-2.04a1.13769,1.13769,0,0,1,1.175.792m-2.195,2.021a.90725.90725,0,0,0,.959.941.933.933,0,1,0,.006-1.865.92262.92262,0,0,0-.965.924"/><path class="cls-5" d="M27.0975,97.5c0-1.319.51-2.039,1.451-2.039.942,0,1.452.72,1.452,2.039s-.51,2.038-1.452,2.038c-.941,0-1.451-.719-1.451-2.038m2.549,0c0-1.121-.383-1.733-1.098-1.733-.707,0-1.097.612-1.097,1.733s.39,1.732,1.097,1.732c.715,0,1.098-.611,1.098-1.732"/><path class="cls-5" d="M26.3701,123.249a1.21981,1.21981,0,0,1-1.319,1.289,1.285,1.285,0,0,1-1.373-.923l.33-.168a.93525.93525,0,0,0,1.031.774.90018.90018,0,0,0,.977-.953.87909.87909,0,0,0-.947-.96,1.1249,1.1249,0,0,0-.983.431h-.3l.216-2.219h2.2v.319h-1.913l-.155,1.463-.006.078h.006a1.24232,1.24232,0,0,1,.995-.39,1.18472,1.18472,0,0,1,1.241,1.259"/><path class="cls-5" d="M27.0975,122.5c0-1.319.51-2.039,1.451-2.039.942,0,1.452.72,1.452,2.039s-.51,2.038-1.452,2.038c-.941,0-1.451-.719-1.451-2.038m2.549,0c0-1.121-.384-1.733-1.098-1.733-.708,0-1.097.612-1.097,1.733s.389,1.732,1.097,1.732c.714,0,1.098-.611,1.098-1.732"/><path class="cls-5" d="M26.3716,148.4403h-.702v1.038h-.48v-1.038h-1.932v-.353l1.807-2.567h.605v2.507h.702Zm-2.604-.413h1.422v-1.481l.023-.636h-.011a5.6039,5.6039,0,0,1-.397.66Z"/><path class="cls-5" d="M27.0509,147.499c0-1.325.516-2.038,1.474-2.038.959,0,1.475.713,1.475,2.038s-.516,2.039-1.475,2.039c-.958,0-1.474-.714-1.474-2.039m2.453,0c0-1.043-.342-1.606-.979-1.606-.634,0-.976.563-.976,1.606,0,1.044.342,1.607.976,1.607.637,0,.979-.563.979-1.607"/><path class="cls-3" d="M40,73.0002H38a.5.5,0,0,1,0-1h2a.5.5,0,0,1,0,1Z"/><path class="cls-3" d="M40,123.0002H38a.5.5,0,0,1,0-1h2a.5.5,0,0,1,0,1Z"/><path class="cls-5" d="M453.04,158.249a1.21982,1.21982,0,0,1-1.319,1.289,1.285,1.285,0,0,1-1.373-.923l.33-.168a.93527.93527,0,0,0,1.031.774.90021.90021,0,0,0,.977-.953.87909.87909,0,0,0-.947-.96,1.1249,1.1249,0,0,0-.983.431h-.3l.216-2.219h2.2v.319h-1.913l-.155,1.463-.006.078h.006a1.24231,1.24231,0,0,1,.995-.39,1.18473,1.18473,0,0,1,1.241,1.259"/><path class="cls-5" d="M454.46289,156.7384a.297.297,0,1,1-.594,0,.297.297,0,0,1,.594,0m0,2.494a.297.297,0,1,1-.3-.3.2814.2814,0,0,1,.3.3"/><path class="cls-5" d="M455.32108,157.5c0-1.319.51-2.039,1.451-2.039.942,0,1.452.72,1.452,2.039s-.51,2.038-1.452,2.038c-.941,0-1.451-.719-1.451-2.038m2.549,0c0-1.121-.384-1.733-1.098-1.733-.708,0-1.097.612-1.097,1.733s.389,1.732,1.097,1.732c.714,0,1.098-.611,1.098-1.732"/><path class="cls-5" d="M458.98709,157.5c0-1.319.51-2.039,1.451-2.039.942,0,1.452.72,1.452,2.039s-.51,2.038-1.452,2.038c-.941,0-1.451-.719-1.451-2.038m2.549,0c0-1.121-.384-1.733-1.098-1.733-.708,0-1.097.612-1.097,1.733s.389,1.732,1.097,1.732c.714,0,1.098-.611,1.098-1.732"/><path class="cls-5" d="M467.48776,156.6904c0,.726-.522,1.169-1.337,1.169h-.99v1.619h-.341v-3.958h1.331c.815,0,1.337.444,1.337,1.17m-.354,0c0-.546-.348-.852-1.025-.852h-.948v1.704h.948c.677,0,1.025-.306,1.025-.852"/><polygon class="cls-5" points="472.089 159.479 471.759 159.479 471.759 156.637 471.795 155.845 470.38 159.479 470.074 159.479 468.665 155.845 468.659 155.845 468.694 156.637 468.694 159.479 468.371 159.479 468.371 155.521 468.887 155.521 470.008 158.382 470.224 159.078 470.23 159.078 470.452 158.388 471.568 155.521 472.089 155.521 472.089 159.479"/><polygon class="cls-6" points="494.395 168.999 494.395 169.449 491.648 169.449 491.648 165.491 492.126 165.491 492.126 168.999 494.395 168.999"/><path class="cls-6" d="M497.84351,169.0714l-.029.378a1.08564,1.08564,0,0,1-.359.059.46945.46945,0,0,1-.539-.443,1.18687,1.18687,0,0,1-.967.443c-.563,0-1.02-.263-1.02-.803,0-.45.397-.804,1.17-.936l.797-.132v-.168a.62928.62928,0,0,0-.701-.659.87971.87971,0,0,0-.858.569l-.353-.257a1.21969,1.21969,0,0,1,1.211-.732c.683,0,1.181.324,1.181,1.02v1.475c0,.144.061.216.229.216a1.07673,1.07673,0,0,0,.238-.03m-.947-.63v-.414l-.672.126c-.527.097-.797.27-.797.552,0,.252.203.383.545.383.481,0,.924-.251.924-.647"/><path class="cls-6" d="M500.25781,169.2393a1.11757,1.11757,0,0,1-.773.27.75254.75254,0,0,1-.834-.804v-1.841h-.6v-.414h.6v-.719l.48-.133v.852h1.109v.414h-1.109v1.757a.40659.40659,0,0,0,.449.438.68652.68652,0,0,0,.51-.222Z"/><path class="cls-6" d="M503.4845,168.1301h-2.26a.94933.94933,0,0,0,.977.959.81086.81086,0,0,0,.845-.444l.403.21a1.28535,1.28535,0,0,1-1.248.654,1.3894,1.3894,0,0,1-1.451-1.559,1.36326,1.36326,0,0,1,1.416-1.559,1.29747,1.29747,0,0,1,1.341,1.403,2.38565,2.38565,0,0,1-.023.336m-2.254-.426h1.816c-.066-.552-.371-.894-.88-.894a.9034.9034,0,0,0-.936.894"/><path class="cls-6" d="M504.15231,168.8311l.391-.27a.93335.93335,0,0,0,.947.528c.492,0,.725-.197.725-.444,0-.221-.186-.353-.786-.461-.851-.157-1.164-.39-1.164-.894,0-.485.451-.899,1.182-.899a1.08342,1.08342,0,0,1,1.187.719l-.408.241a.7288.7288,0,0,0-.779-.541c-.4,0-.701.216-.701.438,0,.258.197.39.81.492.838.138,1.139.39,1.139.881,0,.522-.486.888-1.254.888a1.36869,1.36869,0,0,1-1.289-.678"/><path class="cls-6" d="M509.418,169.2393a1.11758,1.11758,0,0,1-.773.27.75343.75343,0,0,1-.834-.804v-1.841h-.6v-.414h.6v-.719l.48-.133v.852H509.4v.414h-1.109v1.757a.40659.40659,0,0,0,.449.438.68013.68013,0,0,0,.51-.222Z"/><path class="cls-5" d="M91.6602,155.5205v3.958h-.342v-2.975c0-.162.006-.341.012-.527a2.05856,2.05856,0,0,1-1.037.623l-.09-.306a2.301,2.301,0,0,0,1.158-.773Z"/><path class="cls-5" d="M93.916,155.5205v3.958h-.342v-2.975c0-.162.006-.341.012-.527a2.05856,2.05856,0,0,1-1.037.623l-.09-.306a2.30109,2.30109,0,0,0,1.158-.773Z"/><path class="cls-5" d="M95.584,156.7374a.297.297,0,1,1-.594,0,.297.297,0,0,1,.594,0m0,2.495a.297.297,0,1,1-.299-.3.2811.2811,0,0,1,.299.3"/><path class="cls-5" d="M96.4432,157.499c0-1.319.51-2.038,1.451-2.038.942,0,1.452.719,1.452,2.038s-.51,2.039-1.452,2.039c-.941,0-1.451-.72-1.451-2.039m2.549,0c0-1.121-.385-1.732-1.098-1.732-.709,0-1.097.611-1.097,1.732,0,1.122.388,1.733,1.097,1.733.713,0,1.098-.611,1.098-1.733"/><path class="cls-5" d="M100.1092,157.499c0-1.319.51-2.038,1.451-2.038.942,0,1.452.719,1.452,2.038s-.51,2.039-1.452,2.039c-.941,0-1.451-.72-1.451-2.039m2.549,0c0-1.121-.385-1.732-1.098-1.732-.709,0-1.097.611-1.097,1.732,0,1.122.388,1.733,1.097,1.733.713,0,1.098-.611,1.098-1.733"/><path class="cls-5" d="M108.60989,156.6895c0,.726-.522,1.17-1.338,1.17h-.989v1.619h-.341v-3.958h1.33c.816,0,1.338.443,1.338,1.169m-.354,0c0-.545-.348-.852-1.025-.852h-.948v1.704h.948c.677,0,1.025-.306,1.025-.852"/><polygon class="cls-5" points="113.211 159.479 112.881 159.479 112.881 156.636 112.916 155.845 111.502 159.479 111.195 159.479 109.787 155.845 109.781 155.845 109.816 156.636 109.816 159.479 109.492 159.479 109.492 155.521 110.008 155.521 111.129 158.381 111.346 159.077 111.352 159.077 111.574 158.387 112.69 155.521 113.211 155.521 113.211 159.479"/><path class="cls-5" d="M151.40041,159.1963c1.523-1.169,2.178-1.769,2.178-2.519a.85892.85892,0,0,0-.942-.899,1.01465,1.01465,0,0,0-1.031,1.056l-.301-.174a1.26179,1.26179,0,0,1,1.344-1.199,1.17012,1.17012,0,0,1,1.283,1.216c0,.787-.617,1.457-2.033,2.489v.007c.102-.007.342-.013.438-.013h1.716v.318h-2.652Z"/><path class="cls-5" d="M155.46291,156.7374a.28449.28449,0,0,1-.301.301.28141.28141,0,0,1-.293-.301.27557.27557,0,0,1,.293-.293.2788.2788,0,0,1,.301.293m0,2.495a.28272.28272,0,0,1-.301.294.297.297,0,0,1,0-.594.28423.28423,0,0,1,.301.3"/><path class="cls-5" d="M156.32008,157.499c0-1.319.51-2.038,1.451-2.038.942,0,1.452.719,1.452,2.038s-.51,2.039-1.452,2.039c-.941,0-1.451-.72-1.451-2.039m2.549,0c0-1.121-.383-1.732-1.098-1.732-.707,0-1.097.611-1.097,1.732,0,1.122.39,1.733,1.097,1.733.715,0,1.098-.611,1.098-1.733"/><path class="cls-5" d="M159.98619,157.499c0-1.319.51-2.038,1.451-2.038.942,0,1.452.719,1.452,2.038s-.51,2.039-1.452,2.039c-.941,0-1.451-.72-1.451-2.039m2.549,0c0-1.121-.383-1.732-1.098-1.732-.707,0-1.097.611-1.097,1.732,0,1.122.39,1.733,1.097,1.733.715,0,1.098-.611,1.098-1.733"/><path class="cls-5" d="M167.8223,158.2721h-1.871l-.475,1.206h-.359l1.572-3.958h.406l1.567,3.958h-.36Zm-.127-.317-.646-1.649-.157-.455h-.011l-.145.437-.66,1.667Z"/><polygon class="cls-5" points="173.137 159.479 172.807 159.479 172.807 156.636 172.844 155.845 171.428 159.479 171.123 159.479 169.713 155.845 169.707 155.845 169.742 156.636 169.742 159.479 169.42 159.479 169.42 155.521 169.936 155.521 171.057 158.381 171.272 159.077 171.278 159.077 171.5 158.387 172.616 155.521 173.137 155.521 173.137 159.479"/><path class="cls-5" d="M211.04,158.249a1.21981,1.21981,0,0,1-1.319,1.289,1.285,1.285,0,0,1-1.373-.923l.33-.168a.93525.93525,0,0,0,1.031.774.90019.90019,0,0,0,.977-.953.87909.87909,0,0,0-.947-.96,1.1249,1.1249,0,0,0-.983.431h-.3l.216-2.219h2.2v.319h-1.913l-.155,1.463-.006.078h.006a1.24228,1.24228,0,0,1,.995-.39,1.18473,1.18473,0,0,1,1.241,1.259"/><path class="cls-5" d="M212.46291,156.7384a.297.297,0,1,1-.594,0,.297.297,0,0,1,.594,0m0,2.494a.297.297,0,1,1-.3-.3.28138.28138,0,0,1,.3.3"/><path class="cls-5" d="M213.32109,157.5c0-1.319.51-2.039,1.451-2.039.942,0,1.452.72,1.452,2.039s-.51,2.038-1.452,2.038c-.941,0-1.451-.719-1.451-2.038m2.549,0c0-1.121-.384-1.733-1.098-1.733-.708,0-1.097.612-1.097,1.733s.389,1.732,1.097,1.732c.714,0,1.098-.611,1.098-1.732"/><path class="cls-5" d="M216.98709,157.5c0-1.319.51-2.039,1.451-2.039.942,0,1.452.72,1.452,2.039s-.51,2.038-1.452,2.038c-.941,0-1.451-.719-1.451-2.038m2.549,0c0-1.121-.384-1.733-1.098-1.733-.708,0-1.097.612-1.097,1.733s.389,1.732,1.097,1.732c.714,0,1.098-.611,1.098-1.732"/><path class="cls-5" d="M224.8223,158.2731h-1.871l-.474,1.205h-.359l1.571-3.958h.407l1.566,3.958h-.36Zm-.126-.317-.647-1.649-.156-.456h-.012l-.144.437-.66,1.668Z"/><polygon class="cls-5" points="230.138 159.479 229.808 159.479 229.808 156.637 229.844 155.845 228.429 159.479 228.123 159.479 226.714 155.845 226.708 155.845 226.743 156.637 226.743 159.479 226.42 159.479 226.42 155.521 226.936 155.521 228.057 158.382 228.273 159.078 228.279 159.078 228.501 158.388 229.617 155.521 230.138 155.521 230.138 159.479"/><path class="cls-5" d="M271.66858,156.4807a.927.927,0,0,1-.666.911v.006a1.05908,1.05908,0,0,1,.84,1.032c0,.671-.563,1.108-1.409,1.108-.84,0-1.409-.437-1.409-1.108a1.05856,1.05856,0,0,1,.845-1.032v-.006a.91693.91693,0,0,1-.666-.911c0-.624.48-1.014,1.23-1.014.749,0,1.235.39,1.235,1.014m-.179,1.919c0-.504-.42-.834-1.056-.834-.624,0-1.056.33-1.056.834,0,.498.42.821,1.056.821.642,0,1.056-.323,1.056-.821m-1.932-1.889c0,.443.349.731.876.731.533,0,.882-.288.882-.731,0-.45-.342-.726-.882-.726-.534,0-.876.276-.876.726"/><path class="cls-5" d="M273.30179,156.7384a.297.297,0,1,1-.594,0,.297.297,0,0,1,.594,0m0,2.494a.297.297,0,1,1-.3-.3.2814.2814,0,0,1,.3.3"/><path class="cls-5" d="M274.16,157.5c0-1.319.51-2.039,1.451-2.039.942,0,1.452.72,1.452,2.039s-.51,2.038-1.452,2.038c-.941,0-1.451-.719-1.451-2.038m2.549,0c0-1.121-.384-1.733-1.098-1.733-.708,0-1.097.612-1.097,1.733s.389,1.732,1.097,1.732c.714,0,1.098-.611,1.098-1.732"/><path class="cls-5" d="M277.826,157.5c0-1.319.51-2.039,1.451-2.039.942,0,1.452.72,1.452,2.039s-.51,2.038-1.452,2.038c-.941,0-1.451-.719-1.451-2.038m2.549,0c0-1.121-.384-1.733-1.098-1.733-.708,0-1.097.612-1.097,1.733s.389,1.732,1.097,1.732c.714,0,1.098-.611,1.098-1.732"/><path class="cls-5" d="M285.66019,158.2731h-1.871l-.474,1.205h-.359l1.571-3.958h.407l1.566,3.958h-.36Zm-.126-.317-.647-1.649-.156-.456h-.012l-.144.437-.66,1.668Z"/><polygon class="cls-5" points="290.976 159.479 290.646 159.479 290.646 156.637 290.682 155.845 289.267 159.479 288.961 159.479 287.552 155.845 287.546 155.845 287.581 156.637 287.581 159.479 287.258 159.479 287.258 155.521 287.774 155.521 288.895 158.382 289.111 159.078 289.117 159.078 289.339 158.388 290.455 155.521 290.976 155.521 290.976 159.479"/><path class="cls-5" d="M329.92871,155.5205v3.958h-.342v-2.975c0-.161.006-.341.012-.527a2.06731,2.06731,0,0,1-1.037.624l-.09-.306a2.29673,2.29673,0,0,0,1.158-.774Z"/><path class="cls-5" d="M332.1846,155.5205v3.958h-.342v-2.975c0-.161.006-.341.012-.527a2.06731,2.06731,0,0,1-1.037.624l-.09-.306a2.29673,2.29673,0,0,0,1.158-.774Z"/><path class="cls-5" d="M333.85251,156.7384a.297.297,0,1,1-.594,0,.297.297,0,0,1,.594,0m0,2.494a.297.297,0,1,1-.299-.3.28059.28059,0,0,1,.299.3"/><path class="cls-5" d="M334.7117,157.5c0-1.319.51-2.039,1.451-2.039.942,0,1.452.72,1.452,2.039s-.51,2.038-1.452,2.038c-.941,0-1.451-.719-1.451-2.038m2.549,0c0-1.121-.385-1.733-1.098-1.733-.709,0-1.097.612-1.097,1.733s.388,1.732,1.097,1.732c.713,0,1.098-.611,1.098-1.732"/><path class="cls-5" d="M338.37778,157.5c0-1.319.51-2.039,1.451-2.039.942,0,1.452.72,1.452,2.039s-.51,2.038-1.452,2.038c-.941,0-1.451-.719-1.451-2.038m2.549,0c0-1.121-.385-1.733-1.098-1.733-.709,0-1.097.612-1.097,1.733s.388,1.732,1.097,1.732c.713,0,1.098-.611,1.098-1.732"/><path class="cls-5" d="M346.212,158.2731h-1.871l-.475,1.205h-.359l1.572-3.958h.406l1.567,3.958h-.36Zm-.127-.317-.646-1.649-.157-.456h-.011l-.145.437-.66,1.668Z"/><polygon class="cls-5" points="351.528 159.479 351.198 159.479 351.198 156.637 351.233 155.845 349.819 159.479 349.512 159.479 348.104 155.845 348.098 155.845 348.133 156.637 348.133 159.479 347.809 159.479 347.809 155.521 348.325 155.521 349.446 158.382 349.663 159.078 349.669 159.078 349.891 158.388 351.007 155.521 351.528 155.521 351.528 159.479"/><path class="cls-5" d="M389.2041,159.1973c1.523-1.17,2.178-1.77,2.178-2.519a.85965.85965,0,0,0-.942-.9,1.01463,1.01463,0,0,0-1.031,1.056l-.301-.174a1.26179,1.26179,0,0,1,1.344-1.199,1.17035,1.17035,0,0,1,1.283,1.217c0,.786-.617,1.457-2.033,2.489v.006c.102-.006.342-.012.438-.012h1.716v.317h-2.652Z"/><path class="cls-5" d="M393.2666,156.7384a.28422.28422,0,0,1-.301.3.28114.28114,0,0,1-.293-.3.27636.27636,0,0,1,.293-.294.27957.27957,0,0,1,.301.294m0,2.494a.28218.28218,0,0,1-.301.294.297.297,0,0,1,0-.594.28422.28422,0,0,1,.301.3"/><path class="cls-5" d="M394.1239,157.5c0-1.319.51-2.039,1.451-2.039.942,0,1.452.72,1.452,2.039s-.51,2.038-1.452,2.038c-.941,0-1.451-.719-1.451-2.038m2.549,0c0-1.121-.383-1.733-1.098-1.733-.707,0-1.097.612-1.097,1.733s.39,1.732,1.097,1.732c.715,0,1.098-.611,1.098-1.732"/><path class="cls-5" d="M397.78989,157.5c0-1.319.51-2.039,1.451-2.039.942,0,1.452.72,1.452,2.039s-.51,2.038-1.452,2.038c-.941,0-1.451-.719-1.451-2.038m2.549,0c0-1.121-.383-1.733-1.098-1.733-.707,0-1.097.612-1.097,1.733s.39,1.732,1.097,1.732c.715,0,1.098-.611,1.098-1.732"/><path class="cls-5" d="M406.29047,156.6904c0,.726-.522,1.169-1.336,1.169h-.991v1.619h-.341v-3.958h1.332c.814,0,1.336.444,1.336,1.17m-.354,0c0-.546-.348-.852-1.025-.852h-.948v1.704h.948c.677,0,1.025-.306,1.025-.852"/><polygon class="cls-5" points="410.892 159.479 410.562 159.479 410.562 156.637 410.599 155.845 409.183 159.479 408.878 159.479 407.468 155.845 407.462 155.845 407.497 156.637 407.497 159.479 407.175 159.479 407.175 155.521 407.691 155.521 408.812 158.382 409.027 159.078 409.033 159.078 409.255 158.388 410.371 155.521 410.892 155.521 410.892 159.479"/><path class="cls-5" d="M493.106,156.5037a.93348.93348,0,0,1-.557.888v.006a1.04414,1.04414,0,0,1,.737,1.013c0,.69-.569,1.127-1.439,1.127-.864,0-1.439-.437-1.439-1.127a1.04427,1.04427,0,0,1,.743-1.013v-.006a.92924.92924,0,0,1-.563-.888c0-.641.497-1.037,1.259-1.037.761,0,1.259.396,1.259,1.037m-.318,1.86c0-.457-.371-.732-.941-.732-.564,0-.942.275-.942.732,0,.45.367.725.942.725.582,0,.941-.275.941-.725m-1.703-1.811c0,.39.307.629.762.629.456,0,.761-.239.761-.629,0-.402-.294-.636-.761-.636-.468,0-.762.234-.762.636"/><path class="cls-5" d="M494.9736,156.8104a.38951.38951,0,1,1-.39-.39.36846.36846,0,0,1,.39.39m0,2.339a.38951.38951,0,1,1-.39-.391.3682.3682,0,0,1,.39.391"/><path class="cls-5" d="M495.86151,157.5c0-1.325.516-2.039,1.475-2.039s1.475.714,1.475,2.039-.516,2.038-1.475,2.038-1.475-.713-1.475-2.038m2.453,0c0-1.044-.342-1.607-.978-1.607-.635,0-.977.563-.977,1.607,0,1.043.342,1.607.977,1.607.636,0,.978-.564.978-1.607"/><path class="cls-5" d="M499.5939,157.5c0-1.325.516-2.039,1.475-2.039s1.475.714,1.475,2.039-.516,2.038-1.475,2.038-1.475-.713-1.475-2.038m2.453,0c0-1.044-.342-1.607-.978-1.607-.635,0-.977.563-.977,1.607,0,1.043.342,1.607.977,1.607.636,0,.978-.564.978-1.607"/><path class="cls-5" d="M508.35748,156.7266a1.19182,1.19182,0,0,1-1.331,1.205h-.918v1.547h-.48v-3.958h1.398a1.192,1.192,0,0,1,1.331,1.206m-.504,0c0-.492-.275-.756-.899-.756h-.846v1.511h.846c.624,0,.899-.264.899-.755"/><polygon class="cls-5" points="513.115 159.479 512.659 159.479 512.659 156.991 512.713 155.947 512.707 155.947 511.406 159.479 510.998 159.479 509.697 155.947 509.691 155.947 509.745 156.991 509.745 159.479 509.289 159.479 509.289 155.521 510.026 155.521 510.896 157.926 511.196 158.916 511.208 158.916 511.513 157.932 512.378 155.521 513.115 155.521 513.115 159.479"/><rect class="cls-3" x="134.5" width="34" height="7"/><rect class="cls-3" x="20" width="97" height="7"/><rect class="cls-3" x="20" y="14.5" width="74.5" height="4"/><rect class="cls-3" x="245" y="2" width="59.5" height="5"/><rect class="cls-3" x="315.5" y="2" width="42" height="5"/><rect class="cls-3" x="368.5" y="2" width="45" height="5"/><rect class="cls-3" x="423.5" y="2" width="96.5" height="5"/><rect class="cls-1" width="540" height="177.5"/></g></g></svg>