<svg xmlns="http://www.w3.org/2000/svg" width="360" height="177.5" viewBox="0 0 360 177.5"><defs><style>.cls-1{fill:#ddd;}.cls-2{fill:#aaa;}.cls-3{fill:gray;}.cls-4{fill:none;}</style></defs><g id="Layer_2" data-name="Layer 2"><g id="Layer_2-2" data-name="Layer 2"><path class="cls-1" d="M295.65238,149.74991a.25048.25048,0,0,1-.25-.25v-2a.25.25,0,0,1,.5,0v2A.25048.25048,0,0,1,295.65238,149.74991Z"/><path class="cls-2" d="M287.474,158.24949a1.21969,1.21969,0,0,1-1.31934,1.28906,1.28511,1.28511,0,0,1-1.373-.92285l.33008-.168a.93536.93536,0,0,0,1.03125.77344.90086.90086,0,0,0,.97753-.95313.87949.87949,0,0,0-.94726-.96,1.12442,1.12442,0,0,0-.9834.43164H284.89l.21582-2.21875H287.306v.31836H285.3929l-.15528,1.46289-.00586.07813h.00586a1.24384,1.24384,0,0,1,.99512-.38965A1.18463,1.18463,0,0,1,287.474,158.24949Z"/><path class="cls-2" d="M288.8968,156.73874a.29689.29689,0,1,1-.59375,0,.29689.29689,0,0,1,.59375,0Zm0,2.49414a.29689.29689,0,1,1-.2998-.2998A.28144.28144,0,0,1,288.8968,159.23288Z"/><path class="cls-2" d="M289.7552,157.50046c0-1.31933.50977-2.03906,1.45117-2.03906s1.45117.71973,1.45117,2.03906-.50976,2.03809-1.45117,2.03809S289.7552,158.8198,289.7552,157.50046Zm2.54883,0c0-1.12109-.38379-1.7334-1.09766-1.7334-.708,0-1.09765.61231-1.09765,1.7334s.38964,1.73242,1.09765,1.73242C291.92024,159.23288,292.304,158.62156,292.304,157.50046Z"/><path class="cls-2" d="M293.42122,157.50046c0-1.31933.50976-2.03906,1.45117-2.03906s1.45117.71973,1.45117,2.03906-.50977,2.03809-1.45117,2.03809S293.42122,158.8198,293.42122,157.50046Zm2.54882,0c0-1.12109-.38379-1.7334-1.09765-1.7334-.708,0-1.09766.61231-1.09766,1.7334s.38965,1.73242,1.09766,1.73242C295.58625,159.23288,295.97,158.62156,295.97,157.50046Z"/><path class="cls-2" d="M301.92122,156.69089c0,.72559-.52149,1.16895-1.33692,1.16895H299.595V159.479h-.34179v-3.958h1.33105C301.39973,155.521,301.92122,155.96531,301.92122,156.69089Zm-.35352,0c0-.5459-.34766-.85156-1.02539-.85156H299.595v1.70312h.94727C301.22,157.54245,301.5677,157.23679,301.5677,156.69089Z"/><path class="cls-2" d="M306.52278,159.479h-.33008v-2.8418l.03613-.792-1.415,3.63379h-.30566l-1.40918-3.63379h-.00586l.03516.792v2.8418H302.805v-3.958h.51563l1.12109,2.86133.21582.69531h.00586l.22266-.68945,1.11523-2.86719h.52149Z"/><path class="cls-3" d="M312.63288,168.999v.45019h-2.7461v-3.958h.47852V168.999Z"/><path class="cls-3" d="M316.0821,169.07126l-.0293.37793a1.07692,1.07692,0,0,1-.35938.05957.47018.47018,0,0,1-.53906-.44336,1.18545,1.18545,0,0,1-.96679.44336c-.5625,0-1.01954-.26367-1.01954-.80371,0-.44922.39649-.80371,1.16993-.93554l.79687-.13184v-.168a.62919.62919,0,0,0-.70117-.65918.87768.87768,0,0,0-.85742.56934l-.35352-.25782a1.22032,1.22032,0,0,1,1.21094-.73144c.68359,0,1.18164.32422,1.18164,1.01953v1.47559c0,.14355.06055.21582.22852.21582A1.047,1.047,0,0,0,316.0821,169.07126Zm-.94727-.62988v-.41406l-.67187.126c-.52735.09668-.79688.27051-.79688.55176,0,.252.20313.38379.54492.38379C314.69147,169.08884,315.13483,168.83689,315.13483,168.44138Z"/><path class="cls-3" d="M318.49616,169.23923a1.11768,1.11768,0,0,1-.77344.26953.75294.75294,0,0,1-.834-.80371v-1.84082h-.59961v-.41406h.59961v-.71875l.48047-.13281v.85156h1.10937v.41406h-1.10937v1.75684a.40682.40682,0,0,0,.44921.43847.68393.68393,0,0,0,.50977-.22265Z"/><path class="cls-3" d="M321.72272,168.12986H319.463a.94857.94857,0,0,0,.97656.959.81138.81138,0,0,0,.8457-.44336l.40235.21a1.28539,1.28539,0,0,1-1.248.65332,1.38968,1.38968,0,0,1-1.45117-1.55859,1.36423,1.36423,0,0,1,1.416-1.55957,1.29856,1.29856,0,0,1,1.3418,1.40332A2.41914,2.41914,0,0,1,321.72272,168.12986Zm-2.2539-.42578h1.8164c-.0664-.55176-.37109-.89356-.88086-.89356A.903.903,0,0,0,319.46882,167.70408Z"/><path class="cls-3" d="M322.39069,168.831l.39063-.26953a.93519.93519,0,0,0,.94726.52734c.49219,0,.72461-.19726.72461-.44336,0-.22168-.18555-.35351-.78516-.46191-.85156-.15625-1.16406-.38965-1.16406-.89356,0-.48535.45117-.89941,1.18164-.89941a1.08386,1.08386,0,0,1,1.1875.71973l-.4082.24023a.72887.72887,0,0,0-.7793-.54c-.40039,0-.70117.21582-.70117.4375,0,.25781.19727.38965.81055.49219.83789.13769,1.13867.38965,1.13867.88086,0,.52246-.48633.88769-1.25391.88769A1.36855,1.36855,0,0,1,322.39069,168.831Z"/><path class="cls-3" d="M327.65632,169.23923a1.11768,1.11768,0,0,1-.77344.26953.75381.75381,0,0,1-.834-.80371v-1.84082h-.59961v-.41406h.59961v-.71875l.48047-.13281v.85156h1.10938v.41406h-1.10938v1.75684a.40683.40683,0,0,0,.44922.43847.67768.67768,0,0,0,.50977-.22265Z"/><path class="cls-2" d="M311.34473,156.50437a.93412.93412,0,0,1-.55762.88769v.00586a1.04489,1.04489,0,0,1,.7373,1.01368c0,.68945-.56933,1.12695-1.43945,1.12695-.86328,0-1.43848-.4375-1.43848-1.12695a1.045,1.045,0,0,1,.74317-1.01368v-.00586a.92759.92759,0,0,1-.56348-.88769c0-.6416.49707-1.03711,1.25879-1.03711S311.34473,155.86277,311.34473,156.50437Zm-.31836,1.85937c0-.45605-.3711-.73144-.94141-.73144-.56348,0-.94141.27539-.94141.73144,0,.4502.36622.72559.94141.72559C310.667,159.08933,311.02637,158.81394,311.02637,158.36374Zm-1.70313-1.81054c0,.38965.30664.6289.76172.6289.45606,0,.76172-.23925.76172-.6289,0-.40235-.29395-.63575-.76172-.63575S309.32324,156.15085,309.32324,156.5532Z"/><path class="cls-2" d="M313.21191,156.811a.38965.38965,0,1,1-.38964-.38965A.36854.36854,0,0,1,313.21191,156.811Zm0,2.33887a.38965.38965,0,1,1-.38964-.39063A.36777.36777,0,0,1,313.21191,159.14988Z"/><path class="cls-2" d="M314.09961,157.50046c0-1.32519.51562-2.03906,1.47559-2.03906.959,0,1.4746.71387,1.4746,2.03906s-.51562,2.03809-1.4746,2.03809C314.61523,159.53855,314.09961,158.82566,314.09961,157.50046Zm2.45312,0c0-1.04394-.34179-1.60742-.97753-1.60742s-.97754.56348-.97754,1.60742c0,1.043.34179,1.60742.97754,1.60742S316.55273,158.54343,316.55273,157.50046Z"/><path class="cls-2" d="M317.832,157.50046c0-1.32519.51563-2.03906,1.47559-2.03906.959,0,1.47461.71387,1.47461,2.03906s-.51563,2.03809-1.47461,2.03809C318.34766,159.53855,317.832,158.82566,317.832,157.50046Zm2.45313,0c0-1.04394-.3418-1.60742-.97754-1.60742s-.97754.56348-.97754,1.60742c0,1.043.3418,1.60742.97754,1.60742S320.28516,158.54343,320.28516,157.50046Z"/><path class="cls-2" d="M326.5957,156.727a1.19189,1.19189,0,0,1-1.33105,1.20507h-.918V159.479h-.47949v-3.958h1.39746A1.19209,1.19209,0,0,1,326.5957,156.727Zm-.5039,0c0-.49219-.27539-.75586-.89942-.75586h-.8457v1.51074h.8457C325.81641,157.48191,326.0918,157.21824,326.0918,156.727Z"/><path class="cls-2" d="M331.35352,159.479h-.45606V156.9907l.05371-1.04395h-.00586l-1.30078,3.53223h-.4082l-1.30078-3.53223h-.00586l.05371,1.04395V159.479h-.45606v-3.958h.73731l.87012,2.40527.2998.98926h.01172l.30566-.9834.86426-2.41113h.73731Z"/><path class="cls-1" d="M40,107.4353S57.57466,86.48936,64.34781,87.5c7.57751,1.13063,16.74638,50.54545,24.34783,50,9.7346-.69851,14.73808-67.353,24.34783-70,8.48975-2.33852,15.741,39.74277,24.34782,40,10.97161.32792,13.45246-57.85368,24.34783-60s13.64338,56.03305,24.34783,60c8.39726,3.11194,16.076-36.085,24.34782-40,6.53946-3.09509,17.69424,17.65151,24.34783,20,6.13431,2.16521,18.19814-12.044,24.34783-10,8.4373,2.8044,15.74373,39.56039,24.34782,40,9.73918.49761,14.62931-48.84575,24.34783-50C313.29851,66.85,320,97.5,320,97.5v50H40V107.4353"/><path class="cls-1" d="M320,147.74991H40a.25048.25048,0,0,1-.25-.25v-100a.25.25,0,0,1,.5,0v99.75H320a.25.25,0,0,1,0,.5Z"/><path class="cls-1" d="M113.043,149.74991a.25048.25048,0,0,1-.25-.25v-2a.25.25,0,0,1,.5,0v2A.25048.25048,0,0,1,113.043,149.74991Z"/><path class="cls-1" d="M186.087,149.74991a.25048.25048,0,0,1-.25-.25v-2a.25.25,0,0,1,.5,0v2A.25048.25048,0,0,1,186.087,149.74991Z"/><path class="cls-1" d="M259.13089,149.74991a.25048.25048,0,0,1-.25-.25v-2a.25.25,0,0,1,.5,0v2A.25048.25048,0,0,1,259.13089,149.74991Z"/><path class="cls-1" d="M76.52152,149.74991a.25048.25048,0,0,1-.25-.25v-2a.25.25,0,0,1,.5,0v2A.25048.25048,0,0,1,76.52152,149.74991Z"/><path class="cls-1" d="M149.56546,149.74991a.25048.25048,0,0,1-.25-.25v-2a.25.25,0,0,1,.5,0v2A.25048.25048,0,0,1,149.56546,149.74991Z"/><path class="cls-1" d="M222.60843,149.74991a.25048.25048,0,0,1-.25-.25v-2a.25.25,0,0,1,.5,0v2A.25048.25048,0,0,1,222.60843,149.74991Z"/><path class="cls-1" d="M40,97.74991H38a.25.25,0,0,1,0-.5h2a.25.25,0,1,1,0,.5Z"/><path class="cls-2" d="M26.07027,46.50437a.9346.9346,0,0,1-.55762.88769v.00586A1.04446,1.04446,0,0,1,26.25,48.4116c0,.68945-.56934,1.127-1.43945,1.127-.86329,0-1.43848-.4375-1.43848-1.127a1.04461,1.04461,0,0,1,.74316-1.01368v-.00586a.92807.92807,0,0,1-.56347-.88769c0-.6416.49707-1.03711,1.25879-1.03711S26.07027,45.86277,26.07027,46.50437Zm-.31836,1.85937c0-.456-.37109-.73193-.9414-.73193-.56348,0-.94141.27588-.94141.73193,0,.44971.36621.72559.94141.72559C25.39254,49.08933,25.75191,48.81345,25.75191,48.36374Zm-1.70312-1.811c0,.38965.30664.62939.76172.62939.456,0,.76171-.23974.76171-.62939,0-.40186-.29394-.63574-.76171-.63574S24.04879,46.15085,24.04879,46.55271Z"/><path class="cls-2" d="M27.04976,47.5c0-1.32519.51563-2.03857,1.47559-2.03857C29.48433,45.4614,30,46.17478,30,47.5s-.51563,2.03858-1.47461,2.03858C27.56539,49.53855,27.04976,48.82517,27.04976,47.5Zm2.45313,0c0-1.04345-.3418-1.60693-.97754-1.60693s-.97754.56348-.97754,1.60693.3418,1.60743.97754,1.60743S29.50289,48.54343,29.50289,47.5Z"/><path class="cls-2" d="M26.664,70.521v.31787A5.22893,5.22893,0,0,0,25.18256,74.479H24.829a5.49094,5.49094,0,0,1,1.46289-3.64014H23.80365V70.521Z"/><path class="cls-2" d="M27.09759,72.5c0-1.31933.50977-2.03857,1.45118-2.03857s1.45117.71924,1.45117,2.03857-.50977,2.03858-1.45117,2.03858S27.09759,73.81931,27.09759,72.5Zm2.54883,0c0-1.12109-.38379-1.73291-1.09765-1.73291-.708,0-1.09766.61182-1.09766,1.73291,0,1.12159.38965,1.73291,1.09766,1.73291C29.26263,74.23288,29.64642,73.62156,29.64642,72.5Z"/><path class="cls-2" d="M26.27533,96.2529l-.3125.14991a.84948.84948,0,0,0-.88867-.624c-.7793,0-1.17969.83985-1.17969,1.80518,0,.102.00586.21.01758.33594h.02343a1.08825,1.08825,0,0,1,1.13282-.89942,1.26,1.26,0,1,1-.02344,2.51807c-.96484,0-1.47461-.80322-1.47461-2.03858,0-1.34326.66016-2.03857,1.5293-2.03857A1.13809,1.13809,0,0,1,26.27533,96.2529ZM24.08,98.27341a.9079.9079,0,0,0,.959.9419.93307.93307,0,1,0,.00586-1.86524A.9222.9222,0,0,0,24.08,98.27341Z"/><path class="cls-2" d="M27.09759,97.5c0-1.31933.50977-2.03857,1.45118-2.03857s1.45117.71924,1.45117,2.03857-.50977,2.03858-1.45117,2.03858S27.09759,98.81931,27.09759,97.5Zm2.54883,0c0-1.12109-.38281-1.73291-1.09765-1.73291-.707,0-1.09766.61182-1.09766,1.73291,0,1.12159.39062,1.73291,1.09766,1.73291C29.26361,99.23288,29.64642,98.62156,29.64642,97.5Z"/><path class="cls-2" d="M26.37,123.24949a1.21969,1.21969,0,0,1-1.31933,1.28906,1.28512,1.28512,0,0,1-1.373-.92285l.33008-.168a.93537.93537,0,0,0,1.03125.77344.90087.90087,0,0,0,.97754-.95313.87949.87949,0,0,0-.94727-.96,1.12442,1.12442,0,0,0-.9834.43164h-.2998l.21582-2.21875h2.20019v.31836H24.289l-.15527,1.46289-.00586.07813h.00586a1.2438,1.2438,0,0,1,.99511-.38965A1.18463,1.18463,0,0,1,26.37,123.24949Z"/><path class="cls-2" d="M27.09758,122.50046c0-1.31933.50977-2.03906,1.45117-2.03906s1.45118.71973,1.45118,2.03906-.50977,2.03809-1.45118,2.03809S27.09758,123.8198,27.09758,122.50046Zm2.54883,0c0-1.12109-.38379-1.7334-1.09766-1.7334-.708,0-1.09765.61231-1.09765,1.7334s.38965,1.73242,1.09765,1.73242C29.26262,124.23288,29.64641,123.62156,29.64641,122.50046Z"/><path class="cls-2" d="M26.37108,148.44089h-.70117V149.479h-.48047v-1.03809H23.2578v-.35351l1.80664-2.56641h.60547v2.50684h.70117Zm-2.60351-.41308h1.42187v-1.48145l.02344-.63574h-.01172a5.52143,5.52143,0,0,1-.39649.66016Z"/><path class="cls-2" d="M27.05077,147.49949c0-1.3252.51562-2.03809,1.47461-2.03809S30,146.17429,30,147.49949s-.51563,2.03906-1.47461,2.03906S27.05077,148.82468,27.05077,147.49949Zm2.45312,0c0-1.043-.34179-1.60645-.97851-1.60645-.63477,0-.97656.56348-.97656,1.60645,0,1.04394.34179,1.60742.97656,1.60742C29.1621,149.10691,29.50389,148.54343,29.50389,147.49949Z"/><path class="cls-1" d="M40,72.74991H38a.25.25,0,0,1,0-.5h2a.25.25,0,1,1,0,.5Z"/><path class="cls-1" d="M40,122.74991H38a.25.25,0,0,1,0-.5h2a.25.25,0,1,1,0,.5Z"/><path class="cls-2" d="M66.47485,155.521v3.958h-.34179v-2.97461c0-.16211.00586-.3418.01172-.52734a2.05888,2.05888,0,0,1-1.03711.623l-.08985-.30566A2.30427,2.30427,0,0,0,66.176,155.521Z"/><path class="cls-2" d="M68.73071,155.521v3.958h-.34179v-2.97461c0-.16211.00586-.3418.01171-.52734a2.05881,2.05881,0,0,1-1.0371.623l-.08985-.30566a2.3042,2.3042,0,0,0,1.1582-.77344Z"/><path class="cls-2" d="M70.39868,156.73777a.2969.2969,0,1,1-.59375,0,.2969.2969,0,0,1,.59375,0Zm0,2.49511a.29689.29689,0,1,1-.29883-.2998A.28118.28118,0,0,1,70.39868,159.23288Z"/><path class="cls-2" d="M71.25806,157.49949c0-1.31934.50976-2.03809,1.45117-2.03809s1.45117.71875,1.45117,2.03809-.50977,2.03906-1.45117,2.03906S71.25806,158.81882,71.25806,157.49949Zm2.54882,0c0-1.1211-.38476-1.73243-1.09765-1.73243-.709,0-1.09766.61133-1.09766,1.73243,0,1.12207.38867,1.73339,1.09766,1.73339C73.42212,159.23288,73.80688,158.62156,73.80688,157.49949Z"/><path class="cls-2" d="M74.92407,157.49949c0-1.31934.50977-2.03809,1.45117-2.03809s1.45118.71875,1.45118,2.03809-.50977,2.03906-1.45118,2.03906S74.92407,158.81882,74.92407,157.49949Zm2.54883,0c0-1.1211-.38477-1.73243-1.09766-1.73243-.709,0-1.09765.61133-1.09765,1.73243,0,1.12207.38867,1.73339,1.09765,1.73339C77.08813,159.23288,77.4729,158.62156,77.4729,157.49949Z"/><path class="cls-2" d="M83.42407,156.68992c0,.72558-.52148,1.16992-1.33789,1.16992H81.0979V159.479h-.3418v-3.958h1.33008C82.90259,155.521,83.42407,155.96433,83.42407,156.68992Zm-.35351,0c0-.54493-.34766-.85157-1.02539-.85157H81.0979v1.70313h.94727C82.7229,157.54148,83.07056,157.23581,83.07056,156.68992Z"/><path class="cls-2" d="M88.02563,159.479h-.33007V156.6362l.03515-.791L86.31665,159.479H86.01l-1.4082-3.63379H84.596l.03515.791V159.479h-.32422v-3.958h.51563l1.12109,2.86035.2168.69531h.00586l.22266-.68945,1.11523-2.86621h.52148Z"/><path class="cls-2" d="M102.22316,159.19675c1.52343-1.16894,2.17773-1.76855,2.17773-2.51855a.85829.85829,0,0,0-.94141-.89942,1.01446,1.01446,0,0,0-1.03125,1.05567l-.30078-.17383a1.2619,1.2619,0,0,1,1.34375-1.19922,1.17064,1.17064,0,0,1,1.28321,1.2168c0,.78613-.61719,1.457-2.03321,2.48828v.00683c.10157-.00683.3418-.01269.4375-.01269h1.7168v.31836h-2.65234Z"/><path class="cls-2" d="M106.28566,156.73777a.28448.28448,0,0,1-.30078.30078.28148.28148,0,0,1-.293-.30078.27577.27577,0,0,1,.293-.293A.27892.27892,0,0,1,106.28566,156.73777Zm0,2.49511a.28276.28276,0,0,1-.30078.29395.2969.2969,0,0,1,0-.59375A.28422.28422,0,0,1,106.28566,159.23288Z"/><path class="cls-2" d="M107.14308,157.49949c0-1.31934.50976-2.03809,1.45117-2.03809s1.45117.71875,1.45117,2.03809-.50976,2.03906-1.45117,2.03906S107.14308,158.81882,107.14308,157.49949Zm2.54883,0c0-1.1211-.38282-1.73243-1.09766-1.73243-.707,0-1.09766.61133-1.09766,1.73243,0,1.12207.39063,1.73339,1.09766,1.73339C109.30909,159.23288,109.69191,158.62156,109.69191,157.49949Z"/><path class="cls-2" d="M110.80909,157.49949c0-1.31934.50977-2.03809,1.45118-2.03809s1.45117.71875,1.45117,2.03809-.50977,2.03906-1.45117,2.03906S110.80909,158.81882,110.80909,157.49949Zm2.54883,0c0-1.1211-.38281-1.73243-1.09765-1.73243-.707,0-1.09766.61133-1.09766,1.73243,0,1.12207.39062,1.73339,1.09766,1.73339C112.97511,159.23288,113.35792,158.62156,113.35792,157.49949Z"/><path class="cls-2" d="M118.645,158.27292h-1.87109l-.47461,1.20606H115.94l1.57227-3.958h.40625l1.56641,3.958h-.35938Zm-.127-.31738-.64649-1.64941-.15625-.45508h-.01171l-.14454.4375-.66015,1.667Z"/><path class="cls-2" d="M123.95948,159.479h-.33007V156.6362l.03711-.791-1.416,3.63379h-.30469l-1.41015-3.63379h-.00586l.03515.791V159.479h-.32226v-3.958h.51562l1.1211,2.86035.21484.69531h.00586l.22266-.68945L123.438,155.521h.52148Z"/><path class="cls-2" d="M141.36257,158.24949a1.21969,1.21969,0,0,1-1.31933,1.28906,1.28512,1.28512,0,0,1-1.37305-.92285l.33008-.168a.93537.93537,0,0,0,1.03125.77344.90087.90087,0,0,0,.97754-.95313.87949.87949,0,0,0-.94727-.96,1.12442,1.12442,0,0,0-.9834.43164h-.2998l.21582-2.21875h2.20019v.31836h-1.91308l-.15528,1.46289-.00585.07813h.00585a1.24384,1.24384,0,0,1,.99512-.38965A1.18463,1.18463,0,0,1,141.36257,158.24949Z"/><path class="cls-2" d="M142.78542,156.73874a.29689.29689,0,1,1-.59375,0,.29689.29689,0,0,1,.59375,0Zm0,2.49414a.29689.29689,0,1,1-.2998-.2998A.28144.28144,0,0,1,142.78542,159.23288Z"/><path class="cls-2" d="M143.64382,157.50046c0-1.31933.50977-2.03906,1.45117-2.03906s1.45118.71973,1.45118,2.03906-.50977,2.03809-1.45118,2.03809S143.64382,158.8198,143.64382,157.50046Zm2.54883,0c0-1.12109-.38379-1.7334-1.09766-1.7334-.708,0-1.09765.61231-1.09765,1.7334s.38965,1.73242,1.09765,1.73242C145.80886,159.23288,146.19265,158.62156,146.19265,157.50046Z"/><path class="cls-2" d="M147.30984,157.50046c0-1.31933.50976-2.03906,1.45117-2.03906s1.45117.71973,1.45117,2.03906-.50976,2.03809-1.45117,2.03809S147.30984,158.8198,147.30984,157.50046Zm2.54883,0c0-1.12109-.38379-1.7334-1.09766-1.7334-.708,0-1.09766.61231-1.09766,1.7334s.38965,1.73242,1.09766,1.73242C149.47488,159.23288,149.85867,158.62156,149.85867,157.50046Z"/><path class="cls-2" d="M155.1448,158.2739h-1.87109l-.47364,1.20508h-.35937l1.57129-3.958h.40722l1.56543,3.958h-.35937Zm-.126-.31738-.64746-1.64942-.15527-.45605h-.0127l-.14355.4375-.66016,1.668Z"/><path class="cls-2" d="M160.46023,159.479h-.33008v-2.8418l.03613-.792-1.415,3.63379h-.30566l-1.40918-3.63379h-.00586l.03516.792v2.8418h-.32324v-3.958h.51562l1.12109,2.86133.21582.69531h.00586l.22266-.68945,1.11523-2.86719h.52149Z"/><path class="cls-2" d="M177.7559,156.48093a.9264.9264,0,0,1-.666.91113v.00586a1.06006,1.06006,0,0,1,.83984,1.03223c0,.6709-.56347,1.1084-1.40918,1.1084-.83984,0-1.40918-.4375-1.40918-1.1084a1.05942,1.05942,0,0,1,.84571-1.03223v-.00586a.9166.9166,0,0,1-.666-.91113c0-.624.47949-1.01367,1.22949-1.01367C177.26957,155.46726,177.7559,155.85691,177.7559,156.48093Zm-.17969,1.91895c0-.50391-.41992-.834-1.05567-.834-.624,0-1.05566.33008-1.05566.834,0,.498.41992.82129,1.05566.82129C177.16215,159.22117,177.57621,158.89792,177.57621,158.39988Zm-1.93164-1.88868c0,.44336.34863.73145.876.73145.53321,0,.88184-.28809.88184-.73145,0-.45019-.3418-.72558-.88184-.72558C175.98636,155.78562,175.64457,156.061,175.64457,156.5112Z"/><path class="cls-2" d="M179.38871,156.73874a.29689.29689,0,1,1-.59375,0,.29689.29689,0,0,1,.59375,0Zm0,2.49414a.29689.29689,0,1,1-.29981-.2998A.28145.28145,0,0,1,179.38871,159.23288Z"/><path class="cls-2" d="M180.24711,157.50046c0-1.31933.50976-2.03906,1.45117-2.03906s1.45117.71973,1.45117,2.03906-.50977,2.03809-1.45117,2.03809S180.24711,158.8198,180.24711,157.50046Zm2.54882,0c0-1.12109-.38378-1.7334-1.09765-1.7334-.708,0-1.09766.61231-1.09766,1.7334s.38965,1.73242,1.09766,1.73242C182.41215,159.23288,182.79593,158.62156,182.79593,157.50046Z"/><path class="cls-2" d="M183.91312,157.50046c0-1.31933.50977-2.03906,1.45117-2.03906s1.45118.71973,1.45118,2.03906-.50977,2.03809-1.45118,2.03809S183.91312,158.8198,183.91312,157.50046Zm2.54883,0c0-1.12109-.38379-1.7334-1.09766-1.7334-.708,0-1.09765.61231-1.09765,1.7334s.38965,1.73242,1.09765,1.73242C186.07816,159.23288,186.462,158.62156,186.462,157.50046Z"/><path class="cls-2" d="M191.74711,158.2739H189.876l-.47363,1.20508H189.043l1.57128-3.958h.40723l1.56543,3.958h-.35937Zm-.126-.31738-.64746-1.64942-.15527-.45605h-.0127l-.14355.4375-.66016,1.668Z"/><path class="cls-2" d="M197.06254,159.479h-.33008v-2.8418l.03613-.792-1.415,3.63379h-.30566l-1.40918-3.63379h-.00586l.03516.792v2.8418h-.32325v-3.958h.51563l1.12109,2.86133.21582.69531h.00586l.22266-.68945,1.11523-2.86719h.52149Z"/><path class="cls-2" d="M212.5374,155.521v3.958h-.34179v-2.97461c0-.16113.00585-.3418.01171-.52734a2.06735,2.06735,0,0,1-1.03711.624l-.08984-.30567a2.29992,2.29992,0,0,0,1.1582-.77441Z"/><path class="cls-2" d="M214.79326,155.521v3.958h-.3418v-2.97461c0-.16113.00586-.3418.01172-.52734a2.06735,2.06735,0,0,1-1.03711.624l-.08984-.30567a2.29992,2.29992,0,0,0,1.1582-.77441Z"/><path class="cls-2" d="M216.46123,156.73874a.29689.29689,0,1,1-.59375,0,.29689.29689,0,0,1,.59375,0Zm0,2.49414a.29689.29689,0,1,1-.29883-.2998A.28066.28066,0,0,1,216.46123,159.23288Z"/><path class="cls-2" d="M217.32061,157.50046c0-1.31933.50976-2.03906,1.45117-2.03906s1.45117.71973,1.45117,2.03906-.50977,2.03809-1.45117,2.03809S217.32061,158.8198,217.32061,157.50046Zm2.54882,0c0-1.12109-.38476-1.7334-1.09765-1.7334-.709,0-1.09766.61231-1.09766,1.7334s.38867,1.73242,1.09766,1.73242C219.48467,159.23288,219.86943,158.62156,219.86943,157.50046Z"/><path class="cls-2" d="M220.98662,157.50046c0-1.31933.50977-2.03906,1.45117-2.03906s1.45117.71973,1.45117,2.03906-.50976,2.03809-1.45117,2.03809S220.98662,158.8198,220.98662,157.50046Zm2.54883,0c0-1.12109-.38477-1.7334-1.09766-1.7334-.709,0-1.09765.61231-1.09765,1.7334s.38867,1.73242,1.09765,1.73242C223.15068,159.23288,223.53545,158.62156,223.53545,157.50046Z"/><path class="cls-2" d="M228.82061,158.2739h-1.8711l-.47461,1.20508h-.35937l1.57226-3.958h.40625l1.56641,3.958h-.35938Zm-.127-.31738-.64648-1.64942-.15625-.45605h-.01172l-.14453.4375-.66016,1.668Z"/><path class="cls-2" d="M234.137,159.479h-.33008v-2.8418l.03516-.792L232.428,159.479h-.30664l-1.40821-3.63379h-.00586l.03516.792v2.8418h-.32422v-3.958h.51563l1.12109,2.86133.2168.69531h.00586l.22265-.68945,1.11524-2.86719h.52148Z"/><path class="cls-2" d="M248.33453,159.19773c1.52344-1.16992,2.17774-1.76953,2.17774-2.51856a.859.859,0,0,0-.94141-.90039,1.01445,1.01445,0,0,0-1.03125,1.05567l-.30078-.17383a1.26189,1.26189,0,0,1,1.34375-1.19922,1.17086,1.17086,0,0,1,1.2832,1.21777c0,.78516-.61718,1.457-2.0332,2.48828v.00586c.10156-.00586.3418-.01171.4375-.01171h1.7168v.31738h-2.65235Z"/><path class="cls-2" d="M252.397,156.73874a.28422.28422,0,0,1-.30078.29981.28121.28121,0,0,1-.293-.29981.27654.27654,0,0,1,.293-.29394A.27966.27966,0,0,1,252.397,156.73874Zm0,2.49414a.28223.28223,0,0,1-.30078.29395.2969.2969,0,0,1,0-.59375A.28422.28422,0,0,1,252.397,159.23288Z"/><path class="cls-2" d="M253.25446,157.50046c0-1.31933.50976-2.03906,1.45117-2.03906s1.45117.71973,1.45117,2.03906-.50977,2.03809-1.45117,2.03809S253.25446,158.8198,253.25446,157.50046Zm2.54882,0c0-1.12109-.38281-1.7334-1.09765-1.7334-.707,0-1.09766.61231-1.09766,1.7334s.39063,1.73242,1.09766,1.73242C255.42047,159.23288,255.80328,158.62156,255.80328,157.50046Z"/><path class="cls-2" d="M256.92047,157.50046c0-1.31933.50977-2.03906,1.45117-2.03906s1.45117.71973,1.45117,2.03906-.50976,2.03809-1.45117,2.03809S256.92047,158.8198,256.92047,157.50046Zm2.54883,0c0-1.12109-.38281-1.7334-1.09766-1.7334-.707,0-1.09765.61231-1.09765,1.7334s.39062,1.73242,1.09765,1.73242C259.08649,159.23288,259.4693,158.62156,259.4693,157.50046Z"/><path class="cls-2" d="M265.42047,156.69089c0,.72559-.52148,1.16895-1.33594,1.16895h-.99023V159.479h-.3418v-3.958h1.332C264.899,155.521,265.42047,155.96531,265.42047,156.69089Zm-.35351,0c0-.5459-.34766-.85156-1.0254-.85156h-.94726v1.70312h.94726C264.7193,157.54245,265.067,157.23679,265.067,156.69089Z"/><path class="cls-2" d="M270.022,159.479H269.692v-2.8418l.0371-.792-1.416,3.63379h-.30469l-1.41015-3.63379h-.00586l.03515.792v2.8418h-.32226v-3.958h.51562l1.1211,2.86133.21484.69531h.00586l.22265-.68945,1.11524-2.86719h.52148Z"/><rect class="cls-4" width="360" height="177.5"/><rect class="cls-1" x="134.5" width="34" height="7"/><rect class="cls-1" x="20" width="97" height="7"/><rect class="cls-1" x="20" y="14.5" width="74.5" height="4"/></g></g></svg>