<svg xmlns="http://www.w3.org/2000/svg" xmlns:xlink="http://www.w3.org/1999/xlink" width="540" height="177.5" viewBox="0 0 540 177.5"><defs><style>.cls-1{fill:none;}.cls-2{clip-path:url(#clip-path);}.cls-3{fill:#ddd;}.cls-4{fill:#fff;}</style><clipPath id="clip-path"><rect class="cls-1" y="37.5" width="540" height="140"/></clipPath></defs><g id="Layer_2" data-name="Layer 2"><g id="Layer_2-2" data-name="Layer 2"><g class="cls-2"><path class="cls-3" d="M40,107.4355s28.873-20.946,40-19.936c12.449,1.131,27.512,50.546,40,50,15.993-.698,24.212-67.352,40-70,13.947-2.338,25.86,39.744,40,40,18.025.329,22.101-57.853,40-60,17.899-2.146,22.414,56.034,40,60,13.795,3.113,26.411-36.085,40-40,10.743-3.094,29.069,17.652,40,20,10.078,2.165,29.897-12.043,40-10,13.861,2.805,25.865,39.561,40,40,16,.499,24.034-48.845,40-50,8.99-.65,20,30,20,30v50H40v-40"/><path class="cls-3" d="M41,146.49971H499V97.67451c-3.05273-8.44043-12.23877-29.69873-18.92773-29.17724-7.30127.52783-13.209,12.74853-18.92188,24.56689-6.32178,13.07813-12.29834,25.438-20.8999,25.43945-.09424,0-.187-.00146-.28174-.00439-7.835-.24316-14.52539-10.13135-21.60889-20.59961-6.03759-8.92285-12.28076-18.14941-18.5581-19.41992-4.73584-.95313-12.15625,2.04639-19.33447,4.95166-7.87647,3.1875-15.31641,6.20019-20.67725,5.0459-4.74854-1.02-10.58692-5.188-16.76807-9.60108-8.32568-5.94336-16.93457-12.09228-22.74511-10.41552-5.82276,1.67773-11.79639,10.74511-17.57374,19.51416-7,10.62548-13.64306,20.706-21.08349,20.70752a8.33365,8.33365,0,0,1-1.83984-.207c-8.98877-2.02734-14.57227-16.88281-19.97168-31.249-5.49756-14.62842-11.19629-29.75928-19.689-28.73389-8.21143.98536-13.63965,15.54493-18.88867,29.62549-5.82422,15.62158-11.32861,30.38184-21.07178,30.3833-.05957,0-.11719-.00048-.17676-.00146-7.43505-.13477-13.74267-10.11475-20.42041-20.68067-6.34521-10.03955-12.90966-20.42382-19.396-19.333-7.19727,1.207-13.13721,18.04541-18.88184,34.32959-6.40381,18.15332-12.45215,35.29931-21.24023,35.6831-.083.00391-.166.00537-.24951.00537-6.90137,0-13.79541-12.45117-21.08887-25.624-6.5-11.73926-13.22119-23.87793-18.79541-24.38428C69.97559,87.58027,44.5542,105.41865,41,107.94942Z"/></g><rect class="cls-4" x="33" y="105.5" width="7" height="44"/><rect class="cls-4" x="38" y="147.5" width="462" height="4"/><path class="cls-3" d="M500,148.0002H40a.50034.50034,0,0,1-.5-.5v-100a.5.5,0,0,1,1,0v99.5H500a.5.5,0,0,1,0,1Z"/><path class="cls-3" d="M160,150.0002a.49972.49972,0,0,1-.5-.5v-2a.5.5,0,0,1,1,0v2A.49972.49972,0,0,1,160,150.0002Z"/><path class="cls-3" d="M280,150.0002a.49972.49972,0,0,1-.5-.5v-2a.5.5,0,0,1,1,0v2A.49972.49972,0,0,1,280,150.0002Z"/><path class="cls-3" d="M400,150.0002a.49972.49972,0,0,1-.5-.5v-2a.5.5,0,1,1,1,0v2A.49972.49972,0,0,1,400,150.0002Z"/><path class="cls-3" d="M460,150.0002a.49972.49972,0,0,1-.5-.5v-2a.5.5,0,1,1,1,0v2A.49972.49972,0,0,1,460,150.0002Z"/><path class="cls-3" d="M100,150.0002a.49972.49972,0,0,1-.5-.5v-2a.5.5,0,0,1,1,0v2A.49972.49972,0,0,1,100,150.0002Z"/><path class="cls-3" d="M220,150.0002a.49972.49972,0,0,1-.5-.5v-2a.5.5,0,0,1,1,0v2A.49972.49972,0,0,1,220,150.0002Z"/><path class="cls-3" d="M340,150.0002a.49972.49972,0,0,1-.5-.5v-2a.5.5,0,0,1,1,0v2A.49972.49972,0,0,1,340,150.0002Z"/><path class="cls-3" d="M40,98.0002H38a.5.5,0,0,1,0-1h2a.5.5,0,0,1,0,1Z"/><path class="cls-3" d="M40,73.0002H38a.5.5,0,0,1,0-1h2a.5.5,0,0,1,0,1Z"/><path class="cls-3" d="M40,123.0002H38a.5.5,0,0,1,0-1h2a.5.5,0,0,1,0,1Z"/><rect class="cls-3" x="134.5" width="34" height="7"/><rect class="cls-3" x="20" width="97" height="7"/><rect class="cls-3" x="20" y="14.5" width="74.5" height="4"/><rect class="cls-3" x="245" y="2" width="59.5" height="5"/><rect class="cls-3" x="315.5" y="2" width="42" height="5"/><rect class="cls-3" x="368.5" y="2" width="45" height="5"/><rect class="cls-3" x="423.5" y="2" width="96.5" height="5"/><rect class="cls-1" width="540" height="177.5"/></g></g></svg>