<svg xmlns="http://www.w3.org/2000/svg" width="270" height="177.5" viewBox="0 0 270 177.5"><defs><style>.cls-1{fill:#ddd;}.cls-2{fill:#fff;}.cls-3{fill:none;}</style></defs><g id="Layer_2" data-name="Layer 2"><g id="Layer_2-2" data-name="Layer 2"><path class="cls-1" d="M39.99382,85.49559s17.60559,56.75367,38.00123,57c19.28387.2329,19.27339-49.36323,38.00124-53,13.48845-2.61933,24.11338,32.21551,38.00124,32,20.95652-.3252,17.55242-55.36583,38.00123-59,14.95754-2.65826,38.00124,38,38.00124,38v47H39.99384Z"/><path class="cls-1" d="M230.00006,147.99585H39.9942a.49971.49971,0,0,1-.5-.5v-62a.5.5,0,0,1,.42481-.49414.49451.49451,0,0,1,.55273.34571c.17481.56445,17.72949,56.4082,37.5293,56.64843,9.5625.14063,14.19824-12.45507,19.12011-25.76464,4.61817-12.48926,9.39356-25.40332,18.7793-27.22657,7.22266-1.39648,13.3125,6.99024,19.76856,15.87012,5.76367,7.92676,11.72265,16.12207,18.20214,16.12207.03907,0,.07813,0,.11817-.001,10.31055-.16015,14.51465-14.02734,18.96484-28.708,4.23926-13.98633,8.62305-28.44825,18.957-30.28418,15.14258-2.70508,37.57618,36.57324,38.52344,38.24609a.49366.49366,0,0,1,.06543.24609v47A.49971.49971,0,0,1,230.00006,147.99585Zm-189.50586-1H229.50006V100.62867c-1.36621-2.375-23.36816-40.13574-37.41309-37.64063-9.73046,1.72949-14.02441,15.89258-18.17578,29.58985-4.35937,14.37793-8.86621,29.24707-19.90625,29.418-7.0625.09083-13.19531-8.35058-19.14453-16.5332-5.98828-8.23535-12.17676-16.75976-18.76855-15.47558-8.835,1.71484-13.51074,14.36132-18.03321,26.59179-4.80273,12.98828-9.76953,26.417-19.92968,26.418-.04688,0-.09278,0-.13965-.001-8.66309-.10449-17.77832-9.81933-27.0918-28.873A227.54224,227.54224,0,0,1,40.4942,88.614Z"/><rect class="cls-2" x="34.99383" y="79.49559" width="5" height="74"/><rect class="cls-2" x="130.72983" y="53.75959" width="10" height="197.472" transform="translate(288.22542 16.76576) rotate(90)"/><rect class="cls-2" x="36.99382" y="83.49559" width="3" height="6"/><path class="cls-1" d="M230.00006,147.74585H39.9942a.25048.25048,0,0,1-.25-.25v-100a.25.25,0,0,1,.5,0v99.75H230.00006a.25.25,0,0,1,0,.5Z"/><path class="cls-1" d="M39.9942,97.74488h-2.001a.25.25,0,0,1,0-.5h2.001a.25.25,0,1,1,0,.5Z"/><path class="cls-1" d="M39.9942,72.74976h0l-2.001-.001a.25.25,0,1,1,0-.5h0l2.001.001a.25.25,0,0,1,0,.5Z"/><path class="cls-1" d="M39.9942,122.74488h-2.001a.25.25,0,0,1,0-.5h2.001a.25.25,0,1,1,0,.5Z"/><path class="cls-1" d="M115.99615,149.74585a.25048.25048,0,0,1-.25-.25v-2a.25.25,0,1,1,.5,0v2A.25048.25048,0,0,1,115.99615,149.74585Z"/><path class="cls-1" d="M77.99518,149.74585a.25048.25048,0,0,1-.25-.25v-2a.25.25,0,0,1,.5,0v2A.25048.25048,0,0,1,77.99518,149.74585Z"/><path class="cls-1" d="M190.73248,149.74585a.25048.25048,0,0,1-.25-.25v-2a.25.25,0,0,1,.5,0v2A.25048.25048,0,0,1,190.73248,149.74585Z"/><path class="cls-1" d="M153.99713,149.74585a.25048.25048,0,0,1-.25-.25v-2a.25.25,0,0,1,.5,0v2A.25048.25048,0,0,1,153.99713,149.74585Z"/><path class="cls-1" d="M40.00006,97.74976h-2a.25.25,0,0,1,0-.5h2a.25.25,0,1,1,0,.5Z"/><path class="cls-1" d="M40.00006,72.74976h-2a.25.25,0,0,1,0-.5h2a.25.25,0,1,1,0,.5Z"/><path class="cls-1" d="M40.00006,122.74976h-2a.25.25,0,0,1,0-.5h2a.25.25,0,1,1,0,.5Z"/><rect class="cls-3" width="270" height="177.5"/><rect class="cls-1" x="134.5" width="34" height="7"/><rect class="cls-1" x="20" width="97" height="7"/><rect class="cls-1" x="20" y="14.5" width="74.5" height="4"/></g></g></svg>