<svg xmlns="http://www.w3.org/2000/svg" width="499.99954" height="137.92531" viewBox="0 0 499.99954 137.92531"><defs><style>.cls-1{fill:#553bf2;}</style></defs><g id="Layer_2" data-name="Layer 2"><g id="Layer_1-2" data-name="Layer 1"><path class="cls-1" d="M428.69039,72.41361s44.291,1.8691,61.9434-16.2915a33.07145,33.07145,0,1,0-47.4277-46.1031C425.55569,28.18071,428.69039,72.41361,428.69039,72.41361Zm50.1504-51.6089a17.09524,17.09524,0,1,1-24.1719.3462A17.08356,17.08356,0,0,1,478.84079,20.80471Z"/><path class="cls-1" d="M408.42479,60.55271c-6.2627-6.25-13.5029-9.6123-23.9863-9.6123-10.4912,0-17.72849,3.3623-23.9942,9.6123A26.9555,26.9555,0,0,0,353.29,73.396a27.17937,27.17937,0,0,0-7.40231-13.3818c-6.3916-6.292-13.76369-9.6812-24.458-9.6812-10.6904,0-18.0625,3.3892-24.46,9.6812a27.21425,27.21425,0,0,0-7.456,13.5908c-.6875-14.3223-10.4092-23.875-28.0742-23.875h-32.084v19.5971h-.0039v.002a2.909,2.909,0,0,1-2.7725,2.8794,2.81688,2.81688,0,0,1-2.6787-2.8794l.0039-.002h-.0088V49.73h-.1689v.0083h-17.4073L180.6191,89.06791l-26.4892-39.3296H136.7998V72.855c-5.3691-13.7017-17.2695-23.2036-34.2026-23.2036-.4243,0-1.3057.0083-1.3057.0083H0V71.978H26.3257v65.2442H48.646V71.978H68.5889a54.15156,54.15156,0,0,0-4.208,21.8623c0,37.1006,20.72069,43.9795,38.72511,43.9795,15.1284,0,23.2905-4.7978,31.6098-13.5957l-14.8174-15.6699c-4.3911,4.6367-8.1728,7.1973-16.7924,7.1973-9.22562,0-14.3731-6.3965-14.3731-13.4346h48.0669v35.5947h86.92679v.0137H262.126c14.85739,0,26.17279-8.1807,27.38769-23.2822a27.2425,27.2425,0,0,0,7.456,13.6045c6.3975,6.2871,13.7696,9.6777,24.46,9.6777,10.69431,0,18.0664-3.3906,24.458-9.6777a27.1096,27.1096,0,0,0,7.3242-13.0821,27.06329,27.06329,0,0,0,7.2324,13.1465c6.26571,6.252,13.503,9.6133,23.9942,9.6133,10.4834,0,17.7236-3.3613,23.9863-9.6133,9.041-9.0088,8.6816-21.0244,8.6816-33.8769C417.10639,81.57371,417.46579,69.56251,408.42479,60.55271ZM288.123,94.13041c0,2.9824.03909,6.2754.12209,9.1484-2.1064-5.8096-6.62009-8.8623-9.1533-10.4414,2.0234-1.3809,7.1035-5.1602,9.2861-11.0059C288.13379,85.71041,288.123,90.00931,288.123,94.13041Z"/></g></g></svg>