<svg xmlns="http://www.w3.org/2000/svg" width="281.0959" height="91.06329" viewBox="0 0 281.0959 91.06329"><defs><style>.cls-1{fill:#33d67b;}</style></defs><g id="Layer_2" data-name="Layer 2"><g id="Layer_1-2" data-name="Layer 1"><path class="cls-1" d="M49.08747,91.06329c-4.20362.001-8.18311-11.80567-12.78321-25.44922-3.80078-11.27442-8.10888-24.05176-11.522-24.56152C19.45807,40.2752,5.72321,55.04864.88288,60.81524a.49977.49977,0,0,1-.76563-.64258c.7251-.86426,17.84668-21.166,24.8125-20.1084,4.01807.59864,8.05176,12.56348,12.32227,25.2295,3.916,11.61718,8.35058,24.76953,11.82715,24.76953.03271,0,.06494-.001.09765-.00391,4.56543-.32715,8.4795-18.54785,11.93213-34.62305C64.86237,37.96465,68.4068,21.46173,73.43561,20.076c4.7876-1.32031,8.78906,9.0791,13.02588,20.08789C90.02936,49.43536,94.07331,59.94317,97.94,60.0584c5.17627.16016,8.56152-14.84082,11.85351-29.34179,3.44727-15.18555,6.70313-29.52832,12.39063-30.64844,6.12158-1.208,9.57177,13.832,13.21533,29.75391,3.20117,13.98828,6.51172,28.45215,11.41113,30.26757,4.13574,1.53028,8.66895-9.80078,12.67774-19.793,3.78125-9.42481,7.35254-18.32618,11.291-20.19043,4.16309-1.97168,9.65723,4.46582,14.96582,10.69043,3.50489,4.10937,7.12989,8.35839,9.77051,9.29,2.85449,1.00585,7.39355-2.01661,11.791-4.93946,4.76269-3.166,9.25976-6.15918,12.55566-5.06347,4.28418,1.42382,8.02734,10.50683,11.98926,20.124,3.97851,9.65527,8.09179,19.63965,12.23535,19.85156,4.53711.19141,8.24414-12.34765,11.82519-24.51269,3.76563-12.793,7.32227-24.876,12.44727-25.48438a1.65588,1.65588,0,0,1,.209-.01269c5.7002,0,11.82813,27.25781,12.51563,30.40234a.49975.49975,0,1,1-.97656.21289c-2.55371-11.67773-7.94434-30.03613-11.63086-29.61035-4.46875.53125-8.09668,12.85547-11.60547,24.77441-3.86035,13.11426-7.53223,25.49805-12.835,25.22852-4.77637-.24317-8.82324-10.06738-13.10938-20.46875-3.70215-8.98535-7.53027-18.27637-11.3789-19.55567-2.83106-.9375-7.333,2.05274-11.6875,4.94629-4.81348,3.19922-9.36231,6.21778-12.67676,5.05078-2.89551-1.02148-6.44336-5.18066-10.19922-9.585-4.8291-5.66113-10.2998-12.08691-13.77734-10.43457-3.584,1.69532-7.24805,10.82715-10.79,19.65821-4.23438,10.55468-8.25244,20.56836-12.81006,20.57031a3.27824,3.27824,0,0,1-1.144-.21192c-5.40625-2.00292-8.62745-16.0791-12.03809-30.98242-3.37695-14.75586-6.8667-30.00781-12.04736-28.99609-5.04932.99512-8.38428,15.68359-11.60889,29.88965-3.51563,15.4873-6.83838,30.12109-12.751,30.12109-.03613,0-.07177,0-.10791-.001C93.379,60.92266,89.56549,51.01446,85.5279,40.52325c-3.7085-9.63672-7.919-20.57715-11.82666-19.48242-4.44385,1.22363-8.25342,18.958-11.61426,34.60547-3.86963,18.01464-7.52441,35.02929-12.83887,35.41113C49.19489,91.06133,49.14069,91.06329,49.08747,91.06329Z"/></g></g></svg>