<svg xmlns="http://www.w3.org/2000/svg" width="360" height="140" viewBox="0 0 360 140"><defs><style>.cls-1{fill:#33d67b;}.cls-2{fill:#ddd;}.cls-3{fill:#aaa;}.cls-4{fill:gray;}.cls-5{fill:none;}</style></defs><g id="Layer_2" data-name="Layer 2"><g id="Layer_1-2" data-name="Layer 1"><path class="cls-1" d="M88.58754,100.50443c-4.20361.001-8.1831-11.80567-12.7832-25.44922-3.80078-11.27442-8.10889-24.05176-11.522-24.56153-5.32421-.77734-19.05908,13.9961-23.89941,19.7627a.49977.49977,0,0,1-.76562-.64258c.72509-.86426,17.84668-21.166,24.8125-20.1084,4.01806.59864,8.05175,12.56348,12.32226,25.2295,3.916,11.61718,8.35059,24.76953,11.82715,24.76953.03271,0,.06494-.001.09766-.00391,4.56543-.32715,8.47949-18.54785,11.93212-34.623,3.75342-17.47168,7.29786-33.97461,12.32667-35.36035,4.78759-1.32031,8.78906,9.0791,13.02587,20.08789,3.56788,9.27149,7.61182,19.7793,11.47852,19.89453,5.17627.16016,8.56152-14.84082,11.85352-29.34179,3.44726-15.18555,6.70312-29.52832,12.39062-30.64844,6.12158-1.208,9.57178,13.832,13.21533,29.75391,3.20117,13.98828,6.51172,28.45214,11.41114,30.26757,4.13574,1.53028,8.66894-9.80078,12.67773-19.793,3.78125-9.42481,7.35254-18.32618,11.291-20.19043,4.16308-1.97168,9.65722,4.46582,14.96582,10.69043,3.50488,4.10937,7.12988,8.35839,9.7705,9.29,2.8545,1.00586,7.39356-2.0166,11.791-4.93945,4.76269-3.166,9.25976-6.15918,12.55566-5.06348,4.28418,1.42383,8.02735,10.50684,11.98926,20.124,3.97852,9.65527,8.0918,19.63965,12.23535,19.85156,4.53711.19141,8.24414-12.34766,11.8252-24.51269,3.76562-12.793,7.32226-24.876,12.44726-25.48438a1.656,1.656,0,0,1,.209-.01269c5.70019,0,11.82812,27.25781,12.51562,30.40234a.49975.49975,0,1,1-.97656.21289c-2.55371-11.67773-7.94434-30.03613-11.63086-29.61035-4.46875.53125-8.09668,12.85547-11.60547,24.77441-3.86035,13.11426-7.53222,25.49805-12.835,25.22852-4.77637-.24317-8.82324-10.06739-13.10937-20.46875-3.70215-8.98535-7.53028-18.27637-11.37891-19.55567-2.83105-.9375-7.333,2.05274-11.6875,4.94629-4.81348,3.19922-9.3623,6.21778-12.67676,5.05078-2.89551-1.02148-6.44336-5.18066-10.19922-9.585-4.8291-5.66113-10.2998-12.08691-13.77734-10.43457-3.584,1.69532-7.248,10.82715-10.79,19.65821-4.23437,10.55468-8.25244,20.56836-12.81006,20.57031a3.27824,3.27824,0,0,1-1.144-.21192c-5.40625-2.00293-8.62744-16.0791-12.03809-30.98242C170.548,24.73,167.05824,9.47806,161.87758,10.48978c-5.04932.99512-8.38428,15.68359-11.60889,29.88965-3.51562,15.4873-6.83838,30.12109-12.751,30.12109-.03614,0-.07178,0-.10791-.001C132.879,70.3638,129.06557,60.4556,125.028,49.96439c-3.7085-9.63672-7.91895-20.57715-11.82666-19.48242-4.44385,1.22363-8.25342,18.958-11.61426,34.60546-3.86963,18.01465-7.52441,35.0293-12.83886,35.41114C88.695,100.50247,88.64076,100.50443,88.58754,100.50443Z"/><path class="cls-2" d="M320.09584,110.24954H40.00014a.25016.25016,0,0,1-.25-.25v-100a.25.25,0,1,1,.5,0v99.75h279.8457a.25.25,0,0,1,0,.5Z"/><path class="cls-2" d="M113.0685,112.24954a.25016.25016,0,0,1-.25-.25v-2a.25.25,0,0,1,.5,0v2A.25017.25017,0,0,1,113.0685,112.24954Z"/><path class="cls-2" d="M186.13686,112.24954a.25016.25016,0,0,1-.25-.25v-2a.25.25,0,1,1,.5,0v2A.25017.25017,0,0,1,186.13686,112.24954Z"/><path class="cls-2" d="M259.20522,112.24954a.25048.25048,0,0,1-.25-.25v-2a.25.25,0,1,1,.5,0v2A.25048.25048,0,0,1,259.20522,112.24954Z"/><path class="cls-2" d="M295.74037,112.24954a.25048.25048,0,0,1-.25-.25v-2a.25.25,0,0,1,.5,0v2A.25048.25048,0,0,1,295.74037,112.24954Z"/><path class="cls-2" d="M76.53432,112.24954a.25016.25016,0,0,1-.25-.25v-2a.25.25,0,0,1,.5,0v2A.25017.25017,0,0,1,76.53432,112.24954Z"/><path class="cls-2" d="M149.60268,112.24954a.25016.25016,0,0,1-.25-.25v-2a.25.25,0,0,1,.5,0v2A.25017.25017,0,0,1,149.60268,112.24954Z"/><path class="cls-2" d="M222.671,112.24954a.25048.25048,0,0,1-.25-.25v-2a.25.25,0,1,1,.5,0v2A.25048.25048,0,0,1,222.671,112.24954Z"/><path class="cls-2" d="M40.00014,60.24954h-2a.25.25,0,0,1,0-.5h2a.25.25,0,0,1,0,.5Z"/><circle class="cls-1" cx="320.09609" cy="59.99997" r="3"/><path class="cls-3" d="M26.07027,9.00437a.9346.9346,0,0,1-.55762.88769v.00586A1.04446,1.04446,0,0,1,26.25,10.9116c0,.68945-.56934,1.127-1.43945,1.127-.86329,0-1.43848-.4375-1.43848-1.127a1.04461,1.04461,0,0,1,.74316-1.01368V9.89206a.92807.92807,0,0,1-.56347-.88769c0-.6416.49707-1.03711,1.25879-1.03711S26.07027,8.36277,26.07027,9.00437Zm-.31836,1.85937c0-.456-.37109-.73193-.9414-.73193-.56348,0-.94141.27588-.94141.73193,0,.44971.36621.72559.94141.72559C25.39254,11.58933,25.75191,11.31345,25.75191,10.86374Zm-1.70312-1.811c0,.38965.30664.62939.76172.62939.456,0,.76171-.23974.76171-.62939,0-.40186-.29394-.63574-.76171-.63574S24.04879,8.65085,24.04879,9.05271Z"/><path class="cls-3" d="M27.04976,10c0-1.32519.51563-2.03857,1.47559-2.03857C29.48433,7.9614,30,8.67478,30,10s-.51563,2.03858-1.47461,2.03858C27.56539,12.03855,27.04976,11.32517,27.04976,10Zm2.45313,0c0-1.04345-.3418-1.60693-.97754-1.60693S27.54781,8.95652,27.54781,10s.3418,1.60743.97754,1.60743S29.50289,11.04343,29.50289,10Z"/><path class="cls-3" d="M26.664,33.021v.31787A5.22893,5.22893,0,0,0,25.18256,36.979H24.829a5.49094,5.49094,0,0,1,1.46289-3.64014H23.80365V33.021Z"/><path class="cls-3" d="M27.09759,35c0-1.31933.50977-2.03857,1.45118-2.03857S29.99994,33.68064,29.99994,35s-.50977,2.03858-1.45117,2.03858S27.09759,36.31931,27.09759,35Zm2.54883,0c0-1.12109-.38379-1.73291-1.09765-1.73291-.708,0-1.09766.61182-1.09766,1.73291,0,1.12159.38965,1.73291,1.09766,1.73291C29.26263,36.73288,29.64642,36.12156,29.64642,35Z"/><path class="cls-3" d="M26.27533,58.7529l-.3125.14991a.84948.84948,0,0,0-.88867-.624c-.7793,0-1.17969.83985-1.17969,1.80518,0,.10205.00586.21.01758.33594h.02343a1.08825,1.08825,0,0,1,1.13282-.89942,1.26,1.26,0,1,1-.02344,2.51807c-.96484,0-1.47461-.80322-1.47461-2.03858,0-1.34326.66016-2.03857,1.5293-2.03857A1.13809,1.13809,0,0,1,26.27533,58.7529ZM24.08,60.77341a.9079.9079,0,0,0,.959.9419.93307.93307,0,1,0,.00586-1.86524A.9222.9222,0,0,0,24.08,60.77341Z"/><path class="cls-3" d="M27.09759,60c0-1.31933.50977-2.03857,1.45118-2.03857S29.99994,58.68064,29.99994,60s-.50977,2.03858-1.45117,2.03858S27.09759,61.31931,27.09759,60Zm2.54883,0c0-1.12109-.38281-1.73291-1.09765-1.73291-.707,0-1.09766.61182-1.09766,1.73291,0,1.12159.39062,1.73291,1.09766,1.73291C29.26361,61.73288,29.64642,61.12156,29.64642,60Z"/><path class="cls-3" d="M26.37,85.74949a1.21969,1.21969,0,0,1-1.31933,1.28906,1.28512,1.28512,0,0,1-1.373-.92285l.33008-.168a.93537.93537,0,0,0,1.03125.77344.90087.90087,0,0,0,.97754-.95313.87949.87949,0,0,0-.94727-.96,1.12442,1.12442,0,0,0-.9834.43164h-.2998l.21582-2.21875h2.2002v.31836H24.289l-.15527,1.46289-.00586.07813h.00586a1.2438,1.2438,0,0,1,.99511-.38965A1.18463,1.18463,0,0,1,26.37,85.74949Z"/><path class="cls-3" d="M27.09758,85.00046c0-1.31933.50977-2.03906,1.45117-2.03906s1.45118.71973,1.45118,2.03906-.50977,2.03809-1.45118,2.03809S27.09758,86.3198,27.09758,85.00046Zm2.54883,0c0-1.12109-.38379-1.7334-1.09766-1.7334-.708,0-1.09765.61231-1.09765,1.7334s.38965,1.73242,1.09765,1.73242C29.26262,86.73288,29.64641,86.12156,29.64641,85.00046Z"/><path class="cls-3" d="M26.37108,110.94089h-.70117V111.979h-.48047v-1.03809H23.2578v-.35351l1.80664-2.56641h.60547v2.50684h.70117Zm-2.60351-.41308h1.42187v-1.48145l.02344-.63574h-.01172a5.52143,5.52143,0,0,1-.39649.66016Z"/><path class="cls-3" d="M27.05077,109.99949c0-1.3252.51562-2.03809,1.47461-2.03809S30,108.67429,30,109.99949s-.51563,2.03906-1.47461,2.03906S27.05077,111.32468,27.05077,109.99949Zm2.45312,0c0-1.043-.34179-1.60645-.97851-1.60645-.63477,0-.97656.56348-.97656,1.60645,0,1.04394.34179,1.60742.97656,1.60742C29.1621,111.60691,29.50389,111.04343,29.50389,109.99949Z"/><path class="cls-2" d="M40.00014,35.24954h-2a.25.25,0,0,1,0-.5h2a.25.25,0,0,1,0,.5Z"/><path class="cls-2" d="M40.00014,85.24954h-2a.25.25,0,0,1,0-.5h2a.25.25,0,0,1,0,.5Z"/><path class="cls-3" d="M287.56168,120.74949a1.21969,1.21969,0,0,1-1.31933,1.28906,1.28512,1.28512,0,0,1-1.373-.92285l.33008-.168a.93536.93536,0,0,0,1.03125.77344.90087.90087,0,0,0,.97754-.95313.87949.87949,0,0,0-.94727-.96,1.12442,1.12442,0,0,0-.9834.43164h-.2998l.21582-2.21875h2.20019v.31836h-1.91308l-.15528,1.46289-.00586.07813h.00586a1.24384,1.24384,0,0,1,.99512-.38965A1.18463,1.18463,0,0,1,287.56168,120.74949Z"/><path class="cls-3" d="M288.98453,119.23874a.29689.29689,0,1,1-.59375,0,.29689.29689,0,0,1,.59375,0Zm0,2.49414a.29689.29689,0,1,1-.2998-.2998A.28144.28144,0,0,1,288.98453,121.73288Z"/><path class="cls-3" d="M289.84293,120.00046c0-1.31933.50977-2.03906,1.45117-2.03906s1.45118.71973,1.45118,2.03906-.50977,2.03809-1.45118,2.03809S289.84293,121.3198,289.84293,120.00046Zm2.54883,0c0-1.12109-.38379-1.7334-1.09766-1.7334-.708,0-1.09765.61231-1.09765,1.7334s.38965,1.73242,1.09765,1.73242C292.008,121.73288,292.39176,121.12156,292.39176,120.00046Z"/><path class="cls-3" d="M293.509,120.00046c0-1.31933.50976-2.03906,1.45117-2.03906s1.45117.71973,1.45117,2.03906-.50976,2.03809-1.45117,2.03809S293.509,121.3198,293.509,120.00046Zm2.54883,0c0-1.12109-.38379-1.7334-1.09766-1.7334-.708,0-1.09766.61231-1.09766,1.7334s.38965,1.73242,1.09766,1.73242C295.674,121.73288,296.05778,121.12156,296.05778,120.00046Z"/><path class="cls-3" d="M302.009,119.19089c0,.72559-.52149,1.169-1.33692,1.169h-.98925V121.979h-.3418v-3.958H300.672C301.48746,118.021,302.009,118.46531,302.009,119.19089Zm-.35352,0c0-.5459-.34765-.85156-1.02539-.85156h-.94726v1.70312H300.63C301.30778,120.04245,301.65543,119.73679,301.65543,119.19089Z"/><path class="cls-3" d="M306.61051,121.979h-.33008v-2.8418l.03614-.792-1.415,3.63379h-.30567l-1.40918-3.63379h-.00586l.03516.792v2.8418h-.32324v-3.958h.51562l1.1211,2.86133.21582.69531h.00586l.22265-.68945L306.089,118.021h.52148Z"/><path class="cls-4" d="M312.729,131.499v.45019h-2.7461v-3.958h.47852V131.499Z"/><path class="cls-4" d="M316.17818,131.57126l-.02929.37793a1.077,1.077,0,0,1-.35938.05957.47018.47018,0,0,1-.53906-.44336,1.18546,1.18546,0,0,1-.9668.44336c-.5625,0-1.01953-.26367-1.01953-.80371,0-.44922.39649-.80371,1.16992-.93554l.79688-.13184v-.168a.62919.62919,0,0,0-.70117-.65918.87767.87767,0,0,0-.85742.56934l-.35352-.25782a1.22032,1.22032,0,0,1,1.21094-.73144c.68359,0,1.18164.32422,1.18164,1.01953v1.47559c0,.14355.06054.21582.22851.21582A1.04688,1.04688,0,0,0,316.17818,131.57126Zm-.94726-.62988v-.41406l-.67188.126c-.52734.09668-.79687.27051-.79687.55176,0,.252.20312.38379.54492.38379C314.78756,131.58884,315.23092,131.33689,315.23092,130.94138Z"/><path class="cls-4" d="M318.59225,131.73923a1.11768,1.11768,0,0,1-.77344.26953.75293.75293,0,0,1-.834-.80371v-1.84082h-.59961v-.41406h.59961v-.71875l.48046-.13281v.85156h1.10938v.41406h-1.10938v1.75684a.40683.40683,0,0,0,.44922.43847.68393.68393,0,0,0,.50977-.22265Z"/><path class="cls-4" d="M321.81881,130.62986H319.559a.94858.94858,0,0,0,.97657.959.81138.81138,0,0,0,.8457-.44336l.40234.21a1.28538,1.28538,0,0,1-1.248.65332,1.38968,1.38968,0,0,1-1.45118-1.55859,1.36424,1.36424,0,0,1,1.416-1.55957,1.29856,1.29856,0,0,1,1.3418,1.40332A2.41914,2.41914,0,0,1,321.81881,130.62986Zm-2.25391-.42578h1.81641c-.06641-.55176-.37109-.89356-.88086-.89356A.903.903,0,0,0,319.5649,130.20408Z"/><path class="cls-4" d="M322.48678,131.331l.39062-.26953a.93521.93521,0,0,0,.94727.52734c.49219,0,.72461-.19726.72461-.44336,0-.22168-.18555-.35351-.78516-.46191-.85156-.15625-1.16406-.38965-1.16406-.89356,0-.48535.45117-.89941,1.18164-.89941a1.08386,1.08386,0,0,1,1.1875.71973l-.4082.24023a.72887.72887,0,0,0-.7793-.54c-.40039,0-.70117.21582-.70117.4375,0,.25781.19726.38965.81055.49219.83789.13769,1.13867.38965,1.13867.88086,0,.52246-.48633.88769-1.25391.88769A1.36854,1.36854,0,0,1,322.48678,131.331Z"/><path class="cls-4" d="M327.7524,131.73923a1.11765,1.11765,0,0,1-.77343.26953.75381.75381,0,0,1-.834-.80371v-1.84082h-.59961v-.41406h.59961v-.71875l.48047-.13281v.85156h1.10938v.41406h-1.10938v1.75684a.40683.40683,0,0,0,.44922.43847.67764.67764,0,0,0,.50976-.22265Z"/><path class="cls-3" d="M66.48739,118.021v3.958h-.3418v-2.97461c0-.16211.00586-.3418.01172-.52734a2.05884,2.05884,0,0,1-1.03711.623l-.08984-.30566a2.30428,2.30428,0,0,0,1.1582-.77344Z"/><path class="cls-3" d="M68.74325,118.021v3.958h-.3418v-2.97461c0-.16211.00586-.3418.01172-.52734a2.05884,2.05884,0,0,1-1.03711.623l-.08985-.30566a2.30427,2.30427,0,0,0,1.15821-.77344Z"/><path class="cls-3" d="M70.41121,119.23777a.2969.2969,0,1,1-.59375,0,.2969.2969,0,0,1,.59375,0Zm0,2.49511a.29689.29689,0,1,1-.29882-.2998A.28118.28118,0,0,1,70.41121,121.73288Z"/><path class="cls-3" d="M71.27059,119.99949c0-1.31934.50977-2.03809,1.45117-2.03809s1.45117.71875,1.45117,2.03809-.50976,2.03906-1.45117,2.03906S71.27059,121.31882,71.27059,119.99949Zm2.54883,0c0-1.1211-.38477-1.73243-1.09766-1.73243-.709,0-1.09765.61133-1.09765,1.73243,0,1.12207.38867,1.73339,1.09765,1.73339C73.43465,121.73288,73.81942,121.12156,73.81942,119.99949Z"/><path class="cls-3" d="M74.93661,119.99949c0-1.31934.50976-2.03809,1.45117-2.03809s1.45117.71875,1.45117,2.03809-.50977,2.03906-1.45117,2.03906S74.93661,121.31882,74.93661,119.99949Zm2.54882,0c0-1.1211-.38476-1.73243-1.09765-1.73243-.709,0-1.09766.61133-1.09766,1.73243,0,1.12207.38867,1.73339,1.09766,1.73339C77.10067,121.73288,77.48543,121.12156,77.48543,119.99949Z"/><path class="cls-3" d="M83.43661,119.18992c0,.72558-.52149,1.16992-1.3379,1.16992h-.98828V121.979h-.34179v-3.958h1.33007C82.91512,118.021,83.43661,118.46433,83.43661,119.18992Zm-.35352,0c0-.54493-.34766-.85157-1.02539-.85157h-.94727v1.70313h.94727C82.73543,120.04148,83.08309,119.73581,83.08309,119.18992Z"/><path class="cls-3" d="M88.03817,121.979h-.33008V119.1362l.03516-.791L86.32918,121.979h-.30664l-1.4082-3.63379h-.00586l.03516.791V121.979h-.32422v-3.958H84.835l1.1211,2.86035.21679.69531h.00586l.22266-.68945,1.11523-2.86621h.52149Z"/><path class="cls-3" d="M102.24822,121.69675c1.52344-1.16894,2.17774-1.76855,2.17774-2.51855a.8583.8583,0,0,0-.94141-.89942,1.01445,1.01445,0,0,0-1.03125,1.05567l-.30078-.17383a1.26189,1.26189,0,0,1,1.34375-1.19922,1.17063,1.17063,0,0,1,1.2832,1.2168c0,.78613-.61718,1.457-2.0332,2.48828v.00683c.10156-.00683.3418-.01269.4375-.01269h1.7168v.31836h-2.65235Z"/><path class="cls-3" d="M106.31072,119.23777a.28448.28448,0,0,1-.30078.30078.28148.28148,0,0,1-.293-.30078.27577.27577,0,0,1,.293-.293A.27891.27891,0,0,1,106.31072,119.23777Zm0,2.49511a.28275.28275,0,0,1-.30078.294.2969.2969,0,0,1,0-.59375A.28422.28422,0,0,1,106.31072,121.73288Z"/><path class="cls-3" d="M107.16814,119.99949c0-1.31934.50977-2.03809,1.45118-2.03809s1.45117.71875,1.45117,2.03809-.50977,2.03906-1.45117,2.03906S107.16814,121.31882,107.16814,119.99949Zm2.54883,0c0-1.1211-.38281-1.73243-1.09765-1.73243-.707,0-1.09766.61133-1.09766,1.73243,0,1.12207.39063,1.73339,1.09766,1.73339C109.33416,121.73288,109.717,121.12156,109.717,119.99949Z"/><path class="cls-3" d="M110.83416,119.99949c0-1.31934.50977-2.03809,1.45117-2.03809s1.45117.71875,1.45117,2.03809-.50976,2.03906-1.45117,2.03906S110.83416,121.31882,110.83416,119.99949Zm2.54883,0c0-1.1211-.38281-1.73243-1.09766-1.73243-.707,0-1.09765.61133-1.09765,1.73243,0,1.12207.39062,1.73339,1.09765,1.73339C113.00018,121.73288,113.383,121.12156,113.383,119.99949Z"/><path class="cls-3" d="M118.6701,120.77292H116.799l-.47461,1.20606H115.965l1.57227-3.958h.40625l1.5664,3.958h-.35937Zm-.127-.31738-.64648-1.64941-.15625-.45508h-.01172l-.14453.4375-.66016,1.667Z"/><path class="cls-3" d="M123.98455,121.979h-.33008V119.1362l.03711-.791-1.416,3.63379h-.30469l-1.41016-3.63379h-.00586l.03516.791V121.979h-.32227v-3.958h.51563l1.12109,2.86035.21485.69531h.00586l.22265-.68945,1.11524-2.86621h.52148Z"/><path class="cls-3" d="M141.40017,120.74949a1.21969,1.21969,0,0,1-1.31933,1.28906,1.28512,1.28512,0,0,1-1.37305-.92285l.33008-.168a.93537.93537,0,0,0,1.03125.77344.90087.90087,0,0,0,.97754-.95313.87949.87949,0,0,0-.94727-.96,1.12442,1.12442,0,0,0-.9834.43164h-.2998l.21582-2.21875h2.20019v.31836h-1.91308l-.15528,1.46289-.00585.07813h.00585a1.24384,1.24384,0,0,1,.99512-.38965A1.18463,1.18463,0,0,1,141.40017,120.74949Z"/><path class="cls-3" d="M142.823,119.23874a.29689.29689,0,1,1-.59375,0,.29689.29689,0,0,1,.59375,0Zm0,2.49414a.29689.29689,0,1,1-.2998-.2998A.28144.28144,0,0,1,142.823,121.73288Z"/><path class="cls-3" d="M143.68142,120.00046c0-1.31933.50977-2.03906,1.45117-2.03906s1.45118.71973,1.45118,2.03906-.50977,2.03809-1.45118,2.03809S143.68142,121.3198,143.68142,120.00046Zm2.54883,0c0-1.12109-.38379-1.7334-1.09766-1.7334-.708,0-1.09765.61231-1.09765,1.7334s.38965,1.73242,1.09765,1.73242C145.84646,121.73288,146.23025,121.12156,146.23025,120.00046Z"/><path class="cls-3" d="M147.34744,120.00046c0-1.31933.50976-2.03906,1.45117-2.03906s1.45117.71973,1.45117,2.03906-.50976,2.03809-1.45117,2.03809S147.34744,121.3198,147.34744,120.00046Zm2.54883,0c0-1.12109-.38379-1.7334-1.09766-1.7334-.708,0-1.09766.61231-1.09766,1.7334s.38965,1.73242,1.09766,1.73242C149.51248,121.73288,149.89627,121.12156,149.89627,120.00046Z"/><path class="cls-3" d="M155.1824,120.7739h-1.87109l-.47364,1.20508h-.35937l1.57129-3.958h.40722l1.56543,3.958h-.35937Zm-.126-.31738-.64746-1.64942-.15527-.45605h-.0127l-.14355.4375-.66016,1.668Z"/><path class="cls-3" d="M160.49783,121.979h-.33008v-2.8418l.03613-.792-1.415,3.63379h-.30566l-1.40918-3.63379h-.00586l.03516.792v2.8418h-.32324v-3.958h.51562l1.12109,2.86133.21582.69531h.00586l.22266-.68945,1.11523-2.86719h.52149Z"/><path class="cls-3" d="M177.806,118.98093a.92639.92639,0,0,1-.666.91113v.00586a1.06006,1.06006,0,0,1,.83985,1.03223c0,.6709-.56348,1.1084-1.40918,1.1084-.83985,0-1.40918-.4375-1.40918-1.1084a1.05942,1.05942,0,0,1,.8457-1.03223v-.00586a.9166.9166,0,0,1-.666-.91113c0-.624.4795-1.01367,1.2295-1.01367C177.3197,117.96726,177.806,118.35691,177.806,118.98093Zm-.17969,1.91895c0-.50391-.41992-.834-1.05566-.834-.624,0-1.05567.33008-1.05567.834,0,.498.41992.82129,1.05567.82129C177.21228,121.72117,177.62634,121.39792,177.62634,120.89988Zm-1.93164-1.88868c0,.44336.34863.73145.876.73145.5332,0,.88183-.28809.88183-.73145,0-.45019-.34179-.72558-.88183-.72558C176.0365,118.28562,175.6947,118.561,175.6947,119.0112Z"/><path class="cls-3" d="M179.43884,119.23874a.29689.29689,0,1,1-.59375,0,.29689.29689,0,0,1,.59375,0Zm0,2.49414a.29689.29689,0,1,1-.2998-.2998A.28144.28144,0,0,1,179.43884,121.73288Z"/><path class="cls-3" d="M180.29724,120.00046c0-1.31933.50977-2.03906,1.45117-2.03906s1.45117.71973,1.45117,2.03906-.50976,2.03809-1.45117,2.03809S180.29724,121.3198,180.29724,120.00046Zm2.54883,0c0-1.12109-.38379-1.7334-1.09766-1.7334-.708,0-1.09765.61231-1.09765,1.7334s.38964,1.73242,1.09765,1.73242C182.46228,121.73288,182.84607,121.12156,182.84607,120.00046Z"/><path class="cls-3" d="M183.96326,120.00046c0-1.31933.50976-2.03906,1.45117-2.03906s1.45117.71973,1.45117,2.03906-.50977,2.03809-1.45117,2.03809S183.96326,121.3198,183.96326,120.00046Zm2.54882,0c0-1.12109-.38379-1.7334-1.09765-1.7334-.708,0-1.09766.61231-1.09766,1.7334s.38965,1.73242,1.09766,1.73242C186.12829,121.73288,186.51208,121.12156,186.51208,120.00046Z"/><path class="cls-3" d="M191.79724,120.7739h-1.87109l-.47364,1.20508h-.35937l1.57129-3.958h.40722l1.56543,3.958h-.35937Zm-.126-.31738-.64746-1.64942-.15527-.45605h-.0127l-.14355.4375-.66016,1.668Z"/><path class="cls-3" d="M197.11267,121.979h-.33008v-2.8418l.03613-.792-1.415,3.63379H195.098l-1.40918-3.63379H193.683l.03516.792v2.8418h-.32324v-3.958h.51562l1.12109,2.86133.21582.69531h.00586l.22266-.68945,1.11523-2.86719h.52149Z"/><path class="cls-3" d="M212.60007,118.021v3.958h-.3418v-2.97461c0-.16113.00586-.3418.01172-.52734a2.06735,2.06735,0,0,1-1.03711.624l-.08984-.30567a2.3,2.3,0,0,0,1.1582-.77441Z"/><path class="cls-3" d="M214.85593,118.021v3.958h-.3418v-2.97461c0-.16113.00586-.3418.01172-.52734a2.06735,2.06735,0,0,1-1.03711.624l-.08984-.30567a2.3,2.3,0,0,0,1.1582-.77441Z"/><path class="cls-3" d="M216.5239,119.23874a.29689.29689,0,1,1-.59375,0,.29689.29689,0,0,1,.59375,0Zm0,2.49414a.29689.29689,0,1,1-.29883-.2998A.28066.28066,0,0,1,216.5239,121.73288Z"/><path class="cls-3" d="M217.38327,120.00046c0-1.31933.50977-2.03906,1.45117-2.03906s1.45117.71973,1.45117,2.03906-.50976,2.03809-1.45117,2.03809S217.38327,121.3198,217.38327,120.00046Zm2.54883,0c0-1.12109-.38477-1.7334-1.09766-1.7334-.709,0-1.09765.61231-1.09765,1.7334s.38867,1.73242,1.09765,1.73242C219.54733,121.73288,219.9321,121.12156,219.9321,120.00046Z"/><path class="cls-3" d="M221.04929,120.00046c0-1.31933.50976-2.03906,1.45117-2.03906s1.45117.71973,1.45117,2.03906-.50977,2.03809-1.45117,2.03809S221.04929,121.3198,221.04929,120.00046Zm2.54882,0c0-1.12109-.38476-1.7334-1.09765-1.7334-.709,0-1.09766.61231-1.09766,1.7334s.38867,1.73242,1.09766,1.73242C223.21335,121.73288,223.59811,121.12156,223.59811,120.00046Z"/><path class="cls-3" d="M228.88327,120.7739h-1.87109l-.47461,1.20508h-.35938l1.57227-3.958h.40625l1.5664,3.958h-.35937Zm-.127-.31738-.64649-1.64942-.15625-.45605h-.01172l-.14453.4375-.66015,1.668Z"/><path class="cls-3" d="M234.19968,121.979h-.33008v-2.8418l.03516-.792-1.41407,3.63379h-.30664l-1.4082-3.63379H230.77l.03516.792v2.8418h-.32422v-3.958h.51562l1.1211,2.86133.21679.69531h.00586l.22266-.68945,1.11523-2.86719h.52149Z"/><path class="cls-3" d="M248.40973,121.69773c1.52344-1.16992,2.17774-1.76953,2.17774-2.51856a.859.859,0,0,0-.94141-.90039,1.01445,1.01445,0,0,0-1.03125,1.05567l-.30078-.17383a1.26189,1.26189,0,0,1,1.34375-1.19922,1.17086,1.17086,0,0,1,1.2832,1.21777c0,.78516-.61718,1.457-2.0332,2.48828v.00586c.10156-.00586.3418-.01171.4375-.01171h1.7168v.31738h-2.65235Z"/><path class="cls-3" d="M252.47223,119.23874a.28422.28422,0,0,1-.30078.29981.28121.28121,0,0,1-.293-.29981.27654.27654,0,0,1,.293-.29394A.27966.27966,0,0,1,252.47223,119.23874Zm0,2.49414a.28223.28223,0,0,1-.30078.294.2969.2969,0,0,1,0-.59375A.28422.28422,0,0,1,252.47223,121.73288Z"/><path class="cls-3" d="M253.32965,120.00046c0-1.31933.50977-2.03906,1.45118-2.03906s1.45117.71973,1.45117,2.03906-.50977,2.03809-1.45117,2.03809S253.32965,121.3198,253.32965,120.00046Zm2.54883,0c0-1.12109-.38281-1.7334-1.09765-1.7334-.707,0-1.09766.61231-1.09766,1.7334s.39063,1.73242,1.09766,1.73242C255.49567,121.73288,255.87848,121.12156,255.87848,120.00046Z"/><path class="cls-3" d="M256.99567,120.00046c0-1.31933.50977-2.03906,1.45117-2.03906s1.45117.71973,1.45117,2.03906-.50976,2.03809-1.45117,2.03809S256.99567,121.3198,256.99567,120.00046Zm2.54883,0c0-1.12109-.38281-1.7334-1.09766-1.7334-.707,0-1.09765.61231-1.09765,1.7334s.39062,1.73242,1.09765,1.73242C259.16169,121.73288,259.5445,121.12156,259.5445,120.00046Z"/><path class="cls-3" d="M265.49567,119.19089c0,.72559-.52148,1.169-1.33594,1.169h-.99023V121.979h-.3418v-3.958h1.332C264.97419,118.021,265.49567,118.46531,265.49567,119.19089Zm-.35352,0c0-.5459-.34765-.85156-1.02539-.85156h-.94726v1.70312h.94726C264.7945,120.04245,265.14215,119.73679,265.14215,119.19089Z"/><path class="cls-3" d="M270.09723,121.979h-.33008v-2.8418l.03711-.792-1.416,3.63379h-.30469l-1.41016-3.63379h-.00585l.03515.792v2.8418h-.32226v-3.958h.51562l1.12109,2.86133.21485.69531h.00586l.22265-.68945,1.11524-2.86719h.52148Z"/><path class="cls-3" d="M311.44081,119.00437a.93412.93412,0,0,1-.55761.88769v.00586a1.04489,1.04489,0,0,1,.7373,1.01368c0,.68945-.56933,1.12695-1.43945,1.12695-.86328,0-1.43848-.4375-1.43848-1.12695a1.045,1.045,0,0,1,.74317-1.01368v-.00586a.92759.92759,0,0,1-.56348-.88769c0-.6416.49707-1.03711,1.25879-1.03711S311.44081,118.36277,311.44081,119.00437Zm-.31836,1.85937c0-.45605-.37109-.73144-.9414-.73144-.56348,0-.94141.27539-.94141.73144,0,.4502.36621.72559.94141.72559C310.76308,121.58933,311.12245,121.31394,311.12245,120.86374Zm-1.70312-1.81054c0,.38965.30664.6289.76172.6289.456,0,.76172-.23925.76172-.6289,0-.40235-.29395-.63575-.76172-.63575S309.41933,118.65085,309.41933,119.0532Z"/><path class="cls-3" d="M313.308,119.311a.38965.38965,0,1,1-.38965-.38965A.36854.36854,0,0,1,313.308,119.311Zm0,2.33887a.38965.38965,0,1,1-.38965-.39063A.36777.36777,0,0,1,313.308,121.64988Z"/><path class="cls-3" d="M314.1957,120.00046c0-1.32519.51562-2.03906,1.47558-2.03906.959,0,1.47461.71387,1.47461,2.03906s-.51562,2.03809-1.47461,2.03809C314.71132,122.03855,314.1957,121.32566,314.1957,120.00046Zm2.45312,0c0-1.04394-.34179-1.60742-.97754-1.60742s-.97754.56348-.97754,1.60742c0,1.043.3418,1.60742.97754,1.60742S316.64882,121.04343,316.64882,120.00046Z"/><path class="cls-3" d="M317.92812,120.00046c0-1.32519.51562-2.03906,1.47558-2.03906.959,0,1.47461.71387,1.47461,2.03906s-.51562,2.03809-1.47461,2.03809C318.44374,122.03855,317.92812,121.32566,317.92812,120.00046Zm2.45312,0c0-1.04394-.34179-1.60742-.97754-1.60742s-.97753.56348-.97753,1.60742c0,1.043.34179,1.60742.97753,1.60742S320.38124,121.04343,320.38124,120.00046Z"/><path class="cls-3" d="M326.69179,119.227a1.19189,1.19189,0,0,1-1.33105,1.20507h-.918V121.979h-.47949v-3.958h1.39746A1.19209,1.19209,0,0,1,326.69179,119.227Zm-.50391,0c0-.49219-.27539-.75586-.89941-.75586h-.8457v1.51074h.8457C325.91249,119.98191,326.18788,119.71824,326.18788,119.227Z"/><path class="cls-3" d="M331.4496,121.979h-.456V119.4907l.05371-1.044h-.00586l-1.30078,3.53223h-.4082l-1.30079-3.53223h-.00585l.05371,1.044V121.979h-.45606v-3.958h.73731l.87011,2.40527.29981.98926h.01172l.30566-.9834.86426-2.41113h.7373Z"/><rect class="cls-5" width="360" height="140"/></g></g></svg>