<svg xmlns="http://www.w3.org/2000/svg" width="480" height="140" viewBox="0 0 480 140"><defs><style>.cls-1{fill:#ddd;}.cls-2{fill:none;}.cls-3{fill:#fff;}.cls-4,.cls-8{fill:#053437;}.cls-5{fill:#33d67b;}.cls-6{fill:#f7ce05;}.cls-11,.cls-13,.cls-6,.cls-7,.cls-8{fill-rule:evenodd;}.cls-7{fill:#caecf9;}.cls-9{fill:#553bf2;}.cls-10{fill:gray;}.cls-11{fill:#f0403d;}.cls-12{fill:#f47925;}.cls-13{fill:#f6e55a;}</style></defs><g id="Layer_2" data-name="Layer 2"><g id="Layer_2-2" data-name="Layer 2"><path class="cls-1" d="M405.21762,112.25a.25048.25048,0,0,1-.25-.25v-2a.25.25,0,0,1,.5,0v2A.25048.25048,0,0,1,405.21762,112.25Z"/><path class="cls-1" d="M109.38559,100.50488a4.36438,4.36438,0,0,1-1.01075-.12207.49979.49979,0,1,1,.23047-.97265,3.40672,3.40672,0,0,0,.78028.09472l.15527-.0039a3.93749,3.93749,0,0,0,.78223-.12012.50037.50037,0,0,1,.251.96875,4.876,4.876,0,0,1-.98437.14941Zm-4.2295-2.1748a.49985.49985,0,0,1-.34668-.13965,19.3102,19.3102,0,0,1-1.39453-1.50684.49977.49977,0,0,1,.76563-.64257,18.41842,18.41842,0,0,0,1.32226,1.42871.5.5,0,0,1-.34668.86035Zm8.57715-.0752a.5.5,0,0,1-.36035-.84668,15.21355,15.21355,0,0,0,1.24316-1.48242.49981.49981,0,0,1,.80274.5957,16.20155,16.20155,0,0,1-1.3252,1.58008A.50166.50166,0,0,1,113.73324,98.25488Zm-12.30176-4.623a.50129.50129,0,0,1-.418-.22461q-.53907-.81885-1.07911-1.71a.5.5,0,0,1,.8545-.51954q.53027.87452,1.06054,1.67872a.4998.4998,0,0,1-.418.77539Zm15.70508-.30079a.493.493,0,0,1-.2373-.06054.49844.49844,0,0,1-.20215-.67676q.4541-.84228.90137-1.76367a.5001.5001,0,0,1,.90039.43554c-.30469.627-.61231,1.2295-.92285,1.80274A.497.497,0,0,1,117.13656,93.33105ZM98.36215,88.46289a.49993.49993,0,0,1-.43848-.25977q-.47607-.86865-.95312-1.77246a.50017.50017,0,1,1,.88476-.46679q.47314.89647.94531,1.75879a.49986.49986,0,0,1-.19824.67871A.49434.49434,0,0,1,98.36215,88.46289Zm21.32715-.57422a.48876.48876,0,0,1-.19141-.03808.50073.50073,0,0,1-.27051-.65332q.375-.90236.74512-1.84961a.50034.50034,0,1,1,.93164.36523q-.37353.95508-.75293,1.86719A.50017.50017,0,0,1,119.6893,87.88867ZM95.58187,83.12988a.50036.50036,0,0,1-.44726-.27539q-.44532-.88916-.89258-1.79687a.50007.50007,0,0,1,.89649-.44336q.44678.90381.89062,1.791a.4996.4996,0,0,1-.44727.72461Zm26.25977-.85644a.48334.48334,0,0,1-.168-.0293.5.5,0,0,1-.30273-.63867q.331-.92871.66113-1.88574a.5.5,0,0,1,.94531.32617q-.33252.96093-.665,1.89551A.49968.49968,0,0,1,121.84164,82.27344ZM388.035,80.50391,387.80551,80.5c-.16406-.00684-.32813-.01855-.49121-.03613a.49933.49933,0,0,1-.44336-.55078.511.511,0,0,1,.55078-.44336c.14062.01562.28223.02539.42383.03027l.18945.00391a5.34339,5.34339,0,0,0,1.19043-.13477.49986.49986,0,0,1,.22266.97461A6.341,6.341,0,0,1,388.035,80.50391ZM383.6932,79.042a.49677.49677,0,0,1-.27343-.082,15.51341,15.51341,0,0,1-1.64063-1.249.49986.49986,0,1,1,.6543-.75586,14.64743,14.64743,0,0,0,1.53515,1.16894.5.5,0,0,1-.27539.918Zm9.10547-.5459a.5.5,0,0,1-.32422-.88086,14.9459,14.9459,0,0,0,1.37891-1.35156.49991.49991,0,0,1,.74219.66992,16.1136,16.1136,0,0,1-1.47266,1.44336A.497.497,0,0,1,392.79867,78.49609ZM92.93344,77.73242a.49881.49881,0,0,1-.4502-.28222l-.87012-1.80665a.49968.49968,0,0,1,.9004-.43359l.87011,1.80469a.4999.4999,0,0,1-.45019.71777Zm30.84472-1.15137a.49947.49947,0,0,1-.47558-.65527q.30907-.94482.61426-1.90332a.50032.50032,0,1,1,.95312.30469q-.30762.96093-.61621,1.90918A.50052.50052,0,0,1,123.77816,76.58105Zm255.542-1.61523a.50205.50205,0,0,1-.38282-.17773q-.63573-.75439-1.26757-1.58106a.50021.50021,0,1,1,.79492-.60742q.61669.80566,1.2373,1.54394a.4994.4994,0,0,1-.38183.82227Zm17.31738-1.05566a.49208.49208,0,0,1-.27344-.082.49874.49874,0,0,1-.14453-.6914q.52589-.80567,1.042-1.68262a.49945.49945,0,0,1,.86133.50586q-.52734.89942-1.06738,1.72363A.49725.49725,0,0,1,396.63754,73.91016ZM90.32309,72.31738a.49987.49987,0,0,1-.4502-.28222l-.876-1.79981a.50008.50008,0,0,1,.89844-.43945l.87793,1.80371a.4999.4999,0,0,1-.45019.71777Zm35.27539-1.46679a.489.489,0,0,1-.14844-.02247.50013.50013,0,0,1-.3291-.626l.59082-1.90625a.49261.49261,0,0,1,.625-.33008.49883.49883,0,0,1,.33008.625L126.076,70.499A.49974.49974,0,0,1,125.59848,70.85059Zm124.46484-.17579a5.97666,5.97666,0,0,1-.84277-.06054.50023.50023,0,0,1,.14257-.99024,4.9888,4.9888,0,0,0,1.79786-.06933.50049.50049,0,1,1,.21093.97851A6.27582,6.27582,0,0,1,250.06332,70.6748ZM39.99984,70.43555a.5.5,0,0,1-.32031-.88379s.57031-.47559,1.57031-1.2793a.5001.5001,0,0,1,.627.7793c-.99024.7959-1.55469,1.2666-1.55664,1.26758A.49807.49807,0,0,1,39.99984,70.43555Zm140.39258-.03809a.49987.49987,0,0,1-.09082-.99121,6.25553,6.25553,0,0,0,1.71582-.59961.5001.5001,0,0,1,.459.88867,7.24183,7.24183,0,0,1-1.99121.69336A.49735.49735,0,0,1,180.39242,70.39746ZM375.744,70.1416a.49811.49811,0,0,1-.415-.22168q-.55226-.8247-1.10352-1.68457a.4998.4998,0,1,1,.8418-.53906q.54492.84961,1.09179,1.667a.50011.50011,0,0,1-.415.77832Zm-199.19921-.29492a.49707.49707,0,0,1-.21582-.04883,10.62123,10.62123,0,0,1-1.7754-1.09473.49941.49941,0,0,1,.59961-.79882,9.63936,9.63936,0,0,0,1.60743.99121.5.5,0,0,1-.21582.95117Zm69.18164-.87207a.49961.49961,0,0,1-.30762-.10547,13.53009,13.53009,0,0,1-1.51953-1.39844.50017.50017,0,1,1,.72851-.68554,12.50274,12.50274,0,0,0,1.40625,1.29492.5.5,0,0,1-.30761.89453Zm9.06152-.2168a.5.5,0,0,1-.30762-.89453,16.92771,16.92771,0,0,0,1.45508-1.28613.5.5,0,1,1,.70117.71289,18.01076,18.01076,0,0,1-1.541,1.3623A.49963.49963,0,0,1,254.78793,68.75781Zm144.81738-.07129a.5.5,0,0,1-.44629-.72558q.44385-.87451.87989-1.78809a.50013.50013,0,1,1,.90234.43164q-.44238.92431-.88965,1.80762A.50087.50087,0,0,1,399.60531,68.68652ZM185.30844,67.24414a.5.5,0,0,1-.375-.83105,18.68583,18.68583,0,0,0,1.20508-1.5293.5.5,0,1,1,.81445.58008,19.88984,19.88984,0,0,1-1.26953,1.61133A.50011.50011,0,0,1,185.30844,67.24414Zm-97.64551-.32031a.49978.49978,0,0,1-.44629-.27442q-.45556-.90087-.91113-1.77832a.50055.50055,0,1,1,.88867-.46093q.45556.88184.915,1.78808a.49995.49995,0,0,1-.44629.72559Zm-42.94629-.24317a.5.5,0,0,1-.30566-.8955c.50293-.3877,1.03613-.79688,1.59961-1.22168a.5.5,0,0,1,.60156.79882c-.55957.42188-1.09082.82813-1.58985,1.21387A.49712.49712,0,0,1,44.71664,66.68066Zm127.25781-.6416a.49662.49662,0,0,1-.3789-.17383c-.42676-.49511-.85254-1.02343-1.27832-1.5791a.50021.50021,0,0,1,.79492-.60742q.61816.81006,1.24121,1.53418a.5.5,0,0,1-.37891.82617ZM127.368,65.11035a.47671.47671,0,0,1-.14649-.02246.49873.49873,0,0,1-.33105-.624l.58691-1.915a.50043.50043,0,1,1,.957.293l-.58886,1.915A.49855.49855,0,0,1,127.368,65.11035Zm245.16406-.04883a.50138.50138,0,0,1-.42773-.24023q-.51856-.85547-1.03223-1.72363a.4996.4996,0,1,1,.85937-.50977q.5127.8628,1.02832,1.71387a.49977.49977,0,0,1-.42773.75976Zm-130.69043-.6084a.49773.49773,0,0,1-.4209-.23046q-.53027-.82911-1.042-1.74219a.49978.49978,0,1,1,.87109-.49024q.498.88623,1.0127,1.69336a.50009.50009,0,0,1-.4209.76953Zm17.0791-.03027a.4999.4999,0,0,1-.39551-.80664q.59181-.76319,1.18164-1.5918a.5.5,0,0,1,.81446.58008q-.60206.84522-1.20508,1.625A.5006.5006,0,0,1,258.92074,64.42285Zm143.25-1.1748a.49987.49987,0,0,1-.457-.70313q.4043-.90673.80371-1.83008a.50036.50036,0,0,1,.918.39844c-.26855.61719-.53809,1.23145-.80762,1.83789A.49978.49978,0,0,1,402.17074,63.24805ZM49.53012,63.07422a.5.5,0,0,1-.29395-.9043q.79834-.57861,1.63281-1.17285a.50019.50019,0,0,1,.57813.81641q-.82911.5874-1.623,1.165A.49832.49832,0,0,1,49.53012,63.07422Zm139.09863-.81738a.49985.49985,0,0,1-.44141-.73536q.45411-.85107.89356-1.76953a.50056.50056,0,0,1,.90234.4336q-.45117.936-.91308,1.80664A.49892.49892,0,0,1,188.62875,62.25684ZM84.85434,61.60742a.50131.50131,0,0,1-.43653-.25586q-.49658-.89062-.99023-1.72949a.49994.49994,0,0,1,.86133-.50781q.4995.8496,1.00195,1.749a.49989.49989,0,0,1-.43652.74414Zm83.56445-.40625a.49863.49863,0,0,1-.41895-.22754q-.54053-.832-1.07617-1.70508a.49978.49978,0,1,1,.85156-.52343q.53028.86133,1.06348,1.68359a.49976.49976,0,0,1-.41992.77246ZM369.46566,59.8916a.499.499,0,0,1-.43164-.24609l-1.0166-1.72363a.50044.50044,0,1,1,.86133-.50977l1.0166,1.72559a.5.5,0,0,1-.42969.7539ZM54.451,59.62207a.50006.50006,0,0,1-.2793-.915q.82909-.5581,1.67187-1.11035a.49947.49947,0,0,1,.54688.83594q-.83643.54784-1.66016,1.10449A.49845.49845,0,0,1,54.451,59.62207Zm207.8916-.13672a.49995.49995,0,0,1-.4209-.76855q.52734-.82911,1.05469-1.69239a.50011.50011,0,0,1,.85351.52149q-.53174.87012-1.06445,1.708A.50074.50074,0,0,1,262.34262,59.48535Zm-133.20117-.12012a.4952.4952,0,0,1-.14942-.02246.501.501,0,0,1-.32812-.627l.60156-1.91113a.49973.49973,0,0,1,.95312.30078l-.59961,1.90918A.50094.50094,0,0,1,129.14145,59.36523Zm109.8623-.20312a.50087.50087,0,0,1-.4541-.29q-.41456-.89794-.81934-1.84277a.49958.49958,0,0,1,.918-.39453q.40137.93163.80957,1.81738a.49972.49972,0,0,1-.4541.71Zm200.50977-.15527a.49969.49969,0,0,1-.47461-.34278c-.17188-.51953-.38868-1.15918-.64356-1.89453a.50032.50032,0,1,1,.94531-.32812c.25684.74121.47364,1.38476.64746,1.9082a.50043.50043,0,0,1-.31738.63184A.49062.49062,0,0,1,439.51352,59.00684ZM404.5516,57.72656a.49974.49974,0,0,1-.46094-.69433l.77735-1.84571a.49985.49985,0,0,1,.92187.38672l-.77734,1.84766A.50061.50061,0,0,1,404.5516,57.72656Zm-213.39551-.9209a.48737.48737,0,0,1-.19043-.03808.49908.49908,0,0,1-.27148-.65235c.24805-.60449.49512-1.22265.73926-1.84961a.49963.49963,0,0,1,.93164.36133q-.36915.95215-.74707,1.86914A.4986.4986,0,0,1,191.15609,56.80566ZM81.71762,56.48047a.49938.49938,0,0,1-.41211-.2168q-.583-.8496-1.16114-1.59863a.49986.49986,0,0,1,.791-.61133c.39648.51172.79395,1.06152,1.19434,1.64356a.5.5,0,0,1-.41211.7832ZM59.5057,56.375a.5.5,0,0,1-.25879-.92773q.86867-.52589,1.7334-1.02539a.49966.49966,0,1,1,.5.86523q-.85547.49512-1.71582,1.01562A.49888.49888,0,0,1,59.5057,56.375Zm105.80274-.31836a.49724.49724,0,0,1-.4336-.252q-.49511-.86425-.99023-1.748a.50016.50016,0,0,1,.873-.48828q.49218.87744.98437,1.74023a.50029.50029,0,0,1-.43359.748Zm201.07812-1.32519a.50008.50008,0,0,1-.42676-.23926q-.52587-.85841-1.05273-1.69629a.49988.49988,0,1,1,.8457-.5332q.53028.84228,1.06055,1.708a.501.501,0,0,1-.166.6875A.49511.49511,0,0,1,366.38656,54.73145ZM265.452,54.34277a.49168.49168,0,0,1-.252-.06836.49936.49936,0,0,1-.17969-.68359q.501-.85986,1.00195-1.73047a.5.5,0,1,1,.86719.49805q-.50244.873-1.00586,1.73633A.49877.49877,0,0,1,265.452,54.34277Zm-134.47949-.7041a.48454.48454,0,0,1-.15625-.02539.49872.49872,0,0,1-.31836-.63086q.31641-.9624.63477-1.9043a.5.5,0,1,1,.94726.32032q-.31786.939-.63281,1.89648A.49932.49932,0,0,1,130.9725,53.63867Zm105.71387-.02246a.49954.49954,0,0,1-.4668-.32129q-.356-.92724-.70605-1.88281a.50018.50018,0,1,1,.93945-.34375q.34716.94629.70019,1.86914a.50021.50021,0,0,1-.46679.67871ZM64.7518,53.44434a.49988.49988,0,0,1-.22461-.94629q.92577-.46729,1.82422-.875a.5.5,0,1,1,.41406.91015c-.58594.26563-1.1836.55371-1.78906.85742A.49973.49973,0,0,1,64.7518,53.44434Zm372.75781-.11622a.501.501,0,0,1-.46875-.32519c-.22461-.60156-.46094-1.22656-.71-1.86914a.50054.50054,0,1,1,.93359-.36133c.249.64649.48731,1.27539.71387,1.88086a.49958.49958,0,0,1-.46875.6748Zm-30.62109-1.14453a.4999.4999,0,0,1-.46-.69629l.78907-1.84277a.49958.49958,0,1,1,.918.39453l-.78711,1.84082A.50051.50051,0,0,1,406.88852,52.18359ZM77.80746,51.94727a.49732.49732,0,0,1-.31641-.11329,7.16177,7.16177,0,0,0-1.55957-.99707.5.5,0,0,1,.41016-.91211,8.10757,8.10757,0,0,1,1.78223,1.13575.5.5,0,0,1-.31641.88672Zm115.48535-.76172a.47415.47415,0,0,1-.167-.0293.49829.49829,0,0,1-.30371-.6377q.33105-.93456.66016-1.88769a.5.5,0,0,1,.94531.32617q-.33106.95655-.66406,1.89551A.49873.49873,0,0,1,193.29281,51.18555Zm-123.001-.05274a.50017.50017,0,0,1-.14649-.97851,18.46911,18.46911,0,0,1,1.99707-.49707.50049.50049,0,1,1,.18164.98437,16.89239,16.89239,0,0,0-1.88574.46973A.51159.51159,0,0,1,70.29184,51.13281Zm92.08789-.32617a.49994.49994,0,0,1-.43848-.25976l-.96484-1.75586a.49959.49959,0,1,1,.875-.48243l.96679,1.75782a.49986.49986,0,0,1-.19824.67871A.49434.49434,0,0,1,162.37973,50.80664Zm157.85254-.082a9.27507,9.27507,0,0,1-1.40625-.10254.4999.4999,0,1,1,.15136-.98828,5.32039,5.32039,0,0,0,1.27637.09082c.20117,0,.40527-.00684.6123-.01856a.49428.49428,0,0,1,.52832.46973.49952.49952,0,0,1-.46972.52832C320.69027,50.71875,320.46957,50.72754,320.23227,50.72461Zm4.58886-.74609a.49992.49992,0,0,1-.13769-.98047q.91992-.26367,1.87695-.60157a.5.5,0,1,1,.332.94336c-.65722.23145-1.30273.43946-1.93359.61914A.48333.48333,0,0,1,324.82113,49.97852Zm38.30762-.29786a.501.501,0,0,1-.41211-.21582q-.57276-.83349-1.15234-1.61816a.5.5,0,1,1,.80468-.59375c.39161.53027.78223,1.08008,1.17188,1.64355a.4998.4998,0,0,1-.41211.78418ZM315.16488,49.252a.4934.4934,0,0,1-.23437-.05859c-.55176-.293-1.14356-.6377-1.76074-1.02441a.50019.50019,0,1,1,.53125-.84766c.59668.375,1.16894.708,1.69824.98926a.49993.49993,0,0,1-.23438.9414ZM268.45,49.13379a.5.5,0,0,1-.43359-.749l1.001-1.73829a.50015.50015,0,0,1,.86524.502l-.999,1.73437A.49828.49828,0,0,1,268.45,49.13379Zm-33.80859-1.1709a.50031.50031,0,0,1-.47266-.33691q-.3252-.94336-.64649-1.90039a.49967.49967,0,1,1,.94727-.31836q.3208.95069.64453,1.89257a.5.5,0,0,1-.47265.66309Zm-101.71094-.00977a.50022.50022,0,0,1-.46973-.67089q.34863-.958.69824-1.88477a.50006.50006,0,0,1,.93555.35352q-.34717.91992-.69434,1.873A.49934.49934,0,0,1,132.93051,47.95312ZM330.451,47.89941a.50016.50016,0,0,1-.19727-.96c.60449-.25781,1.21289-.52734,1.82422-.80273a.5.5,0,0,1,.41015.91211q-.92577.416-1.83984.81055A.5053.5053,0,0,1,330.451,47.89941Zm104.85156-.166a.49954.49954,0,0,1-.46094-.30664q-.38232-.9126-.78516-1.83692a.49985.49985,0,0,1,.916-.40039c.27051.61914.53418,1.23828.791,1.85059a.50017.50017,0,0,1-.46094.69336Zm-26.00293-1.0586a.50849.50849,0,0,1-.208-.04492.5011.5011,0,0,1-.24707-.66308q.42188-.92431.84668-1.82325a.50018.50018,0,1,1,.9043.42774q-.42187.8921-.84082,1.81152A.50039.50039,0,0,1,409.29965,46.6748Zm-99.1543-.71386a.49518.49518,0,0,1-.29883-.09961q-.791-.59034-1.59961-1.22461a.50012.50012,0,1,1,.61719-.78711c.53125.416,1.0586.82129,1.58008,1.21094a.49993.49993,0,0,1-.29883.90039Zm-150.68066-.41406a.50106.50106,0,0,1-.43555-.25391c-.33008-.584-.66016-1.16406-.99121-1.73438a.50014.50014,0,0,1,.86523-.502q.49951.86133.99707,1.74414a.49985.49985,0,0,1-.43554.7461Zm176.4541-.12989a.49994.49994,0,0,1-.21094-.95312l1.81836-.84375a.49988.49988,0,1,1,.418.9082l-1.81445.8418A.491.491,0,0,1,335.91879,45.417Zm23.52832-.47754a.502.502,0,0,1-.37109-.16406c-.46-.50977-.9209-.98144-1.36915-1.40332a.50018.50018,0,0,1,.68555-.72852c.46778.44043.94727.93165,1.42578,1.46094a.49948.49948,0,0,1-.37109.835Zm-87.96289-.99414a.493.493,0,0,1-.25781-.07226.49834.49834,0,0,1-.16993-.68555q.52441-.87012,1.04883-1.71484A.5.5,0,1,1,272.95492,42q-.52148.83789-1.043,1.70312A.49778.49778,0,0,1,271.48422,43.94531Zm69.91015-.999a.4999.4999,0,0,1-.19531-.96q.94484-.3999,1.86817-.76074a.5.5,0,1,1,.36328.93164q-.90968.353-1.84082.749A.4961.4961,0,0,1,341.39437,42.94629ZM135.12,42.35352a.4999.4999,0,0,1-.46-.69629q.40577-.94923.81641-1.84375a.49947.49947,0,1,1,.9082.416q-.40429.88184-.80469,1.82031A.499.499,0,0,1,135.12,42.35352Zm97.61328-.09278a.49969.49969,0,0,1-.47461-.34375l-.625-1.90429a.50029.50029,0,0,1,.95117-.31055l.62305,1.90234a.49911.49911,0,0,1-.31836.63086A.48454.48454,0,0,1,232.73324,42.26074ZM432.83871,42.249a.49985.49985,0,0,1-.45019-.28222q-.438-.90528-.89161-1.78028a.49968.49968,0,0,1,.88672-.46093c.30762.59082.60938,1.19433.90528,1.80566a.49991.49991,0,0,1-.4502.71777Zm-127.40527-.01367a.49734.49734,0,0,1-.31641-.11328l-1.5498-1.26953a.50028.50028,0,0,1,.63476-.77344l1.54785,1.26953a.5.5,0,0,1-.3164.88672Zm106.5-.96387a.50015.50015,0,0,1-.44141-.73437q.48193-.90967.9707-1.76856a.4999.4999,0,1,1,.86914.49415q-.48192.8452-.957,1.74316A.49982.49982,0,0,1,411.93344,41.27148Zm-57.10059-.10839a.5038.5038,0,0,1-.22558-.05371,7.49981,7.49981,0,0,0-1.67676-.62208l.041-.5039.11719-.48633-.11719.48633.17383-.47266a8.4915,8.4915,0,0,1,1.91309.70606.5.5,0,0,1-.22559.94629Zm-7.79-.24121a.50023.50023,0,0,1-.12988-.9834c.69922-.1875,1.373-.33594,2.001-.44043a.49994.49994,0,0,1,.16406.98633c-.5957.0996-1.23731.24121-1.90527.42089A.54423.54423,0,0,1,347.04281,40.92188ZM156.40414,40.374a.49955.49955,0,0,1-.42383-.2334q-.54053-.85839-1.082-1.66992a.49972.49972,0,0,1,.83008-.55664q.55078.82178,1.09766,1.69336a.4995.4995,0,0,1-.15625.68946A.4926.4926,0,0,1,156.40414,40.374Zm144.37207-1.93945a.49949.49949,0,0,1-.31348-.11035q-.78222-.62842-1.56347-1.24121a.49951.49951,0,1,1,.61523-.78711c.52442.40918,1.04981.82715,1.5752,1.249a.5.5,0,0,1-.31348.88965Zm129.20313-1.47266a.49849.49849,0,0,1-.42579-.23828q-.53466-.87157-1.0791-1.65625a.49954.49954,0,0,1,.82032-.57031c.374.53613.74414,1.10645,1.11035,1.70313a.49937.49937,0,0,1-.16407.6875A.49322.49322,0,0,1,429.97934,36.96191ZM137.744,36.94824a.493.493,0,0,1-.24707-.06543.49925.49925,0,0,1-.1875-.68164q.523-.92284,1.05762-1.73633a.5.5,0,0,1,.83594.54883q-.51709.78663-1.02442,1.68164A.49855.49855,0,0,1,137.744,36.94824Zm277.294-.8164a.5.5,0,0,1-.40723-.79c.415-.582.833-1.126,1.24219-1.61621a.49989.49989,0,0,1,.76758.64062c-.39356.4707-.79492.99414-1.19531,1.55567A.49934.49934,0,0,1,415.03793,36.13184Zm-262.083-.67481a.49862.49862,0,0,1-.38867-.18555c-.43652-.53808-.87012-1.0371-1.28906-1.48242a.50017.50017,0,1,1,.72851-.68554c.43555.46289.88575.98046,1.33789,1.53906a.5.5,0,0,1-.38867.81445Zm143.04688-.666a.49023.49023,0,0,1-.28809-.0918c-.55078-.38867-1.09766-.7627-1.64062-1.11621a.50028.50028,0,1,1,.54687-.83789q.82911.542,1.66992,1.13769a.49993.49993,0,0,1-.28808.90821Zm-17.583-.63575a.5.5,0,0,1-.36524-.84082c.49024-.52539.98047-1.00781,1.458-1.43359a.50006.50006,0,1,1,.666.74609c-.45508.40528-.92383.86621-1.39356,1.36914A.49684.49684,0,0,1,278.41879,34.15527Zm147.90039-1.94043a.49929.49929,0,0,1-.34082-.13476,7.666,7.666,0,0,0-1.49609-1.11817.5.5,0,1,1,.48046-.877A8.61209,8.61209,0,0,1,426.66,31.34863a.5.5,0,0,1-.34082.86621Zm-285.001-.05273a.5.5,0,0,1-.33691-.87012,8.35665,8.35665,0,0,1,1.70312-1.2207.50018.50018,0,1,1,.4668.88476,7.28988,7.28988,0,0,0-1.49609,1.07618A.5003.5003,0,0,1,141.3182,32.16211Zm277.835-.3457a.50006.50006,0,0,1-.28222-.91309,8.82258,8.82258,0,0,1,1.85254-.97949.49971.49971,0,0,1,.35156.93555,7.8082,7.8082,0,0,0-1.63965.87011A.50225.50225,0,0,1,419.15316,31.81641ZM290.87875,31.666a.4959.4959,0,0,1-.21777-.04981,18.30371,18.30371,0,0,0-1.791-.76269.50044.50044,0,0,1,.33984-.94141,19.59242,19.59242,0,0,1,1.88672.80371.5.5,0,0,1-.21777.9502Zm-142.294-.27442a.49724.49724,0,0,1-.2539-.06933,6.94487,6.94487,0,0,0-1.69434-.73633.50011.50011,0,0,1,.26367-.96485,7.95584,7.95584,0,0,1,1.93848.83985.5.5,0,0,1-.25391.93066Zm134.59864-.78613a.49989.49989,0,0,1-.17578-.96777c.10351-.03907.207-.07618.30957-.11133a6.78327,6.78327,0,0,1,1.79-.3291.46664.46664,0,0,1,.52441.47363.49865.49865,0,0,1-.47363.52441,5.79807,5.79807,0,0,0-1.52246.2793l-.27637.09863A.4822.4822,0,0,1,283.18344,30.60547Zm-56.333-5.38965a.49965.49965,0,0,1-.46484-.31543q-.37355-.9419-.75293-1.84473a.50023.50023,0,0,1,.92187-.38867c.25586.60742.50977,1.23047.76074,1.86426M203.204,22.81445a.50579.50579,0,0,1-.20118-.042.50047.50047,0,0,1-.25683-.65918q.41454-.94189.83984-1.835a.49971.49971,0,1,1,.90234.42969q-.41894.88036-.82617,1.80761A.50038.50038,0,0,1,203.204,22.81445Zm21.23144-3.10156a.49832.49832,0,0,1-.44727-.27734q-.45409-.91115-.91992-1.75489a.50006.50006,0,0,1,.875-.48437c.31739.57324.63086,1.17285.93946,1.79394a.49953.49953,0,0,1-.22461.66993A.49067.49067,0,0,1,224.43539,19.71289ZM205.909,17.45215a.50021.50021,0,0,1-.42968-.75488c.36328-.61231.73144-1.18946,1.09472-1.71582a.49979.49979,0,1,1,.82227.56835c-.34961.50684-.70606,1.06446-1.05762,1.65723A.49932.49932,0,0,1,205.909,17.45215Zm15.43848-2.87988A.49838.49838,0,0,1,220.95,14.375a16.22346,16.22346,0,0,0-1.25879-1.47266.5.5,0,1,1,.7168-.69726,16.93634,16.93634,0,0,1,1.33691,1.56445.50009.50009,0,0,1-.39746.80274Zm-11.78418-1.84766a.5.5,0,0,1-.33691-.86914,10.86971,10.86971,0,0,1,1.65234-1.25781.50011.50011,0,1,1,.52148.85351,9.9459,9.9459,0,0,0-1.5,1.14258A.49659.49659,0,0,1,209.56332,12.72461Zm7.24609-1.9082a.48654.48654,0,0,1-.17285-.03125,5.4771,5.4771,0,0,0-1.75781-.34082.50008.50008,0,0,1,.0127-1h.01269a6.444,6.444,0,0,1,2.07813.40332.49985.49985,0,0,1-.17286.96875Z"/><path class="cls-1" d="M439.99984,110.25h-400a.25048.25048,0,0,1-.25-.25V10a.25.25,0,0,1,.5,0v99.75h399.75a.25.25,0,0,1,0,.5Z"/><path class="cls-1" d="M144.3475,112.25a.25048.25048,0,0,1-.25-.25v-2a.25.25,0,0,1,.5,0v2A.25048.25048,0,0,1,144.3475,112.25Z"/><path class="cls-1" d="M248.69613,112.25a.25048.25048,0,0,1-.25-.25v-2a.25.25,0,0,1,.5,0v2A.25048.25048,0,0,1,248.69613,112.25Z"/><path class="cls-1" d="M353.04379,112.25a.25048.25048,0,0,1-.25-.25v-2a.25.25,0,0,1,.5,0v2A.25048.25048,0,0,1,353.04379,112.25Z"/><path class="cls-1" d="M92.17367,112.25a.25048.25048,0,0,1-.25-.25v-2a.25.25,0,0,1,.5,0v2A.25048.25048,0,0,1,92.17367,112.25Z"/><path class="cls-1" d="M196.52133,112.25a.25048.25048,0,0,1-.25-.25v-2a.25.25,0,0,1,.5,0v2A.25048.25048,0,0,1,196.52133,112.25Z"/><path class="cls-1" d="M300.87,112.25a.25048.25048,0,0,1-.25-.25v-2a.25.25,0,0,1,.5,0v2A.25048.25048,0,0,1,300.87,112.25Z"/><path class="cls-1" d="M39.99984,60.25h-2a.25.25,0,0,1,0-.5h2a.25.25,0,1,1,0,.5Z"/><path class="cls-1" d="M39.99984,35.25h-2a.25.25,0,0,1,0-.5h2a.25.25,0,1,1,0,.5Z"/><path class="cls-1" d="M39.99984,85.25h-2a.25.25,0,0,1,0-.5h2a.25.25,0,1,1,0,.5Z"/><rect class="cls-2" width="480" height="140"/><rect class="cls-2" x="159.9141" y="17.5" width="160.1718" height="80"/><rect class="cls-3" x="197.5859" y="39.5" width="85" height="38" rx="2"/><path class="cls-4" d="M280.58578,77.75h-81a2.25309,2.25309,0,0,1-2.25-2.25v-34a2.25309,2.25309,0,0,1,2.25-2.25h81a2.25309,2.25309,0,0,1,2.25,2.25v34A2.25309,2.25309,0,0,1,280.58578,77.75Zm-81-38a1.75213,1.75213,0,0,0-1.75,1.75v34a1.75213,1.75213,0,0,0,1.75,1.75h81a1.75213,1.75213,0,0,0,1.75-1.75v-34a1.75213,1.75213,0,0,0-1.75-1.75Z"/><path class="cls-1" d="M202.58578,62.75h-1a.25.25,0,0,1,0-.5h1a.25.25,0,0,1,0,.5Z"/><path class="cls-1" d="M202.58578,57.75h-1a.25.25,0,0,1,0-.5h1a.25.25,0,0,1,0,.5Z"/><path class="cls-1" d="M202.58578,67.75h-1a.25.25,0,0,1,0-.5h1a.25.25,0,0,1,0,.5Z"/><path class="cls-1" d="M207.58578,73.75a.25048.25048,0,0,1-.25-.25v-1a.25.25,0,0,1,.5,0v1A.25048.25048,0,0,1,207.58578,73.75Z"/><path class="cls-1" d="M222.58578,73.75a.25048.25048,0,0,1-.25-.25v-1a.25.25,0,0,1,.5,0v1A.25048.25048,0,0,1,222.58578,73.75Z"/><path class="cls-1" d="M212.58578,73.75a.25048.25048,0,0,1-.25-.25v-1a.25.25,0,0,1,.5,0v1A.25048.25048,0,0,1,212.58578,73.75Z"/><circle class="cls-5" cx="277.5859" cy="57.5" r="1"/><path class="cls-4" d="M282.58578,43.75h-85a.25.25,0,0,1,0-.5h85a.25.25,0,0,1,0,.5Z"/><path class="cls-4" d="M200.83578,42.5a1,1,0,1,1,1-1A1.00067,1.00067,0,0,1,200.83578,42.5Zm0-1.5a.5.5,0,1,0,.5.5A.501.501,0,0,0,200.83578,41Z"/><path class="cls-4" d="M203.83578,42.5a1,1,0,1,1,1-1A1.00067,1.00067,0,0,1,203.83578,42.5Zm0-1.5a.5.5,0,1,0,.5.5A.501.501,0,0,0,203.83578,41Z"/><path class="cls-4" d="M206.83578,42.5a1,1,0,1,1,1-1A1.00067,1.00067,0,0,1,206.83578,42.5Zm0-1.5a.5.5,0,1,0,.5.5A.501.501,0,0,0,206.83578,41Z"/><path class="cls-5" d="M253.3934,66.7627c-2.23242,0-3.27832-3.57227-4.124-6.46a19.965,19.965,0,0,0-.9082-2.69335l-.08594-.17774c-.75195-1.54687-3.05859-6.25-4.60546-5.69336-1.55762.55371-1.9004,3.88379-2.23243,7.10352-.36523,3.55273-.71191,6.91308-2.72558,6.91308-.04785,0-.09571-.00195-.14551-.00586-1.36035-.10351-1.7168-2.499-2.06055-4.81445-.19922-1.34375-.47265-3.18457-.91992-3.18457-.59766,0-1.01855,1.24023-1.39062,2.335-.4043,1.19141-.78614,2.31641-1.50586,2.64258a1.01933,1.01933,0,0,1-.93262.002c-.96582-.50488-1.36133-2.65429-1.81836-5.14355-.49512-2.69532-1.05664-5.75-2.36914-5.83692-.02539-.001-.04981-.002-.0752-.002-1.92382,0-3.61523,4.82617-4.43359,7.16113-.08789.251-.168.47852-.23926.67676-.78613,2.17676-2.84082,7.169-5.13183,7.169-.041,0-.082-.001-.12305-.00489-1.5791-.124-2.1377-2.58105-2.72949-5.18164-.52539-2.30664-1.06739-4.69238-2.27735-4.81836-.93164-.10156-1.67578,1.63379-2.38671,3.3086-.7334,1.72949-1.42579,3.3623-2.51661,3.68261-1.36621.39649-4.8164-1.78027-5.20507-2.03027a.24949.24949,0,1,1,.26953-.41992c1.0039.64453,3.8164,2.25781,4.79492,1.96973.86328-.25293,1.541-1.85157,2.19726-3.39649.81641-1.92773,1.5625-3.74219,2.89942-3.6123,1.56543.16406,2.12207,2.6123,2.71191,5.20507.52539,2.31055,1.06836,4.69922,2.28125,4.79493,1.64649.12207,3.57715-3.60254,4.74512-6.83594.07129-.19727.15039-.42285.2373-.67188.92286-2.63183,2.62793-7.49609,4.90821-7.49609.03613,0,.07129.001.10644.00391,1.70117.1123,2.27442,3.22949,2.82813,6.24511.39746,2.16211.80761,4.39844,1.55761,4.79a.51756.51756,0,0,0,.49415-.01367c.52246-.23633.90332-1.3584,1.24023-2.34863.4668-1.375.9082-2.67383,1.86328-2.67383.87793,0,1.11524,1.59375,1.415,3.61133.28516,1.92285.64063,4.31543,1.60449,4.38965,1.65821.12207,2.001-3.22168,2.335-6.46.34766-3.375.707-6.86426,2.56153-7.52344,1.75683-.623,3.625,2.65625,5.22265,5.94629l.08594.17675a19.872,19.872,0,0,1,.93945,2.77149c.81934,2.80078,1.81543,6.30664,3.81055,6.0918,1.21582-.1211,1.76074-2.49805,2.28809-4.79688.59082-2.57519,1.14941-5.00683,2.70605-5.20215.97949-.11035,1.85156.95117,2.80078,2.084.77539.92675,1.57715,1.88379,2.24024,1.91113.01172.001.02343.001.03418.001a5.31672,5.31672,0,0,0,2.10351-.9795c1.0586-.66113,2.15918-1.34668,2.95117-1.001.999.42871,1.67481,1.97265,2.39063,3.60644.72656,1.66016,1.47754,3.376,2.42871,3.376.02051,0,.042-.001.0625-.002,1.67773-.13184,3.29395-5.67969,3.77539-7.80664a.246.246,0,0,1,.29981-.18848.25133.25133,0,0,1,.18847.29883c-.18555.81933-1.8789,8.01074-4.22461,8.19433-1.32422.09864-2.13769-1.72851-2.98828-3.67187-.64551-1.47266-1.31152-2.9961-2.12988-3.34766-.5586-.24023-1.584.40235-2.48926.9668A4.86142,4.86142,0,0,1,263.575,60.75c-.88379-.03613-1.71875-1.03418-2.60352-2.08984-.82031-.98047-1.65918-1.98828-2.35449-1.90918-1.21.15136-1.75488,2.52343-2.28125,4.81836-.59277,2.584-1.15234,5.02539-2.72558,5.18261C253.537,66.75879,253.46469,66.7627,253.3934,66.7627Z"/><path class="cls-1" d="M217.58578,73.75a.25048.25048,0,0,1-.25-.25v-1a.25.25,0,0,1,.5,0v1A.25048.25048,0,0,1,217.58578,73.75Z"/><path class="cls-1" d="M227.58578,73.75a.25048.25048,0,0,1-.25-.25v-1a.25.25,0,0,1,.5,0v1A.25048.25048,0,0,1,227.58578,73.75Z"/><path class="cls-1" d="M232.58578,73.75a.25048.25048,0,0,1-.25-.25v-1a.25.25,0,0,1,.5,0v1A.25048.25048,0,0,1,232.58578,73.75Z"/><path class="cls-1" d="M229.08871,38.43359a.24837.24837,0,0,1-.17676-.07324l-1-1a.25.25,0,0,1,.35352-.35351l1,1a.25.25,0,0,1-.17676.42675Z"/><path class="cls-1" d="M231.08871,38.43359a.24837.24837,0,0,1-.17676-.07324l-2-2a.25.25,0,0,1,.35352-.35351l2,2a.25.25,0,0,1-.17676.42675Z"/><path class="cls-6" d="M227.41081,40.57134l-4.94975,4.94975c-.07811.0781-.29971-.01687-.495-.21213s-.29023-.41687-.21213-.495l4.94975-4.94975"/><path class="cls-4" d="M222.38559,45.79883a.91587.91587,0,0,1-.59668-.31348.92947.92947,0,0,1-.3125-.59473.35141.35141,0,0,1,.10156-.2539l4.94922-4.94922a.25.25,0,0,1,.35351.35352L221.992,44.92969a.77339.77339,0,0,0,.15039.20215.78323.78323,0,0,0,.20313.15136l4.88867-4.88867a.25.25,0,1,1,.35351.35352l-4.95019,4.95019A.34623.34623,0,0,1,222.38559,45.79883Zm-.45411-.8086-.001.001Z"/><path class="cls-6" d="M227.05715,40.21779a4,4,0,1,0,0-5.65686A4.0002,4.0002,0,0,0,227.05715,40.21779Zm.70727-4.94977a2.99991,2.99991,0,1,1,0,4.24267A2.99975,2.99975,0,0,1,227.76442,35.268Z"/><path class="cls-4" d="M229.88559,41.63965a4.25049,4.25049,0,1,1,3.00488-1.24512A4.2208,4.2208,0,0,1,229.88559,41.63965Zm0-7.999a3.74854,3.74854,0,0,0-2.65137,6.4004h0a3.74995,3.74995,0,1,0,2.65137-6.4004Zm0,6.999a3.25035,3.25035,0,0,1-2.29786-5.54883h0a3.25,3.25,0,1,1,2.29786,5.54883Zm-1.94434-5.19531a2.75,2.75,0,1,0,3.88867,0,2.7537,2.7537,0,0,0-3.88867,0Z"/><path class="cls-7" d="M221.83136,31.29691c-.76484,2.31082-4.20418,4.17067-8.7761,3.25991a11.46453,11.46453,0,0,1-6.08556-4.02549s-7.99224.91825-8.21314-.43625c-.24331-1.49187,9.68246-2.7663,15.30946-2.0931,2.735.32721,4.35809,1.33837,5.65606.56654a10.48707,10.48707,0,0,1,4.12111-1.29527c1.63279-.05831,3.06381,1.77548,2.53666,2.47834-.6123.81639-1.70862.09525-2.53666.23326A2.72,2.72,0,0,0,221.83136,31.29691Z"/><path class="cls-4" d="M215.41391,35.04785a12.31962,12.31962,0,0,1-2.40723-.24609,11.74791,11.74791,0,0,1-6.15527-4.00586c-2.085.23242-8.10645.7793-8.3418-.66113a.67775.67775,0,0,1,.21582-.58789c1.3418-1.40137,10.10254-2.42676,15.37012-1.793a20.69269,20.69269,0,0,1,2.58593.50879c1.25879.30957,2.168.53222,2.91309.09082a10.84792,10.84792,0,0,1,4.24023-1.33008,3.15365,3.15365,0,0,1,2.70411,1.64062,1.15693,1.15693,0,0,1,.041,1.23828c-.48535.64746-1.19531.51758-1.82324.40039a2.6404,2.6404,0,0,0-.87207-.07128A2.50015,2.50015,0,0,0,222.0682,31.376h0C221.41879,33.33789,218.96273,35.04785,215.41391,35.04785Zm-8.44434-4.7666a.248.248,0,0,1,.20605.10937,11.296,11.296,0,0,0,5.92872,3.9209c4.38183.87207,7.75878-.88769,8.48925-3.09277v-.001a2.96577,2.96577,0,0,1,2.209-1.47949,3.03609,3.03609,0,0,1,1.04492.07324c.64062.11817,1.04785.1709,1.332-.21.10547-.13965.07422-.40429-.084-.706a2.64561,2.64561,0,0,0-2.17481-1.37305c-.02246,0-.04492,0-.06836.001a10.235,10.235,0,0,0-4.002,1.25976c-.918.5459-1.96289.29-3.28809-.03418a20.30164,20.30164,0,0,0-2.52539-.499c-5.29687-.63477-13.83008.47363-14.95019,1.64258-.043.04492-.0918.10937-.083.16211.10937.66894,4.19336.65918,7.9375.22851Z"/><path class="cls-8" d="M226.32961,29.92961c.13179.24.4704,1.25209.205,1.403s-.78554-1.0382-.78554-1.0382"/><path class="cls-4" d="M215.01449,32.76172a5.33611,5.33611,0,0,1-.90234-.0791,5.0771,5.0771,0,0,1-3.57129-2.2793.25029.25029,0,1,1,.44336-.23242,4.6262,4.6262,0,0,0,3.21289,2.01953,3.774,3.774,0,0,0,3.28125-.84375.25016.25016,0,0,1,.33984.36719A4.04194,4.04194,0,0,1,215.01449,32.76172Z"/><path class="cls-4" d="M212.09164,39.10059a.24948.24948,0,0,1-.16992-.06641.25242.25242,0,0,1-.08008-.19238l.15039-4.41407a.23255.23255,0,0,1,.25879-.24121.25.25,0,0,1,.24121.25879l-.14062,4.126,1.11816-.12109a.25752.25752,0,0,1,.27539.22265.25131.25131,0,0,1-.22266.27539l-1.40429.15137Z"/><path class="cls-4" d="M214.97738,38.95117a.25559.25559,0,0,1-.16015-.05762.25235.25235,0,0,1-.08985-.18359l-.14258-3.92187a.25.25,0,0,1,.24122-.25879.26974.26974,0,0,1,.25878.24121l.13184,3.64258.96484-.14161a.24532.24532,0,0,1,.28321.21094.24873.24873,0,0,1-.21094.2832l-1.24023.18262A.22468.22468,0,0,1,214.97738,38.95117Z"/><path class="cls-1" d="M247.58578,73.75a.25048.25048,0,0,1-.25-.25v-1a.25.25,0,0,1,.5,0v1A.25048.25048,0,0,1,247.58578,73.75Z"/><path class="cls-1" d="M237.58578,73.75a.25048.25048,0,0,1-.25-.25v-1a.25.25,0,0,1,.5,0v1A.25048.25048,0,0,1,237.58578,73.75Z"/><path class="cls-1" d="M242.58578,73.75a.25048.25048,0,0,1-.25-.25v-1a.25.25,0,0,1,.5,0v1A.25048.25048,0,0,1,242.58578,73.75Z"/><path class="cls-1" d="M277.58578,72.75h-75a.25048.25048,0,0,1-.25-.25v-25a.25.25,0,0,1,.5,0V72.25h74.75a.25.25,0,0,1,0,.5Z"/><path class="cls-1" d="M252.58578,73.75a.25048.25048,0,0,1-.25-.25v-1a.25.25,0,0,1,.5,0v1A.25048.25048,0,0,1,252.58578,73.75Z"/><path class="cls-1" d="M257.58578,73.75a.25048.25048,0,0,1-.25-.25v-1a.25.25,0,0,1,.5,0v1A.25048.25048,0,0,1,257.58578,73.75Z"/><path class="cls-1" d="M267.58578,73.75a.25048.25048,0,0,1-.25-.25v-1a.25.25,0,0,1,.5,0v1A.25048.25048,0,0,1,267.58578,73.75Z"/><path class="cls-5" d="M262.58578,73.75a.25048.25048,0,0,1-.25-.25v-1a.25.25,0,0,1,.5,0v1A.25048.25048,0,0,1,262.58578,73.75Z"/><path class="cls-1" d="M272.58578,73.75a.25048.25048,0,0,1-.25-.25v-1a.25.25,0,0,1,.5,0v1A.25048.25048,0,0,1,272.58578,73.75Z"/><path class="cls-1" d="M202.58578,52.75h-1a.25.25,0,0,1,0-.5h1a.25.25,0,0,1,0,.5Z"/><path class="cls-9" d="M254.92755,56.21985c0-.48975-.42969-.79932-1.07959-.79932a1.693,1.693,0,0,0-1.44922.73926l-1.209-.70947a3.18478,3.18478,0,0,1,2.82812-1.33936c1.49951,0,2.53857.66992,2.53857,1.84912,0,1.59913-1.67871,1.77881-1.67871,2.83839h-1.50927C253.36847,57.39905,254.92755,57.08948,254.92755,56.21985Zm-1.75928,4.17774a.96221.96221,0,0,1,1.91894,0,.96083.96083,0,0,1-1.91894,0Z"/><path class="cls-10" d="M258.82016,67.2002a.29009.29009,0,0,1-.041-.00293c-1.64648-.27442-3.53125-2.46-3.96777-3.51075a.24954.24954,0,1,1,.46093-.1914c.39942.96,2.18946,2.97558,3.58887,3.208a.25021.25021,0,0,1-.041.49708Z"/><path class="cls-11" d="M271.33406,74.59788c-2.75222-.11324-4.49935.45561-5.554-.62519-.81275-.8329-2.27176-5.90179-3.8776-5.12364-1.50239.728,1.27468,6.4885,1.45089,7.56047.39483,2.40187,3.01345,4.80224,7.67519,4.81363a17.91213,17.91213,0,0,0,6.40678-1.56106s6.995-3.63519,6.27785-4.80529c-.77705-1.26781-7.03077,1.72861-7.03077,1.72861A9.897,9.897,0,0,0,271.33406,74.59788Z"/><path class="cls-4" d="M271.0516,81.47363h-.02441c-4.877-.01269-7.52442-2.61328-7.9209-5.02441a13.6762,13.6762,0,0,0-.53711-1.58594c-1.10059-2.95215-1.98828-5.65137-.77637-6.23926a1.00456,1.00456,0,0,1,.80176-.043c.96484.34278,1.76074,2.042,2.46191,3.541a8.53544,8.53544,0,0,0,.90235,1.67578c.65137.669,1.62207.63086,3.09863.57129.66992-.02637,1.42578-.05762,2.28711-.02148a10.09084,10.09084,0,0,1,5.37012,1.94531c1.33984-.63281,6.39355-2.90332,7.21093-1.56738a.642.642,0,0,1,.05958.52343c-.40723,1.4668-5.81836,4.31543-6.43458,4.63477-.1289.0498-.25976.10254-.41992.167A16.83437,16.83437,0,0,1,271.0516,81.47363ZM262.241,69.01758a.52182.52182,0,0,0-.22949.05566c-.90429.43848.39942,3.93555,1.02539,5.61524a12.98709,12.98709,0,0,1,.56348,1.68066c.3623,2.209,2.8418,4.59277,7.42871,4.60449h.02246a16.36277,16.36277,0,0,0,5.89258-1.38769c.166-.06641.30176-.12012.4043-.15821,2.22265-1.15722,5.89257-3.36621,6.15527-4.3125.02344-.084.00293-.11621-.00391-.12793-.40527-.665-3.79882.42872-6.709,1.82325a.253.253,0,0,1-.2666-.03223,9.72867,9.72867,0,0,0-5.20117-1.93066h0c-.833-.03516-1.584-.00489-2.2461.02148-1.5498.05957-2.668.10547-3.47558-.72168a8.07884,8.07884,0,0,1-.998-1.81348c-.59375-1.26953-1.4082-3.00878-2.17578-3.28222A.564.564,0,0,0,262.241,69.01758Z"/><path class="cls-8" d="M261.69181,69.05788c-.283-.103-1.4874-.17444-1.607.13935s1.3077.5529,1.3077.5529"/><path class="cls-4" d="M271.5643,79.17578c-.18848,0-.37989-.00879-.57227-.02637a4.639,4.639,0,0,1-3.5332-1.84668.25.25,0,1,1,.41992-.27148,4.14381,4.14381,0,0,0,3.15723,1.62012,4.314,4.314,0,0,0,3.49707-1.03223.25011.25011,0,1,1,.36523.3418A4.59171,4.59171,0,0,1,271.5643,79.17578Z"/><path class="cls-4" d="M267.491,85.96875a.21961.21961,0,0,1-.043-.00391l-1.39844-.24121a.24959.24959,0,0,1-.20313-.28906.2422.2422,0,0,1,.28907-.20312l1.14746.19824.69922-4.45508a.24644.24644,0,0,1,.28613-.208.25055.25055,0,0,1,.208.28613l-.73829,4.70508a.25068.25068,0,0,1-.24707.21094Z"/><path class="cls-4" d="M271.62387,86.16113h-.001l-1.2998-.00293a.25.25,0,0,1,.001-.5h.001l1.05957.002.19726-4.417a.27884.27884,0,0,1,.26075-.23925.25065.25065,0,0,1,.23925.26074l-.208,4.65723A.25034.25034,0,0,1,271.62387,86.16113Z"/><path class="cls-12" d="M297.716,73.20785l-.5,6.16924c0,.49705-1.34315.9-3,.9s-3-.403-3-.9l-.5-6.16924"/><path class="cls-4" d="M294.21566,80.52734c-1.56543,0-3.25-.36035-3.25-1.15039l-.499-6.14843a.24906.24906,0,0,1,.22852-.26954.242.242,0,0,1,.26953.22852l.5,6.16895c.001.209.96484.67089,2.751.67089s2.75-.46191,2.75-.65039l.501-6.18945a.243.243,0,0,1,.26953-.22852.24906.24906,0,0,1,.22852.26954l-.5,6.16894C297.46566,80.167,295.78109,80.52734,294.21566,80.52734Z"/><ellipse class="cls-12" cx="294.21597" cy="73.20785" rx="3.5" ry="1.05"/><path class="cls-4" d="M294.21566,74.50781c-1.86328,0-3.75-.44629-3.75-1.2998,0-1.707,7.5-1.707,7.5,0C297.96566,74.06152,296.079,74.50781,294.21566,74.50781Zm0-2.09961c-2.10254,0-3.25.52832-3.25.79981s1.14746.7998,3.25.7998,3.25-.52832,3.25-.7998S296.3182,72.4082,294.21566,72.4082Z"/><path class="cls-3" d="M294.31725,73.55441c.03515-.492-.35145-3.65511-.28116-4.25258"/><path class="cls-4" d="M294.31723,73.80469l-.01758-.001a.24943.24943,0,0,1-.23145-.2666c.01367-.19922-.05761-.98242-.126-1.74023a21.40522,21.40522,0,0,1-.1543-2.52442.25261.25261,0,0,1,.27734-.21875.249.249,0,0,1,.21875.27734,23.33577,23.33577,0,0,0,.15625,2.4209c.08887.98047.14258,1.59278.126,1.82032A.24963.24963,0,0,1,294.31723,73.80469Z"/><path class="cls-5" d="M297.06452,67.79232c-.41583-.3128-.69124.09774-1.11831-.42941s.49457-.65749.0675-1.18464-.79015.22924-1.15089-.65982-.88556-2.10745-1.5128-.72615,1.01706,2.20636-.26649,2.27036.68264,1.66271-.20642,2.02345-1.211-.41291-1.93595.27716,1.2481,2.17627,2.69534,1.14137c1.44789-1.03536,2.92877,1.23608,3.42334.5786s-.4934-.16525-.16291-1.15206S297.459,68.08906,297.06452,67.79232Z"/><path class="cls-4" d="M296.83285,71.458a2.12463,2.12463,0,0,1-.95312-.40821c-.64844-.39941-1.38184-.85156-2.09766-.34179a2.272,2.272,0,0,1-2.98437-.36035.8159.8159,0,0,1-.0293-1.165,1.12307,1.12307,0,0,1,1.22363-.30469,1.15587,1.15587,0,0,0,.791-.02344c.043-.01758.06933-.03711.07715-.05761.04492-.11719-.11329-.43946-.21778-.65235-.17871-.36523-.36328-.74219-.1875-1.041a.73481.73481,0,0,1,.61621-.291.68.68,0,0,0,.292-.0498.93632.93632,0,0,1-.13574-.25489,2.04533,2.04533,0,0,1-.10449-1.81933c.08789-.19336.3418-.79.81543-.76953.50781.00976.82422.6875,1.15625,1.50585.13281.32715.19824.32032.36523.30469a.76023.76023,0,0,1,.74805.292.64492.64492,0,0,1-.02832.89942c-.12012.16015-.12988.17285-.03906.28515a.43714.43714,0,0,0,.43457.20215.968.968,0,0,1,.63965.1836h0c.53808.40527.28222,1.335-.08008,2.41894-.10938.3252-.04883.35938.05176.416a.45032.45032,0,0,1,.25683.29492.66414.66414,0,0,1-.18457.51172A.50655.50655,0,0,1,296.83285,71.458Zm-2.377-1.47656a3.38914,3.38914,0,0,1,1.68555.6416c.27246.16894.65527.40722.71777.30957.02637-.03418.0459-.0625.05957-.084-.27051-.1709-.4541-.415-.25879-.99609.17773-.53223.54785-1.63867.25391-1.86035h0a.48349.48349,0,0,0-.33594-.084.91438.91438,0,0,1-.82617-.38769.64789.64789,0,0,1,.02832-.90039c.12011-.15918.12988-.17188.03906-.28418-.10352-.127-.16211-.12207-.31348-.1084-.2998.02441-.62207.00488-.874-.61524-.32031-.78906-.55762-1.19042-.70313-1.19335h-.001c-.03711,0-.17188.085-.34961.47656a1.57637,1.57637,0,0,0,.10644,1.40918c.11719.26367.22852.51269.09082.73633a.8.8,0,0,1-.67871.27148c-.1709.00781-.21191.04688-.21191.04688-.03125.0791.124.3955.207.56542a1.41643,1.41643,0,0,1,.23535,1.05079.60153.60153,0,0,1-.35644.34179,1.62112,1.62112,0,0,1-1.0918.04785.65523.65523,0,0,0-.76465.17872c-.15332.14648-.04785.34472.06836.48535a1.78592,1.78592,0,0,0,2.30859.27246A1.62159,1.62159,0,0,1,294.4559,69.98145Z"/><path class="cls-13" d="M183.10969,73.283c2.74573-.22015,4.60173.51759,5.65639-.56321.81275-.8329,2.96366-5.95086,4.62049-5.41536,1.50787.48736-2.12,6.71824-2.29616,7.79021-.39483,2.40187-3.01346,4.80224-7.67519,4.81363-2.84991.007-5.789-.94619-6.69038-1.82559,0,0-7.07384,2.75394-7.55826,1.46989C168.633,78.13825,177.46069,73.73589,183.10969,73.283Z"/><path class="cls-4" d="M183.38363,80.1582c-2.80957,0-5.65722-.90234-6.71191-1.78711-1.0625.40723-6.02149,2.24219-7.3584,1.65039a.681.681,0,0,1-.38086-.38086.81735.81735,0,0,1,.13574-.73632c1.22266-1.92871,9.09375-5.47461,14.02149-5.87012h-.001a18.96756,18.96756,0,0,1,2.665.00488c1.30176.06543,2.23926.11524,2.834-.49414a10.71386,10.71386,0,0,0,.96582-1.52051c1.13282-1.96093,2.53809-4.39062,3.91016-3.958a.718.718,0,0,1,.44434.41015c.39843.91114-.54688,3.09961-1.7295,5.65332a14.429,14.429,0,0,0-.84082,2.00489c-.39746,2.41113-3.04589,5.01074-7.92187,5.02343ZM176.72445,77.833a.24843.24843,0,0,1,.17481.07129c.85254.832,3.72168,1.7539,6.48535,1.7539h.0293c4.58593-.01172,7.0664-2.39453,7.42968-4.60449a12.93565,12.93565,0,0,1,.88184-2.13379c.77246-1.66992,2.06543-4.46387,1.72461-5.24316a.2191.2191,0,0,0-.14063-.13379c-.97265-.31152-2.44629,2.21582-3.32226,3.73144a10.27012,10.27012,0,0,1-1.042,1.62012c-.752.77051-1.83789.71387-3.21778.64356a18.9092,18.9092,0,0,0-2.59765-.00586h-.001c-4.98633.40039-12.583,3.97461-13.6377,5.63965a.39486.39486,0,0,0-.09082.293c.00586.01368.02247.05762.11719.09961.919.41407,4.76367-.79883,7.11621-1.71484A.26656.26656,0,0,1,176.72445,77.833Zm6.38477-4.54981h0Z"/><path class="cls-8" d="M193.69905,67.92224c.29.0528,1.36572.457,1.31168.78118s-1.40093-.04838-1.40093-.04838"/><path class="cls-4" d="M183.53793,77.69141a4.49111,4.49111,0,0,1-3.43164-1.28614.25.25,0,1,1,.38867-.31445,4.14045,4.14045,0,0,0,3.335,1.09375,3.99841,3.99841,0,0,0,3.19238-1.49121.24946.24946,0,0,1,.416.27539,4.48517,4.48517,0,0,1-3.584,1.71582C183.74789,77.68945,183.64242,77.69141,183.53793,77.69141Z"/><path class="cls-4" d="M186.80648,84.46777h-1.15722a.24952.24952,0,0,1-.249-.23144l-.33105-4.46a.24888.24888,0,0,1,.23047-.26758.24075.24075,0,0,1,.26758.23047l.31445,4.22851h.9248a.25.25,0,0,1,0,.5Z"/><path class="cls-4" d="M184.01645,84.46777H182.825a.25048.25048,0,0,1-.25-.25V79.89648a.25.25,0,0,1,.5,0v4.07129h.94141a.25.25,0,0,1,0,.5Z"/><path class="cls-9" d="M208.45,54.43867c0-.48975-.42969-.79932-1.07959-.79932a1.693,1.693,0,0,0-1.44922.73926l-1.209-.70947a3.18478,3.18478,0,0,1,2.82812-1.33936c1.49951,0,2.53858.66992,2.53858,1.84912,0,1.59913-1.67871,1.77881-1.67871,2.83839h-1.50928C206.89092,55.61787,208.45,55.3083,208.45,54.43867Zm-1.75928,4.17774a.96222.96222,0,0,1,1.91895,0,.96084.96084,0,0,1-1.91895,0Z"/><path class="cls-10" d="M199.41977,66.68262a.24989.24989,0,0,1-.0293-.49805,9.79008,9.79008,0,0,0,7.36426-4.67871.24938.24938,0,1,1,.42578.25976,10.27245,10.27245,0,0,1-7.73145,4.915Z"/></g></g></svg>