<svg xmlns="http://www.w3.org/2000/svg" width="360" height="140" viewBox="0 0 360 140"><defs><style>.cls-1{fill:#ddd;}.cls-2{fill:none;}.cls-3{fill:#fff;}.cls-4,.cls-8{fill:#053437;}.cls-5{fill:#33d67b;}.cls-6{fill:#f7ce05;}.cls-11,.cls-13,.cls-6,.cls-7,.cls-8{fill-rule:evenodd;}.cls-7{fill:#caecf9;}.cls-9{fill:#553bf2;}.cls-10{fill:gray;}.cls-11{fill:#f0403d;}.cls-12{fill:#f47925;}.cls-13{fill:#f6e55a;}</style></defs><g id="Layer_2" data-name="Layer 2"><g id="Layer_2-2" data-name="Layer 2"><path class="cls-1" d="M89.73629,100.169a.50008.50008,0,0,1-.24609-.93555A4.65619,4.65619,0,0,0,90.79,98.0342a.5.5,0,0,1,.78516.61914,5.65617,5.65617,0,0,1-1.59277,1.45117A.49843.49843,0,0,1,89.73629,100.169Zm-3.43261-.9795a.4999.4999,0,0,1-.37012-.16406,12.7171,12.7171,0,0,1-1.249-1.66406.49992.49992,0,1,1,.84083-.541,11.8767,11.8767,0,0,0,1.14843,1.53321.5.5,0,0,1-.37011.83593ZM93.15914,95.375a.48977.48977,0,0,1-.2041-.04394.499.499,0,0,1-.25195-.66016q.38086-.854.75391-1.82812a.49983.49983,0,1,1,.93359.35742c-.25488.666-.51367,1.29394-.77539,1.8789A.49912.49912,0,0,1,93.15914,95.375Zm-9.956-1.30859a.50141.50141,0,0,1-.45313-.28809q-.41161-.87744-.82812-1.84277a.5.5,0,0,1,.918-.39649q.41016.94923.8164,1.81543a.50044.50044,0,0,1-.24121.665A.495.495,0,0,1,83.20309,94.06643ZM95.2275,89.72854a.49545.49545,0,0,1-.14941-.02246.50106.50106,0,0,1-.32813-.627q.29-.92577.5752-1.90918a.50035.50035,0,0,1,.96094.2793c-.19239.66113-.38574,1.30566-.58106,1.92871A.501.501,0,0,1,95.2275,89.72854ZM80.875,88.52151a.5.5,0,0,1-.46679-.32032q-.35449-.92137-.708-1.88379a.4996.4996,0,0,1,.9375-.3457q.353.95508.7041,1.87012a.50082.50082,0,0,1-.28711.64648A.508.508,0,0,1,80.875,88.52151Zm15.98926-4.582a.49936.49936,0,0,1-.48437-.625q.24756-.95361.49218-1.93847a.50023.50023,0,0,1,.97071.24219q-.24756.98877-.49414,1.94628A.50087.50087,0,0,1,96.86422,83.93947ZM78.81637,82.86916a.50087.50087,0,0,1-.47168-.334q-.32959-.939-.6582-1.89746a.49968.49968,0,1,1,.94531-.32422q.32813.95214.65625,1.88965a.4997.4997,0,0,1-.30566.63769A.49462.49462,0,0,1,78.81637,82.86916Zm205.59082-2.47363a.49988.49988,0,0,1-.13379-.98145,3.81532,3.81532,0,0,0,1.48633-.876.50006.50006,0,0,1,.666.74609A4.77773,4.77773,0,0,1,284.541,80.377.49084.49084,0,0,1,284.40719,80.39553Zm-3.6084-1.16016a.50007.50007,0,0,1-.33008-.124,12.22524,12.22524,0,0,1-1.42578-1.51563.50009.50009,0,0,1,.7793-.62695,11.20075,11.20075,0,0,0,1.30664,1.39063.5.5,0,0,1-.33008.876ZM98.29489,78.0967a.49911.49911,0,0,1-.48731-.61328q.22558-.96532.44922-1.9502a.49264.49264,0,0,1,.59863-.376.50009.50009,0,0,1,.376.59863q-.22411.98584-.44922,1.9541A.50088.50088,0,0,1,98.29489,78.0967Zm-21.42774-.918a.49977.49977,0,0,1-.47363-.34082l-.64063-1.89844a.5.5,0,0,1,.94727-.32031l.64062,1.90039a.50055.50055,0,0,1-.47363.65918Zm211.61133-.9541a.4923.4923,0,0,1-.24512-.06445.49906.49906,0,0,1-.19043-.68067c.29785-.52832.60157-1.11718.9043-1.751a.49971.49971,0,1,1,.90234.42968c-.3125.65528-.627,1.26465-.93554,1.81153A.5.5,0,0,1,288.47848,76.22463ZM277.2236,74.44729a.49855.49855,0,0,1-.43457-.25293q-.48194-.84962-.96387-1.78028a.5001.5001,0,0,1,.88867-.459q.47168.91113.94434,1.74512a.49924.49924,0,0,1-.1875.68164A.493.493,0,0,1,277.2236,74.44729ZM99.61813,72.23049a.51178.51178,0,0,1-.1084-.01172.50006.50006,0,0,1-.38086-.5957l.42676-1.95508a.49954.49954,0,1,1,.97656.21094l-.42676,1.959A.49924.49924,0,0,1,99.61813,72.23049Zm-24.67676-.75a.50111.50111,0,0,1-.47363-.33887l-.64844-1.89355a.5.5,0,1,1,.94531-.32617l.65039,1.89746a.501.501,0,0,1-.3125.63476A.51081.51081,0,0,1,74.94137,71.48049Zm216.02149-.72559a.50021.50021,0,0,1-.4668-.67871q.34863-.9082.69043-1.86914a.49977.49977,0,1,1,.9414.33594c-.23046.64746-.46386,1.2793-.69824,1.89063A.49953.49953,0,0,1,290.96286,70.7549Zm-103.91211-.08007a.5.5,0,0,1-.002-1,2.9113,2.9113,0,0,0,1.56934-.53614.49947.49947,0,0,1,.54687.83594,3.87366,3.87366,0,0,1-2.1123.7002ZM39.75,69.457c.19731-.23266.60822-.71376,1.19044-1.3779a.49967.49967,0,0,1,.752.65821c-.8291.94629-1.30762,1.51757-1.30957,1.51953a.49965.49965,0,0,1-.63456.11073Zm100.13185.04886a.49993.49993,0,0,1-.32519-.87891,7.97858,7.97858,0,0,0,1.23925-1.3955.49973.49973,0,1,1,.8125.582,8.88448,8.88448,0,0,1-1.40136,1.57226A.50058.50058,0,0,1,139.8818,69.50588Zm134.64551-.42969a.49966.49966,0,0,1-.45508-.293c-.27344-.60058-.54687-1.21484-.81934-1.83789a.49985.49985,0,0,1,.916-.40039q.40576.92871.81348,1.82422a.5.5,0,0,1-.45508.707Zm-90.77149-.39453a.50108.50108,0,0,1-.38574-.18164,13.98546,13.98546,0,0,1-1.18066-1.69922.49976.49976,0,0,1,.85742-.51367,13.02962,13.02962,0,0,0,1.09473,1.57617.5.5,0,0,1-.38575.81836Zm7.8418-1.53125a.5.5,0,0,1-.41211-.7832c.33887-.49414.69141-1.05371,1.04688-1.66406a.49979.49979,0,1,1,.86328.5039c-.36719.63086-.73242,1.21192-1.08594,1.72657A.49939.49939,0,0,1,191.59762,67.15041Zm-90.707-.793a.49327.49327,0,0,1-.10645-.01172.5.5,0,0,1-.38378-.59375l.42089-1.957a.50924.50924,0,0,1,.59375-.38476.5009.5009,0,0,1,.38477.59375l-.42188,1.959A.49837.49837,0,0,1,100.89059,66.35744Zm-56.89551-.43652a.5.5,0,0,1-.36816-.83789c.43164-.4707.88965-.96387,1.36816-1.47363a.50018.50018,0,1,1,.72852.68554c-.47657.50586-.93067.99707-1.36035,1.46387A.49892.49892,0,0,1,43.99508,65.92092Zm28.96875-.12012a.50011.50011,0,0,1-.4707-.331q-.34278-.95508-.68555-1.87793a.49994.49994,0,1,1,.9375-.34766q.34423.92725.68945,1.8877a.501.501,0,0,1-.30175.63965A.51281.51281,0,0,1,72.96383,65.8008Zm219.97754-.72558a.4931.4931,0,0,1-.15332-.02442.49913.49913,0,0,1-.32227-.6289q.30177-.939.60254-1.90625a.50008.50008,0,0,1,.95508.29687q-.30322.97119-.60644,1.916A.49927.49927,0,0,1,292.94137,65.07522ZM143.125,64.51858a.492.492,0,0,1-.20214-.043.4988.4988,0,0,1-.25489-.65918q.38379-.86572.75293-1.83106a.49984.49984,0,0,1,.9336.35743q-.37939.99023-.77246,1.87792A.49915.49915,0,0,1,143.125,64.51858Zm129.01563-.96094a.50024.50024,0,0,1-.46191-.30762l-.76758-1.85254a.5.5,0,0,1,.92383-.38281l.76757,1.85059a.50135.50135,0,0,1-.26953.65429A.5117.5117,0,0,1,272.14059,63.55764Zm-91.28223-.1084a.50017.50017,0,0,1-.46191-.30859q-.37353-.90236-.73242-1.8877a.50018.50018,0,1,1,.93945-.34375c.23438.64258.47363,1.26074.7168,1.84863a.5.5,0,0,1-.27051.65332A.49206.49206,0,0,1,180.85836,63.44924Zm13.666-1.54394a.49951.49951,0,0,1-.45117-.7168q.42188-.876.84082-1.80664a.50044.50044,0,0,1,.91211.41211q-.42481.939-.85059,1.82812A.50116.50116,0,0,1,194.52438,61.9053ZM48.14352,61.56643a.5.5,0,0,1-.35547-.85254q.7002-.706,1.42871-1.417a.5.5,0,0,1,.69922.71484c-.48047.46875-.9541.93945-1.417,1.40723A.50389.50389,0,0,1,48.14352,61.56643Zm81.43359-1.07129a.4998.4998,0,0,1-.457-.29688q-.3999-.90234-.79883-1.84961a.50023.50023,0,0,1,.92188-.38867q.3955.9375.791,1.832a.49986.49986,0,0,1-.457.70313Zm-27.4209-.01563a.50078.50078,0,0,1-.48828-.60644l.42774-1.958a.5.5,0,1,1,.97656.21484L102.6445,60.086A.5004.5004,0,0,1,102.15621,60.47951Zm-31.32812-.30078a.49983.49983,0,0,1-.46289-.31054c-.25879-.63477-.51758-1.249-.77442-1.83692a.49985.49985,0,0,1,.916-.40039q.39111.89355.78418,1.8584a.49981.49981,0,0,1-.46289.68945Zm223.88379-.85156a.51884.51884,0,0,1-.14258-.02051.50109.50109,0,0,1-.33691-.62207l.56738-1.915a.5.5,0,1,1,.959.28321l-.56738,1.917A.5015.5015,0,0,1,294.71188,59.32717Zm-149.52149-.45508a.48892.48892,0,0,1-.14843-.02246.50054.50054,0,0,1-.3291-.626q.29-.93016.57324-1.91015a.50008.50008,0,1,1,.96093.27734q-.28563.99024-.5791,1.92969A.50063.50063,0,0,1,145.19039,58.87209ZM269.84567,58.002a.50018.50018,0,0,1-.46192-.30859q-.38672-.93018-.77148-1.84668a.50023.50023,0,1,1,.92187-.38867q.38673.91845.77344,1.85254a.50072.50072,0,0,1-.27051.65332A.48857.48857,0,0,1,269.84567,58.002Zm-90.97852-.22558a.49973.49973,0,0,1-.47851-.35449q-.28712-.94336-.56934-1.92969a.49981.49981,0,0,1,.96094-.27539c.18652.65137.376,1.291.56543,1.91406a.49979.49979,0,0,1-.333.624A.50513.50513,0,0,1,178.86715,57.77639ZM52.48629,57.40822a.5.5,0,0,1-.335-.87109c.50391-.45508,1.01074-.90039,1.51563-1.333a.50006.50006,0,0,1,.65039.75977q-.74854.64014-1.4961,1.31543A.501.501,0,0,1,52.48629,57.40822Zm266.669-.5166a.501.501,0,0,1-.48633-.38183c-.14355-.59473-.30566-1.2461-.48145-1.94434a.49952.49952,0,0,1,.96875-.24414c.17774.7002.33985,1.35547.48536,1.95215a.50123.50123,0,0,1-.36817.60449A.54871.54871,0,0,1,319.15524,56.89162Zm-122.19141-.48144a.50061.50061,0,0,1-.46094-.69238q.38087-.91407.76368-1.84961a.50053.50053,0,1,1,.92578.38086q-.38526.93456-.76758,1.85351A.49894.49894,0,0,1,196.96383,56.41018Zm-69.6914-1.46973a.49967.49967,0,0,1-.46485-.31543q-.36621-.92724-.73144-1.87012a.49963.49963,0,1,1,.93164-.36132q.36474.939.72949,1.8623a.501.501,0,0,1-.28027.64942A.49147.49147,0,0,1,127.27243,54.94045Zm-58.96875-.2168a.49993.49993,0,0,1-.43848-.25976c-.34766-.63184-.68848-1.19629-1.01367-1.67578a.5.5,0,1,1,.82812-.56055c.34278.50488.7002,1.0957,1.0625,1.75586a.50011.50011,0,0,1-.19824.67871A.49434.49434,0,0,1,68.30368,54.72365Zm35.15429-.11523a.49314.49314,0,0,1-.11133-.0127.49962.49962,0,0,1-.376-.59863q.22411-.98583.45019-1.95508a.5003.5003,0,0,1,.97461.22657q-.22559.96532-.45019,1.95117A.50021.50021,0,0,1,103.458,54.60842ZM57.12692,53.58889a.50008.50008,0,0,1-.29492-.9043c.57128-.415,1.13281-.80176,1.67968-1.14941a.5001.5001,0,1,1,.53711.84375c-.53125.33789-1.07519.71094-1.62695,1.11426A.50123.50123,0,0,1,57.12692,53.58889Zm239.28613-.02442a.51205.51205,0,0,1-.1416-.0205.5002.5002,0,0,1-.33789-.6211l.57031-1.92187a.50024.50024,0,1,1,.959.28515l-.57032,1.91993A.50032.50032,0,0,1,296.41305,53.56447ZM146.82418,53.084a.51157.51157,0,0,1-.126-.01563.5017.5017,0,0,1-.3584-.61035q.249-.95508.49219-1.9375a.50023.50023,0,1,1,.9707.24219q-.24609.98438-.49414,1.94726A.5011.5011,0,0,1,146.82418,53.084Zm120.66016-.61133a.49912.49912,0,0,1-.45606-.2959q-.41454-.92724-.83007-1.81543a.50023.50023,0,1,1,.90625-.42383q.41894.89355.83593,1.83106a.49873.49873,0,0,1-.45605.7041ZM177.25,51.9844a.50007.50007,0,0,1-.48437-.376q-.24609-.96387-.49219-1.94629a.50023.50023,0,0,1,.97071-.24219q.24462.98.49023,1.94043a.5.5,0,0,1-.48438.624Zm140.40332-.92188a.5.5,0,0,1-.48242-.36914q-.25635-.94336-.53515-1.92676a.49954.49954,0,1,1,.96093-.27343q.28125.9873.53907,1.93847a.49965.49965,0,0,1-.35157.61328A.508.508,0,0,1,317.65328,51.06252Zm-118.42285-.2207a.5005.5005,0,0,1-.46386-.68555l.748-1.86621a.5.5,0,0,1,.92774.37305l-.74805,1.86426A.49988.49988,0,0,1,199.23043,50.84182ZM62.3652,50.70315a.49988.49988,0,0,1-.14063-.9795,5.18559,5.18559,0,0,1,2.18164-.2207.50082.50082,0,0,1,.42383.56641.514.514,0,0,1-.5664.42383,4.16382,4.16382,0,0,0-1.75782.18945A.50524.50524,0,0,1,62.3652,50.70315Zm172.36035-.22461a.50217.50217,0,0,1-.17187-.03028,8.13144,8.13144,0,0,1-1.86329-1.02343.49963.49963,0,0,1,.57618-.81641,7.278,7.278,0,0,0,1.63086.90039.50007.50007,0,0,1-.17188.96973Zm3.91211-.22266a.49988.49988,0,0,1-.16211-.97266,15.95051,15.95051,0,0,0,1.78711-.752.49965.49965,0,1,1,.4375.89844,16.64276,16.64276,0,0,1-1.90039.79883A.49585.49585,0,0,1,238.63766,50.25588Zm-113.54-.9209a.501.501,0,0,1-.4668-.32031l-.71972-1.86523a.49963.49963,0,1,1,.93164-.36133l.72168,1.86719a.50082.50082,0,0,1-.28711.64648A.508.508,0,0,1,125.09762,49.335Zm-20.249-.57715a.51988.51988,0,0,1-.1211-.01464.501.501,0,0,1-.36425-.60645q.24755-.99024.49707-1.94629a.49954.49954,0,1,1,.96679.252q-.24756.95216-.49316,1.93653A.5.5,0,0,1,104.8486,48.75783Zm193.30468-.95117a.49929.49929,0,0,1-.47753-.64941q.30321-.96826.60839-1.915a.5.5,0,0,1,.95118.30859q-.30322.939-.6045,1.90528A.501.501,0,0,1,298.15328,47.80666ZM243.95993,47.499a.5.5,0,0,1-.26661-.92286c.55371-.34863,1.11231-.71191,1.67286-1.081a.50054.50054,0,0,1,.55078.83594c-.56641.373-1.13086.73828-1.69043,1.09082A.49343.49343,0,0,1,243.95993,47.499Zm-95.70215-.25684a.46273.46273,0,0,1-.11426-.01367.49876.49876,0,0,1-.37207-.60059q.22706-.96972.45312-1.95019a.50008.50008,0,0,1,.97461.22461q-.22559.98291-.45507,1.9541A.49915.49915,0,0,1,148.25778,47.24221Zm116.59765-.17481a.49668.49668,0,0,1-.43847-.26074c-.3291-.60254-.65821-1.17676-.98828-1.71582a.50011.50011,0,1,1,.85351-.52148c.33789.55273.67481,1.14062,1.01172,1.75879a.49881.49881,0,0,1-.19922.67773A.49341.49341,0,0,1,264.85543,47.0674Zm-34.8789-.19433a.49837.49837,0,0,1-.35645-.14942c-.45605-.46289-.91894-.95507-1.38965-1.46777a.50043.50043,0,0,1,.73828-.67578c.46094.50391.916.9873,1.36426,1.44238a.5.5,0,0,1-.35644.85059Zm-54.16016-.72949a.49915.49915,0,0,1-.48633-.38575l-.457-1.95214a.5003.5003,0,1,1,.97461-.22657l.45508,1.9502a.49829.49829,0,0,1-.37207.60058A.46227.46227,0,0,1,175.81637,46.14358Zm140.15625-.85645a.50007.50007,0,0,1-.47754-.35156c-.19726-.63672-.39941-1.27246-.60644-1.90235a.49967.49967,0,0,1,.94922-.3125c.209.63575.41308,1.27735.6123,1.918a.50014.50014,0,0,1-.3291.626A.49354.49354,0,0,1,315.97262,45.28713Zm-114.48437-.02246a.4839.4839,0,0,1-.19043-.03809.49968.49968,0,0,1-.27149-.65332c.25879-.625.5166-1.24414.77637-1.85254a.50009.50009,0,1,1,.91992.39258q-.38672.90675-.77246,1.84278A.49918.49918,0,0,1,201.48825,45.26467Zm47.49218-1.05957a.49995.49995,0,0,1-.27246-.919c.57227-.37207,1.13965-.73437,1.70117-1.0791a.49979.49979,0,0,1,.52344.85157c-.55371.34082-1.11523.69921-1.67969,1.06543A.4982.4982,0,0,1,248.98043,44.2051Zm-126.07812-.46484a.49828.49828,0,0,1-.46289-.31153q-.38087-.939-.76465-1.8457a.50023.50023,0,1,1,.92187-.38867q.38526.91113.76856,1.85742a.50026.50026,0,0,1-.46289.68848Zm-16.49219-.794a.50524.50524,0,0,1-.14062-.02051.49887.49887,0,0,1-.33887-.62011q.29-.99171.584-1.92774a.49973.49973,0,0,1,.95313.30078q-.29151.92579-.57813,1.90821A.49946.49946,0,0,1,106.41012,42.94631Zm119.543-.53516a.49963.49963,0,0,1-.37988-.1748L224.27145,40.711a.50017.50017,0,1,1,.76172-.64844L226.333,41.586a.5.5,0,0,1-.37988.82519Zm35.51953-.28906a.49845.49845,0,0,1-.35937-.15234,6.9295,6.9295,0,0,0-1.43457-1.16992.50028.50028,0,1,1,.50585-.86328,7.82733,7.82733,0,0,1,1.64747,1.33789.5.5,0,0,1-.35938.84765Zm38.57813-.02246a.50826.50826,0,0,1-.16895-.0293.50094.50094,0,0,1-.30176-.63964q.3501-.9712.70313-1.88868a.50019.50019,0,1,1,.93359.35938q-.3501.90673-.69531,1.86719A.50012.50012,0,0,1,300.05075,42.09963Zm-45.86036-.87207a.49991.49991,0,0,1-.20214-.957,13.44,13.44,0,0,1,1.95312-.70606.50029.50029,0,1,1,.25781.9668,12.47106,12.47106,0,0,0-1.80664.65332A.49184.49184,0,0,1,254.19039,41.22756Zm59.84766-1.63379a.50021.50021,0,0,1-.46777-.32422c-.23926-.63672-.48242-1.25586-.72754-1.85254a.50053.50053,0,1,1,.92578-.38086c.249.60645.49609,1.23536.7373,1.88184a.49936.49936,0,0,1-.292.64356A.48588.48588,0,0,1,314.03805,39.59377ZM120.5,38.22951a.49931.49931,0,0,1-.45117-.28418q-.44385-.92871-.88965-1.77539a.50018.50018,0,0,1,.88477-.46679q.45409.86278.90723,1.81054a.49987.49987,0,0,1-.45118.71582Zm101.53418-.377a.5012.5012,0,0,1-.376-.16992q-.665-.75732-1.33106-1.48145a.50037.50037,0,0,1,.73633-.67773q.6709.73095,1.34668,1.499a.5.5,0,0,1-.376.83008Zm-113.72753-.6123a.49.49,0,0,1-.18067-.03418.49862.49862,0,0,1-.28516-.64649q.38673-.999.78418-1.874a.5.5,0,0,1,.91016.41406q-.38526.84962-.76269,1.82129A.49884.49884,0,0,1,108.30661,37.24026Zm194.02148-.70313a.49185.49185,0,0,1-.2168-.0498.49874.49874,0,0,1-.2334-.667c.31446-.65429.63184-1.26269.94239-1.80761a.50038.50038,0,1,1,.86914.49609c-.29981.52441-.60547,1.11133-.91114,1.74512A.49972.49972,0,0,1,302.32809,36.53713Zm-95.623-2.08984a.49982.49982,0,0,1-.42285-.76758c.39649-.626.792-1.19238,1.17383-1.68164a.50028.50028,0,1,1,.78906.61523c-.3623.46387-.73828,1.00293-1.11719,1.60157A.50063.50063,0,0,1,206.705,34.44729Zm104.90235-.35157a.49781.49781,0,0,1-.43848-.26074,15.92479,15.92479,0,0,0-1.02246-1.65039.5003.5003,0,1,1,.8125-.584,16.81885,16.81885,0,0,1,1.08691,1.75586.49881.49881,0,0,1-.19922.67773A.4934.4934,0,0,1,311.60739,34.09572Zm-93.72754-.581a.50242.50242,0,0,1-.33887-.13184c-.51953-.47851-1.02148-.90722-1.49219-1.27343a.50029.50029,0,0,1,.61524-.78907c.49121.38379,1.01465.82911,1.55468,1.32618a.5.5,0,0,1-.33886.86816Zm-100.375-.4873a.49985.49985,0,0,1-.39942-.19922,10.03889,10.03889,0,0,0-1.26367-1.419.49991.49991,0,0,1,.66992-.74219,11.11347,11.11347,0,0,1,1.39258,1.55957.5.5,0,0,1-.39941.80079Zm-6.41114-1.07911a.50007.50007,0,0,1-.38574-.81738,5.2521,5.2521,0,0,1,1.6416-1.39648.50006.50006,0,1,1,.44727.89453,4.28582,4.28582,0,0,0-1.31738,1.13672A.499.499,0,0,1,111.09371,31.94826Zm194.5586-.36035a.5.5,0,0,1-.332-.874,4.92582,4.92582,0,0,1,1.87695-1.09473.50008.50008,0,0,1,.27734.96094,3.93435,3.93435,0,0,0-1.49023.88184A.50029.50029,0,0,1,305.65231,31.58791Zm-94.751-1.2666a.5001.5001,0,0,1-.14258-.97949,3.82428,3.82428,0,0,1,1.085-.15527h.0127a4.72731,4.72731,0,0,1,1.13379.1455.5.5,0,0,1-.24024.97071,3.40861,3.40861,0,0,0-.90429-.11621,2.787,2.787,0,0,0-.80176.11425A.51884.51884,0,0,1,210.90133,30.32131Zm-39.21191-1.74219a.49986.49986,0,0,1-.48438-.377q-.25048-.98145-.5039-1.93359a.50029.50029,0,1,1,.96679-.25782q.25489.958.50586,1.94532a.49955.49955,0,0,1-.36133.60742A.48873.48873,0,0,1,171.68942,28.57912ZM153.9277,23.86037a.5068.5068,0,0,1-.1416-.0205.5002.5002,0,0,1-.33789-.6211q.2915-.9873.59082-1.92578a.5.5,0,0,1,.95312.30273q-.29589.92873-.585,1.90625A.50032.50032,0,0,1,153.9277,23.86037Zm16.165-1.0791a.49945.49945,0,0,1-.47852-.35644q-.29443-.97852-.59668-1.90137a.50029.50029,0,0,1,.95117-.31055q.3047.93311.60254,1.92481a.49883.49883,0,0,1-.335.62207A.48736.48736,0,0,1,170.09274,22.78127Zm-14.24512-4.61816a.48635.48635,0,0,1-.18359-.03516.49886.49886,0,0,1-.28125-.64844c.25781-.65625.52148-1.28125.792-1.86914a.49988.49988,0,0,1,.9082.418q-.394.8584-.77051,1.81836A.49959.49959,0,0,1,155.84762,18.16311Zm12.27344-1.06153a.4992.4992,0,0,1-.46192-.30859q-.397-.95947-.80664-1.80078a.50008.50008,0,1,1,.89844-.43945c.28223.57714.55957,1.19824.832,1.85742a.5.5,0,0,1-.27051.65332A.492.492,0,0,1,168.12106,17.10158Zm-9.5166-4.25683a.49931.49931,0,0,1-.40039-.79883,8.60179,8.60179,0,0,1,1.43261-1.53809.4998.4998,0,1,1,.63086.77539,7.63569,7.63569,0,0,0-1.26172,1.36036A.49987.49987,0,0,1,158.60446,12.84475Zm6.543-.92383a.4984.4984,0,0,1-.36719-.16016,4.55061,4.55061,0,0,0-1.39746-1.07714.49948.49948,0,1,1,.416-.90821,5.52053,5.52053,0,0,1,1.71582,1.30567.50049.50049,0,0,1-.36718.83984Z"/><path class="cls-1" d="M295.65231,112.25a.25048.25048,0,0,1-.25-.25v-2a.25.25,0,0,1,.5,0v2A.25048.25048,0,0,1,295.65231,112.25Z"/><path class="cls-1" d="M320,110.25H40a.25048.25048,0,0,1-.25-.25V10a.25.25,0,0,1,.5,0v99.75H320a.25.25,0,0,1,0,.5Z"/><path class="cls-1" d="M113.04391,112.25a.25048.25048,0,0,1-.25-.25v-2a.25.25,0,0,1,.5,0v2A.25048.25048,0,0,1,113.04391,112.25Z"/><path class="cls-1" d="M186.08688,112.25a.25048.25048,0,0,1-.25-.25v-2a.25.25,0,0,1,.5,0v2A.25048.25048,0,0,1,186.08688,112.25Z"/><path class="cls-1" d="M259.13082,112.25a.25048.25048,0,0,1-.25-.25v-2a.25.25,0,0,1,.5,0v2A.25048.25048,0,0,1,259.13082,112.25Z"/><path class="cls-1" d="M76.52145,112.25a.25048.25048,0,0,1-.25-.25v-2a.25.25,0,0,1,.5,0v2A.25048.25048,0,0,1,76.52145,112.25Z"/><path class="cls-1" d="M149.56539,112.25a.25048.25048,0,0,1-.25-.25v-2a.25.25,0,0,1,.5,0v2A.25048.25048,0,0,1,149.56539,112.25Z"/><path class="cls-1" d="M222.60836,112.25a.25048.25048,0,0,1-.25-.25v-2a.25.25,0,0,1,.5,0v2A.25048.25048,0,0,1,222.60836,112.25Z"/><path class="cls-1" d="M40,60.25H38a.25.25,0,0,1,0-.5h2a.25.25,0,0,1,0,.5Z"/><path class="cls-1" d="M40,35.25H38a.25.25,0,0,1,0-.5h2a.25.25,0,0,1,0,.5Z"/><path class="cls-1" d="M40,85.25H38a.25.25,0,0,1,0-.5h2a.25.25,0,0,1,0,.5Z"/><rect class="cls-2" width="360" height="140"/><rect class="cls-2" x="99.9141" y="17.5" width="160.1718" height="80"/><rect class="cls-3" x="137.5859" y="39.5" width="85" height="38" rx="2"/><path class="cls-4" d="M220.5859,77.75h-81a2.25309,2.25309,0,0,1-2.25-2.25v-34a2.25309,2.25309,0,0,1,2.25-2.25h81a2.25309,2.25309,0,0,1,2.25,2.25v34A2.25308,2.25308,0,0,1,220.5859,77.75Zm-81-38a1.75213,1.75213,0,0,0-1.75,1.75v34a1.75212,1.75212,0,0,0,1.75,1.75h81a1.75211,1.75211,0,0,0,1.75-1.75v-34a1.75212,1.75212,0,0,0-1.75-1.75Z"/><path class="cls-1" d="M142.5859,62.75h-1a.25.25,0,0,1,0-.5h1a.25.25,0,0,1,0,.5Z"/><path class="cls-1" d="M142.5859,57.75h-1a.25.25,0,0,1,0-.5h1a.25.25,0,0,1,0,.5Z"/><path class="cls-1" d="M142.5859,67.75h-1a.25.25,0,0,1,0-.5h1a.25.25,0,0,1,0,.5Z"/><path class="cls-1" d="M147.5859,73.75a.25048.25048,0,0,1-.25-.25v-1a.25.25,0,0,1,.5,0v1A.25048.25048,0,0,1,147.5859,73.75Z"/><path class="cls-1" d="M162.5859,73.75a.25048.25048,0,0,1-.25-.25v-1a.25.25,0,0,1,.5,0v1A.25048.25048,0,0,1,162.5859,73.75Z"/><path class="cls-1" d="M152.5859,73.75a.25048.25048,0,0,1-.25-.25v-1a.25.25,0,0,1,.5,0v1A.25048.25048,0,0,1,152.5859,73.75Z"/><circle class="cls-5" cx="217.5859" cy="57.5" r="1"/><path class="cls-4" d="M222.5859,43.75h-85a.25.25,0,0,1,0-.5h85a.25.25,0,0,1,0,.5Z"/><path class="cls-4" d="M140.8359,42.5a1,1,0,1,1,1-1A1.00067,1.00067,0,0,1,140.8359,42.5Zm0-1.5a.5.5,0,1,0,.5.5A.501.501,0,0,0,140.8359,41Z"/><path class="cls-4" d="M143.8359,42.5a1,1,0,1,1,1-1A1.00067,1.00067,0,0,1,143.8359,42.5Zm0-1.5a.5.5,0,1,0,.5.5A.501.501,0,0,0,143.8359,41Z"/><path class="cls-4" d="M146.8359,42.5a1,1,0,1,1,1-1A1.00067,1.00067,0,0,1,146.8359,42.5Zm0-1.5a.5.5,0,1,0,.5.5A.501.501,0,0,0,146.8359,41Z"/><path class="cls-5" d="M193.39352,66.76272c-2.2334,0-3.27832-3.57227-4.124-6.46a19.966,19.966,0,0,0-.90821-2.69336l-.08593-.17774c-.752-1.54687-3.043-6.25586-4.60547-5.69336-1.55762.55371-1.90039,3.88379-2.23243,7.10352-.36523,3.55273-.71191,6.91308-2.72558,6.91308-.04785,0-.0957-.002-.14551-.00585-1.36133-.10352-1.7168-2.499-2.06055-4.81543-.20019-1.34375-.47363-3.1836-.91992-3.1836-.59765,0-1.01855,1.24024-1.39062,2.335-.4043,1.19141-.78614,2.31641-1.50586,2.64258a1.01933,1.01933,0,0,1-.93262.002c-.96582-.50488-1.36133-2.65429-1.81836-5.14355-.49512-2.69531-1.05664-5.75-2.36914-5.83691-.02539-.001-.0498-.002-.07519-.002-1.92383,0-3.61524,4.82617-4.4336,7.16113-.08789.251-.168.47852-.23926.67676-.78613,2.17676-2.84082,7.16895-5.13183,7.16895-.041,0-.082-.001-.12305-.00488-1.5791-.124-2.13769-2.58106-2.72949-5.18165-.52539-2.30664-1.06738-4.69238-2.27735-4.81835-.95507-.09864-1.67578,1.63378-2.38671,3.30859-.7334,1.72949-1.42579,3.3623-2.51661,3.68262-1.36328.39843-4.8164-1.78028-5.20507-2.03028a.24949.24949,0,1,1,.26953-.41992c1.0039.64356,3.82324,2.25977,4.79492,1.96973.86328-.25293,1.541-1.85157,2.19727-3.39649.8164-1.92773,1.57617-3.74414,2.89941-3.6123,1.56543.16406,2.12207,2.6123,2.71191,5.20508.52539,2.31054,1.06836,4.69922,2.28125,4.79492,1.64356.10644,3.57715-3.60254,4.74512-6.83594.07129-.19726.15039-.42285.23731-.67187.92285-2.63184,2.62792-7.4961,4.9082-7.4961.03613,0,.07129.001.10644.00391,1.70118.1123,2.27442,3.22949,2.82813,6.24512.39746,2.1621.80762,4.39843,1.55762,4.79a.515.515,0,0,0,.49414-.01367c.52246-.23633.90332-1.3584,1.24023-2.34863.4668-1.375.9082-2.67383,1.86328-2.67383.87793,0,1.11426,1.59278,1.41406,3.61035.28614,1.92285.64161,4.31641,1.60547,4.39063,1.67285.126,2.002-3.22168,2.335-6.46.34766-3.375.707-6.86426,2.56153-7.52344,1.76367-.61914,3.625,2.65625,5.22265,5.94629l.08594.17676a19.87131,19.87131,0,0,1,.93945,2.77148c.79786,2.72559,1.78516,6.10059,3.65235,6.10059a1.45807,1.45807,0,0,0,.1582-.00879c1.21582-.1211,1.76074-2.498,2.28809-4.79688.59082-2.57519,1.14941-5.00683,2.70605-5.20215.97461-.11523,1.85254.95118,2.80078,2.084.77539.92676,1.57715,1.88379,2.24024,1.91113.01172.001.02344.001.03418.001a5.308,5.308,0,0,0,2.10254-.97949c1.05957-.66016,2.16015-1.34473,2.95214-1.001.999.42871,1.67481,1.97266,2.39063,3.60644.72656,1.66016,1.47754,3.376,2.42871,3.376.02051,0,.042-.001.0625-.00195,1.67774-.13184,3.29395-5.67969,3.77539-7.80664a.24537.24537,0,0,1,.29981-.18848.25133.25133,0,0,1,.18847.29883c-.18554.81934-1.8789,8.01074-4.22461,8.19434-1.32519.10546-2.13769-1.72852-2.98828-3.67188-.64551-1.47266-1.31152-2.99609-2.12988-3.34766-.55957-.24121-1.585.40235-2.49024.9668A5.05381,5.05381,0,0,1,203.57516,60.75c-.88379-.03613-1.71875-1.03418-2.60352-2.08984-.82031-.98047-1.65136-1.9834-2.35449-1.90918-1.21.15137-1.75488,2.52344-2.28125,4.81836-.59277,2.584-1.15234,5.02539-2.72558,5.18261C193.53707,66.75881,193.46481,66.76272,193.39352,66.76272Z"/><path class="cls-1" d="M157.5859,73.75a.25048.25048,0,0,1-.25-.25v-1a.25.25,0,0,1,.5,0v1A.25048.25048,0,0,1,157.5859,73.75Z"/><path class="cls-1" d="M167.5859,73.75a.25048.25048,0,0,1-.25-.25v-1a.25.25,0,0,1,.5,0v1A.25048.25048,0,0,1,167.5859,73.75Z"/><path class="cls-1" d="M172.5859,73.75a.25048.25048,0,0,1-.25-.25v-1a.25.25,0,0,1,.5,0v1A.25048.25048,0,0,1,172.5859,73.75Z"/><path class="cls-1" d="M169.08883,38.43362a.24838.24838,0,0,1-.17676-.07325l-1-1a.25.25,0,0,1,.35352-.35351l1,1a.25.25,0,0,1-.17676.42676Z"/><path class="cls-1" d="M171.08883,38.43362a.24838.24838,0,0,1-.17676-.07325l-2-2a.25.25,0,0,1,.35352-.35351l2,2a.25.25,0,0,1-.17676.42676Z"/><path class="cls-6" d="M167.41081,40.57134l-4.94975,4.94975c-.07811.0781-.29971-.01687-.495-.21213s-.29023-.41687-.21213-.495l4.94975-4.94975"/><path class="cls-4" d="M162.38571,45.79885a.91589.91589,0,0,1-.59668-.31348c-.31739-.31738-.40235-.6582-.21192-.84863l4.9502-4.94922a.25.25,0,1,1,.35351.35352l-4.88867,4.88867a.75122.75122,0,0,0,.15039.20215.78323.78323,0,0,0,.20313.15136l4.88867-4.88867a.25.25,0,1,1,.35352.35352l-4.9502,4.95019A.34619.34619,0,0,1,162.38571,45.79885Z"/><path class="cls-6" d="M167.05715,40.21779a4,4,0,1,0,0-5.65686A4.0002,4.0002,0,0,0,167.05715,40.21779Zm.70727-4.94977a2.99991,2.99991,0,1,1,0,4.24267A2.99975,2.99975,0,0,1,167.76442,35.268Z"/><path class="cls-4" d="M169.88571,41.63967a4.25049,4.25049,0,1,1,3.00488-1.24512A4.2208,4.2208,0,0,1,169.88571,41.63967Zm0-7.999a3.74854,3.74854,0,0,0-2.65137,6.40039h0a3.74994,3.74994,0,1,0,2.65137-6.40039Zm0,6.999a3.25034,3.25034,0,0,1-2.29785-5.54883h0a3.25,3.25,0,1,1,2.29785,5.54883Zm-1.94434-5.19531a2.75005,2.75005,0,1,0,3.88867,0,2.75373,2.75373,0,0,0-3.88867,0Z"/><path class="cls-7" d="M161.83136,31.29691c-.76484,2.31082-4.20418,4.17067-8.7761,3.25991a11.46453,11.46453,0,0,1-6.08556-4.02549s-7.99224.91825-8.21314-.43625c-.24331-1.49187,9.68246-2.7663,15.30946-2.0931,2.735.32721,4.35809,1.33837,5.65606.56654a10.48707,10.48707,0,0,1,4.12111-1.29527c1.63279-.05831,3.06381,1.77548,2.53666,2.47834-.6123.81639-1.70862.09525-2.53666.23326A2.72,2.72,0,0,0,161.83136,31.29691Z"/><path class="cls-4" d="M155.414,35.04787a12.31962,12.31962,0,0,1-2.40723-.24609,11.74791,11.74791,0,0,1-6.15527-4.00586c-2.085.23242-8.10645.7793-8.3418-.66113a.67776.67776,0,0,1,.21582-.58789c1.3418-1.40039,10.10352-2.42481,15.37012-1.793a20.69324,20.69324,0,0,1,2.58594.50879c1.25781.30859,2.16992.5332,2.9121.09082a10.87805,10.87805,0,0,1,4.24024-1.33008,3.19116,3.19116,0,0,1,2.70508,1.6416,1.15529,1.15529,0,0,1,.041,1.23731c-.48633.64843-1.19531.51757-1.82324.40039a2.6937,2.6937,0,0,0-.87305-.07129,2.49708,2.49708,0,0,0-1.81543,1.14453C161.41891,33.33791,158.96383,35.04787,155.414,35.04787Zm-8.44434-4.7666a.248.248,0,0,1,.20606.10938,11.296,11.296,0,0,0,5.92871,3.9209c4.38281.87109,7.75879-.8877,8.48925-3.09278v-.001a2.96562,2.96562,0,0,1,2.208-1.4795,3.01613,3.01613,0,0,1,1.0459.07325c.6416.11718,1.04785.17187,1.332-.21.10547-.13964.07422-.40332-.084-.70507a2.60933,2.60933,0,0,0-2.24414-1.373,10.259,10.259,0,0,0-4.002,1.25976c-.918.54688-1.96191.291-3.28711-.03515a20.49339,20.49339,0,0,0-2.52539-.498c-5.29492-.63574-13.83007.47363-14.95019,1.64258-.043.04492-.0918.10937-.083.16211.10938.66992,4.19336.6582,7.9375.22851Z"/><path class="cls-8" d="M166.32961,29.92961c.13179.24.4704,1.25209.205,1.403s-.78554-1.0382-.78554-1.0382"/><path class="cls-4" d="M155.01364,32.76174a5.33357,5.33357,0,0,1-.90137-.0791,5.07709,5.07709,0,0,1-3.57227-2.2793.25029.25029,0,0,1,.44336-.23242,4.62616,4.62616,0,0,0,3.21289,2.01953,3.76889,3.76889,0,0,0,3.28223-.84375.25016.25016,0,1,1,.33984.36719A4.03818,4.03818,0,0,1,155.01364,32.76174Z"/><path class="cls-4" d="M152.09176,39.10061a.24948.24948,0,0,1-.16992-.06641.25242.25242,0,0,1-.08008-.19238l.15039-4.41406a.27193.27193,0,0,1,.25879-.24121.25.25,0,0,1,.24121.25878l-.14062,4.126,1.11816-.12109a.25817.25817,0,0,1,.27539.22265.2513.2513,0,0,1-.22265.27539l-1.4043.15137Z"/><path class="cls-4" d="M154.9775,38.95119a.2556.2556,0,0,1-.16015-.05761.25239.25239,0,0,1-.08985-.1836l-.14257-3.92187a.25.25,0,0,1,.24121-.25879.27577.27577,0,0,1,.25879.24121l.13183,3.64258.96485-.1416a.2497.2497,0,1,1,.07226.49414l-1.24023.18261A.22468.22468,0,0,1,154.9775,38.95119Z"/><path class="cls-1" d="M187.5859,73.75a.25048.25048,0,0,1-.25-.25v-1a.25.25,0,1,1,.5,0v1A.25048.25048,0,0,1,187.5859,73.75Z"/><path class="cls-1" d="M177.5859,73.75a.25048.25048,0,0,1-.25-.25v-1a.25.25,0,0,1,.5,0v1A.25048.25048,0,0,1,177.5859,73.75Z"/><path class="cls-1" d="M182.5859,73.75a.25048.25048,0,0,1-.25-.25v-1a.25.25,0,0,1,.5,0v1A.25048.25048,0,0,1,182.5859,73.75Z"/><path class="cls-1" d="M217.5859,72.75h-75a.25048.25048,0,0,1-.25-.25v-25a.25.25,0,0,1,.5,0V72.25h74.75a.25.25,0,0,1,0,.5Z"/><path class="cls-1" d="M192.5859,73.75a.25048.25048,0,0,1-.25-.25v-1a.25.25,0,1,1,.5,0v1A.25048.25048,0,0,1,192.5859,73.75Z"/><path class="cls-1" d="M197.5859,73.75a.25048.25048,0,0,1-.25-.25v-1a.25.25,0,1,1,.5,0v1A.25048.25048,0,0,1,197.5859,73.75Z"/><path class="cls-1" d="M207.5859,73.75a.25048.25048,0,0,1-.25-.25v-1a.25.25,0,1,1,.5,0v1A.25048.25048,0,0,1,207.5859,73.75Z"/><path class="cls-5" d="M202.5859,73.75a.25048.25048,0,0,1-.25-.25v-1a.25.25,0,1,1,.5,0v1A.25048.25048,0,0,1,202.5859,73.75Z"/><path class="cls-1" d="M212.5859,73.75a.25048.25048,0,0,1-.25-.25v-1a.25.25,0,1,1,.5,0v1A.25048.25048,0,0,1,212.5859,73.75Z"/><path class="cls-1" d="M142.5859,52.75h-1a.25.25,0,0,1,0-.5h1a.25.25,0,0,1,0,.5Z"/><path class="cls-9" d="M194.92755,56.21985c0-.48975-.42969-.79932-1.07959-.79932a1.693,1.693,0,0,0-1.44922.73926l-1.209-.70947a3.18478,3.18478,0,0,1,2.82812-1.33936c1.49951,0,2.53857.66992,2.53857,1.84912,0,1.59913-1.67871,1.77881-1.67871,2.83839h-1.50927C193.36847,57.39905,194.92755,57.08948,194.92755,56.21985Zm-1.75928,4.17774a.96221.96221,0,0,1,1.91894,0,.96083.96083,0,0,1-1.91894,0Z"/><path class="cls-10" d="M198.82028,67.20022a.2902.2902,0,0,1-.041-.00293c-1.64453-.27442-3.53125-2.459-3.96875-3.51074a.24955.24955,0,1,1,.46094-.19141c.40039.96,2.19141,2.97558,3.58984,3.208a.2502.2502,0,0,1-.041.49707Z"/><path class="cls-11" d="M211.33406,74.59788c-2.75222-.11324-4.49935.45561-5.554-.62519-.81275-.8329-2.27176-5.90179-3.8776-5.12364-1.50239.728,1.27468,6.4885,1.45089,7.56047.39483,2.40187,3.01345,4.80224,7.67519,4.81363a17.91213,17.91213,0,0,0,6.40678-1.56106s6.995-3.63519,6.27785-4.80529c-.777-1.26781-7.03077,1.72861-7.03077,1.72861A9.897,9.897,0,0,0,211.33406,74.59788Z"/><path class="cls-4" d="M211.05465,81.47268h-.02734c-4.87695-.01172-7.52442-2.61133-7.9209-5.02344a13.69522,13.69522,0,0,0-.53613-1.582c-1.10157-2.95508-1.99024-5.65527-.77735-6.24316a1.00447,1.00447,0,0,1,.80176-.043c.96484.34277,1.76074,2.042,2.46192,3.541a8.535,8.535,0,0,0,.90234,1.67578c.65137.66895,1.62207.63086,3.09863.57129.6709-.02636,1.42676-.05859,2.28711-.02148a10.09084,10.09084,0,0,1,5.37012,1.94531c1.33984-.63281,6.39453-2.9043,7.21094-1.56738a.64206.64206,0,0,1,.05957.52344c-.40723,1.46679-5.81836,4.31542-6.43457,4.63476-.12793.04981-.25977.10254-.41993.166A16.79567,16.79567,0,0,1,211.05465,81.47268ZM202.24118,69.0176a.52182.52182,0,0,0-.2295.05566c-.90429.43946.39942,3.9375,1.02637,5.61914a13.10062,13.10062,0,0,1,.5625,1.67579c.36231,2.21093,2.8418,4.59375,7.42871,4.60449h.02539a16.35867,16.35867,0,0,0,5.89063-1.38672c.165-.06641.30078-.12012.40332-.1582,2.22265-1.15723,5.89258-3.36621,6.15527-4.3125.02344-.084.00293-.11621-.00391-.12793-.40527-.666-3.79785.42871-6.709,1.82324a.24931.24931,0,0,1-.2666-.03223,9.72867,9.72867,0,0,0-5.20117-1.93066h0c-.834-.03613-1.584-.00391-2.2461.02148-1.55175.05957-2.668.10547-3.47558-.72168a8.079,8.079,0,0,1-.99805-1.81347c-.59375-1.26954-1.4082-3.00879-2.17578-3.28223A.5639.5639,0,0,0,202.24118,69.0176Z"/><path class="cls-8" d="M201.69181,69.05788c-.283-.103-1.4874-.17444-1.607.13935s1.3077.5529,1.3077.5529"/><path class="cls-4" d="M211.56442,79.1758c-.18848,0-.37989-.00879-.57227-.02636a4.63907,4.63907,0,0,1-3.5332-1.84668.25.25,0,1,1,.41992-.27149,4.14381,4.14381,0,0,0,3.15723,1.62012,4.30385,4.30385,0,0,0,3.49707-1.03223.25011.25011,0,1,1,.36523.3418A4.59169,4.59169,0,0,1,211.56442,79.1758Z"/><path class="cls-4" d="M207.4902,85.96877a.2132.2132,0,0,1-.043-.0039l-1.39746-.24122a.24959.24959,0,0,1-.20313-.28906.244.244,0,0,1,.28907-.20312l1.14648.19824.7002-4.45508a.24545.24545,0,0,1,.28613-.208.25055.25055,0,0,1,.208.28614l-.73926,4.70507a.25068.25068,0,0,1-.24707.21094Z"/><path class="cls-4" d="M211.623,86.16115h-.001l-1.29882-.00293a.25.25,0,0,1,.001-.5h.001l1.05859.002.19825-4.417a.2503.2503,0,0,1,.25-.23926h.01074a.25066.25066,0,0,1,.23926.26074l-.209,4.65723A.25033.25033,0,0,1,211.623,86.16115Z"/><path class="cls-12" d="M237.716,73.20785l-.5,6.16924c0,.49705-1.34315.9-3,.9s-3-.403-3-.9l-.5-6.16924"/><path class="cls-4" d="M234.21578,80.52737c-1.56542,0-3.25-.36036-3.25-1.1504l-.499-6.14843a.24987.24987,0,0,1,.49805-.041l.5,6.16895c.001.209.96484.6709,2.751.6709s2.75-.46192,2.75-.6504l.501-6.18945a.24987.24987,0,0,1,.49805.041l-.5,6.16894C237.46578,80.167,235.78121,80.52737,234.21578,80.52737Z"/><ellipse class="cls-12" cx="234.21597" cy="73.20785" rx="3.5" ry="1.05"/><path class="cls-4" d="M234.21578,74.50783c-1.86328,0-3.75-.44628-3.75-1.2998,0-1.707,7.5-1.707,7.5,0C237.96578,74.06155,236.07907,74.50783,234.21578,74.50783Zm0-2.09961c-2.10253,0-3.25.52833-3.25.79981s1.14747.7998,3.25.7998,3.25-.52832,3.25-.7998S236.31832,72.40822,234.21578,72.40822Z"/><path class="cls-3" d="M234.31725,73.55441c.03515-.492-.35145-3.65511-.28116-4.25258"/><path class="cls-4" d="M234.31735,73.80471l-.01758-.001a.24943.24943,0,0,1-.23145-.2666c.01368-.19922-.05761-.98242-.126-1.74023a21.40522,21.40522,0,0,1-.1543-2.52442.25554.25554,0,0,1,.27734-.21875.249.249,0,0,1,.21875.27735,23.33577,23.33577,0,0,0,.15625,2.42089c.08887.98047.14258,1.59278.126,1.82032A.24963.24963,0,0,1,234.31735,73.80471Z"/><path class="cls-5" d="M237.06452,67.79232c-.41583-.3128-.69124.09774-1.11831-.42941s.49457-.65749.0675-1.18464-.79015.22924-1.15089-.65982-.88556-2.10745-1.5128-.72615,1.01706,2.20636-.26649,2.27036.68264,1.66271-.20642,2.02345-1.211-.41291-1.93595.27716,1.2481,2.17627,2.69534,1.14137c1.44789-1.03536,2.92877,1.23608,3.42334.5786s-.4934-.16525-.16291-1.15206S237.459,68.08906,237.06452,67.79232Z"/><path class="cls-4" d="M236.833,71.458a2.13184,2.13184,0,0,1-.95312-.40918c-.64844-.39844-1.38086-.85156-2.09766-.34082a2.27425,2.27425,0,0,1-2.98535-.36035.81484.81484,0,0,1-.02734-1.165,1.12461,1.12461,0,0,1,1.22265-.30469,1.16159,1.16159,0,0,0,.791-.02344c.043-.01757.06933-.03711.07715-.05761.04492-.11719-.11329-.43946-.21778-.65235-.17871-.36523-.36328-.74218-.1875-1.041a.73482.73482,0,0,1,.61621-.291.6801.6801,0,0,0,.292-.0498.93607.93607,0,0,1-.13575-.25489,2.0481,2.0481,0,0,1-.10547-1.81933c.08692-.19141.35059-.76953.80567-.76953h.01074c.50781.00976.82422.6875,1.15625,1.50586.13281.32714.19922.32031.36524.30468a.75761.75761,0,0,1,.748.292.64586.64586,0,0,1-.02832.89941c-.12012.16016-.12988.17285-.03906.28516a.43868.43868,0,0,0,.43457.20214.94063.94063,0,0,1,.63965.1836h0c.53906.40625.28222,1.33594-.08106,2.41894-.10937.3252-.04785.35938.05274.416a.45039.45039,0,0,1,.25683.29492.66413.66413,0,0,1-.18457.51172A.509.509,0,0,1,236.833,71.458ZM234.455,69.98147a3.3891,3.3891,0,0,1,1.68653.6416c.27441.16894.65527.39844.71777.30957.02637-.03418.0459-.0625.05957-.084-.27051-.17089-.4541-.415-.25977-.99609.165-.49023.54981-1.63867.25489-1.86035h0a.46554.46554,0,0,0-.33594-.084.92953.92953,0,0,1-.82617-.38769.64789.64789,0,0,1,.02832-.90039c.12012-.15918.12988-.17285.03906-.28418-.10254-.12695-.16211-.12305-.31348-.1084-.29882.02539-.623.00488-.874-.61523-.32031-.78907-.55762-1.19043-.7041-1.19336h0c-.03809,0-.17285.085-.35059.47656a1.57377,1.57377,0,0,0,.10742,1.4082c.11719.26465.22852.51367.09083.73731a.80005.80005,0,0,1-.67872.27148c-.17089.00781-.21191.04688-.21191.04688-.03125.0791.124.3955.207.56543a1.4164,1.4164,0,0,1,.23535,1.05078.60153.60153,0,0,1-.35644.34179,1.61522,1.61522,0,0,1-1.0918.04786.65376.65376,0,0,0-.76465.17871c-.15429.14648-.04785.34472.06836.48535a1.78372,1.78372,0,0,0,2.3086.27246A1.62088,1.62088,0,0,1,234.455,69.98147Z"/><path class="cls-13" d="M123.10969,73.283c2.74573-.22015,4.60173.51759,5.65639-.56321.81275-.8329,2.96366-5.95086,4.62049-5.41536,1.50787.48736-2.12,6.71824-2.29616,7.79021-.39483,2.40187-3.01346,4.80224-7.67519,4.81363-2.84991.007-5.789-.94619-6.69038-1.82559,0,0-7.07384,2.75394-7.55826,1.46989C108.633,78.13825,117.46069,73.73589,123.10969,73.283Z"/><path class="cls-4" d="M123.38375,80.15822c-2.80957,0-5.65722-.90234-6.71191-1.7871-1.06152.4082-6.02344,2.24218-7.3584,1.65039a.681.681,0,0,1-.38086-.38086.81736.81736,0,0,1,.13574-.73633c1.22266-1.92871,9.09375-5.47461,14.02149-5.87012h-.001a18.96851,18.96851,0,0,1,2.665.00488c1.29785.06641,2.23926.11524,2.833-.49414a10.67,10.67,0,0,0,.96777-1.52246c1.13184-1.959,2.542-4.38867,3.90918-3.95605a.718.718,0,0,1,.44434.41015c.39844.91114-.54688,3.09961-1.72949,5.65332a14.42639,14.42639,0,0,0-.84082,2.00489c-.39747,2.41113-3.0459,5.01074-7.92188,5.02343ZM116.72457,77.833a.24843.24843,0,0,1,.17481.07129c.85254.832,3.72168,1.7539,6.48535,1.7539h.0293c4.58593-.01171,7.0664-2.39453,7.42968-4.60449a12.93565,12.93565,0,0,1,.88184-2.13379c.77246-1.66992,2.06543-4.46386,1.72461-5.24316a.2191.2191,0,0,0-.14063-.13379c-.96972-.32324-2.44628,2.21484-3.32226,3.72949a10.25151,10.25151,0,0,1-1.043,1.62207c-.751.77149-1.83691.71387-3.2168.64356a19.06733,19.06733,0,0,0-2.59765-.00586h-.001c-4.98633.40039-12.583,3.97461-13.63769,5.63965a.39478.39478,0,0,0-.09082.293c.00585.01367.02246.05761.11718.0996.92481.41407,4.76367-.7998,7.11621-1.71484A.26656.26656,0,0,1,116.72457,77.833Zm6.38477-4.54981h0Z"/><path class="cls-8" d="M133.69905,67.92224c.29.0528,1.36572.457,1.31168.78118s-1.40093-.04838-1.40093-.04838"/><path class="cls-4" d="M123.53805,77.69143a4.49474,4.49474,0,0,1-3.43164-1.28613.25.25,0,1,1,.38867-.31446,4.13152,4.13152,0,0,0,3.335,1.09375,3.99784,3.99784,0,0,0,3.19141-1.49121.24945.24945,0,0,1,.416.27539,4.48515,4.48515,0,0,1-3.584,1.71582C123.748,77.68947,123.64254,77.69143,123.53805,77.69143Z"/><path class="cls-4" d="M126.80661,84.4678h-1.15723a.24951.24951,0,0,1-.249-.23145l-.33106-4.46a.24889.24889,0,0,1,.23047-.26758.23337.23337,0,0,1,.26758.23047l.31445,4.22852h.92481a.25.25,0,0,1,0,.5Z"/><path class="cls-4" d="M124.01657,84.4678h-1.19141a.25048.25048,0,0,1-.25-.25V79.89651a.25.25,0,0,1,.5,0V83.9678h.94141a.25.25,0,0,1,0,.5Z"/><path class="cls-9" d="M148.45,54.43867c0-.48975-.42969-.79932-1.07959-.79932a1.693,1.693,0,0,0-1.44922.73926l-1.209-.70947a3.18478,3.18478,0,0,1,2.82812-1.33936c1.49951,0,2.53858.66992,2.53858,1.84912,0,1.59913-1.67871,1.77881-1.67871,2.83839h-1.50928C146.89092,55.61787,148.45,55.3083,148.45,54.43867Zm-1.75928,4.17774a.96222.96222,0,0,1,1.91895,0,.96084.96084,0,0,1-1.91895,0Z"/><path class="cls-10" d="M139.41989,66.68264a.24989.24989,0,0,1-.0293-.49805,9.79008,9.79008,0,0,0,7.36426-4.67871.24938.24938,0,1,1,.42578.25977,10.27251,10.27251,0,0,1-7.73145,4.915Z"/></g></g></svg>