<svg xmlns="http://www.w3.org/2000/svg" width="270" height="140" viewBox="0 0 270 140"><defs><style>.cls-1{fill:#ddd;}.cls-2{fill:#fff;}.cls-3{fill:none;}.cls-4,.cls-8{fill:#053437;}.cls-5{fill:#33d67b;}.cls-6{fill:#f7ce05;}.cls-11,.cls-13,.cls-6,.cls-7,.cls-8{fill-rule:evenodd;}.cls-7{fill:#caecf9;}.cls-9{fill:#553bf2;}.cls-10{fill:gray;}.cls-11{fill:#f0403d;}.cls-12{fill:#f47925;}.cls-13{fill:#f6e55a;}</style></defs><g id="Layer_2" data-name="Layer 2"><g id="Layer_2-2" data-name="Layer 2"><path class="cls-1" d="M78.78319,105.477a.49994.49994,0,0,1-.02929-.999,9.78581,9.78581,0,0,0,1.85742-.29.5.5,0,0,1,.248.96875,10.79286,10.79286,0,0,1-2.04688.31933Zm-3.93359-.459a.48505.48505,0,0,1-.13867-.01953,15.09669,15.09669,0,0,1-1.92969-.709.50014.50014,0,0,1,.40625-.91406,13.99123,13.99123,0,0,0,1.80078.66211.5.5,0,0,1-.13867.98046Zm9.46289-1.52441a.5.5,0,0,1-.28711-.90918,13.92942,13.92942,0,0,0,1.49121-1.21387.50027.50027,0,0,1,.68164.73243,15.0572,15.0572,0,0,1-1.59863,1.2998A.49754.49754,0,0,1,84.31249,103.49363Zm-14.76465-1.17578a.499.499,0,0,1-.293-.09473c-.52929-.38379-1.06836-.80566-1.60156-1.25683a.49965.49965,0,0,1,.64453-.76367c.51465.43457,1.03418.84179,1.543,1.21a.5.5,0,0,1-.293.90527ZM88.47558,99.229a.5.5,0,0,1-.4043-.79394q.564-.77784,1.10059-1.63086a.49988.49988,0,0,1,.8457.5332c-.37207.59082-.75488,1.1582-1.1377,1.68555A.498.498,0,0,1,88.47558,99.229ZM65.084,98.32176a.49961.49961,0,0,1-.36426-.15723q-.68262-.72657-1.35254-1.50781a.50006.50006,0,1,1,.75976-.65039q.65332.76318,1.32129,1.47265a.5.5,0,0,1-.36425.84278Zm26.47558-4.23829a.50027.50027,0,0,1-.44531-.72656q.44238-.87158.87109-1.78613a.49976.49976,0,1,1,.9043.42578q-.43506.92724-.88477,1.81348A.49847.49847,0,0,1,91.55956,94.08347ZM61.251,93.69773a.49668.49668,0,0,1-.40039-.20117q-.59766-.7998-1.18164-1.63574a.50066.50066,0,1,1,.82031-.57422q.57569.82325,1.16211,1.6123a.49931.49931,0,0,1-.40039.79883Zm-3.38672-4.96386a.49914.49914,0,0,1-.42285-.2334q-.53321-.84669-1.05664-1.71387a.50026.50026,0,0,1,.85742-.51563q.5171.8584,1.04492,1.69629a.49949.49949,0,0,1-.15625.68946A.49341.49341,0,0,1,57.86425,88.73387Zm36.18652-.11915a.48857.48857,0,0,1-.1914-.03808.49991.49991,0,0,1-.27051-.65332q.3794-.91407.751-1.84961a.5005.5005,0,1,1,.92968.37109q-.375.94044-.75683,1.86133A.50018.50018,0,0,1,94.05077,88.61472ZM154.49023,84.477a.49994.49994,0,0,1-.0293-.999,10.56482,10.56482,0,0,0,1.86719-.27539.50024.50024,0,1,1,.23437.97265,11.6334,11.6334,0,0,1-2.043.30078Zm-3.9043-.61816a.49883.49883,0,0,1-.17871-.03321,13.02271,13.02271,0,0,1-1.86524-.89746.49966.49966,0,0,1,.5-.86523,12.12439,12.12439,0,0,0,1.72266.8291.49994.49994,0,0,1-.17871.9668Zm-95.77832-.29981a.4991.4991,0,0,1-.43652-.25684q-.48927-.876-.9629-1.7666a.49937.49937,0,1,1,.88086-.4707q.47169.88037.95508,1.751a.5002.5002,0,0,1-.43652.74316Zm41.4375-.54a.48192.48192,0,0,1-.17578-.03223.49854.49854,0,0,1-.292-.64355l.69824-1.87109a.50028.50028,0,1,1,.9375.34961l-.7002,1.873A.50021.50021,0,0,1,96.24511,83.019Zm67.9707-4.68652a.5.5,0,0,1-.40722-.79c.36035-.50586.72265-1.05762,1.07617-1.64063a.50044.50044,0,0,1,.85547.51954c-.36719.60351-.74317,1.17578-1.11719,1.70117A.50062.50062,0,0,1,164.21581,78.3325Zm-112.209-.09278a.50131.50131,0,0,1-.44727-.27636q-.4497-.89942-.88574-1.79785a.50053.50053,0,1,1,.90039-.4375q.43359.895.87988,1.78808a.49994.49994,0,0,1-.44726.72363Zm46.3291-.85058a.4996.4996,0,0,1-.46875-.67481l.70312-1.8789a.50006.50006,0,1,1,.93555.35351l-.70117,1.875A.50006.50006,0,0,1,98.33593,77.38914Zm43.10547-1.1084a.49687.49687,0,0,1-.38281-.17871c-.42579-.50684-.85059-1.0293-1.27442-1.56152a.5004.5004,0,1,1,.7832-.623q.627.78956,1.25684,1.542a.5.5,0,0,1-.38281.82129Zm25.75488-3.15039a.49984.49984,0,0,1-.45215-.71387q.41895-.88183.81738-1.80957a.5.5,0,1,1,.918.39649c-.2705.62793-.54785,1.24316-.83105,1.84082A.50089.50089,0,0,1,167.19628,73.13035ZM49.416,72.8198a.50142.50142,0,0,1-.45508-.292q-.4204-.92139-.82617-1.832a.50014.50014,0,1,1,.91406-.40625q.40283.90527.82227,1.82226a.49965.49965,0,0,1-.45508.708Zm51.06933-1.04492a.51636.51636,0,0,1-.18554-.03516.502.502,0,0,1-.2793-.65039q.37647-.939.76074-1.8623a.49985.49985,0,0,1,.92188.38672q-.38233.9126-.75293,1.84668A.5012.5012,0,0,1,100.48534,71.77488Zm37.25586-.22559a.49984.49984,0,0,1-.40136-.20117q-.5962-.80272-1.19043-1.61621a.49964.49964,0,1,1,.80664-.58984q.59325.81006,1.18652,1.6084a.50055.50055,0,0,1-.10352.70019A.49551.49551,0,0,1,137.7412,71.54929ZM169.498,67.58054a.48628.48628,0,0,1-.17285-.03125.49924.49924,0,0,1-.2959-.6416q.34131-.92577.67285-1.87793a.49972.49972,0,0,1,.94336.33008q-.33544.95947-.67871,1.89356A.49955.49955,0,0,1,169.498,67.58054Zm-122.50195-.2666a.50058.50058,0,0,1-.46094-.30566q-.39551-.939-.77246-1.85449a.49962.49962,0,1,1,.92382-.38086q.37647.91113.77051,1.84668a.49973.49973,0,0,1-.46093.69433Zm87.19726-.61523a.49926.49926,0,0,1-.40332-.20508q-.59327-.81006-1.18457-1.61133a.49981.49981,0,1,1,.80273-.5957q.59474.80274,1.18848,1.61719a.5001.5001,0,0,1-.40332.79492Zm-31.335-.44434a.49516.49516,0,0,1-.21191-.04687.50045.50045,0,0,1-.24122-.665q.43506-.92579.88575-1.81348a.49963.49963,0,1,1,.89062.45313q-.44238.87158-.87012,1.78418A.50138.50138,0,0,1,102.85839,66.25437ZM229.3496,62.37742a.49856.49856,0,0,1-.43066-.24609c-.2666-.45411-.61231-1.03418-1.02832-1.72071a.49993.49993,0,0,1,.85547-.51758c.418.69043.76562,1.27442,1.03417,1.73047a.5.5,0,0,1-.43066.75391ZM130.58007,61.897a.49932.49932,0,0,1-.39258-.19043c-.417-.52734-.834-1.04394-1.25195-1.54492a.4999.4999,0,0,1,.76758-.64063q.63573.76319,1.26953,1.56641a.5.5,0,0,1-.39258.80957Zm40.8584-.00586a.51556.51556,0,0,1-.15235-.02344.50058.50058,0,0,1-.32421-.6289q.30321-.94776.60156-1.90821a.50037.50037,0,0,1,.95508.29883q-.30177.9624-.60352,1.91407A.50136.50136,0,0,1,171.43847,61.89109Zm-126.708-.14941a.50133.50133,0,0,1-.46582-.31739q-.37647-.95946-.72559-1.874a.49984.49984,0,0,1,.9336-.35742q.34863.90966.72363,1.86621a.49956.49956,0,0,1-.46582.68262Zm60.96-.7793a.49976.49976,0,0,1-.4248-.76465q.54784-.87891,1.123-1.69043a.49939.49939,0,0,1,.81446.57813c-.37207.52441-.73438,1.07324-1.08789,1.6416A.50207.50207,0,0,1,105.69042,60.96238Zm20.95117-3.59766a.49834.49834,0,0,1-.35644-.14941c-.47559-.4834-.95508-.93945-1.42481-1.35644a.50014.50014,0,0,1,.66407-.74805c.48632.43164.98242.90332,1.47363,1.40332a.5.5,0,0,1-.35645.85058Zm99.56153-.124a.50033.50033,0,0,1-.42188-.23144c-.3418-.53711-.70215-1.10059-1.082-1.68457a.50057.50057,0,1,1,.83984-.54493q.56983.88183,1.08594,1.69239a.49995.49995,0,0,1-.42187.76855ZM109.35644,56.23289a.5.5,0,0,1-.35254-.85449A16.87591,16.87591,0,0,1,110.541,54.019a.49968.49968,0,0,1,.61328.78906,16.0142,16.0142,0,0,0-1.44531,1.2793A.49924.49924,0,0,1,109.35644,56.23289Zm63.85937-.085a.49971.49971,0,0,1-.47851-.64551l.583-1.91992a.50015.50015,0,0,1,.957.291l-.583,1.91993A.49973.49973,0,0,1,173.21581,56.14793ZM42.60253,56.11179a.50151.50151,0,0,1-.4707-.33007q-.36036-.999-.67774-1.89258a.50037.50037,0,0,1,.94336-.334q.31349.88917.67578,1.88672a.50109.50109,0,0,1-.30078.64063A.51409.51409,0,0,1,42.60253,56.11179Zm79.36231-2.47363a.48857.48857,0,0,1-.24122-.0625,11.17724,11.17724,0,0,0-1.73632-.78125.49968.49968,0,0,1,.32421-.94531,11.95463,11.95463,0,0,1,1.89454.85156.49988.49988,0,0,1-.24121.9375Zm-7.667-.6709a.49994.49994,0,0,1-.1709-.96972,11.74146,11.74146,0,0,1,1.77344-.49317l.25-.043a.50555.50555,0,0,1,.56934.419.49927.49927,0,0,1-.41895.56934l-.21.0371a10.74771,10.74771,0,0,0-1.62207.4502A.49677.49677,0,0,1,114.29784,52.96726Zm108.60645-.75683a.49947.49947,0,0,1-.41406-.21973q-.54933-.813-1.12989-1.64941a.50035.50035,0,0,1,.82227-.57032q.583.8423,1.13574,1.65918a.5.5,0,0,1-.41406.78028ZM40.62011,50.42137a.50061.50061,0,0,1-.47461-.3418c-.41309-1.23926-.62891-1.93555-.62891-1.93555a.50008.50008,0,1,1,.95508-.29687c.001.0039.21484.69238.623,1.916a.50135.50135,0,0,1-.31641.63281A.49618.49618,0,0,1,40.62011,50.42137Zm134.35547-.0254a.4952.4952,0,0,1-.14942-.02246.501.501,0,0,1-.32812-.627q.30175-.96093.6084-1.91309a.49969.49969,0,0,1,.95117.30665q-.3047.94774-.60449,1.90527A.501.501,0,0,1,174.97558,50.396Zm44.47558-3.10937a.498.498,0,0,1-.40429-.20606q-.58155-.7998-1.18457-1.60839a.49961.49961,0,0,1,.80078-.59766q.6079.81153,1.19238,1.61816a.5.5,0,0,1-.4043.794Zm-3.62988-4.793a.49644.49644,0,0,1-.3916-.18945q-.61963-.78077-1.251-1.55469a.49966.49966,0,1,1,.77344-.63281q.6372.77929,1.26074,1.5664a.5.5,0,0,1-.3916.81055Zm-3.84668-4.61719a.49666.49666,0,0,1-.375-.16894q-.66212-.75-1.334-1.47949A.49966.49966,0,1,1,211,35.55027q.6797.73682,1.34961,1.49512a.5.5,0,0,1-.375.83105Zm-30.23047-4.14062a.5.5,0,0,1-.42773-.75879c.35742-.59277.73047-1.166,1.10742-1.7041a.49986.49986,0,1,1,.81836.57422c-.36328.51953-.72363,1.07422-1.07031,1.64746A.499.499,0,0,1,181.74413,33.73582Zm26.09473-.21973a.49614.49614,0,0,1-.34863-.1416q-.72071-.70166-1.44532-1.36035a.49984.49984,0,1,1,.67188-.74024q.73828.66943,1.4707,1.38379a.5.5,0,0,1-.34863.8584Zm-4.53125-3.94043a.49972.49972,0,0,1-.30078-.10058q-.80567-.60792-1.60742-1.14454a.5.5,0,1,1,.55468-.832c.54981.36621,1.10157.76075,1.6543,1.17774a.5.5,0,0,1-.30078.89941Zm-17.90332-.5625a.5.5,0,0,1-.34766-.85937,15.6543,15.6543,0,0,1,1.56641-1.33106.5.5,0,0,1,.59375.80469,14.47732,14.47732,0,0,0-1.46485,1.24512A.50051.50051,0,0,1,185.40429,29.01316Zm12.77832-2.53906a.50123.50123,0,0,1-.2002-.042,14.58931,14.58931,0,0,0-1.8125-.65625.49856.49856,0,0,1-.34375-.61719.492.492,0,0,1,.61719-.34375,15.46524,15.46524,0,0,1,1.93945.70117.49995.49995,0,0,1-.20019.958Zm-7.76074-.583a.50011.50011,0,0,1-.15528-.97558,11.92427,11.92427,0,0,1,1.64551-.41211c.12891-.02344.25879-.043.38867-.05957a.50013.50013,0,0,1,.127.99218c-.11426.01465-.22852.03223-.3418.05176a11.03592,11.03592,0,0,0-1.50879.37891A.50522.50522,0,0,1,190.42187,25.89109Z"/><rect class="cls-2" x="34.99383" y="41.99559" width="5" height="74"/><rect class="cls-2" x="36.99382" y="45.99559" width="3" height="6"/><path class="cls-1" d="M230,110.24558H39.99413a.25048.25048,0,0,1-.25-.25v-100a.25.25,0,0,1,.5,0v99.75H230a.25.25,0,0,1,0,.5Z"/><path class="cls-1" d="M39.99413,60.24461h-2.001a.25.25,0,0,1,0-.5h2.001a.25.25,0,0,1,0,.5Z"/><path class="cls-1" d="M39.99413,35.24949h-2.001a.25.25,0,0,1,0-.5h2.001a.25.25,0,0,1,0,.5Z"/><path class="cls-1" d="M39.99413,85.24558h-2.001a.25.25,0,0,1,0-.5h2.001a.25.25,0,0,1,0,.5Z"/><path class="cls-1" d="M115.99609,112.24558a.25048.25048,0,0,1-.25-.25v-2a.25.25,0,0,1,.5,0v2A.25048.25048,0,0,1,115.99609,112.24558Z"/><path class="cls-1" d="M77.99511,112.24558a.25048.25048,0,0,1-.25-.25v-2a.25.25,0,0,1,.5,0v2A.25048.25048,0,0,1,77.99511,112.24558Z"/><path class="cls-1" d="M190.73241,112.24558a.25048.25048,0,0,1-.25-.25v-2a.25.25,0,1,1,.5,0v2A.25048.25048,0,0,1,190.73241,112.24558Z"/><path class="cls-1" d="M153.99706,112.24558a.25048.25048,0,0,1-.25-.25v-2a.25.25,0,1,1,.5,0v2A.25048.25048,0,0,1,153.99706,112.24558Z"/><path class="cls-1" d="M40,60.24949H38a.25.25,0,0,1,0-.5h2a.25.25,0,0,1,0,.5Z"/><path class="cls-1" d="M40,35.24949H38a.25.25,0,0,1,0-.5h2a.25.25,0,0,1,0,.5Z"/><path class="cls-1" d="M40,85.24949H38a.25.25,0,0,1,0-.5h2a.25.25,0,0,1,0,.5Z"/><rect class="cls-3" width="270" height="140"/><rect class="cls-3" x="54.9141" y="17.5" width="160.1718" height="80"/><rect class="cls-2" x="92.5859" y="39.5" width="85" height="38" rx="2"/><path class="cls-4" d="M175.58593,77.75047h-81a2.25309,2.25309,0,0,1-2.25-2.25v-34a2.25308,2.25308,0,0,1,2.25-2.25h81a2.25309,2.25309,0,0,1,2.25,2.25v34A2.25309,2.25309,0,0,1,175.58593,77.75047Zm-81-38a1.75212,1.75212,0,0,0-1.75,1.75v34a1.75213,1.75213,0,0,0,1.75,1.75h81a1.75213,1.75213,0,0,0,1.75-1.75v-34a1.75212,1.75212,0,0,0-1.75-1.75Z"/><path class="cls-1" d="M97.58593,62.75047h-1a.25.25,0,0,1,0-.5h1a.25.25,0,0,1,0,.5Z"/><path class="cls-1" d="M97.58593,57.75047h-1a.25.25,0,0,1,0-.5h1a.25.25,0,0,1,0,.5Z"/><path class="cls-1" d="M97.58593,67.75047h-1a.25.25,0,0,1,0-.5h1a.25.25,0,1,1,0,.5Z"/><path class="cls-1" d="M102.58593,73.75047a.25048.25048,0,0,1-.25-.25v-1a.25.25,0,0,1,.5,0v1A.25049.25049,0,0,1,102.58593,73.75047Z"/><path class="cls-1" d="M117.58593,73.75047a.25048.25048,0,0,1-.25-.25v-1a.25.25,0,0,1,.5,0v1A.25049.25049,0,0,1,117.58593,73.75047Z"/><path class="cls-1" d="M107.58593,73.75047a.25048.25048,0,0,1-.25-.25v-1a.25.25,0,0,1,.5,0v1A.25049.25049,0,0,1,107.58593,73.75047Z"/><circle class="cls-5" cx="172.5859" cy="57.5" r="1"/><path class="cls-4" d="M177.58593,43.75047h-85a.25.25,0,0,1,0-.5h85a.25.25,0,0,1,0,.5Z"/><path class="cls-4" d="M95.83593,42.50047a1,1,0,1,1,1-1A1.00068,1.00068,0,0,1,95.83593,42.50047Zm0-1.5a.5.5,0,1,0,.5.5A.501.501,0,0,0,95.83593,41.00047Z"/><path class="cls-4" d="M98.83593,42.50047a1,1,0,1,1,1-1A1.00068,1.00068,0,0,1,98.83593,42.50047Zm0-1.5a.5.5,0,1,0,.5.5A.501.501,0,0,0,98.83593,41.00047Z"/><path class="cls-4" d="M101.83593,42.50047a1,1,0,1,1,1-1A1.00068,1.00068,0,0,1,101.83593,42.50047Zm0-1.5a.5.5,0,1,0,.5.5A.501.501,0,0,0,101.83593,41.00047Z"/><path class="cls-5" d="M148.39452,66.76316c-2.23437,0-3.27929-3.57226-4.125-6.46a19.96523,19.96523,0,0,0-.9082-2.69336l-.085-.17383c-.751-1.54687-3.0293-6.26269-4.60645-5.69726-1.55761.55371-1.90039,3.88379-2.23242,7.10351-.374,3.6377-.70605,7.06934-2.87109,6.90723-1.36133-.10352-1.7168-2.499-2.06055-4.81543-.20019-1.34375-.47363-3.18359-.91992-3.18359h0c-.59766,0-1.01856,1.24023-1.39063,2.334-.40429,1.19141-.78711,2.31738-1.50586,2.64356a1.01921,1.01921,0,0,1-.93261.001c-.96582-.50488-1.36133-2.65429-1.81836-5.14258-.49512-2.69531-1.05567-5.75-2.36914-5.83691-1.96973-.10645-3.67969,4.793-4.50879,7.15918-.08789.25-.168.47852-.23926.67676-.80078,2.21582-2.9209,7.36621-5.25488,7.16406-1.5791-.124-2.1377-2.581-2.72949-5.18164-.5254-2.30762-1.06739-4.69336-2.27637-4.81836a.69194.69194,0,0,0-.07715-.00391c-.90527,0-1.61914,1.68262-2.31055,3.3125-.7334,1.7295-1.42578,3.36231-2.5166,3.68262-1.35449.40332-4.81543-1.7793-5.20508-2.03027a.24949.24949,0,1,1,.26953-.41992c1.00489.64355,3.81641,2.25,4.79493,1.96972.86328-.25293,1.541-1.85156,2.19726-3.39746.81738-1.92676,1.56641-3.76269,2.89942-3.61133,1.56543.16309,2.12207,2.61231,2.71191,5.20508.52539,2.31055,1.06836,4.69922,2.28125,4.79492,1.65137.12012,3.57715-3.60254,4.74512-6.83593.07129-.19727.15039-.42383.23828-.67286.92187-2.63086,2.627-7.49511,4.90723-7.49511.03515,0,.07031.001.10644.0039,1.70117.11133,2.27441,3.2295,2.82813,6.24414.39746,2.16211.80761,4.39844,1.55761,4.791a.52377.52377,0,0,0,.49414-.01367c.52246-.23731.90332-1.35938,1.23926-2.34864.46777-1.375.9082-2.67382,1.86328-2.67382h.001c.87793,0,1.11426,1.59277,1.41406,3.61035.28613,1.92285.6416,4.3164,1.60547,4.39062.03027.002.06055.00293.08984.00293,1.57911,0,1.918-3.28418,2.24512-6.46289.34766-3.375.707-6.86426,2.56152-7.52344,1.75586-.63671,3.626,2.65723,5.22461,5.9502l.084.17285a19.872,19.872,0,0,1,.93945,2.77149c.82129,2.80273,1.86914,6.30468,3.81152,6.09179,1.21485-.12207,1.75977-2.498,2.28711-4.79687.59082-2.5752,1.14942-5.00684,2.70606-5.20215.97558-.11426,1.85254.95117,2.80078,2.084.77539.92676,1.57715,1.88379,2.24121,1.91114.01074.001.02149.001.0332.001a5.30591,5.30591,0,0,0,2.10254-.97949c1.05957-.66016,2.15723-1.34473,2.95215-1.001.999.42872,1.67481,1.97168,2.39063,3.60645.72656,1.66016,1.47754,3.376,2.42871,3.376.02051,0,.042-.001.0625-.002,1.67773-.13281,3.29394-5.67968,3.77539-7.80664a.2474.2474,0,0,1,.2998-.18847.25133.25133,0,0,1,.18848.29882c-.18555.81934-1.87891,8.00977-4.22461,8.19434-.03613.00293-.07227.00488-.1084.00488-1.27051,0-2.05273-1.78711-2.87988-3.67675-.64551-1.47364-1.31152-2.99708-2.12988-3.34766-.55469-.23926-1.585.40234-2.49024.9668a4.89545,4.89545,0,0,1-2.4209,1.05371c-.88476-.03711-1.71972-1.03418-2.60351-2.08985-.82129-.98047-1.65821-1.98144-2.35547-1.90918-1.21.15137-1.75488,2.52344-2.28125,4.81739-.59277,2.585-1.15234,5.02539-2.72461,5.18359C148.5371,66.75926,148.46581,66.76316,148.39452,66.76316Z"/><path class="cls-1" d="M112.58593,73.75047a.25048.25048,0,0,1-.25-.25v-1a.25.25,0,0,1,.5,0v1A.25049.25049,0,0,1,112.58593,73.75047Z"/><path class="cls-1" d="M122.58593,73.75047a.25048.25048,0,0,1-.25-.25v-1a.25.25,0,0,1,.5,0v1A.25049.25049,0,0,1,122.58593,73.75047Z"/><path class="cls-1" d="M127.58593,73.75047a.25048.25048,0,0,1-.25-.25v-1a.25.25,0,0,1,.5,0v1A.25049.25049,0,0,1,127.58593,73.75047Z"/><path class="cls-1" d="M124.08886,38.43406a.24837.24837,0,0,1-.17676-.07324l-1-1a.25.25,0,0,1,.35352-.35352l1,1a.25.25,0,0,1-.17676.42676Z"/><path class="cls-1" d="M126.08886,38.43406a.24837.24837,0,0,1-.17676-.07324l-2-2a.25.25,0,0,1,.35352-.35352l2,2a.25.25,0,0,1-.17676.42676Z"/><path class="cls-6" d="M122.41081,40.57134l-4.94975,4.94975c-.07811.0781-.29971-.01687-.495-.21213s-.29023-.41687-.21213-.495l4.94975-4.94975"/><path class="cls-4" d="M117.38573,45.79832a.91432.91432,0,0,1-.59668-.3125c-.31738-.31738-.40234-.6582-.21191-.84863l4.9502-4.9502a.25.25,0,1,1,.35351.35352l-4.88867,4.88964a.86724.86724,0,0,0,.35254.35254l4.88965-4.88769a.25.25,0,0,1,.35351.35351l-4.95019,4.94922A.34621.34621,0,0,1,117.38573,45.79832Z"/><path class="cls-6" d="M122.05715,40.21779a4,4,0,1,0,0-5.65686A4.0002,4.0002,0,0,0,122.05715,40.21779Zm.70727-4.94977a2.99991,2.99991,0,1,1,0,4.24267A2.99975,2.99975,0,0,1,122.76442,35.268Z"/><path class="cls-4" d="M124.88573,41.63816a4.24774,4.24774,0,1,1,3.00489-1.24316A4.23823,4.23823,0,0,1,124.88573,41.63816Zm0-7.999a3.751,3.751,0,1,0,2.65137,1.09863A3.7252,3.7252,0,0,0,124.88573,33.63914Zm0,7a3.25083,3.25083,0,1,1,2.29786-.95215A3.22729,3.22729,0,0,1,124.88573,40.63914Zm0-6a2.7507,2.7507,0,1,0,1.94434.80566A2.73171,2.73171,0,0,0,124.88573,34.63914Z"/><path class="cls-7" d="M116.83136,31.29691c-.76484,2.31082-4.20418,4.17067-8.7761,3.25991a11.46453,11.46453,0,0,1-6.08556-4.02549s-7.99224.91825-8.21314-.43625c-.24331-1.49187,9.68246-2.7663,15.30946-2.0931,2.735.32721,4.35809,1.33837,5.65606.56654a10.48707,10.48707,0,0,1,4.12111-1.29527c1.63279-.05831,3.06381,1.77548,2.53666,2.47834-.6123.81639-1.70862.09525-2.53666.23326A2.72,2.72,0,0,0,116.83136,31.29691Z"/><path class="cls-4" d="M110.41308,35.04832a12.30189,12.30189,0,0,1-2.40625-.2461,11.748,11.748,0,0,1-6.15528-4.00585c-2.085.23242-8.10644.77929-8.34179-.66114a.67551.67551,0,0,1,.21679-.58789c1.34375-1.40137,10.10743-2.42187,15.36914-1.793a20.69251,20.69251,0,0,1,2.58594.50879c1.25879.3086,2.16992.53223,2.91211.09082a10.88563,10.88563,0,0,1,4.24024-1.33105A3.17858,3.17858,0,0,1,121.54,28.66551a1.15529,1.15529,0,0,1,.04,1.23632c-.48535.64649-1.19531.51563-1.82324.40137a2.69566,2.69566,0,0,0-.873-.07129,2.49231,2.49231,0,0,0-1.81543,1.14356h0C116.41894,33.33738,113.96288,35.04832,110.41308,35.04832Zm-8.44336-4.7666a.248.248,0,0,1,.20605.10937,11.29608,11.29608,0,0,0,5.92871,3.9209c4.38477.87207,7.75879-.8877,8.48926-3.09277h0a2.9582,2.9582,0,0,1,2.208-1.48145,3.167,3.167,0,0,1,1.0459.07324c.63867.12012,1.0459.1709,1.332-.21.10547-.13965.07422-.40332-.083-.7041a2.65027,2.65027,0,0,0-2.17773-1.375c-.02246,0-.04493,0-.06739.001a10.27248,10.27248,0,0,0-4.002,1.26074c-.91894.54687-1.96289.291-3.28711-.03516a20.4939,20.4939,0,0,0-2.52539-.498c-5.29883-.63575-13.82812.47265-14.95019,1.64257-.043.04493-.0918.10938-.083.16211.10937.66895,4.1914.65821,7.9375.22852Zm14.86133,1.01562h0Z"/><path class="cls-8" d="M121.32961,29.92961c.13179.24.4704,1.25209.205,1.403s-.78554-1.0382-.78554-1.0382"/><path class="cls-4" d="M110.01464,32.76121a5.26744,5.26744,0,0,1-.9043-.0791,5.076,5.076,0,0,1-3.57031-2.2793.25029.25029,0,0,1,.44336-.23242,4.62721,4.62721,0,0,0,3.21191,2.01953,3.76506,3.76506,0,0,0,3.28321-.84277.25016.25016,0,1,1,.33984.36718A4.04118,4.04118,0,0,1,110.01464,32.76121Z"/><path class="cls-4" d="M107.09179,39.10008a.2459.2459,0,0,1-.16992-.06739.24891.24891,0,0,1-.08008-.1914l.15039-4.41309a.24554.24554,0,0,1,.25879-.24121.25.25,0,0,1,.24121.25879l-.14063,4.125,1.11817-.12012a.25042.25042,0,1,1,.05273.498l-1.40429.15039Z"/><path class="cls-4" d="M109.97753,38.95066a.25562.25562,0,0,1-.16016-.05762.25237.25237,0,0,1-.08984-.18359l-.14258-3.92187a.25.25,0,0,1,.24121-.25879.24609.24609,0,0,1,.25879.24121l.13184,3.64258.96484-.14161a.2497.2497,0,1,1,.07227.49415l-1.24024.18261A.22456.22456,0,0,1,109.97753,38.95066Z"/><path class="cls-1" d="M142.58593,73.75047a.25048.25048,0,0,1-.25-.25v-1a.25.25,0,0,1,.5,0v1A.25049.25049,0,0,1,142.58593,73.75047Z"/><path class="cls-1" d="M132.58593,73.75047a.25048.25048,0,0,1-.25-.25v-1a.25.25,0,0,1,.5,0v1A.25049.25049,0,0,1,132.58593,73.75047Z"/><path class="cls-1" d="M137.58593,73.75047a.25048.25048,0,0,1-.25-.25v-1a.25.25,0,0,1,.5,0v1A.25049.25049,0,0,1,137.58593,73.75047Z"/><path class="cls-1" d="M172.58593,72.75047h-75a.25048.25048,0,0,1-.25-.25v-25a.25.25,0,1,1,.5,0v24.75h74.75a.25.25,0,0,1,0,.5Z"/><path class="cls-1" d="M147.58593,73.75047a.25048.25048,0,0,1-.25-.25v-1a.25.25,0,0,1,.5,0v1A.25049.25049,0,0,1,147.58593,73.75047Z"/><path class="cls-1" d="M152.58593,73.75047a.25048.25048,0,0,1-.25-.25v-1a.25.25,0,0,1,.5,0v1A.25049.25049,0,0,1,152.58593,73.75047Z"/><path class="cls-1" d="M162.58593,73.75047a.25048.25048,0,0,1-.25-.25v-1a.25.25,0,0,1,.5,0v1A.25049.25049,0,0,1,162.58593,73.75047Z"/><path class="cls-5" d="M157.58593,73.75047a.25048.25048,0,0,1-.25-.25v-1a.25.25,0,0,1,.5,0v1A.25049.25049,0,0,1,157.58593,73.75047Z"/><path class="cls-1" d="M167.58593,73.75047a.25048.25048,0,0,1-.25-.25v-1a.25.25,0,0,1,.5,0v1A.25049.25049,0,0,1,167.58593,73.75047Z"/><path class="cls-1" d="M97.58593,52.75047h-1a.25.25,0,0,1,0-.5h1a.25.25,0,0,1,0,.5Z"/><path class="cls-9" d="M149.92755,56.21985c0-.48975-.42969-.79932-1.07959-.79932a1.693,1.693,0,0,0-1.44922.73926l-1.209-.70947a3.18478,3.18478,0,0,1,2.82812-1.33936c1.49951,0,2.53857.66992,2.53857,1.84912,0,1.59913-1.67871,1.77881-1.67871,2.83839h-1.50927C148.36847,57.39905,149.92755,57.08948,149.92755,56.21985Zm-1.75928,4.17774a.96221.96221,0,0,1,1.91894,0,.96083.96083,0,0,1-1.91894,0Z"/><path class="cls-10" d="M153.8203,67.19969a.29006.29006,0,0,1-.041-.00293c-1.64453-.27442-3.53125-2.459-3.96875-3.50977a.24955.24955,0,0,1,.46094-.19141c.40039.96,2.1914,2.97461,3.58984,3.207a.2502.2502,0,0,1-.041.49707Z"/><path class="cls-11" d="M166.33406,74.59788c-2.75222-.11324-4.49935.45561-5.554-.62519-.81275-.8329-2.27176-5.90179-3.8776-5.12364-1.50239.728,1.27468,6.4885,1.45089,7.56047.39483,2.40187,3.01345,4.80224,7.67519,4.81363a17.91213,17.91213,0,0,0,6.40678-1.56106s6.995-3.63519,6.27785-4.80529c-.777-1.26781-7.03077,1.72861-7.03077,1.72861A9.897,9.897,0,0,0,166.33406,74.59788Z"/><path class="cls-4" d="M166.05175,81.47312h-.02441c-4.877-.01269-7.52442-2.6123-7.9209-5.02246a13.49543,13.49543,0,0,0-.53711-1.585c-1.10157-2.9541-1.98926-5.6543-.77637-6.24121a1.00462,1.00462,0,0,1,.80176-.04395c.96484.34278,1.76074,2.042,2.46191,3.542a8.53574,8.53574,0,0,0,.90235,1.67578c.65332.66894,1.625.62988,3.09961.57129.66894-.02637,1.4248-.0586,2.28613-.02149a10.09078,10.09078,0,0,1,5.37012,1.94532c1.33984-.63282,6.39453-2.90332,7.21093-1.56739a.64056.64056,0,0,1,.05957.52344c-.40625,1.46582-5.81836,4.31445-6.43457,4.63379-.1289.0498-.25976.10254-.41992.167A16.83442,16.83442,0,0,1,166.05175,81.47312ZM157.2412,69.018a.5218.5218,0,0,0-.22949.05567c-.9043.43848.39941,3.93652,1.02637,5.61719a13.09787,13.09787,0,0,1,.5625,1.67773c.3623,2.21,2.84179,4.59277,7.42871,4.60449h.02246a16.36282,16.36282,0,0,0,5.89258-1.38769c.166-.06641.30176-.12012.40429-.15821,2.22266-1.15722,5.89258-3.36621,6.15528-4.31152.02246-.084.00293-.11621-.00391-.12793-.40527-.66406-3.79785.42871-6.709,1.82324a.25355.25355,0,0,1-.2666-.03222,9.72864,9.72864,0,0,0-5.20118-1.93067h0c-.83691-.03613-1.584-.00586-2.24511.02149-1.55078.05761-2.669.10449-3.47657-.72168a8.07938,8.07938,0,0,1-.998-1.81348c-.59375-1.27051-1.40821-3.00976-2.17578-3.28223A.564.564,0,0,0,157.2412,69.018Z"/><path class="cls-8" d="M156.69181,69.05788c-.283-.103-1.4874-.17444-1.607.13935s1.3077.5529,1.3077.5529"/><path class="cls-4" d="M166.56347,79.17527c-.18848,0-.37988-.00879-.57227-.02539a4.639,4.639,0,0,1-3.53222-1.84766.25.25,0,1,1,.41992-.27148,4.14538,4.14538,0,0,0,3.15625,1.62109,4.3541,4.3541,0,0,0,3.498-1.0332.25011.25011,0,1,1,.36524.3418A4.59414,4.59414,0,0,1,166.56347,79.17527Z"/><path class="cls-4" d="M162.49023,85.96922a.21322.21322,0,0,1-.043-.00391l-1.39746-.24121a.24958.24958,0,0,1-.20313-.28906.24184.24184,0,0,1,.28906-.20313l1.14649.19824.70019-4.456a.25014.25014,0,1,1,.49414.07812l-.73925,4.70606a.25073.25073,0,0,1-.24707.21094Z"/><path class="cls-4" d="M166.623,86.16062h-.001l-1.29883-.00293a.25.25,0,0,1,.001-.5h.001l1.05859.002.19824-4.417a.28614.28614,0,0,1,.26074-.23925.25065.25065,0,0,1,.23926.26074l-.209,4.65723A.25034.25034,0,0,1,166.623,86.16062Z"/><path class="cls-12" d="M192.716,73.20785l-.5,6.16924c0,.49705-1.34315.9-3,.9s-3-.403-3-.9l-.5-6.16924"/><path class="cls-4" d="M189.21581,80.52683c-1.56543,0-3.25-.35937-3.25-1.14941l-.499-6.14941a.24906.24906,0,0,1,.22851-.26954.24025.24025,0,0,1,.26954.22852l.5,6.16992c.001.209.96484.66992,2.751.66992s2.75-.46093,2.75-.64941l.501-6.19043a.2463.2463,0,0,1,.26953-.22852.24907.24907,0,0,1,.22852.26954l-.5,6.16992C192.46581,80.16746,190.78124,80.52683,189.21581,80.52683Z"/><ellipse class="cls-12" cx="189.21597" cy="73.20785" rx="3.5" ry="1.05"/><path class="cls-4" d="M189.21581,74.50828c-1.86328,0-3.75-.44727-3.75-1.30078,0-1.707,7.5-1.707,7.5,0C192.96581,74.061,191.07909,74.50828,189.21581,74.50828Zm0-2.10059c-2.10254,0-3.25.52832-3.25.79981s1.14746.80078,3.25.80078,3.25-.5293,3.25-.80078S191.31835,72.40769,189.21581,72.40769Z"/><path class="cls-2" d="M189.31725,73.55441c.03515-.492-.35145-3.65511-.28116-4.25258"/><path class="cls-4" d="M189.31737,73.80418l-.01757-.001a.24943.24943,0,0,1-.23145-.2666c.01367-.19922-.05762-.98242-.126-1.74023a21.391,21.391,0,0,1-.15429-2.52344.25628.25628,0,0,1,.27734-.21875.2495.2495,0,0,1,.21875.27734,23.28843,23.28843,0,0,0,.15625,2.419c.08887.98144.14258,1.59375.126,1.82129A.24964.24964,0,0,1,189.31737,73.80418Z"/><path class="cls-5" d="M192.06452,67.79232c-.41583-.3128-.69124.09774-1.11831-.42941s.49457-.65749.0675-1.18464-.79015.22924-1.15089-.65982-.88556-2.10745-1.5128-.72615,1.01706,2.20636-.26649,2.27036.68264,1.66271-.20642,2.02345-1.211-.41291-1.93595.27716,1.2481,2.17627,2.69534,1.14137c1.44789-1.03536,2.92877,1.23608,3.42334.5786s-.4934-.16525-.16291-1.15206S192.459,68.08906,192.06452,67.79232Z"/><path class="cls-4" d="M191.834,71.45847a2.13055,2.13055,0,0,1-.95411-.40918c-.64843-.40039-1.38281-.8496-2.09765-.34179a2.27227,2.27227,0,0,1-2.98535-.36035.81487.81487,0,0,1-.02735-1.165,1.12739,1.12739,0,0,1,1.22364-.30371,1.16467,1.16467,0,0,0,.79-.02344c.043-.01758.06934-.03711.07715-.05859.04492-.11719-.11328-.43848-.21777-.65235-.17871-.36523-.36328-.74219-.1875-1.04a.73479.73479,0,0,1,.61621-.291.64453.64453,0,0,0,.292-.05078.93632.93632,0,0,1-.13574-.25489,2.04632,2.04632,0,0,1-.10547-1.81836c.08692-.1914.34961-.7705.80567-.7705h.01074c.50781.01074.82422.68847,1.15625,1.50585.13281.3252.19531.32129.36523.30469a.75761.75761,0,0,1,.74805.292.64651.64651,0,0,1-.02832.89942c-.12012.16015-.12988.17285-.03906.28515a.4359.4359,0,0,0,.43457.20313.87215.87215,0,0,1,.63965.18359h0c.53906.40625.28222,1.33594-.08106,2.418-.10937.3252-.04785.35938.05273.416a.45273.45273,0,0,1,.25684.29492.67032.67032,0,0,1-.18359.5127A.5114.5114,0,0,1,191.834,71.45847Zm-2.37891-1.47753a3.38085,3.38085,0,0,1,1.68652.64257c.27539.169.65235.39844.71778.30957.02636-.03515.04589-.0625.05957-.085-.27051-.1709-.4541-.41406-.25977-.99609.165-.49024.54981-1.6377.25488-1.85938a.39881.39881,0,0,0-.33593-.084.92735.92735,0,0,1-.82618-.38867.64652.64652,0,0,1,.02832-.89942c.12012-.16015.12989-.17285.03907-.28515-.10254-.127-.15723-.1211-.31348-.1084-.31152.03027-.624.002-.874-.61524-.32129-.78906-.55762-1.19042-.7041-1.19335h0c-.03809,0-.17286.085-.35059.47753a1.57446,1.57446,0,0,0,.10742,1.40821c.11719.26367.22852.51269.09082.73633a.798.798,0,0,1-.67871.27246c-.1709.00781-.21191.0459-.21191.04687-.03028.0791.124.39453.207.56445a1.41643,1.41643,0,0,1,.23535,1.05079.6.6,0,0,1-.35645.34277,1.62,1.62,0,0,1-1.09179.04687.65253.65253,0,0,0-.76465.17969c-.1543.14649-.04785.34375.06836.48438a1.78052,1.78052,0,0,0,2.30859.27246A1.6209,1.6209,0,0,1,189.45507,69.98094Z"/><path class="cls-13" d="M78.10969,73.283c2.74573-.22015,4.60173.51759,5.65639-.56321.81275-.8329,2.96366-5.95086,4.62049-5.41536,1.50787.48736-2.12,6.71824-2.29616,7.79021-.39483,2.40187-3.01346,4.80224-7.67519,4.81363-2.84991.007-5.789-.94619-6.69038-1.82559,0,0-7.07384,2.75394-7.55826,1.46989C63.633,78.13825,72.46069,73.73589,78.10969,73.283Z"/><path class="cls-4" d="M78.38378,80.15867c-2.81055,0-5.65723-.90234-6.71191-1.78809-1.0625.40723-6.02051,2.24024-7.3584,1.65039a.681.681,0,0,1-.38086-.38085.81736.81736,0,0,1,.13574-.73633c1.22266-1.92871,9.09375-5.47461,14.02149-5.87012h0a19.24511,19.24511,0,0,1,2.66308.00488c1.30176.06934,2.23926.11719,2.834-.49316a10.73091,10.73091,0,0,0,.96777-1.52246c1.13281-1.96,2.53516-4.3916,3.90918-3.957a.718.718,0,0,1,.44433.41015c.39844.91114-.54785,3.10059-1.72949,5.65528a14.38592,14.38592,0,0,0-.84082,2.00293c-.39746,2.41113-3.0459,5.01171-7.92187,5.02441ZM71.7246,77.8325a.24846.24846,0,0,1,.17481.07129c.85253.832,3.72168,1.75488,6.48535,1.75488h.02929C83,79.647,85.48046,77.26316,85.84374,75.0532a12.869,12.869,0,0,1,.88086-2.13183c.77246-1.66993,2.06641-4.46583,1.72559-5.24512a.2191.2191,0,0,0-.14063-.13379c-.99023-.32031-2.44629,2.2168-3.32226,3.73047a10.3,10.3,0,0,1-1.043,1.62207c-.751.76953-1.84082.71582-3.21778.64258a19.06062,19.06062,0,0,0-2.59765-.00586h0c-4.98633.40039-12.583,3.97461-13.6377,5.63965a.39481.39481,0,0,0-.09082.293c.00586.01368.02246.05762.11719.09961.92285.416,4.76465-.79882,7.11621-1.71484A.26656.26656,0,0,1,71.7246,77.8325Z"/><path class="cls-8" d="M88.69905,67.92224c.29.0528,1.36572.457,1.31168.78118S88.6098,68.655,88.6098,68.655"/><path class="cls-4" d="M78.53808,77.69187a4.49468,4.49468,0,0,1-3.43164-1.28613.25.25,0,1,1,.38867-.31445,4.15434,4.15434,0,0,0,3.335,1.09375,3.99787,3.99787,0,0,0,3.19141-1.49121.24945.24945,0,1,1,.416.27539,4.4852,4.4852,0,0,1-3.584,1.71582C78.748,77.68992,78.64257,77.69187,78.53808,77.69187Z"/><path class="cls-4" d="M81.80663,84.46824H80.64941a.24953.24953,0,0,1-.249-.23145l-.33105-4.46a.24888.24888,0,0,1,.23047-.26757.243.243,0,0,1,.26757.23046l.31446,4.22852h.9248a.25.25,0,0,1,0,.5Z"/><path class="cls-4" d="M79.01659,84.46824h-1.1914a.25048.25048,0,0,1-.25-.25V79.896a.25.25,0,0,1,.5,0v4.07227h.9414a.25.25,0,0,1,0,.5Z"/><path class="cls-9" d="M103.45,54.43867c0-.48975-.42969-.79932-1.07959-.79932a1.693,1.693,0,0,0-1.44922.73926l-1.209-.70947a3.18478,3.18478,0,0,1,2.82812-1.33936c1.49951,0,2.53858.66992,2.53858,1.84912,0,1.59913-1.67871,1.77881-1.67871,2.83839h-1.50928C101.89092,55.61787,103.45,55.3083,103.45,54.43867Zm-1.75928,4.17774a.96222.96222,0,0,1,1.91895,0,.96084.96084,0,0,1-1.91895,0Z"/><path class="cls-10" d="M94.41991,66.68211a.24989.24989,0,0,1-.02929-.498,9.79,9.79,0,0,0,7.36425-4.67871.24939.24939,0,1,1,.42579.25977,10.27247,10.27247,0,0,1-7.73145,4.915Z"/></g></g></svg>