<svg xmlns="http://www.w3.org/2000/svg" width="540" height="140" viewBox="0 0 540 140"><defs><style>.cls-1{fill:#ddd;}.cls-2{fill:#fff;}.cls-3{fill:none;}.cls-4,.cls-8{fill:#053437;}.cls-5{fill:#33d67b;}.cls-6{fill:#f7ce05;}.cls-11,.cls-6,.cls-7,.cls-8{fill-rule:evenodd;}.cls-7{fill:#caecf9;}.cls-9{fill:#553bf2;}.cls-10{fill:gray;}.cls-11{fill:#f0403d;}</style></defs><g id="Layer_2" data-name="Layer 2"><g id="Layer_2-2" data-name="Layer 2"><line class="cls-1" x1="40" y1="110" x2="40" y2="70"/><path class="cls-1" d="M40.00048,110.5a.49971.49971,0,0,1-.5-.5V70a.5.5,0,0,1,1,0v40A.49972.49972,0,0,1,40.00048,110.5Z"/><path class="cls-1" d="M39.9995,70.43555a.5.5,0,0,1-.293-.90527l.81445-.582a.50019.50019,0,1,1,.57813.8164l-.80664.57617A.50334.50334,0,0,1,39.9995,70.43555Z"/><path class="cls-1" d="M117.98876,100.31934a.50955.50955,0,0,1-.10742-.01172,9.88463,9.88463,0,0,1-1.98047-.66894.50036.50036,0,0,1,.416-.91016,8.83493,8.83493,0,0,0,1.7793.60254.5.5,0,0,1-.10742.98828Zm3.94336-.08594a.50011.50011,0,0,1-.11719-.98633,9.31641,9.31641,0,0,0,1.77051-.62011.50023.50023,0,1,1,.42383.90625,10.42372,10.42372,0,0,1-1.96.68652A.5469.5469,0,0,1,121.93212,100.2334Zm-9.15332-2.75a.50088.50088,0,0,1-.32618-.12109c-.49121-.42188-.99316-.89453-1.49121-1.40625a.5.5,0,0,1,.7168-.69727c.47754.49024.957.94239,1.42676,1.34571a.5.5,0,0,1-.32617.8789Zm14.25-.18164a.5.5,0,0,1-.34864-.8584,16.116,16.116,0,0,0,1.30176-1.43554.50009.50009,0,1,1,.7793.627,17.29489,17.29489,0,0,1-1.38379,1.52539A.49785.49785,0,0,1,127.0288,97.30176Zm-18.32422-4.24219a.50019.50019,0,0,1-.39649-.19531q-.605-.78662-1.20312-1.63476a.49962.49962,0,0,1,.8164-.57618q.58595.82911,1.17969,1.60157a.5.5,0,0,1-.39648.80468Zm21.8916-.56933a.50013.50013,0,0,1-.43555-.74512q.47169-.84083.917-1.7539a.50008.50008,0,1,1,.89844.43945q-.45849.939-.94433,1.80469A.49886.49886,0,0,1,130.59618,92.49024Zm-25.30371-4.40235a.49948.49948,0,0,1-.42383-.23437q-.52881-.84668-1.05176-1.72656a.5001.5001,0,1,1,.85938-.51172q.51708.87012,1.04,1.708a.49951.49951,0,0,1-.42383.76464Zm27.8291-1.06542a.50919.50919,0,0,1-.18066-.03321.50178.50178,0,0,1-.28614-.64746q.353-.91113.68848-1.87012a.4994.4994,0,0,1,.94336.32813q-.33838.97559-.69824,1.90332A.50107.50107,0,0,1,133.12157,87.02247Zm-30.876-4.13965a.49963.49963,0,0,1-.4375-.25782q-.48633-.876-.96777-1.76855a.49943.49943,0,1,1,.87891-.47461q.48047.88623.96386,1.75879a.5.5,0,0,1-.4375.74219Zm32.80371-1.5752a.51845.51845,0,0,1-.14257-.02051.5011.5011,0,0,1-.33692-.62207q.28125-.94629.55176-1.92187a.49943.49943,0,0,1,.96289.26562q-.271.98584-.55566,1.94141A.50064.50064,0,0,1,135.0493,81.30762ZM440.436,80.501a.50008.50008,0,0,1-.01269-1,7.36283,7.36283,0,0,0,1.83008-.28223.49954.49954,0,0,1,.27343.96094,8.33634,8.33634,0,0,1-2.07812.32129Zm-3.88476-.80762a.48634.48634,0,0,1-.19727-.041,14.12657,14.12657,0,0,1-1.835-.96192.5003.5003,0,0,1,.52539-.85156,13.23225,13.23225,0,0,0,1.7041.89551.49985.49985,0,0,1-.19726.959Zm9.35254-1.33691a.5.5,0,0,1-.30371-.89746,16.45831,16.45831,0,0,0,1.46679-1.27539.5.5,0,1,1,.69727.71679,17.44755,17.44755,0,0,1-1.55664,1.35352A.49763.49763,0,0,1,445.9038,78.35645ZM99.395,77.56446a.50075.50075,0,0,1-.44336-.26856q-.4673-.895-.93067-1.792a.5001.5001,0,1,1,.88868-.459q.46289.895.92871,1.78808a.49991.49991,0,0,1-.44336.73145Zm332.21386-1.2461a.4937.4937,0,0,1-.33789-.13183q-.731-.66944-1.459-1.42285a.5.5,0,1,1,.71875-.69532q.706.728,1.416,1.38184a.5.5,0,0,1-.3379.86816Zm-294.99121-.83691a.51736.51736,0,0,1-.12011-.01465.50011.50011,0,0,1-.36524-.60547q.23731-.96387.4668-1.94726a.5003.5003,0,1,1,.97461.22656q-.23145.98877-.4707,1.96094A.50005.50005,0,0,1,136.61766,75.48145Zm313.43457-1.46484a.50005.50005,0,0,1-.39843-.80176q.58448-.772,1.15722-1.61231a.5003.5003,0,0,1,.82618.56446q-.58742.85986-1.18653,1.65136A.49974.49974,0,0,1,450.05223,74.01661ZM96.62548,72.20118a.49954.49954,0,0,1-.44532-.27149l-.92089-1.78515a.50055.50055,0,1,1,.88867-.46094l.92285,1.78906a.49961.49961,0,0,1-.44531.72852Zm330.88086-.29395a.50068.50068,0,0,1-.3877-.18359q-.62841-.7705-1.25879-1.582a.49968.49968,0,1,1,.78906-.61329q.62256.80127,1.24512,1.5625a.49993.49993,0,0,1-.38769.81641ZM280.5327,70.51758q-.2827,0-.5664-.01855a8.11415,8.11415,0,0,1-.98535-.127.50008.50008,0,1,1,.1875-.98242,6.94751,6.94751,0,0,0,.86425.11133,7.79438,7.79438,0,0,0,1.002-.001.51148.51148,0,0,1,.53418.46387.50052.50052,0,0,1-.46387.53418C280.91454,70.51172,280.72411,70.51758,280.5327,70.51758Zm-77.49121-.12207a.4998.4998,0,0,1-.12207-.98437,8.38235,8.38235,0,0,0,1.75195-.67285.50008.50008,0,1,1,.45508.89062,9.31738,9.31738,0,0,1-1.96289.751A.4813.4813,0,0,1,203.04149,70.39551Zm-3.93847-.11523a.50508.50508,0,0,1-.14551-.02149,9.97157,9.97157,0,0,1-1.92383-.82129.50006.50006,0,0,1,.48437-.875,8.95524,8.95524,0,0,0,1.73047.73926.50006.50006,0,0,1-.1455.97852Zm-61.13379-.67871a.49172.49172,0,0,1-.10547-.01172.49914.49914,0,0,1-.38281-.59375q.20946-.97559.417-1.96289a.49353.49353,0,0,1,.59179-.38672.50025.50025,0,0,1,.38672.5918q-.20654.99022-.41894,1.96875A.49946.49946,0,0,1,137.96923,69.60157Zm146.90918-.21192a.50016.50016,0,0,1-.22657-.94629,14.87534,14.87534,0,0,0,1.66309-.99218.49948.49948,0,1,1,.56445.82421,15.885,15.885,0,0,1-1.77441,1.06055A.51091.51091,0,0,1,284.87841,69.38965Zm168.49316-.40527a.5.5,0,0,1-.43066-.75391q.4995-.84814.99316-1.73437a.49968.49968,0,1,1,.873.48633q-.49952.89648-1.00489,1.75586A.49856.49856,0,0,1,453.37157,68.98438Zm-177.94336-.16895a.50263.50263,0,0,1-.27637-.083,16.83344,16.83344,0,0,1-1.6416-1.251.5.5,0,0,1,.65235-.75781,15.79575,15.79575,0,0,0,1.542,1.1748.50006.50006,0,0,1-.27637.917ZM44.1079,67.57032a.49995.49995,0,0,1-.28125-.91309c.51758-.35254,1.07617-.72949,1.6709-1.126a.5.5,0,1,1,.55468.832c-.59082.39453-1.14746.76953-1.66308,1.12011A.497.497,0,0,1,44.1079,67.57032Zm164.02246-.23438a.5.5,0,0,1-.34082-.86621c.45019-.41992.91406-.8916,1.37793-1.40137a.49984.49984,0,1,1,.74023.67188c-.48242.53125-.96582,1.02246-1.43652,1.46191A.50281.50281,0,0,1,208.13036,67.33594ZM423.856,67.1084a.49949.49949,0,0,1-.40625-.208q-.583-.813-1.165-1.64648a.5001.5001,0,1,1,.82031-.57227q.57714.82618,1.15723,1.63477a.49991.49991,0,0,1-.40625.792Zm-229.72559-.06054a.50081.50081,0,0,1-.35547-.14844c-.45312-.457-.915-.96973-1.37109-1.52344a.50015.50015,0,0,1,.77148-.63672c.4375.53125.87793,1.02051,1.31055,1.457a.5.5,0,0,1-.35547.85157ZM93.83544,66.84961A.49889.49889,0,0,1,93.394,66.585q-.47607-.895-.95215-1.76661a.49993.49993,0,1,1,.87793-.47851q.47754.87452.957,1.77441a.49983.49983,0,0,1-.4414.73535Zm195.84863-1.04687a.5.5,0,0,1-.34766-.85938q.6958-.67236,1.38672-1.417a.4996.4996,0,1,1,.73242.67969q-.709.76464-1.42382,1.45605A.50056.50056,0,0,1,289.68407,65.80274Zm-18.65625-1.06641a.49561.49561,0,0,1-.38086-.17676c-.42773-.50293-.85254-1.03222-1.27539-1.583a.5.5,0,1,1,.793-.60938q.61962.80859,1.24414,1.5459a.50006.50006,0,0,1-.38086.82324ZM49.13524,64.23926a.5.5,0,0,1-.27148-.91992q.8247-.5332,1.69824-1.08594a.50041.50041,0,0,1,.53516.84571q-.86866.54932-1.69043,1.08007A.4939.4939,0,0,1,49.13524,64.23926Zm90.0586-.54492a.49172.49172,0,0,1-.09961-.00977.49933.49933,0,0,1-.39161-.58886l.39063-1.96289a.49987.49987,0,1,1,.98047.19531l-.39063,1.96484A.4997.4997,0,0,1,139.19384,63.69434Zm317.07324-.00195a.49994.49994,0,0,1-.44434-.7295q.45556-.88329.91016-1.7871a.49962.49962,0,0,1,.89258.44921q-.45556.9082-.91407,1.79688A.5.5,0,0,1,456.26708,63.69239Zm-244.2002-.90918a.49994.49994,0,0,1-.40332-.7959q.57861-.78663,1.15039-1.627a.49974.49974,0,1,1,.82617.5625q-.58154.854-1.16992,1.65625A.49963.49963,0,0,1,212.06688,62.78321Zm-21.62109-.48535a.50035.50035,0,0,1-.42188-.23145q-.53319-.83788-1.05468-1.73535a.50014.50014,0,0,1,.86523-.502q.50976.8789,1.0332,1.70019a.5.5,0,0,1-.42187.76856Zm229.96973-.14454a.49948.49948,0,0,1-.41407-.21972l-1.12988-1.66895a.5.5,0,0,1,.82813-.56054l1.12988,1.66894a.5.5,0,0,1-.41406.78027ZM90.9038,61.5752a.49783.49783,0,0,1-.43164-.24707c-.34473-.58594-.68848-1.1582-1.03223-1.71191a.5.5,0,1,1,.84961-.52735q.52149.84228,1.04394,1.7334a.49835.49835,0,0,1-.17773.68359A.49287.49287,0,0,1,90.9038,61.5752Zm202.80273-.25977a.49995.49995,0,0,1-.39062-.8125q.61669-.769,1.22949-1.57519a.49962.49962,0,1,1,.79492.60547q-.61964.81591-1.24316,1.59472A.50138.50138,0,0,1,293.70653,61.31543ZM54.24462,61.03907a.5.5,0,0,1-.25879-.92774q.85254-.51708,1.72558-1.03515a.50009.50009,0,1,1,.51172.85937q-.86865.51563-1.71972,1.03125A.49893.49893,0,0,1,54.24462,61.03907Zm213.19629-1.14551a.49991.49991,0,0,1-.417-.22363q-.55077-.83056-1.09765-1.69825a.49988.49988,0,0,1,.8457-.5332q.54053.85546,1.08594,1.67871a.4999.4999,0,0,1-.417.77637ZM458.95848,58.291a.48807.48807,0,0,1-.21875-.05078.49926.49926,0,0,1-.23046-.668l.875-1.80762a.5001.5001,0,0,1,.90039.43555l-.877,1.80957A.49818.49818,0,0,1,458.95848,58.291Zm-399.50878-.294a.5.5,0,0,1-.24415-.93652q.88038-.49365,1.76856-.97363a.50029.50029,0,0,1,.47461.88086q-.88038.47314-1.75488.96582A.50056.50056,0,0,1,59.4497,57.99707Zm80.90722-.21386a.53946.53946,0,0,1-.09668-.00879.49983.49983,0,0,1-.39453-.58692l.38672-1.97949a.49949.49949,0,1,1,.98047.19141l-.38574,1.97949A.49988.49988,0,0,1,140.35692,57.78321Zm75.05469-.01758a.5001.5001,0,0,1-.42578-.76172q.52-.84375,1.03711-1.71387a.50009.50009,0,0,1,.85937.51172q-.52294.87452-1.04492,1.72559A.49871.49871,0,0,1,215.41161,57.76563Zm201.61523-.60645a.49957.49957,0,0,1-.41308-.21777q-.56837-.832-1.13867-1.65039a.5001.5001,0,1,1,.82031-.57227q.57275.82325,1.14453,1.65821a.49989.49989,0,0,1-.41309.78222Zm-229.53222-.12011a.49893.49893,0,0,1-.44629-.27539q-.44824-.88917-.88867-1.81446a.49971.49971,0,1,1,.90234-.42968q.43653.91259.87891,1.79492a.5003.5003,0,0,1-.44629.72461Zm-99.86231-.53223a.501.501,0,0,1-.40429-.20508q-.60645-.832-1.21-1.56836a.49953.49953,0,0,1,.77149-.63476q.62256.75585,1.24707,1.61328a.49988.49988,0,0,1-.4043.79492Zm209.68457-.01953a.49994.49994,0,0,1-.4082-.78906q.57568-.813,1.15039-1.64258a.50035.50035,0,0,1,.82227.57031c-.38477.55469-.77051,1.10645-1.15625,1.65039A.49944.49944,0,0,1,297.31688,56.48731Zm200.81836-.77442a.49984.49984,0,0,1-.46289-.31054c-.2373-.58106-.49512-1.2002-.77051-1.85059a.49971.49971,0,0,1,.91993-.39062c.27734.65429.5371,1.27734.77636,1.8623a.49978.49978,0,0,1-.46289.68945Zm-433.3584-.54a.49989.49989,0,0,1-.22265-.94727q.91405-.45556,1.81836-.87988a.49976.49976,0,1,1,.42578.90429q-.89357.42042-1.79883.87012A.49068.49068,0,0,1,64.77684,55.17286Zm199.48536-.40528a.49785.49785,0,0,1-.43165-.24707q-.50684-.86133-1.01269-1.74219a.5.5,0,0,1,.86719-.498q.50244.876,1.00683,1.73437a.49837.49837,0,0,1-.17773.6836A.493.493,0,0,1,264.2622,54.76758Zm197.3291-1.90722a.485.485,0,0,1-.21875-.05079.49924.49924,0,0,1-.23047-.668l.88476-1.8086a.49963.49963,0,0,1,.89649.44141l-.88281,1.80469A.49926.49926,0,0,1,461.5913,52.86036ZM70.26805,52.6875a.5.5,0,0,1-.18652-.96386q.9668-.38819,1.89746-.71973a.49978.49978,0,0,1,.33594.94141q-.9126.32518-1.86035.706A.5025.5025,0,0,1,70.26805,52.6875Zm148.20508-.12109a.50006.50006,0,0,1-.43457-.74707l.98828-1.74707a.49979.49979,0,0,1,.8711.49023l-.99024,1.751A.49855.49855,0,0,1,218.47313,52.56641Zm195.0752-.333a.49822.49822,0,0,1-.40235-.20312q-.60059-.81445-1.20312-1.59864a.5.5,0,1,1,.793-.60937q.6079.791,1.21484,1.61426a.5.5,0,0,1-.40234.79687ZM83.5747,52.083a.49712.49712,0,0,1-.30567-.10449,8.59219,8.59219,0,0,0-1.59766-.99512.49982.49982,0,0,1,.42188-.90625,9.59794,9.59794,0,0,1,1.78711,1.11035.5.5,0,0,1-.30566.89551Zm57.94921-.22656a.49186.49186,0,0,1-.09961-.00977.49933.49933,0,0,1-.3916-.58886l.39746-1.97071a.50025.50025,0,0,1,.98047.19922l-.39746,1.96875A.4997.4997,0,0,1,141.52391,51.85645Zm43.416-.28125a.49938.49938,0,0,1-.458-.29883q-.40283-.917-.7998-1.85058a.50009.50009,0,1,1,.91992-.39258q.39551.93017.7959,1.84082a.49974.49974,0,0,1-.458.70117Zm115.7998-.05566a.5.5,0,0,1-.41406-.78028l1.125-1.667a.50026.50026,0,0,1,.83008.55859l-1.127,1.669A.49949.49949,0,0,1,300.73973,51.51954Zm-224.73925-.669a.49969.49969,0,0,1-.1045-.98828,18.3339,18.3339,0,0,1,2.03614-.33008.5047.5047,0,0,1,.54785.44629.49865.49865,0,0,1-.44629.54785,17.744,17.744,0,0,0-1.92676.3125A.4938.4938,0,0,1,76.00048,50.85059Zm287.76074-.19824a.50008.50008,0,0,1-.04492-.998c.60742-.05664,1.26074-.14941,1.9414-.27539a.49971.49971,0,1,1,.1836.98242c-.71192.13281-1.39551.22949-2.03321.28906C363.79247,50.65137,363.77684,50.65235,363.76122,50.65235Zm-3.99121-.2041a.46227.46227,0,0,1-.11426-.01368,15.67011,15.67011,0,0,1-1.97656-.61621.49995.49995,0,1,1,.35547-.93457,14.9,14.9,0,0,0,1.84961.57813.49982.49982,0,0,1-.11426.98633Zm135.97363-.27246a.5004.5004,0,0,1-.45508-.292q-.40869-.895-.8457-1.81836a.50018.50018,0,0,1,.9043-.42773q.43944.92724.85156,1.83008a.50142.50142,0,0,1-.24707.66308A.5085.5085,0,0,1,495.74364,50.17579Zm-234.47559-.64844a.49933.49933,0,0,1-.43652-.25586l-.9834-1.75781a.50016.50016,0,0,1,.873-.48829l.9834,1.75782a.4999.4999,0,0,1-.43653.74414Zm108.377-.13184a.49994.49994,0,0,1-.14453-.97851q.93456-.28272,1.8955-.61133a.50029.50029,0,1,1,.32227.94726q-.97705.33252-1.92871.6211A.49378.49378,0,0,1,369.645,49.39551ZM354.23192,48.126a.50656.50656,0,0,1-.24316-.0625q-.86133-.48046-1.75293-1.02246a.5.5,0,0,1,.51953-.85449q.873.53174,1.71973,1.002a.50015.50015,0,0,1-.24317.9375Zm55.56641-.61426a.49546.49546,0,0,1-.377-.17187q-.6665-.76465-1.33691-1.46778a.50007.50007,0,1,1,.72266-.6914q.687.71923,1.36816,1.50293a.5.5,0,0,1-.37695.82812Zm54.48633-.0498a.49414.49414,0,0,1-.2295-.05567.5003.5003,0,0,1-.21484-.67382q.46728-.90381.9375-1.78614a.50023.50023,0,1,1,.88281.47071q-.46728.876-.93164,1.77441A.5.5,0,0,1,464.28466,47.46192Zm-88.95508-.06153a.50006.50006,0,0,1-.17969-.96679q.92724-.35742,1.86523-.73242a.5005.5005,0,1,1,.3711.92968q-.94336.375-1.87695.73633A.504.504,0,0,1,375.32958,47.40039ZM221.43114,47.3086a.4999.4999,0,0,1-.43652-.74414l.9873-1.75391a.49984.49984,0,0,1,.87012.49219l-.98438,1.75A.4993.4993,0,0,1,221.43114,47.3086Zm82.69434-.78223a.50018.50018,0,0,1-.41211-.78223q.57274-.83642,1.1455-1.65722a.5001.5001,0,0,1,.82032.57226q-.57276.81739-1.1416,1.64942A.49787.49787,0,0,1,304.12548,46.52637Zm-121.53125-.50976a.49984.49984,0,0,1-.46289-.31055l-.75782-1.86524a.50033.50033,0,0,1,.92774-.375l.75586,1.86133a.49981.49981,0,0,1-.46289.68946Zm-39.84961-.06836a.57.57,0,0,1-.10645-.01075.50152.50152,0,0,1-.38379-.59472q.21387-.98877.43067-1.96582a.50017.50017,0,1,1,.97656.21679q-.21679.97413-.42871,1.96A.50026.50026,0,0,1,142.74462,45.94825ZM380.93016,45.165a.50011.50011,0,0,1-.1875-.96386l1.86914-.751a.4996.4996,0,1,1,.3711.92773l-1.86524.751A.5076.5076,0,0,1,380.93016,45.165Zm-31.81054-.23144a.49515.49515,0,0,1-.28028-.08594q-.82323-.55663-1.66211-1.1416a.5001.5001,0,0,1,.57227-.82031q.832.58008,1.65039,1.13379a.5.5,0,0,1-.28027.91406ZM493.1118,44.749a.49948.49948,0,0,1-.44335-.26953q-.46143-.8877-.93946-1.76563a.5.5,0,0,1,.877-.48047q.48486.8877.94921,1.78516a.49875.49875,0,0,1-.21289.67383A.49023.49023,0,0,1,493.1118,44.749ZM258.314,44.2627a.49856.49856,0,0,1-.43457-.25293q-.49952-.87744-.99707-1.74219a.49966.49966,0,0,1,.86524-.5q.501.86719,1.001,1.748a.49947.49947,0,0,1-.1875.68164A.493.493,0,0,1,258.314,44.2627Zm147.18457-.96094a.49972.49972,0,0,1-.31152-.1084,18.04714,18.04714,0,0,0-1.58789-1.13476.50041.50041,0,0,1,.53516-.84571,19.55882,19.55882,0,0,1,1.67578,1.19727.50006.50006,0,0,1-.31153.8916Zm-18.95312-.334a.49985.49985,0,0,1-.17285-.96875q.95948-.356,1.90332-.67871a.49968.49968,0,0,1,.32422.94531q-.93018.31934-1.88184.6709A.4865.4865,0,0,1,386.5454,42.96778Zm80.63769-.7959a.5.5,0,0,1-.42968-.75391q.52148-.88623,1.05078-1.72949a.50018.50018,0,1,1,.84765.53125q-.52148.83057-1.03711,1.70606A.499.499,0,0,1,467.18309,42.17188Zm-242.76367-.10352a.49984.49984,0,0,1-.43066-.75293q.51415-.87744,1.03125-1.73242a.49943.49943,0,0,1,.85547.51563q-.51123.85107-1.02344,1.72265A.50265.50265,0,0,1,224.41942,42.06836Zm119.76172-.59179a.50448.50448,0,0,1-.291-.09278l-1.63574-1.168a.5.5,0,0,1,.58008-.81445l1.6377,1.168a.5001.5001,0,0,1-.291.90723Zm48.09863-.35352a.5001.5001,0,0,1-.125-.98437q1.01661-.26222,1.98926-.45118a.50026.50026,0,0,1,.18945.98243c-.6289.12109-1.27246.26855-1.92871.4375A.5039.5039,0,0,1,392.27977,41.12305Zm7.9375-.57617a.47864.47864,0,0,1-.11035-.0127l-.207-.04394a9.84118,9.84118,0,0,0-1.68555-.1875.50116.50116,0,0,1-.48535-.51465.49284.49284,0,0,1,.51465-.48535,10.92285,10.92285,0,0,1,1.85645.207l.22753.0498a.49985.49985,0,0,1-.11035.98731ZM180.33544,40.418a.4999.4999,0,0,1-.46387-.31445l-.749-1.86035a.50033.50033,0,1,1,.92773-.375l.749,1.86426a.5005.5005,0,0,1-.46386.68554Zm-36.249-.35254a.48965.48965,0,0,1-.11816-.01464.49932.49932,0,0,1-.36719-.60352q.24024-.9873.48828-1.95508a.5.5,0,1,1,.96875.248q-.24756.96093-.48632,1.94336A.49992.49992,0,0,1,144.08641,40.06543Zm346.06446-.5664a.49959.49959,0,0,1-.42481-.23633q-.53466-.86133-1.08008-1.67383a.50026.50026,0,0,1,.83008-.55859c.37012.55078.73731,1.12109,1.09961,1.70508a.5.5,0,0,1-.4248.76367ZM339.25731,37.99219a.50384.50384,0,0,1-.28515-.08887q-.82764-.57422-1.65332-1.12988a.50026.50026,0,1,1,.55859-.83008c.55371.37207,1.10937.75293,1.665,1.1377a.50007.50007,0,0,1-.28516.91113Zm131.24414-.85351a.50005.50005,0,0,1-.39843-.80176q.63133-.83643,1.27734-1.58887a.5.5,0,0,1,.75781.65234q-.62548.728-1.23828,1.54A.497.497,0,0,1,470.50145,37.13868Zm-242.91211-.20313a.494.494,0,0,1-.27539-.083.49918.49918,0,0,1-.1416-.69238q.56543-.8584,1.13672-1.67578a.49986.49986,0,0,1,.81836.57422q-.5625.8042-1.12109,1.65234A.49836.49836,0,0,1,227.58934,36.93555Zm83.79786-.03027a.5.5,0,0,1-.374-.832c.46-.51856.92188-1.01661,1.38184-1.48926a.5.5,0,1,1,.71679.69726q-.67529.69434-1.35058,1.45606A.49855.49855,0,0,1,311.3872,36.90528Zm-133.32129-2.0752a.50018.50018,0,0,1-.46192-.30859q-.38672-.93457-.77539-1.85059a.49971.49971,0,0,1,.91992-.39062q.39112.91992.7793,1.8584a.50038.50038,0,0,1-.27051.65332A.48875.48875,0,0,1,178.06591,34.83008Zm156.15527-.14844a.49931.49931,0,0,1-.25977-.07324q-.86425-.52734-1.71777-1.01367a.49989.49989,0,1,1,.49414-.86914c.57715.32715,1.15918.67188,1.74512,1.0293a.5.5,0,0,1-.26172.92675Zm152.42773-.08789a.49787.49787,0,0,1-.38086-.17578c-.45214-.53125-.90136-1.01465-1.334-1.43652a.5.5,0,1,1,.69727-.7168c.45507.44336.92578.9502,1.39843,1.50489a.5.5,0,0,1-.38086.82421Zm-341.01464-.35839a.49928.49928,0,0,1-.48047-.63965q.28565-.98145.583-1.9336a.50037.50037,0,0,1,.95508.29883q-.29443.94189-.57715,1.91406A.50035.50035,0,0,1,145.63427,34.23536Zm106.29394-.20313a.498.498,0,0,1-.4043-.206c-.39843-.54688-.80078-1.0752-1.2041-1.58008a.50024.50024,0,1,1,.78125-.625q.61964.7749,1.23145,1.61719a.5.5,0,0,1-.4043.79394Zm222.7002-1.25293a.5.5,0,0,1-.3086-.89355,13.50956,13.50956,0,0,1,1.72168-1.15625.50015.50015,0,1,1,.48828.873,12.39072,12.39072,0,0,0-1.59277,1.07032A.50145.50145,0,0,1,474.62841,32.7793Zm-158.88379-.02246a.5.5,0,0,1-.30176-.89844A17.50369,17.50369,0,0,1,317.1538,30.708a.50029.50029,0,1,1,.50586.86328,16.60611,16.60611,0,0,0-1.61329,1.084A.4993.4993,0,0,1,315.74462,32.75684ZM231.146,32.07032a.5.5,0,0,1-.38476-.81934q.67089-.80713,1.35156-1.5293a.50014.50014,0,1,1,.72656.6875c-.43945.46485-.875.96-1.30859,1.48047A.4996.4996,0,0,1,231.146,32.07032Zm97.7627-.23145a.49853.49853,0,0,1-.20215-.043c-.625-.27539-1.24023-.52051-1.8291-.72656a.5.5,0,0,1,.332-.94336c.61231.21484,1.252.46875,1.90137.75586a.49991.49991,0,0,1-.20215.957Zm153.10644-.99707a.48638.48638,0,0,1-.18359-.03516,4.23337,4.23337,0,0,0-1.74121-.31152.48217.48217,0,0,1-.52539-.47265.49933.49933,0,0,1,.47266-.5254,5.03646,5.03646,0,0,1,2.16113.37989.49992.49992,0,0,1-.1836.96484Zm-160.877-.57812a.50018.50018,0,0,1-.06445-.9961,10.23362,10.23362,0,0,1,2.10449-.04883.5004.5004,0,0,1-.07422.998,9.28048,9.28048,0,0,0-1.89941.043A.49523.49523,0,0,1,321.13817,30.26368ZM175.67137,29.291a.49853.49853,0,0,1-.45507-.29395q-.41895-.92285-.84375-1.81445a.49971.49971,0,0,1,.90234-.42969q.4292.89942.85156,1.832a.50044.50044,0,0,1-.45508.70605Zm-28.16113-.78711a.49176.49176,0,0,1-.17383-.03125.50056.50056,0,0,1-.29492-.64258q.35889-.9668.73535-1.88672a.50016.50016,0,0,1,.92578.37891q-.37061.90528-.72363,1.85547A.49956.49956,0,0,1,147.51024,28.50391Zm87.96387-.59766a.5.5,0,0,1-.28906-.9082,13.15,13.15,0,0,1,1.78027-1.06836.50051.50051,0,0,1,.44141.89844,12.01634,12.01634,0,0,0-1.64356.98633A.50233.50233,0,0,1,235.47411,27.90625Zm7.51562-1.626a.50692.50692,0,0,1-.1416-.02051,7.06177,7.06177,0,0,0-1.82617-.29395.49986.49986,0,0,1-.4873-.51269.4725.4725,0,0,1,.51269-.48731,8.06253,8.06253,0,0,1,2.084.335.5.5,0,0,1-.14161.97949Zm-69.98437-2.39942a.4991.4991,0,0,1-.43945-.26172q-.48488-.895-.98047-1.73339a.50019.50019,0,1,1,.86133-.50879q.5039.85254.998,1.76562a.50006.50006,0,0,1-.43945.73828Zm-23.08789-.89648a.48743.48743,0,0,1-.23047-.05664.49875.49875,0,0,1-.21289-.67383q.48047-.92579.99121-1.7793a.50026.50026,0,0,1,.85742.51563q-.49658.82617-.96191,1.72461A.49766.49766,0,0,1,149.91747,22.98438Zm19.88086-4.2041a.497.497,0,0,1-.39844-.19824c-.41992-.55469-.83887-1.06543-1.24707-1.51758a.50063.50063,0,1,1,.74414-.66992c.42578.4746.86328,1.00683,1.29981,1.584a.5.5,0,0,1-.39844.80176Zm-16.585-.80664a.5.5,0,0,1-.37891-.82617,17.03944,17.03944,0,0,1,1.42676-1.47852.49978.49978,0,0,1,.67383.73828,16.0574,16.0574,0,0,0-1.34278,1.39258A.49994.49994,0,0,1,153.21337,17.97364Zm12.28222-3.33789a.49428.49428,0,0,1-.25976-.07325,7.92219,7.92219,0,0,0-1.69336-.78222.50032.50032,0,0,1,.30469-.95313,8.898,8.898,0,0,1,1.9082.88184.4999.4999,0,0,1-.25977.92676Zm-7.61621-.29883a.5.5,0,0,1-.20508-.95606,11.26565,11.26565,0,0,1,1.97559-.67773.50025.50025,0,0,1,.23438.97266,10.20251,10.20251,0,0,0-1.79981.61718A.49078.49078,0,0,1,157.87938,14.33692Z"/><path class="cls-1" d="M499.9995,60.5a.50011.50011,0,0,1-.4707-.331c-.001-.002-.12012-.334-.34278-.92773a.49971.49971,0,0,1,.93555-.35157c.22754.60352.34863.94141.34863.94141a.501.501,0,0,1-.30175.63965A.51286.51286,0,0,1,499.9995,60.5Z"/><rect class="cls-2" x="33" y="68" width="7" height="44"/><path class="cls-1" d="M499.9995,110.25h-460a.25048.25048,0,0,1-.25-.25V10a.25.25,0,0,1,.5,0v99.75h459.75a.25.25,0,0,1,0,.5Z"/><path class="cls-1" d="M159.9995,112.25a.25048.25048,0,0,1-.25-.25v-2a.25.25,0,0,1,.5,0v2A.25048.25048,0,0,1,159.9995,112.25Z"/><path class="cls-1" d="M279.9995,112.25a.25048.25048,0,0,1-.25-.25v-2a.25.25,0,0,1,.5,0v2A.25048.25048,0,0,1,279.9995,112.25Z"/><path class="cls-1" d="M399.9995,112.25a.25048.25048,0,0,1-.25-.25v-2a.25.25,0,0,1,.5,0v2A.25048.25048,0,0,1,399.9995,112.25Z"/><path class="cls-1" d="M459.9995,112.25a.25048.25048,0,0,1-.25-.25v-2a.25.25,0,0,1,.5,0v2A.25048.25048,0,0,1,459.9995,112.25Z"/><path class="cls-1" d="M99.9995,112.25a.25048.25048,0,0,1-.25-.25v-2a.25.25,0,0,1,.5,0v2A.25048.25048,0,0,1,99.9995,112.25Z"/><path class="cls-1" d="M219.9995,112.25a.25048.25048,0,0,1-.25-.25v-2a.25.25,0,0,1,.5,0v2A.25048.25048,0,0,1,219.9995,112.25Z"/><path class="cls-1" d="M339.9995,112.25a.25048.25048,0,0,1-.25-.25v-2a.25.25,0,0,1,.5,0v2A.25048.25048,0,0,1,339.9995,112.25Z"/><path class="cls-1" d="M39.9995,60.25h-2a.25.25,0,0,1,0-.5h2a.25.25,0,0,1,0,.5Z"/><path class="cls-1" d="M39.9995,35.25h-2a.25.25,0,0,1,0-.5h2a.25.25,0,0,1,0,.5Z"/><path class="cls-1" d="M39.9995,85.25h-2a.25.25,0,0,1,0-.5h2a.25.25,0,0,1,0,.5Z"/><rect class="cls-3" width="540" height="140"/><rect class="cls-3" x="189.9141" y="17.5" width="160.1718" height="80"/><rect class="cls-2" x="227.5859" y="39.5" width="85" height="38" rx="2"/><path class="cls-4" d="M310.58544,77.75h-81a2.25308,2.25308,0,0,1-2.25-2.25v-34a2.25309,2.25309,0,0,1,2.25-2.25h81a2.25309,2.25309,0,0,1,2.25,2.25v34A2.25309,2.25309,0,0,1,310.58544,77.75Zm-81-38a1.75212,1.75212,0,0,0-1.75,1.75v34a1.75211,1.75211,0,0,0,1.75,1.75h81a1.75212,1.75212,0,0,0,1.75-1.75v-34a1.75213,1.75213,0,0,0-1.75-1.75Z"/><path class="cls-5" d="M232.58544,62.75h-1a.25.25,0,0,1,0-.5h1a.25.25,0,0,1,0,.5Z"/><path class="cls-5" d="M232.58544,57.75h-1a.25.25,0,0,1,0-.5h1a.25.25,0,0,1,0,.5Z"/><path class="cls-5" d="M232.58544,67.75h-1a.25.25,0,0,1,0-.5h1a.25.25,0,0,1,0,.5Z"/><path class="cls-5" d="M237.58544,73.75a.25048.25048,0,0,1-.25-.25v-1a.25.25,0,0,1,.5,0v1A.25048.25048,0,0,1,237.58544,73.75Z"/><path class="cls-5" d="M252.58544,73.75a.25048.25048,0,0,1-.25-.25v-1a.25.25,0,0,1,.5,0v1A.25048.25048,0,0,1,252.58544,73.75Z"/><path class="cls-5" d="M242.58544,73.75a.25048.25048,0,0,1-.25-.25v-1a.25.25,0,0,1,.5,0v1A.25048.25048,0,0,1,242.58544,73.75Z"/><circle class="cls-1" cx="307.5859" cy="57.5" r="1"/><path class="cls-4" d="M312.58544,43.75h-85a.25.25,0,0,1,0-.5h85a.25.25,0,0,1,0,.5Z"/><path class="cls-4" d="M230.83544,42.5a1,1,0,1,1,1-1A1.00067,1.00067,0,0,1,230.83544,42.5Zm0-1.5a.5.5,0,1,0,.5.5A.501.501,0,0,0,230.83544,41Z"/><path class="cls-4" d="M233.83544,42.5a1,1,0,1,1,1-1A1.00067,1.00067,0,0,1,233.83544,42.5Zm0-1.5a.5.5,0,1,0,.5.5A.501.501,0,0,0,233.83544,41Z"/><path class="cls-4" d="M236.83544,42.5a1,1,0,1,1,1-1A1.00067,1.00067,0,0,1,236.83544,42.5Zm0-1.5a.5.5,0,1,0,.5.5A.501.501,0,0,0,236.83544,41Z"/><path class="cls-1" d="M283.39305,66.7627c-2.23242,0-3.27832-3.57227-4.124-6.46a19.96523,19.96523,0,0,0-.9082-2.69336l-.083-.17188c-.752-1.54687-3.03613-6.26171-4.6084-5.69921-1.55664.55371-1.89941,3.88281-2.23144,7.10253-.375,3.63868-.71289,7.06739-2.87207,6.90821-1.36036-.10352-1.71582-2.49805-2.05957-4.81446-.2002-1.34375-.47364-3.18457-.9209-3.18457-.59668,0-1.01758,1.24024-1.38965,2.334-.40527,1.19238-.78711,2.31738-1.50684,2.64355a1.01934,1.01934,0,0,1-.93261.002c-.96582-.50489-1.36133-2.6543-1.81836-5.14356-.49512-2.69531-1.05664-5.75-2.36914-5.83691-.02539-.001-.04981-.002-.0752-.002-1.9209,0-3.61328,4.82325-4.43164,7.15625-.08887.25293-.169.48243-.24121.68165-.78516,2.17675-2.83692,7.16894-5.13184,7.16894-.041,0-.082-.001-.123-.00488-1.57911-.124-2.1377-2.58106-2.7295-5.18164-.52539-2.30664-1.06738-4.69239-2.27734-4.81836a.66321.66321,0,0,0-.07617-.00391c-.90528,0-1.61914,1.68262-2.30957,3.3125-.7334,1.72949-1.42578,3.36231-2.51758,3.68262-1.35449.40039-4.81543-1.7793-5.20508-2.03027a.24949.24949,0,0,1,.26953-.41993c1.00391.64356,3.82617,2.2627,4.79492,1.96973.86426-.25293,1.542-1.85156,2.19727-3.39746.81836-1.92676,1.56738-3.76563,2.89941-3.61133,1.56543.16406,2.12207,2.61231,2.71192,5.20508.52539,2.31055,1.06836,4.69922,2.28125,4.79492,1.60937.11719,3.5791-3.60156,4.74512-6.83594.07226-.19824.15234-.42675.24023-.67675.92188-2.62989,2.62793-7.49122,4.90625-7.49122.03516,0,.07031.001.10547.00391,1.70117.11231,2.27441,3.22949,2.82812,6.24512.39746,2.16211.80762,4.39844,1.55762,4.79a.51757.51757,0,0,0,.49414-.01367c.52246-.23633.9043-1.35938,1.24024-2.34961.46679-1.374.9082-2.67286,1.86328-2.67286.8789,0,1.11523,1.59375,1.415,3.61133.28613,1.92285.6416,4.31543,1.60449,4.38965,1.67969.12305,2.002-3.22266,2.335-6.46094.34863-3.374.708-6.86328,2.56152-7.52246,1.74317-.63086,3.627,2.65723,5.22559,5.95215l.083.1709a19.87177,19.87177,0,0,1,.93945,2.77148c.82031,2.80078,1.80859,6.29786,3.81055,6.0918,1.21582-.12109,1.76172-2.499,2.28906-4.79785.59082-2.57422,1.14844-5.00586,2.70508-5.20117.95312-.10547,1.85254.95215,2.80078,2.084.77539.92676,1.57715,1.88379,2.24023,1.91113.01172.001.02344.001.03418.001a5.31972,5.31972,0,0,0,2.10449-.97949c1.0586-.66016,2.15333-1.3457,2.9502-1.001.999.42871,1.6748,1.97266,2.39063,3.60645.72656,1.66015,1.47753,3.376,2.42871,3.376.0205,0,.042-.001.0625-.002,1.67773-.13184,3.29394-5.67969,3.77539-7.80664a.24513.24513,0,0,1,.2998-.18848.25134.25134,0,0,1,.18848.29883c-.18555.81934-1.87891,8.01074-4.22461,8.19434-1.30762.09765-2.1377-1.72852-2.98828-3.67188-.64551-1.47265-1.31153-2.99609-2.12989-3.34765-.55566-.23828-1.583.40136-2.48828.96582A4.8491,4.8491,0,0,1,293.5747,60.75c-.88379-.03613-1.71875-1.03418-2.60352-2.08984-.82031-.97949-1.66992-1.99316-2.35449-1.90918-1.21.15137-1.75391,2.52344-2.28028,4.81738-.59375,2.585-1.15332,5.02637-2.72656,5.1836C283.53661,66.75879,283.46434,66.7627,283.39305,66.7627Z"/><path class="cls-5" d="M247.58544,73.75a.25048.25048,0,0,1-.25-.25v-1a.25.25,0,0,1,.5,0v1A.25048.25048,0,0,1,247.58544,73.75Z"/><path class="cls-5" d="M257.58544,73.75a.25048.25048,0,0,1-.25-.25v-1a.25.25,0,0,1,.5,0v1A.25048.25048,0,0,1,257.58544,73.75Z"/><path class="cls-5" d="M262.58544,73.75a.25048.25048,0,0,1-.25-.25v-1a.25.25,0,0,1,.5,0v1A.25048.25048,0,0,1,262.58544,73.75Z"/><path class="cls-1" d="M269.896,38.4336a.24837.24837,0,0,1-.17675-.07324l-1-1a.25.25,0,0,1,.35351-.35352l1,1a.25.25,0,0,1-.17676.42676Z"/><path class="cls-1" d="M271.896,38.4336a.24837.24837,0,0,1-.17675-.07324l-2-2a.25.25,0,0,1,.35351-.35352l2,2a.25.25,0,0,1-.17676.42676Z"/><path class="cls-6" d="M268.21821,40.57134l-4.94975,4.94975c-.0781.0781-.29971-.01687-.495-.21213s-.29024-.41687-.21214-.495l4.94975-4.94975"/><path class="cls-4" d="M263.19384,45.79786a.9119.9119,0,0,1-.59668-.3125.93121.93121,0,0,1-.31348-.59571.35078.35078,0,0,1,.10156-.25293l4.94922-4.94922a.25.25,0,0,1,.35352.35352l-4.88868,4.88867a.8881.8881,0,0,0,.35352.35352l4.88867-4.88867a.25.25,0,0,1,.35352.35351l-4.9502,4.9502A.34314.34314,0,0,1,263.19384,45.79786Zm-.45411-.80762-.002.001Z"/><path class="cls-6" d="M267.86455,40.21779a4,4,0,1,0,0-5.65686A4.0002,4.0002,0,0,0,267.86455,40.21779Zm.70727-4.94977a2.99991,2.99991,0,1,1,0,4.24267A2.99975,2.99975,0,0,1,268.57182,35.268Z"/><path class="cls-4" d="M270.69286,41.6377a4.24854,4.24854,0,1,1,3.00586-1.24316A4.23821,4.23821,0,0,1,270.69286,41.6377Zm.001-7.99609a3.74756,3.74756,0,1,0,2.65136,1.0957A3.741,3.741,0,0,0,270.69384,33.64161Zm-.001,6.998a3.25034,3.25034,0,0,1-2.29785-5.54883h0a3.25,3.25,0,1,1,2.29785,5.54883Zm-1.94434-5.19531a2.75005,2.75005,0,1,0,3.88868,0,2.75373,2.75373,0,0,0-3.88868,0Z"/><path class="cls-7" d="M262.63877,31.29691c-.76485,2.31082-4.20419,4.17067-8.77611,3.25991a11.46453,11.46453,0,0,1-6.08556-4.02549s-7.99224.91825-8.21314-.43625c-.24331-1.49187,9.68246-2.7663,15.30946-2.0931,2.735.32721,4.35809,1.33837,5.65606.56654a10.48707,10.48707,0,0,1,4.12111-1.29527c1.63279-.05831,3.06381,1.77548,2.53666,2.47834-.6123.81639-1.70862.09525-2.53666.23326A2.71993,2.71993,0,0,0,262.63877,31.29691Z"/><path class="cls-4" d="M256.2202,35.04786a12.30941,12.30941,0,0,1-2.40625-.2461,11.74791,11.74791,0,0,1-6.15527-4.00586c-2.085.23242-8.10645.7793-8.3418-.66113a.67779.67779,0,0,1,.21582-.58789c1.3418-1.40137,10.10352-2.42676,15.37012-1.793a20.67522,20.67522,0,0,1,2.58691.50879c1.25879.30957,2.1709.53125,2.91211.09082a10.84821,10.84821,0,0,1,4.24024-1.33008,3.14412,3.14412,0,0,1,2.7041,1.64063,1.15693,1.15693,0,0,1,.041,1.23828c-.48438.64648-1.19239.51758-1.82227.40039a2.6937,2.6937,0,0,0-.873-.07129,2.49515,2.49515,0,0,0-1.81543,1.14355v.001C262.22606,33.33789,259.77,35.04786,256.2202,35.04786Zm-8.44336-4.76661a.248.248,0,0,1,.20606.10938,11.296,11.296,0,0,0,5.92871,3.9209c4.376.87207,7.75781-.88574,8.49023-3.09375v.001a2.958,2.958,0,0,1,2.208-1.48046,3.04309,3.04309,0,0,1,1.0459.07324c.64062.11719,1.04687.1709,1.33105-.21.10547-.13965.07422-.4043-.084-.70606a2.57606,2.57606,0,0,0-2.24316-1.37207,10.235,10.235,0,0,0-4.002,1.25977c-.91894.54785-1.96289.29-3.28711-.03418a20.32,20.32,0,0,0-2.52636-.499c-5.29688-.63378-13.83008.47364-14.9502,1.64258-.043.04492-.0918.10938-.083.16211.1084.66992,4.19141.6582,7.9375.22852Zm14.86231,1.01563h0Z"/><path class="cls-8" d="M267.137,29.92961c.13179.24.4704,1.25209.205,1.403s-.78554-1.0382-.78554-1.0382"/><path class="cls-4" d="M255.82177,32.76172a5.3351,5.3351,0,0,1-.90235-.0791,5.07709,5.07709,0,0,1-3.57129-2.2793.25029.25029,0,0,1,.44336-.23242,4.62613,4.62613,0,0,0,3.21289,2.01953,3.77775,3.77775,0,0,0,3.28125-.84375.25016.25016,0,0,1,.33985.36719A4.042,4.042,0,0,1,255.82177,32.76172Z"/><path class="cls-4" d="M252.89989,39.10059a.24948.24948,0,0,1-.16992-.06641.25241.25241,0,0,1-.08008-.19238l.15039-4.41406a.25661.25661,0,0,1,.25879-.24121.25.25,0,0,1,.24121.25879l-.14062,4.126,1.11816-.12109a.25042.25042,0,0,1,.05273.498l-1.40429.15136Z"/><path class="cls-4" d="M255.78466,38.95118a.25562.25562,0,0,1-.16016-.05762.25237.25237,0,0,1-.08984-.18359l-.14258-3.92188a.25.25,0,0,1,.24121-.25879.2626.2626,0,0,1,.25879.24121l.13183,3.64258.96485-.1416a.2497.2497,0,1,1,.07226.49414l-1.24023.18262A.2258.2258,0,0,1,255.78466,38.95118Z"/><path class="cls-5" d="M277.58544,73.75a.25048.25048,0,0,1-.25-.25v-1a.25.25,0,0,1,.5,0v1A.25048.25048,0,0,1,277.58544,73.75Z"/><path class="cls-5" d="M267.58544,73.75a.25048.25048,0,0,1-.25-.25v-1a.25.25,0,0,1,.5,0v1A.25048.25048,0,0,1,267.58544,73.75Z"/><path class="cls-5" d="M272.58544,73.75a.25048.25048,0,0,1-.25-.25v-1a.25.25,0,0,1,.5,0v1A.25048.25048,0,0,1,272.58544,73.75Z"/><path class="cls-5" d="M307.58544,72.75h-75a.25048.25048,0,0,1-.25-.25v-25a.25.25,0,0,1,.5,0V72.25h74.75a.25.25,0,0,1,0,.5Z"/><path class="cls-5" d="M282.58544,73.75a.25048.25048,0,0,1-.25-.25v-1a.25.25,0,0,1,.5,0v1A.25048.25048,0,0,1,282.58544,73.75Z"/><path class="cls-5" d="M287.58544,73.75a.25048.25048,0,0,1-.25-.25v-1a.25.25,0,0,1,.5,0v1A.25048.25048,0,0,1,287.58544,73.75Z"/><path class="cls-5" d="M297.58544,73.75a.25048.25048,0,0,1-.25-.25v-1a.25.25,0,0,1,.5,0v1A.25048.25048,0,0,1,297.58544,73.75Z"/><path class="cls-5" d="M292.58544,73.75a.25048.25048,0,0,1-.25-.25v-1a.25.25,0,0,1,.5,0v1A.25048.25048,0,0,1,292.58544,73.75Z"/><path class="cls-5" d="M302.58544,73.75a.25048.25048,0,0,1-.25-.25v-1a.25.25,0,0,1,.5,0v1A.25048.25048,0,0,1,302.58544,73.75Z"/><path class="cls-5" d="M232.58544,52.75h-1a.25.25,0,0,1,0-.5h1a.25.25,0,0,1,0,.5Z"/><path class="cls-9" d="M284.92755,56.21985c0-.48975-.42969-.79932-1.07959-.79932a1.693,1.693,0,0,0-1.44922.73926l-1.209-.70947a3.18478,3.18478,0,0,1,2.82812-1.33936c1.49951,0,2.53857.66992,2.53857,1.84912,0,1.59913-1.67871,1.77881-1.67871,2.83839h-1.50927C283.36847,57.39905,284.92755,57.08948,284.92755,56.21985Zm-1.75928,4.17774a.96221.96221,0,0,1,1.91894,0,.96083.96083,0,0,1-1.91894,0Z"/><path class="cls-10" d="M288.81981,67.2002a.29006.29006,0,0,1-.041-.00293c-1.64453-.27441-3.53028-2.459-3.96778-3.51074a.24955.24955,0,0,1,.46094-.19141c.40039.96,2.19141,2.97559,3.58887,3.208a.2502.2502,0,0,1-.041.49707Z"/><path class="cls-11" d="M301.33406,74.59788c-2.75222-.11324-4.49935.45561-5.554-.62519-.81275-.8329-2.27176-5.90179-3.8776-5.12364-1.50239.728,1.27468,6.4885,1.45089,7.56047.39483,2.40187,3.01345,4.80224,7.67519,4.81363a17.91213,17.91213,0,0,0,6.40678-1.56106s6.995-3.63519,6.27785-4.80529c-.77705-1.26781-7.03077,1.72861-7.03077,1.72861A9.897,9.897,0,0,0,301.33406,74.59788Z"/><path class="cls-4" d="M301.05223,81.47364h-.02441c-4.876-.0127-7.52441-2.61328-7.92187-5.02344a13.55255,13.55255,0,0,0-.53711-1.58594c-1.10059-2.95312-1.98829-5.65234-.77539-6.24023a.99173.99173,0,0,1,.80078-.043c.96484.3418,1.75976,2.041,2.46191,3.541a8.56613,8.56613,0,0,0,.90234,1.67579c.65235.66992,1.63086.63183,3.09864.57128.66992-.02636,1.42773-.05761,2.28808-.02148a10.09012,10.09012,0,0,1,5.36914,1.94531c1.33985-.63281,6.39453-2.90332,7.21192-1.56738a.64206.64206,0,0,1,.05957.52344c-.40821,1.46679-5.81934,4.31543-6.43555,4.63476-.12891.04981-.26074.10254-.41992.167A16.83391,16.83391,0,0,1,301.05223,81.47364Zm-8.81054-12.45606a.52177.52177,0,0,0-.22949.05567c-.90528.43847.39843,3.93554,1.02539,5.61621a13.09843,13.09843,0,0,1,.5625,1.67968c.36328,2.209,2.84375,4.59278,7.42968,4.6045h.02246a16.36211,16.36211,0,0,0,5.89161-1.3877c.166-.0664.30175-.12012.40429-.1582,2.22266-1.15723,5.89258-3.36621,6.15528-4.3125.02343-.084.0039-.11621-.00293-.12793-.40528-.665-3.79981.42871-6.71,1.82324a.25128.25128,0,0,1-.26661-.03223,9.72777,9.72777,0,0,0-5.20019-1.93066c-.83887-.03613-1.58692-.00391-2.2461.02148-1.54589.05958-2.66894.10645-3.47656-.72167a8.0689,8.0689,0,0,1-.998-1.81446c-.59375-1.26953-1.40821-3.00879-2.17579-3.28125A.5584.5584,0,0,0,292.24169,69.01758Z"/><path class="cls-8" d="M291.69181,69.05788c-.283-.103-1.4874-.17444-1.607.13935s1.3077.5529,1.3077.5529"/><path class="cls-4" d="M301.564,79.17579c-.18847,0-.37988-.00879-.57226-.02637a4.63529,4.63529,0,0,1-3.53223-1.84668.25.25,0,0,1,.41992-.27149,4.14045,4.14045,0,0,0,3.15723,1.62012,4.33689,4.33689,0,0,0,3.49609-1.03223.25011.25011,0,0,1,.36524.3418A4.5901,4.5901,0,0,1,301.564,79.17579Z"/><path class="cls-4" d="M297.49071,85.96875a.21975.21975,0,0,1-.043-.0039l-1.39844-.24121a.24959.24959,0,0,1-.20312-.28907.23985.23985,0,0,1,.28906-.20312l1.14746.19824.7002-4.45508a.2456.2456,0,0,1,.28613-.208.25054.25054,0,0,1,.208.28613l-.73926,4.70508a.25069.25069,0,0,1-.24707.21093Z"/><path class="cls-4" d="M301.62352,86.16114h-.001l-1.29981-.00293a.25.25,0,0,1,.001-.5h.001l1.05957.002.19824-4.417a.26729.26729,0,0,1,.26074-.23926.25067.25067,0,0,1,.23926.26074l-.209,4.65723A.25034.25034,0,0,1,301.62352,86.16114Z"/></g></g></svg>