<svg xmlns="http://www.w3.org/2000/svg" width="180" height="140" viewBox="0 0 180 140"><defs><style>.cls-1{fill:none;}.cls-2{fill:#ddd;}.cls-3{fill:#fff;}.cls-4{opacity:0.5;}.cls-5,.cls-9{fill:#053437;}.cls-6{fill:#33d67b;}.cls-7{fill:#f7ce05;}.cls-12,.cls-7,.cls-8,.cls-9{fill-rule:evenodd;}.cls-8{fill:#caecf9;}.cls-10{fill:#553bf2;}.cls-11{fill:gray;}.cls-12{fill:#f0403d;}</style></defs><g id="Layer_2" data-name="Layer 2"><g id="Layer_2-2" data-name="Layer 2"><rect class="cls-1" width="180" height="140"/><path class="cls-2" d="M45.10742,105.50075l-.12109-.001c-.22168-.00391-.44824-.01758-.67383-.042a.5.5,0,0,1-.44434-.54981.50722.50722,0,0,1,.54981-.44434q.29444.03077.59082.03614a9.31635,9.31635,0,0,0,1.23926-.10352.50656.50656,0,0,1,.583.39942.5.5,0,0,1-.39843.583A7.18577,7.18577,0,0,1,45.10742,105.50075Zm-4.44433-1.38964a.50556.50556,0,0,1-.2627-.07422,15.06214,15.06214,0,0,1-1.6709-1.2041.50015.50015,0,0,1,.63672-.77149,14.00047,14.00047,0,0,0,1.55957,1.124.50008.50008,0,0,1-.26269.92579Zm9.17382-.48243a.5.5,0,0,1-.32519-.87988,11.83544,11.83544,0,0,0,1.33984-1.3623.49965.49965,0,1,1,.76367.64453,12.80716,12.80716,0,0,1-1.45312,1.47754A.49729.49729,0,0,1,49.83691,103.62868Zm-13.60937-3.50976a.49934.49934,0,0,1-.38086-.17578q-.64014-.75294-1.26758-1.58789a.5.5,0,1,1,.79883-.60157q.60938.81006,1.23047,1.541a.5.5,0,0,1-.38086.82422Zm17.2373-1.2207a.50021.50021,0,0,1-.43652-.74317q.46436-.835.90332-1.75391a.50056.50056,0,1,1,.90234.4336q-.45409.94335-.93261,1.80664A.49913.49913,0,0,1,53.46484,98.89822ZM32.71777,95.24587a.50071.50071,0,0,1-.42382-.23437q-.52736-.83935-1.044-1.72754a.49979.49979,0,1,1,.86328-.50391q.50831.87159,1.02832,1.7002a.49991.49991,0,0,1-.42383.76562Zm-2.96289-5.22949a.49912.49912,0,0,1-.44433-.27149q-.457-.88476-.90528-1.79687a.50051.50051,0,0,1,.89844-.44141q.44238.90236.89551,1.78125a.49845.49845,0,0,1-.21582.67286A.49322.49322,0,0,1,29.75488,90.01638Zm28.19727-2.251a.51587.51587,0,0,1-.15235-.02343.50061.50061,0,0,1-.32421-.62891q.30321-.94337.60058-1.90625a.49979.49979,0,1,1,.95508.29492q-.29883.96827-.60254,1.916A.5001.5001,0,0,1,57.95215,87.7654Zm-30.79883-3.167a.50012.50012,0,0,1-.45605-.2959q-.41016-.91552-.80957-1.84082a.5.5,0,1,1,.918-.39648q.397.91992.80372,1.8291a.499.499,0,0,1-.252.66016A.48974.48974,0,0,1,27.15332,84.59841Zm77.68652-.10937c-.01367,0-.02636-.001-.04-.002a6.58092,6.58092,0,0,1-2.07031-.52636.5001.5001,0,0,1,.39258-.91993,5.59527,5.59527,0,0,0,1.75586.4502.4998.4998,0,0,1-.03809.99805Zm3.7959-.90918a.5.5,0,0,1-.249-.9336,9.52563,9.52563,0,0,0,1.52734-1.10937.49958.49958,0,0,1,.66016.75,10.47285,10.47285,0,0,1-1.68945,1.22656A.50131.50131,0,0,1,108.63574,83.57986ZM59.707,82.01443a.50067.50067,0,0,1-.47949-.64063l.56055-1.918a.50035.50035,0,1,1,.96093.2793l-.5625,1.91992A.49829.49829,0,0,1,59.707,82.01443Zm39.96973-.292a.49719.49719,0,0,1-.34668-.13964c-.458-.43946-.93067-.94043-1.4043-1.48731a.49986.49986,0,1,1,.75586-.6543c.4541.52344.90527,1.002,1.3418,1.4209a.5.5,0,0,1-.34668.86035ZM112.87012,79.407a.5.5,0,0,1-.40723-.79c.36719-.51758.72852-1.06739,1.084-1.64356a.5003.5003,0,1,1,.85156.52539q-.55078.89355-1.1211,1.69824A.498.498,0,0,1,112.87012,79.407Zm-88.06153-.34668a.49987.49987,0,0,1-.46386-.31445q-.375-.93457-.73731-1.87109a.49963.49963,0,1,1,.93164-.36133q.36182.93018.7334,1.86133a.5005.5005,0,0,1-.46387.68554ZM95.86816,77.0906a.50083.50083,0,0,1-.41113-.21485c-.376-.542-.751-1.10253-1.12305-1.67675a.49976.49976,0,0,1,.8379-.54493q.55224.84961,1.10742,1.65137a.49989.49989,0,0,1-.41114.78516Zm-34.4707-.84571a.50685.50685,0,0,1-.1416-.0205.49942.49942,0,0,1-.33789-.6211q.28565-.96533.57422-1.92285a.49987.49987,0,0,1,.957.28906q-.28857.95363-.57227,1.917A.50032.50032,0,0,1,61.39746,76.24489Zm54.5166-2.01074a.5.5,0,0,1-.44629-.72558q.44092-.87159.874-1.78809a.50018.50018,0,1,1,.90429.42774q-.43945.92724-.88574,1.81152A.49977.49977,0,0,1,115.91406,74.23415Zm-93.25293-.79394a.50029.50029,0,0,1-.46972-.3291q-.34718-.94923-.67969-1.88965a.50037.50037,0,0,1,.94336-.334q.33105.93458.67578,1.88184a.50024.50024,0,0,1-.46973.6709Zm69.97949-1.418a.50074.50074,0,0,1-.42968-.24317q-.51123-.85839-1.02149-1.72949a.50029.50029,0,1,1,.86328-.50586q.50683.86719,1.01661,1.72168a.499.499,0,0,1-.42872.75684ZM63.16406,70.49782a.5.5,0,0,1-.47558-.65429q.31347-.96534.63476-1.90918a.50061.50061,0,1,1,.94727.32422q-.3208.93456-.63086,1.89355A.50052.50052,0,0,1,63.16406,70.49782Zm55.27539-1.71777a.49083.49083,0,0,1-.19824-.041.49953.49953,0,0,1-.26074-.65723q.39258-.90968.7832-1.83887a.49985.49985,0,0,1,.92188.38672q-.39258.9331-.78711,1.84863A.4999.4999,0,0,1,118.43945,68.78005ZM20.67676,67.76247a.49979.49979,0,0,1-.47364-.34082q-.32518-.96387-.63281-1.90625a.50029.50029,0,1,1,.95117-.31054q.30617.936.62891,1.89843a.50055.50055,0,0,1-.47363.65918Zm68.93066-.92871a.49925.49925,0,0,1-.43262-.249q-.50537-.87012-1.01171-1.72559a.50043.50043,0,1,1,.86132-.50976q.50684.85839,1.01563,1.7334a.49991.49991,0,0,1-.43262.751Zm-24.43359-2a.47815.47815,0,0,1-.18262-.03515.49783.49783,0,0,1-.28223-.64747q.37647-.958.76954-1.86718a.5.5,0,0,1,.918.39648q-.38671.89355-.75781,1.83594A.49907.49907,0,0,1,65.17383,64.83376Zm55.58984-1.59765a.48738.48738,0,0,1-.19043-.03809.49906.49906,0,0,1-.27148-.65234l.76562-1.85645a.5.5,0,1,1,.92383.38281l-.76562,1.8545A.49862.49862,0,0,1,120.76367,63.23611ZM18.82812,62.03884a.50007.50007,0,0,1-.47753-.35156q-.3047-.98584-.58887-1.92188a.49987.49987,0,0,1,.957-.28906q.28272.93311.58691,1.91406a.50014.50014,0,0,1-.3291.626A.49381.49381,0,0,1,18.82812,62.03884Zm67.68067-.35645a.50063.50063,0,0,1-.42285-.23242Q85.54542,60.59451,85,59.784a.49945.49945,0,0,1,.82812-.5586q.55373.82032,1.10352,1.68946a.49981.49981,0,0,1-.42285.76757Zm76.59375-.31738a.49941.49941,0,0,1-.37109-.165c-.39649-.43847-.85059-.93261-1.35157-1.47168a.50027.50027,0,0,1,.73242-.68164c.50489.543.96094,1.041,1.36133,1.4834a.5.5,0,0,1-.37109.835Zm-95.41113-1.9834a.50648.50648,0,0,1-.24317-.0625.50131.50131,0,0,1-.19433-.68066c.34765-.626.70214-1.21289,1.05371-1.74414a.49972.49972,0,0,1,.834.55078c-.33691.51074-.67773,1.0752-1.01269,1.67969A.50065.50065,0,0,1,67.69141,59.38161Zm55.39453-1.69531a.4908.4908,0,0,1-.19824-.041.50037.50037,0,0,1-.26075-.65723q.40137-.93018.80664-1.83984a.50014.50014,0,1,1,.91407.40625q-.40431.90527-.80274,1.83007A.49987.49987,0,0,1,123.08594,57.6863Zm35.8916-.70215a.50084.50084,0,0,1-.3584-.15136q-.67529-.69288-1.4043-1.4209a.49995.49995,0,1,1,.707-.707c.4873.48632.96.96484,1.41406,1.43066a.5.5,0,0,1-.3584.84863ZM83.0332,56.784a.49941.49941,0,0,1-.38574-.18164c-.44434-.53711-.88379-1.02735-1.30664-1.457a.5.5,0,1,1,.71289-.70118c.44238.44922.90234.96094,1.36524,1.52149a.5.5,0,0,1-.38575.81836Zm-65.92773-.5127a.50125.50125,0,0,1-.48047-.36133c-.19629-.68066-.37988-1.32812-.5498-1.93554a.5.5,0,1,1,.96289-.26953q.25488.90819.54785,1.92773a.50032.50032,0,0,1-.3418.61914A.4854.4854,0,0,1,17.10547,56.27126Zm54.15918-1.66992a.5.5,0,0,1-.33789-.86816,10.48887,10.48887,0,0,1,1.6582-1.25586.49993.49993,0,0,1,.51758.85547,9.56294,9.56294,0,0,0-1.5,1.13671A.49826.49826,0,0,1,71.26465,54.60134Zm83.42676-1.833a.49874.49874,0,0,1-.34278-.13574q-.72071-.67823-1.46484-1.35742a.49978.49978,0,1,1,.67383-.73828q.74853.68115,1.47656,1.36718a.5.5,0,0,1-.34277.86426ZM15.50293,50.46267a.49992.49992,0,0,1-.4834-.37305c-.332-1.26074-.50488-1.9707-.50488-1.9707a.49976.49976,0,1,1,.9707-.23828c.001.00293.17285.707.501,1.95508a.49943.49943,0,0,1-.35645.61035A.47232.47232,0,0,1,15.50293,50.46267ZM150.2041,48.76931a.49632.49632,0,0,1-.32129-.11719q-.769-.64453-1.543-1.25879a.5004.5004,0,0,1,.623-.7832c.52149.415,1.044.84082,1.5625,1.27637a.5.5,0,0,1-.32129.88281Zm-21.61523-1.74707a.4999.4999,0,0,1-.41309-.78223c.40332-.59082.8125-1.1416,1.21484-1.63867a.5.5,0,1,1,.77735.62891c-.38574.47656-.77832,1.00586-1.166,1.57422A.49957.49957,0,0,1,128.58887,47.02224Zm16.8457-1.9082a.49366.49366,0,0,1-.28223-.0879q-.83642-.57274-1.6582-1.08007a.49979.49979,0,0,1,.52344-.85157c.56054.34473,1.12793.71582,1.69922,1.10743a.4999.4999,0,0,1-.28223.91211Zm-12.78809-2.458a.5.5,0,0,1-.28613-.91016,9.00962,9.00962,0,0,1,1.84375-1,.49989.49989,0,0,1,.36524.93067,8.0075,8.0075,0,0,0-1.63672.88964A.50286.50286,0,0,1,132.64648,42.656Zm7.55957-.48047a.491.491,0,0,1-.18847-.03711,12.82437,12.82437,0,0,0-1.82617-.60254.50025.50025,0,0,1,.23437-.97266,13.96558,13.96558,0,0,1,1.96875.64942.49992.49992,0,0,1-.18848.96289Z"/><rect class="cls-3" x="10" y="42" width="5" height="74"/><g class="cls-4"><path class="cls-2" d="M15,60.25075H13a.25.25,0,0,1,0-.5h2a.25.25,0,0,1,0,.5Z"/><path class="cls-2" d="M15,35.25466H13a.25.25,0,0,1,0-.5h2a.25.25,0,0,1,0,.5Z"/><path class="cls-2" d="M15,85.25075H13a.25.25,0,0,1,0-.5h2a.25.25,0,0,1,0,.5Z"/><path class="cls-2" d="M75,112.24978a.25048.25048,0,0,1-.25-.25v-2a.25.25,0,1,1,.5,0v2A.25048.25048,0,0,1,75,112.24978Z"/><path class="cls-2" d="M45,112.24978a.25048.25048,0,0,1-.25-.25v-2a.25.25,0,1,1,.5,0v2A.25048.25048,0,0,1,45,112.24978Z"/><path class="cls-2" d="M134,112.24978a.25048.25048,0,0,1-.25-.25v-2a.25.25,0,1,1,.5,0v2A.25048.25048,0,0,1,134,112.24978Z"/><path class="cls-2" d="M105,112.24978a.25048.25048,0,0,1-.25-.25v-2a.25.25,0,1,1,.5,0v2A.25048.25048,0,0,1,105,112.24978Z"/></g><rect class="cls-3" x="11.99999" y="46" width="3" height="6"/><path class="cls-2" d="M165,110.24978H15a.25048.25048,0,0,1-.25-.25v-100a.25.25,0,0,1,.5,0v99.75H165a.25.25,0,0,1,0,.5Z"/><path class="cls-2" d="M15,60.24978H13a.25.25,0,0,1,0-.5h2a.25.25,0,0,1,0,.5Z"/><path class="cls-2" d="M15,35.25368H13a.25.25,0,0,1,0-.5h2a.25.25,0,0,1,0,.5Z"/><path class="cls-2" d="M15,85.24978H13a.25.25,0,0,1,0-.5h2a.25.25,0,0,1,0,.5Z"/><path class="cls-2" d="M75,112.24978a.25048.25048,0,0,1-.25-.25v-2a.25.25,0,1,1,.5,0v2A.25048.25048,0,0,1,75,112.24978Z"/><path class="cls-2" d="M45,112.24978a.25048.25048,0,0,1-.25-.25v-2a.25.25,0,1,1,.5,0v2A.25048.25048,0,0,1,45,112.24978Z"/><path class="cls-2" d="M134,112.24978a.25048.25048,0,0,1-.25-.25v-2a.25.25,0,1,1,.5,0v2A.25048.25048,0,0,1,134,112.24978Z"/><path class="cls-2" d="M105,112.24978a.25048.25048,0,0,1-.25-.25v-2a.25.25,0,1,1,.5,0v2A.25048.25048,0,0,1,105,112.24978Z"/><rect class="cls-1" x="9.9141" y="30" width="160.1718" height="80"/><rect class="cls-3" x="47.5859" y="52" width="85" height="38" rx="2"/><path class="cls-5" d="M130.58594,90.24978h-81a2.25309,2.25309,0,0,1-2.25-2.25v-34a2.25308,2.25308,0,0,1,2.25-2.25h81a2.25309,2.25309,0,0,1,2.25,2.25v34A2.25309,2.25309,0,0,1,130.58594,90.24978Zm-81-38a1.75211,1.75211,0,0,0-1.75,1.75v34a1.75212,1.75212,0,0,0,1.75,1.75h81a1.75213,1.75213,0,0,0,1.75-1.75v-34a1.75212,1.75212,0,0,0-1.75-1.75Z"/><path class="cls-6" d="M52.58594,75.24978h-1a.25.25,0,0,1,0-.5h1a.25.25,0,1,1,0,.5Z"/><path class="cls-6" d="M52.58594,70.24978h-1a.25.25,0,0,1,0-.5h1a.25.25,0,1,1,0,.5Z"/><path class="cls-6" d="M52.58594,80.24978h-1a.25.25,0,0,1,0-.5h1a.25.25,0,1,1,0,.5Z"/><path class="cls-6" d="M57.58594,86.24978a.25048.25048,0,0,1-.25-.25v-1a.25.25,0,0,1,.5,0v1A.25049.25049,0,0,1,57.58594,86.24978Z"/><path class="cls-6" d="M72.58594,86.24978a.25048.25048,0,0,1-.25-.25v-1a.25.25,0,1,1,.5,0v1A.25049.25049,0,0,1,72.58594,86.24978Z"/><path class="cls-6" d="M62.58594,86.24978a.25048.25048,0,0,1-.25-.25v-1a.25.25,0,0,1,.5,0v1A.25049.25049,0,0,1,62.58594,86.24978Z"/><circle class="cls-2" cx="127.5859" cy="70" r="1"/><path class="cls-5" d="M132.58594,56.24978h-85a.25.25,0,0,1,0-.5h85a.25.25,0,0,1,0,.5Z"/><path class="cls-5" d="M50.83594,54.99978a1,1,0,1,1,1-1A1.00067,1.00067,0,0,1,50.83594,54.99978Zm0-1.5a.5.5,0,1,0,.5.5A.501.501,0,0,0,50.83594,53.49978Z"/><path class="cls-5" d="M53.83594,54.99978a1,1,0,1,1,1-1A1.00067,1.00067,0,0,1,53.83594,54.99978Zm0-1.5a.5.5,0,1,0,.5.5A.501.501,0,0,0,53.83594,53.49978Z"/><path class="cls-5" d="M56.83594,54.99978a1,1,0,1,1,1-1A1.00067,1.00067,0,0,1,56.83594,54.99978Zm0-1.5a.5.5,0,1,0,.5.5A.501.501,0,0,0,56.83594,53.49978Z"/><path class="cls-2" d="M103.39355,79.26247c-2.23339,0-3.27832-3.57226-4.124-6.46a19.96572,19.96572,0,0,0-.9082-2.69336l-.08594-.17773c-.752-1.54688-3.04394-6.24805-4.60547-5.69336-1.55762.55371-1.90039,3.88379-2.23242,7.10351-.36523,3.55274-.71191,6.91309-2.72559,6.91309-.04785,0-.0957-.002-.1455-.00586-1.36133-.10351-1.7168-2.499-2.06055-4.81543-.2002-1.34375-.47363-3.18359-.91992-3.18359-.59766,0-1.01856,1.24023-1.39063,2.335-.40429,1.1914-.78613,2.3164-1.50586,2.64258a1.01937,1.01937,0,0,1-.93261.00195c-.96582-.50488-1.36133-2.65527-1.81836-5.14453-.49512-2.69434-1.05664-5.749-2.36914-5.83594-1.94532-.12207-3.67872,4.792-4.50782,7.15723-.08886.251-.16894.47949-.24023.67871-.78613,2.17676-2.83887,7.16894-5.13184,7.16894-.041,0-.082-.001-.123-.00488-1.57911-.124-2.1377-2.58105-2.7295-5.18164-.52539-2.30664-1.06738-4.69238-2.27734-4.81836-.92578-.10937-1.67578,1.63379-2.38672,3.30859-.7334,1.7295-1.42578,3.36231-2.5166,3.68262-1.36328.39551-4.81641-1.78027-5.20508-2.03027a.24949.24949,0,0,1,.26953-.41992c1.00489.64355,3.81934,2.26465,4.79492,1.96972.86329-.25293,1.541-1.85156,2.19727-3.39648.78809-1.85938,1.53418-3.61914,2.76172-3.61914a1.32676,1.32676,0,0,1,.13769.00683c1.56543.16407,2.12208,2.61231,2.71192,5.20508.52539,2.31055,1.06836,4.69922,2.28125,4.79492,1.65332.10743,3.57812-3.60253,4.74512-6.83593.07129-.19727.15136-.42481.23828-.67383.92285-2.63086,2.62793-7.49414,4.9082-7.49414.03516,0,.07031.001.10547.0039,1.70019.11231,2.27344,3.2295,2.82715,6.24414.39746,2.16211.80859,4.39942,1.55859,4.791a.51754.51754,0,0,0,.49414-.01367c.52246-.23633.90332-1.3584,1.24024-2.34863.46679-1.375.9082-2.67383,1.86328-2.67383.87793,0,1.11426,1.59277,1.41406,3.61035.28613,1.92285.6416,4.31641,1.60547,4.39062.03027.002.06055.00293.08984.00293,1.5791,0,1.918-3.28418,2.24512-6.46289.34766-3.375.707-6.86425,2.56152-7.52343,1.76172-.63184,3.625,2.65625,5.22266,5.94628l.08594.17676a19.80373,19.80373,0,0,1,.93847,2.77149c.82032,2.80273,1.84278,6.293,3.81153,6.09179,1.21582-.12109,1.76074-2.498,2.28808-4.79687.59082-2.57422,1.14942-5.00684,2.70606-5.20215.96386-.09961,1.85156.95215,2.80078,2.084.77539.92676,1.57715,1.88379,2.24023,1.91114.01172.001.02344.001.03418.001a5.3077,5.3077,0,0,0,2.10254-.97949c1.05957-.65918,2.15723-1.34668,2.95215-1.001.999.42871,1.67481,1.97168,2.38965,3.60546.74316,1.69629,1.5293,3.43848,2.49219,3.375,1.67773-.13183,3.29394-5.67968,3.77539-7.80664a.2503.2503,0,0,1,.48828.11036c-.18555.81933-1.87891,8.01074-4.22461,8.19433-1.30664.10352-2.13867-1.72949-2.98926-3.67285-.64453-1.47266-1.31152-2.99512-2.12891-3.34668-.55566-.23926-1.584.40234-2.49023.9668a5.3838,5.3838,0,0,1-2.36816,1.05468c-.01758,0-.03516,0-.05371-.001-.88379-.03614-1.71875-1.03418-2.60352-2.08985-.82031-.97949-1.65723-1.99218-2.35449-1.90918-1.21.15235-1.75489,2.52442-2.28125,4.81836-.59278,2.584-1.15235,5.02539-2.72559,5.18262C103.53711,79.25857,103.46484,79.26247,103.39355,79.26247Z"/><path class="cls-6" d="M67.58594,86.24978a.25048.25048,0,0,1-.25-.25v-1a.25.25,0,1,1,.5,0v1A.25049.25049,0,0,1,67.58594,86.24978Z"/><path class="cls-6" d="M77.58594,86.24978a.25048.25048,0,0,1-.25-.25v-1a.25.25,0,1,1,.5,0v1A.25049.25049,0,0,1,77.58594,86.24978Z"/><path class="cls-6" d="M82.58594,86.24978a.25048.25048,0,0,1-.25-.25v-1a.25.25,0,1,1,.5,0v1A.25049.25049,0,0,1,82.58594,86.24978Z"/><path class="cls-2" d="M89.89551,50.93337a.24835.24835,0,0,1-.17676-.07324l-1-1a.25.25,0,1,1,.35352-.35352l1,1a.25.25,0,0,1-.17676.42676Z"/><path class="cls-2" d="M91.89551,50.93337a.24835.24835,0,0,1-.17676-.07324l-2-2a.25.25,0,1,1,.35352-.35352l2,2a.25.25,0,0,1-.17676.42676Z"/><path class="cls-7" d="M88.21821,53.07134l-4.94975,4.94975c-.0781.0781-.29971-.01687-.495-.21213s-.29024-.41687-.21214-.495l4.94975-4.94975"/><path class="cls-5" d="M83.19336,58.29861a.91428.91428,0,0,1-.59668-.3125c-.31738-.31739-.40234-.65821-.21191-.84864L87.334,52.18728a.25.25,0,0,1,.35352.35351l-4.8877,4.88965a.8674.8674,0,0,0,.35254.35254L88.041,52.89431a.25.25,0,0,1,.35351.35351L83.44531,58.198A.34621.34621,0,0,1,83.19336,58.29861Z"/><path class="cls-7" d="M87.86455,52.71779a4,4,0,1,0,0-5.65686A4.0002,4.0002,0,0,0,87.86455,52.71779Zm.70727-4.94977a2.99991,2.99991,0,1,1,0,4.24267A2.99975,2.99975,0,0,1,88.57182,47.768Z"/><path class="cls-5" d="M90.69336,54.13747a4.24776,4.24776,0,1,1,3.00488-1.24316A4.23634,4.23634,0,0,1,90.69336,54.13747Zm-.001-7.99609a3.74763,3.74763,0,1,0,2.65235,1.09668A3.73735,3.73735,0,0,0,90.69238,46.14138Zm.001,6.998a3.24966,3.24966,0,0,1-2.29785-5.54786h0a3.24965,3.24965,0,1,1,2.29785,5.54786Zm0-6a2.73172,2.73172,0,0,0-1.94434.80566h0a2.749,2.749,0,1,0,1.94434-.80566Zm-2.12109.6289h0Z"/><path class="cls-8" d="M82.63877,43.79691c-.76485,2.31082-4.20419,4.17067-8.77611,3.25991a11.46453,11.46453,0,0,1-6.08556-4.02549s-7.99224.91825-8.21314-.43625c-.24331-1.49187,9.68246-2.7663,15.30946-2.0931,2.735.32721,4.35809,1.33837,5.65606.56654a10.48707,10.48707,0,0,1,4.12111-1.29527c1.63279-.05831,3.06381,1.77548,2.53666,2.47834-.6123.81639-1.70862.09525-2.53666.23326A2.71993,2.71993,0,0,0,82.63877,43.79691Z"/><path class="cls-5" d="M76.22168,47.54763a12.32164,12.32164,0,0,1-2.4082-.24609,11.7246,11.7246,0,0,1-6.1543-4.00586c-2.085.23535-8.10742.77929-8.34277-.66016a.67551.67551,0,0,1,.21679-.58789c1.34278-1.40234,10.1045-2.42676,15.36914-1.79395a20.67722,20.67722,0,0,1,2.58692.50879c1.25976.30957,2.1709.53223,2.91211.09082a10.848,10.848,0,0,1,4.24023-1.33007,3.19017,3.19017,0,0,1,2.70508,1.6416,1.1553,1.1553,0,0,1,.041,1.2373c-.48633.64844-1.19629.51563-1.82227.40137a2.742,2.742,0,0,0-.874-.07227A2.49513,2.49513,0,0,0,82.876,43.87478C82.22656,45.83767,79.77148,47.54763,76.22168,47.54763ZM67.77734,42.781a.2497.2497,0,0,1,.207.10937,11.26511,11.26511,0,0,0,5.92675,3.9209c4.38575.87012,7.75879-.88672,8.49024-3.09277h0a2.96187,2.96187,0,0,1,2.208-1.48047,3.15222,3.15222,0,0,1,1.04687.07324c.63672.11719,1.04687.17285,1.33105-.21.10547-.13965.07422-.40332-.084-.70508a2.57662,2.57662,0,0,0-2.24414-1.373,10.23473,10.23473,0,0,0-4.002,1.25976c-.91993.54785-1.96289.29-3.28711-.03418a20.31844,20.31844,0,0,0-2.52637-.499c-5.29687-.62891-13.82813.47461-14.9502,1.64355-.043.04492-.09179.10938-.083.16211.10937.669,4.19531.65723,7.93847.22754Z"/><path class="cls-9" d="M87.137,42.42961c.13179.24.4704,1.25209.205,1.403s-.78554-1.0382-.78554-1.0382"/><path class="cls-5" d="M75.82129,45.2615a5.33493,5.33493,0,0,1-.90234-.07911,5.073,5.073,0,0,1-3.57129-2.27929.25029.25029,0,1,1,.44336-.23242,4.62407,4.62407,0,0,0,3.21191,2.01953,3.75706,3.75706,0,0,0,3.2832-.84375.25016.25016,0,1,1,.33985.36718A4.0399,4.0399,0,0,1,75.82129,45.2615Z"/><path class="cls-5" d="M72.89941,51.60036a.24591.24591,0,0,1-.16992-.06738.24893.24893,0,0,1-.08008-.19141l.15039-4.41406a.25974.25974,0,0,1,.25879-.24121.25.25,0,0,1,.24121.25879l-.14062,4.126,1.11816-.12012a.25042.25042,0,0,1,.05274.498l-1.4043.15039Z"/><path class="cls-5" d="M75.78516,51.451a.25562.25562,0,0,1-.16016-.05762.25235.25235,0,0,1-.08984-.18359l-.14258-3.92188a.25015.25015,0,1,1,.5-.01757l.13183,3.64257.96485-.1416a.2497.2497,0,0,1,.07226.49414l-1.24023.18262A.22571.22571,0,0,1,75.78516,51.451Z"/><path class="cls-6" d="M97.58594,86.24978a.25048.25048,0,0,1-.25-.25v-1a.25.25,0,1,1,.5,0v1A.25049.25049,0,0,1,97.58594,86.24978Z"/><path class="cls-6" d="M87.58594,86.24978a.25048.25048,0,0,1-.25-.25v-1a.25.25,0,1,1,.5,0v1A.25049.25049,0,0,1,87.58594,86.24978Z"/><path class="cls-6" d="M92.58594,86.24978a.25048.25048,0,0,1-.25-.25v-1a.25.25,0,1,1,.5,0v1A.25049.25049,0,0,1,92.58594,86.24978Z"/><path class="cls-6" d="M127.58594,85.24978h-75a.25048.25048,0,0,1-.25-.25v-25a.25.25,0,0,1,.5,0v24.75h74.75a.25.25,0,0,1,0,.5Z"/><path class="cls-6" d="M102.58594,86.24978a.25048.25048,0,0,1-.25-.25v-1a.25.25,0,1,1,.5,0v1A.25049.25049,0,0,1,102.58594,86.24978Z"/><path class="cls-6" d="M107.58594,86.24978a.25048.25048,0,0,1-.25-.25v-1a.25.25,0,1,1,.5,0v1A.25049.25049,0,0,1,107.58594,86.24978Z"/><path class="cls-6" d="M117.58594,86.24978a.25048.25048,0,0,1-.25-.25v-1a.25.25,0,1,1,.5,0v1A.25049.25049,0,0,1,117.58594,86.24978Z"/><path class="cls-6" d="M112.58594,86.24978a.25048.25048,0,0,1-.25-.25v-1a.25.25,0,1,1,.5,0v1A.25049.25049,0,0,1,112.58594,86.24978Z"/><path class="cls-6" d="M122.58594,86.24978a.25048.25048,0,0,1-.25-.25v-1a.25.25,0,1,1,.5,0v1A.25049.25049,0,0,1,122.58594,86.24978Z"/><path class="cls-6" d="M52.58594,65.24978h-1a.25.25,0,0,1,0-.5h1a.25.25,0,1,1,0,.5Z"/><path class="cls-10" d="M104.92755,68.71985c0-.48975-.42969-.79932-1.07959-.79932a1.693,1.693,0,0,0-1.44922.73926l-1.209-.70947a3.18478,3.18478,0,0,1,2.82812-1.33936c1.49951,0,2.53857.66992,2.53857,1.84912,0,1.59913-1.67871,1.77881-1.67871,2.83839h-1.50927C103.36847,69.89905,104.92755,69.58948,104.92755,68.71985Zm-1.75928,4.17774a.96221.96221,0,0,1,1.91894,0,.96083.96083,0,0,1-1.91894,0Z"/><path class="cls-11" d="M108.82031,79.7a.28858.28858,0,0,1-.041-.00293c-1.64453-.27441-3.53125-2.459-3.96875-3.51074a.24955.24955,0,1,1,.46093-.19141c.4004.96,2.19141,2.97559,3.58985,3.208a.2502.2502,0,0,1-.041.49707Z"/><path class="cls-12" d="M121.33406,87.09788c-2.75222-.11324-4.49935.45561-5.554-.62519-.81275-.8329-2.27176-5.90179-3.8776-5.12364-1.50239.728,1.27468,6.4885,1.45089,7.56047.39483,2.40187,3.01345,4.80224,7.67519,4.81363a17.91213,17.91213,0,0,0,6.40678-1.56106s6.995-3.63519,6.27785-4.80529c-.777-1.26781-7.03077,1.72861-7.03077,1.72861A9.897,9.897,0,0,0,121.33406,87.09788Z"/><path class="cls-5" d="M121.05176,93.97341h-.02442c-4.87695-.01269-7.52441-2.6123-7.92089-5.02246a13.49416,13.49416,0,0,0-.53711-1.585c-1.10157-2.9541-1.98926-5.6543-.77637-6.24121a1.003,1.003,0,0,1,.80078-.04395c.96582.34278,1.76074,2.042,2.46289,3.541a8.53608,8.53608,0,0,0,.90234,1.67578c.65137.66894,1.6211.63086,3.09864.57129.66992-.02637,1.42676-.0586,2.28711-.02149h0a10.09756,10.09756,0,0,1,5.37011,1.94629c1.33985-.63379,6.39454-2.90136,7.21094-1.56738a.64063.64063,0,0,1,.05957.52344c-.40625,1.46582-5.81836,4.31445-6.43457,4.63379-.1289.0498-.25976.10254-.41992.167A16.83463,16.83463,0,0,1,121.05176,93.97341Zm-8.81055-12.45508a.5218.5218,0,0,0-.22949.05567c-.9043.43847.39941,3.93652,1.02637,5.61718a13.1,13.1,0,0,1,.5625,1.67774c.3623,2.21,2.84179,4.59277,7.42871,4.60449h.02246a16.36282,16.36282,0,0,0,5.89258-1.38769c.166-.06641.30175-.12012.40429-.15821,2.22266-1.15722,5.89258-3.36621,6.15528-4.31152.02246-.084.00293-.11621-.00391-.12793-.4082-.668-3.79883.42871-6.709,1.82324a.253.253,0,0,1-.26661-.03223,9.72556,9.72556,0,0,0-5.20117-1.93164h0c-.834-.03515-1.584-.00488-2.24609.02149-1.5459.06055-2.667.10547-3.47559-.72168a8.07938,8.07938,0,0,1-.998-1.81348c-.59473-1.26953-1.40821-3.00879-2.17676-3.28125A.554.554,0,0,0,112.24121,81.51833Z"/><path class="cls-9" d="M111.69181,81.55788c-.283-.103-1.4874-.17444-1.607.13935s1.3077.5529,1.3077.5529"/><path class="cls-5" d="M121.56348,91.67556c-.18848,0-.37989-.00879-.57227-.02539a4.639,4.639,0,0,1-3.53223-1.84766.25.25,0,0,1,.41993-.27148,4.14541,4.14541,0,0,0,3.15625,1.62109,4.35406,4.35406,0,0,0,3.498-1.0332.25011.25011,0,1,1,.36524.3418A4.59414,4.59414,0,0,1,121.56348,91.67556Z"/><path class="cls-5" d="M117.49023,98.46853a.21312.21312,0,0,1-.043-.00391l-1.39747-.24121a.24958.24958,0,0,1-.20312-.28906.24342.24342,0,0,1,.28906-.20313l1.14649.19825.70019-4.45508a.25014.25014,0,1,1,.49414.07812l-.73926,4.70508a.25071.25071,0,0,1-.24707.21094Z"/><path class="cls-5" d="M121.62305,98.66091h-.001l-1.29883-.00293a.25.25,0,0,1,.001-.5h.001l1.05859.002.19824-4.417a.28013.28013,0,0,1,.26074-.23926.25066.25066,0,0,1,.23926.26075l-.209,4.65722A.25034.25034,0,0,1,121.62305,98.66091Z"/></g></g></svg>