<svg xmlns="http://www.w3.org/2000/svg" width="360" height="140" viewBox="0 0 360 140"><defs><style>.cls-1{fill:#ddd;}.cls-2{fill:#aaa;}.cls-3{fill:gray;}.cls-4{fill:none;}.cls-5{fill:#fff;}.cls-10,.cls-6{fill:#053437;}.cls-7{fill:#33d67b;}.cls-8{fill:#f7ce05;}.cls-10,.cls-12,.cls-14,.cls-8,.cls-9{fill-rule:evenodd;}.cls-9{fill:#caecf9;}.cls-11{fill:#553bf2;}.cls-12{fill:#f0403d;}.cls-13{fill:#f47925;}.cls-14{fill:#f6e55a;}</style></defs><g id="Layer_2" data-name="Layer 2"><g id="Layer_2-2" data-name="Layer 2"><path class="cls-1" d="M295.65186,112.25035a.25048.25048,0,0,1-.25-.25v-2a.25.25,0,1,1,.5,0v2A.25049.25049,0,0,1,295.65186,112.25035Z"/><path class="cls-2" d="M287.474,120.74949a1.21969,1.21969,0,0,1-1.31934,1.28906,1.28511,1.28511,0,0,1-1.373-.92285l.33008-.168a.93536.93536,0,0,0,1.03125.77344.90086.90086,0,0,0,.97753-.95313.87949.87949,0,0,0-.94726-.96,1.12442,1.12442,0,0,0-.9834.43164H284.89l.21582-2.21875H287.306v.31836H285.3929l-.15528,1.46289-.00586.07813h.00586a1.24384,1.24384,0,0,1,.99512-.38965A1.18463,1.18463,0,0,1,287.474,120.74949Z"/><path class="cls-2" d="M288.8968,119.23874a.29689.29689,0,1,1-.59375,0,.29689.29689,0,0,1,.59375,0Zm0,2.49414a.29689.29689,0,1,1-.2998-.2998A.28144.28144,0,0,1,288.8968,121.73288Z"/><path class="cls-2" d="M289.7552,120.00046c0-1.31933.50977-2.03906,1.45117-2.03906s1.45117.71973,1.45117,2.03906-.50976,2.03809-1.45117,2.03809S289.7552,121.3198,289.7552,120.00046Zm2.54883,0c0-1.12109-.38379-1.7334-1.09766-1.7334-.708,0-1.09765.61231-1.09765,1.7334s.38964,1.73242,1.09765,1.73242C291.92024,121.73288,292.304,121.12156,292.304,120.00046Z"/><path class="cls-2" d="M293.42122,120.00046c0-1.31933.50976-2.03906,1.45117-2.03906s1.45117.71973,1.45117,2.03906-.50977,2.03809-1.45117,2.03809S293.42122,121.3198,293.42122,120.00046Zm2.54882,0c0-1.12109-.38379-1.7334-1.09765-1.7334-.708,0-1.09766.61231-1.09766,1.7334s.38965,1.73242,1.09766,1.73242C295.58625,121.73288,295.97,121.12156,295.97,120.00046Z"/><path class="cls-2" d="M301.92122,119.19089c0,.72559-.52149,1.169-1.33692,1.169H299.595V121.979h-.34179v-3.958h1.33105C301.39973,118.021,301.92122,118.46531,301.92122,119.19089Zm-.35352,0c0-.5459-.34766-.85156-1.02539-.85156H299.595v1.70312h.94727C301.22,120.04245,301.5677,119.73679,301.5677,119.19089Z"/><path class="cls-2" d="M306.52278,121.979h-.33008v-2.8418l.03613-.792-1.415,3.63379h-.30566l-1.40918-3.63379h-.00586l.03516.792v2.8418H302.805v-3.958h.51563l1.12109,2.86133.21582.69531h.00586l.22266-.68945,1.11523-2.86719h.52149Z"/><path class="cls-3" d="M312.63288,131.499v.45019h-2.7461v-3.958h.47852V131.499Z"/><path class="cls-3" d="M316.0821,131.57126l-.0293.37793a1.07692,1.07692,0,0,1-.35938.05957.47018.47018,0,0,1-.53906-.44336,1.18545,1.18545,0,0,1-.96679.44336c-.5625,0-1.01954-.26367-1.01954-.80371,0-.44922.39649-.80371,1.16993-.93554l.79687-.13184v-.168a.62919.62919,0,0,0-.70117-.65918.87768.87768,0,0,0-.85742.56934l-.35352-.25782a1.22032,1.22032,0,0,1,1.21094-.73144c.68359,0,1.18164.32422,1.18164,1.01953v1.47559c0,.14355.06055.21582.22852.21582A1.047,1.047,0,0,0,316.0821,131.57126Zm-.94727-.62988v-.41406l-.67187.126c-.52735.09668-.79688.27051-.79688.55176,0,.252.20313.38379.54492.38379C314.69147,131.58884,315.13483,131.33689,315.13483,130.94138Z"/><path class="cls-3" d="M318.49616,131.73923a1.11768,1.11768,0,0,1-.77344.26953.75294.75294,0,0,1-.834-.80371v-1.84082h-.59961v-.41406h.59961v-.71875l.48047-.13281v.85156h1.10937v.41406h-1.10937v1.75684a.40682.40682,0,0,0,.44921.43847.68393.68393,0,0,0,.50977-.22265Z"/><path class="cls-3" d="M321.72272,130.62986H319.463a.94857.94857,0,0,0,.97656.959.81138.81138,0,0,0,.8457-.44336l.40235.21a1.28539,1.28539,0,0,1-1.248.65332,1.38968,1.38968,0,0,1-1.45117-1.55859,1.36423,1.36423,0,0,1,1.416-1.55957,1.29856,1.29856,0,0,1,1.3418,1.40332A2.41914,2.41914,0,0,1,321.72272,130.62986Zm-2.2539-.42578h1.8164c-.0664-.55176-.37109-.89356-.88086-.89356A.903.903,0,0,0,319.46882,130.20408Z"/><path class="cls-3" d="M322.39069,131.331l.39063-.26953a.93519.93519,0,0,0,.94726.52734c.49219,0,.72461-.19726.72461-.44336,0-.22168-.18555-.35351-.78516-.46191-.85156-.15625-1.16406-.38965-1.16406-.89356,0-.48535.45117-.89941,1.18164-.89941a1.08386,1.08386,0,0,1,1.1875.71973l-.4082.24023a.72887.72887,0,0,0-.7793-.54c-.40039,0-.70117.21582-.70117.4375,0,.25781.19727.38965.81055.49219.83789.13769,1.13867.38965,1.13867.88086,0,.52246-.48633.88769-1.25391.88769A1.36855,1.36855,0,0,1,322.39069,131.331Z"/><path class="cls-3" d="M327.65632,131.73923a1.11768,1.11768,0,0,1-.77344.26953.75381.75381,0,0,1-.834-.80371v-1.84082h-.59961v-.41406h.59961v-.71875l.48047-.13281v.85156h1.10938v.41406h-1.10938v1.75684a.40683.40683,0,0,0,.44922.43847.67768.67768,0,0,0,.50977-.22265Z"/><path class="cls-2" d="M311.34473,119.00437a.93412.93412,0,0,1-.55762.88769v.00586a1.04489,1.04489,0,0,1,.7373,1.01368c0,.68945-.56933,1.12695-1.43945,1.12695-.86328,0-1.43848-.4375-1.43848-1.12695a1.045,1.045,0,0,1,.74317-1.01368v-.00586a.92759.92759,0,0,1-.56348-.88769c0-.6416.49707-1.03711,1.25879-1.03711S311.34473,118.36277,311.34473,119.00437Zm-.31836,1.85937c0-.45605-.3711-.73144-.94141-.73144-.56348,0-.94141.27539-.94141.73144,0,.4502.36622.72559.94141.72559C310.667,121.58933,311.02637,121.31394,311.02637,120.86374Zm-1.70313-1.81054c0,.38965.30664.6289.76172.6289.45606,0,.76172-.23925.76172-.6289,0-.40235-.29395-.63575-.76172-.63575S309.32324,118.65085,309.32324,119.0532Z"/><path class="cls-2" d="M313.21191,119.311a.38965.38965,0,1,1-.38964-.38965A.36854.36854,0,0,1,313.21191,119.311Zm0,2.33887a.38965.38965,0,1,1-.38964-.39063A.36777.36777,0,0,1,313.21191,121.64988Z"/><path class="cls-2" d="M314.09961,120.00046c0-1.32519.51562-2.03906,1.47559-2.03906.959,0,1.4746.71387,1.4746,2.03906s-.51562,2.03809-1.4746,2.03809C314.61523,122.03855,314.09961,121.32566,314.09961,120.00046Zm2.45312,0c0-1.04394-.34179-1.60742-.97753-1.60742s-.97754.56348-.97754,1.60742c0,1.043.34179,1.60742.97754,1.60742S316.55273,121.04343,316.55273,120.00046Z"/><path class="cls-2" d="M317.832,120.00046c0-1.32519.51563-2.03906,1.47559-2.03906.959,0,1.47461.71387,1.47461,2.03906s-.51563,2.03809-1.47461,2.03809C318.34766,122.03855,317.832,121.32566,317.832,120.00046Zm2.45313,0c0-1.04394-.3418-1.60742-.97754-1.60742s-.97754.56348-.97754,1.60742c0,1.043.3418,1.60742.97754,1.60742S320.28516,121.04343,320.28516,120.00046Z"/><path class="cls-2" d="M326.5957,119.227a1.19189,1.19189,0,0,1-1.33105,1.20507h-.918V121.979h-.47949v-3.958h1.39746A1.19209,1.19209,0,0,1,326.5957,119.227Zm-.5039,0c0-.49219-.27539-.75586-.89942-.75586h-.8457v1.51074h.8457C325.81641,119.98191,326.0918,119.71824,326.0918,119.227Z"/><path class="cls-2" d="M331.35352,121.979h-.45606V119.4907l.05371-1.044h-.00586l-1.30078,3.53223h-.4082l-1.30078-3.53223h-.00586l.05371,1.044V121.979h-.45606v-3.958h.73731l.87012,2.40527.2998.98926h.01172l.30566-.9834.86426-2.41113h.73731Z"/><path class="cls-1" d="M89.73682,100.16929a.50007.50007,0,0,1-.2461-.93554,4.66957,4.66957,0,0,0,1.29981-1.19922.49995.49995,0,1,1,.78515.61914,5.65634,5.65634,0,0,1-1.59277,1.45117A.49838.49838,0,0,1,89.73682,100.16929ZM86.3042,99.1898a.49894.49894,0,0,1-.37012-.16308,12.7593,12.7593,0,0,1-1.249-1.66407.50033.50033,0,0,1,.8418-.541,11.58053,11.58053,0,0,0,1.14746,1.53125.5.5,0,0,1-.37012.83691Zm6.85449-3.81347a.48978.48978,0,0,1-.2041-.04395.499.499,0,0,1-.25195-.66016q.38085-.854.7539-1.82812a.49984.49984,0,1,1,.9336.35742c-.25489.666-.51368,1.29395-.77539,1.87891A.49913.49913,0,0,1,93.15869,95.37633Zm-9.95508-1.30958a.50139.50139,0,0,1-.45312-.28808q-.41163-.87744-.82813-1.84277a.5.5,0,0,1,.918-.39649q.41016.94921.81641,1.81543a.50044.50044,0,0,1-.24121.665A.49506.49506,0,0,1,83.20361,94.06675Zm12.02344-4.33789a.49514.49514,0,0,1-.14941-.02246.501.501,0,0,1-.32813-.627q.29-.92578.5752-1.90918a.50035.50035,0,1,1,.96093.2793c-.19238.66113-.38574,1.30566-.58105,1.92871A.501.501,0,0,1,95.22705,89.72886Zm-14.35156-1.208a.5.5,0,0,1-.4668-.32032q-.3545-.92137-.708-1.88379a.4996.4996,0,1,1,.9375-.3457q.353.95508.70411,1.87012a.50082.50082,0,0,1-.28711.64648A.508.508,0,0,1,80.87549,88.52086ZM96.86475,83.9398a.49937.49937,0,0,1-.48438-.625q.24756-.95361.49219-1.93847a.50023.50023,0,1,1,.9707.24218q-.24756.98877-.49414,1.94629A.50086.50086,0,0,1,96.86475,83.9398ZM78.81689,82.87047a.50088.50088,0,0,1-.47168-.334q-.32958-.939-.6582-1.89746a.49968.49968,0,1,1,.94531-.32422q.32813.95215.65625,1.88965a.49971.49971,0,0,1-.30566.6377A.49462.49462,0,0,1,78.81689,82.87047Zm205.59082-2.47461a.49987.49987,0,0,1-.13378-.98145,3.83239,3.83239,0,0,0,1.48632-.877.50006.50006,0,1,1,.666.74609,4.806,4.806,0,0,1-1.88477,1.09375A.49084.49084,0,0,1,284.40771,80.39586Zm-3.60644-1.15918a.50006.50006,0,0,1-.33008-.124,12.22582,12.22582,0,0,1-1.42578-1.51562.50009.50009,0,1,1,.7793-.627,11.20058,11.20058,0,0,0,1.30664,1.39062.5.5,0,0,1-.33008.876ZM98.29541,78.097a.49913.49913,0,0,1-.4873-.61328q.22558-.96534.44921-1.9502a.49335.49335,0,0,1,.59864-.376.50009.50009,0,0,1,.376.59863q-.22412.98583-.44922,1.9541A.50088.50088,0,0,1,98.29541,78.097ZM76.8667,77.18a.49978.49978,0,0,1-.47363-.34082l-.64063-1.89844a.5.5,0,0,1,.94727-.32031l.64062,1.90039a.50057.50057,0,0,1-.47363.65918ZM288.479,76.225a.49217.49217,0,0,1-.24511-.06446.499.499,0,0,1-.19043-.68066c.29785-.52832.60156-1.11719.90429-1.751a.49972.49972,0,0,1,.90235.42969c-.3125.65528-.627,1.26465-.93555,1.81153A.5.5,0,0,1,288.479,76.225Zm-11.25586-1.77735a.49857.49857,0,0,1-.43457-.25293q-.48192-.8496-.96386-1.78027a.5001.5001,0,1,1,.88867-.459q.47168.91113.94433,1.74511a.49923.49923,0,0,1-.1875.68164A.49287.49287,0,0,1,277.22314,74.44761ZM99.61768,72.23082a.50972.50972,0,0,1-.10743-.01172.50006.50006,0,0,1-.38086-.5957l.42676-1.95508a.49954.49954,0,1,1,.97656.21093l-.42675,1.959A.49952.49952,0,0,1,99.61768,72.23082Zm-24.67579-.751a.50112.50112,0,0,1-.47363-.33887l-.64844-1.89355a.5.5,0,0,1,.94532-.32617l.65039,1.89746a.501.501,0,0,1-.3125.63476A.51087.51087,0,0,1,74.94189,71.47984Zm216.02051-.72559a.50021.50021,0,0,1-.46679-.67871q.34863-.90819.69043-1.86914a.49977.49977,0,0,1,.9414.33594c-.23047.64746-.46387,1.2793-.69824,1.89063A.49955.49955,0,0,1,290.9624,70.75425Zm-103.91015-.0791a.5.5,0,0,1-.002-1,2.9109,2.9109,0,0,0,1.56836-.53613.49947.49947,0,1,1,.54688.83594,3.87062,3.87062,0,0,1-2.11133.70019ZM39.99951,70.43492a.5.5,0,0,1-.38281-.82129s.4834-.57715,1.32324-1.53516a.49967.49967,0,0,1,.752.65821c-.8291.94629-1.30761,1.51757-1.30957,1.51953A.49687.49687,0,0,1,39.99951,70.43492Zm99.88184-.93067a.50044.50044,0,0,1-.3252-.87988,7.81916,7.81916,0,0,0,1.23731-1.39551.50052.50052,0,1,1,.81445.582,8.83916,8.83916,0,0,1-1.40137,1.57226A.49642.49642,0,0,1,139.88135,69.50425Zm134.64648-.42773a.49969.49969,0,0,1-.45508-.293c-.27343-.60058-.54687-1.21484-.81933-1.83789a.49985.49985,0,0,1,.916-.40039q.40577.92871.81348,1.82422a.5.5,0,0,1-.45508.707ZM183.75732,68.682a.49813.49813,0,0,1-.38476-.18066,13.82457,13.82457,0,0,1-1.18262-1.69922.49976.49976,0,0,1,.85742-.51368,12.75953,12.75953,0,0,0,1.09473,1.57422.5.5,0,0,1-.38477.81934Zm7.84082-1.53223a.5.5,0,0,1-.4121-.7832c.33886-.49414.6914-1.05371,1.04687-1.66406a.49979.49979,0,1,1,.86328.5039c-.36719.63086-.73242,1.21192-1.08594,1.72657A.49939.49939,0,0,1,191.59814,67.14976Zm-90.709-.791a.55991.55991,0,0,1-.10547-.01075.50152.50152,0,0,1-.38379-.59472l.4209-1.957a.5069.5069,0,0,1,.59375-.38477.50092.50092,0,0,1,.38477.59375l-.42188,1.959A.49945.49945,0,0,1,100.88916,66.35875Zm-56.89453-.4375a.5.5,0,0,1-.36817-.83789c.43165-.47071.88965-.96387,1.36817-1.47364a.50018.50018,0,1,1,.72851.68555c-.47656.50586-.93066.99707-1.36035,1.46387A.4989.4989,0,0,1,43.99463,65.92125Zm88.2832-.0586a.49956.49956,0,0,1-.42969-.24414c-.33007-.55468-.65918-1.14843-.9873-1.77636a.50014.50014,0,0,1,.88672-.4629c.31836.61036.63769,1.18848.96,1.72754a.49995.49995,0,0,1-.42969.75586Zm-59.31445-.06054a.50012.50012,0,0,1-.4707-.33106q-.34278-.95508-.68555-1.87793a.49994.49994,0,1,1,.9375-.34765q.34423.92724.68945,1.88769a.50094.50094,0,0,1-.30176.63965A.51277.51277,0,0,1,72.96338,65.80211Zm219.97754-.72754a.4931.4931,0,0,1-.15332-.02442.49912.49912,0,0,1-.32227-.6289q.30175-.939.60254-1.90625a.50008.50008,0,0,1,.95508.29687q-.30322.97119-.60645,1.916A.49925.49925,0,0,1,292.94092,65.07457ZM143.12256,64.517a.49184.49184,0,0,1-.20215-.043.49879.49879,0,0,1-.25488-.65918q.38379-.86572.75293-1.831a.49983.49983,0,1,1,.93359.35742q-.37939.99024-.77246,1.87793A.49913.49913,0,0,1,143.12256,64.517Zm129.01855-.959a.50025.50025,0,0,1-.46191-.30762l-.76758-1.85254a.5.5,0,0,1,.92383-.38281l.76758,1.85058a.50137.50137,0,0,1-.26953.6543A.51171.51171,0,0,1,272.14111,63.558Zm-91.28222-.1084a.50017.50017,0,0,1-.46192-.3086q-.37353-.90234-.73242-1.88769a.50018.50018,0,0,1,.93945-.34375c.23438.64258.47364,1.26074.7168,1.84863a.5.5,0,0,1-.27051.65332A.492.492,0,0,1,180.85889,63.44957Zm13.666-1.54492a.49952.49952,0,0,1-.45117-.7168q.42188-.876.84082-1.80664a.50044.50044,0,0,1,.91211.41211q-.4248.939-.85059,1.82812A.50222.50222,0,0,1,194.5249,61.90465ZM48.144,61.56675a.5.5,0,0,1-.35547-.85253q.7002-.70459,1.42872-1.417a.5.5,0,1,1,.69921.71485q-.72069.70458-1.417,1.40722A.50384.50384,0,0,1,48.144,61.56675Zm81.4336-1.07031a.49979.49979,0,0,1-.457-.29687q-.39991-.90236-.79883-1.84961a.50023.50023,0,1,1,.92187-.38867q.3955.9375.791,1.832a.49986.49986,0,0,1-.457.70312Zm-27.4209-.01758a.50078.50078,0,0,1-.48926-.60644l.42773-1.958a.5.5,0,0,1,.97657.21484l-.42774,1.95606A.50011.50011,0,0,1,102.15674,60.47886Zm-31.3291-.30078a.49983.49983,0,0,1-.46289-.31054c-.25879-.63477-.51758-1.249-.77442-1.83692a.49985.49985,0,0,1,.916-.40039q.39111.89355.78418,1.8584a.49981.49981,0,0,1-.46289.68945Zm223.88379-.85156a.51884.51884,0,0,1-.14258-.02051.5011.5011,0,0,1-.33692-.62207l.56739-1.915a.5.5,0,1,1,.959.28321l-.56738,1.917A.5015.5015,0,0,1,294.71143,59.32652Zm-149.52149-.45508a.489.489,0,0,1-.14844-.02246.50055.50055,0,0,1-.3291-.626q.29-.93016.57324-1.91015a.50008.50008,0,1,1,.96094.27734q-.28564.99024-.5791,1.92969A.50063.50063,0,0,1,145.18994,58.87144Zm124.65723-.86914a.50018.50018,0,0,1-.46192-.30859q-.38672-.93018-.77148-1.84668a.50023.50023,0,1,1,.92187-.38867q.38673.91845.77344,1.85254a.50072.50072,0,0,1-.27051.65332A.48875.48875,0,0,1,269.84717,58.0023Zm-90.98047-.22558a.49975.49975,0,0,1-.47852-.3545q-.2871-.94335-.56933-1.92968a.49981.49981,0,1,1,.96094-.27539c.18652.65136.376,1.291.56542,1.91406a.49979.49979,0,0,1-.333.624A.50513.50513,0,0,1,178.8667,57.77672ZM52.48584,57.40855a.5.5,0,0,1-.335-.87109c.50391-.45508,1.01074-.90039,1.51562-1.333a.50006.50006,0,1,1,.65039.75977q-.74853.64013-1.49609,1.31543A.501.501,0,0,1,52.48584,57.40855Zm266.669-.51562a.501.501,0,0,1-.48633-.38184c-.14356-.59473-.30567-1.24609-.48145-1.94434a.49952.49952,0,0,1,.96875-.24414c.17774.7002.33985,1.35547.48535,1.95215a.50122.50122,0,0,1-.36816.60449A.54873.54873,0,0,1,319.15479,56.89293Zm-122.19141-.4834a.50061.50061,0,0,1-.46094-.69238q.38087-.91407.76367-1.84864a.50016.50016,0,1,1,.92578.37891q-.38524.936-.76757,1.85449A.49894.49894,0,0,1,196.96338,56.40953ZM127.272,54.94078a.49965.49965,0,0,1-.46484-.31543q-.36621-.92726-.73145-1.87012a.49963.49963,0,0,1,.93164-.36133q.36475.939.7295,1.86231a.501.501,0,0,1-.28028.64941A.49122.49122,0,0,1,127.272,54.94078ZM68.3042,54.723a.49994.49994,0,0,1-.43848-.25976c-.34765-.63184-.68847-1.19629-1.01367-1.67578a.5.5,0,1,1,.82813-.56055c.34277.50488.70019,1.0957,1.0625,1.75586a.50011.50011,0,0,1-.19825.67871A.49434.49434,0,0,1,68.3042,54.723Zm35.1543-.11523a.49356.49356,0,0,1-.11133-.01269.49964.49964,0,0,1-.376-.59864q.22413-.98583.4502-1.95508a.5003.5003,0,0,1,.97461.22657q-.22559.96533-.4502,1.95019A.5.5,0,0,1,103.4585,54.60777Zm-46.332-1.01855a.50008.50008,0,0,1-.29492-.9043c.57129-.415,1.13282-.80176,1.67969-1.14942a.5001.5001,0,0,1,.53711.84375c-.53125.3379-1.0752.71094-1.627,1.11426A.5012.5012,0,0,1,57.12646,53.58922Zm239.28711-.02637a.51207.51207,0,0,1-.1416-.02051.50019.50019,0,0,1-.33789-.62109l.57031-1.92188a.50038.50038,0,1,1,.959.28613l-.57031,1.919A.50035.50035,0,0,1,296.41357,53.56285Zm-149.59082-.48047a.5111.5111,0,0,1-.126-.01563.5017.5017,0,0,1-.3584-.61035q.249-.95508.49219-1.9375a.50023.50023,0,0,1,.9707.24219q-.24609.98438-.49414,1.94727A.50108.50108,0,0,1,146.82275,53.08238ZM267.48584,52.473a.50151.50151,0,0,1-.457-.29589q-.41309-.92726-.8291-1.81543a.50023.50023,0,1,1,.90625-.42383q.41894.89355.83691,1.83105a.49944.49944,0,0,1-.457.7041Zm-90.23535-.4873a.50087.50087,0,0,1-.48438-.375q-.24756-.96533-.49316-1.94727a.50023.50023,0,1,1,.9707-.24218q.24316.98.49121,1.93945a.49936.49936,0,0,1-.48437.625Zm140.40137-.9209a.5.5,0,0,1-.48243-.36914q-.25633-.94336-.53613-1.92676a.50048.50048,0,0,1,.96289-.27343q.27978.9873.53809,1.93847a.49965.49965,0,0,1-.35157.61328A.50794.50794,0,0,1,317.65186,51.0648ZM199.231,50.84117a.494.494,0,0,1-.18555-.03613.49915.49915,0,0,1-.27832-.64942l.74805-1.86621a.5.5,0,1,1,.92773.37305l-.74805,1.86426A.49987.49987,0,0,1,199.231,50.84117ZM62.36572,50.70445a.49987.49987,0,0,1-.14062-.97949,5.23049,5.23049,0,0,1,2.18164-.22168.50082.50082,0,0,1,.42383.5664.50866.50866,0,0,1-.56641.42383,4.15034,4.15034,0,0,0-1.75781.19043A.50536.50536,0,0,1,62.36572,50.70445Zm172.36035-.22559a.50219.50219,0,0,1-.17187-.03027,8.13108,8.13108,0,0,1-1.86328-1.02344.49962.49962,0,1,1,.57617-.8164,7.27825,7.27825,0,0,0,1.63086.90039.50007.50007,0,0,1-.17188.96972Zm3.91211-.22363a.49988.49988,0,0,1-.16211-.97265,15.95257,15.95257,0,0,0,1.78711-.752.49965.49965,0,1,1,.4375.89844,16.64276,16.64276,0,0,1-1.90039.79883A.49585.49585,0,0,1,238.63818,50.25523Zm-113.53906-.91992a.50006.50006,0,0,1-.4668-.32031l-.71972-1.86524a.49963.49963,0,0,1,.93164-.36133l.72168,1.86719a.50083.50083,0,0,1-.28711.64649A.508.508,0,0,1,125.09912,49.33531Zm-20.25-.57813a.51973.51973,0,0,1-.12109-.01464.501.501,0,0,1-.36426-.60645q.24756-.99024.49707-1.94629a.49267.49267,0,0,1,.60937-.35742.49856.49856,0,0,1,.35743.60937q-.24756.95216-.49317,1.93653A.5.5,0,0,1,104.84912,48.75718ZM298.15283,47.806a.4993.4993,0,0,1-.47754-.64941q.30322-.96826.6084-1.915a.5.5,0,1,1,.95117.30859q-.30322.939-.60449,1.90528A.501.501,0,0,1,298.15283,47.806Zm-54.19336-.30664a.5.5,0,0,1-.2666-.92285c.55371-.34863,1.11231-.71191,1.67285-1.08105a.50053.50053,0,1,1,.55078.83593c-.5664.373-1.13086.73828-1.69043,1.09082A.4933.4933,0,0,1,243.95947,47.49937Zm-95.70215-.25781a.4626.4626,0,0,1-.11425-.01367.49876.49876,0,0,1-.37207-.60059q.227-.96972.45312-1.95019a.50008.50008,0,0,1,.97461.22461q-.22559.98291-.45508,1.9541A.49914.49914,0,0,1,148.25732,47.24156ZM264.856,47.06871a.49669.49669,0,0,1-.43848-.26074c-.3291-.60254-.6582-1.17676-.98828-1.71582a.50011.50011,0,1,1,.85351-.52149c.3379.55274.67481,1.14063,1.01172,1.75879a.4988.4988,0,0,1-.19922.67773A.4933.4933,0,0,1,264.856,47.06871Zm-34.87891-.19531a.49833.49833,0,0,1-.35644-.14942c-.45606-.46289-.91895-.95508-1.38965-1.46777a.50043.50043,0,0,1,.73828-.67578c.46094.5039.916.9873,1.36426,1.44238a.5.5,0,0,1-.35645.85059Zm-54.16113-.72852a.49914.49914,0,0,1-.48633-.38574l-.457-1.95215a.5003.5003,0,1,1,.97461-.22656l.45508,1.95019a.4983.4983,0,0,1-.37207.60059A.46273.46273,0,0,1,175.81592,46.14488Zm140.15722-.85645a.50006.50006,0,0,1-.47753-.35156c-.19727-.63672-.39942-1.27246-.60645-1.90234a.49967.49967,0,1,1,.94922-.3125c.209.63574.41308,1.27734.6123,1.918a.50013.50013,0,0,1-.3291.626A.49349.49349,0,0,1,315.97314,45.28843ZM201.48877,45.264a.49206.49206,0,0,1-.19141-.03809.49929.49929,0,0,1-.2705-.65234q.38817-.939.77636-1.85351a.50009.50009,0,1,1,.91992.39257q-.38672.90675-.77246,1.8418A.49859.49859,0,0,1,201.48877,45.264ZM248.981,44.20445a.49994.49994,0,0,1-.27246-.919c.57226-.37207,1.13964-.73437,1.70117-1.0791a.49979.49979,0,0,1,.52344.85157c-.55372.34082-1.11524.69921-1.67969,1.06543A.49823.49823,0,0,1,248.981,44.20445Zm-126.07813-.46387a.49829.49829,0,0,1-.46289-.31152q-.38085-.939-.76465-1.8457a.50023.50023,0,1,1,.92188-.38868q.38524.91114.76855,1.85743a.50025.50025,0,0,1-.46289.68847Zm-16.49316-.793a.50534.50534,0,0,1-.14063-.0205.49888.49888,0,0,1-.33886-.62012q.29-.99169.584-1.92774a.49973.49973,0,0,1,.95313.30079q-.29151.92577-.57813,1.9082A.49948.49948,0,0,1,106.40967,42.94761Zm119.543-.53613a.49966.49966,0,0,1-.37989-.1748L224.271,40.71129a.50017.50017,0,1,1,.76171-.64844l1.29981,1.52344a.5.5,0,0,1-.37988.82519Zm35.5205-.28808a.49848.49848,0,0,1-.35937-.15235,6.92931,6.92931,0,0,0-1.43457-1.16992.5.5,0,0,1,.50488-.86328,7.83711,7.83711,0,0,1,1.64844,1.33789.5.5,0,0,1-.35938.84766Zm38.57911-.02442a.50826.50826,0,0,1-.16895-.0293.50015.50015,0,0,1-.30176-.63964q.3501-.97119.70313-1.88868a.50019.50019,0,1,1,.93359.35938q-.3501.90673-.69531,1.86719A.50012.50012,0,0,1,300.05225,42.099Zm-45.86231-.87207a.49991.49991,0,0,1-.20215-.957,13.43884,13.43884,0,0,1,1.95313-.706.50029.50029,0,1,1,.25781.96679,12.47064,12.47064,0,0,0-1.80664.65332A.49184.49184,0,0,1,254.18994,41.22691Zm59.84863-1.63281a.50023.50023,0,0,1-.46777-.32422c-.23926-.63672-.48242-1.25586-.72754-1.85254a.50053.50053,0,0,1,.92578-.38086c.249.60645.4961,1.23535.73731,1.88184a.49936.49936,0,0,1-.292.64355A.486.486,0,0,1,314.03857,39.5941ZM120.50049,38.22886a.49929.49929,0,0,1-.45117-.28418q-.44385-.92871-.88965-1.77441a.50018.50018,0,1,1,.88476-.4668q.45411.86133.90723,1.80957a.49987.49987,0,0,1-.45117.71582Zm101.53418-.377a.50122.50122,0,0,1-.376-.16992q-.665-.75732-1.33105-1.48145a.50037.50037,0,1,1,.73632-.67773q.67091.731,1.34668,1.499a.5.5,0,0,1-.376.83008Zm-113.72852-.61133a.48974.48974,0,0,1-.18066-.03418.49861.49861,0,0,1-.28516-.64648q.38672-.999.78418-1.874a.5.5,0,1,1,.91016.41406q-.38526.8496-.7627,1.82129A.49881.49881,0,0,1,108.30615,37.24058Zm194.02344-.7041a.48882.48882,0,0,1-.2168-.0498.49874.49874,0,0,1-.2334-.667c.31446-.65429.63184-1.26269.94239-1.80761a.50038.50038,0,1,1,.86914.49609c-.29981.52442-.60547,1.11133-.91113,1.74512A.49974.49974,0,0,1,302.32959,36.53648ZM150.94482,35.51011a.48905.48905,0,0,1-.1123-.01269.49991.49991,0,0,1-.375-.59961q.22706-.98291.458-1.9541a.49454.49454,0,0,1,.60156-.3711.49989.49989,0,0,1,.37109.60157q-.23.96825-.45605,1.94824A.501.501,0,0,1,150.94482,35.51011Zm55.76172-1.06347a.49982.49982,0,0,1-.42285-.76758c.39649-.626.792-1.19238,1.17383-1.68164a.50028.50028,0,1,1,.78906.61523c-.3623.46387-.73828,1.00293-1.11719,1.60157A.50063.50063,0,0,1,206.70654,34.44664Zm-33.59765-.02246a.50106.50106,0,0,1-.48731-.38575l-.46-1.94824a.5.5,0,1,1,.97266-.23242l.46191,1.95215a.50189.50189,0,0,1-.37305.60156A.512.512,0,0,1,173.10889,34.42418Zm138.499-.32715a.49781.49781,0,0,1-.43848-.26074A15.92372,15.92372,0,0,0,310.147,32.1859a.5003.5003,0,1,1,.8125-.584,16.81987,16.81987,0,0,1,1.08692,1.75586.49881.49881,0,0,1-.19922.67773A.49334.49334,0,0,1,311.60791,34.097Zm-93.72656-.583a.50237.50237,0,0,1-.33887-.13184c-.51953-.47851-1.02148-.90722-1.49219-1.27343a.50029.50029,0,0,1,.61524-.78907c.49121.38379,1.01465.83008,1.55468,1.32618a.5.5,0,0,1-.33886.86816Zm-100.377-.48633a.4984.4984,0,0,1-.39941-.19922,10.11334,10.11334,0,0,0-1.26465-1.41894.49991.49991,0,0,1,.66992-.74219,11.132,11.132,0,0,1,1.39356,1.55957.5.5,0,0,1-.39942.80078Zm-6.41015-1.08008a.50007.50007,0,0,1-.38574-.81738,5.23013,5.23013,0,0,1,1.6416-1.39551.50006.50006,0,1,1,.44726.89453A4.268,4.268,0,0,0,111.48,31.765.499.499,0,0,1,111.09424,31.94761Zm194.55859-.36035a.5.5,0,0,1-.332-.874,4.90544,4.90544,0,0,1,1.87891-1.09473.49981.49981,0,0,1,.27539.96094,3.93444,3.93444,0,0,0-1.49024.88184A.50025.50025,0,0,1,305.65283,31.58726Zm-94.75-1.2666a.5001.5001,0,0,1-.14258-.97949,3.82428,3.82428,0,0,1,1.085-.15527,9.07839,9.07839,0,0,1,1.14551.1455.5.5,0,1,1-.24023.97071,4.94542,4.94542,0,0,0-.9043-.11621,2.79,2.79,0,0,0-.80078.11425A.51846.51846,0,0,1,210.90283,30.32066ZM171.688,28.58043a.49987.49987,0,0,1-.48438-.377q-.25048-.98144-.5039-1.93359a.50029.50029,0,1,1,.96679-.25781q.2549.958.50586,1.94531a.49955.49955,0,0,1-.36132.60742A.48888.48888,0,0,1,171.688,28.58043Zm-17.76074-4.72168a.50694.50694,0,0,1-.14161-.02051.50021.50021,0,0,1-.33789-.62109q.29151-.98731.59082-1.92579a.5.5,0,0,1,.95313.30274q-.29591.92871-.585,1.90625A.50033.50033,0,0,1,153.92725,23.85875Zm16.166-1.07715a.49943.49943,0,0,1-.47851-.35645q-.29443-.97851-.59668-1.90136a.50029.50029,0,1,1,.95117-.31055q.30468.93311.60254,1.9248a.49884.49884,0,0,1-.335.62207A.48748.48748,0,0,1,170.09326,22.7816Zm-14.24512-4.62012a.48656.48656,0,0,1-.18359-.03515.49958.49958,0,0,1-.28125-.64844c.25879-.65625.52246-1.28125.793-1.86914a.49988.49988,0,1,1,.9082.418q-.394.85839-.77148,1.81836A.49962.49962,0,0,1,155.84814,18.16148Zm12.27149-1.05859a.49919.49919,0,0,1-.46192-.3086q-.397-.95946-.80664-1.80078a.50008.50008,0,0,1,.89844-.43945c.28223.57715.55957,1.19824.832,1.85742a.5.5,0,0,1-.2705.65332A.49206.49206,0,0,1,168.11963,17.10289ZM158.605,12.8441a.4999.4999,0,0,1-.40137-.79883,8.63992,8.63992,0,0,1,1.4336-1.53809.49981.49981,0,1,1,.63086.7754,7.67309,7.67309,0,0,0-1.2627,1.36035A.49674.49674,0,0,1,158.605,12.8441Zm6.542-.92188a.49579.49579,0,0,1-.36718-.16113,4.58525,4.58525,0,0,0-1.39747-1.07715.49988.49988,0,0,1,.418-.9082,5.5527,5.5527,0,0,1,1.71387,1.30664.50049.50049,0,0,1-.36719.83984Z"/><path class="cls-1" d="M319.99951,110.25035h-280a.25049.25049,0,0,1-.25-.25v-100a.25.25,0,1,1,.5,0v99.75h279.75a.25.25,0,0,1,0,.5Z"/><path class="cls-1" d="M113.04346,112.25035a.25048.25048,0,0,1-.25-.25v-2a.25.25,0,0,1,.5,0v2A.25049.25049,0,0,1,113.04346,112.25035Z"/><path class="cls-1" d="M186.0874,112.25035a.25049.25049,0,0,1-.25-.25v-2a.25.25,0,0,1,.5,0v2A.25048.25048,0,0,1,186.0874,112.25035Z"/><path class="cls-1" d="M259.13037,112.25035a.25049.25049,0,0,1-.25-.25v-2a.25.25,0,1,1,.5,0v2A.25048.25048,0,0,1,259.13037,112.25035Z"/><path class="cls-1" d="M76.522,112.25035a.25049.25049,0,0,1-.25-.25v-2a.25.25,0,0,1,.5,0v2A.25048.25048,0,0,1,76.522,112.25035Z"/><path class="cls-1" d="M149.56494,112.25035a.25049.25049,0,0,1-.25-.25v-2a.25.25,0,0,1,.5,0v2A.25048.25048,0,0,1,149.56494,112.25035Z"/><path class="cls-1" d="M222.60889,112.25035a.25048.25048,0,0,1-.25-.25v-2a.25.25,0,0,1,.5,0v2A.25049.25049,0,0,1,222.60889,112.25035Z"/><path class="cls-1" d="M39.99951,60.25035h-2a.25.25,0,0,1,0-.5h2a.25.25,0,0,1,0,.5Z"/><path class="cls-2" d="M26.07027,9.00437a.9346.9346,0,0,1-.55762.88769v.00586A1.04446,1.04446,0,0,1,26.25,10.9116c0,.68945-.56934,1.127-1.43945,1.127-.86329,0-1.43848-.4375-1.43848-1.127a1.04461,1.04461,0,0,1,.74316-1.01368V9.89206a.92807.92807,0,0,1-.56347-.88769c0-.6416.49707-1.03711,1.25879-1.03711S26.07027,8.36277,26.07027,9.00437Zm-.31836,1.85937c0-.456-.37109-.73193-.9414-.73193-.56348,0-.94141.27588-.94141.73193,0,.44971.36621.72559.94141.72559C25.39254,11.58933,25.75191,11.31345,25.75191,10.86374Zm-1.70312-1.811c0,.38965.30664.62939.76172.62939.456,0,.76171-.23974.76171-.62939,0-.40186-.29394-.63574-.76171-.63574S24.04879,8.65085,24.04879,9.05271Z"/><path class="cls-2" d="M27.04976,10c0-1.32519.51563-2.03857,1.47559-2.03857C29.48433,7.9614,30,8.67478,30,10s-.51563,2.03858-1.47461,2.03858C27.56539,12.03855,27.04976,11.32517,27.04976,10Zm2.45313,0c0-1.04345-.3418-1.60693-.97754-1.60693S27.54781,8.95652,27.54781,10s.3418,1.60743.97754,1.60743S29.50289,11.04343,29.50289,10Z"/><path class="cls-2" d="M26.664,33.021v.31787A5.22893,5.22893,0,0,0,25.18256,36.979H24.829a5.49094,5.49094,0,0,1,1.46289-3.64014H23.80365V33.021Z"/><path class="cls-2" d="M27.09759,35c0-1.31933.50977-2.03857,1.45118-2.03857S29.99994,33.68064,29.99994,35s-.50977,2.03858-1.45117,2.03858S27.09759,36.31931,27.09759,35Zm2.54883,0c0-1.12109-.38379-1.73291-1.09765-1.73291-.708,0-1.09766.61182-1.09766,1.73291,0,1.12159.38965,1.73291,1.09766,1.73291C29.26263,36.73288,29.64642,36.12156,29.64642,35Z"/><path class="cls-2" d="M26.27533,58.7529l-.3125.14991a.84948.84948,0,0,0-.88867-.624c-.7793,0-1.17969.83985-1.17969,1.80518,0,.10205.00586.21.01758.33594h.02343a1.08825,1.08825,0,0,1,1.13282-.89942,1.26,1.26,0,1,1-.02344,2.51807c-.96484,0-1.47461-.80322-1.47461-2.03858,0-1.34326.66016-2.03857,1.5293-2.03857A1.13809,1.13809,0,0,1,26.27533,58.7529ZM24.08,60.77341a.9079.9079,0,0,0,.959.9419.93307.93307,0,1,0,.00586-1.86524A.9222.9222,0,0,0,24.08,60.77341Z"/><path class="cls-2" d="M27.09759,60c0-1.31933.50977-2.03857,1.45118-2.03857S29.99994,58.68064,29.99994,60s-.50977,2.03858-1.45117,2.03858S27.09759,61.31931,27.09759,60Zm2.54883,0c0-1.12109-.38281-1.73291-1.09765-1.73291-.707,0-1.09766.61182-1.09766,1.73291,0,1.12159.39062,1.73291,1.09766,1.73291C29.26361,61.73288,29.64642,61.12156,29.64642,60Z"/><path class="cls-2" d="M26.37,85.74949a1.21969,1.21969,0,0,1-1.31933,1.28906,1.28512,1.28512,0,0,1-1.373-.92285l.33008-.168a.93537.93537,0,0,0,1.03125.77344.90087.90087,0,0,0,.97754-.95313.87949.87949,0,0,0-.94727-.96,1.12442,1.12442,0,0,0-.9834.43164h-.2998l.21582-2.21875h2.20019v.31836H24.289l-.15527,1.46289-.00586.07813h.00586a1.2438,1.2438,0,0,1,.99511-.38965A1.18463,1.18463,0,0,1,26.37,85.74949Z"/><path class="cls-2" d="M27.09758,85.00046c0-1.31933.50977-2.03906,1.45117-2.03906s1.45118.71973,1.45118,2.03906-.50977,2.03809-1.45118,2.03809S27.09758,86.3198,27.09758,85.00046Zm2.54883,0c0-1.12109-.38379-1.7334-1.09766-1.7334-.708,0-1.09765.61231-1.09765,1.7334s.38965,1.73242,1.09765,1.73242C29.26262,86.73288,29.64641,86.12156,29.64641,85.00046Z"/><path class="cls-2" d="M26.37108,110.94089h-.70117V111.979h-.48047v-1.03809H23.2578v-.35351l1.80664-2.56641h.60547v2.50684h.70117Zm-2.60351-.41308h1.42187v-1.48145l.02344-.63574h-.01172a5.52143,5.52143,0,0,1-.39649.66016Z"/><path class="cls-2" d="M27.05077,109.99949c0-1.3252.51562-2.03809,1.47461-2.03809S30,108.67429,30,109.99949s-.51563,2.03906-1.47461,2.03906S27.05077,111.32468,27.05077,109.99949Zm2.45312,0c0-1.043-.34179-1.60645-.97851-1.60645-.63477,0-.97656.56348-.97656,1.60645,0,1.04394.34179,1.60742.97656,1.60742C29.1621,111.60691,29.50389,111.04343,29.50389,109.99949Z"/><path class="cls-1" d="M39.99951,35.25035h-2a.25.25,0,0,1,0-.5h2a.25.25,0,0,1,0,.5Z"/><path class="cls-1" d="M39.99951,85.25035h-2a.25.25,0,0,1,0-.5h2a.25.25,0,0,1,0,.5Z"/><path class="cls-2" d="M66.47485,118.021v3.958h-.34179v-2.97461c0-.16211.00586-.3418.01172-.52734a2.05888,2.05888,0,0,1-1.03711.623l-.08985-.30566A2.30427,2.30427,0,0,0,66.176,118.021Z"/><path class="cls-2" d="M68.73071,118.021v3.958h-.34179v-2.97461c0-.16211.00586-.3418.01171-.52734a2.05881,2.05881,0,0,1-1.0371.623l-.08985-.30566a2.3042,2.3042,0,0,0,1.1582-.77344Z"/><path class="cls-2" d="M70.39868,119.23777a.2969.2969,0,1,1-.59375,0,.2969.2969,0,0,1,.59375,0Zm0,2.49511a.29689.29689,0,1,1-.29883-.2998A.28118.28118,0,0,1,70.39868,121.73288Z"/><path class="cls-2" d="M71.25806,119.99949c0-1.31934.50976-2.03809,1.45117-2.03809s1.45117.71875,1.45117,2.03809-.50977,2.03906-1.45117,2.03906S71.25806,121.31882,71.25806,119.99949Zm2.54882,0c0-1.1211-.38476-1.73243-1.09765-1.73243-.709,0-1.09766.61133-1.09766,1.73243,0,1.12207.38867,1.73339,1.09766,1.73339C73.42212,121.73288,73.80688,121.12156,73.80688,119.99949Z"/><path class="cls-2" d="M74.92407,119.99949c0-1.31934.50977-2.03809,1.45117-2.03809s1.45118.71875,1.45118,2.03809-.50977,2.03906-1.45118,2.03906S74.92407,121.31882,74.92407,119.99949Zm2.54883,0c0-1.1211-.38477-1.73243-1.09766-1.73243-.709,0-1.09765.61133-1.09765,1.73243,0,1.12207.38867,1.73339,1.09765,1.73339C77.08813,121.73288,77.4729,121.12156,77.4729,119.99949Z"/><path class="cls-2" d="M83.42407,119.18992c0,.72558-.52148,1.16992-1.33789,1.16992H81.0979V121.979h-.3418v-3.958h1.33008C82.90259,118.021,83.42407,118.46433,83.42407,119.18992Zm-.35351,0c0-.54493-.34766-.85157-1.02539-.85157H81.0979v1.70313h.94727C82.7229,120.04148,83.07056,119.73581,83.07056,119.18992Z"/><path class="cls-2" d="M88.02563,121.979h-.33007V119.1362l.03515-.791L86.31665,121.979H86.01l-1.4082-3.63379H84.596l.03515.791V121.979h-.32422v-3.958h.51563l1.12109,2.86035.2168.69531h.00586l.22266-.68945,1.11523-2.86621h.52148Z"/><path class="cls-2" d="M102.22316,121.69675c1.52343-1.16894,2.17773-1.76855,2.17773-2.51855a.85829.85829,0,0,0-.94141-.89942,1.01446,1.01446,0,0,0-1.03125,1.05567l-.30078-.17383a1.2619,1.2619,0,0,1,1.34375-1.19922,1.17064,1.17064,0,0,1,1.28321,1.2168c0,.78613-.61719,1.457-2.03321,2.48828v.00683c.10157-.00683.3418-.01269.4375-.01269h1.7168v.31836h-2.65234Z"/><path class="cls-2" d="M106.28566,119.23777a.28448.28448,0,0,1-.30078.30078.28148.28148,0,0,1-.293-.30078.27577.27577,0,0,1,.293-.293A.27892.27892,0,0,1,106.28566,119.23777Zm0,2.49511a.28276.28276,0,0,1-.30078.294.2969.2969,0,0,1,0-.59375A.28422.28422,0,0,1,106.28566,121.73288Z"/><path class="cls-2" d="M107.14308,119.99949c0-1.31934.50976-2.03809,1.45117-2.03809s1.45117.71875,1.45117,2.03809-.50976,2.03906-1.45117,2.03906S107.14308,121.31882,107.14308,119.99949Zm2.54883,0c0-1.1211-.38282-1.73243-1.09766-1.73243-.707,0-1.09766.61133-1.09766,1.73243,0,1.12207.39063,1.73339,1.09766,1.73339C109.30909,121.73288,109.69191,121.12156,109.69191,119.99949Z"/><path class="cls-2" d="M110.80909,119.99949c0-1.31934.50977-2.03809,1.45118-2.03809s1.45117.71875,1.45117,2.03809-.50977,2.03906-1.45117,2.03906S110.80909,121.31882,110.80909,119.99949Zm2.54883,0c0-1.1211-.38281-1.73243-1.09765-1.73243-.707,0-1.09766.61133-1.09766,1.73243,0,1.12207.39062,1.73339,1.09766,1.73339C112.97511,121.73288,113.35792,121.12156,113.35792,119.99949Z"/><path class="cls-2" d="M118.645,120.77292h-1.87109l-.47461,1.20606H115.94l1.57227-3.958h.40625l1.56641,3.958h-.35938Zm-.127-.31738-.64649-1.64941-.15625-.45508h-.01171l-.14454.4375-.66015,1.667Z"/><path class="cls-2" d="M123.95948,121.979h-.33007V119.1362l.03711-.791-1.416,3.63379h-.30469l-1.41015-3.63379h-.00586l.03515.791V121.979h-.32226v-3.958h.51562l1.1211,2.86035.21484.69531h.00586l.22266-.68945L123.438,118.021h.52148Z"/><path class="cls-2" d="M141.36257,120.74949a1.21969,1.21969,0,0,1-1.31933,1.28906,1.28512,1.28512,0,0,1-1.37305-.92285l.33008-.168a.93537.93537,0,0,0,1.03125.77344.90087.90087,0,0,0,.97754-.95313.87949.87949,0,0,0-.94727-.96,1.12442,1.12442,0,0,0-.9834.43164h-.2998l.21582-2.21875h2.20019v.31836h-1.91308l-.15528,1.46289-.00585.07813h.00585a1.24384,1.24384,0,0,1,.99512-.38965A1.18463,1.18463,0,0,1,141.36257,120.74949Z"/><path class="cls-2" d="M142.78542,119.23874a.29689.29689,0,1,1-.59375,0,.29689.29689,0,0,1,.59375,0Zm0,2.49414a.29689.29689,0,1,1-.2998-.2998A.28144.28144,0,0,1,142.78542,121.73288Z"/><path class="cls-2" d="M143.64382,120.00046c0-1.31933.50977-2.03906,1.45117-2.03906s1.45118.71973,1.45118,2.03906-.50977,2.03809-1.45118,2.03809S143.64382,121.3198,143.64382,120.00046Zm2.54883,0c0-1.12109-.38379-1.7334-1.09766-1.7334-.708,0-1.09765.61231-1.09765,1.7334s.38965,1.73242,1.09765,1.73242C145.80886,121.73288,146.19265,121.12156,146.19265,120.00046Z"/><path class="cls-2" d="M147.30984,120.00046c0-1.31933.50976-2.03906,1.45117-2.03906s1.45117.71973,1.45117,2.03906-.50976,2.03809-1.45117,2.03809S147.30984,121.3198,147.30984,120.00046Zm2.54883,0c0-1.12109-.38379-1.7334-1.09766-1.7334-.708,0-1.09766.61231-1.09766,1.7334s.38965,1.73242,1.09766,1.73242C149.47488,121.73288,149.85867,121.12156,149.85867,120.00046Z"/><path class="cls-2" d="M155.1448,120.7739h-1.87109l-.47364,1.20508h-.35937l1.57129-3.958h.40722l1.56543,3.958h-.35937Zm-.126-.31738-.64746-1.64942-.15527-.45605h-.0127l-.14355.4375-.66016,1.668Z"/><path class="cls-2" d="M160.46023,121.979h-.33008v-2.8418l.03613-.792-1.415,3.63379h-.30566l-1.40918-3.63379h-.00586l.03516.792v2.8418h-.32324v-3.958h.51562l1.12109,2.86133.21582.69531h.00586l.22266-.68945,1.11523-2.86719h.52149Z"/><path class="cls-2" d="M177.7559,118.98093a.9264.9264,0,0,1-.666.91113v.00586a1.06006,1.06006,0,0,1,.83984,1.03223c0,.6709-.56347,1.1084-1.40918,1.1084-.83984,0-1.40918-.4375-1.40918-1.1084a1.05942,1.05942,0,0,1,.84571-1.03223v-.00586a.9166.9166,0,0,1-.666-.91113c0-.624.47949-1.01367,1.22949-1.01367C177.26957,117.96726,177.7559,118.35691,177.7559,118.98093Zm-.17969,1.91895c0-.50391-.41992-.834-1.05567-.834-.624,0-1.05566.33008-1.05566.834,0,.498.41992.82129,1.05566.82129C177.16215,121.72117,177.57621,121.39792,177.57621,120.89988Zm-1.93164-1.88868c0,.44336.34863.73145.876.73145.53321,0,.88184-.28809.88184-.73145,0-.45019-.3418-.72558-.88184-.72558C175.98636,118.28562,175.64457,118.561,175.64457,119.0112Z"/><path class="cls-2" d="M179.38871,119.23874a.29689.29689,0,1,1-.59375,0,.29689.29689,0,0,1,.59375,0Zm0,2.49414a.29689.29689,0,1,1-.29981-.2998A.28145.28145,0,0,1,179.38871,121.73288Z"/><path class="cls-2" d="M180.24711,120.00046c0-1.31933.50976-2.03906,1.45117-2.03906s1.45117.71973,1.45117,2.03906-.50977,2.03809-1.45117,2.03809S180.24711,121.3198,180.24711,120.00046Zm2.54882,0c0-1.12109-.38378-1.7334-1.09765-1.7334-.708,0-1.09766.61231-1.09766,1.7334s.38965,1.73242,1.09766,1.73242C182.41215,121.73288,182.79593,121.12156,182.79593,120.00046Z"/><path class="cls-2" d="M183.91312,120.00046c0-1.31933.50977-2.03906,1.45117-2.03906s1.45118.71973,1.45118,2.03906-.50977,2.03809-1.45118,2.03809S183.91312,121.3198,183.91312,120.00046Zm2.54883,0c0-1.12109-.38379-1.7334-1.09766-1.7334-.708,0-1.09765.61231-1.09765,1.7334s.38965,1.73242,1.09765,1.73242C186.07816,121.73288,186.462,121.12156,186.462,120.00046Z"/><path class="cls-2" d="M191.74711,120.7739H189.876l-.47363,1.20508H189.043l1.57128-3.958h.40723l1.56543,3.958h-.35937Zm-.126-.31738-.64746-1.64942-.15527-.45605h-.0127l-.14355.4375-.66016,1.668Z"/><path class="cls-2" d="M197.06254,121.979h-.33008v-2.8418l.03613-.792-1.415,3.63379h-.30566l-1.40918-3.63379h-.00586l.03516.792v2.8418h-.32325v-3.958h.51563l1.12109,2.86133.21582.69531h.00586l.22266-.68945,1.11523-2.86719h.52149Z"/><path class="cls-2" d="M212.5374,118.021v3.958h-.34179v-2.97461c0-.16113.00585-.3418.01171-.52734a2.06735,2.06735,0,0,1-1.03711.624l-.08984-.30567a2.29992,2.29992,0,0,0,1.1582-.77441Z"/><path class="cls-2" d="M214.79326,118.021v3.958h-.3418v-2.97461c0-.16113.00586-.3418.01172-.52734a2.06735,2.06735,0,0,1-1.03711.624l-.08984-.30567a2.29992,2.29992,0,0,0,1.1582-.77441Z"/><path class="cls-2" d="M216.46123,119.23874a.29689.29689,0,1,1-.59375,0,.29689.29689,0,0,1,.59375,0Zm0,2.49414a.29689.29689,0,1,1-.29883-.2998A.28066.28066,0,0,1,216.46123,121.73288Z"/><path class="cls-2" d="M217.32061,120.00046c0-1.31933.50976-2.03906,1.45117-2.03906s1.45117.71973,1.45117,2.03906-.50977,2.03809-1.45117,2.03809S217.32061,121.3198,217.32061,120.00046Zm2.54882,0c0-1.12109-.38476-1.7334-1.09765-1.7334-.709,0-1.09766.61231-1.09766,1.7334s.38867,1.73242,1.09766,1.73242C219.48467,121.73288,219.86943,121.12156,219.86943,120.00046Z"/><path class="cls-2" d="M220.98662,120.00046c0-1.31933.50977-2.03906,1.45117-2.03906s1.45117.71973,1.45117,2.03906-.50976,2.03809-1.45117,2.03809S220.98662,121.3198,220.98662,120.00046Zm2.54883,0c0-1.12109-.38477-1.7334-1.09766-1.7334-.709,0-1.09765.61231-1.09765,1.7334s.38867,1.73242,1.09765,1.73242C223.15068,121.73288,223.53545,121.12156,223.53545,120.00046Z"/><path class="cls-2" d="M228.82061,120.7739h-1.8711l-.47461,1.20508h-.35937l1.57226-3.958h.40625l1.56641,3.958h-.35938Zm-.127-.31738-.64648-1.64942-.15625-.45605h-.01172l-.14453.4375-.66016,1.668Z"/><path class="cls-2" d="M234.137,121.979h-.33008v-2.8418l.03516-.792L232.428,121.979h-.30664l-1.40821-3.63379h-.00586l.03516.792v2.8418h-.32422v-3.958h.51563l1.12109,2.86133.2168.69531h.00586l.22265-.68945,1.11524-2.86719h.52148Z"/><path class="cls-2" d="M248.33453,121.69773c1.52344-1.16992,2.17774-1.76953,2.17774-2.51856a.859.859,0,0,0-.94141-.90039,1.01445,1.01445,0,0,0-1.03125,1.05567l-.30078-.17383a1.26189,1.26189,0,0,1,1.34375-1.19922,1.17086,1.17086,0,0,1,1.2832,1.21777c0,.78516-.61718,1.457-2.0332,2.48828v.00586c.10156-.00586.3418-.01171.4375-.01171h1.7168v.31738h-2.65235Z"/><path class="cls-2" d="M252.397,119.23874a.28422.28422,0,0,1-.30078.29981.28121.28121,0,0,1-.293-.29981.27654.27654,0,0,1,.293-.29394A.27966.27966,0,0,1,252.397,119.23874Zm0,2.49414a.28223.28223,0,0,1-.30078.294.2969.2969,0,0,1,0-.59375A.28422.28422,0,0,1,252.397,121.73288Z"/><path class="cls-2" d="M253.25446,120.00046c0-1.31933.50976-2.03906,1.45117-2.03906s1.45117.71973,1.45117,2.03906-.50977,2.03809-1.45117,2.03809S253.25446,121.3198,253.25446,120.00046Zm2.54882,0c0-1.12109-.38281-1.7334-1.09765-1.7334-.707,0-1.09766.61231-1.09766,1.7334s.39063,1.73242,1.09766,1.73242C255.42047,121.73288,255.80328,121.12156,255.80328,120.00046Z"/><path class="cls-2" d="M256.92047,120.00046c0-1.31933.50977-2.03906,1.45117-2.03906s1.45117.71973,1.45117,2.03906-.50976,2.03809-1.45117,2.03809S256.92047,121.3198,256.92047,120.00046Zm2.54883,0c0-1.12109-.38281-1.7334-1.09766-1.7334-.707,0-1.09765.61231-1.09765,1.7334s.39062,1.73242,1.09765,1.73242C259.08649,121.73288,259.4693,121.12156,259.4693,120.00046Z"/><path class="cls-2" d="M265.42047,119.19089c0,.72559-.52148,1.169-1.33594,1.169h-.99023V121.979h-.3418v-3.958h1.332C264.899,118.021,265.42047,118.46531,265.42047,119.19089Zm-.35351,0c0-.5459-.34766-.85156-1.0254-.85156h-.94726v1.70312h.94726C264.7193,120.04245,265.067,119.73679,265.067,119.19089Z"/><path class="cls-2" d="M270.022,121.979H269.692v-2.8418l.0371-.792-1.416,3.63379h-.30469l-1.41015-3.63379h-.00586l.03515.792v2.8418h-.32226v-3.958h.51562l1.1211,2.86133.21484.69531h.00586l.22265-.68945,1.11524-2.86719h.52148Z"/><rect class="cls-4" width="360" height="140"/><rect class="cls-4" x="99.9141" y="20" width="160.1718" height="80"/><rect class="cls-5" x="137.5859" y="42" width="85" height="38" rx="2"/><path class="cls-6" d="M220.58545,80.25035h-81a2.25309,2.25309,0,0,1-2.25-2.25v-34a2.25308,2.25308,0,0,1,2.25-2.25h81a2.25309,2.25309,0,0,1,2.25,2.25v34A2.25309,2.25309,0,0,1,220.58545,80.25035Zm-81-38a1.75212,1.75212,0,0,0-1.75,1.75v34a1.75213,1.75213,0,0,0,1.75,1.75h81a1.75213,1.75213,0,0,0,1.75-1.75v-34a1.75212,1.75212,0,0,0-1.75-1.75Z"/><path class="cls-1" d="M142.58545,65.25035h-1a.25.25,0,0,1,0-.5h1a.25.25,0,0,1,0,.5Z"/><path class="cls-1" d="M142.58545,60.25035h-1a.25.25,0,0,1,0-.5h1a.25.25,0,0,1,0,.5Z"/><path class="cls-1" d="M142.58545,70.25035h-1a.25.25,0,0,1,0-.5h1a.25.25,0,0,1,0,.5Z"/><path class="cls-1" d="M147.58545,76.25035a.25048.25048,0,0,1-.25-.25v-1a.25.25,0,0,1,.5,0v1A.25049.25049,0,0,1,147.58545,76.25035Z"/><path class="cls-1" d="M162.58545,76.25035a.25048.25048,0,0,1-.25-.25v-1a.25.25,0,0,1,.5,0v1A.25049.25049,0,0,1,162.58545,76.25035Z"/><path class="cls-1" d="M152.58545,76.25035a.25048.25048,0,0,1-.25-.25v-1a.25.25,0,0,1,.5,0v1A.25049.25049,0,0,1,152.58545,76.25035Z"/><circle class="cls-7" cx="217.5859" cy="60" r="1"/><path class="cls-6" d="M222.58545,46.25035h-85a.25.25,0,0,1,0-.5h85a.25.25,0,0,1,0,.5Z"/><path class="cls-6" d="M140.83545,45.00035a1,1,0,1,1,1-1A1.00067,1.00067,0,0,1,140.83545,45.00035Zm0-1.5a.5.5,0,1,0,.5.5A.501.501,0,0,0,140.83545,43.50035Z"/><path class="cls-6" d="M143.83545,45.00035a1,1,0,1,1,1-1A1.00067,1.00067,0,0,1,143.83545,45.00035Zm0-1.5a.5.5,0,1,0,.5.5A.501.501,0,0,0,143.83545,43.50035Z"/><path class="cls-6" d="M146.83545,45.00035a1,1,0,1,1,1-1A1.00067,1.00067,0,0,1,146.83545,45.00035Zm0-1.5a.5.5,0,1,0,.5.5A.501.501,0,0,0,146.83545,43.50035Z"/><path class="cls-7" d="M193.394,69.263c-2.2334,0-3.27929-3.57226-4.125-6.46a19.96572,19.96572,0,0,0-.9082-2.69336l-.082-.168c-.751-1.54785-3.03613-6.26855-4.60938-5.70312-1.55664.55371-1.89941,3.88281-2.23144,7.10254-.374,3.63769-.73145,7.08887-2.87207,6.9082-1.36035-.10351-1.71582-2.498-2.05957-4.81347-.2002-1.34473-.47364-3.18555-.9209-3.18555h0c-.59668,0-1.01856,1.24023-1.38965,2.334-.40527,1.19141-.78711,2.31739-1.50684,2.64356a1.02231,1.02231,0,0,1-.93261.00195c-.96582-.50488-1.36133-2.6543-1.81836-5.14355-.49512-2.69532-1.05664-5.75-2.36914-5.83692-.02539-.001-.05078-.002-.07617-.002-1.91993,0-3.61231,4.82226-4.43067,7.15625-.08887.252-.16894.48242-.24121.68164-.78516,2.17676-2.83691,7.16894-5.13184,7.16894-.041,0-.082-.001-.123-.00488-1.5791-.124-2.1377-2.58105-2.72949-5.18164-.52539-2.30664-1.06739-4.69238-2.27735-4.81836-.92969-.11621-1.67578,1.63281-2.38574,3.30762-.7334,1.72949-1.42578,3.36328-2.51758,3.68359-1.35351.40235-4.81543-1.77929-5.20508-2.03027a.24949.24949,0,1,1,.26953-.41992c1.00391.64355,3.82618,2.25488,4.79493,1.96972.86425-.25293,1.542-1.85156,2.19726-3.39746.81641-1.92773,1.57617-3.76172,2.89942-3.61132,1.56543.16406,2.12207,2.6123,2.71191,5.20507.52539,2.31055,1.06836,4.69922,2.28125,4.79493.02734.002.05469.00292.083.00292,1.61816,0,3.51562-3.65917,4.66211-6.83886.07226-.19824.15234-.42676.24023-.67774.92285-2.62988,2.62793-7.49023,4.90528-7.49023.03515,0,.07031.001.10644.00391,1.70117.1123,2.27441,3.22949,2.82813,6.24511.39746,2.16211.80761,4.39844,1.55761,4.79a.515.515,0,0,0,.49414-.01367c.52246-.23731.9043-1.35938,1.24024-2.34961.46679-1.374.9082-2.67285,1.8623-2.67285h.001c.87891,0,1.11523,1.59375,1.415,3.61133.28613,1.92285.6416,4.31543,1.60449,4.38965,1.67383.10156,2.00195-3.22364,2.335-6.46094.34863-3.374.708-6.86328,2.56152-7.52246,1.75586-.625,3.62989,2.65918,5.22754,5.956l.08106.167a19.827,19.827,0,0,1,.93945,2.77149c.82031,2.80273,1.86426,6.31543,3.81153,6.09179,1.21484-.12207,1.75976-2.499,2.28808-4.79785.59082-2.57422,1.14844-5.00586,2.70508-5.20117.97949-.10644,1.85156.95215,2.80078,2.084.77539.92675,1.57715,1.88378,2.24121,1.91113a4.85127,4.85127,0,0,0,2.13672-.97852c1.06055-.66015,2.15918-1.34277,2.95117-1.001.999.42871,1.67481,1.97265,2.39063,3.60644.74218,1.69531,1.53711,3.43653,2.49121,3.374,1.67773-.13184,3.29394-5.67969,3.77539-7.80665a.24512.24512,0,0,1,.2998-.18847.25134.25134,0,0,1,.18848.29883c-.18555.81933-1.87891,8.01074-4.22461,8.19433-.03613.00293-.07227.00488-.1084.00488-1.27148,0-2.05273-1.7871-2.87988-3.67675-.64551-1.47266-1.31152-2.9961-2.12988-3.34766-.55567-.24023-1.583.40234-2.48926.96582a5.02044,5.02044,0,0,1-2.42188,1.05469c-.88476-.03711-1.71972-1.03418-2.60351-2.08985-.82129-.98046-1.66992-1.9873-2.35547-1.90917-1.21.15136-1.75391,2.52343-2.28027,4.81738-.59375,2.584-1.15332,5.02539-2.72559,5.18359C193.5376,69.25914,193.46533,69.263,193.394,69.263Z"/><path class="cls-1" d="M157.58545,76.25035a.25048.25048,0,0,1-.25-.25v-1a.25.25,0,0,1,.5,0v1A.25049.25049,0,0,1,157.58545,76.25035Z"/><path class="cls-1" d="M167.58545,76.25035a.25048.25048,0,0,1-.25-.25v-1a.25.25,0,0,1,.5,0v1A.25049.25049,0,0,1,167.58545,76.25035Z"/><path class="cls-1" d="M172.58545,76.25035a.25048.25048,0,0,1-.25-.25v-1a.25.25,0,0,1,.5,0v1A.25049.25049,0,0,1,172.58545,76.25035Z"/><path class="cls-1" d="M169.08838,40.93394a.24837.24837,0,0,1-.17676-.07324l-1-1a.25.25,0,0,1,.35352-.35352l1,1a.25.25,0,0,1-.17676.42676Z"/><path class="cls-1" d="M171.08838,40.93394a.24837.24837,0,0,1-.17676-.07324l-2-2a.25.25,0,0,1,.35352-.35352l2,2a.25.25,0,0,1-.17676.42676Z"/><path class="cls-8" d="M167.41081,43.07134l-4.94975,4.94975c-.07811.0781-.29971-.01687-.495-.21213s-.29023-.41687-.21213-.495l4.94975-4.94975"/><path class="cls-6" d="M162.38623,48.2982a.9143.9143,0,0,1-.59668-.3125c-.31738-.31738-.40234-.6582-.21191-.84863l4.94922-4.94922a.25.25,0,1,1,.35351.35351L161.99268,47.43a.86746.86746,0,0,0,.35253.35254l4.88868-4.8877a.25.25,0,0,1,.35351.35352l-4.94922,4.94921A.34617.34617,0,0,1,162.38623,48.2982Z"/><path class="cls-8" d="M167.05715,42.71779a4,4,0,1,0,0-5.65686A4.0002,4.0002,0,0,0,167.05715,42.71779Zm.70727-4.94977a2.99991,2.99991,0,1,1,0,4.24267A2.99975,2.99975,0,0,1,167.76442,37.768Z"/><path class="cls-6" d="M169.88525,44.13707a4.23721,4.23721,0,0,1-3.00488-1.24219h0a4.25671,4.25671,0,1,1,3.00488,1.24219Zm-2.65136-1.59571a3.75029,3.75029,0,1,0,0-5.30371,3.75689,3.75689,0,0,0,0,5.30371Zm2.65136.59668a3.24853,3.24853,0,0,1-2.29785-5.54687h0a3.25034,3.25034,0,1,1,2.29785,5.54687Zm-1.94433-5.19336a2.7504,2.7504,0,1,0,3.88965,0,2.7555,2.7555,0,0,0-3.88965,0Z"/><path class="cls-9" d="M161.83136,33.79691c-.76484,2.31082-4.20418,4.17067-8.7761,3.25991a11.46453,11.46453,0,0,1-6.08556-4.02549s-7.99224.91825-8.21314-.43625c-.24331-1.49187,9.68246-2.7663,15.30946-2.0931,2.735.32721,4.35809,1.33837,5.65606.56654a10.48707,10.48707,0,0,1,4.12111-1.29527c1.63279-.05831,3.06381,1.77548,2.53666,2.47834-.6123.81639-1.70862.09525-2.53666.23326A2.72,2.72,0,0,0,161.83136,33.79691Z"/><path class="cls-6" d="M155.4126,37.5482a12.31,12.31,0,0,1-2.40625-.24609,11.748,11.748,0,0,1-6.15528-4.00586c-2.085.23242-8.10644.77929-8.34179-.66114a.67552.67552,0,0,1,.21679-.58789c1.34375-1.40136,10.1084-2.42187,15.36914-1.793a20.679,20.679,0,0,1,2.58692.50879c1.25879.3086,2.16992.53223,2.91211.09082a10.86178,10.86178,0,0,1,4.24023-1.33105,3.17457,3.17457,0,0,1,2.70508,1.64258,1.15531,1.15531,0,0,1,.04,1.23633c-.48535.64746-1.19531.5166-1.82227.40136a2.7255,2.7255,0,0,0-.873-.07129,2.49229,2.49229,0,0,0-1.81543,1.14356h0C161.41943,35.83726,158.96338,37.5482,155.4126,37.5482Zm-8.44336-4.7666a.248.248,0,0,1,.206.10937,11.29608,11.29608,0,0,0,5.92871,3.9209c4.3877.873,7.75977-.88769,8.49024-3.09277a2.9582,2.9582,0,0,1,2.208-1.48145,3.18751,3.18751,0,0,1,1.04492.07325c.6416.12011,1.04687.17089,1.332-.21.10547-.13964.07422-.40234-.083-.7041a2.58611,2.58611,0,0,0-2.24414-1.374,10.24857,10.24857,0,0,0-4.00195,1.26074c-.91895.54785-1.96289.291-3.28711-.03515a20.51037,20.51037,0,0,0-2.52637-.498c-5.29492-.63574-13.8291.47265-14.95019,1.64258-.043.04492-.0918.10937-.083.16211.10937.66992,4.1914.65918,7.9375.22851Zm14.8623,1.01562h0Z"/><path class="cls-10" d="M166.32961,32.42961c.13179.24.4704,1.25209.205,1.403s-.78554-1.0382-.78554-1.0382"/><path class="cls-6" d="M155.01416,35.26109a5.26744,5.26744,0,0,1-.9043-.0791,5.074,5.074,0,0,1-3.56933-2.2793.25029.25029,0,0,1,.44336-.23242,4.63037,4.63037,0,0,0,3.21093,2.01953A3.76461,3.76461,0,0,0,157.479,33.847a.25371.25371,0,0,1,.35352.01367.25016.25016,0,0,1-.01367.35352A4.04361,4.04361,0,0,1,155.01416,35.26109Z"/><path class="cls-6" d="M152.09229,41.6a.246.246,0,0,1-.16993-.06738.2489.2489,0,0,1-.08007-.19141l.15039-4.41309a.27192.27192,0,0,1,.25878-.24121.25.25,0,0,1,.24122.25879l-.14063,4.125,1.11816-.12012a.245.245,0,0,1,.2754.22266.25132.25132,0,0,1-.22266.27539l-1.4043.15039Z"/><path class="cls-6" d="M154.97705,41.45054a.2494.2494,0,0,1-.25-.24121l-.14258-3.92187a.25.25,0,0,1,.24121-.25879.24153.24153,0,0,1,.25879.24121l.13184,3.64258.96582-.14063a.2497.2497,0,0,1,.07226.49414l-1.24121.18164A.22456.22456,0,0,1,154.97705,41.45054Z"/><path class="cls-1" d="M187.58545,76.25035a.25048.25048,0,0,1-.25-.25v-1a.25.25,0,0,1,.5,0v1A.25049.25049,0,0,1,187.58545,76.25035Z"/><path class="cls-1" d="M177.58545,76.25035a.25048.25048,0,0,1-.25-.25v-1a.25.25,0,0,1,.5,0v1A.25049.25049,0,0,1,177.58545,76.25035Z"/><path class="cls-1" d="M182.58545,76.25035a.25048.25048,0,0,1-.25-.25v-1a.25.25,0,0,1,.5,0v1A.25049.25049,0,0,1,182.58545,76.25035Z"/><path class="cls-1" d="M217.58545,75.25035h-75a.25048.25048,0,0,1-.25-.25v-25a.25.25,0,0,1,.5,0v24.75h74.75a.25.25,0,0,1,0,.5Z"/><path class="cls-1" d="M192.58545,76.25035a.25048.25048,0,0,1-.25-.25v-1a.25.25,0,0,1,.5,0v1A.25049.25049,0,0,1,192.58545,76.25035Z"/><path class="cls-1" d="M197.58545,76.25035a.25048.25048,0,0,1-.25-.25v-1a.25.25,0,0,1,.5,0v1A.25049.25049,0,0,1,197.58545,76.25035Z"/><path class="cls-1" d="M207.58545,76.25035a.25048.25048,0,0,1-.25-.25v-1a.25.25,0,0,1,.5,0v1A.25049.25049,0,0,1,207.58545,76.25035Z"/><path class="cls-7" d="M202.58545,76.25035a.25048.25048,0,0,1-.25-.25v-1a.25.25,0,0,1,.5,0v1A.25049.25049,0,0,1,202.58545,76.25035Z"/><path class="cls-1" d="M212.58545,76.25035a.25048.25048,0,0,1-.25-.25v-1a.25.25,0,0,1,.5,0v1A.25049.25049,0,0,1,212.58545,76.25035Z"/><path class="cls-1" d="M142.58545,55.25035h-1a.25.25,0,0,1,0-.5h1a.25.25,0,0,1,0,.5Z"/><path class="cls-11" d="M194.92755,58.71985c0-.48975-.42969-.79932-1.07959-.79932a1.693,1.693,0,0,0-1.44922.73926l-1.209-.70947a3.18478,3.18478,0,0,1,2.82812-1.33936c1.49951,0,2.53857.66992,2.53857,1.84912,0,1.59913-1.67871,1.77881-1.67871,2.83839h-1.50927C193.36847,59.89905,194.92755,59.58948,194.92755,58.71985Zm-1.75928,4.17774a.96221.96221,0,0,1,1.91894,0,.96083.96083,0,0,1-1.91894,0Z"/><path class="cls-3" d="M198.81982,69.69957a.29006.29006,0,0,1-.041-.00293c-1.64453-.27442-3.53027-2.459-3.96777-3.50977a.24954.24954,0,1,1,.46093-.1914c.40039.96,2.19043,2.97461,3.58887,3.207a.2502.2502,0,0,1-.041.49707Z"/><path class="cls-12" d="M211.33406,77.09788c-2.75222-.11324-4.49935.45561-5.554-.62519-.81275-.8329-2.27176-5.90179-3.8776-5.12364-1.50239.728,1.27468,6.4885,1.45089,7.56047.39483,2.40187,3.01345,4.80224,7.67519,4.81363a17.91213,17.91213,0,0,0,6.40678-1.56106s6.995-3.63519,6.27785-4.80529c-.777-1.26781-7.03077,1.72861-7.03077,1.72861A9.897,9.897,0,0,0,211.33406,77.09788Z"/><path class="cls-6" d="M211.05225,83.973h-.02442c-4.876-.01269-7.52441-2.6123-7.92187-5.02246a13.418,13.418,0,0,0-.53809-1.58789c-1.09961-2.95215-1.9873-5.65039-.77441-6.23828a1.00272,1.00272,0,0,1,.80078-.04394c.96484.34277,1.75976,2.042,2.46191,3.541a8.55109,8.55109,0,0,0,.90235,1.67676c.65332.669,1.62793.63184,3.09961.57129.67089-.02637,1.42968-.05664,2.2871-.02149a10.09024,10.09024,0,0,1,5.36915,1.94532c1.34082-.63184,6.39453-2.90235,7.21191-1.56739a.64064.64064,0,0,1,.05957.52344c-.40723,1.46582-5.81934,4.31446-6.43555,4.63477-.12988.0498-.26269.10351-.4248.168A16.83045,16.83045,0,0,1,211.05225,83.973ZM202.2417,71.51793a.52178.52178,0,0,0-.22949.05566c-.9043.43848.39843,3.93457,1.02441,5.61426a12.9862,12.9862,0,0,1,.56348,1.68164c.36328,2.209,2.84375,4.5918,7.42969,4.60351h.02246a16.38271,16.38271,0,0,0,5.88769-1.38476c.167-.06738.30469-.12207.40918-.16016,2.22266-1.1582,5.89258-3.36718,6.15527-4.3125.02247-.084.00293-.11621-.0039-.12793-.40723-.667-3.79981.42871-6.71,1.82325a.24909.24909,0,0,1-.2666-.03223,9.72784,9.72784,0,0,0-5.2002-1.93067c-.83691-.03613-1.585-.00683-2.24609.02149-1.54785.05957-2.66993.10449-3.47657-.72168a8.06877,8.06877,0,0,1-.998-1.81445c-.59375-1.26953-1.40821-3.00879-2.17578-3.28125A.554.554,0,0,0,202.2417,71.51793Z"/><path class="cls-10" d="M201.69181,71.55788c-.283-.103-1.4874-.17444-1.607.13935s1.3077.5529,1.3077.5529"/><path class="cls-6" d="M211.564,81.67515c-.18847,0-.37988-.00781-.57226-.02539a4.63475,4.63475,0,0,1-3.53223-1.84765.25.25,0,1,1,.41992-.27149,4.14115,4.14115,0,0,0,3.15723,1.6211,4.31886,4.31886,0,0,0,3.49609-1.03321.25011.25011,0,1,1,.36524.3418A4.5901,4.5901,0,0,1,211.564,81.67515Z"/><path class="cls-6" d="M207.49072,88.4691a.21978.21978,0,0,1-.043-.00391l-1.39843-.24121a.24958.24958,0,0,1-.20313-.28906.244.244,0,0,1,.28906-.20313l1.14746.19825.7002-4.45508a.25014.25014,0,1,1,.49414.07812l-.73926,4.70508a.25071.25071,0,0,1-.24707.21094Z"/><path class="cls-6" d="M211.62354,88.6605h0l-1.29981-.00195a.25.25,0,0,1,0-.5h0l1.06055.00195.19824-4.417a.26637.26637,0,0,1,.26074-.23926.25067.25067,0,0,1,.23926.26075l-.209,4.65625A.25034.25034,0,0,1,211.62354,88.6605Z"/><path class="cls-13" d="M237.716,75.70785l-.5,6.16924c0,.49705-1.34315.9-3,.9s-3-.403-3-.9l-.5-6.16924"/><path class="cls-6" d="M234.21631,83.02672c-1.56543,0-3.25-.35938-3.25-1.14942l-.499-6.14941a.249.249,0,0,1,.22851-.26953.242.242,0,0,1,.26953.22851l.5,6.16992c.001.209.96485.66993,2.751.66993s2.75-.46094,2.75-.64942l.501-6.19043a.24243.24243,0,0,1,.26953-.22851.249.249,0,0,1,.22851.26953l-.5,6.16992C237.46631,82.66734,235.78174,83.02672,234.21631,83.02672Z"/><ellipse class="cls-13" cx="234.21597" cy="75.70785" rx="3.5" ry="1.05"/><path class="cls-6" d="M234.21631,77.00816c-1.86328,0-3.75-.44726-3.75-1.30078,0-1.707,7.5-1.707,7.5,0C237.96631,76.5609,236.07959,77.00816,234.21631,77.00816Zm0-2.10058c-2.10254,0-3.25.52832-3.25.7998s1.14746.80078,3.25.80078,3.25-.5293,3.25-.80078S236.31885,74.90758,234.21631,74.90758Z"/><path class="cls-5" d="M234.31725,76.05441c.03515-.492-.35145-3.65511-.28116-4.25258"/><path class="cls-6" d="M234.31689,76.30406l-.01757-.001a.24943.24943,0,0,1-.23145-.2666c.01367-.19824-.05762-.98144-.126-1.73828a21.40731,21.40731,0,0,1-.15429-2.52539.24977.24977,0,1,1,.49609.05859,23.33289,23.33289,0,0,0,.15625,2.4209c.08887.98047.14258,1.59278.126,1.81934A.24964.24964,0,0,1,234.31689,76.30406Z"/><path class="cls-7" d="M237.06452,70.29232c-.41583-.3128-.69124.09774-1.11831-.42941s.49457-.65749.0675-1.18464-.79015.22924-1.15089-.65982-.88556-2.10745-1.5128-.72615,1.01706,2.20636-.26649,2.27036.68264,1.66271-.20642,2.02345-1.211-.41291-1.93595.27716,1.2481,2.17627,2.69534,1.14137c1.44789-1.03536,2.92877,1.23608,3.42334.5786s-.4934-.16525-.16291-1.15206S237.459,70.58906,237.06452,70.29232Z"/><path class="cls-6" d="M236.8335,73.95836a2.13055,2.13055,0,0,1-.95411-.40918c-.64941-.39942-1.38183-.85157-2.09765-.3418a2.27137,2.27137,0,0,1-2.98438-.36035A.81376.81376,0,0,1,230.769,71.683a1.12794,1.12794,0,0,1,1.22364-.30469,1.17932,1.17932,0,0,0,.791-.02344c.043-.01758.06836-.03711.07617-.05762.04493-.11718-.1123-.43945-.21679-.65332-.17871-.36523-.36328-.74218-.1875-1.041a.73351.73351,0,0,1,.61523-.29.64453.64453,0,0,0,.292-.05078.95306.95306,0,0,1-.13574-.25489,2.04987,2.04987,0,0,1-.10449-1.81835c.08691-.19141.34961-.76954.80469-.76954h.01074c.50976.01075.82519.68848,1.15625,1.50586.13379.32618.19824.32325.36523.30371a.76322.76322,0,0,1,.749.292.64682.64682,0,0,1-.0293.90039c-.12012.15918-.12988.17187-.03906.28418a.44522.44522,0,0,0,.43554.20312.87274.87274,0,0,1,.63965.1836h0c.53809.40527.28125,1.335-.08105,2.418-.10938.32618-.04785.36036.05273.417a.45275.45275,0,0,1,.25684.29492.67057.67057,0,0,1-.1836.51172A.513.513,0,0,1,236.8335,73.95836Zm-2.37793-1.47754a3.37727,3.37727,0,0,1,1.68554.64258c.27442.16894.65137.39843.71973.30957.02539-.03516.04395-.0625.05762-.084-.26953-.1709-.45313-.415-.25879-.99707.17773-.53223.54883-1.63867.25488-1.85937h0a.42783.42783,0,0,0-.33594-.084.90593.90593,0,0,1-.82715-.38867.64682.64682,0,0,1,.0293-.90039c.12012-.15918.12988-.17188.03906-.28418-.10351-.127-.1582-.12109-.31445-.1084-.30664.0293-.624.00293-.874-.61426-.32031-.78906-.55664-1.19043-.70313-1.19336h-.001c-.03711,0-.17188.085-.34961.47657a1.57526,1.57526,0,0,0,.10644,1.40722c.11719.26465.22852.51367.09082.73731a.798.798,0,0,1-.67871.27246c-.1709.00781-.21094.0459-.21191.04687-.03028.07911.125.39453.208.56446a1.4164,1.4164,0,0,1,.23535,1.05078.6.6,0,0,1-.35645.34277,1.62614,1.62614,0,0,1-1.0918.04688.65478.65478,0,0,0-.7666.17968c-.15234.14649-.04687.34375.06934.48438a1.78144,1.78144,0,0,0,2.30859.27246A1.62157,1.62157,0,0,1,234.45557,72.48082Z"/><path class="cls-14" d="M123.10969,75.783c2.74573-.22015,4.60173.51759,5.65639-.56321.81275-.8329,2.96366-5.95086,4.62049-5.41536,1.50787.48736-2.12,6.71824-2.29616,7.79021-.39483,2.40187-3.01346,4.80224-7.67519,4.81363-2.84991.007-5.789-.94619-6.69038-1.82559,0,0-7.07384,2.75394-7.55826,1.46989C108.633,80.63825,117.46069,76.23589,123.10969,75.783Z"/><path class="cls-6" d="M123.38428,82.65855c-2.81055,0-5.65723-.90234-6.71192-1.78808-1.06152.40722-6.02148,2.24218-7.35937,1.65039a.681.681,0,0,1-.38086-.38086.81805.81805,0,0,1,.13672-.73633c1.22265-1.92871,9.09472-5.47559,14.02148-5.87012h0a19.22718,19.22718,0,0,1,2.66211.00488c1.30078.06836,2.23926.11622,2.835-.49316a10.81339,10.81339,0,0,0,.9668-1.52148c1.13184-1.959,2.53516-4.39454,3.90918-3.958a.718.718,0,0,1,.44433.41015c.39844.91114-.54785,3.10157-1.73046,5.65723a14.41732,14.41732,0,0,0-.83985,2.00293c-.39648,2.41016-3.04394,5.00977-7.9209,5.02246Zm-6.65918-2.32617a.24842.24842,0,0,1,.1748.07129c.85254.832,3.72168,1.75488,6.48535,1.75488h.0293c4.58691-.01172,7.06641-2.39453,7.42871-4.60449a12.87082,12.87082,0,0,1,.88086-2.13086c.77246-1.6709,2.06641-4.46777,1.72559-5.24707a.21913.21913,0,0,0-.14063-.13379c-.98535-.31445-2.44726,2.2168-3.32226,3.73242a10.27,10.27,0,0,1-1.042,1.62012c-.75293.77051-1.84179.71582-3.21875.64258a19.20751,19.20751,0,0,0-2.59668-.00586c-4.98535.40039-12.583,3.97461-13.63867,5.63965a.38853.38853,0,0,0-.08984.293c.00488.01367.02148.05761.11621.09961.9248.41894,4.76465-.79883,7.11719-1.71485A.26648.26648,0,0,1,116.7251,80.33238Z"/><path class="cls-10" d="M133.69905,70.42224c.29.0528,1.36572.457,1.31168.78118s-1.40093-.04838-1.40093-.04838"/><path class="cls-6" d="M123.5376,80.19175a4.49239,4.49239,0,0,1-3.43067-1.28613.25.25,0,0,1,.38868-.31445,4.1621,4.1621,0,0,0,3.333,1.09375,3.999,3.999,0,0,0,3.19336-1.49121.24946.24946,0,0,1,.416.27539,4.48719,4.48719,0,0,1-3.585,1.71582C123.74756,80.1898,123.64209,80.19175,123.5376,80.19175Z"/><path class="cls-6" d="M126.80713,86.96812H125.6499a.2495.2495,0,0,1-.249-.23144l-.332-4.46a.24888.24888,0,0,1,.23047-.26758.24158.24158,0,0,1,.26757.23047l.31543,4.22851h.92481a.25.25,0,0,1,0,.5Z"/><path class="cls-6" d="M124.01611,86.96812h-1.1914a.25048.25048,0,0,1-.25-.25V82.39586a.25.25,0,0,1,.5,0v4.07226h.9414a.25.25,0,0,1,0,.5Z"/><path class="cls-11" d="M148.45,56.93867c0-.48975-.42969-.79932-1.07959-.79932a1.693,1.693,0,0,0-1.44922.73926l-1.209-.70947a3.18478,3.18478,0,0,1,2.82812-1.33936c1.49951,0,2.53858.66992,2.53858,1.84912,0,1.59913-1.67871,1.77881-1.67871,2.83839h-1.50928C146.89092,58.11787,148.45,57.8083,148.45,56.93867Zm-1.75928,4.17774a.96222.96222,0,0,1,1.91895,0,.96084.96084,0,0,1-1.91895,0Z"/><path class="cls-3" d="M139.41943,69.182a.24989.24989,0,0,1-.02929-.498,9.78476,9.78476,0,0,0,7.36425-4.67871.24939.24939,0,0,1,.42579.25977,10.26894,10.26894,0,0,1-7.73145,4.915Z"/></g></g></svg>