<svg xmlns="http://www.w3.org/2000/svg" width="270" height="140" viewBox="0 0 270 140"><defs><style>.cls-1{fill:#ddd;}.cls-2{fill:#fff;}.cls-3{fill:gray;}.cls-4{fill:#aaa;}.cls-5{fill:none;}.cls-10,.cls-6{fill:#053437;}.cls-7{fill:#33d67b;}.cls-8{fill:#f7ce05;}.cls-10,.cls-12,.cls-14,.cls-8,.cls-9{fill-rule:evenodd;}.cls-9{fill:#caecf9;}.cls-11{fill:#553bf2;}.cls-12{fill:#f0403d;}.cls-13{fill:#f47925;}.cls-14{fill:#f6e55a;}</style></defs><g id="Layer_2" data-name="Layer 2"><g id="Layer_2-2" data-name="Layer 2"><path class="cls-1" d="M78.78271,105.47691a.49994.49994,0,0,1-.02929-.999,9.78581,9.78581,0,0,0,1.85742-.29.5.5,0,1,1,.24805.96875,10.79286,10.79286,0,0,1-2.04688.31933Zm-3.93359-.459a.4854.4854,0,0,1-.13867-.01953,15.09676,15.09676,0,0,1-1.92969-.709.50014.50014,0,0,1,.40625-.91406,13.98974,13.98974,0,0,0,1.80078.66211.5.5,0,0,1-.13867.98047Zm9.46289-1.52442a.5.5,0,0,1-.28711-.90918,13.93052,13.93052,0,0,0,1.49121-1.21386.50027.50027,0,1,1,.68164.73242,15.0572,15.0572,0,0,1-1.59863,1.2998A.49747.49747,0,0,1,84.312,103.49351Zm-14.76465-1.17578a.499.499,0,0,1-.293-.09473c-.52929-.38378-1.06835-.80566-1.60156-1.25683a.49965.49965,0,0,1,.64453-.76367c.51465.43457,1.03418.84179,1.543,1.21a.5.5,0,0,1-.293.90527Zm18.92871-3.08887a.5.5,0,0,1-.40429-.79394q.564-.77784,1.10058-1.63086a.49988.49988,0,0,1,.84571.5332c-.37207.59082-.75489,1.15821-1.1377,1.68555A.498.498,0,0,1,88.47607,99.22886ZM65.0835,98.32164a.49961.49961,0,0,1-.36426-.15723q-.68262-.72655-1.35254-1.50781a.50006.50006,0,1,1,.75976-.65039q.65333.76319,1.32129,1.47265a.5.5,0,0,1-.36425.84278Zm26.47461-4.23926a.50029.50029,0,0,1-.44532-.72656q.44238-.87159.8711-1.78614a.49976.49976,0,1,1,.90429.42579q-.43506.92724-.88476,1.81347A.49848.49848,0,0,1,91.55811,94.08238Zm-30.30762-.38477a.49668.49668,0,0,1-.40039-.20117q-.59766-.7998-1.18164-1.63574a.50066.50066,0,1,1,.82031-.57422q.57568.82325,1.16211,1.61231a.49931.49931,0,0,1-.40039.79882Zm-3.38672-4.96386a.49914.49914,0,0,1-.42285-.2334q-.5332-.84667-1.05664-1.71387a.50026.50026,0,1,1,.85742-.51562q.51709.85839,1.04492,1.69629a.49948.49948,0,0,1-.15625.68945A.49341.49341,0,0,1,57.86377,88.73375Zm36.18652-.11817a.48875.48875,0,0,1-.1914-.03808.49991.49991,0,0,1-.27051-.65332q.37939-.91407.751-1.84864a.50032.50032,0,1,1,.92968.37012q-.375.94042-.75683,1.86133A.50018.50018,0,0,1,94.05029,88.61558Zm60.43946-4.13769a.49995.49995,0,0,1-.0293-.999,10.56389,10.56389,0,0,0,1.86719-.27539.50025.50025,0,0,1,.23437.97266,11.6334,11.6334,0,0,1-2.043.30078Zm-3.9043-.62012a.49882.49882,0,0,1-.17871-.0332,13.02378,13.02378,0,0,1-1.86524-.89746.49966.49966,0,0,1,.5-.86524,12.12439,12.12439,0,0,0,1.72266.8291.49994.49994,0,0,1-.17871.9668Zm-95.77832-.29883a.49911.49911,0,0,1-.43652-.25683q-.48927-.876-.9629-1.76661a.49937.49937,0,1,1,.88086-.4707q.47169.88038.95508,1.751a.50019.50019,0,0,1-.43652.74316Zm109.40723-5.22558a.5.5,0,0,1-.40723-.79c.36035-.50586.72266-1.05762,1.07617-1.64063a.50043.50043,0,1,1,.85547.51953c-.36719.60352-.74316,1.17578-1.11719,1.70118A.50063.50063,0,0,1,164.21436,78.33336Zm-112.208-.09375a.50132.50132,0,0,1-.44727-.27637q-.4497-.89941-.88574-1.79785a.50053.50053,0,1,1,.90039-.4375q.43359.895.87988,1.78808a.5.5,0,0,1-.44726.72364ZM98.33643,77.389a.49959.49959,0,0,1-.46875-.6748l.70312-1.87891a.50006.50006,0,1,1,.93555.35352l-.70117,1.875A.50006.50006,0,0,1,98.33643,77.389Zm43.10449-1.1084a.49684.49684,0,0,1-.38281-.17871c-.42579-.50683-.85059-1.0293-1.27442-1.56152a.5004.5004,0,1,1,.7832-.62305q.627.78956,1.25684,1.542a.5.5,0,0,1-.38281.82129Zm25.75488-3.15039a.49984.49984,0,0,1-.45215-.71387q.41895-.88183.81739-1.80957a.5.5,0,1,1,.918.39649c-.2705.62793-.54785,1.24316-.83105,1.84082A.50089.50089,0,0,1,167.1958,73.13023ZM49.41553,72.81968a.50141.50141,0,0,1-.45508-.292q-.42041-.92139-.82617-1.832a.50014.50014,0,1,1,.91406-.40625q.40283.90528.82227,1.82227a.49964.49964,0,0,1-.45508.708Zm51.06836-1.04394a.51641.51641,0,0,1-.18555-.03516.502.502,0,0,1-.2793-.65039q.37647-.939.76075-1.8623a.49985.49985,0,1,1,.92187.38672q-.38232.91259-.75293,1.84668A.50118.50118,0,0,1,100.48389,71.77574Zm37.25683-.22754a.49987.49987,0,0,1-.40136-.20117q-.5962-.80274-1.19043-1.61621a.49965.49965,0,0,1,.80664-.58985q.59325.81006,1.18652,1.6084a.50049.50049,0,0,1-.40137.79883Zm31.75782-3.9668a.48634.48634,0,0,1-.17286-.03125.49923.49923,0,0,1-.29589-.6416q.3413-.92579.67285-1.87793a.49972.49972,0,1,1,.94336.33008q-.33546.95948-.67871,1.89355A.49954.49954,0,0,1,169.49854,67.5814ZM46.99561,67.31383a.50059.50059,0,0,1-.46094-.30567q-.3955-.939-.77246-1.85449a.49963.49963,0,0,1,.92383-.38086q.37646.91113.7705,1.84668a.49975.49975,0,0,1-.46093.69434Zm87.19824-.61622a.49923.49923,0,0,1-.40332-.20507q-.59327-.81006-1.18457-1.61133a.49981.49981,0,1,1,.80273-.59571q.59473.80274,1.18848,1.61719a.5001.5001,0,0,1-.40332.79492Zm-31.33594-.44238a.49516.49516,0,0,1-.21191-.04687.50044.50044,0,0,1-.24121-.665q.435-.92578.88574-1.81348a.49963.49963,0,1,1,.89062.45313q-.44238.87158-.87011,1.78418A.5014.5014,0,0,1,102.85791,66.25523Zm126.49121-3.8789a.49857.49857,0,0,1-.43066-.2461c-.2666-.4541-.61231-1.03418-1.02832-1.7207a.49993.49993,0,1,1,.85547-.51758c.418.69043.76562,1.27441,1.03418,1.73047a.5.5,0,0,1-.43067.75391Zm-98.76953-.48047a.49932.49932,0,0,1-.39258-.19043c-.417-.52735-.834-1.044-1.25195-1.54493a.49989.49989,0,1,1,.76758-.64062q.63573.76318,1.26953,1.56641a.5.5,0,0,1-.39258.80957ZM171.439,61.892a.51544.51544,0,0,1-.15234-.02344.50059.50059,0,0,1-.32422-.6289q.30322-.94776.60156-1.90821a.50037.50037,0,0,1,.95508.29883q-.30175.9624-.60351,1.91406A.50136.50136,0,0,1,171.439,61.892ZM44.73,61.74156a.50134.50134,0,0,1-.46582-.31738q-.37647-.95948-.72559-1.874a.49984.49984,0,0,1,.9336-.35742q.34863.90968.72363,1.86621a.49956.49956,0,0,1-.46582.68262Zm60.96-.7793a.49976.49976,0,0,1-.4248-.76465q.54784-.87889,1.123-1.69043a.49939.49939,0,0,1,.81446.57813c-.37207.52441-.73438,1.07324-1.08789,1.6416A.50207.50207,0,0,1,105.68994,60.96226Zm20.95117-3.59765a.49835.49835,0,0,1-.35644-.14942c-.47559-.4834-.95508-.93945-1.42481-1.35644a.50014.50014,0,0,1,.66407-.748c.48632.43164.98242.90332,1.47363,1.40332a.5.5,0,0,1-.35645.85059Zm99.56055-.124a.50032.50032,0,0,1-.42187-.23144c-.3418-.53711-.70215-1.10059-1.082-1.68457a.50057.50057,0,1,1,.83985-.54492q.56982.88184,1.08594,1.69238a.5.5,0,0,1-.42188.76855ZM109.355,56.23375a.5.5,0,0,1-.35254-.8545,16.87862,16.87862,0,0,1,1.53711-1.35937.49968.49968,0,1,1,.61328.78906,16.01556,16.01556,0,0,0-1.44531,1.2793A.50093.50093,0,0,1,109.355,56.23375Zm63.85938-.085a.49972.49972,0,0,1-.47852-.64551l.583-1.91992a.50015.50015,0,0,1,.957.291l-.583,1.91992A.49974.49974,0,0,1,173.21436,56.14879ZM42.60205,56.11168a.50152.50152,0,0,1-.4707-.33008q-.36036-.999-.67774-1.89258a.50037.50037,0,0,1,.94336-.334q.31349.88916.67578,1.88671a.50109.50109,0,0,1-.30078.64063A.51411.51411,0,0,1,42.60205,56.11168ZM121.96436,53.638a.50555.50555,0,0,1-.24219-.0625,10.908,10.908,0,0,0-1.73535-.78125.49968.49968,0,1,1,.32422-.94531,11.83438,11.83438,0,0,1,1.8955.85156.5.5,0,0,1-.24218.9375Zm-7.667-.67187a.49995.49995,0,0,1-.1709-.96973,11.51969,11.51969,0,0,1,1.7754-.49219l.24707-.043a.5.5,0,1,1,.15234.98828l-.21.03711a10.51171,10.51171,0,0,0-1.623.44922A.497.497,0,0,1,114.29736,52.96617Zm108.60547-.75684a.4995.4995,0,0,1-.41406-.21972q-.54931-.813-1.12988-1.64942a.50034.50034,0,1,1,.82226-.57031q.583.84228,1.13574,1.65918a.5.5,0,0,1-.41406.78027ZM40.61963,50.42125a.50061.50061,0,0,1-.47461-.3418c-.41309-1.23926-.62891-1.93555-.62891-1.93555a.50008.50008,0,0,1,.95508-.29687c.001.0039.21485.69238.623,1.916a.49952.49952,0,0,1-.47461.65821Zm134.35644-.02442a.49514.49514,0,0,1-.14941-.02246.501.501,0,0,1-.32812-.627q.30176-.96095.60839-1.91309a.49969.49969,0,0,1,.95118.30664q-.30469.94776-.6045,1.90528A.501.501,0,0,1,174.97607,50.39683Zm44.47461-3.11133a.498.498,0,0,1-.40429-.206q-.58155-.7998-1.18457-1.6084a.49961.49961,0,1,1,.80078-.59765q.60791.81152,1.19238,1.61816a.5.5,0,0,1-.4043.79394Zm-3.63086-4.79394a.49645.49645,0,0,1-.3916-.18945q-.61962-.78077-1.251-1.55469a.49966.49966,0,1,1,.77343-.63281q.63721.7793,1.26075,1.5664a.5.5,0,0,1-.39161.81055Zm-36.79-3.40527a.51613.51613,0,0,1-.19922-.041.50135.50135,0,0,1-.25977-.6582c.27246-.626.55078-1.24024.83594-1.83789a.49971.49971,0,0,1,.90234.42968q-.41894.88184-.82031,1.80664A.5.5,0,0,1,179.02979,39.08629Zm32.94335-1.21a.49668.49668,0,0,1-.375-.169q-.6621-.75-1.334-1.47949a.49966.49966,0,1,1,.73438-.67774q.67968.73681,1.3496,1.49512a.5.5,0,0,1-.375.83106Zm-30.22753-4.13965a.5.5,0,0,1-.42774-.75879c.35742-.59278.73047-1.166,1.10742-1.7041a.49986.49986,0,0,1,.81836.57421c-.36328.51954-.72363,1.07422-1.07031,1.64747A.499.499,0,0,1,181.74561,33.73668Zm26.09277-.22266a.49614.49614,0,0,1-.34863-.1416q-.7207-.70166-1.44532-1.36035a.49984.49984,0,1,1,.67188-.74024q.73828.66943,1.4707,1.38379a.5.5,0,0,1-.34863.8584Zm-4.53223-3.93848a.49972.49972,0,0,1-.30078-.10058q-.80567-.60792-1.60742-1.14453a.5.5,0,1,1,.55469-.832c.5498.36621,1.10156.76074,1.65429,1.17773a.5.5,0,0,1-.30078.89941Zm-17.90234-.5625a.5.5,0,0,1-.34766-.85937,15.6543,15.6543,0,0,1,1.56641-1.33106.5.5,0,0,1,.59375.80469,14.47732,14.47732,0,0,0-1.46485,1.24512A.50051.50051,0,0,1,185.40381,29.013ZM198.18213,26.474a.50123.50123,0,0,1-.2002-.042,14.58931,14.58931,0,0,0-1.8125-.65625.49856.49856,0,0,1-.34375-.61719.4923.4923,0,0,1,.61719-.34375,15.46524,15.46524,0,0,1,1.93945.70117.49995.49995,0,0,1-.20019.958Zm-7.76074-.583a.50011.50011,0,0,1-.15528-.97558,11.92571,11.92571,0,0,1,1.64551-.41211c.12891-.02344.25879-.043.38867-.05957a.50014.50014,0,0,1,.127.99219c-.11426.01464-.22852.03222-.3418.05175a11.03738,11.03738,0,0,0-1.50879.37891A.50522.50522,0,0,1,190.42139,25.891Z"/><rect class="cls-2" x="34.99383" y="41.99559" width="5" height="74"/><rect class="cls-2" x="130.72983" y="16.25959" width="10" height="197.472" transform="translate(250.72542 -20.73424) rotate(90)"/><rect class="cls-2" x="36.99382" y="45.99559" width="3" height="6"/><path class="cls-1" d="M229.99951,110.24547H39.99365a.25049.25049,0,0,1-.25-.25v-100a.25.25,0,1,1,.5,0v99.75H229.99951a.25.25,0,0,1,0,.5Z"/><path class="cls-3" d="M223.86134,131.49459v.4502h-2.74609v-3.958h.47851v3.50781Z"/><path class="cls-3" d="M227.31056,131.56686l-.0293.37793a1.07716,1.07716,0,0,1-.35937.05957.47019.47019,0,0,1-.53906-.44336,1.18547,1.18547,0,0,1-.9668.44336c-.5625,0-1.01953-.26368-1.01953-.80372,0-.44921.39648-.80371,1.16992-.93554l.79687-.13184v-.168a.62919.62919,0,0,0-.70117-.65918.87769.87769,0,0,0-.85742.56934l-.35352-.25781a1.22032,1.22032,0,0,1,1.21094-.73145c.6836,0,1.18164.32422,1.18164,1.01953v1.47559c0,.14355.06055.21582.22852.21582A1.04751,1.04751,0,0,0,227.31056,131.56686Zm-.94727-.62989v-.41406l-.67187.126c-.52734.09668-.79688.2705-.79688.55175,0,.252.20313.38379.54493.38379C225.91993,131.58443,226.36329,131.33248,226.36329,130.937Z"/><path class="cls-3" d="M229.72462,131.73482a1.11766,1.11766,0,0,1-.77344.26954.753.753,0,0,1-.834-.80372v-1.84082h-.59961v-.41406h.59961V128.227l.48047-.13281v.85156H229.707v.41406h-1.10937v1.75684a.40683.40683,0,0,0,.44922.43848.68393.68393,0,0,0,.50976-.22266Z"/><path class="cls-3" d="M232.95118,130.62545h-2.25976a.94857.94857,0,0,0,.97656.959.81138.81138,0,0,0,.8457-.44336l.40235.21a1.28541,1.28541,0,0,1-1.24805.65332,1.38968,1.38968,0,0,1-1.45117-1.5586,1.36424,1.36424,0,0,1,1.416-1.55957,1.29855,1.29855,0,0,1,1.34179,1.40332A2.4189,2.4189,0,0,1,232.95118,130.62545Zm-2.2539-.42578h1.8164c-.0664-.55176-.37109-.89356-.88085-.89356A.903.903,0,0,0,230.69728,130.19967Z"/><path class="cls-3" d="M233.61915,131.32662l.39063-.26953a.93519.93519,0,0,0,.94726.52734c.49219,0,.72461-.19726.72461-.44336,0-.22168-.18554-.35351-.78515-.46191-.85157-.15625-1.16407-.38965-1.16407-.89355,0-.48536.45118-.89942,1.18165-.89942a1.08386,1.08386,0,0,1,1.1875.71973l-.40821.24023a.72887.72887,0,0,0-.77929-.54c-.4004,0-.70118.21582-.70118.4375,0,.25782.19727.38965.81055.49219.83789.1377,1.13867.38965,1.13867.88086,0,.52246-.48633.8877-1.2539.8877A1.36855,1.36855,0,0,1,233.61915,131.32662Z"/><path class="cls-3" d="M238.88478,131.73482a1.11768,1.11768,0,0,1-.77344.26954.7538.7538,0,0,1-.834-.80372v-1.84082h-.59961v-.41406h.59961V128.227l.48047-.13281v.85156h1.10937v.41406h-1.10937v1.75684a.40682.40682,0,0,0,.44921.43848.67769.67769,0,0,0,.50977-.22266Z"/><path class="cls-4" d="M67.94818,118.01656v3.958h-.3418V119c0-.16211.00586-.3418.01172-.52734a2.0588,2.0588,0,0,1-1.03711.623l-.08984-.30566a2.30418,2.30418,0,0,0,1.1582-.77344Z"/><path class="cls-4" d="M70.204,118.01656v3.958h-.3418V119c0-.16211.00586-.3418.01172-.52734a2.0588,2.0588,0,0,1-1.03711.623L68.747,118.79a2.30418,2.30418,0,0,0,1.1582-.77344Z"/><path class="cls-4" d="M71.872,119.23336a.2969.2969,0,1,1-.59375,0,.2969.2969,0,0,1,.59375,0Zm0,2.49512a.29689.29689,0,1,1-.29883-.29981A.28117.28117,0,0,1,71.872,121.72848Z"/><path class="cls-4" d="M72.73138,119.99508c0-1.31934.50977-2.03809,1.45117-2.03809s1.45118.71875,1.45118,2.03809-.50977,2.03906-1.45118,2.03906S72.73138,121.31441,72.73138,119.99508Zm2.54883,0c0-1.1211-.38476-1.73242-1.09766-1.73242-.709,0-1.09765.61132-1.09765,1.73242,0,1.12207.38867,1.7334,1.09765,1.7334C74.89545,121.72848,75.28021,121.11715,75.28021,119.99508Z"/><path class="cls-4" d="M76.3974,119.99508c0-1.31934.50976-2.03809,1.45117-2.03809s1.45117.71875,1.45117,2.03809-.50976,2.03906-1.45117,2.03906S76.3974,121.31441,76.3974,119.99508Zm2.54883,0c0-1.1211-.38477-1.73242-1.09766-1.73242-.709,0-1.09766.61132-1.09766,1.73242,0,1.12207.38868,1.7334,1.09766,1.7334C78.56146,121.72848,78.94623,121.11715,78.94623,119.99508Z"/><path class="cls-4" d="M84.8974,119.18551c0,.72558-.52149,1.16992-1.33789,1.16992h-.98828v1.61914h-.3418v-3.958h1.33008C84.37591,118.01656,84.8974,118.45992,84.8974,119.18551Zm-.35352,0c0-.54492-.34765-.85156-1.02539-.85156h-.94726v1.70312h.94726C84.19623,120.03707,84.54388,119.73141,84.54388,119.18551Z"/><path class="cls-4" d="M89.499,121.97457h-.33008V119.1318l.03516-.791L87.79,121.97457h-.30664l-1.40821-3.63379h-.00586l.03516.791v2.84277h-.32422v-3.958h.51563l1.12109,2.86035.2168.69532h.00586l.22265-.68946,1.11524-2.86621H89.499Z"/><path class="cls-4" d="M105.176,121.69234c1.52344-1.16894,2.17773-1.76855,2.17773-2.51855a.85828.85828,0,0,0-.9414-.89941,1.01444,1.01444,0,0,0-1.03125,1.05566l-.30079-.17383A1.2619,1.2619,0,0,1,106.424,117.957a1.17064,1.17064,0,0,1,1.28321,1.2168c0,.78613-.61719,1.457-2.03321,2.48828v.00684c.10157-.00684.3418-.0127.4375-.0127h1.7168v.31836H105.176Z"/><path class="cls-4" d="M109.23848,119.23336a.28448.28448,0,0,1-.30078.30078.28148.28148,0,0,1-.293-.30078.27577.27577,0,0,1,.293-.293A.27892.27892,0,0,1,109.23848,119.23336Zm0,2.49512a.28275.28275,0,0,1-.30078.29394.2969.2969,0,0,1,0-.59375A.28423.28423,0,0,1,109.23848,121.72848Z"/><path class="cls-4" d="M110.0959,119.99508c0-1.31934.50977-2.03809,1.45117-2.03809s1.45117.71875,1.45117,2.03809-.50976,2.03906-1.45117,2.03906S110.0959,121.31441,110.0959,119.99508Zm2.54883,0c0-1.1211-.38281-1.73242-1.09766-1.73242-.707,0-1.09765.61132-1.09765,1.73242,0,1.12207.39062,1.7334,1.09765,1.7334C112.26192,121.72848,112.64473,121.11715,112.64473,119.99508Z"/><path class="cls-4" d="M113.76192,119.99508c0-1.31934.50976-2.03809,1.45117-2.03809s1.45117.71875,1.45117,2.03809-.50977,2.03906-1.45117,2.03906S113.76192,121.31441,113.76192,119.99508Zm2.54882,0c0-1.1211-.38281-1.73242-1.09765-1.73242-.707,0-1.09766.61132-1.09766,1.73242,0,1.12207.39063,1.7334,1.09766,1.7334C115.92793,121.72848,116.31074,121.11715,116.31074,119.99508Z"/><path class="cls-4" d="M121.59785,120.76852h-1.87109l-.47461,1.20605h-.35938l1.57227-3.958h.40625l1.56641,3.958h-.35938Zm-.12695-.31739-.64648-1.64941-.15625-.45508h-.01172l-.14453.4375-.66016,1.667Z"/><path class="cls-4" d="M126.91231,121.97457h-.33008V119.1318l.03711-.791-1.416,3.63379h-.30469l-1.41015-3.63379h-.00586l.03515.791v2.84277h-.32226v-3.958h.51562l1.1211,2.86035.21484.69532h.00586l.22266-.68946,1.11523-2.86621h.52149Z"/><path class="cls-4" d="M145.79489,120.74508a1.2197,1.2197,0,0,1-1.31934,1.28906,1.2851,1.2851,0,0,1-1.373-.92285l.33007-.168a.93537.93537,0,0,0,1.03125.77344.90087.90087,0,0,0,.97754-.95313.87949.87949,0,0,0-.94726-.96,1.12442,1.12442,0,0,0-.9834.43164h-.29981l.21583-2.21875h2.20019v.31836h-1.91309l-.15527,1.46289-.00586.07813h.00586a1.24384,1.24384,0,0,1,.99512-.38965A1.18463,1.18463,0,0,1,145.79489,120.74508Z"/><path class="cls-4" d="M147.21774,119.23434a.29689.29689,0,1,1-.59375,0,.29689.29689,0,0,1,.59375,0Zm0,2.49414a.29689.29689,0,1,1-.2998-.29981A.28144.28144,0,0,1,147.21774,121.72848Z"/><path class="cls-4" d="M148.07614,119.99606c0-1.31934.50976-2.03907,1.45117-2.03907s1.45117.71973,1.45117,2.03907-.50976,2.03808-1.45117,2.03808S148.07614,121.31539,148.07614,119.99606Zm2.54883,0c0-1.1211-.38379-1.7334-1.09766-1.7334-.708,0-1.09766.6123-1.09766,1.7334s.38965,1.73242,1.09766,1.73242C150.24118,121.72848,150.625,121.11715,150.625,119.99606Z"/><path class="cls-4" d="M151.74215,119.99606c0-1.31934.50977-2.03907,1.45118-2.03907s1.45117.71973,1.45117,2.03907-.50977,2.03808-1.45117,2.03808S151.74215,121.31539,151.74215,119.99606Zm2.54883,0c0-1.1211-.38379-1.7334-1.09765-1.7334-.708,0-1.09766.6123-1.09766,1.7334s.38965,1.73242,1.09766,1.73242C153.90719,121.72848,154.291,121.11715,154.291,119.99606Z"/><path class="cls-4" d="M159.57712,120.76949H157.706l-.47363,1.20508H156.873l1.57129-3.958h.40723l1.56543,3.958h-.35938Zm-.126-.31738-.64746-1.64941-.15528-.45606h-.01269l-.14356.4375-.66015,1.668Z"/><path class="cls-4" d="M164.89255,121.97457h-.33008v-2.8418l.03613-.792-1.415,3.63379h-.30566l-1.40918-3.63379h-.00586l.03515.792v2.8418h-.32324v-3.958h.51563l1.12109,2.86133.21582.69531h.00586l.22266-.68945,1.11523-2.86719h.52149Z"/><path class="cls-4" d="M182.401,118.97652a.92641.92641,0,0,1-.666.91114v.00586a1.06006,1.06006,0,0,1,.83985,1.03222c0,.6709-.56348,1.1084-1.40918,1.1084-.83985,0-1.40918-.4375-1.40918-1.1084a1.05942,1.05942,0,0,1,.8457-1.03222v-.00586a.91662.91662,0,0,1-.666-.91114c0-.624.4795-1.01367,1.2295-1.01367C181.91467,117.96285,182.401,118.3525,182.401,118.97652Zm-.17969,1.919c0-.50391-.41992-.834-1.05566-.834-.624,0-1.05567.33008-1.05567.834,0,.498.41992.82129,1.05567.82129C181.80725,121.71676,182.22131,121.39352,182.22131,120.89547Zm-1.93164-1.88867c0,.44336.34863.73144.876.73144.5332,0,.88183-.28808.88183-.73144,0-.4502-.34179-.72559-.88183-.72559C180.63147,118.28121,180.28967,118.5566,180.28967,119.0068Z"/><path class="cls-4" d="M184.03381,119.23434a.29689.29689,0,1,1-.59375,0,.29689.29689,0,0,1,.59375,0Zm0,2.49414a.29689.29689,0,1,1-.2998-.29981A.28144.28144,0,0,1,184.03381,121.72848Z"/><path class="cls-4" d="M184.89221,119.99606c0-1.31934.50977-2.03907,1.45117-2.03907s1.45117.71973,1.45117,2.03907-.50976,2.03808-1.45117,2.03808S184.89221,121.31539,184.89221,119.99606Zm2.54883,0c0-1.1211-.38379-1.7334-1.09766-1.7334-.708,0-1.09765.6123-1.09765,1.7334s.38964,1.73242,1.09765,1.73242C187.05725,121.72848,187.441,121.11715,187.441,119.99606Z"/><path class="cls-4" d="M188.55823,119.99606c0-1.31934.50976-2.03907,1.45117-2.03907s1.45117.71973,1.45117,2.03907-.50977,2.03808-1.45117,2.03808S188.55823,121.31539,188.55823,119.99606Zm2.54882,0c0-1.1211-.38379-1.7334-1.09765-1.7334-.708,0-1.09766.6123-1.09766,1.7334s.38965,1.73242,1.09766,1.73242C190.72326,121.72848,191.107,121.11715,191.107,119.99606Z"/><path class="cls-4" d="M196.39221,120.76949h-1.87109l-.47364,1.20508h-.35937l1.57129-3.958h.40722l1.56543,3.958h-.35937Zm-.126-.31738-.64746-1.64941-.15527-.45606h-.0127l-.14355.4375-.66016,1.668Z"/><path class="cls-4" d="M201.70764,121.97457h-.33008v-2.8418l.03613-.792-1.415,3.63379H199.693l-1.40918-3.63379H198.278l.03516.792v2.8418h-.32324v-3.958h.51562l1.12109,2.86133.21582.69531h.00586l.22266-.68945,1.11523-2.86719h.52149Z"/><path class="cls-1" d="M39.99365,60.24547h-2a.25.25,0,0,1,0-.5h2a.25.25,0,0,1,0,.5Z"/><path class="cls-1" d="M39.99365,35.24937h-2a.25.25,0,0,1,0-.5h2a.25.25,0,0,1,0,.5Z"/><path class="cls-1" d="M39.99365,85.24547h-2a.25.25,0,0,1,0-.5h2a.25.25,0,0,1,0,.5Z"/><path class="cls-1" d="M115.99658,112.24547a.25049.25049,0,0,1-.25-.25v-2a.25.25,0,0,1,.5,0v2A.25048.25048,0,0,1,115.99658,112.24547Z"/><path class="cls-1" d="M77.99463,112.24547a.25048.25048,0,0,1-.25-.25v-2a.25.25,0,1,1,.5,0v2A.25049.25049,0,0,1,77.99463,112.24547Z"/><path class="cls-1" d="M190.73193,112.24547a.25049.25049,0,0,1-.25-.25v-2a.25.25,0,1,1,.5,0v2A.25048.25048,0,0,1,190.73193,112.24547Z"/><path class="cls-1" d="M153.99756,112.24547a.25048.25048,0,0,1-.25-.25v-2a.25.25,0,1,1,.5,0v2A.25049.25049,0,0,1,153.99756,112.24547Z"/><path class="cls-4" d="M219.92872,118.01659v3.958h-.34179V119c0-.16114.00586-.3418.01172-.52735a2.06739,2.06739,0,0,1-1.03711.624l-.08985-.30567a2.3,2.3,0,0,0,1.15821-.77441Z"/><path class="cls-4" d="M222.18458,118.01659v3.958h-.34179V119c0-.16114.00586-.3418.01171-.52735a2.06732,2.06732,0,0,1-1.0371.624l-.08985-.30567a2.29992,2.29992,0,0,0,1.1582-.77441Z"/><path class="cls-4" d="M223.85255,119.23436a.29689.29689,0,1,1-.59375,0,.29689.29689,0,0,1,.59375,0Zm0,2.49414a.29689.29689,0,1,1-.29883-.2998A.28066.28066,0,0,1,223.85255,121.7285Z"/><path class="cls-4" d="M224.71193,119.99608c0-1.31934.50976-2.03906,1.45117-2.03906s1.45117.71972,1.45117,2.03906-.50977,2.03809-1.45117,2.03809S224.71193,121.31542,224.71193,119.99608Zm2.54882,0c0-1.12109-.38476-1.7334-1.09765-1.7334-.709,0-1.09766.61231-1.09766,1.7334s.38867,1.73242,1.09766,1.73242C226.876,121.7285,227.26075,121.11717,227.26075,119.99608Z"/><path class="cls-4" d="M228.37794,119.99608c0-1.31934.50977-2.03906,1.45117-2.03906s1.45118.71972,1.45118,2.03906-.50977,2.03809-1.45118,2.03809S228.37794,121.31542,228.37794,119.99608Zm2.54883,0c0-1.12109-.38477-1.7334-1.09766-1.7334-.709,0-1.09765.61231-1.09765,1.7334s.38867,1.73242,1.09765,1.73242C230.542,121.7285,230.92677,121.11717,230.92677,119.99608Z"/><path class="cls-4" d="M236.21193,120.76952h-1.8711l-.47461,1.20508h-.35937l1.57226-3.958h.40625l1.56641,3.958h-.35937Zm-.127-.31738-.64648-1.64942-.15625-.456h-.01172l-.14453.4375-.66016,1.668Z"/><path class="cls-4" d="M241.52833,121.9746h-.33008v-2.8418l.03516-.792-1.41406,3.63379h-.30664l-1.40821-3.63379h-.00585l.03515.792v2.8418h-.32422v-3.958h.51563l1.12109,2.86133.2168.69531h.00586l.22265-.68945,1.11524-2.86719h.52148Z"/><path class="cls-1" d="M39.99951,60.25035h-2a.25.25,0,0,1,0-.5h2a.25.25,0,0,1,0,.5Z"/><path class="cls-4" d="M26.07027,9.00437a.9346.9346,0,0,1-.55762.88769v.00586A1.04446,1.04446,0,0,1,26.25,10.9116c0,.68945-.56934,1.127-1.43945,1.127-.86329,0-1.43848-.4375-1.43848-1.127a1.04461,1.04461,0,0,1,.74316-1.01368V9.89206a.92807.92807,0,0,1-.56347-.88769c0-.6416.49707-1.03711,1.25879-1.03711S26.07027,8.36277,26.07027,9.00437Zm-.31836,1.85937c0-.456-.37109-.73193-.9414-.73193-.56348,0-.94141.27588-.94141.73193,0,.44971.36621.72559.94141.72559C25.39254,11.58933,25.75191,11.31345,25.75191,10.86374Zm-1.70312-1.811c0,.38965.30664.62939.76172.62939.456,0,.76171-.23974.76171-.62939,0-.40186-.29394-.63574-.76171-.63574S24.04879,8.65085,24.04879,9.05271Z"/><path class="cls-4" d="M27.04976,10c0-1.32519.51563-2.03857,1.47559-2.03857C29.48433,7.9614,30,8.67478,30,10s-.51563,2.03858-1.47461,2.03858C27.56539,12.03855,27.04976,11.32517,27.04976,10Zm2.45313,0c0-1.04345-.3418-1.60693-.97754-1.60693S27.54781,8.95652,27.54781,10s.3418,1.60743.97754,1.60743S29.50289,11.04343,29.50289,10Z"/><path class="cls-4" d="M26.664,33.021v.31787A5.22893,5.22893,0,0,0,25.18256,36.979H24.829a5.49094,5.49094,0,0,1,1.46289-3.64014H23.80365V33.021Z"/><path class="cls-4" d="M27.09759,35c0-1.31933.50977-2.03857,1.45118-2.03857S29.99994,33.68064,29.99994,35s-.50977,2.03858-1.45117,2.03858S27.09759,36.31931,27.09759,35Zm2.54883,0c0-1.12109-.38379-1.73291-1.09765-1.73291-.708,0-1.09766.61182-1.09766,1.73291,0,1.12159.38965,1.73291,1.09766,1.73291C29.26263,36.73288,29.64642,36.12156,29.64642,35Z"/><path class="cls-4" d="M26.27533,58.7529l-.3125.14991a.84948.84948,0,0,0-.88867-.624c-.7793,0-1.17969.83985-1.17969,1.80518,0,.10205.00586.21.01758.33594h.02343a1.08825,1.08825,0,0,1,1.13282-.89942,1.26,1.26,0,1,1-.02344,2.51807c-.96484,0-1.47461-.80322-1.47461-2.03858,0-1.34326.66016-2.03857,1.5293-2.03857A1.13809,1.13809,0,0,1,26.27533,58.7529ZM24.08,60.77341a.9079.9079,0,0,0,.959.9419.93307.93307,0,1,0,.00586-1.86524A.9222.9222,0,0,0,24.08,60.77341Z"/><path class="cls-4" d="M27.09759,60c0-1.31933.50977-2.03857,1.45118-2.03857S29.99994,58.68064,29.99994,60s-.50977,2.03858-1.45117,2.03858S27.09759,61.31931,27.09759,60Zm2.54883,0c0-1.12109-.38281-1.73291-1.09765-1.73291-.707,0-1.09766.61182-1.09766,1.73291,0,1.12159.39062,1.73291,1.09766,1.73291C29.26361,61.73288,29.64642,61.12156,29.64642,60Z"/><path class="cls-4" d="M26.37,85.74949a1.21969,1.21969,0,0,1-1.31933,1.28906,1.28512,1.28512,0,0,1-1.373-.92285l.33008-.168a.93537.93537,0,0,0,1.03125.77344.90087.90087,0,0,0,.97754-.95313.87949.87949,0,0,0-.94727-.96,1.12442,1.12442,0,0,0-.9834.43164h-.2998l.21582-2.21875h2.20019v.31836H24.289l-.15527,1.46289-.00586.07813h.00586a1.2438,1.2438,0,0,1,.99511-.38965A1.18463,1.18463,0,0,1,26.37,85.74949Z"/><path class="cls-4" d="M27.09758,85.00046c0-1.31933.50977-2.03906,1.45117-2.03906s1.45118.71973,1.45118,2.03906-.50977,2.03809-1.45118,2.03809S27.09758,86.3198,27.09758,85.00046Zm2.54883,0c0-1.12109-.38379-1.7334-1.09766-1.7334-.708,0-1.09765.61231-1.09765,1.7334s.38965,1.73242,1.09765,1.73242C29.26262,86.73288,29.64641,86.12156,29.64641,85.00046Z"/><path class="cls-4" d="M26.37108,110.94089h-.70117V111.979h-.48047v-1.03809H23.2578v-.35351l1.80664-2.56641h.60547v2.50684h.70117Zm-2.60351-.41308h1.42187v-1.48145l.02344-.63574h-.01172a5.52143,5.52143,0,0,1-.39649.66016Z"/><path class="cls-4" d="M27.05077,109.99949c0-1.3252.51562-2.03809,1.47461-2.03809S30,108.67429,30,109.99949s-.51563,2.03906-1.47461,2.03906S27.05077,111.32468,27.05077,109.99949Zm2.45312,0c0-1.043-.34179-1.60645-.97851-1.60645-.63477,0-.97656.56348-.97656,1.60645,0,1.04394.34179,1.60742.97656,1.60742C29.1621,111.60691,29.50389,111.04343,29.50389,109.99949Z"/><path class="cls-1" d="M39.99951,35.25035h-2a.25.25,0,0,1,0-.5h2a.25.25,0,0,1,0,.5Z"/><path class="cls-1" d="M39.99951,85.25035h-2a.25.25,0,0,1,0-.5h2a.25.25,0,0,1,0,.5Z"/><rect class="cls-5" width="270" height="140"/><rect class="cls-5" x="54.9141" y="20" width="160.1718" height="80"/><rect class="cls-2" x="92.5859" y="42" width="85" height="38" rx="2"/><path class="cls-6" d="M175.58545,80.25035h-81a2.25309,2.25309,0,0,1-2.25-2.25v-34a2.25308,2.25308,0,0,1,2.25-2.25h81a2.25309,2.25309,0,0,1,2.25,2.25v34A2.25309,2.25309,0,0,1,175.58545,80.25035Zm-81-38a1.75212,1.75212,0,0,0-1.75,1.75v34a1.75213,1.75213,0,0,0,1.75,1.75h81a1.75213,1.75213,0,0,0,1.75-1.75v-34a1.75212,1.75212,0,0,0-1.75-1.75Z"/><path class="cls-1" d="M97.58545,65.25035h-1a.25.25,0,0,1,0-.5h1a.25.25,0,1,1,0,.5Z"/><path class="cls-1" d="M97.58545,60.25035h-1a.25.25,0,0,1,0-.5h1a.25.25,0,1,1,0,.5Z"/><path class="cls-1" d="M97.58545,70.25035h-1a.25.25,0,0,1,0-.5h1a.25.25,0,1,1,0,.5Z"/><path class="cls-1" d="M102.58545,76.25035a.25048.25048,0,0,1-.25-.25v-1a.25.25,0,0,1,.5,0v1A.25049.25049,0,0,1,102.58545,76.25035Z"/><path class="cls-1" d="M117.58545,76.25035a.25048.25048,0,0,1-.25-.25v-1a.25.25,0,0,1,.5,0v1A.25049.25049,0,0,1,117.58545,76.25035Z"/><path class="cls-1" d="M107.58545,76.25035a.25048.25048,0,0,1-.25-.25v-1a.25.25,0,0,1,.5,0v1A.25049.25049,0,0,1,107.58545,76.25035Z"/><circle class="cls-7" cx="172.5859" cy="60" r="1"/><path class="cls-6" d="M177.58545,46.25035h-85a.25.25,0,0,1,0-.5h85a.25.25,0,0,1,0,.5Z"/><path class="cls-6" d="M95.83545,45.00035a1,1,0,1,1,1-1A1.00067,1.00067,0,0,1,95.83545,45.00035Zm0-1.5a.5.5,0,1,0,.5.5A.501.501,0,0,0,95.83545,43.50035Z"/><path class="cls-6" d="M98.83545,45.00035a1,1,0,1,1,1-1A1.00067,1.00067,0,0,1,98.83545,45.00035Zm0-1.5a.5.5,0,1,0,.5.5A.501.501,0,0,0,98.83545,43.50035Z"/><path class="cls-6" d="M101.83545,45.00035a1,1,0,1,1,1-1A1.00067,1.00067,0,0,1,101.83545,45.00035Zm0-1.5a.5.5,0,1,0,.5.5A.501.501,0,0,0,101.83545,43.50035Z"/><path class="cls-7" d="M148.394,69.263c-2.2334,0-3.27929-3.57226-4.125-6.46a19.96572,19.96572,0,0,0-.9082-2.69336l-.082-.168c-.75-1.54785-3.02442-6.26855-4.60938-5.70312-1.55664.55371-1.89941,3.88281-2.23144,7.10254-.375,3.63769-.71289,7.08887-2.87207,6.9082-1.36035-.10351-1.71582-2.498-2.05957-4.81347-.2002-1.34473-.47364-3.18555-.9209-3.18555h0c-.59668,0-1.01856,1.24023-1.38965,2.334-.40527,1.19141-.78711,2.31739-1.50684,2.64356a1.02231,1.02231,0,0,1-.93261.00195c-.96582-.50488-1.36133-2.6543-1.81836-5.14355-.49512-2.69532-1.05664-5.75-2.36914-5.83692-.02539-.001-.05078-.002-.07617-.002-1.91993,0-3.61231,4.82226-4.43067,7.15625-.08887.252-.16894.48242-.24121.68164-.78516,2.17676-2.83691,7.16894-5.13184,7.16894-.041,0-.082-.001-.123-.00488-1.5791-.124-2.1377-2.58105-2.72949-5.18164-.52539-2.30664-1.06739-4.69238-2.27735-4.81836-.92578-.11621-1.67578,1.63281-2.38574,3.30762-.7334,1.72949-1.42578,3.36328-2.51758,3.68359-1.35742.40235-4.8164-1.77929-5.20508-2.03027a.24949.24949,0,1,1,.26953-.41992c1.00489.64355,3.81739,2.25488,4.79493,1.96972.86425-.25293,1.542-1.85156,2.19726-3.39746.81739-1.92773,1.56641-3.76172,2.89942-3.61132,1.56543.16406,2.12207,2.6123,2.71191,5.20507.52539,2.31055,1.06836,4.69922,2.28125,4.79493.02734.002.05469.00292.083.00292,1.61816,0,3.51562-3.65917,4.66211-6.83886.07226-.19824.15234-.42676.24023-.67774.92285-2.62988,2.62793-7.49023,4.90528-7.49023.03515,0,.07031.001.10644.00391,1.70117.1123,2.27441,3.22949,2.82813,6.24511.39746,2.16211.80761,4.39844,1.55761,4.79a.515.515,0,0,0,.49414-.01367c.52246-.23731.9043-1.35938,1.24024-2.34961.46679-1.374.9082-2.67285,1.8623-2.67285h.001c.87891,0,1.11523,1.59375,1.415,3.61133.28613,1.92285.6416,4.31543,1.60449,4.38965,1.64941.10156,2.00195-3.22364,2.335-6.46094.34863-3.374.708-6.86328,2.56152-7.52246,1.75782-.625,3.62989,2.65918,5.22754,5.956l.08106.167a19.827,19.827,0,0,1,.93945,2.77149c.82031,2.80273,1.86231,6.31543,3.81153,6.09179,1.21484-.12207,1.75976-2.499,2.28808-4.79785.59082-2.57422,1.14844-5.00586,2.70508-5.20117.97754-.10644,1.85156.95215,2.80078,2.084.77539.92675,1.57715,1.88378,2.24121,1.91113.01074.001.02149.001.0332.001a5.32269,5.32269,0,0,0,2.10352-.9795c1.06055-.66015,2.1582-1.34277,2.95117-1.001.999.42871,1.67481,1.97265,2.39063,3.60644.74218,1.69531,1.53515,3.43653,2.49121,3.374,1.67773-.13184,3.29394-5.67969,3.77539-7.80665a.24648.24648,0,0,1,.2998-.18847.25134.25134,0,0,1,.18848.29883c-.18555.81933-1.87891,8.01074-4.22461,8.19433-.03613.00293-.07227.00488-.1084.00488-1.27148,0-2.05273-1.7871-2.87988-3.67675-.64551-1.47266-1.31152-2.9961-2.12988-3.34766-.55567-.24023-1.583.40234-2.48926.96582a5.1086,5.1086,0,0,1-2.42188,1.05469c-.88476-.03711-1.71972-1.03418-2.60351-2.08985-.82129-.98046-1.65918-1.9873-2.35547-1.90917-1.21.15136-1.75391,2.52343-2.28027,4.81738-.59375,2.584-1.15332,5.02539-2.72559,5.18359C148.5376,69.25914,148.46533,69.263,148.394,69.263Z"/><path class="cls-1" d="M112.58545,76.25035a.25048.25048,0,0,1-.25-.25v-1a.25.25,0,0,1,.5,0v1A.25049.25049,0,0,1,112.58545,76.25035Z"/><path class="cls-1" d="M122.58545,76.25035a.25048.25048,0,0,1-.25-.25v-1a.25.25,0,0,1,.5,0v1A.25049.25049,0,0,1,122.58545,76.25035Z"/><path class="cls-1" d="M127.58545,76.25035a.25048.25048,0,0,1-.25-.25v-1a.25.25,0,0,1,.5,0v1A.25049.25049,0,0,1,127.58545,76.25035Z"/><path class="cls-1" d="M124.08838,40.93394a.24837.24837,0,0,1-.17676-.07324l-1-1a.25.25,0,0,1,.35352-.35352l1,1a.25.25,0,0,1-.17676.42676Z"/><path class="cls-1" d="M126.08838,40.93394a.24837.24837,0,0,1-.17676-.07324l-2-2a.25.25,0,0,1,.35352-.35352l2,2a.25.25,0,0,1-.17676.42676Z"/><path class="cls-8" d="M122.41081,43.07134l-4.94975,4.94975c-.07811.0781-.29971-.01687-.495-.21213s-.29023-.41687-.21213-.495l4.94975-4.94975"/><path class="cls-6" d="M117.38623,48.2982a.9143.9143,0,0,1-.59668-.3125c-.31738-.31738-.40234-.6582-.21191-.84863l4.94922-4.94922a.25.25,0,0,1,.35351.35351L116.99268,47.43a.86746.86746,0,0,0,.35253.35254l4.88868-4.8877a.25.25,0,0,1,.35351.35352l-4.94922,4.94921A.34617.34617,0,0,1,117.38623,48.2982Z"/><path class="cls-8" d="M122.05715,42.71779a4,4,0,1,0,0-5.65686A4.0002,4.0002,0,0,0,122.05715,42.71779Zm.70727-4.94977a2.99991,2.99991,0,1,1,0,4.24267A2.99975,2.99975,0,0,1,122.76442,37.768Z"/><path class="cls-6" d="M124.88525,44.13707a4.23721,4.23721,0,0,1-3.00488-1.24219h0a4.25671,4.25671,0,1,1,3.00488,1.24219Zm-2.65136-1.59571a3.75029,3.75029,0,1,0,0-5.30371,3.75689,3.75689,0,0,0,0,5.30371Zm2.65136.59668a3.24853,3.24853,0,0,1-2.29785-5.54687h0a3.25034,3.25034,0,1,1,2.29785,5.54687Zm-1.94433-5.19336a2.7504,2.7504,0,1,0,3.88965,0,2.7555,2.7555,0,0,0-3.88965,0Z"/><path class="cls-9" d="M116.83136,33.79691c-.76484,2.31082-4.20418,4.17067-8.7761,3.25991a11.46453,11.46453,0,0,1-6.08556-4.02549s-7.99224.91825-8.21314-.43625c-.24331-1.49187,9.68246-2.7663,15.30946-2.0931,2.735.32721,4.35809,1.33837,5.65606.56654a10.48707,10.48707,0,0,1,4.12111-1.29527c1.63279-.05831,3.06381,1.77548,2.53666,2.47834-.6123.81639-1.70862.09525-2.53666.23326A2.72,2.72,0,0,0,116.83136,33.79691Z"/><path class="cls-6" d="M110.4126,37.5482a12.31,12.31,0,0,1-2.40625-.24609,11.748,11.748,0,0,1-6.15528-4.00586c-2.085.23242-8.10644.77929-8.34179-.66114a.67552.67552,0,0,1,.21679-.58789c1.34375-1.40136,10.10743-2.42187,15.36914-1.793a20.679,20.679,0,0,1,2.58692.50879c1.25879.3086,2.16992.53223,2.91211.09082a10.86178,10.86178,0,0,1,4.24023-1.33105,3.19271,3.19271,0,0,1,2.70508,1.64258,1.15531,1.15531,0,0,1,.04,1.23633c-.48438.64746-1.19434.5166-1.82227.40136a2.7195,2.7195,0,0,0-.873-.07129,2.49229,2.49229,0,0,0-1.81543,1.14356h0C116.41943,35.83726,113.96338,37.5482,110.4126,37.5482Zm-8.44336-4.7666a.248.248,0,0,1,.20605.10937,11.29608,11.29608,0,0,0,5.92871,3.9209c4.38282.873,7.75977-.88769,8.49024-3.09277a2.9582,2.9582,0,0,1,2.208-1.48145,3.19115,3.19115,0,0,1,1.04492.07325c.64062.12011,1.0459.17089,1.332-.21.10547-.13964.07422-.40234-.083-.7041a2.6158,2.6158,0,0,0-2.24414-1.374,10.24857,10.24857,0,0,0-4.002,1.26074c-.91895.54785-1.96289.291-3.28711-.03515a20.51037,20.51037,0,0,0-2.52637-.498c-5.29785-.63574-13.82812.47265-14.95019,1.64258-.043.04492-.0918.10937-.083.16211.1084.66992,4.1914.65918,7.9375.22851Zm14.8623,1.01562h0Z"/><path class="cls-10" d="M121.32961,32.42961c.13179.24.4704,1.25209.205,1.403s-.78554-1.0382-.78554-1.0382"/><path class="cls-6" d="M110.01416,35.26109a5.26744,5.26744,0,0,1-.9043-.0791,5.074,5.074,0,0,1-3.56933-2.2793.25029.25029,0,0,1,.44336-.23242,4.63037,4.63037,0,0,0,3.21093,2.01953A3.76461,3.76461,0,0,0,112.479,33.847a.25371.25371,0,0,1,.35352.01367.25016.25016,0,0,1-.01367.35352A4.04361,4.04361,0,0,1,110.01416,35.26109Z"/><path class="cls-6" d="M107.09229,41.6a.246.246,0,0,1-.16993-.06738.2489.2489,0,0,1-.08007-.19141l.15039-4.41309a.27606.27606,0,0,1,.25878-.24121.25.25,0,0,1,.24122.25879l-.14063,4.125,1.11816-.12012a.24706.24706,0,0,1,.2754.22266.25132.25132,0,0,1-.22266.27539l-1.4043.15039Z"/><path class="cls-6" d="M109.97705,41.45054a.2494.2494,0,0,1-.25-.24121l-.14258-3.92187a.25.25,0,0,1,.24121-.25879.26723.26723,0,0,1,.25879.24121l.13184,3.64258.96582-.14063a.25265.25265,0,0,1,.2832.21094.24873.24873,0,0,1-.21094.2832l-1.24121.18164A.22456.22456,0,0,1,109.97705,41.45054Z"/><path class="cls-1" d="M142.58545,76.25035a.25048.25048,0,0,1-.25-.25v-1a.25.25,0,0,1,.5,0v1A.25049.25049,0,0,1,142.58545,76.25035Z"/><path class="cls-1" d="M132.58545,76.25035a.25048.25048,0,0,1-.25-.25v-1a.25.25,0,0,1,.5,0v1A.25049.25049,0,0,1,132.58545,76.25035Z"/><path class="cls-1" d="M137.58545,76.25035a.25048.25048,0,0,1-.25-.25v-1a.25.25,0,0,1,.5,0v1A.25049.25049,0,0,1,137.58545,76.25035Z"/><path class="cls-1" d="M172.58545,75.25035h-75a.25048.25048,0,0,1-.25-.25v-25a.25.25,0,0,1,.5,0v24.75h74.75a.25.25,0,0,1,0,.5Z"/><path class="cls-1" d="M147.58545,76.25035a.25048.25048,0,0,1-.25-.25v-1a.25.25,0,0,1,.5,0v1A.25049.25049,0,0,1,147.58545,76.25035Z"/><path class="cls-1" d="M152.58545,76.25035a.25048.25048,0,0,1-.25-.25v-1a.25.25,0,0,1,.5,0v1A.25049.25049,0,0,1,152.58545,76.25035Z"/><path class="cls-1" d="M162.58545,76.25035a.25048.25048,0,0,1-.25-.25v-1a.25.25,0,0,1,.5,0v1A.25049.25049,0,0,1,162.58545,76.25035Z"/><path class="cls-7" d="M157.58545,76.25035a.25048.25048,0,0,1-.25-.25v-1a.25.25,0,0,1,.5,0v1A.25049.25049,0,0,1,157.58545,76.25035Z"/><path class="cls-1" d="M167.58545,76.25035a.25048.25048,0,0,1-.25-.25v-1a.25.25,0,0,1,.5,0v1A.25049.25049,0,0,1,167.58545,76.25035Z"/><path class="cls-1" d="M97.58545,55.25035h-1a.25.25,0,0,1,0-.5h1a.25.25,0,1,1,0,.5Z"/><path class="cls-11" d="M149.92755,58.71985c0-.48975-.42969-.79932-1.07959-.79932a1.693,1.693,0,0,0-1.44922.73926l-1.209-.70947a3.18478,3.18478,0,0,1,2.82812-1.33936c1.49951,0,2.53857.66992,2.53857,1.84912,0,1.59913-1.67871,1.77881-1.67871,2.83839h-1.50927C148.36847,59.89905,149.92755,59.58948,149.92755,58.71985Zm-1.75928,4.17774a.96221.96221,0,0,1,1.91894,0,.96083.96083,0,0,1-1.91894,0Z"/><path class="cls-3" d="M153.81982,69.69957a.29006.29006,0,0,1-.041-.00293c-1.64453-.27442-3.53027-2.459-3.96777-3.50977a.24954.24954,0,1,1,.46093-.1914c.40039.96,2.19043,2.97461,3.58887,3.207a.2502.2502,0,0,1-.041.49707Z"/><path class="cls-12" d="M166.33406,77.09788c-2.75222-.11324-4.49935.45561-5.554-.62519-.81275-.8329-2.27176-5.90179-3.8776-5.12364-1.50239.728,1.27468,6.4885,1.45089,7.56047.39483,2.40187,3.01345,4.80224,7.67519,4.81363a17.91213,17.91213,0,0,0,6.40678-1.56106s6.995-3.63519,6.27785-4.80529c-.777-1.26781-7.03077,1.72861-7.03077,1.72861A9.897,9.897,0,0,0,166.33406,77.09788Z"/><path class="cls-6" d="M166.05225,83.973h-.02442c-4.876-.01269-7.52441-2.6123-7.92187-5.02246a13.418,13.418,0,0,0-.53809-1.58789c-1.09961-2.95215-1.9873-5.65039-.77441-6.23828a1.0025,1.0025,0,0,1,.80078-.04394c.96484.34277,1.75976,2.042,2.46191,3.541a8.55109,8.55109,0,0,0,.90235,1.67676c.65332.669,1.62793.63184,3.09961.57129.67089-.02637,1.42871-.05664,2.2871-.02149a10.09024,10.09024,0,0,1,5.36915,1.94532c1.33984-.63184,6.39355-2.90235,7.21191-1.56739a.64064.64064,0,0,1,.05957.52344c-.40723,1.46582-5.81934,4.31446-6.43555,4.63477-.12988.0498-.26269.10351-.4248.168A16.83045,16.83045,0,0,1,166.05225,83.973ZM157.2417,71.51793a.52178.52178,0,0,0-.22949.05566c-.9043.43848.39843,3.93457,1.02441,5.61426a12.9862,12.9862,0,0,1,.56348,1.68164c.36328,2.209,2.84375,4.5918,7.42969,4.60351h.02246a16.38271,16.38271,0,0,0,5.88769-1.38476c.167-.06738.30469-.12207.40918-.16016,2.22266-1.1582,5.89258-3.36718,6.15527-4.3125.02247-.084.00293-.11621-.0039-.12793-.40918-.667-3.80078.42871-6.71,1.82325a.24909.24909,0,0,1-.2666-.03223,9.72784,9.72784,0,0,0-5.2002-1.93067c-.83691-.03613-1.585-.00683-2.24609.02149-1.54981.05957-2.66895.10449-3.47657-.72168a8.06877,8.06877,0,0,1-.998-1.81445c-.59375-1.26953-1.40821-3.00879-2.17578-3.28125A.554.554,0,0,0,157.2417,71.51793Z"/><path class="cls-10" d="M156.69181,71.55788c-.283-.103-1.4874-.17444-1.607.13935s1.3077.5529,1.3077.5529"/><path class="cls-6" d="M166.564,81.67515c-.18847,0-.37988-.00781-.57226-.02539a4.63475,4.63475,0,0,1-3.53223-1.84765.25.25,0,1,1,.41992-.27149,4.14115,4.14115,0,0,0,3.15723,1.6211,4.32116,4.32116,0,0,0,3.49609-1.03321.25011.25011,0,1,1,.36524.3418A4.5901,4.5901,0,0,1,166.564,81.67515Z"/><path class="cls-6" d="M162.49072,88.4691a.21978.21978,0,0,1-.043-.00391l-1.39843-.24121a.24958.24958,0,0,1-.20313-.28906.2435.2435,0,0,1,.28906-.20313l1.14746.19825.7002-4.45508a.2546.2546,0,0,1,.28613-.208.25052.25052,0,0,1,.208.28613l-.73926,4.70508a.25071.25071,0,0,1-.24707.21094Z"/><path class="cls-6" d="M166.62354,88.6605h0l-1.29981-.00195a.25.25,0,0,1,0-.5h0l1.06055.00195.19824-4.417a.25031.25031,0,0,1,.25-.23926h.01074a.25067.25067,0,0,1,.23926.26075l-.209,4.65625A.25034.25034,0,0,1,166.62354,88.6605Z"/><path class="cls-13" d="M192.716,75.70785l-.5,6.16924c0,.49705-1.34315.9-3,.9s-3-.403-3-.9l-.5-6.16924"/><path class="cls-6" d="M189.21631,83.02672c-1.56543,0-3.25-.35938-3.25-1.14942l-.499-6.14941a.249.249,0,0,1,.22851-.26953.24565.24565,0,0,1,.26953.22851l.5,6.16992c.001.209.96485.66993,2.751.66993s2.75-.46094,2.75-.64942l.501-6.19043a.24986.24986,0,0,1,.498.041l-.5,6.16992C192.46631,82.66734,190.78174,83.02672,189.21631,83.02672Z"/><ellipse class="cls-13" cx="189.21597" cy="75.70785" rx="3.5" ry="1.05"/><path class="cls-6" d="M189.21631,77.00816c-1.86328,0-3.75-.44726-3.75-1.30078,0-1.707,7.5-1.707,7.5,0C192.96631,76.5609,191.07959,77.00816,189.21631,77.00816Zm0-2.10058c-2.10254,0-3.25.52832-3.25.7998s1.14746.80078,3.25.80078,3.25-.5293,3.25-.80078S191.31885,74.90758,189.21631,74.90758Z"/><path class="cls-2" d="M189.31725,76.05441c.03515-.492-.35145-3.65511-.28116-4.25258"/><path class="cls-6" d="M189.31689,76.30406l-.01757-.001a.24943.24943,0,0,1-.23145-.2666c.01367-.19824-.05762-.98144-.126-1.73828a21.40731,21.40731,0,0,1-.15429-2.52539.24977.24977,0,1,1,.49609.05859,23.33289,23.33289,0,0,0,.15625,2.4209c.08887.98047.14258,1.59278.126,1.81934A.24964.24964,0,0,1,189.31689,76.30406Z"/><path class="cls-7" d="M192.06452,70.29232c-.41583-.3128-.69124.09774-1.11831-.42941s.49457-.65749.0675-1.18464-.79015.22924-1.15089-.65982-.88556-2.10745-1.5128-.72615,1.01706,2.20636-.26649,2.27036.68264,1.66271-.20642,2.02345-1.211-.41291-1.93595.27716,1.2481,2.17627,2.69534,1.14137c1.44789-1.03536,2.92877,1.23608,3.42334.5786s-.4934-.16525-.16291-1.15206S192.459,70.58906,192.06452,70.29232Z"/><path class="cls-6" d="M191.8335,73.95836a2.13055,2.13055,0,0,1-.95411-.40918c-.64843-.39942-1.38183-.85157-2.09765-.3418a2.27177,2.27177,0,0,1-2.98438-.36035A.81376.81376,0,0,1,185.769,71.683a1.12767,1.12767,0,0,1,1.22364-.30469,1.17932,1.17932,0,0,0,.791-.02344c.043-.01758.06836-.03711.07617-.05762.04493-.11718-.1123-.43945-.21679-.65332-.17871-.36523-.36328-.74218-.1875-1.041a.73351.73351,0,0,1,.61523-.29.64453.64453,0,0,0,.292-.05078.95306.95306,0,0,1-.13574-.25489,2.04987,2.04987,0,0,1-.10449-1.81835c.08691-.19141.34961-.76954.80469-.76954h.01074c.50976.01075.82519.68848,1.15625,1.50586.13379.32618.19531.32325.36523.30371a.76322.76322,0,0,1,.749.292.64682.64682,0,0,1-.0293.90039c-.12012.15918-.12988.17187-.03906.28418a.446.446,0,0,0,.43554.20312.85973.85973,0,0,1,.63965.1836h0c.53809.40527.28125,1.335-.08105,2.418-.10938.32618-.04785.36036.05273.417a.45275.45275,0,0,1,.25684.29492.67057.67057,0,0,1-.1836.51172A.513.513,0,0,1,191.8335,73.95836Zm-2.37793-1.47754a3.37727,3.37727,0,0,1,1.68554.64258c.27442.16894.65039.39843.71973.30957.02539-.03516.04395-.0625.05762-.084-.26953-.1709-.45313-.415-.25879-.99707.17773-.53223.54883-1.63867.25488-1.85937h0a.42133.42133,0,0,0-.33594-.084.90752.90752,0,0,1-.82715-.38867.64682.64682,0,0,1,.0293-.90039c.12012-.15918.12988-.17188.03906-.28418-.10253-.127-.16015-.12109-.31445-.1084-.31152.0293-.624.00293-.874-.61426-.32031-.78906-.55664-1.19043-.70313-1.19336h-.001c-.03711,0-.17188.085-.34961.47657a1.57526,1.57526,0,0,0,.10644,1.40722c.11719.26465.22852.51367.09082.73731a.798.798,0,0,1-.67871.27246c-.1709.00781-.21094.0459-.21191.04687-.03028.07911.125.39453.208.56446a1.4164,1.4164,0,0,1,.23535,1.05078.6.6,0,0,1-.35645.34277,1.62614,1.62614,0,0,1-1.0918.04688.655.655,0,0,0-.7666.17968c-.15234.14649-.04687.34375.06934.48438a1.78144,1.78144,0,0,0,2.30859.27246A1.62157,1.62157,0,0,1,189.45557,72.48082Z"/><path class="cls-14" d="M78.10969,75.783c2.74573-.22015,4.60173.51759,5.65639-.56321.81275-.8329,2.96366-5.95086,4.62049-5.41536,1.50787.48736-2.12,6.71824-2.29616,7.79021-.39483,2.40187-3.01346,4.80224-7.67519,4.81363-2.84991.007-5.789-.94619-6.69038-1.82559,0,0-7.07384,2.75394-7.55826,1.46989C63.633,80.63825,72.46069,76.23589,78.10969,75.783Z"/><path class="cls-6" d="M78.38428,82.65855c-2.81055,0-5.65723-.90234-6.71192-1.78808-1.0625.40722-6.0205,2.24218-7.35937,1.65039a.681.681,0,0,1-.38086-.38086.81805.81805,0,0,1,.13672-.73633c1.22265-1.92871,9.09472-5.47559,14.02148-5.87012h0a19.22718,19.22718,0,0,1,2.66211.00488c1.30078.06836,2.23926.11622,2.835-.49316a10.81339,10.81339,0,0,0,.9668-1.52148c1.13281-1.959,2.53125-4.39454,3.90918-3.958a.718.718,0,0,1,.44433.41015c.39844.91114-.54785,3.10157-1.73046,5.65723a14.41732,14.41732,0,0,0-.83985,2.00293c-.39648,2.41016-3.04394,5.00977-7.9209,5.02246ZM71.7251,80.33238a.24842.24842,0,0,1,.1748.07129c.85547.835,3.71582,1.74512,6.51465,1.75488,4.58691-.01172,7.06641-2.39453,7.42871-4.60449a12.87082,12.87082,0,0,1,.88086-2.13086c.77246-1.6709,2.06641-4.46777,1.72559-5.24707a.21913.21913,0,0,0-.14063-.13379c-.97851-.31445-2.44824,2.2168-3.32226,3.73242a10.27,10.27,0,0,1-1.042,1.62012c-.75293.77051-1.84082.71582-3.21875.64258a19.20751,19.20751,0,0,0-2.59668-.00586c-4.98535.40039-12.583,3.97461-13.63867,5.63965a.38853.38853,0,0,0-.08984.293c.00488.01367.02148.05761.11621.09961.9248.41894,4.76465-.79883,7.11719-1.71485A.26648.26648,0,0,1,71.7251,80.33238Z"/><path class="cls-10" d="M88.69905,70.42224c.29.0528,1.36572.457,1.31168.78118S88.6098,71.155,88.6098,71.155"/><path class="cls-6" d="M78.5376,80.19175a4.49239,4.49239,0,0,1-3.43067-1.28613.25.25,0,0,1,.38868-.31445,4.14924,4.14924,0,0,0,3.333,1.09375A3.999,3.999,0,0,0,82.022,78.19371a.24946.24946,0,0,1,.416.27539,4.48719,4.48719,0,0,1-3.585,1.71582C78.74756,80.1898,78.64209,80.19175,78.5376,80.19175Z"/><path class="cls-6" d="M81.80713,86.96812H80.6499a.2495.2495,0,0,1-.249-.23144l-.332-4.46a.24888.24888,0,0,1,.23047-.26758.23635.23635,0,0,1,.26757.23047l.31543,4.22851h.92481a.25.25,0,0,1,0,.5Z"/><path class="cls-6" d="M79.01611,86.96812h-1.1914a.25048.25048,0,0,1-.25-.25V82.39586a.25.25,0,0,1,.5,0v4.07226h.9414a.25.25,0,0,1,0,.5Z"/><path class="cls-11" d="M103.45,56.93867c0-.48975-.42969-.79932-1.07959-.79932a1.693,1.693,0,0,0-1.44922.73926l-1.209-.70947a3.18478,3.18478,0,0,1,2.82812-1.33936c1.49951,0,2.53858.66992,2.53858,1.84912,0,1.59913-1.67871,1.77881-1.67871,2.83839h-1.50928C101.89092,58.11787,103.45,57.8083,103.45,56.93867Zm-1.75928,4.17774a.96222.96222,0,0,1,1.91895,0,.96084.96084,0,0,1-1.91895,0Z"/><path class="cls-3" d="M94.41943,69.182a.24989.24989,0,0,1-.02929-.498,9.78476,9.78476,0,0,0,7.36425-4.67871.24939.24939,0,0,1,.42579.25977,10.26894,10.26894,0,0,1-7.73145,4.915Z"/></g></g></svg>