<svg xmlns="http://www.w3.org/2000/svg" width="480" height="140" viewBox="0 0 480 140"><defs><style>.cls-1{fill:#ddd;}.cls-2{fill:#aaa;}.cls-3{fill:gray;}.cls-4{fill:none;}.cls-5{fill:#fff;}.cls-10,.cls-6{fill:#053437;}.cls-7{fill:#33d67b;}.cls-8{fill:#f7ce05;}.cls-10,.cls-12,.cls-14,.cls-8,.cls-9{fill-rule:evenodd;}.cls-9{fill:#caecf9;}.cls-11{fill:#553bf2;}.cls-12{fill:#f0403d;}.cls-13{fill:#f47925;}.cls-14{fill:#f6e55a;}</style></defs><g id="Layer_2" data-name="Layer 2"><g id="Layer_2-2" data-name="Layer 2"><path class="cls-1" d="M405.21729,112.25035a.25048.25048,0,0,1-.25-.25v-2a.25.25,0,1,1,.5,0v2A.25049.25049,0,0,1,405.21729,112.25035Z"/><path class="cls-2" d="M397.03917,120.74949a1.2197,1.2197,0,0,1-1.31934,1.28906,1.28513,1.28513,0,0,1-1.373-.92285l.33008-.168a.93537.93537,0,0,0,1.03125.77344.90087.90087,0,0,0,.97754-.95313.87949.87949,0,0,0-.94726-.96,1.12439,1.12439,0,0,0-.9834.43164h-.29981l.21582-2.21875h2.2002v.31836h-1.91309l-.15527,1.46289-.00586.07813h.00586a1.24384,1.24384,0,0,1,.99512-.38965A1.18463,1.18463,0,0,1,397.03917,120.74949Z"/><path class="cls-2" d="M398.462,119.23874a.29689.29689,0,1,1-.59375,0,.29689.29689,0,0,1,.59375,0Zm0,2.49414a.29689.29689,0,1,1-.29981-.2998A.28145.28145,0,0,1,398.462,121.73288Z"/><path class="cls-2" d="M399.32042,120.00046c0-1.31933.50976-2.03906,1.45117-2.03906s1.45117.71973,1.45117,2.03906-.50976,2.03809-1.45117,2.03809S399.32042,121.3198,399.32042,120.00046Zm2.54883,0c0-1.12109-.38379-1.7334-1.09766-1.7334-.708,0-1.09766.61231-1.09766,1.7334s.38965,1.73242,1.09766,1.73242C401.48546,121.73288,401.86925,121.12156,401.86925,120.00046Z"/><path class="cls-2" d="M402.98643,120.00046c0-1.31933.50977-2.03906,1.45118-2.03906s1.45117.71973,1.45117,2.03906-.50977,2.03809-1.45117,2.03809S402.98643,121.3198,402.98643,120.00046Zm2.54883,0c0-1.12109-.38379-1.7334-1.09765-1.7334-.708,0-1.09766.61231-1.09766,1.7334s.38965,1.73242,1.09766,1.73242C405.15147,121.73288,405.53526,121.12156,405.53526,120.00046Z"/><path class="cls-2" d="M411.48643,119.19089c0,.72559-.52148,1.169-1.33691,1.169h-.98926V121.979h-.3418v-3.958h1.33106C410.965,118.021,411.48643,118.46531,411.48643,119.19089Zm-.35351,0c0-.5459-.34766-.85156-1.02539-.85156h-.94727v1.70312h.94727C410.78526,120.04245,411.13292,119.73679,411.13292,119.19089Z"/><path class="cls-2" d="M416.088,121.979h-.33008v-2.8418l.03613-.792-1.415,3.63379h-.30566l-1.40918-3.63379h-.00586l.03515.792v2.8418h-.32324v-3.958h.51563l1.12109,2.86133.21582.69531h.00586l.22266-.68945,1.11523-2.86719h.52149Z"/><path class="cls-3" d="M432.63288,131.499v.45019h-2.7461v-3.958h.47852V131.499Z"/><path class="cls-3" d="M436.0821,131.57126l-.0293.37793a1.07692,1.07692,0,0,1-.35938.05957.47018.47018,0,0,1-.53906-.44336,1.18545,1.18545,0,0,1-.96679.44336c-.5625,0-1.01954-.26367-1.01954-.80371,0-.44922.39649-.80371,1.16993-.93554l.79687-.13184v-.168a.62919.62919,0,0,0-.70117-.65918.87768.87768,0,0,0-.85742.56934l-.35352-.25782a1.22032,1.22032,0,0,1,1.21094-.73144c.68359,0,1.18164.32422,1.18164,1.01953v1.47559c0,.14355.06055.21582.22852.21582A1.047,1.047,0,0,0,436.0821,131.57126Zm-.94727-.62988v-.41406l-.67187.126c-.52735.09668-.79688.27051-.79688.55176,0,.252.20313.38379.54492.38379C434.69147,131.58884,435.13483,131.33689,435.13483,130.94138Z"/><path class="cls-3" d="M438.49616,131.73923a1.11768,1.11768,0,0,1-.77344.26953.75294.75294,0,0,1-.834-.80371v-1.84082h-.59961v-.41406h.59961v-.71875l.48047-.13281v.85156h1.10937v.41406h-1.10937v1.75684a.40682.40682,0,0,0,.44921.43847.68393.68393,0,0,0,.50977-.22265Z"/><path class="cls-3" d="M441.72272,130.62986H439.463a.94857.94857,0,0,0,.97656.959.81138.81138,0,0,0,.8457-.44336l.40235.21a1.28539,1.28539,0,0,1-1.248.65332,1.38968,1.38968,0,0,1-1.45117-1.55859,1.36423,1.36423,0,0,1,1.416-1.55957,1.29856,1.29856,0,0,1,1.3418,1.40332A2.41914,2.41914,0,0,1,441.72272,130.62986Zm-2.2539-.42578h1.8164c-.0664-.55176-.37109-.89356-.88086-.89356A.903.903,0,0,0,439.46882,130.20408Z"/><path class="cls-3" d="M442.39069,131.331l.39063-.26953a.93519.93519,0,0,0,.94726.52734c.49219,0,.72461-.19726.72461-.44336,0-.22168-.18555-.35351-.78516-.46191-.85156-.15625-1.16406-.38965-1.16406-.89356,0-.48535.45117-.89941,1.18164-.89941a1.08386,1.08386,0,0,1,1.1875.71973l-.4082.24023a.72887.72887,0,0,0-.7793-.54c-.40039,0-.70117.21582-.70117.4375,0,.25781.19727.38965.81055.49219.83789.13769,1.13867.38965,1.13867.88086,0,.52246-.48633.88769-1.25391.88769A1.36855,1.36855,0,0,1,442.39069,131.331Z"/><path class="cls-3" d="M447.65632,131.73923a1.11768,1.11768,0,0,1-.77344.26953.75381.75381,0,0,1-.834-.80371v-1.84082h-.59961v-.41406h.59961v-.71875l.48047-.13281v.85156h1.10938v.41406h-1.10938v1.75684a.40683.40683,0,0,0,.44922.43847.67768.67768,0,0,0,.50977-.22265Z"/><path class="cls-2" d="M431.34473,119.00437a.93412.93412,0,0,1-.55762.88769v.00586a1.04489,1.04489,0,0,1,.7373,1.01368c0,.68945-.56933,1.12695-1.43945,1.12695-.86328,0-1.43848-.4375-1.43848-1.12695a1.045,1.045,0,0,1,.74317-1.01368v-.00586a.92759.92759,0,0,1-.56348-.88769c0-.6416.49707-1.03711,1.25879-1.03711S431.34473,118.36277,431.34473,119.00437Zm-.31836,1.85937c0-.45605-.3711-.73144-.94141-.73144-.56348,0-.94141.27539-.94141.73144,0,.4502.36622.72559.94141.72559C430.667,121.58933,431.02637,121.31394,431.02637,120.86374Zm-1.70313-1.81054c0,.38965.30664.6289.76172.6289.45606,0,.76172-.23925.76172-.6289,0-.40235-.29395-.63575-.76172-.63575S429.32324,118.65085,429.32324,119.0532Z"/><path class="cls-2" d="M433.21191,119.311a.38965.38965,0,1,1-.38964-.38965A.36854.36854,0,0,1,433.21191,119.311Zm0,2.33887a.38965.38965,0,1,1-.38964-.39063A.36777.36777,0,0,1,433.21191,121.64988Z"/><path class="cls-2" d="M434.09961,120.00046c0-1.32519.51562-2.03906,1.47559-2.03906.959,0,1.4746.71387,1.4746,2.03906s-.51562,2.03809-1.4746,2.03809C434.61523,122.03855,434.09961,121.32566,434.09961,120.00046Zm2.45312,0c0-1.04394-.34179-1.60742-.97753-1.60742s-.97754.56348-.97754,1.60742c0,1.043.34179,1.60742.97754,1.60742S436.55273,121.04343,436.55273,120.00046Z"/><path class="cls-2" d="M437.832,120.00046c0-1.32519.51563-2.03906,1.47559-2.03906.959,0,1.47461.71387,1.47461,2.03906s-.51563,2.03809-1.47461,2.03809C438.34766,122.03855,437.832,121.32566,437.832,120.00046Zm2.45313,0c0-1.04394-.3418-1.60742-.97754-1.60742s-.97754.56348-.97754,1.60742c0,1.043.3418,1.60742.97754,1.60742S440.28516,121.04343,440.28516,120.00046Z"/><path class="cls-2" d="M446.5957,119.227a1.19189,1.19189,0,0,1-1.33105,1.20507h-.918V121.979h-.47949v-3.958h1.39746A1.19209,1.19209,0,0,1,446.5957,119.227Zm-.5039,0c0-.49219-.27539-.75586-.89942-.75586h-.8457v1.51074h.8457C445.81641,119.98191,446.0918,119.71824,446.0918,119.227Z"/><path class="cls-2" d="M451.35352,121.979h-.45606V119.4907l.05371-1.044h-.00586l-1.30078,3.53223h-.4082l-1.30078-3.53223h-.00586l.05371,1.044V121.979h-.45606v-3.958h.73731l.87012,2.40527.2998.98926h.01172l.30566-.9834.86426-2.41113h.73731Z"/><path class="cls-1" d="M109.38721,100.50523a4.38513,4.38513,0,0,1-1.01172-.12207.4999.4999,0,0,1-.3711-.60156.49163.49163,0,0,1,.60157-.3711,3.42135,3.42135,0,0,0,.78125.09473l.15234-.0039a3.95735,3.95735,0,0,0,.78418-.12012.50024.50024,0,1,1,.25.96875,4.87606,4.87606,0,0,1-.98437.14941Q109.48975,100.50524,109.38721,100.50523Zm-4.23047-2.17578a.4998.4998,0,0,1-.34668-.13965,19.308,19.308,0,0,1-1.39453-1.50683.49977.49977,0,1,1,.76562-.64258,18.41844,18.41844,0,0,0,1.32227,1.42871.5.5,0,0,1-.34668.86035Zm8.57715-.0752a.5.5,0,0,1-.36035-.84667,15.21635,15.21635,0,0,0,1.24316-1.48243.49981.49981,0,0,1,.80273.59571,16.19992,16.19992,0,0,1-1.32519,1.58007A.49776.49776,0,0,1,113.73389,98.25425Zm-12.30176-4.62207a.5013.5013,0,0,1-.418-.2246q-.53905-.81885-1.0791-1.71a.5.5,0,0,1,.85449-.51953q.53028.87452,1.06055,1.67871a.49979.49979,0,0,1-.418.77539Zm15.70508-.30175a.493.493,0,0,1-.23731-.06055.49846.49846,0,0,1-.20215-.67676q.45411-.84228.90137-1.76367a.5001.5001,0,0,1,.90039.43555c-.30469.62695-.6123,1.22949-.92285,1.80273A.497.497,0,0,1,117.13721,93.33043ZM98.36182,88.46324a.4988.4988,0,0,1-.43848-.25977q-.47607-.86865-.95313-1.77246a.50018.50018,0,0,1,.88477-.46679q.47315.89647.94531,1.75878a.49987.49987,0,0,1-.19824.67872A.49434.49434,0,0,1,98.36182,88.46324ZM119.689,87.888a.48857.48857,0,0,1-.1914-.03808.50073.50073,0,0,1-.27051-.65332q.375-.90234.74512-1.84961a.50034.50034,0,0,1,.93164.36523q-.375.95508-.75293,1.86719A.50018.50018,0,0,1,119.689,87.888ZM95.58252,83.13121a.50038.50038,0,0,1-.44727-.27539q-.44531-.88917-.89257-1.79688a.50006.50006,0,1,1,.89648-.44336q.44678.90381.89063,1.791a.49962.49962,0,0,1-.44727.72461Zm26.25879-.8584a.48326.48326,0,0,1-.168-.0293.5.5,0,0,1-.30273-.63867q.331-.93018.66113-1.88574a.5.5,0,0,1,.94531.32617q-.33252.96094-.665,1.89551A.49967.49967,0,0,1,121.84131,82.27281Zm266.19238-1.76856-.22949-.0039c-.16309-.00684-.32715-.01856-.49024-.03613a.49933.49933,0,0,1-.44335-.55079.5189.5189,0,0,1,.55078-.44335c.1416.01562.28222.02539.42382.03027l.18848.0039a5.33256,5.33256,0,0,0,1.19141-.13476.49986.49986,0,0,1,.22265.97461A6.33069,6.33069,0,0,1,388.03369,80.50425Zm-4.33984-1.46191a.49759.49759,0,0,1-.27442-.082,15.51333,15.51333,0,0,1-1.64062-1.249.49986.49986,0,1,1,.6543-.75586,14.64639,14.64639,0,0,0,1.53515,1.16894.5.5,0,0,1-.27441.918Zm9.10547-.54687a.5.5,0,0,1-.32422-.88086,14.84472,14.84472,0,0,0,1.3789-1.35254.49991.49991,0,1,1,.74219.66992,15.88856,15.88856,0,0,1-1.47265,1.44434A.49705.49705,0,0,1,392.79932,78.49547ZM92.93408,77.73375a.49881.49881,0,0,1-.45019-.28223l-.87012-1.80664a.49968.49968,0,0,1,.90039-.43359l.87012,1.80468a.49992.49992,0,0,1-.4502.71778Zm30.84375-1.1543a.49947.49947,0,0,1-.47558-.65527q.30908-.94484.61425-1.90332a.50032.50032,0,0,1,.95313.30468q-.30762.96094-.61621,1.90918A.50053.50053,0,0,1,123.77783,76.57945Zm255.542-1.61328a.49857.49857,0,0,1-.38183-.17774q-.63722-.7544-1.26856-1.58105a.50022.50022,0,0,1,.79493-.60742q.61669.80566,1.2373,1.54394a.4994.4994,0,0,1-.38184.82227Zm17.31739-1.05762a.49988.49988,0,0,1-.41895-.77344c.35059-.53613.69824-1.09863,1.042-1.68261a.49945.49945,0,1,1,.86133.50586q-.52734.89794-1.06543,1.72363A.5.5,0,0,1,396.63721,73.90855ZM90.32275,72.31773a.49985.49985,0,0,1-.45019-.28223l-.876-1.7998a.50008.50008,0,1,1,.89844-.43945L90.773,71.6a.4999.4999,0,0,1-.4502.71777ZM125.59912,70.849a.489.489,0,0,1-.14844-.02246.50014.50014,0,0,1-.3291-.626l.59082-1.90625a.49375.49375,0,0,1,.625-.33007.49882.49882,0,0,1,.33008.625l-.59082,1.9082A.49974.49974,0,0,1,125.59912,70.849ZM250.062,70.67515a6.075,6.075,0,0,1-.84082-.06054.50023.50023,0,0,1,.14258-.99024,5.01392,5.01392,0,0,0,1.79785-.06933.49954.49954,0,0,1,.21094.97656A6.15553,6.15553,0,0,1,250.062,70.67515Zm-210.0625-.24023a.5.5,0,0,1-.32031-.88379s.57031-.47461,1.57031-1.2793a.50009.50009,0,1,1,.627.7793c-.99023.7959-1.55468,1.2666-1.55664,1.26758A.498.498,0,0,1,39.99951,70.43492ZM180.394,70.39781a.49987.49987,0,0,1-.09082-.99121A6.25553,6.25553,0,0,0,182.019,68.807a.5001.5001,0,0,1,.459.88867,7.24183,7.24183,0,0,1-1.99121.69336A.49735.49735,0,0,1,180.394,70.39781ZM375.74365,70.142a.49814.49814,0,0,1-.415-.22168q-.55224-.8247-1.10351-1.68457a.4998.4998,0,1,1,.84179-.53906q.54494.8496,1.0918,1.667a.50011.50011,0,0,1-.415.77832ZM176.54541,69.848a.49712.49712,0,0,1-.21582-.04882,10.62222,10.62222,0,0,1-1.77539-1.09473.49942.49942,0,1,1,.59961-.79883,9.70363,9.70363,0,0,0,1.60742.99121.5.5,0,0,1-.21582.95117Zm69.18164-.873a.49078.49078,0,0,1-.30762-.10645,13.57234,13.57234,0,0,1-1.51953-1.39746.50018.50018,0,0,1,.72852-.68555,12.65255,12.65255,0,0,0,1.40625,1.2959.49993.49993,0,0,1-.30762.89356Zm9.06152-.21778a.49992.49992,0,0,1-.30761-.89355,17.30543,17.30543,0,0,0,1.4541-1.28711.5.5,0,1,1,.70117.71289,18.00782,18.00782,0,0,1-1.54,1.36133A.49083.49083,0,0,1,254.78857,68.75718ZM399.605,68.68492a.49995.49995,0,0,1-.44629-.72559q.44385-.8745.87988-1.78808a.50014.50014,0,0,1,.90235.43164q-.44238.92431-.88965,1.80761A.502.502,0,0,1,399.605,68.68492ZM185.30811,67.24351a.5.5,0,0,1-.375-.83105,18.386,18.386,0,0,0,1.2041-1.5293.50019.50019,0,1,1,.8164.57813,19.67631,19.67631,0,0,1-1.2705,1.61328A.50007.50007,0,0,1,185.30811,67.24351Zm-97.64454-.31933a.49978.49978,0,0,1-.44628-.27442q-.45558-.90087-.91114-1.77832a.50055.50055,0,0,1,.88867-.46094q.45558.88185.915,1.78809a.49995.49995,0,0,1-.44629.72559ZM44.71631,66.68a.5.5,0,0,1-.30567-.89551q.7544-.58155,1.59961-1.22168a.5.5,0,0,1,.60157.79883c-.55957.42187-1.09082.82812-1.58985,1.21386A.49707.49707,0,0,1,44.71631,66.68Zm127.25879-.63965a.49666.49666,0,0,1-.37891-.17383c-.42676-.49512-.85254-1.02344-1.27832-1.5791a.50021.50021,0,1,1,.79492-.60742q.61817.81006,1.24121,1.53418a.5.5,0,0,1-.3789.82617Zm-44.6084-.92969a.477.477,0,0,1-.14649-.02246.49875.49875,0,0,1-.331-.624l.58691-1.915a.50044.50044,0,0,1,.957.293l-.58887,1.915A.49855.49855,0,0,1,127.3667,65.1107Zm245.167-.04883a.50141.50141,0,0,1-.42773-.24023q-.51856-.85547-1.03223-1.72364a.4996.4996,0,1,1,.85938-.50976q.51268.86279,1.02832,1.71387a.49977.49977,0,0,1-.42774.75976Zm-130.6914-.60742a.49769.49769,0,0,1-.4209-.23047q-.53028-.82909-1.042-1.74219a.49979.49979,0,0,1,.8711-.49023q.498.88623,1.01269,1.69336a.50008.50008,0,0,1-.42089.76953Zm17.0791-.03223a.4999.4999,0,0,1-.39551-.80664c.39453-.50781.78808-1.04,1.18164-1.59179a.5.5,0,1,1,.81445.58007q-.602.84522-1.20508,1.625A.5006.5006,0,0,1,258.92139,64.42222Zm143.248-1.1748a.49987.49987,0,0,1-.457-.70313q.40429-.90673.80371-1.83007a.50035.50035,0,1,1,.918.39843c-.26855.61719-.53808,1.23145-.80762,1.83789A.49978.49978,0,0,1,402.16943,63.24742ZM49.52979,63.07359a.5.5,0,0,1-.29395-.9043c.53223-.38574,1.07617-.77832,1.63281-1.17285a.50019.50019,0,0,1,.57813.81641q-.82911.58887-1.623,1.165A.49836.49836,0,0,1,49.52979,63.07359Zm139.09863-.81641a.49984.49984,0,0,1-.44141-.73535q.45411-.85107.89356-1.76953a.50056.50056,0,0,1,.90234.4336q-.45117.936-.91309,1.80664A.49888.49888,0,0,1,188.62842,62.25718ZM84.854,61.60777a.50131.50131,0,0,1-.43652-.25586q-.49658-.89062-.99023-1.72949a.49994.49994,0,1,1,.86132-.50781q.49951.8496,1.002,1.749a.49991.49991,0,0,1-.43653.74414Zm83.56543-.40625a.49862.49862,0,0,1-.41894-.22754q-.54053-.832-1.07617-1.70508a.49978.49978,0,1,1,.85156-.52343q.53027.86132,1.06348,1.68359a.49977.49977,0,0,1-.41993.77246ZM369.46631,59.892a.499.499,0,0,1-.43164-.24609l-1.0166-1.72364a.50043.50043,0,1,1,.86132-.50976L369.896,59.138a.5.5,0,0,1-.42969.75391ZM54.45068,59.62144a.50005.50005,0,0,1-.27929-.915q.82909-.5581,1.6709-1.11035a.5.5,0,1,1,.54882.83594c-.55664.36523-1.1123.73437-1.66113,1.10449A.49849.49849,0,0,1,54.45068,59.62144Zm207.89063-.13574a.49995.49995,0,0,1-.4209-.76855q.52734-.82911,1.05469-1.69239a.50011.50011,0,0,1,.85351.52149q-.53174.87012-1.06445,1.708A.50073.50073,0,0,1,262.34131,59.4857Zm-133.20117-.12012a.4952.4952,0,0,1-.14942-.02246.501.501,0,0,1-.32812-.627l.60156-1.91113a.49973.49973,0,1,1,.95313.30078l-.59961,1.90918A.501.501,0,0,1,129.14014,59.36558Zm109.86425-.20312a.50088.50088,0,0,1-.4541-.29q-.41454-.89794-.81933-1.84277a.49958.49958,0,0,1,.918-.39454q.40136.93165.80957,1.81739a.49972.49972,0,0,1-.45411.71Zm200.50977-.1543a.4997.4997,0,0,1-.47461-.34277c-.17187-.51953-.38867-1.15918-.64355-1.89453a.50032.50032,0,0,1,.94531-.32813c.25683.74121.47363,1.38477.64746,1.9082a.50043.50043,0,0,1-.31738.63184A.49036.49036,0,0,1,439.51416,59.00816Zm-34.96289-1.28125a.49973.49973,0,0,1-.46094-.69433l.77735-1.84571a.49985.49985,0,1,1,.92187.38672l-.77734,1.84766A.50061.50061,0,0,1,404.55127,57.72691ZM191.15576,56.805a.48738.48738,0,0,1-.19043-.03809.49906.49906,0,0,1-.27148-.65234c.248-.6045.49511-1.22266.73926-1.84961a.49963.49963,0,1,1,.93164.36133q-.36915.95214-.74707,1.86914A.49861.49861,0,0,1,191.15576,56.805Zm-109.4375-.3252a.49938.49938,0,0,1-.41211-.2168q-.583-.8496-1.16113-1.59863a.49986.49986,0,0,1,.791-.61133c.39648.51172.79394,1.06153,1.19433,1.64356a.5.5,0,0,1-.41211.7832Zm-22.21191-.10449a.5.5,0,0,1-.25879-.92774q.86865-.52587,1.7334-1.02539a.49966.49966,0,0,1,.5.86524q-.85548.49512-1.71582,1.01562A.49893.49893,0,0,1,59.50635,56.37535ZM165.30908,56.058a.49723.49723,0,0,1-.43359-.252q-.49512-.86425-.99024-1.748a.50016.50016,0,0,1,.873-.48829q.4922.87745.98438,1.74024a.50029.50029,0,0,1-.4336.748Zm201.07813-1.3252a.50005.50005,0,0,1-.42676-.23926q-.52588-.85839-1.05274-1.69629a.49988.49988,0,0,1,.84571-.5332q.53026.84228,1.06054,1.708a.501.501,0,0,1-.166.6875A.49524.49524,0,0,1,366.38721,54.73277Zm-100.93555-.39062a.491.491,0,0,1-.251-.06836.49937.49937,0,0,1-.17968-.6836q.501-.85986,1.00293-1.73144a.5005.5005,0,1,1,.86718.5q-.5039.87157-1.00683,1.73535A.4992.4992,0,0,1,265.45166,54.34215ZM130.97217,53.638a.48454.48454,0,0,1-.15625-.02539.49871.49871,0,0,1-.31836-.63086q.31641-.9624.63476-1.90429a.5.5,0,0,1,.94727.32031q-.31786.939-.63281,1.89648A.49932.49932,0,0,1,130.97217,53.638Zm105.71387-.0205a.49953.49953,0,0,1-.4668-.32129q-.356-.92726-.70606-1.88282a.50019.50019,0,0,1,.93946-.34375q.34716.94629.70019,1.86915a.50023.50023,0,0,1-.46679.67871ZM64.75146,53.44468a.49988.49988,0,0,1-.2246-.94628q.92577-.46729,1.82421-.875a.5.5,0,0,1,.41407.91015c-.58594.26563-1.1836.55371-1.78907.85742A.49966.49966,0,0,1,64.75146,53.44468Zm372.75977-.11425a.50007.50007,0,0,1-.46875-.3252c-.22461-.60254-.46094-1.22754-.71-1.87012a.50054.50054,0,1,1,.93359-.36132c.249.64648.48731,1.27539.71387,1.88183a.4996.4996,0,0,1-.46875.67481ZM406.88818,52.182a.4999.4999,0,0,1-.46-.69629l.78907-1.84277a.49958.49958,0,1,1,.918.39453l-.78711,1.84082A.5005.5005,0,0,1,406.88818,52.182ZM77.80811,51.94761a.49734.49734,0,0,1-.31641-.11328,7.162,7.162,0,0,0-1.55957-.99707.5.5,0,1,1,.41016-.91211,8.10775,8.10775,0,0,1,1.78222,1.13575.5.5,0,0,1-.3164.88671Zm115.48632-.76171a.47415.47415,0,0,1-.167-.0293.49829.49829,0,0,1-.30371-.6377q.33105-.93456.66016-1.88769a.5.5,0,0,1,.94531.32617q-.33105.95655-.66406,1.89551A.49873.49873,0,0,1,193.29443,51.1859ZM70.2915,51.13218a.50017.50017,0,0,1-.14648-.97851,18.47146,18.47146,0,0,1,1.99707-.49707.50049.50049,0,1,1,.18164.98437,16.89459,16.89459,0,0,0-1.88574.46973A.51161.51161,0,0,1,70.2915,51.13218Zm92.08887-.32421a.49993.49993,0,0,1-.43848-.25977l-.96484-1.75586a.49959.49959,0,0,1,.875-.48242l.9668,1.75781a.49987.49987,0,0,1-.19824.67871A.49442.49442,0,0,1,162.38037,50.808Zm157.85156-.083a9.27148,9.27148,0,0,1-1.40527-.10254.4996.4996,0,0,1-.41895-.56934.50508.50508,0,0,1,.57032-.41894,6.372,6.372,0,0,0,1.27539.09082c.20215,0,.40625-.00684.61328-.01856a.49288.49288,0,0,1,.52832.46973.49954.49954,0,0,1-.46973.52832A6.04992,6.04992,0,0,1,320.23193,50.725Zm4.58887-.74707a.49992.49992,0,0,1-.13769-.98047c.61328-.17578,1.23925-.37793,1.877-.60156a.5.5,0,0,1,.332.94336c-.65723.23144-1.30273.43945-1.93359.61914A.48367.48367,0,0,1,324.8208,49.97789Zm38.30859-.2959a.501.501,0,0,1-.4121-.21582q-.57276-.8335-1.15235-1.61817a.5.5,0,0,1,.80469-.59375c.3916.53028.78223,1.08008,1.17187,1.64356a.4998.4998,0,0,1-.41211.78418Zm-47.96484-.42969a.49337.49337,0,0,1-.23437-.05859c-.55469-.29492-1.14747-.63965-1.76172-1.02637a.49988.49988,0,1,1,.5332-.8457c.59277.373,1.16406.706,1.69727.98926a.49993.49993,0,0,1-.23438.9414Zm-46.71387-.11914a.5.5,0,0,1-.43359-.749l1.001-1.73828a.50014.50014,0,0,1,.86523.502l-.999,1.73437A.4983.4983,0,0,1,268.45068,49.13316Zm-33.80859-1.16992a.50031.50031,0,0,1-.47266-.33691q-.32519-.94337-.64648-1.9004a.49966.49966,0,1,1,.94726-.31835q.3208.95067.64454,1.89257a.5.5,0,0,1-.47266.66309Zm-101.71094-.00977a.50021.50021,0,0,1-.46972-.67089q.34863-.958.69824-1.88477a.50005.50005,0,1,1,.93554.35352q-.34716.91992-.69433,1.873A.49935.49935,0,0,1,132.93115,47.95347Zm197.52051-.05468a.50017.50017,0,0,1-.19727-.96c.6045-.25782,1.2129-.52735,1.82422-.80274a.5.5,0,1,1,.41016.91211q-.92578.416-1.83984.81055A.5054.5054,0,0,1,330.45166,47.89879Zm104.85156-.16407a.4995.4995,0,0,1-.46093-.30664q-.38233-.9126-.78516-1.83691a.49985.49985,0,1,1,.916-.40039c.27051.61914.53418,1.23828.791,1.85058a.50017.50017,0,0,1-.46094.69336Zm-26.0039-1.06054a.5085.5085,0,0,1-.208-.04493.5011.5011,0,0,1-.24707-.66308q.42188-.92431.84668-1.82324a.50017.50017,0,0,1,.90429.42773q-.42187.8921-.84082,1.81152A.50037.50037,0,0,1,409.29932,46.67418ZM310.147,45.96129a.49518.49518,0,0,1-.29883-.09961q-.791-.59034-1.5996-1.22461a.50011.50011,0,1,1,.61718-.78711c.53223.416,1.0586.82129,1.58008,1.21094a.49994.49994,0,0,1-.29883.90039ZM159.46631,45.5482a.50106.50106,0,0,1-.43555-.25391c-.33008-.584-.66015-1.16406-.99121-1.73437a.50015.50015,0,0,1,.86524-.502q.4995.86132.99707,1.74414a.49984.49984,0,0,1-.43555.74609Zm35.76855-.05469a.49463.49463,0,0,1-.15722-.02539.5.5,0,0,1-.31739-.63183q.31348-.94629.623-1.90039a.5.5,0,1,1,.95117.30859q-.31054.95654-.625,1.90625A.49969.49969,0,0,1,195.23486,45.49351Zm140.68457-.07715a.49994.49994,0,0,1-.21093-.95312l1.81836-.84375a.49988.49988,0,1,1,.418.9082l-1.81445.8418A.49081.49081,0,0,1,335.91943,45.41636Zm23.52832-.47558a.50047.50047,0,0,1-.37109-.16406c-.46-.50977-.9209-.98145-1.36914-1.40332a.50018.50018,0,0,1,.68555-.72852c.46777.44043.94726.93164,1.42578,1.46a.5.5,0,0,1-.3711.83594ZM341.394,42.94566a.4999.4999,0,0,1-.19531-.96q.94482-.40137,1.86816-.76074a.5.5,0,1,1,.36329.93164q-.90967.353-1.84082.749A.49246.49246,0,0,1,341.394,42.94566Zm-206.27343-.59277a.4999.4999,0,0,1-.46-.69629q.40577-.94921.81641-1.84473a.49988.49988,0,0,1,.9082.418q-.4043.88036-.80468,1.81934A.499.499,0,0,1,135.12061,42.35289Zm297.71972-.10254a.49987.49987,0,0,1-.45019-.28223q-.438-.90526-.8916-1.78027a.49968.49968,0,1,1,.88671-.46094c.30762.59082.60938,1.19434.90528,1.80567a.49992.49992,0,0,1-.4502.71777Zm-127.40625-.01563a.49732.49732,0,0,1-.3164-.11328l-1.54981-1.26953a.50029.50029,0,0,1,.63477-.77344l1.54785,1.26953a.5.5,0,0,1-.31641.88672Zm106.499-.96386a.50017.50017,0,0,1-.44141-.73438q.48194-.90966.9707-1.76855a.49989.49989,0,0,1,.86914.49414q-.48194.8452-.957,1.74316A.49981.49981,0,0,1,411.93311,41.27086Zm-57.09961-.10743a.50371.50371,0,0,1-.22559-.05371,7.502,7.502,0,0,0-1.67773-.62207.53341.53341,0,0,1-.41114-.60156.47074.47074,0,0,1,.54981-.39258l.0957.02149a8.51135,8.51135,0,0,1,1.89453.70215.5.5,0,0,1-.22558.94628Zm-7.79-.24218a.50023.50023,0,0,1-.12989-.9834c.70313-.1875,1.376-.33594,2.001-.43945a.49287.49287,0,0,1,.5752.41113.4999.4999,0,0,1-.41114.57519c-.59375.09864-1.23437.23926-1.90527.41993A.54464.54464,0,0,1,347.04346,40.92125Zm-190.63867-.5459a.49916.49916,0,0,1-.42286-.2334q-.54053-.85841-1.082-1.66992a.49972.49972,0,0,1,.83008-.55664q.55078.82177,1.09766,1.69336a.49948.49948,0,0,1-.15625.68945A.49343.49343,0,0,1,156.40479,40.37535Zm40.69335-.59766a.5.5,0,0,1-.47558-.65429l.62109-1.90723a.49967.49967,0,1,1,.94922.3125l-.61914,1.90332A.50052.50052,0,0,1,197.09814,39.77769Zm77.61915-.89844a.5.5,0,0,1-.41211-.7832q.58593-.85107,1.17285-1.64551a.49981.49981,0,1,1,.80273.59571q-.57568.77782-1.15137,1.61621A.50067.50067,0,0,1,274.71729,38.87925Zm26.06054-.44531a.49944.49944,0,0,1-.31347-.11035q-.78223-.62841-1.56348-1.24121a.49951.49951,0,0,1,.61523-.78711q.78663.61377,1.5752,1.249a.5.5,0,0,1-.31348.88965ZM429.98,36.96226a.49847.49847,0,0,1-.42578-.23828q-.53467-.87157-1.0791-1.65625a.49954.49954,0,1,1,.82031-.57031c.374.53613.74414,1.10644,1.11035,1.70312a.49937.49937,0,0,1-.16406.6875A.49318.49318,0,0,1,429.98,36.96226Zm-292.23535-.01367a.493.493,0,0,1-.24707-.06543.49923.49923,0,0,1-.1875-.68164q.52295-.92285,1.05762-1.73633a.5.5,0,1,1,.83593.54883q-.51708.78661-1.02441,1.68164A.49856.49856,0,0,1,137.74463,36.94859Zm277.293-.81738a.5.5,0,0,1-.40723-.79c.415-.582.833-1.126,1.24219-1.61621a.49989.49989,0,1,1,.76758.64062c-.39356.47071-.79493.99414-1.19532,1.55567A.49928.49928,0,0,1,415.0376,36.13121Zm-262.082-.67285a.50218.50218,0,0,1-.38868-.18457c-.4414-.54493-.875-1.04395-1.28906-1.4834a.50018.50018,0,0,1,.72852-.68555c.42969.457.87988.97461,1.33789,1.53809a.4999.4999,0,0,1-.38867.81543Zm143.04687-.668a.49022.49022,0,0,1-.28808-.0918c-.55079-.38867-1.09766-.76269-1.64063-1.11621a.50028.50028,0,1,1,.54688-.83789q.82909.542,1.66992,1.13769a.49994.49994,0,0,1-.28809.90821Zm-17.583-.63477a.5.5,0,0,1-.36523-.84082c.49023-.52539.98047-1.00781,1.458-1.43359a.50005.50005,0,1,1,.666.74609c-.45508.40528-.92383.86621-1.39355,1.36914A.49688.49688,0,0,1,278.41943,34.15562Zm147.90039-1.94043a.49929.49929,0,0,1-.34082-.13476,7.665,7.665,0,0,0-1.49609-1.11817.5.5,0,0,1,.48047-.877,8.612,8.612,0,0,1,1.69726,1.26367.5.5,0,0,1-.34082.86621Zm-285.001-.05273a.5.5,0,0,1-.33692-.87012,8.3567,8.3567,0,0,1,1.70313-1.2207.50018.50018,0,0,1,.4668.88476,7.28966,7.28966,0,0,0-1.4961,1.07618A.50027.50027,0,0,1,141.31885,32.16246Zm277.83691-.34668a.50006.50006,0,0,1-.28222-.91309,8.82252,8.82252,0,0,1,1.85253-.97949.49971.49971,0,1,1,.35157.93555,7.80866,7.80866,0,0,0-1.63965.87011A.50227.50227,0,0,1,419.15576,31.81578Zm-128.27637-.15039a.4959.4959,0,0,1-.21777-.04981,18.30707,18.30707,0,0,0-1.791-.76269.50044.50044,0,1,1,.33984-.94141,19.596,19.596,0,0,1,1.88672.80371.5.5,0,0,1-.21778.9502ZM148.58545,31.392a.49719.49719,0,0,1-.25391-.06934,6.94531,6.94531,0,0,0-1.69433-.73632.50011.50011,0,1,1,.26367-.96485,7.956,7.956,0,0,1,1.93848.83985.5.5,0,0,1-.25391.93066Zm134.59961-.78711a.50015.50015,0,0,1-.17774-.96777c.1045-.03907.209-.07715.31446-.11133a6.76929,6.76929,0,0,1,1.78711-.3291.47341.47341,0,0,1,.52441.47363.49864.49864,0,0,1-.47363.52441,5.8178,5.8178,0,0,0-1.52442.28028c-.09082.03027-.18164.0625-.27246.09765A.514.514,0,0,1,283.18506,30.60484Zm-82.2168-2.21094a.50008.50008,0,0,1-.46875-.67382q.353-.95362.71192-1.88086a.49963.49963,0,0,1,.93164.36132q-.356.91993-.70606,1.86719A.5.5,0,0,1,200.96826,28.3939Zm25.88281-3.17675a.49968.49968,0,0,1-.46484-.31543q-.37353-.94189-.75293-1.84473a.50023.50023,0,0,1,.92188-.38867c.25586.60742.50976,1.23047.76074,1.86426a.501.501,0,0,1-.28028.64941A.51123.51123,0,0,1,226.85107,25.21715Zm-23.64746-2.40332a.50579.50579,0,0,1-.20117-.042.50047.50047,0,0,1-.25683-.65918q.416-.94189.83984-1.835a.49971.49971,0,1,1,.90234.42969q-.41894.88036-.82617,1.80762A.50142.50142,0,0,1,203.20361,22.81383ZM224.436,19.71324a.4983.4983,0,0,1-.44727-.27734q-.45409-.91115-.91992-1.75489a.50006.50006,0,0,1,.875-.48437c.31738.57324.63086,1.17285.93945,1.79394a.49951.49951,0,0,1-.22461.66992A.49054.49054,0,0,1,224.436,19.71324Zm-18.52735-2.26172a.50022.50022,0,0,1-.42969-.75488c.36329-.61231.73145-1.18946,1.09473-1.71582a.49979.49979,0,1,1,.82227.56836c-.34961.50683-.70606,1.06445-1.05762,1.65722A.49933.49933,0,0,1,205.90869,17.45152Zm15.43848-2.87793a.50161.50161,0,0,1-.39844-.19726,15.71983,15.71983,0,0,0-1.25684-1.47266.5.5,0,0,1,.7168-.69727,17.15569,17.15569,0,0,1,1.33692,1.56446.49991.49991,0,0,1-.39844.80273ZM209.564,12.725a.5.5,0,0,1-.33691-.86914,10.90149,10.90149,0,0,1,1.65137-1.25684.5002.5002,0,1,1,.52344.85254,9.94962,9.94962,0,0,0-1.501,1.14258A.49661.49661,0,0,1,209.564,12.725Zm7.2461-1.90821a.48628.48628,0,0,1-.17285-.03125,5.4777,5.4777,0,0,0-1.75782-.34082.49987.49987,0,0,1-.4873-.51269.49236.49236,0,0,1,.5127-.48731,6.44425,6.44425,0,0,1,2.07812.40332.49985.49985,0,0,1-.17285.96875Z"/><path class="cls-1" d="M439.99951,110.25035h-400a.25049.25049,0,0,1-.25-.25v-100a.25.25,0,1,1,.5,0v99.75h399.75a.25.25,0,0,1,0,.5Z"/><path class="cls-1" d="M144.34814,112.25035a.25049.25049,0,0,1-.25-.25v-2a.25.25,0,0,1,.5,0v2A.25048.25048,0,0,1,144.34814,112.25035Z"/><path class="cls-1" d="M248.6958,112.25035a.25049.25049,0,0,1-.25-.25v-2a.25.25,0,0,1,.5,0v2A.25048.25048,0,0,1,248.6958,112.25035Z"/><path class="cls-1" d="M353.04346,112.25035a.25048.25048,0,0,1-.25-.25v-2a.25.25,0,0,1,.5,0v2A.25049.25049,0,0,1,353.04346,112.25035Z"/><path class="cls-1" d="M92.17432,112.25035a.25048.25048,0,0,1-.25-.25v-2a.25.25,0,0,1,.5,0v2A.25049.25049,0,0,1,92.17432,112.25035Z"/><path class="cls-1" d="M196.522,112.25035a.25049.25049,0,0,1-.25-.25v-2a.25.25,0,0,1,.5,0v2A.25048.25048,0,0,1,196.522,112.25035Z"/><path class="cls-1" d="M300.86963,112.25035a.25048.25048,0,0,1-.25-.25v-2a.25.25,0,1,1,.5,0v2A.25049.25049,0,0,1,300.86963,112.25035Z"/><path class="cls-1" d="M39.99951,60.25035h-2a.25.25,0,0,1,0-.5h2a.25.25,0,0,1,0,.5Z"/><path class="cls-2" d="M26.07027,9.00437a.9346.9346,0,0,1-.55762.88769v.00586A1.04446,1.04446,0,0,1,26.25,10.9116c0,.68945-.56934,1.127-1.43945,1.127-.86329,0-1.43848-.4375-1.43848-1.127a1.04461,1.04461,0,0,1,.74316-1.01368V9.89206a.92807.92807,0,0,1-.56347-.88769c0-.6416.49707-1.03711,1.25879-1.03711S26.07027,8.36277,26.07027,9.00437Zm-.31836,1.85937c0-.456-.37109-.73193-.9414-.73193-.56348,0-.94141.27588-.94141.73193,0,.44971.36621.72559.94141.72559C25.39254,11.58933,25.75191,11.31345,25.75191,10.86374Zm-1.70312-1.811c0,.38965.30664.62939.76172.62939.456,0,.76171-.23974.76171-.62939,0-.40186-.29394-.63574-.76171-.63574S24.04879,8.65085,24.04879,9.05271Z"/><path class="cls-2" d="M27.04976,10c0-1.32519.51563-2.03857,1.47559-2.03857C29.48433,7.9614,30,8.67478,30,10s-.51563,2.03858-1.47461,2.03858C27.56539,12.03855,27.04976,11.32517,27.04976,10Zm2.45313,0c0-1.04345-.3418-1.60693-.97754-1.60693S27.54781,8.95652,27.54781,10s.3418,1.60743.97754,1.60743S29.50289,11.04343,29.50289,10Z"/><path class="cls-2" d="M26.664,33.021v.31787A5.22893,5.22893,0,0,0,25.18256,36.979H24.829a5.49094,5.49094,0,0,1,1.46289-3.64014H23.80365V33.021Z"/><path class="cls-2" d="M27.09759,35c0-1.31933.50977-2.03857,1.45118-2.03857S29.99994,33.68064,29.99994,35s-.50977,2.03858-1.45117,2.03858S27.09759,36.31931,27.09759,35Zm2.54883,0c0-1.12109-.38379-1.73291-1.09765-1.73291-.708,0-1.09766.61182-1.09766,1.73291,0,1.12159.38965,1.73291,1.09766,1.73291C29.26263,36.73288,29.64642,36.12156,29.64642,35Z"/><path class="cls-2" d="M26.27533,58.7529l-.3125.14991a.84948.84948,0,0,0-.88867-.624c-.7793,0-1.17969.83985-1.17969,1.80518,0,.10205.00586.21.01758.33594h.02343a1.08825,1.08825,0,0,1,1.13282-.89942,1.26,1.26,0,1,1-.02344,2.51807c-.96484,0-1.47461-.80322-1.47461-2.03858,0-1.34326.66016-2.03857,1.5293-2.03857A1.13809,1.13809,0,0,1,26.27533,58.7529ZM24.08,60.77341a.9079.9079,0,0,0,.959.9419.93307.93307,0,1,0,.00586-1.86524A.9222.9222,0,0,0,24.08,60.77341Z"/><path class="cls-2" d="M27.09759,60c0-1.31933.50977-2.03857,1.45118-2.03857S29.99994,58.68064,29.99994,60s-.50977,2.03858-1.45117,2.03858S27.09759,61.31931,27.09759,60Zm2.54883,0c0-1.12109-.38281-1.73291-1.09765-1.73291-.707,0-1.09766.61182-1.09766,1.73291,0,1.12159.39062,1.73291,1.09766,1.73291C29.26361,61.73288,29.64642,61.12156,29.64642,60Z"/><path class="cls-2" d="M26.37,85.74949a1.21969,1.21969,0,0,1-1.31933,1.28906,1.28512,1.28512,0,0,1-1.373-.92285l.33008-.168a.93537.93537,0,0,0,1.03125.77344.90087.90087,0,0,0,.97754-.95313.87949.87949,0,0,0-.94727-.96,1.12442,1.12442,0,0,0-.9834.43164h-.2998l.21582-2.21875h2.2002v.31836H24.289l-.15527,1.46289-.00586.07813h.00586a1.2438,1.2438,0,0,1,.99511-.38965A1.18463,1.18463,0,0,1,26.37,85.74949Z"/><path class="cls-2" d="M27.09758,85.00046c0-1.31933.50977-2.03906,1.45117-2.03906s1.45118.71973,1.45118,2.03906-.50977,2.03809-1.45118,2.03809S27.09758,86.3198,27.09758,85.00046Zm2.54883,0c0-1.12109-.38379-1.7334-1.09766-1.7334-.708,0-1.09765.61231-1.09765,1.7334s.38965,1.73242,1.09765,1.73242C29.26262,86.73288,29.64641,86.12156,29.64641,85.00046Z"/><path class="cls-2" d="M26.37108,110.94089h-.70117V111.979h-.48047v-1.03809H23.2578v-.35351l1.80664-2.56641h.60547v2.50684h.70117Zm-2.60351-.41308h1.42187v-1.48145l.02344-.63574h-.01172a5.52143,5.52143,0,0,1-.39649.66016Z"/><path class="cls-2" d="M27.05077,109.99949c0-1.3252.51562-2.03809,1.47461-2.03809S30,108.67429,30,109.99949s-.51563,2.03906-1.47461,2.03906S27.05077,111.32468,27.05077,109.99949Zm2.45312,0c0-1.043-.34179-1.60645-.97851-1.60645-.63477,0-.97656.56348-.97656,1.60645,0,1.04394.34179,1.60742.97656,1.60742C29.1621,111.60691,29.50389,111.04343,29.50389,109.99949Z"/><path class="cls-1" d="M39.99951,35.25035h-2a.25.25,0,0,1,0-.5h2a.25.25,0,0,1,0,.5Z"/><path class="cls-1" d="M39.99951,85.25035h-2a.25.25,0,0,1,0-.5h2a.25.25,0,0,1,0,.5Z"/><path class="cls-2" d="M82.127,118.021v3.958h-.3418v-2.97461c0-.16211.00586-.3418.01172-.52734a2.0588,2.0588,0,0,1-1.03711.623l-.08984-.30566a2.30428,2.30428,0,0,0,1.1582-.77344Z"/><path class="cls-2" d="M84.38289,118.021v3.958h-.3418v-2.97461c0-.16211.00586-.3418.01172-.52734a2.05884,2.05884,0,0,1-1.03711.623l-.08984-.30566a2.30428,2.30428,0,0,0,1.1582-.77344Z"/><path class="cls-2" d="M86.05086,119.23777a.2969.2969,0,1,1-.59375,0,.2969.2969,0,0,1,.59375,0Zm0,2.49511a.29689.29689,0,1,1-.29883-.2998A.28119.28119,0,0,1,86.05086,121.73288Z"/><path class="cls-2" d="M86.91023,119.99949c0-1.31934.50977-2.03809,1.45117-2.03809s1.45117.71875,1.45117,2.03809-.50976,2.03906-1.45117,2.03906S86.91023,121.31882,86.91023,119.99949Zm2.54883,0c0-1.1211-.38477-1.73243-1.09766-1.73243-.709,0-1.09765.61133-1.09765,1.73243,0,1.12207.38867,1.73339,1.09765,1.73339C89.07429,121.73288,89.45906,121.12156,89.45906,119.99949Z"/><path class="cls-2" d="M90.57625,119.99949c0-1.31934.50976-2.03809,1.45117-2.03809s1.45117.71875,1.45117,2.03809-.50977,2.03906-1.45117,2.03906S90.57625,121.31882,90.57625,119.99949Zm2.54882,0c0-1.1211-.38476-1.73243-1.09765-1.73243-.709,0-1.09766.61133-1.09766,1.73243,0,1.12207.38867,1.73339,1.09766,1.73339C92.74031,121.73288,93.12507,121.12156,93.12507,119.99949Z"/><path class="cls-2" d="M99.07625,119.18992c0,.72558-.52149,1.16992-1.33789,1.16992h-.98829V121.979h-.34179v-3.958h1.33008C98.55476,118.021,99.07625,118.46433,99.07625,119.18992Zm-.35352,0c0-.54493-.34766-.85157-1.02539-.85157h-.94727v1.70313h.94727C98.37507,120.04148,98.72273,119.73581,98.72273,119.18992Z"/><path class="cls-2" d="M103.67781,121.979h-.33008V119.1362l.03516-.791-1.41407,3.63379h-.30664l-1.4082-3.63379h-.00586l.03516.791V121.979h-.32422v-3.958h.51562l1.1211,2.86035.21679.69531h.00586l.22266-.68945,1.11523-2.86621h.52149Z"/><path class="cls-2" d="M133.5275,121.69675c1.52344-1.16894,2.17774-1.76855,2.17774-2.51855a.8583.8583,0,0,0-.94141-.89942,1.01445,1.01445,0,0,0-1.03125,1.05567l-.30078-.17383a1.2619,1.2619,0,0,1,1.34375-1.19922,1.17063,1.17063,0,0,1,1.2832,1.2168c0,.78613-.61718,1.457-2.0332,2.48828v.00683c.10156-.00683.3418-.01269.4375-.01269h1.7168v.31836H133.5275Z"/><path class="cls-2" d="M137.59,119.23777a.28448.28448,0,0,1-.30078.30078.28148.28148,0,0,1-.293-.30078.27577.27577,0,0,1,.293-.293A.27891.27891,0,0,1,137.59,119.23777Zm0,2.49511a.28275.28275,0,0,1-.30078.294.2969.2969,0,0,1,0-.59375A.28422.28422,0,0,1,137.59,121.73288Z"/><path class="cls-2" d="M138.44743,119.99949c0-1.31934.50976-2.03809,1.45117-2.03809s1.45117.71875,1.45117,2.03809-.50977,2.03906-1.45117,2.03906S138.44743,121.31882,138.44743,119.99949Zm2.54882,0c0-1.1211-.38281-1.73243-1.09765-1.73243-.707,0-1.09766.61133-1.09766,1.73243,0,1.12207.39063,1.73339,1.09766,1.73339C140.61344,121.73288,140.99625,121.12156,140.99625,119.99949Z"/><path class="cls-2" d="M142.11344,119.99949c0-1.31934.50977-2.03809,1.45117-2.03809s1.45118.71875,1.45118,2.03809-.50977,2.03906-1.45118,2.03906S142.11344,121.31882,142.11344,119.99949Zm2.54883,0c0-1.1211-.38281-1.73243-1.09766-1.73243-.707,0-1.09765.61133-1.09765,1.73243,0,1.12207.39062,1.73339,1.09765,1.73339C144.27946,121.73288,144.66227,121.12156,144.66227,119.99949Z"/><path class="cls-2" d="M149.94938,120.77292h-1.87109l-.47461,1.20606h-.35938l1.57227-3.958h.40625l1.5664,3.958h-.35937Zm-.12695-.31738-.64649-1.64941-.15625-.45508H149.008l-.14453.4375-.66015,1.667Z"/><path class="cls-2" d="M155.26383,121.979h-.33008V119.1362l.03711-.791-1.416,3.63379h-.30469L151.84,118.34519h-.00586l.03516.791V121.979H151.547v-3.958h.51562l1.12109,2.86035.21485.69531h.00586l.22265-.68945,1.11524-2.86621h.52148Z"/><path class="cls-2" d="M188.31909,120.74949a1.21969,1.21969,0,0,1-1.31933,1.28906,1.28512,1.28512,0,0,1-1.37305-.92285l.33008-.168a.93537.93537,0,0,0,1.03125.77344.90087.90087,0,0,0,.97754-.95313.87949.87949,0,0,0-.94727-.96,1.12438,1.12438,0,0,0-.98339.43164h-.29981l.21582-2.21875h2.2002v.31836H186.238l-.15527,1.46289-.00586.07813h.00586a1.2438,1.2438,0,0,1,.99511-.38965A1.18463,1.18463,0,0,1,188.31909,120.74949Z"/><path class="cls-2" d="M189.742,119.23874a.29689.29689,0,1,1-.59375,0,.29689.29689,0,0,1,.59375,0Zm0,2.49414a.29689.29689,0,1,1-.29981-.2998A.28145.28145,0,0,1,189.742,121.73288Z"/><path class="cls-2" d="M190.60034,120.00046c0-1.31933.50977-2.03906,1.45118-2.03906s1.45117.71973,1.45117,2.03906-.50977,2.03809-1.45117,2.03809S190.60034,121.3198,190.60034,120.00046Zm2.54883,0c0-1.12109-.38379-1.7334-1.09765-1.7334-.708,0-1.09766.61231-1.09766,1.7334s.38965,1.73242,1.09766,1.73242C192.76538,121.73288,193.14917,121.12156,193.14917,120.00046Z"/><path class="cls-2" d="M194.26636,120.00046c0-1.31933.50977-2.03906,1.45117-2.03906s1.45117.71973,1.45117,2.03906-.50976,2.03809-1.45117,2.03809S194.26636,121.3198,194.26636,120.00046Zm2.54883,0c0-1.12109-.38379-1.7334-1.09766-1.7334-.708,0-1.09765.61231-1.09765,1.7334s.38964,1.73242,1.09765,1.73242C196.4314,121.73288,196.81519,121.12156,196.81519,120.00046Z"/><path class="cls-2" d="M202.10132,120.7739h-1.87109l-.47364,1.20508h-.35937l1.57129-3.958h.40723l1.56543,3.958h-.35938Zm-.126-.31738-.64746-1.64942-.15527-.45605h-.01269l-.14356.4375-.66016,1.668Z"/><path class="cls-2" d="M207.41675,121.979h-.33008v-2.8418l.03614-.792-1.415,3.63379h-.30567l-1.40918-3.63379h-.00586l.03516.792v2.8418H203.699v-3.958h.51562l1.1211,2.86133.21582.69531h.00586l.22265-.68945,1.11524-2.86719h.52148Z"/><path class="cls-2" d="M240.30364,118.98093a.9264.9264,0,0,1-.666.91113v.00586a1.06006,1.06006,0,0,1,.83984,1.03223c0,.6709-.56347,1.1084-1.40918,1.1084-.83984,0-1.40918-.4375-1.40918-1.1084a1.05942,1.05942,0,0,1,.84571-1.03223v-.00586a.91659.91659,0,0,1-.666-.91113c0-.624.47949-1.01367,1.22949-1.01367C239.81731,117.96726,240.30364,118.35691,240.30364,118.98093Zm-.17969,1.91895c0-.50391-.41992-.834-1.05567-.834-.624,0-1.05566.33008-1.05566.834,0,.498.41992.82129,1.05566.82129C239.70989,121.72117,240.124,121.39792,240.124,120.89988Zm-1.93164-1.88868c0,.44336.34863.73145.876.73145.53321,0,.88184-.28809.88184-.73145,0-.45019-.3418-.72558-.88184-.72558C238.5341,118.28562,238.19231,118.561,238.19231,119.0112Z"/><path class="cls-2" d="M241.93645,119.23874a.29689.29689,0,1,1-.59375,0,.29689.29689,0,0,1,.59375,0Zm0,2.49414a.29689.29689,0,1,1-.29981-.2998A.28145.28145,0,0,1,241.93645,121.73288Z"/><path class="cls-2" d="M242.79485,120.00046c0-1.31933.50976-2.03906,1.45117-2.03906s1.45117.71973,1.45117,2.03906-.50977,2.03809-1.45117,2.03809S242.79485,121.3198,242.79485,120.00046Zm2.54882,0c0-1.12109-.38378-1.7334-1.09765-1.7334-.708,0-1.09766.61231-1.09766,1.7334s.38965,1.73242,1.09766,1.73242C244.95989,121.73288,245.34367,121.12156,245.34367,120.00046Z"/><path class="cls-2" d="M246.46086,120.00046c0-1.31933.50977-2.03906,1.45117-2.03906s1.45118.71973,1.45118,2.03906-.50977,2.03809-1.45118,2.03809S246.46086,121.3198,246.46086,120.00046Zm2.54883,0c0-1.12109-.38379-1.7334-1.09766-1.7334-.708,0-1.09765.61231-1.09765,1.7334s.38965,1.73242,1.09765,1.73242C248.6259,121.73288,249.00969,121.12156,249.00969,120.00046Z"/><path class="cls-2" d="M254.29485,120.7739h-1.8711l-.47363,1.20508h-.35938l1.57129-3.958h.40723l1.56543,3.958h-.35937Zm-.126-.31738-.64746-1.64942-.15527-.45605h-.0127l-.14355.4375-.66016,1.668Z"/><path class="cls-2" d="M259.61028,121.979h-.33008v-2.8418l.03613-.792-1.415,3.63379h-.30566l-1.40918-3.63379h-.00586l.03515.792v2.8418h-.32324v-3.958h.51563l1.12109,2.86133.21582.69531h.00586l.22266-.68945,1.11523-2.86719h.52149Z"/><path class="cls-2" d="M290.79827,118.021v3.958h-.3418v-2.97461c0-.16113.00586-.3418.01172-.52734a2.06735,2.06735,0,0,1-1.03711.624l-.08984-.30567a2.29992,2.29992,0,0,0,1.1582-.77441Z"/><path class="cls-2" d="M293.05413,118.021v3.958h-.3418v-2.97461c0-.16113.00586-.3418.01172-.52734a2.06735,2.06735,0,0,1-1.03711.624l-.08984-.30567a2.29992,2.29992,0,0,0,1.1582-.77441Z"/><path class="cls-2" d="M294.7221,119.23874a.29689.29689,0,1,1-.59375,0,.29689.29689,0,0,1,.59375,0Zm0,2.49414a.29689.29689,0,1,1-.29883-.2998A.28066.28066,0,0,1,294.7221,121.73288Z"/><path class="cls-2" d="M295.58147,120.00046c0-1.31933.50977-2.03906,1.45118-2.03906s1.45117.71973,1.45117,2.03906-.50977,2.03809-1.45117,2.03809S295.58147,121.3198,295.58147,120.00046Zm2.54883,0c0-1.12109-.38476-1.7334-1.09765-1.7334-.709,0-1.09766.61231-1.09766,1.7334s.38867,1.73242,1.09766,1.73242C297.74554,121.73288,298.1303,121.12156,298.1303,120.00046Z"/><path class="cls-2" d="M299.24749,120.00046c0-1.31933.50977-2.03906,1.45117-2.03906s1.45117.71973,1.45117,2.03906-.50976,2.03809-1.45117,2.03809S299.24749,121.3198,299.24749,120.00046Zm2.54883,0c0-1.12109-.38477-1.7334-1.09766-1.7334-.709,0-1.09765.61231-1.09765,1.7334s.38867,1.73242,1.09765,1.73242C301.41155,121.73288,301.79632,121.12156,301.79632,120.00046Z"/><path class="cls-2" d="M307.08147,120.7739h-1.87109l-.47461,1.20508h-.35937l1.57226-3.958h.40625l1.56641,3.958h-.35938Zm-.127-.31738-.64648-1.64942-.15625-.45605h-.01172l-.14453.4375-.66016,1.668Z"/><path class="cls-2" d="M312.39788,121.979h-.33008v-2.8418l.03516-.792L310.6889,121.979h-.30664l-1.40821-3.63379h-.00586l.03516.792v2.8418h-.32422v-3.958h.51563l1.12109,2.86133.2168.69531h.00586l.22265-.68945,1.11524-2.86719h.52148Z"/><path class="cls-2" d="M342.24758,121.69773c1.52343-1.16992,2.17773-1.76953,2.17773-2.51856a.859.859,0,0,0-.9414-.90039,1.01445,1.01445,0,0,0-1.03125,1.05567l-.30079-.17383a1.2619,1.2619,0,0,1,1.34375-1.19922,1.17087,1.17087,0,0,1,1.28321,1.21777c0,.78516-.61719,1.457-2.03321,2.48828v.00586c.10157-.00586.3418-.01171.4375-.01171h1.7168v.31738h-2.65234Z"/><path class="cls-2" d="M346.31008,119.23874a.28423.28423,0,0,1-.30078.29981.28121.28121,0,0,1-.293-.29981.27654.27654,0,0,1,.293-.29394A.27967.27967,0,0,1,346.31008,119.23874Zm0,2.49414a.28223.28223,0,0,1-.30078.294.2969.2969,0,0,1,0-.59375A.28422.28422,0,0,1,346.31008,121.73288Z"/><path class="cls-2" d="M347.1675,120.00046c0-1.31933.50976-2.03906,1.45117-2.03906s1.45117.71973,1.45117,2.03906-.50976,2.03809-1.45117,2.03809S347.1675,121.3198,347.1675,120.00046Zm2.54883,0c0-1.12109-.38282-1.7334-1.09766-1.7334-.707,0-1.09766.61231-1.09766,1.7334s.39063,1.73242,1.09766,1.73242C349.33351,121.73288,349.71633,121.12156,349.71633,120.00046Z"/><path class="cls-2" d="M350.83351,120.00046c0-1.31933.50977-2.03906,1.45118-2.03906s1.45117.71973,1.45117,2.03906-.50977,2.03809-1.45117,2.03809S350.83351,121.3198,350.83351,120.00046Zm2.54883,0c0-1.12109-.38281-1.7334-1.09765-1.7334-.707,0-1.09766.61231-1.09766,1.7334s.39063,1.73242,1.09766,1.73242C352.99953,121.73288,353.38234,121.12156,353.38234,120.00046Z"/><path class="cls-2" d="M359.33351,119.19089c0,.72559-.52148,1.169-1.33593,1.169h-.99024V121.979h-.34179v-3.958h1.332C358.812,118.021,359.33351,118.46531,359.33351,119.19089Zm-.35351,0c0-.5459-.34766-.85156-1.02539-.85156h-.94727v1.70312h.94727C358.63234,120.04245,358.98,119.73679,358.98,119.19089Z"/><path class="cls-2" d="M363.93508,121.979H363.605v-2.8418l.03711-.792-1.416,3.63379h-.30468l-1.41016-3.63379h-.00586l.03516.792v2.8418h-.32227v-3.958h.51563l1.12109,2.86133.21484.69531h.00586l.22266-.68945,1.11523-2.86719h.52149Z"/><rect class="cls-4" width="480" height="140"/><rect class="cls-4" x="159.9141" y="20" width="160.1718" height="80"/><rect class="cls-5" x="197.5859" y="42" width="85" height="38" rx="2"/><path class="cls-6" d="M280.58545,80.25035h-81a2.25309,2.25309,0,0,1-2.25-2.25v-34a2.25308,2.25308,0,0,1,2.25-2.25h81a2.25309,2.25309,0,0,1,2.25,2.25v34A2.25309,2.25309,0,0,1,280.58545,80.25035Zm-81-38a1.75212,1.75212,0,0,0-1.75,1.75v34a1.75213,1.75213,0,0,0,1.75,1.75h81a1.75213,1.75213,0,0,0,1.75-1.75v-34a1.75212,1.75212,0,0,0-1.75-1.75Z"/><path class="cls-1" d="M202.58545,65.25035h-1a.25.25,0,0,1,0-.5h1a.25.25,0,0,1,0,.5Z"/><path class="cls-1" d="M202.58545,60.25035h-1a.25.25,0,0,1,0-.5h1a.25.25,0,0,1,0,.5Z"/><path class="cls-1" d="M202.58545,70.25035h-1a.25.25,0,0,1,0-.5h1a.25.25,0,0,1,0,.5Z"/><path class="cls-1" d="M207.58545,76.25035a.25048.25048,0,0,1-.25-.25v-1a.25.25,0,0,1,.5,0v1A.25049.25049,0,0,1,207.58545,76.25035Z"/><path class="cls-1" d="M222.58545,76.25035a.25048.25048,0,0,1-.25-.25v-1a.25.25,0,0,1,.5,0v1A.25049.25049,0,0,1,222.58545,76.25035Z"/><path class="cls-1" d="M212.58545,76.25035a.25048.25048,0,0,1-.25-.25v-1a.25.25,0,0,1,.5,0v1A.25049.25049,0,0,1,212.58545,76.25035Z"/><circle class="cls-7" cx="277.5859" cy="60" r="1"/><path class="cls-6" d="M282.58545,46.25035h-85a.25.25,0,0,1,0-.5h85a.25.25,0,0,1,0,.5Z"/><path class="cls-6" d="M200.83545,45.00035a1,1,0,1,1,1-1A1.00067,1.00067,0,0,1,200.83545,45.00035Zm0-1.5a.5.5,0,1,0,.5.5A.501.501,0,0,0,200.83545,43.50035Z"/><path class="cls-6" d="M203.83545,45.00035a1,1,0,1,1,1-1A1.00067,1.00067,0,0,1,203.83545,45.00035Zm0-1.5a.5.5,0,1,0,.5.5A.501.501,0,0,0,203.83545,43.50035Z"/><path class="cls-6" d="M206.83545,45.00035a1,1,0,1,1,1-1A1.00067,1.00067,0,0,1,206.83545,45.00035Zm0-1.5a.5.5,0,1,0,.5.5A.501.501,0,0,0,206.83545,43.50035Z"/><path class="cls-7" d="M253.394,69.263c-2.2334,0-3.27929-3.57226-4.125-6.46a19.96572,19.96572,0,0,0-.9082-2.69336l-.082-.168c-.75-1.54785-3.041-6.26855-4.60938-5.70312-1.55664.55371-1.89941,3.88281-2.23144,7.10254-.375,3.63769-.71973,7.08887-2.87207,6.9082-1.36035-.10351-1.71582-2.498-2.05957-4.81347-.2002-1.34473-.47364-3.18555-.9209-3.18555h0c-.59668,0-1.01856,1.24023-1.38965,2.334-.40527,1.19141-.78711,2.31739-1.50684,2.64356a1.02231,1.02231,0,0,1-.93261.00195c-.96582-.50488-1.36133-2.6543-1.81836-5.14355-.49512-2.69532-1.05664-5.75-2.36914-5.83692-.02539-.001-.05078-.002-.07617-.002-1.91993,0-3.61231,4.82226-4.43067,7.15625-.08887.252-.16894.48242-.24121.68164-.78516,2.17676-2.83691,7.16894-5.13184,7.16894-.041,0-.082-.001-.123-.00488-1.5791-.124-2.1377-2.58105-2.72949-5.18164-.52539-2.30664-1.06739-4.69238-2.27735-4.81836-.95508-.11621-1.67578,1.63281-2.38574,3.30762-.7334,1.72949-1.42578,3.36328-2.51758,3.68359-1.35937.40235-4.8164-1.77929-5.20508-2.03027a.24949.24949,0,1,1,.26953-.41992c1.00391.64355,3.82227,2.25488,4.79493,1.96972.86425-.25293,1.542-1.85156,2.19726-3.39746.78809-1.85937,1.53418-3.61816,2.76172-3.61816a1.32437,1.32437,0,0,1,.1377.00684c1.56543.16406,2.12207,2.6123,2.71191,5.20507.52539,2.31055,1.06836,4.69922,2.28125,4.79493.02734.002.05469.00292.083.00292,1.61816,0,3.51562-3.65917,4.66211-6.83886.07226-.19824.15234-.42676.24023-.67774.9375-2.66992,2.667-7.667,5.01172-7.48632,1.70117.1123,2.27441,3.22949,2.82813,6.24511.39746,2.16211.80761,4.39844,1.55761,4.79a.515.515,0,0,0,.49414-.01367c.52246-.23731.9043-1.35938,1.24024-2.34961.46679-1.374.9082-2.67285,1.8623-2.67285h.001c.87891,0,1.11523,1.59375,1.415,3.61133.28613,1.92285.6416,4.31543,1.60449,4.38965,1.66992.10156,2.00195-3.22364,2.335-6.46094.34863-3.374.708-6.86328,2.56152-7.52246,1.75977-.625,3.62989,2.65918,5.22754,5.956l.08106.167a19.827,19.827,0,0,1,.93945,2.77149c.82031,2.80273,1.85645,6.31543,3.81153,6.09179,1.21484-.12207,1.75976-2.499,2.28808-4.79785.59082-2.57422,1.14844-5.00586,2.70508-5.20117.97851-.10644,1.85156.95215,2.80078,2.084.77539.92675,1.57715,1.88378,2.24121,1.91113.01074.001.02149.001.0332.001a5.32269,5.32269,0,0,0,2.10352-.9795c1.05957-.66015,2.16113-1.34277,2.95117-1.001.999.42871,1.67481,1.97265,2.39063,3.60644.74218,1.69531,1.50488,3.43653,2.49121,3.374,1.67773-.13184,3.29394-5.67969,3.77539-7.80665a.2474.2474,0,0,1,.2998-.18847.25134.25134,0,0,1,.18848.29883c-.18555.81933-1.87891,8.01074-4.22461,8.19433-1.332.08594-2.13769-1.72949-2.98828-3.67187-.64551-1.47266-1.31152-2.9961-2.12988-3.34766-.5586-.24023-1.584.40234-2.48926.96582a5.08526,5.08526,0,0,1-2.42188,1.05469c-.88476-.03711-1.71972-1.03418-2.60351-2.08985-.82129-.98046-1.66992-1.9873-2.35547-1.90917-1.21.15136-1.75391,2.52343-2.28027,4.81738-.59375,2.584-1.15332,5.02539-2.72559,5.18359C253.5376,69.25914,253.46533,69.263,253.394,69.263Z"/><path class="cls-1" d="M217.58545,76.25035a.25048.25048,0,0,1-.25-.25v-1a.25.25,0,0,1,.5,0v1A.25049.25049,0,0,1,217.58545,76.25035Z"/><path class="cls-1" d="M227.58545,76.25035a.25048.25048,0,0,1-.25-.25v-1a.25.25,0,0,1,.5,0v1A.25049.25049,0,0,1,227.58545,76.25035Z"/><path class="cls-1" d="M232.58545,76.25035a.25048.25048,0,0,1-.25-.25v-1a.25.25,0,0,1,.5,0v1A.25049.25049,0,0,1,232.58545,76.25035Z"/><path class="cls-1" d="M229.08838,40.93394a.24837.24837,0,0,1-.17676-.07324l-1-1a.25.25,0,0,1,.35352-.35352l1,1a.25.25,0,0,1-.17676.42676Z"/><path class="cls-1" d="M231.08838,40.93394a.24837.24837,0,0,1-.17676-.07324l-2-2a.25.25,0,0,1,.35352-.35352l2,2a.25.25,0,0,1-.17676.42676Z"/><path class="cls-8" d="M227.41081,43.07134l-4.94975,4.94975c-.07811.0781-.29971-.01687-.495-.21213s-.29023-.41687-.21213-.495l4.94975-4.94975"/><path class="cls-6" d="M222.38623,48.2982a.9143.9143,0,0,1-.59668-.3125c-.31738-.31738-.40234-.6582-.21191-.84863l4.94922-4.94922a.25.25,0,1,1,.35351.35351L221.99268,47.43a.86746.86746,0,0,0,.35253.35254l4.88868-4.8877a.25.25,0,0,1,.35351.35352l-4.94922,4.94921A.34617.34617,0,0,1,222.38623,48.2982Z"/><path class="cls-8" d="M227.05715,42.71779a4,4,0,1,0,0-5.65686A4.0002,4.0002,0,0,0,227.05715,42.71779Zm.70727-4.94977a2.99991,2.99991,0,1,1,0,4.24267A2.99975,2.99975,0,0,1,227.76442,37.768Z"/><path class="cls-6" d="M229.88525,44.13707a4.23721,4.23721,0,0,1-3.00488-1.24219h0a4.25671,4.25671,0,1,1,3.00488,1.24219Zm-2.65136-1.59571a3.75029,3.75029,0,1,0,0-5.30371,3.75689,3.75689,0,0,0,0,5.30371Zm2.65136.59668a3.24853,3.24853,0,0,1-2.29785-5.54687h0a3.25034,3.25034,0,1,1,2.29785,5.54687Zm-1.94433-5.19336a2.7504,2.7504,0,1,0,3.88965,0,2.7555,2.7555,0,0,0-3.88965,0Z"/><path class="cls-9" d="M221.83136,33.79691c-.76484,2.31082-4.20418,4.17067-8.7761,3.25991a11.46453,11.46453,0,0,1-6.08556-4.02549s-7.99224.91825-8.21314-.43625c-.24331-1.49187,9.68246-2.7663,15.30946-2.0931,2.735.32721,4.35809,1.33837,5.65606.56654a10.48707,10.48707,0,0,1,4.12111-1.29527c1.63279-.05831,3.06381,1.77548,2.53666,2.47834-.6123.81639-1.70862.09525-2.53666.23326A2.72,2.72,0,0,0,221.83136,33.79691Z"/><path class="cls-6" d="M215.4126,37.5482a12.31,12.31,0,0,1-2.40625-.24609,11.748,11.748,0,0,1-6.15528-4.00586c-2.084.23242-8.10644.77929-8.34179-.66114a.67552.67552,0,0,1,.21679-.58789c1.34375-1.40136,10.10743-2.42187,15.36914-1.793a20.679,20.679,0,0,1,2.58692.50879c1.25879.3086,2.16992.53223,2.91211.09082a10.86178,10.86178,0,0,1,4.24023-1.33105,3.18232,3.18232,0,0,1,2.70508,1.64258,1.15531,1.15531,0,0,1,.04,1.23633c-.48535.64746-1.19531.5166-1.82227.40136a2.72349,2.72349,0,0,0-.873-.07129,2.49229,2.49229,0,0,0-1.81543,1.14356h0C221.41943,35.83726,218.96338,37.5482,215.4126,37.5482Zm-8.44336-4.7666a.248.248,0,0,1,.206.10937,11.29608,11.29608,0,0,0,5.92871,3.9209c4.38672.873,7.76075-.88769,8.49024-3.09277a2.9582,2.9582,0,0,1,2.208-1.48145,3.18933,3.18933,0,0,1,1.04492.07325c.64062.12011,1.0459.17089,1.332-.21.10547-.13964.07422-.40234-.083-.7041a2.6158,2.6158,0,0,0-2.24414-1.374,10.24857,10.24857,0,0,0-4.00195,1.26074c-.91895.54785-1.96289.291-3.28711-.03515a20.51037,20.51037,0,0,0-2.52637-.498c-5.29785-.63574-13.82812.47265-14.95019,1.64258-.043.04492-.0918.10937-.083.16211.10937.66992,4.1914.65918,7.9375.22851Zm14.8623,1.01562h0Z"/><path class="cls-10" d="M226.32961,32.42961c.13179.24.4704,1.25209.205,1.403s-.78554-1.0382-.78554-1.0382"/><path class="cls-6" d="M215.01416,35.26109a5.26744,5.26744,0,0,1-.9043-.0791,5.074,5.074,0,0,1-3.56933-2.2793.25029.25029,0,0,1,.44336-.23242,4.63037,4.63037,0,0,0,3.21093,2.01953A3.763,3.763,0,0,0,217.479,33.847a.25371.25371,0,0,1,.35352.01367.25016.25016,0,0,1-.01367.35352A4.04361,4.04361,0,0,1,215.01416,35.26109Z"/><path class="cls-6" d="M212.09229,41.6a.246.246,0,0,1-.16993-.06738.2489.2489,0,0,1-.08007-.19141l.15039-4.41309c.00488-.13769.11328-.21777.25878-.24121a.25.25,0,0,1,.24122.25879l-.14063,4.125,1.11816-.12012a.25042.25042,0,1,1,.05274.49805l-1.4043.15039Z"/><path class="cls-6" d="M214.97705,41.45054a.2494.2494,0,0,1-.25-.24121l-.14258-3.92187a.25.25,0,0,1,.24121-.25879.24551.24551,0,0,1,.25879.24121l.13184,3.64258.96582-.14063a.2497.2497,0,0,1,.07226.49414l-1.24121.18164A.22456.22456,0,0,1,214.97705,41.45054Z"/><path class="cls-1" d="M247.58545,76.25035a.25048.25048,0,0,1-.25-.25v-1a.25.25,0,0,1,.5,0v1A.25049.25049,0,0,1,247.58545,76.25035Z"/><path class="cls-1" d="M237.58545,76.25035a.25048.25048,0,0,1-.25-.25v-1a.25.25,0,0,1,.5,0v1A.25049.25049,0,0,1,237.58545,76.25035Z"/><path class="cls-1" d="M242.58545,76.25035a.25048.25048,0,0,1-.25-.25v-1a.25.25,0,0,1,.5,0v1A.25049.25049,0,0,1,242.58545,76.25035Z"/><path class="cls-1" d="M277.58545,75.25035h-75a.25048.25048,0,0,1-.25-.25v-25a.25.25,0,0,1,.5,0v24.75h74.75a.25.25,0,0,1,0,.5Z"/><path class="cls-1" d="M252.58545,76.25035a.25048.25048,0,0,1-.25-.25v-1a.25.25,0,0,1,.5,0v1A.25049.25049,0,0,1,252.58545,76.25035Z"/><path class="cls-1" d="M257.58545,76.25035a.25048.25048,0,0,1-.25-.25v-1a.25.25,0,1,1,.5,0v1A.25049.25049,0,0,1,257.58545,76.25035Z"/><path class="cls-1" d="M267.58545,76.25035a.25048.25048,0,0,1-.25-.25v-1a.25.25,0,1,1,.5,0v1A.25049.25049,0,0,1,267.58545,76.25035Z"/><path class="cls-7" d="M262.58545,76.25035a.25048.25048,0,0,1-.25-.25v-1a.25.25,0,1,1,.5,0v1A.25049.25049,0,0,1,262.58545,76.25035Z"/><path class="cls-1" d="M272.58545,76.25035a.25048.25048,0,0,1-.25-.25v-1a.25.25,0,1,1,.5,0v1A.25049.25049,0,0,1,272.58545,76.25035Z"/><path class="cls-1" d="M202.58545,55.25035h-1a.25.25,0,0,1,0-.5h1a.25.25,0,0,1,0,.5Z"/><path class="cls-11" d="M254.92755,58.71985c0-.48975-.42969-.79932-1.07959-.79932a1.693,1.693,0,0,0-1.44922.73926l-1.209-.70947a3.18478,3.18478,0,0,1,2.82812-1.33936c1.49951,0,2.53857.66992,2.53857,1.84912,0,1.59913-1.67871,1.77881-1.67871,2.83839h-1.50927C253.36847,59.89905,254.92755,59.58948,254.92755,58.71985Zm-1.75928,4.17774a.96221.96221,0,0,1,1.91894,0,.96083.96083,0,0,1-1.91894,0Z"/><path class="cls-3" d="M258.81982,69.69957a.29006.29006,0,0,1-.041-.00293c-1.64453-.27442-3.53027-2.459-3.96777-3.50977a.24954.24954,0,1,1,.46093-.1914c.40039.96,2.19043,2.97461,3.58887,3.207a.2502.2502,0,0,1-.041.49707Z"/><path class="cls-12" d="M271.33406,77.09788c-2.75222-.11324-4.49935.45561-5.554-.62519-.81275-.8329-2.27176-5.90179-3.8776-5.12364-1.50239.728,1.27468,6.4885,1.45089,7.56047.39483,2.40187,3.01345,4.80224,7.67519,4.81363a17.91213,17.91213,0,0,0,6.40678-1.56106s6.995-3.63519,6.27785-4.80529c-.77705-1.26781-7.03077,1.72861-7.03077,1.72861A9.897,9.897,0,0,0,271.33406,77.09788Z"/><path class="cls-6" d="M271.05225,83.973h-.02442c-4.876-.01269-7.52441-2.6123-7.92187-5.02246a13.418,13.418,0,0,0-.53809-1.58789c-1.09961-2.95215-1.9873-5.65039-.77441-6.23828a1.003,1.003,0,0,1,.80078-.04394c.96484.34277,1.75976,2.042,2.46191,3.541a8.55109,8.55109,0,0,0,.90235,1.67676c.65332.669,1.62695.63184,3.09961.57129.66992-.02637,1.42968-.05664,2.2871-.02149a10.09024,10.09024,0,0,1,5.36915,1.94532c1.33984-.63184,6.3955-2.90235,7.21191-1.56739a.64064.64064,0,0,1,.05957.52344c-.40723,1.46582-5.81934,4.31446-6.43555,4.63477-.12988.0498-.26269.10351-.4248.168A16.83045,16.83045,0,0,1,271.05225,83.973ZM262.2417,71.51793a.52178.52178,0,0,0-.22949.05566c-.9043.43848.39843,3.93457,1.02441,5.61426a12.9862,12.9862,0,0,1,.56348,1.68164c.36328,2.209,2.84375,4.5918,7.42969,4.60351h.02246a16.38271,16.38271,0,0,0,5.88769-1.38476c.167-.06738.30469-.12207.40918-.16016,2.22266-1.1582,5.89258-3.36718,6.15527-4.3125.02247-.084.00293-.11621-.0039-.12793-.40918-.667-3.79981.42871-6.71,1.82325a.24957.24957,0,0,1-.2666-.03223,9.72784,9.72784,0,0,0-5.2002-1.93067c-.83691-.03613-1.585-.00683-2.24609.02149-1.54785.05957-2.66895.10449-3.47657-.72168a8.06877,8.06877,0,0,1-.998-1.81445c-.59375-1.26953-1.40821-3.00879-2.17578-3.28125A.554.554,0,0,0,262.2417,71.51793Z"/><path class="cls-10" d="M261.69181,71.55788c-.283-.103-1.4874-.17444-1.607.13935s1.3077.5529,1.3077.5529"/><path class="cls-6" d="M271.564,81.67515c-.18847,0-.37988-.00781-.57226-.02539a4.63475,4.63475,0,0,1-3.53223-1.84765.25.25,0,1,1,.41992-.27149,4.14115,4.14115,0,0,0,3.15723,1.6211,4.32,4.32,0,0,0,3.49609-1.03321.25011.25011,0,0,1,.36524.3418A4.5901,4.5901,0,0,1,271.564,81.67515Z"/><path class="cls-6" d="M267.49072,88.4691a.21978.21978,0,0,1-.043-.00391l-1.39843-.24121a.24982.24982,0,0,1,.08593-.49219l1.14746.19825.7002-4.45508a.25517.25517,0,0,1,.28613-.208.25052.25052,0,0,1,.208.28613l-.73926,4.70508a.25071.25071,0,0,1-.24707.21094Z"/><path class="cls-6" d="M271.62354,88.6605h0l-1.29981-.00195a.25.25,0,0,1,0-.5h0l1.06055.00195.19824-4.417a.27.27,0,0,1,.26074-.23926.25067.25067,0,0,1,.23926.26075l-.209,4.65625A.25034.25034,0,0,1,271.62354,88.6605Z"/><path class="cls-13" d="M297.716,75.70785l-.5,6.16924c0,.49705-1.34315.9-3,.9s-3-.403-3-.9l-.5-6.16924"/><path class="cls-6" d="M294.21631,83.02672c-1.56543,0-3.25-.35938-3.25-1.14942l-.499-6.14941a.249.249,0,0,1,.22851-.26953.24154.24154,0,0,1,.26953.22851l.5,6.16992c.001.209.96485.66993,2.751.66993s2.75-.46094,2.75-.64942l.501-6.19043a.24345.24345,0,0,1,.26953-.22851.249.249,0,0,1,.22851.26953l-.5,6.16992C297.46631,82.66734,295.78174,83.02672,294.21631,83.02672Z"/><ellipse class="cls-13" cx="294.21597" cy="75.70785" rx="3.5" ry="1.05"/><path class="cls-6" d="M294.21631,77.00816c-1.86328,0-3.75-.44726-3.75-1.30078,0-1.707,7.5-1.707,7.5,0C297.96631,76.5609,296.07959,77.00816,294.21631,77.00816Zm0-2.10058c-2.10254,0-3.25.52832-3.25.7998s1.14746.80078,3.25.80078,3.25-.5293,3.25-.80078S296.31885,74.90758,294.21631,74.90758Z"/><path class="cls-5" d="M294.31725,76.05441c.03515-.492-.35145-3.65511-.28116-4.25258"/><path class="cls-6" d="M294.31689,76.30406l-.01757-.001a.24943.24943,0,0,1-.23145-.2666c.01367-.19824-.05762-.98144-.126-1.73828a21.40731,21.40731,0,0,1-.15429-2.52539.25243.25243,0,0,1,.27734-.21875.249.249,0,0,1,.21875.27734,23.33289,23.33289,0,0,0,.15625,2.4209c.08887.98047.14258,1.59278.126,1.81934A.24964.24964,0,0,1,294.31689,76.30406Z"/><path class="cls-7" d="M297.06452,70.29232c-.41583-.3128-.69124.09774-1.11831-.42941s.49457-.65749.0675-1.18464-.79015.22924-1.15089-.65982-.88556-2.10745-1.5128-.72615,1.01706,2.20636-.26649,2.27036.68264,1.66271-.20642,2.02345-1.211-.41291-1.93595.27716,1.2481,2.17627,2.69534,1.14137c1.44789-1.03536,2.92877,1.23608,3.42334.5786s-.4934-.16525-.16291-1.15206S297.459,70.58906,297.06452,70.29232Z"/><path class="cls-6" d="M296.8335,73.95836a2.13055,2.13055,0,0,1-.95411-.40918c-.64843-.39942-1.38183-.85157-2.09765-.3418a2.27157,2.27157,0,0,1-2.98438-.36035A.81376.81376,0,0,1,290.769,71.683a1.12794,1.12794,0,0,1,1.22364-.30469,1.17932,1.17932,0,0,0,.791-.02344c.043-.01758.06836-.03711.07617-.05762.04493-.11718-.1123-.43945-.21679-.65332-.17871-.36523-.36328-.74218-.1875-1.041a.73351.73351,0,0,1,.61523-.29.64453.64453,0,0,0,.292-.05078.95306.95306,0,0,1-.13574-.25489,2.04987,2.04987,0,0,1-.10449-1.81835c.08691-.19141.34961-.76954.80469-.76954h.01074c.50976.01075.82519.68848,1.15625,1.50586.13379.32618.19336.32325.36523.30371a.76435.76435,0,0,1,.749.292.64682.64682,0,0,1-.0293.90039c-.12012.15918-.12988.17187-.03906.28418a.44522.44522,0,0,0,.43554.20312.85973.85973,0,0,1,.63965.1836h0c.53809.40527.28125,1.335-.08105,2.418-.10938.32618-.04785.36036.05273.417a.45275.45275,0,0,1,.25684.29492.67057.67057,0,0,1-.1836.51172A.513.513,0,0,1,296.8335,73.95836Zm-2.37793-1.47754a3.37727,3.37727,0,0,1,1.68554.64258c.27442.16894.64746.39843.71973.30957.02539-.03516.04395-.0625.05762-.084-.26953-.1709-.45313-.415-.25879-.99707.17773-.53223.54883-1.63867.25488-1.85937h0a.42226.42226,0,0,0-.33594-.084.9012.9012,0,0,1-.82715-.38867.64682.64682,0,0,1,.0293-.90039c.12012-.15918.12988-.17188.03906-.28418-.10253-.127-.15918-.12109-.31445-.1084-.31055.0293-.62305.00293-.874-.61426-.32031-.78906-.55664-1.19043-.70313-1.19336-.00683.00879-.168.0752-.35058.47657a1.57526,1.57526,0,0,0,.10644,1.40722c.11719.26465.22852.51367.09082.73731a.798.798,0,0,1-.67871.27246c-.1709.00781-.21094.0459-.21191.04687-.03028.07911.125.39453.208.56446a1.4164,1.4164,0,0,1,.23535,1.05078.6.6,0,0,1-.35645.34277,1.62612,1.62612,0,0,1-1.0918.04688.65478.65478,0,0,0-.7666.17968c-.15234.14649-.04687.34375.06934.48438a1.78165,1.78165,0,0,0,2.30859.27246A1.62157,1.62157,0,0,1,294.45557,72.48082Z"/><path class="cls-14" d="M183.10969,75.783c2.74573-.22015,4.60173.51759,5.65639-.56321.81275-.8329,2.96366-5.95086,4.62049-5.41536,1.50787.48736-2.12,6.71824-2.29616,7.79021-.39483,2.40187-3.01346,4.80224-7.67519,4.81363-2.84991.007-5.789-.94619-6.69038-1.82559,0,0-7.07384,2.75394-7.55826,1.46989C168.633,80.63825,177.46069,76.23589,183.10969,75.783Z"/><path class="cls-6" d="M183.38428,82.65855c-2.81055,0-5.65723-.90234-6.71192-1.78808-1.0625.40722-6.0205,2.24218-7.35937,1.65039a.681.681,0,0,1-.38086-.38086.81805.81805,0,0,1,.13672-.73633c1.22265-1.92871,9.09472-5.47559,14.02148-5.87012h0a19.22718,19.22718,0,0,1,2.66211.00488c1.30078.06836,2.23926.11622,2.835-.49316a10.81339,10.81339,0,0,0,.9668-1.52148c1.13184-1.959,2.53613-4.39454,3.90918-3.958a.718.718,0,0,1,.44433.41015c.39844.91114-.54785,3.10157-1.73046,5.65723a14.41732,14.41732,0,0,0-.83985,2.00293c-.39648,2.41016-3.04394,5.00977-7.9209,5.02246Zm-6.65918-2.32617a.24842.24842,0,0,1,.1748.07129c.85254.832,3.72168,1.75488,6.48535,1.75488h.0293c4.58691-.01172,7.06641-2.39453,7.42871-4.60449a12.87082,12.87082,0,0,1,.88086-2.13086c.77246-1.6709,2.06641-4.46777,1.72559-5.24707a.21913.21913,0,0,0-.14063-.13379c-.98633-.31445-2.44726,2.2168-3.32226,3.73242a10.27,10.27,0,0,1-1.042,1.62012c-.75293.77051-1.84082.71582-3.21875.64258a19.20958,19.20958,0,0,0-2.59668-.00586c-4.98535.40039-12.583,3.97461-13.63867,5.63965a.38853.38853,0,0,0-.08984.293c.00488.01367.02148.05761.11621.09961.92578.41894,4.76562-.79883,7.11719-1.71485A.26648.26648,0,0,1,176.7251,80.33238Z"/><path class="cls-10" d="M193.69905,70.42224c.29.0528,1.36572.457,1.31168.78118s-1.40093-.04838-1.40093-.04838"/><path class="cls-6" d="M183.5376,80.19175a4.49239,4.49239,0,0,1-3.43067-1.28613.25.25,0,0,1,.38868-.31445,4.14924,4.14924,0,0,0,3.333,1.09375,3.999,3.999,0,0,0,3.19336-1.49121.24946.24946,0,0,1,.416.27539,4.48719,4.48719,0,0,1-3.585,1.71582C183.74756,80.1898,183.64209,80.19175,183.5376,80.19175Z"/><path class="cls-6" d="M186.80713,86.96812H185.6499a.2495.2495,0,0,1-.249-.23144l-.332-4.46a.24888.24888,0,0,1,.23047-.26758.235.235,0,0,1,.26757.23047l.31543,4.22851h.92481a.25.25,0,1,1,0,.5Z"/><path class="cls-6" d="M184.01611,86.96812h-1.1914a.25048.25048,0,0,1-.25-.25V82.39586a.25.25,0,0,1,.5,0v4.07226h.9414a.25.25,0,1,1,0,.5Z"/><path class="cls-11" d="M208.45,56.93867c0-.48975-.42969-.79932-1.07959-.79932a1.693,1.693,0,0,0-1.44922.73926l-1.209-.70947a3.18478,3.18478,0,0,1,2.82812-1.33936c1.49951,0,2.53858.66992,2.53858,1.84912,0,1.59913-1.67871,1.77881-1.67871,2.83839h-1.50928C206.89092,58.11787,208.45,57.8083,208.45,56.93867Zm-1.75928,4.17774a.96222.96222,0,0,1,1.91895,0,.96084.96084,0,0,1-1.91895,0Z"/><path class="cls-3" d="M199.41943,69.182a.24989.24989,0,0,1-.02929-.498,9.78476,9.78476,0,0,0,7.36425-4.67871.24939.24939,0,0,1,.42579.25977,10.26894,10.26894,0,0,1-7.73145,4.915Z"/></g></g></svg>