<svg xmlns="http://www.w3.org/2000/svg" width="540" height="140" viewBox="0 0 540 140"><defs><style>.cls-1{fill:#ddd;}.cls-2{fill:#fff;}.cls-3{fill:#aaa;}.cls-4{fill:gray;}.cls-5{fill:none;}</style></defs><g id="Layer_2" data-name="Layer 2"><g id="Layer_2-2" data-name="Layer 2"><path class="cls-1" d="M40,69.9353S68.87267,48.98936,80,50c12.44876,1.13063,27.5119,50.54545,40,50,15.99256-.69851,24.21256-67.353,40-70,13.94744-2.33852,25.8602,39.74277,40,40,18.02477.32792,22.10046-57.85368,40-60S262.41411,66.033,280,70c13.7955,3.11194,26.41057-36.085,40-40,10.74338-3.09509,29.0691,17.65151,40,20,10.07779,2.16521,29.89693-12.044,40-10,13.86129,2.8044,25.8647,39.56039,40,40,16.00007.49761,24.03385-48.84575,40-50,8.99041-.64994,20,30,20,30v50H40V70"/><path class="cls-1" d="M500,110.5H40a.5.5,0,0,1-.5-.5V70l.001-.03223a.49774.49774,0,0,1,.20556-.43652c1.18457-.85937,29.1211-21.042,40.33887-20.0293,6.36572.57813,12.97412,12.51465,19.97119,25.15137C106.85254,86.99805,113.9165,99.75586,119.978,99.5c7.77588-.33887,13.93506-17.79883,19.89111-34.68359,6.16016-17.46192,11.979-33.95606,20.04834-35.30957,7.47852-1.251,14.00147,9.07714,20.9126,20.01171,6.17138,9.76465,12.55273,19.86133,19.1792,19.98145.0459.001.09277.001.13867.001,8.71338,0,14.28564-14.94727,19.67627-29.40723,5.40674-14.501,10.99707-29.49707,20.11621-30.58984,9.6626-1.165,15.30859,13.82714,21.27246,29.69531,5.25928,13.99316,10.69775,28.46387,18.897,30.31348,7.18409,1.6289,14.38233-9.30079,21.34034-19.86329,5.92724-8.99609,12.05615-18.29882,18.41162-20.12988,6.5083-1.874,15.417,4.48633,24.03222,10.63672,6.05127,4.31934,11.7666,8.40039,16.21094,9.35449,4.91016,1.05664,12.48-2.00781,19.79834-4.96972,7.38428-2.98829,15.02-6.07813,20.1958-5.03125,6.87891,1.3916,13.29688,10.87695,19.50293,20.0498,6.56055,9.69531,13.34424,19.7207,20.41357,19.94043,7.78858.27148,13.88282-12.37988,19.7837-24.58789C465.69824,42.71,471.79736,30.0918,479.96387,29.501c.103-.00684.207-.01075.31006-.01075,9.1914,0,19.74707,29.08887,20.19677,30.34082A.496.496,0,0,1,500.5,60v50A.5.5,0,0,1,500,110.5Zm-459.5-1h459V60.08789c-.62891-1.7207-10.95166-29.59863-19.20361-29.59863-.08741,0-.17334.00293-.26026.00976-7.58984.54883-13.56152,12.90137-19.33642,24.84864C454.38232,68.418,448.44092,80.76367,439.98438,80.5c-7.58008-.23633-14.50928-10.47656-21.21045-20.38086-6.09375-9.00586-12.395-18.31836-18.87305-19.62891-4.8833-.98828-12.376,2.0459-19.62256,4.97754-7.4585,3.01953-15.17139,6.13868-20.3833,5.02149-4.647-.999-10.44434-5.1377-16.582-9.51953-8.42188-6.0127-17.13037-12.22461-23.17481-10.48926-6,1.72851-12.02588,10.875-17.85254,19.71973-7.1455,10.8457-14.53857,22.06542-22.3955,20.2871-8.72608-1.96777-14.26075-16.69433-19.61328-30.93652-5.56592-14.80762-11.32178-30.123-20.21729-29.05469-8.51416,1.02149-13.99658,15.72657-19.29834,29.94727C214.99951,55.89844,209.55469,70.501,200.15674,70.501c-.05518,0-.11035,0-.166-.001-7.165-.12988-13.69287-10.459-20.00586-20.44727C173.55176,39.874,166.898,29.36035,160.08252,30.49316,152.59473,31.749,146.605,48.72852,140.812,65.14941c-6.3457,17.98926-12.33984,34.98145-20.79,35.35059-6.68652.27051-13.57568-12.16992-20.88037-25.3623C92.5791,63.28418,85.793,51.02832,79.95459,50.49805,69.63916,49.53516,43.11426,68.32031,40.5,70.19238Z"/><rect class="cls-2" x="33" y="68" width="7" height="44"/><rect class="cls-2" x="38" y="110" width="464" height="4"/><path class="cls-1" d="M500,110.25H40a.25017.25017,0,0,1-.25-.25V10a.25.25,0,0,1,.5,0v99.75H500a.25.25,0,0,1,0,.5Z"/><path class="cls-1" d="M160,112.25a.25017.25017,0,0,1-.25-.25v-2a.25.25,0,0,1,.5,0v2A.25017.25017,0,0,1,160,112.25Z"/><path class="cls-1" d="M280,112.25a.25017.25017,0,0,1-.25-.25v-2a.25.25,0,0,1,.5,0v2A.25017.25017,0,0,1,280,112.25Z"/><path class="cls-1" d="M400,112.25a.25017.25017,0,0,1-.25-.25v-2a.25.25,0,0,1,.5,0v2A.25017.25017,0,0,1,400,112.25Z"/><path class="cls-1" d="M460,112.25a.25017.25017,0,0,1-.25-.25v-2a.25.25,0,0,1,.5,0v2A.25017.25017,0,0,1,460,112.25Z"/><path class="cls-1" d="M100,112.25a.25017.25017,0,0,1-.25-.25v-2a.25.25,0,0,1,.5,0v2A.25017.25017,0,0,1,100,112.25Z"/><path class="cls-1" d="M220,112.25a.25017.25017,0,0,1-.25-.25v-2a.25.25,0,0,1,.5,0v2A.25017.25017,0,0,1,220,112.25Z"/><path class="cls-1" d="M340,112.25a.25017.25017,0,0,1-.25-.25v-2a.25.25,0,0,1,.5,0v2A.25017.25017,0,0,1,340,112.25Z"/><path class="cls-1" d="M40,60.25H38a.25.25,0,0,1,0-.5h2a.25.25,0,0,1,0,.5Z"/><path class="cls-3" d="M26.07027,9.00437a.9346.9346,0,0,1-.55762.88769v.00586A1.04446,1.04446,0,0,1,26.25,10.9116c0,.68945-.56934,1.127-1.43945,1.127-.86329,0-1.43848-.4375-1.43848-1.127a1.04461,1.04461,0,0,1,.74316-1.01368V9.89206a.92807.92807,0,0,1-.56347-.88769c0-.6416.49707-1.03711,1.25879-1.03711S26.07027,8.36277,26.07027,9.00437Zm-.31836,1.85937c0-.456-.37109-.73193-.9414-.73193-.56348,0-.94141.27588-.94141.73193,0,.44971.36621.72559.94141.72559C25.39254,11.58933,25.75191,11.31345,25.75191,10.86374Zm-1.70312-1.811c0,.38965.30664.62939.76172.62939.456,0,.76171-.23974.76171-.62939,0-.40186-.29394-.63574-.76171-.63574S24.04879,8.65085,24.04879,9.05271Z"/><path class="cls-3" d="M27.04976,10c0-1.32519.51563-2.03857,1.47559-2.03857C29.48433,7.9614,30,8.67478,30,10s-.51563,2.03858-1.47461,2.03858C27.56539,12.03855,27.04976,11.32517,27.04976,10Zm2.45313,0c0-1.04345-.3418-1.60693-.97754-1.60693S27.54781,8.95652,27.54781,10s.3418,1.60743.97754,1.60743S29.50289,11.04343,29.50289,10Z"/><path class="cls-3" d="M26.664,33.021v.31787A5.22893,5.22893,0,0,0,25.18256,36.979H24.829a5.49094,5.49094,0,0,1,1.46289-3.64014H23.80365V33.021Z"/><path class="cls-3" d="M27.09759,35c0-1.31933.50977-2.03857,1.45118-2.03857S29.99994,33.68064,29.99994,35s-.50977,2.03858-1.45117,2.03858S27.09759,36.31931,27.09759,35Zm2.54883,0c0-1.12109-.38379-1.73291-1.09765-1.73291-.708,0-1.09766.61182-1.09766,1.73291,0,1.12159.38965,1.73291,1.09766,1.73291C29.26263,36.73288,29.64642,36.12156,29.64642,35Z"/><path class="cls-3" d="M26.27533,58.7529l-.3125.14991a.84948.84948,0,0,0-.88867-.624c-.7793,0-1.17969.83985-1.17969,1.80518,0,.10205.00586.21.01758.33594h.02343a1.08825,1.08825,0,0,1,1.13282-.89942,1.26,1.26,0,1,1-.02344,2.51807c-.96484,0-1.47461-.80322-1.47461-2.03858,0-1.34326.66016-2.03857,1.5293-2.03857A1.13809,1.13809,0,0,1,26.27533,58.7529ZM24.08,60.77341a.9079.9079,0,0,0,.959.9419.93307.93307,0,1,0,.00586-1.86524A.9222.9222,0,0,0,24.08,60.77341Z"/><path class="cls-3" d="M27.09759,60c0-1.31933.50977-2.03857,1.45118-2.03857S29.99994,58.68064,29.99994,60s-.50977,2.03858-1.45117,2.03858S27.09759,61.31931,27.09759,60Zm2.54883,0c0-1.12109-.38281-1.73291-1.09765-1.73291-.707,0-1.09766.61182-1.09766,1.73291,0,1.12159.39062,1.73291,1.09766,1.73291C29.26361,61.73288,29.64642,61.12156,29.64642,60Z"/><path class="cls-3" d="M26.37,85.74949a1.21969,1.21969,0,0,1-1.31933,1.28906,1.28512,1.28512,0,0,1-1.373-.92285l.33008-.168a.93537.93537,0,0,0,1.03125.77344.90087.90087,0,0,0,.97754-.95313.87949.87949,0,0,0-.94727-.96,1.12442,1.12442,0,0,0-.9834.43164h-.2998l.21582-2.21875h2.20019v.31836H24.289l-.15527,1.46289-.00586.07813h.00586a1.2438,1.2438,0,0,1,.99511-.38965A1.18463,1.18463,0,0,1,26.37,85.74949Z"/><path class="cls-3" d="M27.09758,85.00046c0-1.31933.50977-2.03906,1.45117-2.03906s1.45118.71973,1.45118,2.03906-.50977,2.03809-1.45118,2.03809S27.09758,86.3198,27.09758,85.00046Zm2.54883,0c0-1.12109-.38379-1.7334-1.09766-1.7334-.708,0-1.09765.61231-1.09765,1.7334s.38965,1.73242,1.09765,1.73242C29.26262,86.73288,29.64641,86.12156,29.64641,85.00046Z"/><path class="cls-3" d="M26.37108,110.94089h-.70117V111.979h-.48047v-1.03809H23.2578v-.35351l1.80664-2.56641h.60547v2.50684h.70117Zm-2.60351-.41308h1.42187v-1.48145l.02344-.63574h-.01172a5.52143,5.52143,0,0,1-.39649.66016Z"/><path class="cls-3" d="M27.05077,109.99949c0-1.3252.51562-2.03809,1.47461-2.03809S30,108.67429,30,109.99949s-.51563,2.03906-1.47461,2.03906S27.05077,111.32468,27.05077,109.99949Zm2.45312,0c0-1.043-.34179-1.60645-.97851-1.60645-.63477,0-.97656.56348-.97656,1.60645,0,1.04394.34179,1.60742.97656,1.60742C29.1621,111.60691,29.50389,111.04343,29.50389,109.99949Z"/><path class="cls-1" d="M40,35.25H38a.25.25,0,0,1,0-.5h2a.25.25,0,0,1,0,.5Z"/><path class="cls-1" d="M40,85.25H38a.25.25,0,0,1,0-.5h2a.25.25,0,0,1,0,.5Z"/><path class="cls-3" d="M453.04,120.74949a1.21969,1.21969,0,0,1-1.31933,1.28906,1.28512,1.28512,0,0,1-1.37305-.92285l.33008-.168a.93536.93536,0,0,0,1.03125.77344.90087.90087,0,0,0,.97754-.95313.87949.87949,0,0,0-.94727-.96,1.12442,1.12442,0,0,0-.9834.43164h-.2998l.21582-2.21875H452.872v.31836h-1.91308l-.15528,1.46289-.00586.07813h.00586a1.24384,1.24384,0,0,1,.99512-.38965A1.18463,1.18463,0,0,1,453.04,120.74949Z"/><path class="cls-3" d="M454.46284,119.23874a.29689.29689,0,1,1-.59375,0,.29689.29689,0,0,1,.59375,0Zm0,2.49414a.29689.29689,0,1,1-.2998-.2998A.28144.28144,0,0,1,454.46284,121.73288Z"/><path class="cls-3" d="M455.32124,120.00046c0-1.31933.50977-2.03906,1.45117-2.03906s1.45118.71973,1.45118,2.03906-.50977,2.03809-1.45118,2.03809S455.32124,121.3198,455.32124,120.00046Zm2.54883,0c0-1.12109-.38379-1.7334-1.09766-1.7334-.708,0-1.09765.61231-1.09765,1.7334s.38965,1.73242,1.09765,1.73242C457.48628,121.73288,457.87007,121.12156,457.87007,120.00046Z"/><path class="cls-3" d="M458.98726,120.00046c0-1.31933.50976-2.03906,1.45117-2.03906s1.45117.71973,1.45117,2.03906-.50976,2.03809-1.45117,2.03809S458.98726,121.3198,458.98726,120.00046Zm2.54883,0c0-1.12109-.38379-1.7334-1.09766-1.7334-.708,0-1.09766.61231-1.09766,1.7334s.38965,1.73242,1.09766,1.73242C461.1523,121.73288,461.53609,121.12156,461.53609,120.00046Z"/><path class="cls-3" d="M467.48726,119.19089c0,.72559-.52149,1.169-1.33692,1.169h-.98925V121.979h-.3418v-3.958h1.33105C466.96577,118.021,467.48726,118.46531,467.48726,119.19089Zm-.35352,0c0-.5459-.34765-.85156-1.02539-.85156h-.94726v1.70312h.94726C466.78609,120.04245,467.13374,119.73679,467.13374,119.19089Z"/><path class="cls-3" d="M472.08882,121.979h-.33008v-2.8418l.03613-.792-1.415,3.63379h-.30567l-1.40918-3.63379h-.00586l.03516.792v2.8418h-.32324v-3.958h.51562l1.1211,2.86133.21582.69531h.00586l.22265-.68945,1.11524-2.86719h.52148Z"/><path class="cls-4" d="M494.39455,131.499v.45019h-2.74609v-3.958h.47851V131.499Z"/><path class="cls-4" d="M497.84377,131.57126l-.0293.37793a1.0769,1.0769,0,0,1-.35937.05957.47019.47019,0,0,1-.53907-.44336,1.18545,1.18545,0,0,1-.96679.44336c-.5625,0-1.01953-.26367-1.01953-.80371,0-.44922.39648-.80371,1.16992-.93554l.79687-.13184v-.168a.62919.62919,0,0,0-.70117-.65918.87769.87769,0,0,0-.85742.56934l-.35352-.25782a1.22032,1.22032,0,0,1,1.21094-.73144c.68359,0,1.18164.32422,1.18164,1.01953v1.47559c0,.14355.06055.21582.22852.21582A1.047,1.047,0,0,0,497.84377,131.57126Zm-.94727-.62988v-.41406l-.67187.126c-.52735.09668-.79688.27051-.79688.55176,0,.252.20313.38379.54492.38379C496.45314,131.58884,496.8965,131.33689,496.8965,130.94138Z"/><path class="cls-4" d="M500.25783,131.73923a1.11768,1.11768,0,0,1-.77344.26953.75294.75294,0,0,1-.834-.80371v-1.84082h-.59961v-.41406h.59961v-.71875l.48047-.13281v.85156h1.10937v.41406h-1.10937v1.75684a.40682.40682,0,0,0,.44922.43847.68392.68392,0,0,0,.50976-.22265Z"/><path class="cls-4" d="M503.48439,130.62986h-2.25976a.94857.94857,0,0,0,.97656.959.81138.81138,0,0,0,.8457-.44336l.40235.21a1.28539,1.28539,0,0,1-1.248.65332,1.38968,1.38968,0,0,1-1.45117-1.55859,1.36423,1.36423,0,0,1,1.416-1.55957,1.29856,1.29856,0,0,1,1.3418,1.40332A2.41914,2.41914,0,0,1,503.48439,130.62986Zm-2.2539-.42578h1.8164c-.0664-.55176-.37109-.89356-.88086-.89356A.903.903,0,0,0,501.23049,130.20408Z"/><path class="cls-4" d="M504.15236,131.331l.39063-.26953a.93519.93519,0,0,0,.94726.52734c.49219,0,.72461-.19726.72461-.44336,0-.22168-.18554-.35351-.78515-.46191-.85157-.15625-1.16407-.38965-1.16407-.89356,0-.48535.45118-.89941,1.18164-.89941a1.08385,1.08385,0,0,1,1.1875.71973l-.4082.24023a.72887.72887,0,0,0-.7793-.54c-.40039,0-.70117.21582-.70117.4375,0,.25781.19727.38965.81055.49219.83789.13769,1.13867.38965,1.13867.88086,0,.52246-.48633.88769-1.25391.88769A1.36855,1.36855,0,0,1,504.15236,131.331Z"/><path class="cls-4" d="M509.418,131.73923a1.11768,1.11768,0,0,1-.77344.26953.7538.7538,0,0,1-.834-.80371v-1.84082H507.211v-.41406h.59961v-.71875l.48046-.13281v.85156h1.10938v.41406H508.291v1.75684a.40683.40683,0,0,0,.44922.43847.67768.67768,0,0,0,.50977-.22265Z"/><path class="cls-3" d="M91.66011,118.021v3.958h-.3418v-2.97461c0-.16211.00586-.3418.01172-.52734a2.0588,2.0588,0,0,1-1.03711.623l-.08984-.30566a2.30424,2.30424,0,0,0,1.1582-.77344Z"/><path class="cls-3" d="M93.916,118.021v3.958h-.3418v-2.97461c0-.16211.00586-.3418.01172-.52734a2.0588,2.0588,0,0,1-1.03711.623l-.08984-.30566a2.30424,2.30424,0,0,0,1.1582-.77344Z"/><path class="cls-3" d="M95.58394,119.23777a.2969.2969,0,1,1-.59375,0,.2969.2969,0,0,1,.59375,0Zm0,2.49511a.29689.29689,0,1,1-.29883-.2998A.28118.28118,0,0,1,95.58394,121.73288Z"/><path class="cls-3" d="M96.44331,119.99949c0-1.31934.50977-2.03809,1.45117-2.03809s1.45118.71875,1.45118,2.03809-.50977,2.03906-1.45118,2.03906S96.44331,121.31882,96.44331,119.99949Zm2.54883,0c0-1.1211-.38477-1.73243-1.09766-1.73243-.709,0-1.09765.61133-1.09765,1.73243,0,1.12207.38867,1.73339,1.09765,1.73339C98.60737,121.73288,98.99214,121.12156,98.99214,119.99949Z"/><path class="cls-3" d="M100.10933,119.99949c0-1.31934.50976-2.03809,1.45117-2.03809s1.45117.71875,1.45117,2.03809-.50976,2.03906-1.45117,2.03906S100.10933,121.31882,100.10933,119.99949Zm2.54883,0c0-1.1211-.38477-1.73243-1.09766-1.73243-.709,0-1.09766.61133-1.09766,1.73243,0,1.12207.38868,1.73339,1.09766,1.73339C102.27339,121.73288,102.65816,121.12156,102.65816,119.99949Z"/><path class="cls-3" d="M108.60933,119.18992c0,.72558-.52149,1.16992-1.33789,1.16992h-.98828V121.979h-.3418v-3.958h1.33008C108.08784,118.021,108.60933,118.46433,108.60933,119.18992Zm-.35352,0c0-.54493-.34765-.85157-1.02539-.85157h-.94726v1.70313h.94726C107.90816,120.04148,108.25581,119.73581,108.25581,119.18992Z"/><path class="cls-3" d="M113.21089,121.979h-.33008V119.1362l.03516-.791-1.41406,3.63379h-.30664l-1.40821-3.63379h-.00586l.03516.791V121.979h-.32422v-3.958h.51563l1.12109,2.86035.2168.69531h.00586l.22265-.68945,1.11524-2.86621h.52148Z"/><path class="cls-3" d="M151.40034,121.69675c1.52344-1.16894,2.17774-1.76855,2.17774-2.51855a.8583.8583,0,0,0-.94141-.89942,1.01445,1.01445,0,0,0-1.03125,1.05567l-.30078-.17383a1.26189,1.26189,0,0,1,1.34375-1.19922,1.17063,1.17063,0,0,1,1.2832,1.2168c0,.78613-.61718,1.457-2.0332,2.48828v.00683c.10156-.00683.3418-.01269.4375-.01269h1.7168v.31836h-2.65235Z"/><path class="cls-3" d="M155.46284,119.23777a.28448.28448,0,0,1-.30078.30078.28148.28148,0,0,1-.293-.30078.27577.27577,0,0,1,.293-.293A.27891.27891,0,0,1,155.46284,119.23777Zm0,2.49511a.28275.28275,0,0,1-.30078.294.2969.2969,0,0,1,0-.59375A.28422.28422,0,0,1,155.46284,121.73288Z"/><path class="cls-3" d="M156.32027,119.99949c0-1.31934.50976-2.03809,1.45117-2.03809s1.45117.71875,1.45117,2.03809-.50977,2.03906-1.45117,2.03906S156.32027,121.31882,156.32027,119.99949Zm2.54882,0c0-1.1211-.38281-1.73243-1.09765-1.73243-.707,0-1.09766.61133-1.09766,1.73243,0,1.12207.39063,1.73339,1.09766,1.73339C158.48628,121.73288,158.86909,121.12156,158.86909,119.99949Z"/><path class="cls-3" d="M159.98628,119.99949c0-1.31934.50977-2.03809,1.45117-2.03809s1.45117.71875,1.45117,2.03809-.50976,2.03906-1.45117,2.03906S159.98628,121.31882,159.98628,119.99949Zm2.54883,0c0-1.1211-.38281-1.73243-1.09766-1.73243-.707,0-1.09765.61133-1.09765,1.73243,0,1.12207.39062,1.73339,1.09765,1.73339C162.1523,121.73288,162.53511,121.12156,162.53511,119.99949Z"/><path class="cls-3" d="M167.82222,120.77292h-1.8711l-.4746,1.20606h-.35938l1.57227-3.958h.40625l1.5664,3.958h-.35937Zm-.12695-.31738-.64649-1.64941-.15625-.45508h-.01172l-.14453.4375-.66016,1.667Z"/><path class="cls-3" d="M173.13667,121.979h-.33008V119.1362l.03711-.791-1.416,3.63379H171.123l-1.41016-3.63379H169.707l.03516.791V121.979h-.32227v-3.958h.51563l1.12109,2.86035.21485.69531h.00586l.22265-.68945,1.11524-2.86621h.52148Z"/><path class="cls-3" d="M211.04,120.74949a1.21969,1.21969,0,0,1-1.31933,1.28906,1.28512,1.28512,0,0,1-1.37305-.92285l.33008-.168a.93536.93536,0,0,0,1.03125.77344.90087.90087,0,0,0,.97754-.95313.87949.87949,0,0,0-.94727-.96,1.12442,1.12442,0,0,0-.9834.43164h-.2998l.21582-2.21875H210.872v.31836h-1.91308l-.15528,1.46289-.00586.07813h.00586a1.24384,1.24384,0,0,1,.99512-.38965A1.18463,1.18463,0,0,1,211.04,120.74949Z"/><path class="cls-3" d="M212.46284,119.23874a.29689.29689,0,1,1-.59375,0,.29689.29689,0,0,1,.59375,0Zm0,2.49414a.29689.29689,0,1,1-.2998-.2998A.28144.28144,0,0,1,212.46284,121.73288Z"/><path class="cls-3" d="M213.32124,120.00046c0-1.31933.50977-2.03906,1.45117-2.03906s1.45118.71973,1.45118,2.03906-.50977,2.03809-1.45118,2.03809S213.32124,121.3198,213.32124,120.00046Zm2.54883,0c0-1.12109-.38379-1.7334-1.09766-1.7334-.708,0-1.09765.61231-1.09765,1.7334s.38965,1.73242,1.09765,1.73242C215.48628,121.73288,215.87007,121.12156,215.87007,120.00046Z"/><path class="cls-3" d="M216.98726,120.00046c0-1.31933.50976-2.03906,1.45117-2.03906s1.45117.71973,1.45117,2.03906-.50976,2.03809-1.45117,2.03809S216.98726,121.3198,216.98726,120.00046Zm2.54883,0c0-1.12109-.38379-1.7334-1.09766-1.7334-.708,0-1.09766.61231-1.09766,1.7334s.38965,1.73242,1.09766,1.73242C219.1523,121.73288,219.53609,121.12156,219.53609,120.00046Z"/><path class="cls-3" d="M224.82222,120.7739h-1.8711l-.47363,1.20508h-.35937l1.57129-3.958h.40722l1.56543,3.958h-.35937Zm-.126-.31738-.64746-1.64942-.15527-.45605h-.0127l-.14355.4375-.66016,1.668Z"/><path class="cls-3" d="M230.13765,121.979h-.33008v-2.8418l.03613-.792-1.415,3.63379H228.123l-1.40918-3.63379H226.708l.03516.792v2.8418h-.32325v-3.958h.51563l1.12109,2.86133.21582.69531h.00586l.22266-.68945,1.11523-2.86719h.52149Z"/><path class="cls-3" d="M271.669,118.98093a.9264.9264,0,0,1-.666.91113v.00586a1.06006,1.06006,0,0,1,.83984,1.03223c0,.6709-.56347,1.1084-1.40918,1.1084-.83984,0-1.40918-.4375-1.40918-1.1084a1.05942,1.05942,0,0,1,.84571-1.03223v-.00586a.91659.91659,0,0,1-.666-.91113c0-.624.47949-1.01367,1.22949-1.01367C271.18262,117.96726,271.669,118.35691,271.669,118.98093Zm-.17969,1.91895c0-.50391-.41992-.834-1.05567-.834-.624,0-1.05566.33008-1.05566.834,0,.498.41992.82129,1.05566.82129C271.0752,121.72117,271.48926,121.39792,271.48926,120.89988Zm-1.93164-1.88868c0,.44336.34863.73145.876.73145.53321,0,.88184-.28809.88184-.73145,0-.45019-.3418-.72558-.88184-.72558C269.89941,118.28562,269.55762,118.561,269.55762,119.0112Z"/><path class="cls-3" d="M273.30176,119.23874a.29689.29689,0,1,1-.59375,0,.29689.29689,0,0,1,.59375,0Zm0,2.49414a.29689.29689,0,1,1-.29981-.2998A.28145.28145,0,0,1,273.30176,121.73288Z"/><path class="cls-3" d="M274.16016,120.00046c0-1.31933.50976-2.03906,1.45117-2.03906s1.45117.71973,1.45117,2.03906-.50977,2.03809-1.45117,2.03809S274.16016,121.3198,274.16016,120.00046Zm2.54882,0c0-1.12109-.38378-1.7334-1.09765-1.7334-.708,0-1.09766.61231-1.09766,1.7334s.38965,1.73242,1.09766,1.73242C276.3252,121.73288,276.709,121.12156,276.709,120.00046Z"/><path class="cls-3" d="M277.82617,120.00046c0-1.31933.50977-2.03906,1.45117-2.03906s1.45118.71973,1.45118,2.03906-.50977,2.03809-1.45118,2.03809S277.82617,121.3198,277.82617,120.00046Zm2.54883,0c0-1.12109-.38379-1.7334-1.09766-1.7334-.708,0-1.09765.61231-1.09765,1.7334s.38965,1.73242,1.09765,1.73242C279.99121,121.73288,280.375,121.12156,280.375,120.00046Z"/><path class="cls-3" d="M285.66016,120.7739h-1.8711l-.47363,1.20508h-.35938l1.57129-3.958h.40723L286.5,121.979h-.35938Zm-.126-.31738-.64746-1.64942-.15527-.45605h-.0127l-.14355.4375-.66016,1.668Z"/><path class="cls-3" d="M290.97559,121.979h-.33008v-2.8418l.03613-.792-1.415,3.63379h-.30566l-1.40918-3.63379h-.00586l.03515.792v2.8418h-.32324v-3.958h.51563l1.12109,2.86133.21582.69531h.00586l.22266-.68945,1.11523-2.86719h.52149Z"/><path class="cls-3" d="M329.92871,118.021v3.958h-.3418v-2.97461c0-.16113.00586-.3418.01172-.52734a2.06735,2.06735,0,0,1-1.03711.624l-.08984-.30567a2.29992,2.29992,0,0,0,1.1582-.77441Z"/><path class="cls-3" d="M332.18457,118.021v3.958h-.3418v-2.97461c0-.16113.00586-.3418.01172-.52734a2.06735,2.06735,0,0,1-1.03711.624l-.08984-.30567a2.29992,2.29992,0,0,0,1.1582-.77441Z"/><path class="cls-3" d="M333.85254,119.23874a.29689.29689,0,1,1-.59375,0,.29689.29689,0,0,1,.59375,0Zm0,2.49414a.29689.29689,0,1,1-.29883-.2998A.28066.28066,0,0,1,333.85254,121.73288Z"/><path class="cls-3" d="M334.71191,120.00046c0-1.31933.50977-2.03906,1.45118-2.03906s1.45117.71973,1.45117,2.03906-.50977,2.03809-1.45117,2.03809S334.71191,121.3198,334.71191,120.00046Zm2.54883,0c0-1.12109-.38476-1.7334-1.09765-1.7334-.709,0-1.09766.61231-1.09766,1.7334s.38867,1.73242,1.09766,1.73242C336.876,121.73288,337.26074,121.12156,337.26074,120.00046Z"/><path class="cls-3" d="M338.37793,120.00046c0-1.31933.50977-2.03906,1.45117-2.03906s1.45117.71973,1.45117,2.03906-.50976,2.03809-1.45117,2.03809S338.37793,121.3198,338.37793,120.00046Zm2.54883,0c0-1.12109-.38477-1.7334-1.09766-1.7334-.709,0-1.09765.61231-1.09765,1.7334s.38867,1.73242,1.09765,1.73242C340.542,121.73288,340.92676,121.12156,340.92676,120.00046Z"/><path class="cls-3" d="M346.21191,120.7739h-1.87109l-.47461,1.20508h-.35937l1.57226-3.958h.40625l1.56641,3.958h-.35938Zm-.12695-.31738-.64648-1.64942-.15625-.45605h-.01172l-.14453.4375-.66016,1.668Z"/><path class="cls-3" d="M351.52832,121.979h-.33008v-2.8418l.03516-.792-1.41406,3.63379h-.30664l-1.40821-3.63379h-.00586l.03516.792v2.8418h-.32422v-3.958h.51563l1.12109,2.86133.2168.69531h.00586l.22265-.68945,1.11524-2.86719h.52148Z"/><path class="cls-3" d="M389.2041,121.69773c1.52344-1.16992,2.17774-1.76953,2.17774-2.51856a.859.859,0,0,0-.94141-.90039,1.01445,1.01445,0,0,0-1.03125,1.05567l-.30078-.17383a1.26189,1.26189,0,0,1,1.34375-1.19922,1.17086,1.17086,0,0,1,1.2832,1.21777c0,.78516-.61719,1.457-2.0332,2.48828v.00586c.10156-.00586.3418-.01171.4375-.01171h1.7168v.31738H389.2041Z"/><path class="cls-3" d="M393.2666,119.23874a.28422.28422,0,0,1-.30078.29981.28121.28121,0,0,1-.293-.29981.27654.27654,0,0,1,.293-.29394A.27966.27966,0,0,1,393.2666,119.23874Zm0,2.49414a.28223.28223,0,0,1-.30078.294.2969.2969,0,0,1,0-.59375A.28422.28422,0,0,1,393.2666,121.73288Z"/><path class="cls-3" d="M394.124,120.00046c0-1.31933.50977-2.03906,1.45118-2.03906s1.45117.71973,1.45117,2.03906-.50977,2.03809-1.45117,2.03809S394.124,121.3198,394.124,120.00046Zm2.54883,0c0-1.12109-.38281-1.7334-1.09765-1.7334-.707,0-1.09766.61231-1.09766,1.7334s.39062,1.73242,1.09766,1.73242C396.29,121.73288,396.67285,121.12156,396.67285,120.00046Z"/><path class="cls-3" d="M397.79,120.00046c0-1.31933.50976-2.03906,1.45117-2.03906s1.45117.71973,1.45117,2.03906-.50976,2.03809-1.45117,2.03809S397.79,121.3198,397.79,120.00046Zm2.54883,0c0-1.12109-.38282-1.7334-1.09766-1.7334-.707,0-1.09766.61231-1.09766,1.7334s.39063,1.73242,1.09766,1.73242C399.95605,121.73288,400.33887,121.12156,400.33887,120.00046Z"/><path class="cls-3" d="M406.29,119.19089c0,.72559-.52149,1.169-1.33594,1.169h-.99023V121.979h-.3418v-3.958h1.332C405.76855,118.021,406.29,118.46531,406.29,119.19089Zm-.35352,0c0-.5459-.34765-.85156-1.02539-.85156h-.94726v1.70312h.94726C405.58887,120.04245,405.93652,119.73679,405.93652,119.19089Z"/><path class="cls-3" d="M410.8916,121.979h-.33008v-2.8418l.03711-.792-1.416,3.63379h-.30469l-1.41016-3.63379h-.00586l.03516.792v2.8418h-.32227v-3.958h.51563l1.12109,2.86133.21485.69531h.00586l.22265-.68945,1.11524-2.86719h.52148Z"/><path class="cls-3" d="M493.1064,119.00437a.93412.93412,0,0,1-.55762.88769v.00586a1.04489,1.04489,0,0,1,.73731,1.01368c0,.68945-.56934,1.12695-1.43946,1.12695-.86328,0-1.43847-.4375-1.43847-1.12695a1.045,1.045,0,0,1,.74316-1.01368v-.00586a.92759.92759,0,0,1-.56348-.88769c0-.6416.49707-1.03711,1.25879-1.03711S493.1064,118.36277,493.1064,119.00437Zm-.31836,1.85937c0-.45605-.37109-.73144-.94141-.73144-.56347,0-.9414.27539-.9414.73144,0,.4502.36621.72559.9414.72559C492.42866,121.58933,492.788,121.31394,492.788,120.86374Zm-1.70313-1.81054c0,.38965.30664.6289.76172.6289.45606,0,.76172-.23925.76172-.6289,0-.40235-.29394-.63575-.76172-.63575S491.08491,118.65085,491.08491,119.0532Z"/><path class="cls-3" d="M494.97359,119.311a.38965.38965,0,1,1-.38965-.38965A.36854.36854,0,0,1,494.97359,119.311Zm0,2.33887a.38965.38965,0,1,1-.38965-.39063A.36777.36777,0,0,1,494.97359,121.64988Z"/><path class="cls-3" d="M495.86128,120.00046c0-1.32519.51563-2.03906,1.47559-2.03906.959,0,1.47461.71387,1.47461,2.03906s-.51563,2.03809-1.47461,2.03809C496.37691,122.03855,495.86128,121.32566,495.86128,120.00046Zm2.45313,0c0-1.04394-.3418-1.60742-.97754-1.60742s-.97754.56348-.97754,1.60742c0,1.043.34179,1.60742.97754,1.60742S498.31441,121.04343,498.31441,120.00046Z"/><path class="cls-3" d="M499.5937,120.00046c0-1.32519.51563-2.03906,1.47559-2.03906.959,0,1.47461.71387,1.47461,2.03906s-.51563,2.03809-1.47461,2.03809C500.10933,122.03855,499.5937,121.32566,499.5937,120.00046Zm2.45313,0c0-1.04394-.3418-1.60742-.97754-1.60742s-.97754.56348-.97754,1.60742c0,1.043.3418,1.60742.97754,1.60742S502.04683,121.04343,502.04683,120.00046Z"/><path class="cls-3" d="M508.35737,119.227a1.19189,1.19189,0,0,1-1.33105,1.20507h-.918V121.979h-.47949v-3.958h1.39746A1.19209,1.19209,0,0,1,508.35737,119.227Zm-.5039,0c0-.49219-.27539-.75586-.89942-.75586h-.8457v1.51074h.8457C507.57808,119.98191,507.85347,119.71824,507.85347,119.227Z"/><path class="cls-3" d="M513.11519,121.979h-.45606V119.4907l.05371-1.044H512.707L511.4062,121.979h-.4082l-1.30078-3.53223h-.00586l.05371,1.044V121.979H509.289v-3.958h.7373l.87012,2.40527.2998.98926h.01172l.30566-.9834.86426-2.41113h.73731Z"/><rect class="cls-5" width="540" height="140"/></g></g></svg>