<svg xmlns="http://www.w3.org/2000/svg" width="270" height="140" viewBox="0 0 270 140"><defs><style>.cls-1{fill:#33d67b;}.cls-2{fill:#fff;}.cls-3{fill:#ddd;}.cls-4{fill:gray;}.cls-5{fill:#aaa;}.cls-6{fill:none;}</style></defs><g id="Layer_2" data-name="Layer 2"><g id="Layer_1-2" data-name="Layer 1"><circle class="cls-1" cx="229.72462" cy="62.99997" r="3"/><path class="cls-1" d="M78.1337,105.5012c-.04687,0-.09277,0-.13964-.001-8.66211-.10449-17.77735-9.81836-27.09082-28.873A227.9382,227.9382,0,0,1,39.52238,48.14866a.50007.50007,0,1,1,.95507-.29687c.17481.56445,17.7295,56.40918,37.52832,56.64843,9.52442.15723,14.19825-12.45507,19.11915-25.76367,4.61816-12.48926,9.39257-25.4043,18.77929-27.22754,7.22559-1.40039,13.31153,6.98926,19.76856,15.87012,5.76269,7.92676,11.72168,16.12207,18.20117,16.12207.03906,0,.07812,0,.11816-.001,10.31055-.16015,14.51367-14.02734,18.96387-28.708C177.19523,40.80589,181.578,26.344,191.912,24.508c15.124-2.69825,37.57422,36.57226,38.52247,38.24609a.49941.49941,0,0,1-.86914.49219c-.22852-.40332-23.04786-40.32129-37.47754-37.75391C182.35734,27.2219,178.06437,41.385,173.913,55.08225c-4.3584,14.37793-8.86523,29.24708-19.90527,29.418-.04492.001-.08985.001-.13477.001-6.98828.001-13.09863-8.4043-19.00879-16.53418-5.98925-8.23633-12.1748-16.76562-18.76855-15.47559-8.835,1.71485-13.51074,14.36133-18.0332,26.5918C93.25968,92.07151,88.29386,105.5012,78.1337,105.5012Z"/><rect class="cls-2" x="37" y="46" width="3" height="6"/><path class="cls-3" d="M229.99992,110.25022h-190a.25048.25048,0,0,1-.25-.25v-100a.25.25,0,1,1,.5,0v99.75h189.75a.25.25,0,0,1,0,.5Z"/><path class="cls-4" d="M223.86134,131.499v.45019h-2.74609v-3.958h.47851V131.499Z"/><path class="cls-4" d="M227.31056,131.57126l-.0293.37793a1.0769,1.0769,0,0,1-.35937.05957.47018.47018,0,0,1-.53906-.44336,1.18547,1.18547,0,0,1-.9668.44336c-.5625,0-1.01953-.26367-1.01953-.80371,0-.44922.39648-.80371,1.16992-.93554l.79687-.13184v-.168a.62919.62919,0,0,0-.70117-.65918.87769.87769,0,0,0-.85742.56934l-.35352-.25782a1.22032,1.22032,0,0,1,1.21094-.73144c.6836,0,1.18164.32422,1.18164,1.01953v1.47559c0,.14355.06055.21582.22852.21582A1.047,1.047,0,0,0,227.31056,131.57126Zm-.94727-.62988v-.41406l-.67187.126c-.52734.09668-.79688.27051-.79688.55176,0,.252.20313.38379.54493.38379C225.91993,131.58884,226.36329,131.33689,226.36329,130.94138Z"/><path class="cls-4" d="M229.72462,131.73923a1.11766,1.11766,0,0,1-.77344.26953.75294.75294,0,0,1-.834-.80371v-1.84082h-.59961v-.41406h.59961v-.71875l.48047-.13281v.85156H229.707v.41406h-1.10937v1.75684a.40683.40683,0,0,0,.44922.43847.68392.68392,0,0,0,.50976-.22265Z"/><path class="cls-4" d="M232.95118,130.62986h-2.25976a.94857.94857,0,0,0,.97656.959.81138.81138,0,0,0,.8457-.44336l.40235.21a1.28539,1.28539,0,0,1-1.24805.65332,1.38968,1.38968,0,0,1-1.45117-1.55859,1.36424,1.36424,0,0,1,1.416-1.55957,1.29855,1.29855,0,0,1,1.34179,1.40332A2.41914,2.41914,0,0,1,232.95118,130.62986Zm-2.2539-.42578h1.8164c-.0664-.55176-.37109-.89356-.88085-.89356A.903.903,0,0,0,230.69728,130.20408Z"/><path class="cls-4" d="M233.61915,131.331l.39063-.26953a.93519.93519,0,0,0,.94726.52734c.49219,0,.72461-.19726.72461-.44336,0-.22168-.18554-.35351-.78515-.46191-.85157-.15625-1.16407-.38965-1.16407-.89356,0-.48535.45118-.89941,1.18165-.89941a1.08386,1.08386,0,0,1,1.1875.71973l-.40821.24023a.72887.72887,0,0,0-.77929-.54c-.4004,0-.70118.21582-.70118.4375,0,.25781.19727.38965.81055.49219.83789.13769,1.13867.38965,1.13867.88086,0,.52246-.48633.88769-1.2539.88769A1.36856,1.36856,0,0,1,233.61915,131.331Z"/><path class="cls-4" d="M238.88478,131.73923a1.11768,1.11768,0,0,1-.77344.26953.7538.7538,0,0,1-.834-.80371v-1.84082h-.59961v-.41406h.59961v-.71875l.48047-.13281v.85156h1.10937v.41406h-1.10937v1.75684a.40682.40682,0,0,0,.44921.43847.67768.67768,0,0,0,.50977-.22265Z"/><path class="cls-5" d="M67.95313,118.021v3.958h-.3418v-2.97461c0-.16211.00586-.3418.01172-.52734a2.0588,2.0588,0,0,1-1.03711.623l-.08984-.30566a2.30428,2.30428,0,0,0,1.1582-.77344Z"/><path class="cls-5" d="M70.209,118.021v3.958h-.3418v-2.97461c0-.16211.00586-.3418.01172-.52734a2.0588,2.0588,0,0,1-1.03711.623l-.08984-.30566a2.30428,2.30428,0,0,0,1.1582-.77344Z"/><path class="cls-5" d="M71.877,119.23777a.2969.2969,0,1,1-.59375,0,.2969.2969,0,0,1,.59375,0Zm0,2.49511a.29689.29689,0,1,1-.29883-.2998A.28118.28118,0,0,1,71.877,121.73288Z"/><path class="cls-5" d="M72.73633,119.99949c0-1.31934.50977-2.03809,1.45117-2.03809s1.45117.71875,1.45117,2.03809-.50976,2.03906-1.45117,2.03906S72.73633,121.31882,72.73633,119.99949Zm2.54883,0c0-1.1211-.38477-1.73243-1.09766-1.73243-.709,0-1.09765.61133-1.09765,1.73243,0,1.12207.38867,1.73339,1.09765,1.73339C74.90039,121.73288,75.28516,121.12156,75.28516,119.99949Z"/><path class="cls-5" d="M76.40235,119.99949c0-1.31934.50976-2.03809,1.45117-2.03809s1.45117.71875,1.45117,2.03809-.50977,2.03906-1.45117,2.03906S76.40235,121.31882,76.40235,119.99949Zm2.54882,0c0-1.1211-.38476-1.73243-1.09765-1.73243-.709,0-1.09766.61133-1.09766,1.73243,0,1.12207.38867,1.73339,1.09766,1.73339C78.56641,121.73288,78.95117,121.12156,78.95117,119.99949Z"/><path class="cls-5" d="M84.90235,119.18992c0,.72558-.52149,1.16992-1.33789,1.16992h-.98829V121.979h-.34179v-3.958h1.33008C84.38086,118.021,84.90235,118.46433,84.90235,119.18992Zm-.35352,0c0-.54493-.34766-.85157-1.02539-.85157h-.94727v1.70313h.94727C84.20117,120.04148,84.54883,119.73581,84.54883,119.18992Z"/><path class="cls-5" d="M89.50391,121.979h-.33008V119.1362l.03516-.791L87.79492,121.979h-.30664l-1.4082-3.63379h-.00586l.03516.791V121.979h-.32422v-3.958h.51562l1.1211,2.86035.21679.69531h.00586l.22266-.68945,1.11523-2.86621h.52149Z"/><path class="cls-5" d="M105.17969,121.69675c1.52344-1.16894,2.17774-1.76855,2.17774-2.51855a.8583.8583,0,0,0-.94141-.89942,1.01445,1.01445,0,0,0-1.03125,1.05567l-.30078-.17383a1.26189,1.26189,0,0,1,1.34375-1.19922,1.17064,1.17064,0,0,1,1.2832,1.2168c0,.78613-.61719,1.457-2.0332,2.48828v.00683c.10156-.00683.3418-.01269.4375-.01269h1.7168v.31836h-2.65235Z"/><path class="cls-5" d="M109.24219,119.23777a.28448.28448,0,0,1-.30078.30078.28148.28148,0,0,1-.293-.30078.27577.27577,0,0,1,.293-.293A.27891.27891,0,0,1,109.24219,119.23777Zm0,2.49511a.28275.28275,0,0,1-.30078.294.2969.2969,0,0,1,0-.59375A.28422.28422,0,0,1,109.24219,121.73288Z"/><path class="cls-5" d="M110.09961,119.99949c0-1.31934.50977-2.03809,1.45118-2.03809s1.45117.71875,1.45117,2.03809-.50977,2.03906-1.45117,2.03906S110.09961,121.31882,110.09961,119.99949Zm2.54883,0c0-1.1211-.38281-1.73243-1.09765-1.73243-.707,0-1.09766.61133-1.09766,1.73243,0,1.12207.39062,1.73339,1.09766,1.73339C112.26563,121.73288,112.64844,121.12156,112.64844,119.99949Z"/><path class="cls-5" d="M113.76563,119.99949c0-1.31934.50977-2.03809,1.45117-2.03809s1.45117.71875,1.45117,2.03809-.50976,2.03906-1.45117,2.03906S113.76563,121.31882,113.76563,119.99949Zm2.54883,0c0-1.1211-.38281-1.73243-1.09766-1.73243-.707,0-1.09765.61133-1.09765,1.73243,0,1.12207.39062,1.73339,1.09765,1.73339C115.93165,121.73288,116.31446,121.12156,116.31446,119.99949Z"/><path class="cls-5" d="M121.60157,120.77292h-1.8711l-.47461,1.20606h-.35937l1.57226-3.958h.40625l1.56641,3.958H122.082Zm-.127-.31738-.64648-1.64941-.15625-.45508h-.01172l-.14453.4375-.66016,1.667Z"/><path class="cls-5" d="M126.916,121.979h-.33008V119.1362l.03711-.791-1.416,3.63379h-.30469l-1.41016-3.63379h-.00586l.03516.791V121.979h-.32227v-3.958h.51563l1.12109,2.86035.21485.69531h.00586l.22265-.68945,1.11524-2.86621h.52148Z"/><path class="cls-5" d="M145.79737,120.74949a1.21969,1.21969,0,0,1-1.31934,1.28906,1.28511,1.28511,0,0,1-1.373-.92285l.33008-.168a.93536.93536,0,0,0,1.03125.77344.90088.90088,0,0,0,.97754-.95313.87949.87949,0,0,0-.94727-.96,1.12442,1.12442,0,0,0-.9834.43164h-.2998l.21582-2.21875h2.20019v.31836h-1.91308l-.15528,1.46289-.00586.07813h.00586a1.24384,1.24384,0,0,1,.99512-.38965A1.18463,1.18463,0,0,1,145.79737,120.74949Z"/><path class="cls-5" d="M147.22022,119.23874a.29689.29689,0,1,1-.59375,0,.29689.29689,0,0,1,.59375,0Zm0,2.49414a.29689.29689,0,1,1-.2998-.2998A.28144.28144,0,0,1,147.22022,121.73288Z"/><path class="cls-5" d="M148.07862,120.00046c0-1.31933.50977-2.03906,1.45117-2.03906s1.45117.71973,1.45117,2.03906-.50976,2.03809-1.45117,2.03809S148.07862,121.3198,148.07862,120.00046Zm2.54883,0c0-1.12109-.38379-1.7334-1.09766-1.7334-.708,0-1.09765.61231-1.09765,1.7334s.38964,1.73242,1.09765,1.73242C150.24366,121.73288,150.62745,121.12156,150.62745,120.00046Z"/><path class="cls-5" d="M151.74464,120.00046c0-1.31933.50976-2.03906,1.45117-2.03906s1.45117.71973,1.45117,2.03906-.50977,2.03809-1.45117,2.03809S151.74464,121.3198,151.74464,120.00046Zm2.54882,0c0-1.12109-.38378-1.7334-1.09765-1.7334-.708,0-1.09766.61231-1.09766,1.7334s.38965,1.73242,1.09766,1.73242C153.90968,121.73288,154.29346,121.12156,154.29346,120.00046Z"/><path class="cls-5" d="M159.5796,120.7739h-1.8711l-.47363,1.20508h-.35937l1.57128-3.958h.40723l1.56543,3.958h-.35937Zm-.126-.31738-.64746-1.64942-.15527-.45605h-.0127l-.14355.4375-.66016,1.668Z"/><path class="cls-5" d="M164.895,121.979H164.565v-2.8418l.03613-.792-1.415,3.63379h-.30566l-1.40918-3.63379h-.00586l.03516.792v2.8418h-.32325v-3.958h.51563l1.12109,2.86133.21582.69531h.00586l.22266-.68945,1.11523-2.86719h.52149Z"/><path class="cls-5" d="M182.40229,118.98093a.92639.92639,0,0,1-.666.91113v.00586a1.06006,1.06006,0,0,1,.83985,1.03223c0,.6709-.56348,1.1084-1.40918,1.1084-.83985,0-1.40918-.4375-1.40918-1.1084a1.05942,1.05942,0,0,1,.8457-1.03223v-.00586a.9166.9166,0,0,1-.666-.91113c0-.624.4795-1.01367,1.2295-1.01367C181.916,117.96726,182.40229,118.35691,182.40229,118.98093Zm-.17969,1.91895c0-.50391-.41992-.834-1.05566-.834-.624,0-1.05567.33008-1.05567.834,0,.498.41992.82129,1.05567.82129C181.80854,121.72117,182.2226,121.39792,182.2226,120.89988ZM180.291,119.0112c0,.44336.34863.73145.876.73145.5332,0,.88183-.28809.88183-.73145,0-.45019-.34179-.72558-.88183-.72558C180.63276,118.28562,180.291,118.561,180.291,119.0112Z"/><path class="cls-5" d="M184.0351,119.23874a.29689.29689,0,1,1-.59375,0,.29689.29689,0,0,1,.59375,0Zm0,2.49414a.29689.29689,0,1,1-.2998-.2998A.28144.28144,0,0,1,184.0351,121.73288Z"/><path class="cls-5" d="M184.8935,120.00046c0-1.31933.50977-2.03906,1.45117-2.03906s1.45117.71973,1.45117,2.03906-.50976,2.03809-1.45117,2.03809S184.8935,121.3198,184.8935,120.00046Zm2.54883,0c0-1.12109-.38379-1.7334-1.09766-1.7334-.708,0-1.09765.61231-1.09765,1.7334s.38964,1.73242,1.09765,1.73242C187.05854,121.73288,187.44233,121.12156,187.44233,120.00046Z"/><path class="cls-5" d="M188.55952,120.00046c0-1.31933.50976-2.03906,1.45117-2.03906s1.45117.71973,1.45117,2.03906-.50977,2.03809-1.45117,2.03809S188.55952,121.3198,188.55952,120.00046Zm2.54882,0c0-1.12109-.38379-1.7334-1.09765-1.7334-.708,0-1.09766.61231-1.09766,1.7334s.38965,1.73242,1.09766,1.73242C190.72455,121.73288,191.10834,121.12156,191.10834,120.00046Z"/><path class="cls-5" d="M196.3935,120.7739h-1.87109l-.47364,1.20508h-.35937l1.57129-3.958h.40722l1.56543,3.958H196.874Zm-.126-.31738-.64746-1.64942-.15527-.45605h-.0127l-.14355.4375-.66016,1.668Z"/><path class="cls-5" d="M201.70893,121.979h-.33008v-2.8418l.03613-.792-1.415,3.63379h-.30566l-1.40918-3.63379h-.00586l.03516.792v2.8418h-.32324v-3.958h.51562l1.12109,2.86133.21582.69531h.00586l.22266-.68945,1.11523-2.86719h.52149Z"/><path class="cls-3" d="M39.99992,60.24925h-2a.25.25,0,0,1,0-.5h2a.25.25,0,0,1,0,.5Z"/><path class="cls-3" d="M39.99992,35.25413h-2a.25.25,0,0,1,0-.5h2a.25.25,0,0,1,0,.5Z"/><path class="cls-3" d="M39.99992,85.24925h-2a.25.25,0,0,1,0-.5h2a.25.25,0,0,1,0,.5Z"/><path class="cls-3" d="M115.99992,112.25022a.25048.25048,0,0,1-.25-.25v-2a.25.25,0,1,1,.5,0v2A.25048.25048,0,0,1,115.99992,112.25022Z"/><path class="cls-3" d="M77.99992,112.25022a.25048.25048,0,0,1-.25-.25v-2a.25.25,0,1,1,.5,0v2A.25048.25048,0,0,1,77.99992,112.25022Z"/><path class="cls-3" d="M190.73331,112.25022a.25048.25048,0,0,1-.25-.25v-2a.25.25,0,1,1,.5,0v2A.25048.25048,0,0,1,190.73331,112.25022Z"/><path class="cls-3" d="M153.99992,112.25022a.25048.25048,0,0,1-.25-.25v-2a.25.25,0,1,1,.5,0v2A.25048.25048,0,0,1,153.99992,112.25022Z"/><path class="cls-3" d="M39.99992,110.25022a.25048.25048,0,0,1-.25-.25v-100a.25.25,0,1,1,.5,0v100A.25048.25048,0,0,1,39.99992,110.25022Z"/><path class="cls-3" d="M39.99992,60.25022h-2a.25.25,0,0,1,0-.5h2a.25.25,0,0,1,0,.5Z"/><path class="cls-5" d="M26.07027,9.00437a.9346.9346,0,0,1-.55762.88769v.00586A1.04446,1.04446,0,0,1,26.25,10.9116c0,.68945-.56934,1.127-1.43945,1.127-.86329,0-1.43848-.4375-1.43848-1.127a1.04461,1.04461,0,0,1,.74316-1.01368V9.89206a.92807.92807,0,0,1-.56347-.88769c0-.6416.49707-1.03711,1.25879-1.03711S26.07027,8.36277,26.07027,9.00437Zm-.31836,1.85937c0-.456-.37109-.73193-.9414-.73193-.56348,0-.94141.27588-.94141.73193,0,.44971.36621.72559.94141.72559C25.39254,11.58933,25.75191,11.31345,25.75191,10.86374Zm-1.70312-1.811c0,.38965.30664.62939.76172.62939.456,0,.76171-.23974.76171-.62939,0-.40186-.29394-.63574-.76171-.63574S24.04879,8.65085,24.04879,9.05271Z"/><path class="cls-5" d="M27.04976,10c0-1.32519.51563-2.03857,1.47559-2.03857C29.48433,7.9614,30,8.67478,30,10s-.51563,2.03858-1.47461,2.03858C27.56539,12.03855,27.04976,11.32517,27.04976,10Zm2.45313,0c0-1.04345-.3418-1.60693-.97754-1.60693S27.54781,8.95652,27.54781,10s.3418,1.60743.97754,1.60743S29.50289,11.04343,29.50289,10Z"/><path class="cls-5" d="M26.664,33.021v.31787A5.22893,5.22893,0,0,0,25.18256,36.979H24.829a5.49094,5.49094,0,0,1,1.46289-3.64014H23.80365V33.021Z"/><path class="cls-5" d="M27.09759,35c0-1.31933.50977-2.03857,1.45118-2.03857S29.99994,33.68064,29.99994,35s-.50977,2.03858-1.45117,2.03858S27.09759,36.31931,27.09759,35Zm2.54883,0c0-1.12109-.38379-1.73291-1.09765-1.73291-.708,0-1.09766.61182-1.09766,1.73291,0,1.12159.38965,1.73291,1.09766,1.73291C29.26263,36.73288,29.64642,36.12156,29.64642,35Z"/><path class="cls-5" d="M26.27533,58.7529l-.3125.14991a.84948.84948,0,0,0-.88867-.624c-.7793,0-1.17969.83985-1.17969,1.80518,0,.10205.00586.21.01758.33594h.02343a1.08825,1.08825,0,0,1,1.13282-.89942,1.26,1.26,0,1,1-.02344,2.51807c-.96484,0-1.47461-.80322-1.47461-2.03858,0-1.34326.66016-2.03857,1.5293-2.03857A1.13809,1.13809,0,0,1,26.27533,58.7529ZM24.08,60.77341a.9079.9079,0,0,0,.959.9419.93307.93307,0,1,0,.00586-1.86524A.9222.9222,0,0,0,24.08,60.77341Z"/><path class="cls-5" d="M27.09759,60c0-1.31933.50977-2.03857,1.45118-2.03857S29.99994,58.68064,29.99994,60s-.50977,2.03858-1.45117,2.03858S27.09759,61.31931,27.09759,60Zm2.54883,0c0-1.12109-.38281-1.73291-1.09765-1.73291-.707,0-1.09766.61182-1.09766,1.73291,0,1.12159.39062,1.73291,1.09766,1.73291C29.26361,61.73288,29.64642,61.12156,29.64642,60Z"/><path class="cls-5" d="M26.37,85.74949a1.21969,1.21969,0,0,1-1.31933,1.28906,1.28512,1.28512,0,0,1-1.373-.92285l.33008-.168a.93537.93537,0,0,0,1.03125.77344.90087.90087,0,0,0,.97754-.95313.87949.87949,0,0,0-.94727-.96,1.12442,1.12442,0,0,0-.9834.43164h-.2998l.21582-2.21875h2.2002v.31836H24.289l-.15527,1.46289-.00586.07813h.00586a1.2438,1.2438,0,0,1,.99511-.38965A1.18463,1.18463,0,0,1,26.37,85.74949Z"/><path class="cls-5" d="M27.09758,85.00046c0-1.31933.50977-2.03906,1.45117-2.03906s1.45118.71973,1.45118,2.03906-.50977,2.03809-1.45118,2.03809S27.09758,86.3198,27.09758,85.00046Zm2.54883,0c0-1.12109-.38379-1.7334-1.09766-1.7334-.708,0-1.09765.61231-1.09765,1.7334s.38965,1.73242,1.09765,1.73242C29.26262,86.73288,29.64641,86.12156,29.64641,85.00046Z"/><path class="cls-5" d="M26.37108,110.94089h-.70117V111.979h-.48047v-1.03809H23.2578v-.35351l1.80664-2.56641h.60547v2.50684h.70117Zm-2.60351-.41308h1.42187v-1.48145l.02344-.63574h-.01172a5.52143,5.52143,0,0,1-.39649.66016Z"/><path class="cls-5" d="M27.05077,109.99949c0-1.3252.51562-2.03809,1.47461-2.03809S30,108.67429,30,109.99949s-.51563,2.03906-1.47461,2.03906S27.05077,111.32468,27.05077,109.99949Zm2.45312,0c0-1.043-.34179-1.60645-.97851-1.60645-.63477,0-.97656.56348-.97656,1.60645,0,1.04394.34179,1.60742.97656,1.60742C29.1621,111.60691,29.50389,111.04343,29.50389,109.99949Z"/><path class="cls-3" d="M39.99992,35.25022h-2a.25.25,0,0,1,0-.5h2a.25.25,0,0,1,0,.5Z"/><path class="cls-3" d="M39.99992,85.25022h-2a.25.25,0,0,1,0-.5h2a.25.25,0,0,1,0,.5Z"/><rect class="cls-6" width="270" height="140"/></g></g></svg>