<svg xmlns="http://www.w3.org/2000/svg" width="48" height="48" viewBox="0 0 48 48"><defs><style>.cls-1{fill:#fff;}.cls-2{fill:none;}.cls-3{fill:#ddd;}</style></defs><g id="Layer_2" data-name="Layer 2"><g id="Layer_1-2" data-name="Layer 1"><path class="cls-1" d="M40,20H36.36328a12.80391,12.80391,0,0,0-.79785-1.90857l2.57715-2.57678a2.00164,2.00164,0,0,0,0-2.82813L35.31348,9.8584a1.99928,1.99928,0,0,0-2.82813,0L29.9082,12.43494A12.861,12.861,0,0,0,28,11.63623V8a2.0001,2.0001,0,0,0-2-2H22a2.0001,2.0001,0,0,0-2,2v3.63623a12.861,12.861,0,0,0-1.9082.79871L15.51465,9.8584a2.001,2.001,0,0,0-2.82813,0l-2.8291,2.82812a2.00164,2.00164,0,0,0,0,2.82813l2.57715,2.57678A12.80391,12.80391,0,0,0,11.63672,20H8a2.0001,2.0001,0,0,0-2,2v4a2.0001,2.0001,0,0,0,2,2h3.63672a12.80391,12.80391,0,0,0,.79785,1.90857L9.85742,32.48535a2.00164,2.00164,0,0,0,0,2.82813l2.8291,2.82812a1.99927,1.99927,0,0,0,2.82813,0l2.57715-2.57654A12.861,12.861,0,0,0,20,36.36377V40a2.0001,2.0001,0,0,0,2,2h4a2.0001,2.0001,0,0,0,2-2V36.36377a12.861,12.861,0,0,0,1.9082-.79871l2.57715,2.57654a1.99927,1.99927,0,0,0,2.82813,0l2.8291-2.82812a2.00164,2.00164,0,0,0,0-2.82813l-2.57715-2.57678A12.80391,12.80391,0,0,0,36.36328,28H40a2.0001,2.0001,0,0,0,2-2V22A2.0001,2.0001,0,0,0,40,20ZM24,33a9,9,0,1,1,9-9A9.00984,9.00984,0,0,1,24,33Z"/><rect class="cls-2" width="48" height="48"/><path class="cls-3" d="M24,33a9,9,0,1,1,9-9A9.01,9.01,0,0,1,24,33Zm0-16a7,7,0,1,0,7,7A7.00818,7.00818,0,0,0,24,17Z"/></g></g></svg>