<svg xmlns="http://www.w3.org/2000/svg" width="48" height="48" viewBox="0 0 48 48"><defs><style>.b384bd17-89fa-4397-bb36-6796d95d125a{fill:none;}.b5fbac97-1c7a-4c82-a103-0f085fc05da4{fill:#fff;}</style></defs><g id="a6f542e9-8b96-41de-8f2f-778f6aa0eca3" data-name="Layer 2"><g id="ac3eaf29-ce56-4f23-8ebd-1d624a455fbb" data-name="Layer 1"><rect class="b384bd17-89fa-4397-bb36-6796d95d125a" width="48" height="48"/><path class="b5fbac97-1c7a-4c82-a103-0f085fc05da4" d="M35.99989,15.00035h-24a2.0026,2.0026,0,0,0-2,2v14a2.0026,2.0026,0,0,0,2,2h24a2.00229,2.00229,0,0,0,2-2v-14A2.00229,2.00229,0,0,0,35.99989,15.00035Zm-1.44336,2-10.55664,8.7041-10.55615-8.7041Zm-22.55664,14V18.40214l11.36377,9.36969a.99993.99993,0,0,0,1.27246,0L35.99989,18.402l.001,12.59833Z"/></g></g></svg>