<svg xmlns="http://www.w3.org/2000/svg" width="48" height="48" viewBox="0 0 48 48"><defs><style>.e6a6226a-9817-458a-81fc-f26f91b4b51f{fill:#fff;}.b949f085-c975-45d2-9956-16618d0e078b{fill:none;}</style></defs><g id="f8126960-ada4-46ec-9577-37c5d9e141f2" data-name="Layer 2"><g id="bb9bb11d-b5ae-40cd-ae13-fcb796acd5a4" data-name="Layer 1"><path class="e6a6226a-9817-458a-81fc-f26f91b4b51f" d="M40.00044,12.99959h-32a2.0026,2.0026,0,0,0-2,2v18a2.0026,2.0026,0,0,0,2,2h32a2.0026,2.0026,0,0,0,2-2v-18A2.0026,2.0026,0,0,0,40.00044,12.99959Zm-1.51856,2L24.00044,25.75448,9.519,14.99959Zm-30.48144,18V16.36312L23.40376,27.80233a1.00106,1.00106,0,0,0,1.19336,0L40.00044,16.36306l.001,16.63653Z"/><rect class="b949f085-c975-45d2-9956-16618d0e078b" width="48" height="48"/></g></g></svg>