<svg xmlns="http://www.w3.org/2000/svg" width="50" height="50" viewBox="0 0 50 50"><defs><style>.cls-1{fill:none;}.cls-2{fill:#33d67b;fill-rule:evenodd;}</style></defs><g id="Layer_2" data-name="Layer 2"><g id="Layer_1-2" data-name="Layer 1"><rect class="cls-1" width="50" height="50"/><path id="Path" class="cls-2" d="M37.51786,17.30773a10.7617,10.7617,0,0,1-2.92694.82244A4.93739,4.93739,0,0,0,36.84055,15.3a10.10191,10.10191,0,0,1-3.2414,1.23367,4.82784,4.82784,0,0,0-3.701-1.59651,5.07919,5.07919,0,0,0-5.0798,5.0798,4.661,4.661,0,0,0,.121,1.1611A14.53778,14.53778,0,0,1,14.441,15.85635a5.03119,5.03119,0,0,0-.7015,2.56409,4.79088,4.79088,0,0,0,2.20125,4.23317,5.9919,5.9919,0,0,1-2.419-.62892v.04837a4.83075,4.83075,0,0,0,1.20948,3.22931,5.08034,5.08034,0,0,0,2.97531,1.75374,4.71853,4.71853,0,0,1-1.23366.19352,6.81432,6.81432,0,0,1-.9434-.09676,5.164,5.164,0,0,0,1.80213,2.51571,4.82691,4.82691,0,0,0,2.939,1.016,10.03716,10.03716,0,0,1-6.31348,2.17706,9.74966,9.74966,0,0,1-1.20947-.07257,14.24987,14.24987,0,0,0,7.789,2.27382,14.80162,14.80162,0,0,0,5.0798-.85873,13.08431,13.08431,0,0,0,4.06385-2.298,15.25633,15.25633,0,0,0,2.91484-3.314,14.63839,14.63839,0,0,0,2.40685-7.99465,6.4473,6.4473,0,0,0-.02419-.65311A9.873,9.873,0,0,0,37.51786,17.30773Z"/></g></g></svg>