<svg xmlns="http://www.w3.org/2000/svg" width="50" height="50" viewBox="0 0 50 50"><defs><style>.cls-1{fill:none;}.cls-2{fill:#33d67b;fill-rule:evenodd;}</style></defs><g id="Layer_2" data-name="Layer 2"><g id="Layer_1-2" data-name="Layer 1"><rect class="cls-1" width="50" height="50"/><path id="Combined-Shape" class="cls-2" d="M25.33788,13.75057c1.40436.005,6.97755.043,10.86412.33034a4.51828,4.51828,0,0,1,3.206,1.38468,7.17334,7.17334,0,0,1,1.272,3.24556A50.53607,50.53607,0,0,1,41,24.0036h0v2.48118a50.51,50.51,0,0,1-.32,5.29244,7.17336,7.17336,0,0,1-1.272,3.24557,4.52506,4.52506,0,0,1-3.206,1.3857c-4.478.3311-11.202.34132-11.202.34132s-8.32-.07766-10.88-.329a5.35457,5.35457,0,0,1-3.529-1.398A7.16744,7.16744,0,0,1,9.32,31.77722,50.51,50.51,0,0,1,9,26.48478l.001-2.73713c.0174-2.302.26189-4.54.31061-4.96453l.00841-.072a7.16742,7.16742,0,0,1,1.271-3.24556,4.52017,4.52017,0,0,1,3.207-1.38468c3.88657-.28737,9.45976-.32533,10.86412-.33034ZM21.695,20.30328l.001,9.18794,8.645-4.57813Z"/></g></g></svg>